<svg fill="none" height="250" viewBox="0 0 250 250" width="250" xmlns="http://www.w3.org/2000/svg" xmlns:xlink="http://www.w3.org/1999/xlink"><clipPath id="a"><path d="m0 0h250v250h-250z"/></clipPath><g clip-path="url(#a)"><path d="m0 125c0 24.723 7.33112 48.89 21.0663 69.446 13.7352 20.556 33.2575 36.578 56.0982 46.039 22.8405 9.461 47.9735 11.936 72.2215 7.113s46.521-16.728 64.002-34.21c17.482-17.481 29.387-39.754 34.21-64.002s2.348-49.381-7.113-72.2215c-9.461-22.8407-25.483-42.363-46.039-56.0982-20.556-13.73518-44.723-21.0663-69.446-21.0663-33.1523 0-64.9463 13.1696-88.3884 36.6116-23.442 23.4421-36.6116 55.2361-36.6116 88.3884z" fill="#121122"/><path clip-rule="evenodd" d="m37.7151 93.3266c-1.5278 9.8324.2708 19.9504 2.1389 29.6734.7198 1.553 2.2971 2.599 4.2412 3.269-3.9873 8.417-6.1792 17.595-6.1792 27.203 0 40.687 39.3889 73.701 87.972 73.701 48.584 0 88-32.937 88-73.701 0-9.709-2.236-18.977-6.3-27.463 1.626-.67 2.923-1.643 3.558-3.009 1.868-9.723 3.659-19.841 2.132-29.6734-1.43-13.1946-5.958-17.2225-19.555-13.8407-6.918 1.6063-16.035 5.6891-23.046 10.4914-13.122-6.5117-28.436-10.2484-44.789-10.2484-16.54 0-32.0138 3.8266-45.2318 10.4813-7.0525-4.9032-16.3555-9.0922-23.3786-10.7243-13.6042-3.3818-18.125.6461-19.5625 13.8407zm51.2216 58.1734c-10.3125-4.548-27.9373-3.396-27.9373-3.396s.8264 16.591 10.9444 22.223c11.9999 6.673 34.3122 3.368 34.3122 3.368s-1.896-15.431-17.3193-22.229zm57.2983 22.222s22.313 3.306 34.313-3.368c10.118-5.632 10.944-22.222 10.944-22.222s-17.625-1.153-27.937 3.396c-15.424 6.736-17.32 22.131-17.32 22.131zm-24.75 11.694c0 1.223 2.271 2.216 5.07 2.216 2.798 0 5.069-.993 5.069-2.216 0-1.221-2.271-2.207-5.069-2.207-2.799 0-5.07.95-5.07 2.207z" fill="#f2f4f8" fill-rule="evenodd"/><path clip-rule="evenodd" d="m226.146 175.202c-8.234-3.18-16.98-4.827-25.806-4.861h.014c-2.236 0-2.236-3.473 0-3.473 9.14.03 18.198 1.727 26.73 5.007.431.132.796.425 1.019.817.224.392.288.856.181 1.294-.125.444-.419.819-.819 1.047-.401.227-.874.288-1.319.169zm-200.875-3.25c8.5338-3.28 17.5939-4.977 26.7361-5.007v.02c2.2362 0 2.2292 3.472 0 3.472-8.8287.032-17.5772 1.679-25.8125 4.861-.4437.118-.9158.057-1.3146-.171-.3988-.227-.6923-.602-.8173-1.044-.1105-.442-.0468-.91.1782-1.307.2249-.397.5937-.692 1.0301-.824zm17.7017 9.95c4.2705-1.359 8.7126-2.104 13.1929-2.215 2.2237.013 2.2196 3.472-.0124 3.472-4.0864.107-8.1375.788-12.0347 2.021-3.625 1.063-7.7708 2.563-10.4166 5.015-1.6389 1.52-4.0973-.931-2.4514-2.452 3.2152-2.972 7.6389-4.611 11.7222-5.841zm13.1929-2.215h.0015-.0139zm3.9595 8.674c-3.4824 1.491-6.8303 3.277-10.0069 5.341-3.2087 1.977-6.0322 4.521-8.3334 7.506-.2309.397-.2955.87-.1797 1.315.1157.445.4025.825.7978 1.06.4005.222.8712.283 1.3145.167.4434-.115.8256-.396 1.0674-.785 1.9515-2.695 4.75-4.785 7.5209-6.57 3.0413-1.929 6.232-3.613 9.5416-5.034.3951-.234.6822-.615.7991-1.059.117-.445.0544-.918-.1741-1.316-.2406-.388-.621-.67-1.0628-.786-.4419-.116-.9115-.059-1.3122.161zm136.0559-5.271c4.087.102 8.139.78 12.035 2.014 2.014.573 3.98 1.299 5.882 2.173 1.641.718 3.164 1.678 4.521 2.848 1.639 1.514 4.097-.93 2.458-2.459-3.194-2.964-7.59-4.611-11.701-5.839-4.271-1.361-8.714-2.104-13.195-2.209-2.236 0-2.243 3.472 0 3.472zm3.834 13.201c-3.004-1.857-6.145-3.482-9.396-4.861v-.034c-.394-.236-.68-.616-.796-1.06-.118-.444-.056-.916.171-1.315.244-.387.626-.666 1.068-.78.443-.115.912-.057 1.314.162 6.764 2.951 13.882 6.743 18.305 12.847.229.398.293.87.178 1.314-.116.445-.402.825-.796 1.061-.4.221-.87.28-1.312.163-.443-.116-.824-.398-1.063-.788-2-2.757-4.826-4.896-7.673-6.709z" fill="#f2f4f8" fill-rule="evenodd"/><path d="m12.0763 131.847c1.6042-2.5 15.7014-10.02 33.1458-14.486 3.7652-10.692 8.4107-21.0548 13.8889-30.979-.0694 0 13.9514-25.1667 13.8889-25.1806-4.0207-1.8297-7.8813-3.9923-11.5417-6.4652-.6197-.4768-1.1814-1.0245-1.6736-1.632-.3715-.6131-.5639-1.318-.5555-2.0348 0-.5832.8264-1.625 1.1944-2.0832.9392-1.1047 1.9757-2.1227 3.0972-3.0418 2.6733-2.1889 5.4821-4.2067 8.4098-6.0416 1.3889-.9166 2.8332-1.8125 4.2569-2.7153 10.0001-6.3681 15.479-11.1597 24.6396-16.4236 8.75-5.0138 13-8.1041 23.145-7.5833 12.75 0 44.444 40.375 58.737 61.1806 8.568 12.4997 20.068 35.0068 24.305 43.4728 1.013.257 1.931.5 2.777.75 13 3.902 25.75 9.625 28.868 13.263 2.779 3.237-9.361 4.681-21.326 6.764-11.965 2.084-52.556 3.118-91.562 3.382-39.0069.264-84.535-1.041-94.4447-2.604-9.9097-1.562-21.243-4.423-19.25-7.542z" fill="#6665dd"/><path d="m196.138 96.9727s-25.694-6.4375-70.965-6.4375c-48.611 0-72.0207 7.5-72.0207 7.5s-2.7778 5.2768-3.9861 8.3328c-1.2084 3.055-3.9445 10.993-3.9445 10.993s35.3681-6.333 80.6323-6.333c27.255.113 54.459 2.412 81.347 6.875 0 0-4.104-9.605-6.563-13.701-2.458-4.098-4.5-7.2293-4.5-7.2293z" fill="#ff99a5"/><path d="m43.2152 42.6596c2.9444-.4305 6.9444 8.5834 6.9444 8.5834s9.2639-2.4931 10.7083 0c1.4444 2.493-6.5138 8.4791-6.5138 8.4791s4.8055 8.4514 3.2847 10.2084c-1.5209 1.7569-10.0903-3.5764-10.0903-3.5764s-6.5347 7.3611-8.6667 6.25.2848-10.7014.2848-10.7014-9.2431-3.9306-8.6111-6.2639c.6318-2.3333 10.2638-3.0417 10.2638-3.0417s-.5416-9.5069 2.3959-9.9375z" fill="#ffe600"/></g></svg>