<svg fill="none" height="250" viewBox="0 0 250 250" width="250" xmlns="http://www.w3.org/2000/svg" xmlns:xlink="http://www.w3.org/1999/xlink"><linearGradient id="a"><stop offset="0" stop-color="#4400e2"/><stop offset=".0411" stop-color="#7013c5"/><stop offset=".0866" stop-color="#9a25aa"/><stop offset=".1333" stop-color="#bc3494"/><stop offset=".1804" stop-color="#d73f82"/><stop offset=".2284" stop-color="#ea4876"/><stop offset=".2776" stop-color="#f54c6e"/><stop offset=".33" stop-color="#f94e6c"/><stop offset="1" stop-color="#ffd402"/></linearGradient><linearGradient id="b" gradientUnits="userSpaceOnUse" x1="40.9657" x2="265.595" xlink:href="#a" y1="127.14" y2="103.806"/><linearGradient id="c" gradientUnits="userSpaceOnUse" x1="42.5295" x2="267.159" xlink:href="#a" y1="142.189" y2="118.855"/><linearGradient id="d" gradientUnits="userSpaceOnUse" x1="41.4883" x2="266.118" xlink:href="#a" y1="132.158" y2="108.824"/><linearGradient id="e" gradientUnits="userSpaceOnUse" x1="41.9952" x2="266.625" xlink:href="#a" y1="137.061" y2="113.727"/><clipPath id="f"><path d="m0 0h250v250h-250z"/></clipPath><g clip-path="url(#f)"><circle cx="125" cy="125" fill="#fff" r="125"/><path d="m51.782 62.5c-5.853 0-10.5632 4.7381-10.5632 10.5632v52.7888 22.715 30.407c0 5.825 4.7102 10.564 10.5632 10.564s10.5632-4.739 10.5632-10.564v-105.9108c-.0278-5.8251-4.7381-10.5632-10.5632-10.5632z" fill="url(#b)"/><path d="m198.219 62.5c-5.826 0-10.564 4.7381-10.564 10.5632v105.9108c0 5.825 4.738 10.564 10.564 10.564 5.825 0 10.563-4.739 10.563-10.564v-105.9108c0-5.8251-4.738-10.5632-10.563-10.5632z" fill="url(#c)"/><path d="m100.586 84.5195c-5.8249 0-10.5631 4.7103-10.5631 10.5633v61.8742c0 5.825 4.7382 10.563 10.5631 10.563 5.825 0 10.563-4.738 10.563-10.563v-61.8742c0-5.8251-4.738-10.5633-10.563-10.5633z" fill="url(#d)"/><path d="m149.414 102.301c-5.825 0-10.563 4.738-10.563 10.563v26.116c0 5.825 4.738 10.563 10.563 10.563s10.564-4.738 10.564-10.563v-26.116c-.028-5.853-4.739-10.563-10.564-10.563z" fill="url(#e)"/></g></svg>