<svg width="250" height="250" viewBox="0 0 250 250" fill="none" xmlns="http://www.w3.org/2000/svg">
<g clip-path="url(#clip0_37_33873)">
<circle cx="125" cy="125" r="125" fill="white"/>
<path d="M51.782 62.5C45.929 62.5 41.2188 67.2381 41.2188 73.0632V125.852V148.567V178.974C41.2188 184.799 45.929 189.538 51.782 189.538C57.635 189.538 62.3452 184.799 62.3452 178.974V73.0632C62.3174 67.2381 57.6071 62.5 51.782 62.5Z" fill="url(#paint0_linear_37_33873)"/>
<path d="M198.219 62.5C192.393 62.5 187.655 67.2381 187.655 73.0632V178.974C187.655 184.799 192.393 189.538 198.219 189.538C204.044 189.538 208.782 184.799 208.782 178.974V73.0632C208.782 67.2381 204.044 62.5 198.219 62.5Z" fill="url(#paint1_linear_37_33873)"/>
<path d="M100.586 84.5195C94.7611 84.5195 90.0229 89.2298 90.0229 95.0828V156.957C90.0229 162.782 94.7611 167.52 100.586 167.52C106.411 167.52 111.149 162.782 111.149 156.957V95.0828C111.149 89.2577 106.411 84.5195 100.586 84.5195Z" fill="url(#paint2_linear_37_33873)"/>
<path d="M149.414 102.301C143.589 102.301 138.851 107.039 138.851 112.864V138.98C138.851 144.805 143.589 149.543 149.414 149.543C155.239 149.543 159.978 144.805 159.978 138.98V112.864C159.95 107.011 155.239 102.301 149.414 102.301Z" fill="url(#paint3_linear_37_33873)"/>
</g>
<defs>
<linearGradient id="paint0_linear_37_33873" x1="40.9657" y1="127.14" x2="265.595" y2="103.806" gradientUnits="userSpaceOnUse">
<stop stop-color="#4400E2"/>
<stop offset="0.0411" stop-color="#7013C5"/>
<stop offset="0.0866" stop-color="#9A25AA"/>
<stop offset="0.1333" stop-color="#BC3494"/>
<stop offset="0.1804" stop-color="#D73F82"/>
<stop offset="0.2284" stop-color="#EA4876"/>
<stop offset="0.2776" stop-color="#F54C6E"/>
<stop offset="0.33" stop-color="#F94E6C"/>
<stop offset="1" stop-color="#FFD402"/>
</linearGradient>
<linearGradient id="paint1_linear_37_33873" x1="42.5295" y1="142.189" x2="267.159" y2="118.855" gradientUnits="userSpaceOnUse">
<stop stop-color="#4400E2"/>
<stop offset="0.0411" stop-color="#7013C5"/>
<stop offset="0.0866" stop-color="#9A25AA"/>
<stop offset="0.1333" stop-color="#BC3494"/>
<stop offset="0.1804" stop-color="#D73F82"/>
<stop offset="0.2284" stop-color="#EA4876"/>
<stop offset="0.2776" stop-color="#F54C6E"/>
<stop offset="0.33" stop-color="#F94E6C"/>
<stop offset="1" stop-color="#FFD402"/>
</linearGradient>
<linearGradient id="paint2_linear_37_33873" x1="41.4883" y1="132.158" x2="266.118" y2="108.824" gradientUnits="userSpaceOnUse">
<stop stop-color="#4400E2"/>
<stop offset="0.0411" stop-color="#7013C5"/>
<stop offset="0.0866" stop-color="#9A25AA"/>
<stop offset="0.1333" stop-color="#BC3494"/>
<stop offset="0.1804" stop-color="#D73F82"/>
<stop offset="0.2284" stop-color="#EA4876"/>
<stop offset="0.2776" stop-color="#F54C6E"/>
<stop offset="0.33" stop-color="#F94E6C"/>
<stop offset="1" stop-color="#FFD402"/>
</linearGradient>
<linearGradient id="paint3_linear_37_33873" x1="41.9952" y1="137.061" x2="266.625" y2="113.727" gradientUnits="userSpaceOnUse">
<stop stop-color="#4400E2"/>
<stop offset="0.0411" stop-color="#7013C5"/>
<stop offset="0.0866" stop-color="#9A25AA"/>
<stop offset="0.1333" stop-color="#BC3494"/>
<stop offset="0.1804" stop-color="#D73F82"/>
<stop offset="0.2284" stop-color="#EA4876"/>
<stop offset="0.2776" stop-color="#F54C6E"/>
<stop offset="0.33" stop-color="#F94E6C"/>
<stop offset="1" stop-color="#FFD402"/>
</linearGradient>
<clipPath id="clip0_37_33873">
<rect width="250" height="250" fill="white"/>
</clipPath>
</defs>
</svg>
