<svg fill="none" height="250" viewBox="0 0 250 250" width="250" xmlns="http://www.w3.org/2000/svg" xmlns:xlink="http://www.w3.org/1999/xlink"><linearGradient id="a"><stop offset="0" stop-color="#64c7f0"/><stop offset="1" stop-color="#4a9cd6"/></linearGradient><linearGradient id="b" gradientUnits="userSpaceOnUse" x1="30.4679" x2="204.622" xlink:href="#a" y1="173.01" y2="36.5163"/><linearGradient id="c" gradientUnits="userSpaceOnUse" x1="51.0922" x2="232.505" xlink:href="#a" y1="197.91" y2="60.9971"/><linearGradient id="d" gradientUnits="userSpaceOnUse" x1="66.4172" x2="242.342" xlink:href="#a" y1="218.466" y2="84.8995"/><clipPath id="e"><path d="m0 0h250v250h-250z"/></clipPath><g clip-path="url(#e)"><path clip-rule="evenodd" d="m250 125c0 69.036-55.964 125-125 125-69.0359 0-125-55.964-125-125 0-69.0359 55.9641-125 125-125 69.036 0 125 55.9641 125 125z" fill="#fff" fill-rule="evenodd"/><path d="m41.6665 187.371 60.4185-111.7744 53.195-23.5107-60.4189 111.7741z" fill="url(#b)"/><path d="m101.955 161.761 45.839-84.9798 26.006 25.6118-45.182 85.112z" fill="url(#c)"/><path d="m178.922 105.016 33.887 12.346-16.944 30.997-41.111 1.445z" fill="url(#d)"/></g></svg>