<svg fill="none" height="250" viewBox="0 0 250 250" width="250" xmlns="http://www.w3.org/2000/svg"><path d="m125 250c69.036 0 125-55.964 125-125 0-69.0356-55.964-125-125-125-69.0356 0-125 55.9644-125 125 0 69.036 55.9644 125 125 125z" fill="#f3ba2f"/><path clip-rule="evenodd" d="m157.422 138.292 18.855 18.802-51.257 51.203-51.2025-51.203 18.8556-18.802 32.3469 32.348zm-32.402-32.401 19.127 19.127-19.127 19.126-19.072-19.072v-.054l3.359-3.36 1.626-1.625zm-64.4773.271 18.8556 18.856-18.8556 18.801-18.8557-18.856zm128.9553 0 18.856 18.856-18.856 18.801-18.856-18.856zm-64.478-64.4778 51.203 51.2029-18.855 18.8559-32.348-32.4017-32.3469 32.3477-18.8556-18.8019z" fill="#131415" fill-rule="evenodd"/></svg>