<svg fill="none" height="250" viewBox="0 0 250 250" width="250" xmlns="http://www.w3.org/2000/svg" xmlns:xlink="http://www.w3.org/1999/xlink"><clipPath id="a"><path d="m0 0h250v250h-250z"/></clipPath><g clip-path="url(#a)"><path d="m124.95 249.002c68.456 0 123.95-55.495 123.95-123.95 0-68.4561-55.494-123.95044-123.95-123.95044-68.4557 0-123.95 55.49434-123.95 123.95044 0 68.455 55.4943 123.95 123.95 123.95z" fill="#000"/><path d="m182.1 110.802v-17.4504c0-.75-.6-1.4-1.4-1.4h-21.6c-.75 0-1.4-.6-1.4-1.4v-26.05c0-.75-.6-1.4-1.4-1.4h-17.45c-.75 0-1.4.6-1.4 1.4v26.15c0 .75-.6 1.4-1.4 1.4h-22.4c-.75 0-1.4-.6-1.4-1.4v-26.15c0-.75-.6-1.4-1.4-1.4h-17.4499c-.75 0-1.4.6-1.4 1.4v26.15c0 .75-.6 1.4-1.4 1.4h-21.6c-.75 0-1.4.6-1.4 1.4v17.4504c0 .75.6 1.4 1.4 1.4h21.6c.75 0 1.4.6 1.4 1.4v27.15c0 .75-.6 1.4-1.4 1.4h-21.6c-.75 0-1.4.6-1.4 1.4v17.45c0 .75.6 1.4 1.4 1.4h21.6c.75 0 1.4.6 1.4 1.4v26.15c0 .75.6 1.4 1.4 1.4h17.4499c.75 0 1.4-.6 1.4-1.4v-26.15c0-.75.6-1.4 1.4-1.4h22.4c.75 0 1.4.6 1.4 1.4v26.15c0 .75.6 1.4 1.4 1.4h17.45c.75 0 1.4-.6 1.4-1.4v-26.15c0-.75.6-1.4 1.4-1.4h21.6c.75 0 1.4-.6 1.4-1.4v-17.45c0-.75-.6-1.4-1.4-1.4h-21.6c-.75 0-1.4-.6-1.4-1.4v-27.15c0-.75.6-1.4 1.4-1.4h21.6c.8-.1 1.4-.7 1.4-1.5zm-45.9 31.3h-22.4c-.75 0-1.4-.6-1.4-1.4v-27.15c0-.75.6-1.4 1.4-1.4h22.4c.75 0 1.4.6 1.4 1.4v27.15c0 .75-.65 1.4-1.4 1.4z" fill="#fff"/></g></svg>