<svg fill="none" height="256" viewBox="0 0 256 256" width="256" xmlns="http://www.w3.org/2000/svg"><path d="m5.20011 168c1.8-2.8 3.4-5.2 5.19999-8l3 1.8c37.6 24.2 75.4 48.4 112.9999 72.8 2.2 1.4 3.6 1.6 5.8 0 35.8-23.2 71.8-46.2 107.8-69.2 4.2-2.6 6.4-6 6.2-11s0-10 0-15.8c-1.4.8-2.6 1.4-3.6 2-36 23-72 45.8-108 68.8-4.4 2.8-8.2 3-12.6.2-36.5999-23.4-73.1999-46.8-109.9999-69.8-7.99999-5-11.99998685-11.6-11.599987-21.2.4-7 0-14 0-21.0003 0-3.2 1.199997-5.6 3.999997-7.4 39.59999-26.2 79.59999-52.2 119.39989-78.2 1.6-1 3.2-2.4 5-2.6 2.2-.2 4.8.2 6.4 1.4 38.8 24.6 77.6 49.2 116.4 74 6 3.8 5.6 10.2-.6 14l-89.4 56.4003c-8.8 5.6-17.6 10.8-26.2 16.6-4.2 2.8-7.8 2.8-12.2 0-36.3999-23-73.1999-46-109.7999-69-1-.6-2-1.2-3.4-2 0 7.6-.19999 14.8 0 22 .2 3.6 2.8 6 5.8 7.8l86.9999 55.2c7.6 4.8 15 9.4 22.4 14.4 1.8 1.2 3.2 1.2 5.2 0 36.8-23.6 73.8-47.2 110.8-70.6 1-.6 2-1.4 3-1.8 5.4-2.6 11.2.6 11.4 6.6.2 7.8.2 15.6 0 23.4-.2 6.8-3.8 11.6-9.6 15.2-24.4 15.6-48.8 31.2-73.2 47-12.8 8.2-25.8 16.4-38.6 24.8-3.6 2.4-6.8 2.4-10.4 0-38.7999-25.2-77.9999-50.4-116.99989-75.6-.6-.2-1-.6-1.6-1.2zm11.99999-74.8003c.8.8 1.6 1.2 2.2 1.8 36 22.6003 72 45.2003 107.7999 67.8003 1.8 1.2 3 .8 4.6-.2 36.4-23 72.8-46 109.2-68.8003.8-.6 1.8-1.2 2.8-2-.8-.6-1.2-1-1.8-1.4-36.4-23.2-72.8-46.4-109.4-69.6-2-1.4-3.4-.6-5 .4-24.8 16.2-49.7999 32.6-74.5999 48.8-12 7.6-23.8 15.4-35.8 23.2z" fill="#2a8ac7"/></svg>