<svg fill="none" height="250" viewBox="0 0 250 250" width="250" xmlns="http://www.w3.org/2000/svg" xmlns:xlink="http://www.w3.org/1999/xlink"><clipPath id="a"><path d="m0 0h250v250h-250z"/></clipPath><g clip-path="url(#a)"><path clip-rule="evenodd" d="m125 0c69.025 0 125 55.975 125 125s-55.975 125-125 125-125-55.975-125-125 55.975-125 125-125z" fill="#66ddfb" fill-rule="evenodd"/><g fill="#000"><path d="m116.268 101.049h41.837l42.797 42.521c2.786 2.766 2.799 7.271.027 10.05l-54.889 55.165h-43.087l13.032-12.67 47.836-47.533-47.23-47.539"/><path d="m133.455 148.47h-41.8232l-42.8045-42.521c-.6624-.658-1.1886-1.44-1.5485-2.301-.3598-.861-.5463-1.785-.5488-2.719-.0024-.933.1792-1.8577.5346-2.7208.3553-.8632.8774-1.6477 1.5364-2.3088l54.888-55.1651h43.095l-13.026 12.6701-47.8423 47.5326 47.2363 47.533"/></g></g></svg>