<svg fill="none" height="250" viewBox="0 0 250 250" width="250" xmlns="http://www.w3.org/2000/svg" xmlns:xlink="http://www.w3.org/1999/xlink"><clipPath id="a"><path d="m0 0h250v250h-250z"/></clipPath><g clip-path="url(#a)"><path d="m125 .654297c-68.7172 0-124.345459 55.628303-124.345459 124.345703 0 68.717 55.628259 124.345 124.345459 124.345 68.717 0 124.346-55.628 124.346-124.345 0-68.7174-55.629-124.345703-124.346-124.345703z" fill="#1a53f0"/><path d="m164.267 57.068c-18.455 0-33.377 14.9215-33.377 33.377 0 18.455 14.922 33.377 33.377 33.377 18.456 0 33.377-14.922 33.377-33.377 0-18.4555-14.921-33.377-33.377-33.377zm0 56.675c-12.827 0-23.298-10.471-23.298-23.298 0-12.8272 10.471-23.2984 23.298-23.2984s23.299 10.4712 23.299 23.2984c0 12.827-10.472 23.298-23.299 23.298zm-71.2041 14.529c-18.4555 0-33.377 14.922-33.377 33.377 0 18.456 14.9215 33.377 33.377 33.377 18.4551 0 33.3771-14.921 33.3771-33.377 0-18.455-14.922-33.377-33.3771-33.377zm0 56.676c-12.8272 0-23.2984-10.472-23.2984-23.299s10.4712-23.298 23.2984-23.298c12.8271 0 23.2981 10.471 23.2981 23.298s-10.471 23.299-23.2981 23.299zm33.3771-117.8014v-10.0786h-33.3771c-15.9686-.1309-29.5812 11.1257-32.7225 26.7016-3.1414 15.5759 5.1047 31.2824 19.7644 37.4344s31.6752 1.178 40.5762-11.911c8.9-13.0888 7.46-30.759-3.665-42.1464zm-33.3771 46.5964c-12.8272 0-23.2984-10.471-23.2984-23.298 0-12.8272 10.4712-23.2984 23.2984-23.2984 12.8271 0 23.2981 10.4712 23.2981 23.2984 0 12.827-10.471 23.298-23.2981 23.298z" fill="#fff"/></g></svg>