<svg fill="none" height="250" viewBox="0 0 250 250" width="250" xmlns="http://www.w3.org/2000/svg" xmlns:xlink="http://www.w3.org/1999/xlink"><clipPath id="a"><path d="m0 0h250v250h-250z"/></clipPath><clipPath id="b"><path d="m0 0h250v250h-250z"/></clipPath><g clip-path="url(#a)"><g clip-path="url(#b)" fill="#e6007a"><path d="m124.991 52.4356c26.477 0 47.941-11.7381 47.941-26.2178s-21.464-26.2178-47.941-26.2178c-26.4776 0-47.9417 11.7381-47.9417 26.2178s21.4641 26.2178 47.9417 26.2178z"/><path d="m124.991 249.982c26.477 0 47.941-11.738 47.941-26.218 0-14.479-21.464-26.218-47.941-26.218-26.4776 0-47.9417 11.739-47.9417 26.218 0 14.48 21.4641 26.218 47.9417 26.218z"/><path d="m58.1811 88.7274c13.2386-21.5604 13.1527-44.9115-.1919-52.1563-13.3447-7.2447-34.8947 4.3604-48.13328 25.9207-13.23864 21.5604-13.15271 44.9112.19188 52.1562 13.3447 7.245 34.8946-4.36 48.1333-25.9206z"/><path d="m240.104 187.489c13.239-21.56 13.161-44.908-.175-52.147-13.336-7.24-34.878 4.369-48.117 25.929s-13.16 44.908.176 52.147c13.335 7.24 34.878-4.369 48.116-25.929z"/><path d="m57.9957 213.412c13.3447-7.244 13.4306-30.596.192-52.156-13.2387-21.56-34.7887-33.165-48.1333-25.921-13.3446 7.245-13.43052 30.596-.19189 52.157 13.23859 21.56 34.78859 33.165 48.13319 25.92z"/><path d="m239.94 114.654c13.336-7.24 13.414-30.5875.176-52.1478-13.239-21.5604-34.782-33.1694-48.117-25.9296-13.336 7.2399-13.414 30.5871-.176 52.1474 13.239 21.56 34.782 33.169 48.117 25.93z"/></g></g></svg>