<svg width="250" height="250" viewBox="0 0 250 250" fill="none" xmlns="http://www.w3.org/2000/svg">
<g clip-path="url(#clip0_8_209)">
<g clip-path="url(#clip1_8_209)">
<path d="M124.991 52.4356C151.468 52.4356 172.932 40.6975 172.932 26.2178C172.932 11.7381 151.468 0 124.991 0C98.5134 0 77.0493 11.7381 77.0493 26.2178C77.0493 40.6975 98.5134 52.4356 124.991 52.4356Z" fill="#E6007A"/>
<path d="M124.991 249.982C151.468 249.982 172.932 238.244 172.932 223.764C172.932 209.285 151.468 197.546 124.991 197.546C98.5134 197.546 77.0493 209.285 77.0493 223.764C77.0493 238.244 98.5134 249.982 124.991 249.982Z" fill="#E6007A"/>
<path d="M58.1811 88.7274C71.4197 67.167 71.3338 43.8159 57.9892 36.5711C44.6445 29.3264 23.0945 40.9315 9.85592 62.4918C-3.38272 84.0522 -3.29679 107.403 10.0478 114.648C23.3925 121.893 44.9424 110.288 58.1811 88.7274Z" fill="#E6007A"/>
<path d="M240.104 187.489C253.343 165.929 253.265 142.581 239.929 135.342C226.593 128.102 205.051 139.711 191.812 161.271C178.573 182.831 178.652 206.179 191.988 213.418C205.323 220.658 226.866 209.049 240.104 187.489Z" fill="#E6007A"/>
<path d="M57.9957 213.412C71.3404 206.168 71.4263 182.816 58.1877 161.256C44.949 139.696 23.399 128.091 10.0544 135.335C-3.2902 142.58 -3.37612 165.931 9.86251 187.492C23.1011 209.052 44.6511 220.657 57.9957 213.412Z" fill="#E6007A"/>
<path d="M239.94 114.654C253.276 107.414 253.354 84.0665 240.116 62.5062C226.877 40.9458 205.334 29.3368 191.999 36.5766C178.663 43.8165 178.585 67.1637 191.823 88.724C205.062 110.284 226.605 121.893 239.94 114.654Z" fill="#E6007A"/>
</g>
</g>
<defs>
<clipPath id="clip0_8_209">
<rect width="250" height="250" fill="white"/>
</clipPath>
<clipPath id="clip1_8_209">
<rect width="250" height="250" fill="white"/>
</clipPath>
</defs>
</svg>
