<svg fill="none" height="250" viewBox="0 0 250 250" width="250" xmlns="http://www.w3.org/2000/svg" xmlns:xlink="http://www.w3.org/1999/xlink"><clipPath id="a"><path d="m0 0h250v250h-250z"/></clipPath><g clip-path="url(#a)"><circle cx="125" cy="125" fill="#4520e7" r="125"/><path d="m178.863 94.5619c0-11.8593-5.371-22.3451-13.631-28.7772l22.268-24.1206-13.317.067-17.713 19.1624c-3.298-1.206-6.784-1.8425-10.427-1.8425h-60.9299v93.4l73.3669-79.3967c6.595 4.4892 11.024 12.4624 11.024 21.5076 0 13.9701-10.522 25.3601-23.43 25.3601h-1.947l-81.627 88.409h13.2538l16.0176-17.32h54.2716c18.09 0 32.789-15.947 32.789-35.511 0-12.931-6.407-24.221-15.955-30.419 9.548-6.298 15.986-17.621 15.986-30.5191zm-84.3592 33.4001v-58.7938h51.5392c.879 0 1.758.067 2.606.1676zm75.0002 27.437c0 13.97-10.522 25.361-23.43 25.361h-44.943l46.702-50.553c12.06 1.038 21.671 11.893 21.671 25.192z" fill="#fff"/></g></svg>