<svg fill="none" height="250" viewBox="0 0 250 250" width="250" xmlns="http://www.w3.org/2000/svg" xmlns:xlink="http://www.w3.org/1999/xlink"><linearGradient id="a" gradientUnits="userSpaceOnUse" x1="158.316" x2="98.4582" y1="39.1309" y2="161.204"><stop offset="0"/><stop offset=".46" stop-color="#543122"/><stop offset="1" stop-color="#2c1e1d"/></linearGradient><linearGradient id="b" gradientUnits="userSpaceOnUse" x1="125.786" x2="125.786" y1="57.7309" y2="147.818"><stop offset="0" stop-color="#655f5f"/><stop offset=".34" stop-color="#4d4645"/><stop offset=".99" stop-color="#18100d"/></linearGradient><linearGradient id="c"><stop offset="0" stop-color="#3c3c3c"/><stop offset=".21" stop-color="#3c3c3c" stop-opacity=".65"/><stop offset=".48" stop-color="#3c3c3c" stop-opacity=".29"/><stop offset=".75" stop-color="#3c3c3c" stop-opacity=".07"/><stop offset="1" stop-color="#3c3c3c" stop-opacity="0"/></linearGradient><linearGradient id="d" gradientUnits="userSpaceOnUse" x1="74.1637" x2="83.7964" xlink:href="#c" y1="150.938" y2="145.615"/><linearGradient id="e" gradientUnits="userSpaceOnUse" x1="178.935" x2="157.487" xlink:href="#c" y1="151.156" y2="138.884"/><linearGradient id="f" gradientUnits="userSpaceOnUse" x1="123.986" x2="123.986" y1="149.869" y2="102.055"><stop offset="0" stop-color="#505050"/><stop offset=".21" stop-color="#505050" stop-opacity=".87"/><stop offset=".57" stop-color="#505050" stop-opacity=".52"/><stop offset="1" stop-color="#505050" stop-opacity="0"/></linearGradient><linearGradient id="g" gradientUnits="userSpaceOnUse" x1="152.622" x2="135.658" y1="111.829" y2="120.96"><stop offset="0"/><stop offset="1" stop-opacity="0"/></linearGradient><linearGradient id="h" gradientUnits="userSpaceOnUse" x1="125" x2="125" y1="56.5636" y2="208.44"><stop offset="0" stop-color="#f54954"/><stop offset=".08" stop-color="#e9393e"/><stop offset=".22" stop-color="#d71f1c"/><stop offset=".34" stop-color="#cc0f07"/><stop offset=".42" stop-color="#c80a00"/><stop offset=".58" stop-color="#cb0c02"/><stop offset=".74" stop-color="#d7130b"/><stop offset=".89" stop-color="#ea201a"/><stop offset=".99" stop-color="#fb2b27"/></linearGradient><linearGradient id="i" gradientUnits="userSpaceOnUse" x1="80.6983" x2="172.847" y1="48.4036" y2="48.4036"><stop offset="0" stop-color="#f03f4a"/><stop offset=".22" stop-color="#d51c12"/><stop offset=".27" stop-color="#da2e24"/><stop offset=".37" stop-color="#e45249"/><stop offset=".46" stop-color="#eb6d64"/><stop offset=".54" stop-color="#f07d74"/><stop offset=".61" stop-color="#f2837a"/><stop offset=".68" stop-color="#f07e75"/><stop offset=".76" stop-color="#ec7067"/><stop offset=".84" stop-color="#e65a51"/><stop offset=".93" stop-color="#dd3b31"/><stop offset="1" stop-color="#d51c12"/></linearGradient><linearGradient id="j" gradientUnits="userSpaceOnUse" x1="228.375" x2="125.927" y1="61.2655" y2="202.091"><stop offset="0" stop-color="#fbe2b2"/><stop offset=".18" stop-color="#b22822"/><stop offset="1" stop-color="#3a1e1c"/></linearGradient><linearGradient id="k" gradientUnits="userSpaceOnUse" x1="81.1456" x2="114.549" y1="128.924" y2="188.422"><stop offset="0" stop-color="#de8800"/><stop offset=".54" stop-color="#eda900"/><stop offset="1" stop-color="#b65f00"/></linearGradient><linearGradient id="l" gradientUnits="userSpaceOnUse" x1="75.9419" x2="120.298" y1="119.182" y2="193.56"><stop offset="0" stop-color="#fc0"/><stop offset="1" stop-color="#e38300"/></linearGradient><linearGradient id="m" gradientUnits="userSpaceOnUse" x1="68.9056" x2="99.0692" y1="112.222" y2="167.662"><stop offset="0" stop-color="#6a1d07"/><stop offset="1" stop-color="#ffa100"/></linearGradient><linearGradient id="n" gradientUnits="userSpaceOnUse" x1="144.331" x2="175.706" y1="185.073" y2="108.436"><stop offset="0" stop-color="#f47a00"/><stop offset=".04" stop-color="#f58301"/><stop offset=".19" stop-color="#f9a706"/><stop offset=".34" stop-color="#fcc00a"/><stop offset=".48" stop-color="#fed00c"/><stop offset=".58" stop-color="#ffd60d"/><stop offset=".99" stop-color="#dd8b00"/></linearGradient><linearGradient id="o" gradientUnits="userSpaceOnUse" x1="182.175" x2="187.575" y1="103.571" y2="99.8291"><stop offset="0" stop-color="#fbff88"/><stop offset=".99" stop-color="#ffffd7"/></linearGradient><linearGradient id="p" gradientUnits="userSpaceOnUse" x1="182.567" x2="136.957" y1="106.767" y2="187.549"><stop offset="0" stop-color="#ff9c36"/><stop offset=".99" stop-color="#e65a04"/></linearGradient><linearGradient id="q" gradientUnits="userSpaceOnUse" x1="131.175" x2="131.676" y1="79.5164" y2="175.309"><stop offset="0" stop-color="#fda103"/><stop offset=".38" stop-color="#c7a434"/><stop offset="1" stop-color="#d1ae3e"/></linearGradient><linearGradient id="r" gradientUnits="userSpaceOnUse" x1="175.204" x2="160.815" y1="49.4727" y2="70.2545"><stop offset="0" stop-color="#f7cc35"/><stop offset=".39" stop-color="#f9e63a"/><stop offset=".47" stop-color="#f9f227" stop-opacity=".9"/><stop offset=".6" stop-color="#f9f402" stop-opacity=".7"/><stop offset=".75" stop-color="#f6f11c" stop-opacity=".45"/><stop offset="1" stop-color="#f1ed4c" stop-opacity="0"/></linearGradient><linearGradient id="s"><stop offset="0" stop-color="#ffff52"/><stop offset="1" stop-color="#f3fde8"/></linearGradient><linearGradient id="t" gradientUnits="userSpaceOnUse" x1="86.48" x2="80.6327" xlink:href="#s" y1="99.4691" y2="91.2218"/><linearGradient id="u" gradientUnits="userSpaceOnUse" x1="152.785" x2="167.425" y1="99.8291" y2="99.9164"><stop offset="0" stop-color="#f5f54f"/><stop offset="1" stop-color="#eeb400"/></linearGradient><linearGradient id="v" gradientUnits="userSpaceOnUse" x1="185.611" x2="174.189" xlink:href="#s" y1="43.2764" y2="42"/><linearGradient id="w" gradientUnits="userSpaceOnUse" x1="137.96" x2="170.142" y1="102.938" y2="44.16"><stop offset="0" stop-color="#e7c21c"/><stop offset=".47" stop-color="#f9ee07"/><stop offset="1" stop-color="#e9f7be"/></linearGradient><linearGradient id="x" gradientUnits="userSpaceOnUse" x1="179.818" x2="153.222" y1="45.8073" y2="101.607"><stop offset="0" stop-color="#fdff70"/><stop offset="1" stop-color="#d07c00"/></linearGradient><linearGradient id="y"><stop offset="0" stop-color="#2b0900"/><stop offset="1" stop-color="#561c00"/></linearGradient><linearGradient id="z" gradientUnits="userSpaceOnUse" x1="161.338" x2="132.942" xlink:href="#y" y1="112.604" y2="162.371"/><linearGradient id="A" gradientUnits="userSpaceOnUse" x1="83.5345" x2="120.32" xlink:href="#y" y1="100.538" y2="170.585"/><clipPath id="B"><path d="m0 0h250v250h-250z"/></clipPath><clipPath id="C"><path d="m35 42h180v166.909h-180z"/></clipPath><mask id="D" height="167" maskUnits="userSpaceOnUse" width="180" x="35" y="42"><path d="m35 42h180v166.909h-180z" fill="#fff"/></mask><g clip-path="url(#B)"><path d="m125 250c69.036 0 125-55.964 125-125 0-69.0356-55.964-125-125-125-69.0356 0-125 55.9644-125 125 0 69.036 55.9644 125 125 125z" fill="#fff"/><g clip-path="url(#C)"><g mask="url(#D)"><path d="m175.727 46.3636h-94.3634l-45.8182 58.9094 63.8182 102h55.0914l60-102.546z" fill="#482b21"/><path d="m173.142 53.4873c-.248-.3586-.579-.652-.964-.8552-.386-.2032-.815-.3103-1.251-.3121h-82.7234c-4.2873 0-5.9454.8727-9.5018 5.5636s-33.0764 43.0694-34.1236 44.5204c-1.0473 1.451-.7746 2.432.1963 3.992.9818 1.549 56.6185 92.946 57.2615 93.928.633 1.003 1.026 1.418 2.062 1.418h44.509c1.855 0 2.368-.786 3.131-1.92 18.731-30.829 37.386-61.702 55.964-92.618.949-1.691.84-2.509-.251-4.102l-34.309-49.6256zm31.483 54.2177c-1.2 2.182-53.367 89.455-54.109 90.568-.731 1.102-1.211 1.854-3.011 1.854h-43.014c-.993 0-1.375-.392-1.996-1.363-.622-.982-54.3714-90.328-55.3205-91.855s-1.2109-2.476-.1963-3.905c1.0145-1.419 29.5309-38.9458 32.9672-43.5276 3.4473-4.5819 5.04-5.4437 9.1855-5.4437h79.9311c.862 0 1.658.4364 2.149 1.1455 4.974 7.2873 32.214 47.1378 33.142 48.5238 1.058 1.56 1.156 2.345.262 3.993v.01z" fill="url(#a)"/><path d="m171.211 55.1782c-.237-.3528-.556-.6418-.931-.8416s-.793-.3042-1.218-.3039h-79.9201c-4.1455 0-5.7491.8509-9.1855 5.4437-3.4363 4.5818-31.9636 42.1086-32.9781 43.5276-1.0146 1.418-.7419 2.378.1963 3.905.9491 1.527 54.7094 90.873 55.3314 91.855.621.981.981 1.374 1.996 1.374h43.004c1.8 0 2.29-.763 3.032-1.876.731-1.102 52.898-88.386 54.088-90.567.905-1.648.796-2.433-.251-3.993l-33.142-48.5238z" fill="url(#b)"/><path d="m171.211 55.1782c-.237-.3528-.556-.6418-.931-.8416s-.793-.3042-1.218-.3039h-79.9201c-4.1455 0-5.7491.8509-9.1855 5.4437-3.4363 4.5818-31.9636 42.1086-32.9781 43.5276-1.0146 1.418-.7419 2.378.1963 3.905.9491 1.527 54.7094 90.873 55.3314 91.855.621.981.981 1.374 1.996 1.374h43.004c1.8 0 2.29-.763 3.032-1.876.731-1.102 52.898-88.386 54.088-90.567.905-1.648.796-2.433-.251-3.993l-33.142-48.5238z" fill="url(#d)"/><path d="m171.211 55.1782c-.237-.3528-.556-.6418-.931-.8416s-.793-.3042-1.218-.3039h-79.9201c-4.1455 0-5.7491.8509-9.1855 5.4437-3.4363 4.5818-31.9636 42.1086-32.9781 43.5276-1.0146 1.418-.7419 2.378.1963 3.905.9491 1.527 54.7094 90.873 55.3314 91.855.621.981.981 1.374 1.996 1.374h43.004c1.8 0 2.29-.763 3.032-1.876.731-1.102 52.898-88.386 54.088-90.567.905-1.648.796-2.433-.251-3.993l-33.142-48.5238z" fill="url(#e)"/><path d="m86.491 99.36s38.433 70.615 38.509 70.527c.066-.087 36.48-64.636 36.48-64.636s-18.393-2.782-16.582-4.767c1.8-1.9967 10.189-22.4731 10.189-22.4731z" fill="url(#f)"/><path d="m144.309 97.5273-12.982 16.4727s10.746 21.84 10.986 22.156c.24.328 15.6-27.272 15.6-27.272" fill="url(#g)"/><path d="m212.731 99.3382c-2.509-3.7091-26.018-37.9964-34.331-50.1382-.893-1.3042-2.092-2.3705-3.491-3.1063-1.399-.7357-2.957-1.1187-4.538-1.1155h-82.3635c-5.5964 0-8.0728.9054-11.6291 5.3127-13.1096 16.7017-26.1679 33.4435-39.1746 50.2251-2.9781 3.873-2.7054 5.673-.5454 9.24 2.16 3.557 56.2145 89.259 58.6036 93.088s3.8182 5.781 9.818 5.781h43.418c4.549 0 6.546-.338 9.295-4.887 3.109-5.149 52.909-89.738 55.342-93.982 2.443-4.232 2.662-5.891-.404-10.4069zm-1.964 7.6148c-1.2 2.007-55.472 93.262-56.76 95.356-1.276 2.095-2.16 2.607-4.014 2.607h-45.895c-1.745 0-2.749-.698-4.058-2.792-1.3089-2.106-56.6834-90.949-58.4725-93.949-1.7673-3-1.8546-3.644.6436-6.917 6.4255-8.4544 34.6909-45.2398 36.4036-47.4325 1.7237-2.2037 3.5564-4.0691 6.0873-4.0691h87.873c1.44 0 2.782.7091 3.589 1.8981 11.388 16.8335 22.799 33.6517 34.233 50.4545 1.374 1.942 1.603 2.836.381 4.844z" fill="url(#h)"/><path d="m93.8437 49.7455h78.7313c1.058 0 2.051.3927 2.836 1.0581.775-.8836 1.527-1.7672 2.215-2.5854-.915-1.0189-2.033-1.834-3.283-2.3922-1.25-.5583-2.603-.8471-3.972-.8478h-82.3527c-6.1091.2945-5.5636.84-7.2 2.4764-1.6364 1.6363-6 13.6363-5.4545 13.0909 2.4654-2.4764 6.5454-7.6364 7.6363-9.8182 1.6364-.5455 5.6946-.9709 10.8436-.9709z" fill="url(#i)"/><path d="m176.164 51.6545c-.397-.5884-.934-1.0697-1.562-1.4008-.628-.3312-1.328-.502-2.038-.4973h-87.8511c-2.5418 0-4.3637 1.8545-6.0873 4.0691-12.1739 15.7862-24.3158 31.5971-36.4255 47.4325-2.4872 3.273-2.4 3.927-.6327 6.917 19.4608 31.335 38.9517 62.651 58.4726 93.949 1.309 2.094 2.324 2.792 4.058 2.792h45.884c1.855 0 2.738-.512 4.025-2.618 1.288-2.083 55.55-93.338 56.76-95.345 1.222-1.997.993-2.902-.381-4.844-1.211-1.713-28.004-41.2581-34.233-50.4545zm31.538 55.5495c-18.588 30.915-37.246 61.788-55.975 92.618-.763 1.134-1.265 1.92-3.13 1.92h-44.51c-1.036 0-1.418-.415-2.061-1.418-.644-.982-56.2695-92.379-57.2513-93.928-.9818-1.56-1.2546-2.541-.2182-3.992 1.0582-1.451 30.5782-39.8404 34.1455-44.5204 3.5563-4.6909 5.2036-5.5636 9.4909-5.5636h82.7241c.883 0 1.712.4364 2.214 1.1673l34.309 49.6367c1.091 1.592 1.2 2.4.273 4.08z" fill="url(#j)"/><path d="m61.7056 102 10.5491 4.32 48.5123 85.505-9.872-4.93-49.1894-84.906z" fill="url(#k)"/><path d="m61.7056 102 1.3854 1.331 6.9491 2.825 48.8839 84.284 1.854 1.385-48.5233-85.505z" fill="url(#l)"/><path d="m61.7056 102 1.3854 1.331 48.175 83.749-.371-.185-49.1894-84.906z" fill="url(#m)"/><path d="m118.924 190.44-7.92-3.807.261.436 9.491 4.756z" fill="#ffa100"/><path d="m189.146 100.113-7.789 2.356-49.059 87.469 9.022-4.254 47.837-85.571z" fill="url(#n)"/><path d="m181.596 103.058 6.546-1.963 1.014-.982-7.811 2.356z" fill="url(#o)"/><path d="m189.146 100.113-.993.982-47.727 84.24-8.128 4.603 9.022-4.254 47.837-85.571z" fill="url(#p)"/><path d="m78.1672 92.9782 10.9309 4.9527 35.8909 65.3781 27.426-49.309h-21.099l39.699-72h13.025l-30.306 57.36h14.302l-42.84 78.742-47.0179-85.1238z" fill="url(#q)"/><path d="m171.015 42-14.619 26.52c2.913 2.6182 6.219 5.5745 9.273 8.2582l18.349-34.7782h-13.025z" fill="url(#r)"/><path d="m88.16 98.5091.9381-.5782-10.9309-4.9527 1.2 1.1563 8.7928 4.3637z" fill="url(#t)"/><path d="m151.487 100.178 15.535.306 1.014-1.124h-14.301z" fill="url(#u)"/><path d="m171.462 42.7855h11.585l.982-.7855h-13.014l.436.7855z" fill="url(#v)"/><path d="m171.015 42 .436.7855-39.12 70.3965-1.015.829z" fill="url(#w)"/><path d="m184.04 42-.993.7855-31.56 57.3815 2.248-.807z" fill="url(#x)"/><path d="m167.022 100.473-41.825 76.734v.895l42.84-78.742-1.015 1.124z" fill="url(#z)"/><path d="m125.196 178.102v-.895l-45.8397-83.0725-1.1891-1.1563z" fill="url(#A)"/><path d="m152.415 114.011.872-.578-27.741 51.076-.568-1.2 27.437-49.287z" fill="#ae6b0f"/></g></g></g></svg>