<svg fill="none" height="250" viewBox="0 0 250 250" width="250" xmlns="http://www.w3.org/2000/svg" xmlns:xlink="http://www.w3.org/1999/xlink"><clipPath id="a"><path d="m0 0h250v250h-250z"/></clipPath><g clip-path="url(#a)"><path d="m125 250c69.036 0 125-55.964 125-125 0-69.0356-55.964-125-125-125-69.0356 0-125 55.9644-125 125 0 69.036 55.9644 125 125 125z" fill="#000"/><g fill="#fff"><path d="m216.742 105.77c-1.235-6.002-3.062-11.8665-5.453-17.5082-2.356-5.557-5.239-10.8755-8.609-15.8828-3.342-4.947-7.154-9.5596-11.383-13.7735-4.216-4.2294-8.832-8.0413-13.781-11.3828-5.015-3.3533-10.329-6.2353-15.875-8.6094-11.469-4.8643-23.8-7.3711-36.258-7.3711s-24.789 2.5068-36.2579 7.3711c-11.0903 4.6779-21.1632 11.471-29.6563 20-4.2286 4.2114-8.0405 8.8214-11.3828 13.7657-3.3537 5.0173-6.2358 10.3342-8.6094 15.8828-4.8643 11.4691-7.3711 23.8002-7.3711 36.2582s2.5068 24.788 7.3711 36.257c2.2969 5.547 5.2657 10.805 8.6094 15.875 3.3421 4.95 7.154 9.565 11.3828 13.782 4.2163 4.229 8.8315 8.041 13.7813 11.382 4.9687 3.344 10.3281 6.219 15.875 8.61 11.4689 4.864 23.7999 7.371 36.2579 7.371s24.789-2.507 36.258-7.371c5.547-2.297 10.804-5.266 15.875-8.61 4.949-3.341 9.565-7.153 13.781-11.382 4.229-4.217 8.041-8.832 11.383-13.782 3.344-4.968 6.218-10.328 8.609-15.875 7.36-17.357 9.262-36.543 5.453-55.007zm-91.273 100.351c-45.0549 0-81.5002-36.547-81.5002-81.508 0-44.9606 36.5469-81.5075 81.5002-81.5075 44.961 0 81.508 36.5469 81.508 81.5075 0 44.961-36.539 81.508-81.508 81.508z"/><path d="m126.914 199.047h2.203c.383 0 .758 0 1.141-.102h.101c.383 0 .664 0 1.047-.093h.289c.289 0 .578 0 .86-.094h.289c.289 0 .578-.094.961-.094h.187c.383 0 .766-.102 1.149-.102.382 0 .672-.093 1.054-.187h.188c.289 0 .578-.094.859-.094h.195c.383-.101.672-.101 1.055-.195.758-.094 1.524-.289 2.196-.477h.195c.281-.093.664-.093.953-.195h.094c.765-.187 1.437-.383 2.203-.57-7.166.227-14.331-.448-21.328-2.008-10.532-2.297-20.571-6.406-29.0862-13.492-6.7134-5.587-12.1012-12.596-15.7736-20.521-3.6724-7.924-5.5376-16.566-5.4608-25.3.0689-13.029 4.7051-25.622 13.1015-35.5855 10.9063-12.9141 26.4061-19.7109 42.2811-20.0937h2.203v-12.7188h-2.484c-4.83.0885-9.638.6643-14.352 1.7188-4.743 1.0726-9.36 2.6438-13.7731 4.6874-4.5 2.1094-8.7109 4.6876-12.6328 7.6563-4.0527 3.0807-7.7429 6.6111-11 10.5234-3.0667 3.6209-5.7283 7.5662-7.9375 11.7661-2.1855 4.048-3.95 8.31-5.2656 12.718-1.2906 4.341-2.154 8.797-2.5781 13.305l-.2891 4.203v2.484c.0938 4.883.6719 9.665 1.7188 14.352 1.0546 4.789 2.6796 9.375 4.6875 13.781 2.3984 5.258 6.7031 13.008 13.1093 18.844 13.0805 10.312 29.2576 15.908 45.9146 15.883z"/><path d="m147.766 186.797c-4.719-.169-9.419-.68-14.063-1.531-19.703-3.539-36.6405-15.594-42.8515-33.766-7.5625-22.102 4.0156-46.016 26.0155-53.2812 4.193-1.405 8.586-2.1175 13.008-2.1094 5.648 0 11.289 1.1485 16.461 3.25l5.351-11.3828c-1.609-.6453-3.234-1.2496-4.875-1.8125-5.481-1.7203-11.192-2.5923-16.937-2.5859-5.755.0107-11.472.9472-16.93 2.7734-6.966 2.2976-13.3812 6.0107-18.8435 10.9063-2.6343 2.3466-5.0361 4.9421-7.1718 7.7501-2.1114 2.776-3.9383 5.757-5.4532 8.898-3.0847 6.316-4.9053 13.174-5.3593 20.188-.4766 7.265.4765 14.531 2.8671 21.422 2.4359 7.088 6.3505 13.578 11.4844 19.039 4.6875 5.07 10.1403 8.898 16.7343 12.437 6.891 3.633 15.406 5.547 24.297 6.797 5.742.758 13.398.953 17.891.953 3.921-1.437 5.546-2.109 7.656-2.969 1.82-.859 3.633-1.718 5.453-2.773s2.109-1.25 5.164-3.25c.272-.169.528-.363.766-.578-10.524 1.82-13.203 1.719-20.664 1.625z"/><path d="m171.305 172.543c-2.969.188-7.18.469-11.961.469-8.516 0-18.946-.758-27.836-3.727-13.781-4.586-26.789-16.351-26.789-30.898-.003-3.443.673-6.853 1.989-10.034 1.316-3.182 3.246-6.072 5.681-8.507 2.434-2.434 5.325-4.365 8.507-5.681 3.181-1.316 6.591-1.992 10.034-1.989 9.851 0 18.367 5.453 22.867 13.391l11.383-5.641c-1.785-3.36-4.078-6.425-6.797-9.086-3.604-3.61-7.884-6.473-12.595-8.427s-9.762-2.9599-14.862-2.9599c-5.101 0-10.151 1.0059-14.862 2.9599-4.712 1.954-8.992 4.817-12.595 8.427-3.6087 3.603-6.4714 7.883-8.4246 12.593-1.9531 4.711-2.9585 9.761-2.9585 14.86.0255 5.345 1.1699 10.625 3.3594 15.5 2 4.399 4.7817 8.516 8.3207 12.344 6.218 6.687 14.726 12.047 23.82 15.109 8.703 2.867 21.523 3.922 33.961 3.063 3.437-.289 6.023-.578 10.422-1.532 4.244-3.349 8.097-7.168 11.484-11.382-2.969.289-8.422.859-12.148 1.148z"/></g></g></svg>