<svg width="250" height="250" viewBox="0 0 250 250" fill="none" xmlns="http://www.w3.org/2000/svg">
<g clip-path="url(#clip0_50_11234)">
<path d="M125.098 250.094C194.079 250.094 250 194.173 250 125.191C250 56.2097 194.079 0.289062 125.098 0.289062C56.116 0.289062 0.195312 56.2097 0.195312 125.191C0.195312 194.173 56.116 250.094 125.098 250.094Z" fill="#EDF0F2"/>
<path d="M204.395 221.578C185.352 237.301 162.012 246.969 137.402 249.313C104.492 252.536 71.5821 242.575 45.8985 221.578C20.3126 200.582 4.10162 170.309 0.781305 137.301C-1.6601 112.692 3.22271 87.9847 14.8438 66.2074C26.4649 44.4301 44.336 26.559 66.1133 14.9379C87.8907 3.31678 112.598 -1.66369 137.207 0.777717C161.816 3.21912 185.059 12.7894 204.199 28.5121L179.004 59.2738C166.016 48.6293 150.098 41.9887 133.301 40.4262C116.504 38.766 99.7071 42.184 84.8633 50.0941C70.0196 58.0043 57.9102 70.2113 49.9024 85.055C41.9922 99.8988 38.6719 116.793 40.3321 133.493C42.5782 155.953 53.6133 176.657 71.0938 190.914C88.5743 205.27 111.035 212.008 133.496 209.762C150.293 208.102 166.113 201.461 179.102 190.817L204.395 221.578Z" fill="url(#paint0_linear_50_11234)"/>
<path d="M125.488 227.441C181.836 227.441 227.441 181.738 227.441 125.488C227.441 69.1406 181.836 23.4375 125.488 23.4375C69.1406 23.4375 23.4375 69.1406 23.4375 125.488C23.4375 181.836 69.1406 227.441 125.488 227.441Z" fill="white"/>
<path d="M169.922 112.301H160.449C155.273 97.8477 141.309 87.9844 122.852 87.9844H92.5781V112.301H82.0312V120.992H92.5781V130.172H82.0312V138.863H92.5781V162.887H122.852C141.016 162.887 154.883 153.121 160.254 138.863H169.922V130.172H162.402C162.598 128.609 162.695 127.047 162.695 125.484V125.289C162.695 123.824 162.598 122.457 162.5 121.09H169.922V112.301ZM101.074 95.7969H122.852C136.328 95.7969 146.387 102.438 151.074 112.301H101.074V95.7969ZM122.852 155.074H101.074V138.863H151.074C146.387 148.629 136.328 155.074 122.852 155.074ZM153.906 125.68C153.906 127.242 153.809 128.707 153.613 130.172H101.074V120.992H153.613C153.809 122.457 153.906 123.922 153.906 125.387V125.68Z" fill="url(#paint1_linear_50_11234)"/>
</g>
<defs>
<linearGradient id="paint0_linear_50_11234" x1="89.9355" y1="14.0057" x2="129.09" y2="231.089" gradientUnits="userSpaceOnUse">
<stop stop-color="#27D3A2"/>
<stop offset="1" stop-color="#9388FD"/>
</linearGradient>
<linearGradient id="paint1_linear_50_11234" x1="125.976" y1="77.4258" x2="125.976" y2="170.797" gradientUnits="userSpaceOnUse">
<stop stop-color="#283947"/>
<stop offset="1" stop-color="#657786"/>
</linearGradient>
<clipPath id="clip0_50_11234">
<rect width="250" height="250" fill="white"/>
</clipPath>
</defs>
</svg>
