<svg fill="none" height="250" viewBox="0 0 250 250" width="250" xmlns="http://www.w3.org/2000/svg" xmlns:xlink="http://www.w3.org/1999/xlink"><linearGradient id="a" gradientUnits="userSpaceOnUse" x1="89.9355" x2="129.09" y1="14.0057" y2="231.089"><stop offset="0" stop-color="#27d3a2"/><stop offset="1" stop-color="#9388fd"/></linearGradient><linearGradient id="b" gradientUnits="userSpaceOnUse" x1="125.976" x2="125.976" y1="77.4258" y2="170.797"><stop offset="0" stop-color="#283947"/><stop offset="1" stop-color="#657786"/></linearGradient><clipPath id="c"><path d="m0 0h250v250h-250z"/></clipPath><g clip-path="url(#c)"><path d="m125.098 250.094c68.981 0 124.902-55.921 124.902-124.903 0-68.9813-55.921-124.901938-124.902-124.901938-68.982 0-124.902688 55.920638-124.902688 124.901938 0 68.982 55.920688 124.903 124.902688 124.903z" fill="#edf0f2"/><path d="m204.395 221.578c-19.043 15.723-42.383 25.391-66.993 27.735-32.91 3.223-65.8199-6.738-91.5035-27.735-25.5859-20.996-41.79688-51.269-45.117195-84.277-2.441405-24.609 2.441405-49.3163 14.062495-71.0936 11.6211-21.7773 29.4922-39.6484 51.2695-51.2695 21.7774-11.62112 46.4847-16.60159 71.0937-14.160183 24.609 2.441403 47.852 12.011683 66.992 27.734383l-25.195 30.7617c-12.988-10.6445-28.906-17.2851-45.703-18.8476-16.797-1.6602-33.5939 1.7578-48.4377 9.6679-14.8437 7.9102-26.9531 20.1172-34.9609 34.9609-7.9102 14.8438-11.2305 31.738-9.5703 48.438 2.2461 22.46 13.2812 43.164 30.7617 57.421 17.4805 14.356 39.9412 21.094 62.4022 18.848 16.797-1.66 32.617-8.301 45.606-18.945z" fill="url(#a)"/><path d="m125.488 227.441c56.348 0 101.953-45.703 101.953-101.953 0-56.3474-45.605-102.0505-101.953-102.0505-56.3474 0-102.0505 45.7031-102.0505 102.0505 0 56.348 45.7031 101.953 102.0505 101.953z" fill="#fff"/><path d="m169.922 112.301h-9.473c-5.176-14.4533-19.14-24.3166-37.597-24.3166h-30.2739v24.3166h-10.5469v8.691h10.5469v9.18h-10.5469v8.691h10.5469v24.024h30.2739c18.164 0 32.031-9.766 37.402-24.024h9.668v-8.691h-7.52c.196-1.563.293-3.125.293-4.688v-.195c0-1.465-.097-2.832-.195-4.199h7.422zm-68.848-16.5041h21.778c13.476 0 23.535 6.6411 28.222 16.5041h-50zm21.778 59.2771h-21.778v-16.211h50c-4.687 9.766-14.746 16.211-28.222 16.211zm31.054-29.394c0 1.562-.097 3.027-.293 4.492h-52.539v-9.18h52.539c.196 1.465.293 2.93.293 4.395z" fill="url(#b)"/></g></svg>