<svg fill="none" height="250" viewBox="0 0 250 250" width="250" xmlns="http://www.w3.org/2000/svg" xmlns:xlink="http://www.w3.org/1999/xlink"><clipPath id="a"><path d="m0 0h250v250h-250z"/></clipPath><g clip-path="url(#a)"><g fill="#5a5564"><path d="m203.849 52.4649-6.865 6.8643c16.38 17.9121 25.463 41.3058 25.463 65.5778s-9.083 47.665-25.463 65.577l6.865 6.865c18.215-19.759 28.329-45.648 28.329-72.522 0-26.8742-10.114-52.764-28.329-72.5223z"/><path d="m59.4911 53.0605c17.9121-16.3795 41.3059-25.4628 65.5779-25.4628s47.665 9.0833 65.577 25.4628l6.864-6.8644c-19.758-18.2157-45.648-28.3289-72.521-28.3289-26.8744 0-52.7641 10.1132-72.5224 28.3289z"/><path d="m53.0614 190.552c-16.36-17.908-25.4314-41.287-25.4314-65.543s9.0714-47.635 25.4314-65.5431l-6.8643-6.8643c-18.2157 19.7583-28.3289 45.648-28.3289 72.5224 0 26.873 10.1132 52.763 28.3289 72.521z"/><path d="m190.555 196.891c-17.913 16.379-41.306 25.462-65.578 25.462s-47.6654-9.083-65.5775-25.462l-6.8643 6.864c19.7583 18.216 45.648 28.329 72.5218 28.329 26.874 0 52.764-10.113 72.522-28.329z"/></g><path d="m168.337 102.098c-1.373-14.3237-13.729-19.1288-29.357-20.5932v-19.7236h-12.081v19.3575c-3.18 0-6.429 0-9.656 0v-19.3575h-11.989v19.8609h-24.5062v12.9279s8.9237-.1601 8.7864 0c1.609-.177 3.2239.2775 4.5044 1.2678 1.2805.9902 2.1265 2.4389 2.3599 4.0407v54.3655c-.0343.565-.1817 1.117-.4332 1.624s-.6021.959-1.0312 1.328c-.4209.376-.9136.663-1.4484.844-.5347.181-1.1005.252-1.6634.208.1602.138-8.7864 0-8.7864 0l-2.2881 14.438h24.2772v20.182h12.081v-19.884h9.656v19.792h12.104v-19.952c20.41-1.236 34.642-6.27 36.427-25.376 1.441-15.376-5.789-22.24-17.344-25.009 7.024-3.455 11.372-9.861 10.388-20.341zm-16.932 42.971c0 15.01-25.719 13.294-33.91 13.294v-26.634c8.191.023 33.91-2.334 33.91 13.34zm-5.606-37.525c0 13.728-21.463 12.058-28.281 12.058v-24.2083c6.818 0 28.281-2.1508 28.281 12.1503z" fill="#f09242"/><path d="m124.977 250c-24.721-.004-48.8849-7.339-69.4375-21.076s-36.5706-33.259-46.02876-56.099c-9.4581214-22.84-11.93161-47.971-7.10773-72.217 4.82388-24.2453 16.72849-46.5161 34.20869-63.9963s39.751-29.38481 63.9963-34.20869c24.246-4.82388 49.377-2.3503914 72.217 7.10773 22.84 9.45816 42.362 25.47616 56.099 46.02876s21.072 44.7165 21.076 69.4375c.003 16.419-3.229 32.678-9.511 47.848s-15.491 28.953-27.101 40.563-25.393 20.819-40.563 27.101-31.429 9.514-47.848 9.511zm0-240.25255c-22.775.0181-45.034 6.78775-63.9629 19.45325-18.9289 12.6656-33.6781 30.6585-42.3834 51.7045-8.70529 21.0458-10.97593 44.2008-6.5249 66.5368 4.451 22.336 15.4239 42.851 31.5317 58.953 16.1078 16.101 36.6275 27.066 58.9655 31.508s45.492 2.163 66.534-6.551c21.043-8.714 39.03-23.47 51.688-42.404s19.419-41.195 19.428-63.971c.006-15.138-2.972-30.128-8.764-44.114-5.791-13.986-14.283-26.6933-24.989-37.3952-10.706-10.7018-23.417-19.1884-37.405-24.9744s-28.98-8.75798-44.118-8.74595z" fill="#282138"/></g></svg>