<svg fill="none" height="250" viewBox="0 0 250 250" width="250" xmlns="http://www.w3.org/2000/svg" xmlns:xlink="http://www.w3.org/1999/xlink"><clipPath id="a"><path d="m0 0h250v250h-250z"/></clipPath><g clip-path="url(#a)"><path d="m125 250c69.036 0 125-55.964 125-125 0-69.0356-55.964-125-125-125-69.0356 0-125 55.9644-125 125 0 69.036 55.9644 125 125 125z" fill="#08c"/><path clip-rule="evenodd" d="m90.2179 82.6094h70.1091c2.48 0 4.959.3643 7.549 1.5719 3.105 1.4468 4.751 3.7285 5.905 5.4156.09.1312.174.2665.251.4049 1.356 2.4143 2.056 5.021 2.056 7.825 0 2.6642-.634 5.5672-2.056 8.0972-.013.024-.027.048-.041.072l-44.294 76.087c-.976 1.678-2.774 2.707-4.716 2.7-1.941-.007-3.732-1.049-4.697-2.733l-43.4799-75.925c-.0125-.021-.025-.042-.0375-.062-.9951-1.64-2.5339-4.175-2.8031-7.4483-.2474-3.0089.429-6.0241 1.941-8.6384 1.5121-2.6147 3.7884-4.7049 6.5264-5.9843 2.9357-1.3719 5.9107-1.3826 7.787-1.3826zm29.3481 10.8696h-29.3481c-1.9281 0-2.6683.1188-3.1857.3607-.7156.334-1.3165.8831-1.7183 1.5782-.4018.695-.5835 1.5004-.5174 2.3062.0379.4625.2263.9911 1.3375 2.8239.0232.038.046.077.0683.116l33.3637 58.258zm10.869 0v65.731l34.136-58.639c.386-.6996.647-1.7112.647-2.7442 0-.838-.174-1.5656-.562-2.3161-.408-.5857-.656-.896-.864-1.1085-.178-.1817-.315-.279-.508-.3692-.808-.3763-1.634-.554-2.957-.554z" fill="#fff" fill-rule="evenodd"/></g></svg>