<svg fill="none" height="250" viewBox="0 0 250 250" width="250" xmlns="http://www.w3.org/2000/svg"><path d="m249.776 124.956c0 68.694-55.684 124.378-124.378 124.378-68.6914 0-124.37798-55.684-124.37798-124.378 0-68.6926 55.68658-124.377875 124.37798-124.377875 68.694 0 124.378 55.685275 124.378 124.377875z" fill="#1ba27a"/><g fill="#fff"><path d="m183.772 63.2969h-117.7732v28.4328h44.6702v41.7913h28.433v-41.7913h44.67z"/><path d="m125.156 137.972c-36.9532 0-66.9122-5.848-66.9122-13.063 0-7.214 29.9577-13.064 66.9122-13.064 36.952 0 66.91 5.85 66.91 13.064 0 7.215-29.958 13.063-66.91 13.063zm75.13-10.885c0-9.304-33.637-16.845-75.13-16.845s-75.1323 7.541-75.1323 16.845c0 8.193 26.0833 15.018 60.6463 16.531v59.992h28.431v-59.969c34.829-1.465 61.185-8.319 61.185-16.554z"/></g></svg>