<svg width="24" height="24" fill="none" xmlns="http://www.w3.org/2000/svg"><rect width="24" height="24" rx="12" fill="#fff"/><path d="M18.824 10.988c-.053-.024-1.408-.752-2.551-.09-.91.534-1.103 1.605-1.126 2.043l-.423.25a1.155 1.155 0 0 0-1.63 0l-1.936-1.126a1.11 1.11 0 0 0 .041-.284c0-.545-.357-.995-.844-1.137v-.698c.563-.362 2.358-1.694 2.358-3.82 0-2.433-2.41-3.96-2.51-4.025L10.037 2l-.182.1c-.1.066-2.498 1.593-2.498 4.039 0 2.12 1.794 3.44 2.358 3.818v.687a1.183 1.183 0 0 0-.845 1.137.9.9 0 0 0 .041.284L6.977 13.19a1.148 1.148 0 0 0-.81-.337A1.18 1.18 0 0 0 5 14.03c0 .533.358.994.845 1.137v2.344a1.183 1.183 0 0 0 .322 2.315c.346 0 .651-.142.856-.39l1.883 1.1a1.107 1.107 0 0 0-.04.285A1.18 1.18 0 0 0 10.031 22a1.18 1.18 0 0 0 1.167-1.178.9.9 0 0 0-.04-.284l1.882-1.102a1.2 1.2 0 0 0 .856.391 1.18 1.18 0 0 0 1.168-1.178c0-.533-.358-.995-.845-1.137v-2.344c.487-.143.845-.598.845-1.137 0-.089-.012-.196-.024-.273l.422-.248a3.1 3.1 0 0 0 1.285.308 2.17 2.17 0 0 0 1.05-.273C18.94 12.888 19 11.331 19 11.278v-.202l-.176-.088Zm-4.592 3.463a.494.494 0 0 1-.323.119.374.374 0 0 1-.182-.042.33.33 0 0 1-.14-.077.51.51 0 0 1-.194-.337v-.142a.541.541 0 0 1 .516-.468.525.525 0 0 1 .528.533c0 .023 0 .053-.012.088a.544.544 0 0 1-.193.326Zm.193 4.192a.532.532 0 0 1-.528.533.519.519 0 0 1-.516-.533v-.012a.56.56 0 0 1 .024-.154c.04-.089.088-.183.164-.23a.448.448 0 0 1 .229-.101c.023 0 .064-.012.088-.012a.48.48 0 0 1 .322.118.438.438 0 0 1 .217.391Zm-.844-1.125a1.33 1.33 0 0 0-.423.231l-1.988-1.166c.012-.077.024-.154.024-.231a.864.864 0 0 0-.053-.326l1.947-1.137c.129.13.293.231.487.285v2.344h.006Zm-3.549 3.83a.52.52 0 0 1-.51-.455v-.077c0-.22.14-.415.323-.491a.568.568 0 0 1 .193-.042.42.42 0 0 1 .194.041.525.525 0 0 1 .322.492v.077a.544.544 0 0 1-.522.456Zm-1.155-4.76-1.988 1.155c-.13-.1-.27-.183-.423-.23v-2.345c.194-.054.346-.154.487-.285L8.9 16.02c-.023.1-.052.22-.052.338 0 .077.017.154.029.23Zm-2.205 2.055a.54.54 0 0 1-.247.456.453.453 0 0 1-.27.077.532.532 0 0 1-.527-.533.528.528 0 0 1 .516-.533c.023 0 .064 0 .088.012a.504.504 0 0 1 .393.331c.011.054.023.101.023.166.024.012.024.024.024.024Zm-1.05-4.606c0-.285.228-.533.528-.533a.528.528 0 0 1 .516.456v.154a.465.465 0 0 1-.194.337c-.04.024-.076.053-.129.077a.483.483 0 0 1-.516-.077.512.512 0 0 1-.205-.414Zm4.076-2.676a.565.565 0 0 1 .322-.119c.118 0 .23.042.323.119.1.076.164.207.194.337v.077a.504.504 0 0 1-.206.415l-.129.076a.568.568 0 0 1-.193.042.456.456 0 0 1-.194-.042.29.29 0 0 1-.129-.076.538.538 0 0 1-.205-.415v-.077c.047-.142.111-.26.217-.337Zm.845 5.02a.507.507 0 0 1-.194.391c-.024.012-.053.042-.076.053a.493.493 0 0 1-.493 0c-.023-.011-.053-.023-.076-.053a.496.496 0 0 1-.194-.403v-.011c0-.054 0-.09.012-.143a.422.422 0 0 1 .182-.272.48.48 0 0 1 .193-.089c.041-.011.088-.011.13-.011.052 0 .087 0 .14.011.065.012.13.054.194.09a.51.51 0 0 1 .181.271.51.51 0 0 1 .024.143c-.024.011-.024.011-.024.023Zm2.228-2.629a1.027 1.027 0 0 0 0 .58l-1.976 1.155a1.19 1.19 0 0 0-.452-.26v-2.315c.194-.054.346-.154.487-.284l1.941 1.124Zm-4.78-7.62c0-1.734 1.513-2.99 2.041-3.362.51.373 2.041 1.628 2.041 3.363 0 1.45-1.061 2.51-1.706 3.001V6.405a.32.32 0 0 0-.323-.326.32.32 0 0 0-.323.326v2.741c-.668-.503-1.73-1.551-1.73-3.013Zm1.22 6.496c.14.13.293.23.487.284v2.315a1.21 1.21 0 0 0-.452.248L7.27 14.321c.023-.089.04-.184.04-.284a.9.9 0 0 0-.04-.285l1.941-1.124ZM7.3 18.85c.012-.065.012-.142.012-.207 0-.13-.024-.249-.053-.361l1.924-1.113c.14.142.322.26.528.325v2.203a1.088 1.088 0 0 0-.487.284L7.3 18.851Zm3.537 1.131a1.244 1.244 0 0 0-.487-.284v-2.203c.205-.053.387-.165.528-.325l1.924 1.113a1.03 1.03 0 0 0-.053.361c0 .065 0 .142.011.207l-1.923 1.131Zm6.64-6.992c-.435.248-.91.207-1.285.1l.639-.373a.322.322 0 0 0 .117-.438c-.088-.154-.281-.207-.451-.118l-.64.373c.1-.361.305-.817.733-1.06.616-.361 1.385-.13 1.73.012-.046.367-.228 1.143-.844 1.504Z" fill="#000"/></svg>
