<svg fill="none" height="250" viewBox="0 0 250 250" width="250" xmlns="http://www.w3.org/2000/svg"><path d="m28.7854 82.2644v92.7396c0 5.919 3.1339 11.374 8.2409 14.334l80.2617 46.312c5.107 2.96 11.433 2.96 16.54 0l80.262-46.312c5.107-2.96 8.241-8.415 8.241-14.334v-92.7396c0-5.9195-3.134-11.3748-8.241-14.3345l-80.262-46.3116c-5.107-2.9598-11.433-2.9598-16.54 0l-80.2617 46.3116c-5.049 2.9597-8.2409 8.473-8.2409 14.3345z" fill="#213147"/><path d="m143.171 146.618-11.491 31.339c-.348.87-.348 1.857 0 2.728l19.674 54.03 22.749-13.174-27.276-74.923c-.639-1.741-3.076-1.741-3.656 0z" fill="#12aaff"/><path d="m166.038 93.8058c-.638-1.7411-3.017-1.7411-3.656 0l-11.433 31.3382c-.348.871-.348 1.858 0 2.728l32.268 88.445 22.749-13.174z" fill="#12aaff"/><path d="m125.586 25.0388c.58 0 1.102.116 1.625.4642l86.877 50.1419c1.045.5804 1.625 1.625 1.625 2.7857v100.2834c0 1.161-.638 2.206-1.625 2.786l-86.877 50.2c-.465.29-1.045.464-1.625.464-.581 0-1.103-.116-1.625-.464l-86.82-50.142c-1.0447-.58-1.625-1.625-1.625-2.786v-100.3414c0-1.1607.6384-2.2053 1.625-2.7857l86.878-50.1419c.464-.2901 1.044-.4642 1.567-.4642zm0-14.6247c-3.076 0-6.21.8125-8.938 2.4374l-86.8774 50.1419c-5.5133 3.1919-8.9373 9.1114-8.9373 15.4952v100.2834c0 6.384 3.424 12.304 8.9373 15.554l86.8774 50.141c2.786 1.625 5.862 2.438 8.938 2.438 3.075 0 6.209-.813 8.937-2.438l86.878-50.141c5.571-3.192 8.937-9.112 8.937-15.554v-100.3414c0-6.3838-3.424-12.3033-8.937-15.5533l-86.82-50.0258c-2.786-1.6249-5.92-2.4374-8.995-2.4374z" fill="#9dcced"/><path d="m68.1914 216.434 7.9507-21.879 16.0756 13.348-14.9729 13.754z" fill="#213147"/><g fill="#fff"><path d="m118.272 71.2891h-21.9952c-1.625 0-3.1339 1.0446-3.6562 2.5535l-47.1821 129.4174 22.7495 13.174 51.999-142.5334c.406-1.2767-.522-2.6115-1.915-2.6115z"/><path d="m156.81 71.2891h-21.995c-1.625 0-3.134 1.0446-3.657 2.5535l-53.9136 147.8144 22.7495 13.173 58.6731-160.8714c.464-1.3348-.464-2.6695-1.857-2.6695z"/></g></svg>