<svg fill="none" height="250" viewBox="0 0 250 250" width="250" xmlns="http://www.w3.org/2000/svg" xmlns:xlink="http://www.w3.org/1999/xlink"><linearGradient id="a" gradientUnits="userSpaceOnUse" x1="89.9355" x2="129.09" y1="14.0057" y2="231.089"><stop offset="0" stop-color="#27d3a2"/><stop offset="1" stop-color="#9388fd"/></linearGradient><clipPath id="b"><path d="m0 0h250v250h-250z"/></clipPath><g clip-path="url(#b)"><path d="m125.098 250.094c68.981 0 124.902-55.921 124.902-124.903 0-68.9813-55.921-124.901938-124.902-124.901938-68.982 0-124.902688 55.920638-124.902688 124.901938 0 68.982 55.920688 124.903 124.902688 124.903z" fill="#edf0f2"/><path d="m204.395 221.578c-19.043 15.723-42.383 25.391-66.993 27.735-32.91 3.223-65.8199-6.738-91.5035-27.735-25.5859-20.996-41.79688-51.269-45.117195-84.277-2.441405-24.609 2.441405-49.3163 14.062495-71.0936 11.6211-21.7773 29.4922-39.6484 51.2695-51.2695 21.7774-11.62112 46.4847-16.60159 71.0937-14.160183 24.609 2.441403 47.852 12.011683 66.992 27.734383l-25.195 30.7617c-12.988-10.6445-28.906-17.2851-45.703-18.8476-16.797-1.6602-33.5939 1.7578-48.4377 9.6679-14.8437 7.9102-26.9531 20.1172-34.9609 34.9609-7.9102 14.8438-11.2305 31.738-9.5703 48.438 2.2461 22.46 13.2812 43.164 30.7617 57.421 17.4805 14.356 39.9412 21.094 62.4022 18.848 16.797-1.66 32.617-8.301 45.606-18.945z" fill="url(#a)"/><path d="m125.488 227.441c56.348 0 101.953-45.703 101.953-101.953 0-56.3474-45.605-102.0505-101.953-102.0505-56.3474 0-102.0505 45.7031-102.0505 102.0505 0 56.348 45.7031 101.953 102.0505 101.953z" fill="#fff"/><path d="m142.48 133.594c0-9.571-5.859-12.793-17.285-14.258-8.398-1.172-10.058-3.125-10.058-7.031 0-3.907 2.832-6.25 8.301-6.25 4.98 0 7.812 1.66 8.984 5.664.098.39.39.781.781 1.074s.781.391 1.27.391h4.394c.293 0 .586-.098.781-.196.293-.097.489-.293.684-.488s.293-.488.391-.684c.097-.293.097-.586 0-.879-1.368-6.25-5.664-9.96-12.305-11.1323v-6.543c0-.5859-.195-1.0742-.586-1.4648-.391-.3907-.879-.586-1.465-.586h-4.199c-.586 0-1.074.1953-1.465.586-.391.3906-.586.8789-.586 1.4648v6.3477c-8.301 1.1716-13.574 6.5426-13.574 13.4766 0 8.984 5.566 12.402 17.09 13.965 7.91 1.269 10.156 2.929 10.156 7.324s-3.809 7.324-9.18 7.324c-7.226 0-9.668-3.125-10.546-7.129-.098-.488-.391-.879-.684-1.172-.391-.293-.879-.488-1.27-.488h-4.785c-.293 0-.586.098-.781.195-.293.098-.488.293-.684.489-.195.195-.293.488-.39.683-.098.293-.098.586 0 .782 1.172 6.836 5.664 11.816 14.746 12.988v6.445c0 .586.195 1.074.586 1.465.39.391.879.586 1.465.586h4.199c.586 0 1.074-.195 1.465-.586.39-.391.586-.879.586-1.465v-6.445c8.496-1.367 13.964-7.129 13.964-14.453z" fill="#283947"/><g fill="#657786"><path d="m110.937 162.89c-7.91-2.832-14.7456-8.106-19.6284-14.942-4.8828-6.835-7.4219-15.039-7.4219-23.339 0-8.301 2.6367-16.504 7.4219-23.34 4.8828-6.8362 11.7184-12.1096 19.6284-14.9416.489-.1953.977-.586 1.27-1.0742.293-.4883.488-.9766.488-1.5625v-3.8086c0-.293 0-.6836-.195-.9766-.098-.293-.391-.5859-.684-.7813-.293-.1953-.586-.2929-.976-.3906-.391-.0976-.684 0-.977.1953-9.9607 3.125-18.6521 9.375-24.9021 17.7735-6.1523 8.3986-9.4726 18.4566-9.4726 28.9066 0 10.351 3.3203 20.507 9.4726 28.906 6.1524 8.398 14.8438 14.551 24.9021 17.773.293.098.684.196.977.196s.683-.196.976-.391.489-.488.684-.781c.098-.293.195-.684.195-.977v-3.808c0-.586-.195-1.075-.488-1.563s-.684-.879-1.27-1.074z"/><path d="m139.258 78.0234c-.293-.0976-.684-.1953-.977-.1953s-.683.1953-.976.3907c-.293.1953-.489.4882-.684.7812-.098.293-.195.6836-.195.9766v3.8086c0 .5859.195 1.0742.488 1.5625.293.4882.781.7812 1.27 1.0742 7.91 2.832 14.746 8.1054 19.629 14.9411 4.882 6.836 7.421 15.039 7.421 23.34s-2.636 16.504-7.421 23.34c-4.883 6.836-11.719 12.109-19.629 14.941-.489.196-.977.586-1.27.977-.293.488-.488.977-.488 1.562v3.809c0 .293 0 .684.195.977.098.293.391.586.684.781s.586.293.976.39c.293 0 .684 0 .977-.195 9.961-3.125 18.652-9.375 24.902-17.773 6.153-8.399 9.473-18.457 9.473-28.907 0-10.351-3.32-20.507-9.473-28.9058-6.25-8.3008-14.941-14.5508-24.902-17.6758z"/></g></g></svg>