<svg fill="none" height="250" viewBox="0 0 250 250" width="250" xmlns="http://www.w3.org/2000/svg" xmlns:xlink="http://www.w3.org/1999/xlink"><clipPath id="a"><path d="m0 0h250v250h-250z"/></clipPath><g clip-path="url(#a)"><path d="m125 250c69.036 0 125-55.964 125-125 0-69.0356-55.964-125-125-125-69.0356 0-125 55.9644-125 125 0 69.036 55.9644 125 125 125z" fill="#f4d029"/><path clip-rule="evenodd" d="m97.6562 85.9375v23.4375h-54.6874v-23.4375zm7.8128 0h15.625v78.1245h-78.1252v-46.874h62.5002zm-46.8752 46.8745v15.626h46.8752v-15.626zm148.4372-31.25h-62.5v46.876h46.875v-15.626h-31.25v-15.624h46.875v46.874h-78.125v-78.1245h78.125z" fill="#fff" fill-rule="evenodd"/></g></svg>