<svg fill="none" height="250" viewBox="0 0 250 250" width="250" xmlns="http://www.w3.org/2000/svg" xmlns:xlink="http://www.w3.org/1999/xlink"><linearGradient id="a" gradientUnits="userSpaceOnUse" x1="-2.5" x2="290" y1="125" y2="125"><stop offset="0" stop-color="#08bbc9"/><stop offset=".5" stop-color="#12a3ca"/><stop offset="1" stop-color="#149aca"/></linearGradient><clipPath id="b"><path d="m0 0h250v250h-250z"/></clipPath><g clip-path="url(#b)"><path d="m125 250c69.036 0 125-55.964 125-125 0-69.0356-55.964-125-125-125-69.0356 0-125 55.9644-125 125 0 69.036 55.9644 125 125 125z" fill="url(#a)"/><path d="m133.625 167.025-49.1388 49.138-14.0126-15.087 34.0524-34.051-35.3448-35.345 15.0862-15.086zm28.664-28.234 15.086-15.085-35.349-35.3446 34.051-34.0525-14.008-15.0862-49.354 49.1387 49.57 50.4296zm-71.7716-28.016 49.5686 50.431 15.086-15.082-49.568-49.5738z" fill="#fff"/></g></svg>