<svg fill="none" height="250" viewBox="0 0 250 250" width="250" xmlns="http://www.w3.org/2000/svg"><g fill="#fff"><path d="m125.2 13.7502c61.3 0 111 49.7 111 110.9998 0 61.3-49.7 111-111 111-61.3001 0-111.0001-49.7-111.0001-111 0-61.2998 49.7-110.9998 111.0001-110.9998zm0-12.3c-16.65 0-32.8001 3.25-48.0001 9.7-14.7 6.2-27.85 15.05-39.2 26.4s-20.2 24.5-26.4 39.2c-6.45 15.2-9.7 31.3498-9.7 47.9998s3.25 32.8 9.7 48c6.2 14.7 15.1 27.85 26.4 39.2 11.3 11.3 24.5 20.2 39.2 26.4 15.2 6.45 31.3501 9.7 48.0001 9.7s32.8-3.25 48-9.7c14.7-6.2 27.85-15.1 39.2-26.4 11.3-11.3 20.2-24.5 26.4-39.2 6.45-15.2 9.7-31.35 9.7-48s-3.25-32.7998-9.7-47.9998c-6.2-14.7-15.1-27.85-26.4-39.2s-24.5-20.2-39.2-26.4c-15.2-6.45-31.35-9.7-48-9.7z"/><path d="m125.2 136c5.882 0 10.65-4.768 10.65-10.65s-4.768-10.65-10.65-10.65-10.65 4.768-10.65 10.65 4.768 10.65 10.65 10.65z"/></g></svg>