<svg fill="none" height="250" viewBox="0 0 250 250" width="250" xmlns="http://www.w3.org/2000/svg" xmlns:xlink="http://www.w3.org/1999/xlink"><linearGradient id="a"><stop offset="0" stop-color="#0082fa"/><stop offset="1" stop-color="#00f2fe"/></linearGradient><linearGradient id="b" gradientUnits="userSpaceOnUse" x1=".000056" x2="250" xlink:href="#a" y1="136.02" y2="136.02"/><linearGradient id="c" gradientUnits="userSpaceOnUse" x1=".000013" x2="250" xlink:href="#a" y1="113.979" y2="113.979"/><clipPath id="d"><path d="m0 0h250v250h-250z"/></clipPath><g clip-path="url(#d)"><path d="m30.3126 43.1849c1.5625-1.9375 3.1875-3.8125 4.8125-5.6875.0625-.0625.25-.125.3125-.1875.125-.1875.375-.3125.5625-.5l.125-.1875c1.125-1.0625 2.375-2.1875 3.75-3.25 5-3.75 10.125-6.625 15.5625-8.5625 17.5-6.125 36.9375-2.375 52.1874 12.0625 21.313 19.9375 19.375 52.125 2.375 73.4996-21.4999 31.875-58.3749 76.313-7.312 116.125 9.187 7.188 16 13.063 44.937 21.438-18.937 3.5-36.5 2.375-55.9999-2.563-13.8125-7.812-35.5625-24.5-42.9375-47.062-11.1875-34.188 19.6875-85.375 34.5625-105.0626 20.4379-27.25-12.625-56.75-37.0625-23.8125-12.625 17.1875-34.9375 65.7501-27.1875 101.8121 4.5 20.438 10.5625 35.313 34.5 55.813-4.4375-2.625-8.75-5.563-12.9375-8.938-55.5625-51.812-49.12504-131.9371-10.25-174.9371z" fill="url(#b)"/><path d="m219.688 206.814c-1.563 1.938-3.188 3.813-4.813 5.688-.063.062-.25.125-.313.187-.124.188-.374.313-.562.5l-.125.188c-1.125 1.062-2.375 2.187-3.75 3.187-5 3.75-10.125 6.625-15.563 8.563-17.5 6.125-36.937 2.375-52.187-12.063-21.312-19.937-19.375-52.125-2.375-73.5 21.5-31.875 58.375-76.3124 7.312-116.1249-9.187-7.1875-15.999-13.0625-44.937-21.4375 18.938-3.5 36.5-2.374996 56 2.5625 13.813 7.8125 35.563 24.5 42.938 47.0625 11.187 34.1875-19.688 85.3754-34.563 105.0624-20.438 27.25 12.625 56.75 37.063 23.813 12.75-17.188 35.062-65.75 27.312-101.8129-4.5-20.4375-10.562-35.3125-34.5-55.8125 4.438 2.625 8.75 5.5625 12.937 8.9375 55.438 51.875 49.001 131.9999 10.126 174.9999z" fill="url(#c)"/></g></svg>