<svg width="250" height="250" viewBox="0 0 250 250" fill="none" xmlns="http://www.w3.org/2000/svg">
<g clip-path="url(#clip0_50_11905)">
<path fill-rule="evenodd" clip-rule="evenodd" d="M250 125C250 194.036 194.036 250 125 250C55.9641 250 0 194.036 0 125C0 55.9641 55.9641 0 125 0C194.036 0 250 55.9641 250 125Z" fill="white"/>
<path d="M41.6665 187.371L102.085 75.5966L155.28 52.0859L94.8611 163.86L41.6665 187.371Z" fill="url(#paint0_linear_50_11905)"/>
<path d="M101.955 161.761L147.794 76.7812L173.8 102.393L128.618 187.505L101.955 161.761Z" fill="url(#paint1_linear_50_11905)"/>
<path d="M178.922 105.016L212.809 117.362L195.865 148.359L154.754 149.804L178.922 105.016Z" fill="url(#paint2_linear_50_11905)"/>
</g>
<defs>
<linearGradient id="paint0_linear_50_11905" x1="30.4679" y1="173.01" x2="204.622" y2="36.5163" gradientUnits="userSpaceOnUse">
<stop stop-color="#64C7F0"/>
<stop offset="1" stop-color="#4A9CD6"/>
</linearGradient>
<linearGradient id="paint1_linear_50_11905" x1="51.0922" y1="197.91" x2="232.505" y2="60.9971" gradientUnits="userSpaceOnUse">
<stop stop-color="#64C7F0"/>
<stop offset="1" stop-color="#4A9CD6"/>
</linearGradient>
<linearGradient id="paint2_linear_50_11905" x1="66.4172" y1="218.466" x2="242.342" y2="84.8995" gradientUnits="userSpaceOnUse">
<stop stop-color="#64C7F0"/>
<stop offset="1" stop-color="#4A9CD6"/>
</linearGradient>
<clipPath id="clip0_50_11905">
<rect width="250" height="250" fill="white"/>
</clipPath>
</defs>
</svg>
