<svg fill="none" height="250" viewBox="0 0 250 250" width="250" xmlns="http://www.w3.org/2000/svg" xmlns:xlink="http://www.w3.org/1999/xlink"><clipPath id="a"><path d="m0 0h250v250h-250z"/></clipPath><g clip-path="url(#a)"><path d="m125 250c69.036 0 125-55.964 125-125 0-69.0356-55.964-125-125-125-69.0356 0-125 55.9644-125 125 0 69.036 55.9644 125 125 125z" fill="#2b77b3"/><path d="m210.937 125.307c-.367 47.718-39.039 85.984-86.539 85.625-47.5387-.352-85.7184-39.196-85.3356-86.813.3906-47.164 39.1719-85.3671 86.3286-85.0546 47.5.3203 85.89 39.0313 85.546 86.2496zm-165.6558-.274c.0859 43.906 35.6094 79.352 79.6018 79.453 44.039.078 79.969-35.609 79.82-79.562-.164-45.7815-38.086-80.3127-81.734-79.5627-42.2034.7187-77.7738 36.5937-77.6878 79.6717zm100.6638-37.3123-3.179 10.1718c-5.922-.9765-11.407-2.1406-16.961-2.6875-3.297-.3203-6.719.5391-7.993 4.25-1.312 3.805-1.468 7.859 1.68 10.797 3.235 3.008 7.031 5.391 10.578 8.062 3.258 2.454 6.844 4.594 9.688 7.461 7.711 7.782 9.078 17.219 5.914 27.391-1.875 6.031-6.344 9.844-12.063 12.156-8.75 3.547-23.648 1.797-32.015-3.828l3.672-10.656c5.328 1.406 10.203 3.094 15.218 3.89 4.782.758 9.789.024 12.243-4.859 2.468-4.922 1.687-10.101-2.18-14.055-2.985-3.046-6.727-5.367-10.219-7.906-2.328-1.687-4.93-3.015-7.195-4.781-4.393-3.359-7.521-8.105-8.876-13.466-1.354-5.361-.856-11.0231 1.415-16.0653 1.001-2.4079 2.567-4.539 4.566-6.2131s4.372-2.8418 6.918-3.4041c9.805-2.3282 19.313-1.2735 28.789 3.75zm-63.1248 35.8593c.0002 2.614-1.0312 5.122-2.87 6.98s-4.3365 2.915-6.9503 2.942c-5.4687.023-10.1406-4.742-10.0156-10.188.103-2.612 1.2131-5.083 3.0977-6.895 1.8846-1.811 4.3974-2.823 7.0117-2.823 5.4687.078 9.7656 4.492 9.7344 9.984zm94.4768-9.711c5.453-.008 9.515 4.016 9.586 9.5.03 1.325-.206 2.643-.694 3.875-.488 1.233-1.219 2.354-2.148 3.299-.93.945-2.039 1.694-3.264 2.202-1.224.508-2.538.766-3.863.757-2.616-.043-5.109-1.115-6.94-2.984s-2.852-4.384-2.841-7c0-5.719 4.14-9.649 10.164-9.649z" fill="#fff"/></g></svg>