<svg fill="none" height="238" viewBox="0 0 238 238" width="238" xmlns="http://www.w3.org/2000/svg"><circle cx="119.564" cy="118.436" fill="#2c2c2c" r="117.308"/><path d="m65.4293 78.726 61.5337-35.7982c2.124-1.2371 4.735-1.2371 6.858 0l38.756 22.5433c3.897 2.2582 4.598 7.6388 1.422 10.8592l-13.133 13.3139c-2.182 2.219-5.592 2.6706-8.281 1.0997l-18.705-10.8789c-2.163-1.2568-4.832-1.2568-6.995 0l-64.885 38.135v-33.2847c0-2.4742 1.3055-4.7521 3.4293-5.9893z" fill="#fa8c16"/><path d="m172.585 173.557-38.867 22.519c-2.121 1.232-4.729 1.232-6.831 0l-61.4616-35.635c-2.1214-1.232-3.4254-3.499-3.4254-5.943v-30.064l31.6651-18.434v30.123c0 2.463 1.304 4.731 3.4254 5.943l29.7965 17.28c2.122 1.232 4.73 1.232 6.831 0l18.859-10.927c2.686-1.564 6.073-1.114 8.252 1.094l13.157 13.215c3.192 3.206 2.491 8.562-1.401 10.829z" fill="#fff"/></svg>