<svg fill="none" height="250" viewBox="0 0 250 250" width="250" xmlns="http://www.w3.org/2000/svg" xmlns:xlink="http://www.w3.org/1999/xlink"><linearGradient id="a" gradientUnits="userSpaceOnUse" x1="89.7618" x2="128.915" y1="13.8501" y2="231.006"><stop offset="0" stop-color="#27d3a2"/><stop offset="1" stop-color="#9388fd"/></linearGradient><clipPath id="b"><path d="m0 0h250v250h-250z"/></clipPath><g clip-path="url(#b)"><path d="m125.017 250c69.028 0 124.986-55.938 124.986-124.942 0-69.0027-55.958-124.940812-124.986-124.940812-69.0282 0-124.9864824 55.938112-124.9864824 124.940812 0 69.004 55.9582824 124.942 124.9864824 124.942z" fill="#edf0f2"/><path d="m204.364 221.476c-19.056 15.727-42.411 25.398-67.037 27.743-32.933 3.223-65.8651-6.741-91.5659-27.743-25.6032-21.003-41.82505-51.286-45.147595-84.304-2.443045-24.617 2.443045-49.3318 14.071995-71.1159 11.6289-21.7841 29.512-39.6608 51.304-51.2855 21.792-11.62471 46.5155-16.60674 71.1415-14.164569 24.626 2.442169 47.884 12.015469 67.037 27.742969l-25.212 30.7713c-12.997-10.6478-28.926-17.2905-45.734-18.8535-16.808-1.6607-33.6161 1.7584-48.4699 9.671-14.8537 7.9126-26.9712 20.1234-34.9844 34.9718-7.9155 14.8484-11.2381 31.7484-9.5768 48.4524 2.2476 22.468 13.2902 43.178 30.7824 57.44 17.4923 14.36 39.9687 21.1 62.4447 18.853 16.808-1.66 32.639-8.303 45.636-18.951z" fill="url(#a)"/><path d="m125.404 227.333c56.386 0 102.022-45.717 102.022-101.985 0-56.365-45.636-102.0824-102.022-102.0824-56.3852 0-102.1191 45.7174-102.1191 102.0824s45.7339 101.985 102.1191 101.985z" fill="#fff"/><path d="m126.094 144.301 32.346-18.756-38.404-19.733z" fill="#aab8c1"/><path d="m93.8416 125.646 32.3464 18.755v-34.581z" fill="#aab8c1"/><path d="m126.091 72.9922-32.3461 52.6528 42.3131-18.853z" fill="#283947"/><path d="m126.088 72.9922v38.1958l32.346 14.457z" fill="#657786"/><path d="m126.09 176.342 4.202-23.64-36.4504-21.1z" fill="#283947"/><path d="m126.088 150.357v25.985l32.346-44.74z" fill="#657786"/></g></svg>