<svg fill="none" height="262" viewBox="0 0 262 262" width="262" xmlns="http://www.w3.org/2000/svg"><circle cx="131.621" cy="130.379" fill="#fff" r="129.137"/><g fill="#000"><path d="m49.5059 163.132c17.192-36.03 34.5079-72.0513 51.7171-108.2226.682-.1328 1.23-.1328 1.912-.2743 9.281 16.8115 18.696 33.4373 28.252 50.7709-29.889 16.236-57.4602 34.526-81.8811 57.726z"/><path d="m132.342 186.88c-.955.681-1.769 1.637-2.866 2.044-20.201 8.326-40.5339 16.104-62.2297 19.112-5.8973.819-11.8882.679-17.7406-.416-9.8303-1.911-13.5112-9.273-9.2818-18.404 2.7797-5.832 6.3529-11.251 10.6179-16.104 15.9267-17.873 35.4812-31.252 55.6812-43.807 28.934-18.015 59.637-32.6145 91.137-45.5771 2.176-.8229 4.229-1.9112 6.68-3.0084-1.495-2.8668-2.725-5.0435-3.681-6.6804h23.492l.407.8141-14.741 6.5476c-43.666 19.1122-84.881 42.1702-121.7244 72.6082-6.2822 5.185-11.6088 11.458-17.0593 17.334-1.8951 2.171-3.4495 4.617-4.6099 7.255-4.0967 8.733-.6813 15.697 8.8482 16.511 8.3385.745 16.7372.457 25.0054-.858 10.786-1.637 21.43-4.778 32.074-7.371z"/><path d="m112.823 143.48c10.37-6.141 19.519-11.733 29.615-17.697 12.556 23.89 24.704 47.223 36.986 70.556-.407.407-.823.681-1.23 1.097-21.289-17.652-42.711-35.26-65.371-53.956z"/></g></svg>