<svg fill="none" height="250" viewBox="0 0 250 250" width="250" xmlns="http://www.w3.org/2000/svg" xmlns:xlink="http://www.w3.org/1999/xlink"><clipPath id="a"><path d="m0 0h250v250h-250z"/></clipPath><g clip-path="url(#a)"><path d="m125 250c69.036 0 125-55.964 125-125 0-69.0365-55.964-125-125-125-69.0365 0-125 55.9635-125 125 0 69.036 55.9635 125 125 125z" fill="#f9f9f9"/><g fill="#000"><path d="m124.512 51.8229c-5.476.0273-10.892 1.1387-15.94 3.271-5.049 2.1322-9.6296 5.2437-13.4817 9.1562-3.8522 3.9125-6.9 8.5497-8.9696 13.6466-2.0695 5.097-3.1201 10.5539-3.0919 16.0592v13.9171h33.7052v-20.163c0-.9469.185-1.8846.545-2.7595s.888-1.6698 1.554-2.3395c.666-.6696 1.457-1.2005 2.327-1.5628.87-.3624 1.803-.5487 2.744-.5485h1.216c.941-.0002 1.874.1861 2.744.5485.87.3623 1.661.8932 2.327 1.5628s1.194 1.4646 1.555 2.3395c.36.8749.545 1.8126.545 2.7595v54.051c4.426 0 8.81-.876 12.899-2.579s7.805-4.199 10.935-7.346 5.612-6.883 7.306-10.994c1.694-4.112 2.566-8.519 2.566-12.969v-13.9171c.024-11.1544-4.345-21.8648-12.152-29.7905-3.83-3.9111-8.396-7.0166-13.432-9.1356s-10.442-3.2092-15.901-3.2069z"/><path d="m125.121 169.122h-1.215c-.942 0-1.874-.187-2.744-.549s-1.661-.893-2.327-1.563c-.665-.669-1.194-1.464-1.554-2.339-.36-.874-.545-1.812-.545-2.759v-54.051c-4.427 0-8.81.876-12.899 2.579-4.0897 1.703-7.8054 4.199-10.9353 7.346s-5.6127 6.883-7.3064 10.995c-1.6937 4.111-2.5652 8.518-2.5648 12.969v13.723c-.0562 5.513.9754 10.983 3.0349 16.093 2.0596 5.11 5.1063 9.758 8.964 13.677 3.8577 3.918 8.4496 7.029 13.5106 9.152s10.491 3.217 15.974 3.217c5.484 0 10.913-1.094 15.974-3.217s9.654-5.234 13.511-9.152c3.858-3.919 6.905-8.567 8.964-13.677 2.06-5.11 3.091-10.58 3.035-16.093v-13.723h-33.705v20.162c0 .947-.186 1.885-.546 2.759-.361.875-.889 1.67-1.555 2.339-.666.67-1.456 1.201-2.327 1.563-.87.362-1.802.549-2.744.549z"/></g></g></svg>