<svg fill="none" height="262" viewBox="0 0 262 262" width="262" xmlns="http://www.w3.org/2000/svg" xmlns:xlink="http://www.w3.org/1999/xlink"><linearGradient id="a"><stop offset="0" stop-color="#00e6fe"/><stop offset="1" stop-color="#c90ce9"/></linearGradient><radialGradient id="b" cx="0" cy="0" gradientTransform="matrix(211.632 0 0 212.472 67.6128 208.964)" gradientUnits="userSpaceOnUse" r="1" xlink:href="#a"/><radialGradient id="c" cx="0" cy="0" gradientTransform="matrix(325.538 0 0 342.602 47.9796 255.548)" gradientUnits="userSpaceOnUse" r="1" xlink:href="#a"/><linearGradient id="d"><stop offset="0" stop-color="#ba20ff"/><stop offset="1" stop-color="#ff009b"/></linearGradient><linearGradient id="e" gradientUnits="userSpaceOnUse" x1="46.2247" x2="203.219" xlink:href="#d" y1="215.652" y2="197.068"/><linearGradient id="f" gradientUnits="userSpaceOnUse" x1="32.9328" x2="277.161" xlink:href="#d" y1="277.349" y2="247.922"/><linearGradient id="g" gradientUnits="userSpaceOnUse" x1="5.65061" x2="78.801" xlink:href="#d" y1="126.142" y2="121.054"/><path d="m256.503 118.736c9.609-23.3544 2.077-42.2478-5.943-53.9953-15.623-22.8606-46.699-38.8162-75.584-38.8162-1.991 0-3.968.0706-5.915.2259-29.587-16.59111-62.724-26.1504-90.8938-26.1504-2.0758 0-4.1669 0-6.2007.155321-35.6584 1.877969-54.3326 32.645579-53.6022 53.218579-15.38043 18.2427-18.18729 42.106-7.7046 65.5171 5.1945-52.6296 49.335-93.2017 102.9453-94.6234 53.609-1.4217 99.898 36.7522 107.954 89.0304 8.056 52.278-24.643 102.285-76.261 116.629-51.6194 14.343-105.9901-11.471-126.8048-60.203-3.1189 3.35-5.9006 6.991-8.306 10.872-6.85963 11.155-7.03148 24.555-.44396 37.714 9.12226 18.272 28.95646 32.476 48.23186 34.581 3.0955.344 6.2078.519 9.3229.522 4.2547-.01 8.5019-.349 12.7026-1.017 8.2907 2.614 16.8248 4.406 25.4764 5.352 6.831.796 13.701 1.206 20.579 1.228 25.864 0 45.898-6.354 61.249-19.457 28.499-6.382 45.827-25.416 54.691-59.686 3.397-13.307 4.448-27.091 3.108-40.75 4.765-6.211 8.604-13.063 11.399-20.347z" fill="#fff"/><path d="m116.611 207.694c44.028-.093 79.644-35.359 79.551-78.771-.092-43.4106-35.857-78.5295-79.885-78.4411-44.0278.0883-79.6479 35.3504-79.561 78.7611.1421 43.396 35.8826 78.491 79.895 78.451z" fill="#fff"/><path d="m116.604 207.693c40.328-.078 74.246-29.838 79.009-69.324 4.762-39.4847-21.132-76.2581-60.317-85.6597-39.1853-9.4014-79.3193 11.5304-93.4892 48.7587 4.1959 6.1 7.2606 12.708 7.2606 21.378 0 12.92-3.8666 20.672-9.4946 27.054 9.5635 34.159 41.0903 57.813 77.0312 57.793z" fill="url(#b)"/><path d="m218.54 68.513c-23.257-35.9356-92.083-71.16529-146.5873-68.355395-37.234 1.920325-54.6911 34.791795-53.6313 53.811595.3505 7.9572 2.4001 15.7523 6.0147 22.8749 24.6221-42.162 75.4437-62.0603 122.6929-48.0387 47.249 14.0216 78.489 58.2725 75.419 106.8296-3.07 48.558-39.641 88.64-88.292 96.767-48.6492 8.128-96.5705-17.84-115.6914-62.69-3.1301 3.349-5.9171 6.996-8.3203 10.886-18.61689 30.203 15.2372 68.821 47.817 72.365 25.777 2.824 37.1331-6.41 68.1807-9.587 37.821-3.883 96.378 12.553 115.884-63.54 11.513-44.874-6.101-84.4669-23.486-111.323z" fill="url(#c)"/><path d="m36.7158 129.244c.0872 43.412 35.8511 78.536 79.8812 78.451 44.029-.086 79.652-35.349 79.565-78.762-.087-43.4135-35.85-78.5368-79.88-78.4511-44.0077.1401-79.5979 35.3712-79.5662 78.7621z" fill="url(#e)"/><path d="m151.565 30.1925c44.87 15.473 73.862 58.4438 70.996 105.2275-2.866 46.784-36.892 86.002-83.325 96.037-46.4322 10.037-93.9771-11.551-116.4287-52.862-.9023 10.152-.086 25.416 9.3371 39.098 16.3113 23.764 41.4154 36.472 73.3366 40.129 72.749 8.261 101.533-25.797 114.093-78.437 8.821-36.938 21.968-24.117 36.976-60.617 24.732-60.1378-58.5-107.7788-104.985-88.5755z" fill="url(#f)"/><path d="m71.6014 34.0725c-3.7646-.8602-7.598-1.3941-11.4565-1.5955-28.527-1.5956-72.3054 35.7238-49.4925 86.499 3.6743-36.9313 26.8449-69.2084 60.949-84.9035z" fill="url(#g)"/></svg>