<svg width="262" height="262" viewBox="0 0 262 262" fill="none" xmlns="http://www.w3.org/2000/svg">
<path d="M256.503 118.736C266.112 95.3816 258.58 76.4882 250.56 64.7407C234.937 41.8801 203.861 25.9245 174.976 25.9245C172.985 25.9245 171.008 25.9951 169.061 26.1504C139.474 9.55929 106.337 0 78.1672 0C76.0914 0 74.0003 0 71.9665 0.155321C36.3081 2.03329 17.6339 32.8009 18.3643 53.3739C2.98387 71.6166 0.17701 95.4799 10.6597 118.891C15.8542 66.2614 59.9947 25.6893 113.605 24.2676C167.214 22.8459 213.503 61.0198 221.559 113.298C229.615 165.576 196.916 215.583 145.298 229.927C93.6786 244.27 39.3079 218.456 18.4932 169.724C15.3743 173.074 12.5926 176.715 10.1872 180.596C3.32757 191.751 3.15572 205.151 9.74324 218.31C18.8655 236.582 38.6997 250.786 57.9751 252.891C61.0706 253.235 64.1829 253.41 67.298 253.413C71.5527 253.403 75.7999 253.064 80.0006 252.396C88.2913 255.01 96.8254 256.802 105.477 257.748C112.308 258.544 119.178 258.954 126.056 258.976C151.92 258.976 171.954 252.622 187.305 239.519C215.804 233.137 233.132 214.103 241.996 179.833C245.393 166.526 246.444 152.742 245.104 139.083C249.869 132.872 253.708 126.02 256.503 118.736Z" fill="white"/>
<path d="M116.611 207.694C160.639 207.601 196.255 172.335 196.162 128.923C196.07 85.5124 160.305 50.3935 116.277 50.4819C72.2492 50.5702 36.6291 85.8323 36.716 129.243C36.8581 172.639 72.5986 207.734 116.611 207.694Z" fill="white"/>
<g style="mix-blend-mode:multiply">
<path d="M116.604 207.693C156.932 207.615 190.85 177.855 195.613 138.369C200.375 98.8843 174.481 62.1109 135.296 52.7093C96.1107 43.3079 55.9767 64.2397 41.8068 101.468C46.0027 107.568 49.0674 114.176 49.0674 122.846C49.0674 135.766 45.2008 143.518 39.5728 149.9C49.1363 184.059 80.6631 207.713 116.604 207.693Z" fill="url(#paint0_radial_112_11151)"/>
</g>
<g style="mix-blend-mode:multiply">
<path d="M218.54 68.513C195.283 32.5774 126.457 -2.65229 71.9527 0.157605C34.7187 2.07793 17.2616 34.9494 18.3214 53.9692C18.6719 61.9264 20.7215 69.7215 24.3361 76.8441C48.9582 34.6821 99.7798 14.7838 147.029 28.8054C194.278 42.827 225.518 87.0779 222.448 135.635C219.378 184.193 182.807 224.275 134.156 232.402C85.5068 240.53 37.5855 214.562 18.4646 169.712C15.3345 173.061 12.5475 176.708 10.1443 180.598C-8.47259 210.801 25.3815 249.419 57.9613 252.963C83.7383 255.787 95.0944 246.553 126.142 243.376C163.963 239.493 222.52 255.929 242.026 179.836C253.539 134.962 235.925 95.3691 218.54 68.513Z" fill="url(#paint1_radial_112_11151)"/>
</g>
<g style="mix-blend-mode:multiply">
<path d="M36.7158 129.244C36.803 172.656 72.5669 207.78 116.597 207.695C160.626 207.609 196.249 172.346 196.162 128.933C196.075 85.5195 160.312 50.3962 116.282 50.4819C72.2743 50.622 36.6841 85.8531 36.7158 129.244Z" fill="url(#paint2_linear_112_11151)"/>
</g>
<g style="mix-blend-mode:multiply">
<path d="M151.565 30.1925C196.435 45.6655 225.427 88.6363 222.561 135.42C219.695 182.204 185.669 221.422 139.236 231.457C92.8038 241.494 45.2589 219.906 22.8073 178.595C21.905 188.747 22.7213 204.011 32.1444 217.693C48.4557 241.457 73.5598 254.165 105.481 257.822C178.23 266.083 207.014 232.025 219.574 179.385C228.395 142.447 241.542 155.268 256.55 118.768C281.282 58.6302 198.05 10.9892 151.565 30.1925Z" fill="url(#paint3_linear_112_11151)"/>
</g>
<g style="mix-blend-mode:multiply">
<path d="M71.6014 34.0725C67.8368 33.2123 64.0034 32.6784 60.1449 32.477C31.6179 30.8814 -12.1605 68.2008 10.6524 118.976C14.3267 82.0447 37.4973 49.7676 71.6014 34.0725Z" fill="url(#paint4_linear_112_11151)"/>
</g>
<defs>
<radialGradient id="paint0_radial_112_11151" cx="0" cy="0" r="1" gradientUnits="userSpaceOnUse" gradientTransform="translate(67.6128 208.964) scale(211.632 212.472)">
<stop stop-color="#00E6FE"/>
<stop offset="1" stop-color="#C90CE9"/>
</radialGradient>
<radialGradient id="paint1_radial_112_11151" cx="0" cy="0" r="1" gradientUnits="userSpaceOnUse" gradientTransform="translate(47.9796 255.548) scale(325.538 342.602)">
<stop stop-color="#00E6FE"/>
<stop offset="1" stop-color="#C90CE9"/>
</radialGradient>
<linearGradient id="paint2_linear_112_11151" x1="46.2247" y1="215.652" x2="203.219" y2="197.068" gradientUnits="userSpaceOnUse">
<stop stop-color="#BA20FF"/>
<stop offset="1" stop-color="#FF009B"/>
</linearGradient>
<linearGradient id="paint3_linear_112_11151" x1="32.9328" y1="277.349" x2="277.161" y2="247.922" gradientUnits="userSpaceOnUse">
<stop stop-color="#BA20FF"/>
<stop offset="1" stop-color="#FF009B"/>
</linearGradient>
<linearGradient id="paint4_linear_112_11151" x1="5.65061" y1="126.142" x2="78.801" y2="121.054" gradientUnits="userSpaceOnUse">
<stop stop-color="#BA20FF"/>
<stop offset="1" stop-color="#FF009B"/>
</linearGradient>
</defs>
</svg>
