<svg fill="none" height="250" viewBox="0 0 250 250" width="250" xmlns="http://www.w3.org/2000/svg" xmlns:xlink="http://www.w3.org/1999/xlink"><linearGradient id="a" gradientUnits="userSpaceOnUse" x1="17.3219" x2="233.848" y1="164.244" y2="85.5031"><stop offset="0" stop-color="#29bcfa"/><stop offset=".43" stop-color="#6464e4"/><stop offset="1" stop-color="#b45afa"/></linearGradient><linearGradient id="b" gradientUnits="userSpaceOnUse" x1="132.812" x2="125" y1="-15.625" y2="250"><stop offset="0" stop-color="#33117b" stop-opacity="0"/><stop offset=".827261" stop-color="#33117b"/></linearGradient><clipPath id="c"><path d="m0 0h250v250h-250z"/></clipPath><g clip-path="url(#c)"><path d="m250 125c0-69.0356-55.964-125-125-125-69.0356 0-125 55.9644-125 125 0 69.036 55.9644 125 125 125 69.036 0 125-55.964 125-125z" fill="url(#a)"/><path d="m250 125c0-69.0356-55.964-125-125-125-69.0356 0-125 55.9644-125 125 0 69.036 55.9644 125 125 125 69.036 0 125-55.964 125-125z" fill="url(#b)" fill-opacity=".66"/><path clip-rule="evenodd" d="m183.151 180.909c.016.103.024.208.024.314.003.823-.42 1.588-1.121 2.02l-56.125 34.608c-.759.467-1.714.47-2.47.004l-55.672-34.177c-.7008-.432-1.1269-1.195-1.1241-2.017 0-.071.003-.144.0078-.214-.0078-.079-.0078-.15-.0078-.226l-.0029-42.7c0-.055.0029-.103.0058-.153-.039-.618.1633-1.246.6016-1.732.7469-.827 1.9702-1.018 2.9306-.458l54.707 31.75 54.201-31.443c.088-.055.181-.098.274-.138.397-.308.894-.49 1.437-.49 1.299 0 2.356 1.057 2.356 2.357l.003 42.364c0 .114-.009.222-.025.331zm-111.7778-3.415 16.1712-9.771-16.1737-22.259zm18.9501-5.942c-4.4859 2.708-16.775 10.132-16.775 10.132l43.5697 26.75zm42.6977 36.391 43.267-26.681-16.718-10.053zm29.319-40.567 16.122 9.694-.002-32zm-38.619 5.312-46.2495-26.844 47.4285 65.289 46.99-65.017-45.805 26.572c-.73.424-1.634.424-2.364 0zm-54.7862-45.629c-1.264-.047-2.277-1.08-2.2772-2.356l-.0049-55.5023c0-.1383.0157-.2742.0391-.4047-.0234-.1273-.0391-.2578-.0391-.3906-.0029-.8225.4235-1.588 1.1238-2.0169l56.1285-34.4237c.753-.464 1.705-.464 2.458-.0026l55.672 33.9892c.704.4289 1.13 1.1944 1.13 2.0169 0 .039-.003.0703-.003.1031 0 .0391.003.0703.003.1086l.005 56.233c0 .993-.619 1.846-1.489 2.19l-55.644 30.61c-.706.388-1.565.388-2.271 0zm2.4301-54.4978.003 44.6608 20.0166-32.6244zm107.0901-.4234-20.206 12.2075 20.209 32.9337zm-22.669 8.1903c5.18-3.1303 20.485-12.3762 20.485-12.3762l-44.901-27.4146zm-37.686-39.2776-44.5519 27.3249 20.3002 12.2074zm-45.2568 82.7805 52.0578 28.628 52.048-28.63-52.056-84.839z" fill="#d7cdff" fill-rule="evenodd"/></g></svg>