<svg fill="none" height="250" viewBox="0 0 250 250" width="250" xmlns="http://www.w3.org/2000/svg" xmlns:xlink="http://www.w3.org/1999/xlink"><linearGradient id="a" gradientUnits="userSpaceOnUse" x1="215.402" x2="34.9823" y1="48.9333" y2="200.738"><stop offset="0" stop-color="#b6509e"/><stop offset="1" stop-color="#2ebac6"/></linearGradient><path d="m125 246.25c66.965 0 121.25-54.285 121.25-121.25 0-66.9645-54.285-121.25-121.25-121.25-66.9645 0-121.25 54.2855-121.25 121.25 0 66.965 54.2855 121.25 121.25 121.25z" fill="url(#a)"/><g clip-rule="evenodd" fill-rule="evenodd"><g fill="#fff"><path d="m127.082 41.6641c29.93 0 54.165 24.2347 54.165 54.1652v69.9117h-108.3305v-69.9117c0-29.9305 24.2347-54.1652 54.1655-54.1652zm-21.666 39.6466c-6.2545 0-11.2801 5.0257-11.2801 11.2798s5.0256 11.2795 11.2801 11.2795c6.254 0 11.279-5.0254 11.279-11.2795s-5.025-11.2798-11.279-11.2798zm39.981 0c-6.254 0-11.279 5.0257-11.279 11.2798s5.025 11.2795 11.279 11.2795 11.28-5.0254 11.28-11.2795-5.026-11.2798-11.28-11.2798z"/><path d="m127.082 48.9219c29.93 0 54.165 18.6507 54.165 65.6681v55.171h-108.3305v-74.9383c0-28.5903 24.2347-45.9008 54.1655-45.9008zm-21.666 32.3874c-6.2545 0-11.2801 5.0257-11.2801 11.2798s5.0256 11.2799 11.2801 11.2799c6.254 0 11.279-5.0258 11.279-11.2799s-5.025-11.2798-11.279-11.2798zm39.981 0c-6.254 0-11.279 5.0257-11.279 11.2798s5.025 11.2799 11.279 11.2799 11.28-5.0258 11.28-11.2799-5.026-11.2798-11.28-11.2798z"/><path d="m127.084 54.1719c29.931 0 54.165 17.9806 54.165 63.3231v76.501c0 3.462-2.792 6.143-6.142 6.143-3.462 0-6.143-2.792-6.143-6.143v-17.199c0-3.127-2.68-5.584-6.03-5.695h-.112c-3.35 0-6.142 2.457-6.142 5.584v7.706c0 3.238-2.569 5.807-5.808 5.807s-5.807-2.569-5.807-5.807v-7.595c0-3.127-2.681-5.584-6.031-5.695h-.112c-3.35 0-6.142 2.457-6.142 5.584v1.563c0 3.239-2.569 5.808-5.808 5.808-3.238 0-5.807-2.569-5.807-5.808v-1.452c0-3.127-2.68-5.584-6.031-5.695h-.111c-3.351 0-6.143 2.457-6.143 5.584v7.706c0 3.238-2.568 5.807-5.807 5.807-3.2389 0-5.8076-2.569-5.8076-5.807v-7.595c0-3.127-2.6803-5.584-6.0308-5.695h-.1117c-3.3504 0-6.1424 2.457-6.1424 5.584v.111 17.534c0 3.239-2.5687 5.808-5.8074 5.808s-5.8074-2.569-5.8074-5.808v-95.8218c-.4467-27.5852 23.788-44.3373 53.7183-44.3373zm-21.666 27.1384c-6.254 0-11.2797 5.0257-11.2797 11.2798s5.0257 11.2799 11.2797 11.2799 11.28-5.0258 11.28-11.2799-5.026-11.2798-11.28-11.2798zm39.982 0c-6.254 0-11.28 5.0257-11.28 11.2798s5.026 11.2799 11.28 11.2799 11.28-5.0258 11.28-11.2799-5.026-11.2798-11.28-11.2798z"/><path d="m78.724 108.336c1.5635 0 2.9037 1.34 2.9037 2.904v13.066c0 1.564-1.3402 2.904-2.9037 2.904s-2.9037-1.34-2.9037-2.904v-13.066c0-1.564 1.2285-2.904 2.9037-2.904z" opacity=".2563"/><path d="m177.564 127.211c1.563 0 2.904 1.34 2.904 2.904v24.458c0 1.563-1.341 2.903-2.904 2.903-1.564 0-2.904-1.34-2.904-2.903v-24.458c0-1.564 1.34-2.904 2.904-2.904z" opacity=".2563"/><path d="m177.564 114.594c1.563 0 2.904 1.34 2.904 2.903v2.681c0 1.563-1.341 2.903-2.904 2.903-1.564 0-2.904-1.34-2.904-2.903v-2.681c0-1.675 1.34-2.903 2.904-2.903z" opacity=".2563"/><path d="m127.303 121.517c4.914 0 8.6-4.02 8.6-6.812 0-1.117-.671-2.122-1.676-2.234-1.563-.223-3.909.67-6.924.67-2.792 0-4.579-.782-6.701-.782-2.233 0-2.122 2.569-1.787 3.574.782 2.792 3.462 5.584 8.488 5.584z"/><path d="m127.415 119.167c5.025 0 8.711-3.685 8.711-6.365 0-1.006-.67-1.899-1.675-2.011-1.564-.223-4.021.67-7.036.67-2.904 0-4.579-.781-6.813-.781-2.233 0-2.122 2.457-1.787 3.35.782 2.569 3.574 5.137 8.6 5.137z"/></g><path d="m107.088 79.4141c5.696 0 10.387 5.6957 10.387 12.7316s-4.691 12.7313-10.387 12.7313c-5.695 0-10.3859-5.6954-10.3859-12.7313s4.5789-12.7316 10.3859-12.7316zm0 1.3401c-5.137 0-9.269 5.1373-9.269 11.3915 0 6.2541 4.132 11.3913 9.269 11.3913 5.138 0 9.27-5.1372 9.27-11.3913 0-6.2542-4.244-11.3915-9.27-11.3915z" fill="#d8d8d8"/><path d="m147.185 79.4141c5.696 0 10.386 5.6957 10.386 12.7316s-4.69 12.7313-10.386 12.7313-10.386-5.6954-10.386-12.7313 4.69-12.7316 10.386-12.7316zm0 1.3401c-5.137 0-9.269 5.1373-9.269 11.3915 0 6.2541 4.132 11.3913 9.269 11.3913s9.27-5.1372 9.27-11.3913c0-6.2542-4.133-11.3915-9.27-11.3915z" fill="#d8d8d8"/><g fill="#b4b4b6"><path d="m107.091 80.75c5.138 0 9.27 5.1373 9.27 11.3914v.6701.6701c0-6.3658-4.021-11.6148-9.046-11.6148-5.026 0-9.0465 5.1373-9.0465 11.6148 0 1.2285.1117 2.457.4467 3.5738-.5584-1.4519-.8934-3.1271-.8934-4.8023 0-6.3658 4.1322-11.5031 9.2692-11.5031z"/><path d="m147.184 80.75c5.137 0 9.269 5.1373 9.269 11.3914v.6701.6701c0-6.3658-4.02-11.6148-9.046-11.6148-5.025 0-9.046 5.1373-9.046 11.6148 0 1.2285.112 2.457.447 3.5738-.559-1.4519-.894-3.1271-.894-4.8023 0-6.3658 4.132-11.5031 9.27-11.5031z"/></g></g></svg>