<svg fill="none" height="250" viewBox="0 0 250 250" width="250" xmlns="http://www.w3.org/2000/svg" xmlns:xlink="http://www.w3.org/1999/xlink"><clipPath id="a"><path d="m0 0h250v250h-250z"/></clipPath><clipPath id="b"><path d="m0 0h250v250h-250z"/></clipPath><g clip-path="url(#a)"><g clip-path="url(#b)"><path d="m125 250c69.036 0 125-55.964 125-125 0-69.0356-55.964-125-125-125-69.0356 0-125 55.9644-125 125 0 69.036 55.9644 125 125 125z" fill="#1b5afe"/><g clip-rule="evenodd" fill="#fff" fill-rule="evenodd"><path d="m61.51 64.5996v42.5904c23.52 0 42.59-19.0704 42.59-42.5804z"/><path d="m104.1 192.519v-85.74c0-.36 0-.72.01-1.08s.02-.72.04-1.08.04-.72.07-1.07c.03-.36.06-.71.1-1.06s.08-.71.12-1.06.09-.7.15-1.05c.05-.35.11-.6996.17-1.0396.06-.35.13-.69.2-1.03s.14-.68.22-1.02.16-.68.25-1.01.18-.67.27-1 .19-.66.3-.99c.1-.33.21-.66.32-.98.11-.33.22-.65.34-.97s.24-.64.37-.96.26-.63.39-.95.27-.63.41-.94.29-.62.43-.93c.15-.31.3-.61.46-.92.16-.3.32-.6.48-.9s.33-.6.5-.89.34-.59.52-.88.36-.58.54-.86.37-.57.56-.85.38-.56.58-.83c.2-.28.4-.55.6-.82s.41-.54.62-.8c.21-.27.42-.53.64-.79s.43-.52.66-.77c.22-.25.45-.51.67-.76.23-.25.46-.5.69-.74s.47-.49.71-.72c.24-.24.48-.48.72-.71s.49-.46.74-.69.5-.45.76-.67.51-.44.77-.65c.26-.22.52-.43.79-.64s.53-.42.81-.62c.27-.2.54-.4.82-.6s.55-.39.83-.58.56-.38.85-.56c.28-.18.57-.36.86-.54s.58-.35.88-.52c.29-.17.59-.34.89-.5s.6-.32.9-.48.61-.31.92-.46.62-.29.93-.43.62-.28.94-.41.63-.26.95-.39.64-.25.96-.37.65-.23.97-.34.65-.22.98-.32l.99-.3c.33-.1.67-.19 1-.27.34-.09.67-.17 1.01-.25s.68-.15 1.02-.22.69-.14 1.03-.2.69-.12 1.04-.17l1.05-.15c.35-.05.7-.09 1.06-.12.35-.04.71-.07 1.06-.1.36-.03.71-.05 1.07-.07s.72-.03 1.08-.04.72-.01 1.08-.01h42.21v42.1796h-42.21v85.74z"/></g></g></g></svg>