<svg fill="none" height="250" viewBox="0 0 250 250" width="250" xmlns="http://www.w3.org/2000/svg" xmlns:xlink="http://www.w3.org/1999/xlink"><clipPath id="a"><path d="m0 0h250v250h-250z"/></clipPath><g clip-path="url(#a)"><path d="m125 250c69.036 0 125-55.964 125-125 0-69.0356-55.964-125-125-125-69.0356 0-125 55.9644-125 125 0 69.036 55.9644 125 125 125z" fill="#5b6dee"/><path d="m103.909 117.349c-4.3586-.025-8.7101.35-13.0003 1.119 3.5313-32.6604 30.7503-57.3904 63.1553-57.3879 19.841 0 33.436 9.715 33.436 29.83 0 20.1149-16.317 29.8299-40.125 29.8299-17.572-.001-25.891-3.391-43.466-3.391zm-1.284 11.912c-23.8063 0-40.125 9.715-40.125 29.83s13.595 29.83 33.4363 29.83c32.4087 0 59.6247-24.727 63.1547-57.387-4.29.769-8.641 1.143-13 1.119-17.575-.002-25.894-3.392-43.466-3.392z" fill="#fff"/></g></svg>