<svg fill="none" height="250" viewBox="0 0 250 250" width="250" xmlns="http://www.w3.org/2000/svg" xmlns:xlink="http://www.w3.org/1999/xlink"><clipPath id="a"><path d="m0 0h250v250h-250z"/></clipPath><g clip-path="url(#a)"><path d="m147.995 76.8946c0-35.872-17.293-66.7771-30.538-76.89479744 0 0-.919-.55187656-.919.91979444-1.104 69.352503-36.2403 88.300203-55.7399 113.502403-44.702 58.499-3.1273 122.517 39.1832 134.29 23.7307 6.623-5.5188-11.773-9.1979-50.405-4.4151-46.909 57.2116-82.597 57.2116-121.4124z" fill="#282e5b"/><path d="m171.174 100.622c-.184-.184-.552-.184-.92 0 0 0 0 0-.184.184-.736 8.646-10.302 27.41-22.259 44.518-40.655 58.131-17.476 86.093-4.415 101.178 7.542 8.83 0 0 18.948-9.014 1.471-.736 36.791-19.5 40.655-61.994 3.863-41.391-22.443-67.329-31.825-74.872z" fill="#059bdc"/></g></svg>