<svg fill="none" height="250" viewBox="0 0 250 250" width="250" xmlns="http://www.w3.org/2000/svg" xmlns:xlink="http://www.w3.org/1999/xlink"><linearGradient id="a" gradientUnits="userSpaceOnUse" x1="215.402" x2="34.9823" y1="48.9333" y2="200.738"><stop offset="0" stop-color="#b6509e"/><stop offset="1" stop-color="#2ebac6"/></linearGradient><path d="m125 246.25c66.965 0 121.25-54.285 121.25-121.25 0-66.9645-54.285-121.25-121.25-121.25-66.9645 0-121.25 54.2855-121.25 121.25 0 66.965 54.2855 121.25 121.25 121.25z" fill="url(#a)"/><path d="m178.062 173.313-41-99.1255c-2.312-5.125-5.749-7.625-10.281-7.625h-3.625c-4.531 0-7.968 2.5-10.281 7.625l-17.8437 43.1875h-13.5001c-4.0312.031-7.3125 3.281-7.3437 7.344v.094c.0312 4.031 3.3125 7.312 7.3437 7.343h7.2501l-17.0313 41.157c-.3125.906-.5 1.843-.5 2.812 0 2.313.7187 4.125 2 5.531 1.2812 1.407 3.125 2.094 5.4375 2.094 1.5313-.031 3-.5 4.2187-1.406 1.3125-.906 2.2188-2.219 2.9376-3.719l18.7502-46.5h13c4.031-.031 7.312-3.281 7.343-7.344v-.187c-.031-4.031-3.312-7.313-7.343-7.344h-6.938l14.313-35.6562 39 97.0002c.719 1.5 1.625 2.812 2.937 3.719 1.219.906 2.719 1.375 4.219 1.406 2.312 0 4.125-.688 5.437-2.094 1.313-1.406 2.001-3.219 2.001-5.531.031-.938-.125-1.906-.501-2.781z" fill="#fff"/></svg>