<svg fill="none" height="250" viewBox="0 0 250 250" width="250" xmlns="http://www.w3.org/2000/svg" xmlns:xlink="http://www.w3.org/1999/xlink"><clipPath id="a"><path d="m0 0h250v250h-250z"/></clipPath><g clip-path="url(#a)"><path d="m125 0c-68.933 0-125 56.067-125 125s56.067 125 125 125 125-56.067 125-125-56.067-125-125-125zm0 229.37c-57.5643 0-104.37-46.806-104.37-104.37 0-57.5643 46.8057-104.37 104.37-104.37 57.564 0 104.37 46.8057 104.37 104.37 0 57.564-46.806 104.37-104.37 104.37z" fill="#231f20"/><path d="m125.001 223.492c54.395 0 98.492-44.096 98.492-98.492 0-54.395-44.097-98.4912-98.492-98.4912-54.3953 0-98.4915 44.0962-98.4915 98.4912 0 54.396 44.0962 98.492 98.4915 98.492z" fill="#f4b728"/><path d="m80.4087 163.875v19.078h34.1063v20.907h20.962v-20.907h34.106v-25.233h-52.905l52.905-71.7617v-19.0772h-34.106v-20.8518h-20.962v20.8518h-34.1063v25.2884h52.9063z" fill="#231f20"/></g></svg>