<svg width="250" height="250" viewBox="0 0 250 250" fill="none" xmlns="http://www.w3.org/2000/svg">
<g clip-path="url(#clip0_48_12964)">
<path d="M125 250C194.036 250 250 194.036 250 125C250 55.9644 194.036 0 125 0C55.9644 0 0 55.9644 0 125C0 194.036 55.9644 250 125 250Z" fill="white"/>
<path fill-rule="evenodd" clip-rule="evenodd" d="M105.469 125L146.094 166.406L171.875 140.625C176.562 135.938 183.594 135.938 187.5 140.625C192.188 145.313 192.188 153.125 187.5 157.813L153.906 192.188C149.219 196.875 142.188 196.875 137.5 192.188L89.0625 142.188V171.875C89.0625 178.125 83.5938 183.594 77.3438 183.594C71.0938 183.594 65.625 178.125 65.625 171.875V78.125C65.625 71.875 71.0938 66.4062 77.3438 66.4062C83.5938 66.4062 89.0625 71.875 89.0625 78.125V107.813L137.5 57.8125C142.188 53.125 149.219 53.125 153.906 57.8125L187.5 92.1875C192.188 96.875 192.188 104.688 187.5 109.375C182.812 114.062 175.781 114.062 171.875 109.375L146.094 82.8125L105.469 125ZM146.094 113.281C152.344 113.281 157.813 118.75 157.813 125C157.813 131.25 152.344 136.719 146.094 136.719C139.844 136.719 134.375 131.25 134.375 125C134.375 118.75 139.844 113.281 146.094 113.281Z" fill="#23AF91"/>
</g>
<defs>
<clipPath id="clip0_48_12964">
<rect width="250" height="250" fill="white"/>
</clipPath>
</defs>
</svg>
