<svg fill="none" height="250" viewBox="0 0 250 250" width="250" xmlns="http://www.w3.org/2000/svg" xmlns:xlink="http://www.w3.org/1999/xlink"><clipPath id="a"><path d="m0 0h250v250h-250z"/></clipPath><g clip-path="url(#a)" clip-rule="evenodd" fill-rule="evenodd"><path d="m249.608 66.2845-.63-8.6951-2.314 6.8716-14.025 12.3411-16.091 2.2128-4.384-4.1056 13.463-19.1434 17.881-5.5393-19.003 1.192-22.583 15.9876-20.891-1.5425-29.873-15.6371-17.085 3.7013-55.0719 45.5062-25.8079 8.9279-11.1263 11.326h-19.1926l-10.1024 18.33-12.6962164 2.918 12.6962164 2.916 11.6045-16.109 17.6905 3.663v17.285l-8.3711 23.037-5.4897 23.756-5.6956 9.132 14.3147-2.975-1.6931-9.749 12.7438-25.534 22.4027-8.483 9.2872-15.035 15.1869-11.39 30.7333 5.49 29.185-13.787-4.235 20.595-13.612 1.2-3.723 17.895 11.93-8.207 18.856-8.526 15.132-22.957.721-11.431 8.021 8.135 23.702 14.774 14.094-6.219-1.613-31.3443-3.307-11.3272-8.122 2.4918 24.682-7.573z" fill="#4b5897"/><path d="m12.7719 138.02v5.834l-12.6962164-2.917z" fill="#313a62"/><path d="m22.8745 119.688 1.502 8.054-11.6045 16.11v-5.835z" fill="#4b5897"/><path d="m42.0668 131.405-19.1925-11.717 1.502 8.054z" fill="#3f4b80"/><path d="m42.0668 119.688v11.717l-19.1925-11.717z" fill="#313a62"/><path d="m42.0669 148.69v-29.002l16.9746 25.462z" fill="#3f4b80"/><path d="m33.6958 171.729 25.3458-26.577-16.9747 3.541z" fill="#313a62"/><path d="m28.2061 195.483 6.9259-3.592-1.4363-20.164z" fill="#1f243e"/><path d="m22.5105 204.615 12.6216-12.724-6.9259 3.592z" fill="#313a62"/><path d="m36.8252 201.64-1.6931-9.749-12.6216 12.724z" fill="#3f4b80"/><path d="m47.8764 166.359-12.7443 25.535-1.4363-20.165z" fill="#3f4b80"/><path d="m70.2786 157.877-11.237-12.725-25.3458 26.577z" fill="#4b5897"/><path d="m79.5658 142.84-9.2872 15.035-11.2371-12.725z" fill="#313a62"/><path d="m53.1932 108.363 5.8483 36.789-16.9746-25.462z" fill="#3f4b80"/><path d="m79.0011 99.4336-19.9596 45.7164-5.8484-36.789z" fill="#4b5897"/><path d="m79.5658 142.84-20.5243 2.31 19.9596-45.7164z" fill="#3f4b80"/><path d="m94.7528 131.45-15.1869 11.39-.5647-43.4064z" fill="#313a62"/><path d="m125.486 136.942-30.7333-5.49 30.7333-4.694z" fill="#3f4b80"/><path d="m79.0012 99.4336 46.4848 27.3224-30.7332 4.694z" fill="#4b5897"/><path d="m130.105 92.25-4.722 34.661-46.4843-27.3215z" fill="#3f4b80"/><path d="m134.073 53.9297-3.865 38.1672-51.2068 7.339z" fill="#4b5897"/><path d="m154.671 123.152-29.185 13.788-.103-10.031z" fill="#313a62"/><path d="m179.74 111.723-25.069 11.43-29.288 3.757z" fill="#3f4b80"/><path d="m179.019 123.153.721-11.43-25.069 11.43z" fill="#5161a4"/><path d="m163.887 146.109-9.216-22.957h24.348z" fill="#4b5897"/><path d="m150.436 143.748 13.451 2.361-9.215-22.957z" fill="#3f4b80"/><path d="m145.031 154.638 5.405-10.888 13.451 2.361z" fill="#4b5897"/><path d="m133.101 162.844 17.335-19.094-5.405 10.888z" fill="#313a62"/><path d="m136.824 144.95-3.723 17.894 17.335-19.094z" fill="#3f4b80"/><path d="m179.74 111.721-49.532-19.6272-4.825 34.8142z" fill="#4b5897"/><path d="m134.073 53.9297-3.865 38.1672 49.532 19.6271z" fill="#5161a4"/><path d="m151.158 50.2266-17.085 3.7013 45.667 57.7941z" fill="#4b5897"/><path d="m184.466 90.5464-4.726 21.1756-28.582-61.4954z" fill="#3f4b80"/><path d="m181.031 65.8637 3.435 24.6828-33.308-40.3199z" fill="#313a62"/><path d="m187.761 119.857-3.295-29.3101-4.726 21.1761z" fill="#313a62"/><path d="m212.514 88.2318-28.048 2.3142-3.435-24.6827z" fill="#4b5897"/><path d="m187.762 119.855 24.753-31.6245-28.049 2.3142z" fill="#3f4b80"/><path d="m211.463 134.629 1.052-46.3985-24.754 31.6245z" fill="#495692"/><path d="m212.164 74.9088-9.865 6.0652-21.268-15.1107z" fill="#3f4b80"/><path d="m201.922 67.4057 10.242 7.5031-31.133-9.0455z" fill="#313a62"/><path d="m225.627 55.7656-13.463 19.1434-10.242-7.5031z" fill="#3f4b80"/><path d="m224.505 51.418 1.122 4.3473-23.705 11.6402z" fill="#495692"/><path d="m243.508 50.2266-17.881 5.5393-1.122-4.3473z" fill="#5d6cac"/><path d="m216.581 79.0473-4.417-4.1371-9.865 6.0652z" fill="#313a62"/><path d="m237.197 80.6602-24.682 7.5729-10.216-7.2577z" fill="#4f60a3"/><path d="m232.639 76.8008 4.558 4.6222-34.898.3778z" fill="#495692"/><path d="m246.664 64.4609-9.467 16.1983-4.558-3.8572z" fill="#3f4b80"/><path d="m249.608 66.2844-2.944-1.8235-9.467 16.1983z" fill="#4f60a3"/><path d="m250.593 57.5898-3.929 6.8717 5 1.8235z" fill="#313a62"/><path d="m223.944 97.0693-11.429-8.8354 8.122-2.4917z" fill="#313a62"/><path d="m211.463 134.629 12.481-37.5631-11.429-8.8354z" fill="#3f4b80"/><path d="m225.557 128.411-14.094 6.219 12.481-37.5636z" fill="#313a62"/></g></svg>