<svg fill="none" height="242" viewBox="0 0 250 242" width="250" xmlns="http://www.w3.org/2000/svg"><rect fill="#fff" height="241.935" rx="120.968" width="250"/><path clip-rule="evenodd" d="m130.918 211h-6.418c-49.9816 0-90.5-40.518-90.5-90.5 0-49.9818 40.5184-90.5 90.5-90.5 49.982 0 90.5 40.5182 90.5 90.5 0 4.476-.325 8.878-.954 13.184h-12.668c.729-4.282 1.109-8.687 1.109-13.184 0-43.0706-34.916-77.9864-77.987-77.9864-43.0708 0-77.9864 34.9158-77.9864 77.9864 0 43.071 34.9156 77.986 77.9864 77.986h46.383c-11.844 7.061-25.433 11.498-39.965 12.514zm57.303-25.921h-63.721c-35.666 0-64.579-28.913-64.579-64.579 0-35.6658 28.913-64.579 64.579-64.579s64.579 28.9132 64.579 64.579c0 4.514-.464 8.925-1.348 13.184h-12.848c1.098-4.206 1.682-8.623 1.682-13.184 0-28.755-23.31-52.0655-52.065-52.0655-28.7548 0-52.0654 23.3105-52.0654 52.0655s23.3106 52.065 52.0654 52.065h74.306c-3.15 4.487-6.695 8.675-10.585 12.514zm-63.721-25.921h82.099c1.895-4.018 3.504-8.198 4.801-12.513h-86.9c-14.439 0-26.1443-11.706-26.1443-26.145s11.7053-26.1444 26.1443-26.1444 26.144 11.7054 26.144 26.1444c0 4.816-1.296 9.316-3.561 13.184h13.767c1.493-4.117 2.308-8.558 2.308-13.184 0-21.3502-17.308-38.658-38.658-38.658s-38.6582 17.3078-38.6582 38.658c0 21.35 17.3082 38.658 38.6582 38.658z" fill="#000" fill-opacity=".87" fill-rule="evenodd"/></svg>