<svg fill="none" height="250" viewBox="0 0 250 250" width="250" xmlns="http://www.w3.org/2000/svg" xmlns:xlink="http://www.w3.org/1999/xlink"><linearGradient id="a" gradientUnits="userSpaceOnUse" x1="0" x2="250" y1="125" y2="125"><stop offset="0" stop-color="#001c3a"/><stop offset=".6" stop-color="#001e3d"/><stop offset=".7" stop-color="#001f3f"/><stop offset="1" stop-color="#002042"/></linearGradient><clipPath id="b"><path d="m0 0h250v250h-250z"/></clipPath><g clip-path="url(#b)"><path d="m125 250c69.036 0 125-55.964 125-125 0-69.0356-55.964-125-125-125-69.0356 0-125 55.9644-125 125 0 69.036 55.9644 125 125 125z" fill="url(#a)"/><path d="m70.3125 72.6562 13.2813-7.0312 1.5624 3.125 48.4378-28.125-3.125-2.3437-3.906-2.3438-1.563-.7813-79.6875 46.0938v1.5625l22.6563-12.5zm0 29.6878 38.2815-22.6565 1.562 3.125 49.219-28.125-3.906-2.3438-3.906-1.5625-1.563-.7812-104.6875 60.156v1.563l22.6563-12.5002zm0 14.062 50.7815-28.906 1.562 2.3438 49.219-28.125-3.906-1.5626-3.906-2.3437-1.563-.7812-117.1875 67.1877v2.344l22.6563-13.282zm0 14.063 63.2815-35.9377 1.562 2.3437 49.219-27.3438-3.906-2.3437-3.906-2.3437-1.563-.7813-129.6875 74.9995v1.563l22.6563-12.5zm0 14.843 75.7815-43.75 1.562 3.126 49.219-28.1255-3.906-2.3437-3.125-1.5626-2.344-1.5624-142.1875 82.0312v2.344l22.6563-13.281zm131.2505-65.6245-1.563-1.5625-154.6875 89.844v1.562l22.6563-12.5 2.3437 3.125 75.7815-44.531 1.562 3.125 57.032-32.0312v-5.4688zm-146.0943 99.2185 12.5001-7.812 1.5624 3.125 76.5628-43.75 1.562 3.125 57.032-32.813v-10.156l-151.563 86.719zm90.6253-33.594 1.562 3.126 57.032-33.594v-10.156l-139.063 80.468 2.3438.782 12.5-7.813 2.3437 3.125zm-65.6252 47.657 13.2812-7.031 1.5625 3.124 50.7815-29.687 1.562 3.125 57.032-32.812v-10.157l-126.563 72.657zm12.5 7.031 13.2812-7.031 1.563 3.125 38.281-21.875 1.562 3.125 57.032-32.813v-10.937l-114.063 65.625zm10.1562 6.25 2.344 1.562 13.281-7.812 1.563 3.125 25.781-14.844 1.562 3.125 57.032-32.812v-10.156zm14.844 8.594 12.5-7.813 2.344 3.125 13.281-7.031 1.562 3.125 57.032-32.812v-10.938l-88.282 51.562zm28.906-167.1878-3.906-2.3437-3.906-1.5625-1.563-1.5625-92.1875 53.125v2.3437l22.6563-13.2812 2.3437 3.125 25.7813-14.8438 1.5625 3.125z" fill="#fff"/></g></svg>