<svg fill="none" height="250" viewBox="0 0 250 250" width="250" xmlns="http://www.w3.org/2000/svg" xmlns:xlink="http://www.w3.org/1999/xlink"><clipPath id="a"><path d="m0 0h250v250h-250z"/></clipPath><g clip-path="url(#a)"><path d="m125 250c69.036 0 125-55.964 125-125 0-69.0356-55.964-125-125-125-69.0356 0-125 55.9644-125 125 0 69.036 55.9644 125 125 125z" fill="#2a5ada"/><path d="m124.386 27.0356-17.766 10.2158-48.4142 27.9824-17.7666 10.2158v96.8274l17.7666 10.216 48.8582 27.983 17.766 10.215 17.767-10.215 47.97-27.983 17.766-10.216v-96.8274l-17.766-10.2158-48.414-27.9824zm-48.4136 124.8104v-55.9649l48.4136-27.9823 48.414 27.9823v55.9649l-48.414 27.982z" fill="#fff"/></g></svg>