<svg fill="none" height="250" viewBox="0 0 250 250" width="250" xmlns="http://www.w3.org/2000/svg" xmlns:xlink="http://www.w3.org/1999/xlink"><clipPath id="a"><path d="m0 0h250v250h-250z"/></clipPath><clipPath id="b"><path d="m0 0h250v250h-250z"/></clipPath><g clip-path="url(#a)"><g clip-path="url(#b)" clip-rule="evenodd" fill-rule="evenodd"><path d="m125.053.679016c-68.5396 0-124.101828 55.686584-124.101828 124.377984 0 68.693 55.562228 124.378 124.101828 124.378 68.539 0 124.102-55.685 124.102-124.378 0-68.6914-55.563-124.377984-124.102-124.377984z" fill="#ed1c24"/><path d="m125.327 8.15326c64.462 0 116.904 52.44414 116.904 116.90374 0 64.462-52.442 116.906-116.904 116.906-64.4614 0-116.90415-52.444-116.90415-116.906 0-64.4596 52.44275-116.90374 116.90415-116.90374z" fill="#fff"/><g fill="#ed1c24"><path d="m125.821 50.0997c.418.9987.706 2.0783 1.273 2.9826 27.519 43.8507 55.061 87.6867 82.6 131.5257.635 1.011 1.242 2.042 1.446 3.429-28.469-29.406-56.935-58.812-85.592-88.4137-28.6296 29.5647-57.1047 58.9687-85.5798 88.3737-.148-.093-.296-.184-.4428-.277.5236-.877 1.0286-1.766 1.5721-2.632 27.5286-43.843 55.0635-87.6837 82.5735-131.5393.668-1.0635 1.065-2.296 1.589-3.449z"/><path d="m164.486 161.016h-77.923c4.8035-4.971 9.2288-9.607 13.751-14.149.49-.491 1.538-.597 2.326-.598 15.238-.033 30.475-.036 45.712.008.864.002 1.992.196 2.546.751 4.469 4.476 8.829 9.06 13.588 13.988z"/><path d="m110.809 134.998c5.087-4.536 10.176-9.072 14.563-12.982 4.547 4.041 9.683 8.603 14.817 13.165-.16.227-.321.452-.482.677h-28.293c-.202-.286-.403-.574-.605-.86z"/></g></g></g></svg>