<svg fill="none" height="250" viewBox="0 0 250 250" width="250" xmlns="http://www.w3.org/2000/svg" xmlns:xlink="http://www.w3.org/1999/xlink"><linearGradient id="a" gradientUnits="userSpaceOnUse" x1="213.387" x2="36.6125" y1="36.6125" y2="213.387"><stop offset="0" stop-color="#ff2d55"/><stop offset="1" stop-color="#ffbc5b"/></linearGradient><linearGradient id="b"><stop offset="0" stop-color="#a524b3"/><stop offset="1" stop-color="#ff2d55"/></linearGradient><linearGradient id="c" gradientUnits="userSpaceOnUse" x1="127.598" x2="127.598" xlink:href="#b" y1="81.25" y2="175"/><linearGradient id="d" gradientUnits="userSpaceOnUse" x1="196.324" x2="196.324" xlink:href="#b" y1="131.25" y2="200"/><clipPath id="e"><path d="m0 0h250v250h-250z"/></clipPath><g clip-path="url(#e)"><path d="m125 250c69.036 0 125-55.964 125-125 0-69.0356-55.964-125-125-125-69.0356 0-125 55.9644-125 125 0 69.036 55.9644 125 125 125z" fill="url(#a)"/><g clip-rule="evenodd" fill-rule="evenodd"><path d="m88.5623 81.25v93.75h78.1247z" fill="url(#c)"/><path d="m10.4375 175h78.125v-93.75z" fill="#fff"/><path d="m25 200c7.125 9.437 15.5625 17.875 25 25h150c9.437-7.125 17.875-15.563 25-25z" fill="#fc9965"/><path d="m50 225c20.875 15.688 46.875 25 75 25s54.125-9.312 75-25z" fill="#ff2d55"/><path d="m167.688 131.25v68.75h57.312z" fill="url(#d)"/><path d="m167.688 175h-157.2505c3.875 8.938 8.8125 17.313 14.5625 25h142.75v-25z" fill="#ffbc5b"/><path d="m110.437 200h57.25v-68.75z" fill="#fff"/></g><g fill="#ffc95b"><path d="m167.688 112.5c17.259 0 31.25-13.9911 31.25-31.25s-13.991-31.25-31.25-31.25-31.25 13.9911-31.25 31.25 13.991 31.25 31.25 31.25z"/><path d="m88.5623 62.5c8.6295 0 15.6247-6.9956 15.6247-15.625s-6.9952-15.625-15.6247-15.625-15.625 6.9956-15.625 15.625 6.9955 15.625 15.625 15.625z"/></g></g></svg>