<svg fill="none" height="24" width="24" xmlns="http://www.w3.org/2000/svg"><rect fill="#ff564f" height="24" rx="12" width="24"/><g fill="#fff"><path d="m17.667 18.999h-2.54l-5.354-7 5.354-6.999h2.54l-5.278 6.999z"/><path d="m17.67 18.999h-2.54l-5.355-7 5.354-6.999h2.54l-5.279 6.999z"/><path d="m17.67 18.999h-2.54l-5.355-7 5.354-6.999h2.54l-5.279 6.999z"/><path d="m17.67 18.999h-2.54l-5.355-7 5.354-6.999h2.54l-5.279 6.999zm-10.67-13.999h2.036v13.999h-2.036z"/><path d="m17.67 18.999h-2.54l-5.355-7 5.355-6.999h2.54l-5.279 6.999z"/></g></svg>