<svg fill="none" height="250" viewBox="0 0 250 250" width="250" xmlns="http://www.w3.org/2000/svg"><path d="m247.4 124.801c0 33.9-13.8 64.6-36.05 86.8-22.15 22.05-52.7 35.7-86.45 35.7-33.7499 0-64.2999-13.65-86.4499-35.7-22.3-22.2-36.1-52.9-36.1-86.8 0-67.6502 54.85-122.50018 122.4999-122.50018 67.7-.05 122.55 54.79998 122.55 122.50018z" fill="#ff6766"/><path d="m247.4 124.8c0 67.65-54.85 122.5-122.5 122.5-33.8001 0-64.3501-13.65-86.5001-35.75l173.2001-173.3c22.1 22.15 35.8 52.75 35.8 86.55z" fill="#d95e59"/><path d="m211.35 211.598c-22.15 22.05-52.7 35.7-86.45 35.7-33.7501 0-64.3-13.65-86.45-35.7 22.15-22.05 52.6999-35.7 86.45-35.7 33.75 0 64.25 13.6 86.45 35.7z" fill="#fef4c8"/><path d="m125 75.1531c8.477 0 15.35-6.8724 15.35-15.35 0-8.4775-6.873-15.35-15.35-15.35-8.478 0-15.35 6.8725-15.35 15.35 0 8.4776 6.872 15.35 15.35 15.35z" fill="#016273"/><path d="m125 44.5016c8.45 0 15.35 6.85 15.35 15.35s-6.85 15.35-15.35 15.35-15.35-6.85-15.35-15.35 6.85-15.35 15.35-15.35zm0-15.4c-16.95 0-30.75 13.8-30.75 30.75s13.8 30.75 30.75 30.75 30.75-13.8 30.75-30.75-13.8-30.75-30.75-30.75z" fill="#fff"/></svg>