<svg fill="none" height="250" viewBox="0 0 250 250" width="250" xmlns="http://www.w3.org/2000/svg" xmlns:xlink="http://www.w3.org/1999/xlink"><clipPath id="a"><path d="m0 0h250v250h-250z"/></clipPath><g clip-path="url(#a)"><path d="m125 0c69.042 0 125 55.9693 125 125 0 69.042-55.958 125-125 125-69.0307 0-125-55.964-125-125 0-69.0307 55.9693-125 125-125z" fill="#f5ac37"/><path d="m129.604 133.827h47.498c1.012 0 1.49 0 1.564-1.328.388-4.832.388-9.692 0-14.529 0-.94-.467-1.328-1.485-1.328h-94.5295c-1.17 0-1.485.388-1.485 1.485v13.905c0 1.795 0 1.795 1.8731 1.795zm43.757-33.436c.135-.354.135-.7421 0-1.0909-.793-1.7268-1.732-3.375-2.824-4.9219-1.642-2.6438-3.577-5.0794-5.782-7.2675-1.041-1.3219-2.245-2.5088-3.595-3.5157-6.761-5.7544-14.799-9.827-23.439-11.8745-4.36-.9788-8.815-1.4456-13.281-1.4063h-41.9516c-1.17 0-1.3275.4669-1.3275 1.485v27.7316c0 1.1702 0 1.4852 1.485 1.4852h90.1531s.782-.158.939-.625h-.382zm0 49.687c-1.327-.147-2.666-.147-3.994 0h-86.6367c-1.1701 0-1.5638 0-1.5638 1.563v27.113c0 1.249 0 1.564 1.5638 1.564h39.9997c1.913.146 3.825.011 5.698-.388 5.805-.417 11.515-1.677 16.96-3.752 1.98-.686 3.892-1.581 5.698-2.655h.546c9.377-4.877 16.993-12.538 21.797-21.944 0 0 .545-1.181-.068-1.49zm-107.894 44.297v-.467-18.203-6.17-18.361c0-1.018 0-1.17-1.2488-1.17h-16.9539c-.9394 0-1.3275 0-1.3275-1.248v-14.845h18.1239c1.0125 0 1.4063 0 1.4063-1.327v-14.687c0-.94 0-1.17-1.2488-1.17h-16.9539c-.9394 0-1.3275 0-1.3275-1.249v-13.748c0-.86 0-1.091 1.2487-1.091h16.7964c1.1701 0 1.4851 0 1.4851-1.4851v-42.1092c0-1.2487 0-1.5637 1.5637-1.5637h58.5903c4.253.1687 8.477.6356 12.657 1.4062 8.612 1.5919 16.886 4.6688 24.452 9.062 5.017 2.9531 9.636 6.5194 13.747 10.6257 3.094 3.2119 5.884 6.6882 8.359 10.3895 2.458 3.7519 4.5 7.7626 6.103 11.9532.197 1.0914 1.244 1.8284 2.335 1.6424h13.984c1.794 0 1.794 0 1.873 1.721v12.814c0 1.249-.467 1.564-1.721 1.564h-10.784c-1.091 0-1.406 0-1.327 1.406.427 4.759.427 9.535 0 14.294 0 1.327 0 1.485 1.491 1.485h12.335c.546.703 0 1.406 0 2.115.079.905.079 1.822 0 2.728v9.456c0 1.327-.388 1.721-1.563 1.721h-14.766c-1.03-.197-2.031.461-2.267 1.485-3.516 9.141-9.141 17.336-16.408 23.906-2.655 2.391-5.446 4.641-8.359 6.717-3.128 1.8-6.171 3.673-9.377 5.158-5.901 2.655-12.088 4.612-18.439 5.855-6.03 1.08-12.145 1.57-18.282 1.485h-54.2195v-.078z" fill="#fefefd"/></g></svg>