<svg fill="none" height="250" viewBox="0 0 250 250" width="250" xmlns="http://www.w3.org/2000/svg" xmlns:xlink="http://www.w3.org/1999/xlink"><clipPath id="a"><path d="m0 0h250v250h-250z"/></clipPath><clipPath id="b"><path d="m0 0h250v250h-250z"/></clipPath><g clip-path="url(#a)"><g clip-path="url(#b)"><path d="m125 250c69.036 0 125-55.964 125-125 0-69.0356-55.964-125-125-125-69.0356 0-125 55.9644-125 125 0 69.036 55.9644 125 125 125z" fill="#ffd800"/><path clip-rule="evenodd" d="m185.023 100.672c.446-.445 1.329-.445 2.196-.445 13.179 0 23.719 11.156 23.719 24.554 0 12.5-9.219 22.321-21.079 24.547h-2.64c-4.391 0-8.782-1.336-12.735-3.57-1.283-.904-2.822-1.372-4.39-1.336-1.758 0-3.516.445-4.828 1.336-3.079 1.789-4.391 4.914-4.391 8.484v4.016c-.463 5.515-2.813 10.702-6.654 14.686-3.841 3.985-8.938 6.524-14.432 7.189h-2.633c-4.39 0-8.781-1.336-12.734-3.57-1.758-.891-3.07-1.336-4.828-1.336s-3.516.445-4.836 1.336c-3.07 1.789-4.391 4.914-4.391 8.484v4.016c-.875 11.609-10.101 20.539-21.5154 21.875h-2.1953c-13.1797 0-23.7188-11.165-23.7188-24.555.4375-12.5 9.2187-22.766 21.0781-24.11h2.6407c4.3906 0 8.7812 1.344 12.7343 3.579 1.2834.903 2.8214 1.371 4.3904 1.335 1.758 0 3.516-.445 4.828-1.335 3.079-1.789 4.391-4.915 4.391-8.485-.875-12.945 8.352-24.554 21.086-25.89h2.633c4.39 0 8.781 1.335 12.734 3.57 1.758.89 3.078 1.336 4.836 1.336 1.75 0 3.516-.446 4.828-1.336 3.071-1.789 4.391-4.914 4.391-8.484-.875-12.946 8.781-24.555 21.515-25.891zm-50.492-30.8048c.875-.4453 1.321-.4453 2.633-.4453 13.18 0 23.719 11.1562 23.719 24.5547-.438 12.5004-9.219 22.7654-21.086 24.1014h-2.633c-4.391 0-8.781-1.336-12.734-3.57-1.283-.904-2.822-1.372-4.391-1.336-1.758 0-3.516.445-4.828 1.336-3.078 1.789-4.398 4.914-4.398 8.484v4.016c-.875 11.601-10.094 20.531-21.5161 21.875h-2.1953c-13.1719 0-23.7188-11.156-23.7188-24.555 0-12.047 8.7891-21.875 20.6406-23.656h2.6407c4.3906 0 8.7812 1.336 12.7343 3.57 1.2826.904 2.8216 1.372 4.3906 1.336 1.758 0 3.516-.445 4.828-1.336 3.078-1.789 4.391-4.9139 4.391-8.4842-.875-12.9453 8.789-24.5547 21.523-25.8906zm-48.3122-30.8047c13.0937 0 23.7112 10.7969 23.7112 24.1094s-10.6253 24.1015-23.7112 24.1015c-13.1016 0-23.7188-10.789-23.7188-24.1015s10.625-24.1094 23.7188-24.1094z" fill="#fff" fill-rule="evenodd"/></g></g></svg>