<svg fill="none" height="250" viewBox="0 0 250 250" width="250" xmlns="http://www.w3.org/2000/svg"><path d="m124.831 247.377c-68.1414-.415-123.23593-55.822-122.72593-123.422.5155-68.383 55.90203-122.95751 124.27493-122.45151 67.275.4975 122.026 56.11501 121.619 123.54451-.409 67.69-55.835 122.739-123.168 122.329zm46.707-109.941c0 6.698-.013 13.396.005 20.094.013 5.127 2.939 8.66 7.18 8.726 4.098.063 7.275-3.671 7.292-8.66.026-7.625.084-15.251-.015-22.875-.095-7.301.169-14.664-.683-21.886-1.824-15.4555-16.346-28.105-31.935-28.298-10.112-.1255-18.674 3.692-25.611 10.999-1.616 1.7015-2.493 1.7405-4.094-.0615-6.198-6.977-14.169-10.6365-23.406-10.905-18.1714-.5275-34.1999 14.0245-34.9499 32.2055-.573 13.888-.136 27.817-.103 41.728.007 2.912 1.5225 5.101 3.884 6.652 2.1525 1.413 4.5815 1.559 6.7425.246 2.5015-1.521 3.851-3.877 3.8425-6.96-.038-13.189-.0515-26.379-.0125-39.569.0335-11.294 8.584-19.8865 19.674-19.865 10.9094.0215 18.9874 8.355 19.0194 19.674.026 9.48 0 18.96-.001 28.44 0 3.812-.078 7.627.029 11.437.122 4.349 3.421 7.803 7.253 7.794 3.782-.009 7.049-3.561 7.189-7.832.031-.927.008-1.855.009-2.782.002-12.572-.084-25.144.034-37.714.101-10.793 8.857-19.069 19.835-19.0025 10.542.064 18.753 8.4385 18.82 19.2475.038 6.389.006 12.778.002 19.167z" fill="#7f61f6"/><path d="m171.54 137.437c.002-6.389.034-12.778-.006-19.166-.067-10.809-8.278-19.1848-18.819-19.2483-10.978-.0665-19.734 8.2093-19.836 19.0023-.118 12.571-.031 25.143-.034 37.714 0 .928.022 1.856-.008 2.782-.14 4.271-3.408 7.823-7.19 7.832-3.832.01-7.131-3.445-7.253-7.793-.107-3.81-.029-7.625-.028-11.438.001-9.48.027-18.96 0-28.44-.031-11.319-8.109-19.6528-19.019-19.6738-11.09-.0215-19.6405 8.5708-19.674 19.8658-.039 13.189-.0255 26.379.0125 39.569.009 3.083-1.3405 5.439-3.8425 6.959-2.1605 1.314-4.59 1.167-6.7425-.246-2.3615-1.55-3.877-3.739-3.884-6.651-.033-13.911-.47-27.841.103-41.728.75-18.1819 16.778-32.7338 34.9495-32.2063 9.237.268 17.209 3.928 23.407 10.905 1.601 1.802 2.478 1.763 4.093.0615 6.938-7.307 15.5-11.1245 25.611-10.999 15.589.1935 30.112 12.843 31.935 28.2978.852 7.223.588 14.585.683 21.886.099 7.624.041 15.251.015 22.876-.017 4.988-3.194 8.723-7.292 8.659-4.24-.066-7.166-3.598-7.18-8.726-.016-6.699-.003-13.397-.001-20.094z" fill="#fff"/></svg>