<svg fill="none" height="250" viewBox="0 0 250 250" width="250" xmlns="http://www.w3.org/2000/svg"><rect fill="#35302d" height="250" rx="125" width="250"/><path d="m128.939 207.998c-2.904.439-5.863.439-8.795.028-13.48-1.974-23.6446-15.354-22.1377-28.816.5205-4.579 2.1367-9.596 5.1237-13.188 2-2.412 4.767-4.907 6.603-7.32 2.438-3.18 2.904-7.375 1.918-11.241-1.727-6.827-9.014-11.46-15.9188-10.09-1.5617.302-3.6165.905-4.8769 1.975-2.1096 1.782-4.4659 4.469-6.6029 6.168-4.0002 3.126-8.8496 4.99-13.8909 5.347-10.2743.85-21.0966-4.743-25.6721-14.148-3.2604-6.717-4.1371-14.421-1.3699-21.495.9316-2.33 2.0549-4.661 3.6166-6.635 5.1782-6.635 12.9593-10.7745 21.4801-10.6375 2.9864 0 5.9728.521 8.7948 1.5354 2.4659.8501 4.7673 2.1111 6.8222 3.7011 2.6576 2.166 4.6851 4.743 7.3153 6.8 4.9043 3.811 12.6855 2.741 17.0965-1.673 3.315-3.29 4.795-8.006 3.945-12.6117-.274-1.5902-.904-3.619-1.972-4.8802-2.11-2.4676-5.343-5.5931-7.124-8.3074-2.767-4.1949-4.1918-9.13-4.137-14.1473.0274-5.5931 1.616-11.0766 4.959-15.6278 5.671-7.6769 14.329-11.7894 23.919-10.9669 2.685.2193 5.315.8773 7.808 1.9192 5.452 2.303 9.973 6.3608 12.905 11.4878 1.561 2.7143 2.603 5.7028 3.068 8.8009.987 6.8269-.465 14.5586-4.904 20.0146-2 2.4675-4.548 4.469-6.439 6.8269-3.287 4.1674-3.644 9.8699-1.041 14.6679 2.85 5.155 8.603 7.979 14.412 7.101 1.233-.192 3.945-1.069 4.877-1.809 2.712-2.139 5.534-5.209 8.301-7.184 4.083-2.906 8.685-4.1121 13.672-4.4411 11.452-.7677 22.795 7.1561 26.275 18.0401 1.89 5.868 1.89 12.283-.466 18.068-.959 2.468-2.274 4.771-3.918 6.827-5.699 7.019-13.37 10.391-22.412 9.953-4.493-.22-10.657-2.221-14.137-5.1-2.575-2.111-5.233-5.456-7.809-7.238-4.959-3.427-12.137-2.66-16.575 1.755-3.206 3.153-4.823 7.347-4.247 11.871.219 1.728.767 3.976 1.89 5.374 2.192 2.714 5.014 5.484 7.096 8.307 3.233 4.36 4.494 9.761 4.521 15.135.055 12.283-9.726 24.127-21.973 25.854z" fill="#fff"/><g fill="#35302d"><path d="m127.978 197.279c6.192-1.371 10.521-6.142 11.891-12.201 1.836-8.116-3.781-16.807-11.891-18.589-6.356-1.398-12.192.823-16.137 5.895-4.11 5.236-3.973 12.529-.603 18.068 2.137 3.509 5.945 6.059 9.918 6.854 2.658.493 4.219.466 6.822-.027zm-.986-4.99c-1.425.356-2.932.383-4.384.164-5.26-.905-9.26-5.922-8.877-11.268.356-4.552 3.507-8.417 7.918-9.651 2.439-.686 5.014-.466 7.316.603 4.246 2.001 6.904 6.827 6.109 11.515-.712 4.058-4.027 7.677-8.082 8.637z"/><path d="m128.439 83.7138c4.082-.7951 7.726-3.1255 10.082-6.5527 1.261-1.7547 2.11-3.7561 2.548-5.8673 1.288-6.8268-1.671-12.7215-7.26-16.5051-4.904-3.3449-12.274-3.0707-17.069.3564-1.726 1.2064-3.178 2.7143-4.356 4.4416-2.302 3.5368-2.987 7.622-2.247 11.7071 1.068 5.977 6.082 11.0766 11.973 12.3104 2.082.4112 4.247.4661 6.329.1096zm-1.452-4.8802c-4.274.6854-8.548-1.6725-10.74-5.3464-2.795-4.6883-1.206-11.4055 3.424-14.3118 3.754-2.3853 8.576-2.2756 12.193.3016 3.315 2.3031 5.15 6.8543 4.246 10.8298-1.013 4.5513-4.52 7.7591-9.123 8.5268z"/><path d="m72.3302 139.703c2.4111-.796 3.8358-1.371 5.8633-3.071 1.4247-1.234 2.6576-2.687 3.6439-4.277 1.1781-1.865 1.6439-3.784 2.0275-5.868.3836-2.083-.0548-4.331-.5206-6.36-1.0411-4.552-4.8494-8.5-9.0688-10.2-5.3974-2.193-11.6442-1.398-16.1101 2.358-3.37 2.824-5.4249 6.882-5.6988 11.269-.4658 6.717 3.6165 12.721 9.5893 15.491 3.2604 1.48 6.9318 1.562 10.2743.658zm-2.9316-4.579c-4.3563.576-9.3701-2.056-10.9866-6.224-1.9453-5.045-.7672-10.693 4.1371-13.571 3.8083-2.303 8.6578-2.057 12.1922.658 3.37 2.495 5.0413 7.43 3.7535 11.46-1.2603 4.113-4.822 7.101-9.0962 7.677z"/><path d="m185.541 140.907c4.246-1.042 7.835-3.811 9.973-7.594 3.013-5.511 2.438-11.982-1.096-17.081-3.398-4.908-9.562-6.964-15.234-6.142-6.384.905-11.808 6.224-12.877 12.503-1.507 9.02 3.918 16.889 12.877 18.588 2.137.357 4.302.275 6.357-.274zm-.959-4.907c-1.288.301-2.603.383-3.891.246-4.603-.493-8.74-4.14-9.48-8.773-.657-4.085 1.096-8.417 4.603-10.748 3.398-2.248 8.247-2.495 11.727-.192 3.397 2.249 5.561 6.279 4.931 10.446-.63 4.277-3.698 7.842-7.89 9.021z"/></g></svg>