<svg fill="none" height="250" viewBox="0 0 250 250" width="250" xmlns="http://www.w3.org/2000/svg" xmlns:xlink="http://www.w3.org/1999/xlink"><clipPath id="a"><path d="m0 0h250v250h-250z"/></clipPath><g clip-path="url(#a)"><circle cx="125" cy="125" fill="#06c" r="125"/><g fill="#fff"><path d="m60.1655 154.789v57.243c8.9564-5.646 27.4533-17.523 29.7897-19.86 2.3365-2.336 2.9206-6.814 2.9206-8.761v-62.5c-7.204 3.894-22.6635 12.967-26.8692 18.107-4.2056 5.14-5.6464 12.656-5.8411 15.771z"/><path d="m186.915 117.991v72.43c-8.956-5.646-27.453-17.523-29.789-19.86-2.337-2.336-2.921-6.814-2.921-8.762v-77.6865c7.204 3.8941 22.664 12.9673 26.869 18.1075 4.206 5.14 5.647 12.656 5.841 15.771z"/><path d="m109.813 36.7989v144.2761c14.603-8.178 25.117-14.019 27.453-16.94 1.753-2.19 1.753-9.249 1.753-12.266v-135.514c-7.01 4.0888-20.444 11.5474-23.949 13.4346-3.505 1.8871-5.083 2.1824-5.257 7.0093z"/></g></g></svg>