<svg fill="none" height="250" viewBox="0 0 250 250" width="250" xmlns="http://www.w3.org/2000/svg"><rect fill="#fff" height="250" rx="125" width="250"/><path d="m51.7782 115.911 48.9978-80.911 24.762 41.0592-25.113 40.8578h-48.1199c-.1756 0-.1756 0-.3512-.201-.1757 0-.1757-.201-.1757-.201 0-.202 0-.202 0-.403-.1756 0 0 0 0-.201z" fill="#7455f3"/><path d="m199.121 115.911-48.997-80.911-24.587 41.0592 24.938 41.0588h48.119c.176 0 .176 0 .352-.201.175 0 .175-.201.175-.201 0-.201 0-.201 0-.403.176-.201 0-.201 0-.402z" fill="#7455f3"/><path d="m200.001 127.584c.175 11.272-1.757 22.543-5.445 33.009s-9.132 20.127-16.156 28.178c-7.025 8.05-15.279 14.491-24.236 18.718-8.956 4.226-18.791 6.642-28.801 6.642-9.835 0-19.669-2.214-28.8016-6.642-9.1321-4.428-17.3862-10.668-24.2353-18.718-6.8491-8.051-12.4689-17.511-16.1569-28.178-3.5124-10.466-5.4442-21.737-5.2685-33.009h47.4169c0 4.227.5269 8.253 1.9314 12.077 1.405 3.824 3.337 7.447 5.796 10.264 2.458 3.02 5.62 5.233 8.956 6.844 3.337 1.61 6.849 2.415 10.537 2.415s7.201-.805 10.538-2.415c3.336-1.611 6.322-4.026 8.956-6.844 2.459-3.019 4.566-6.44 5.796-10.264 1.404-3.824 1.931-8.051 1.931-12.077z" fill="#006af6"/></svg>