<svg fill="none" height="250" viewBox="0 0 250 250" width="250" xmlns="http://www.w3.org/2000/svg" xmlns:xlink="http://www.w3.org/1999/xlink"><radialGradient id="a" cx="0" cy="0" gradientTransform="matrix(0 263.013 -184.662 0 125.328 36.4282)" gradientUnits="userSpaceOnUse" r="1"><stop offset=".03125" stop-color="#3a3a3a"/><stop offset="1" stop-color="#1c1c1c"/></radialGradient><linearGradient id="b" gradientUnits="userSpaceOnUse" x1="125.06" x2="125.06" y1="-2.35366" y2="251.84"><stop offset="0" stop-color="#fff"/><stop offset="1" stop-color="#111"/></linearGradient><clipPath id="c"><path d="m0 0h250v250h-250z"/></clipPath><g clip-path="url(#c)"><path d="m125.059 2.2561h.004c67.474 0 122.172 54.8382 122.172 122.4849v.005c0 67.646-54.698 122.484-122.172 122.484h-.004c-67.4744 0-122.17277-54.838-122.17277-122.484v-.005c0-67.6467 54.69837-122.4849 122.17277-122.4849z" fill="#111" stroke="#111" stroke-width="4.50068"/><path d="m125.063 0h-.004c-68.7174 0-124.423258 55.8483-124.423258 124.741v.005c0 68.892 55.705858 124.74 124.423258 124.74h.004c68.717 0 124.422-55.848 124.422-124.74v-.005c0-68.8927-55.705-124.741-124.422-124.741z" fill="url(#a)" fill-opacity=".7"/><path d="m125.059 2.28465h.004c67.458 0 122.143 54.82545 122.143 122.45635v.005c0 67.63-54.685 122.455-122.143 122.455h-.004c-67.4588 0-122.14445-54.825-122.14445-122.455v-.005c0-67.6309 54.68565-122.45635 122.14445-122.45635z" stroke="url(#b)" stroke-width="4.55765"/><path clip-rule="evenodd" d="m97.8349 66.7276h-2.6512l-1.7193 2.0237-44.3777 52.2587-3.1678 3.73 3.1678 3.731 44.3777 52.258 1.7193 2.024h2.6512 79.8951 5.74v-5.754-33.222h-11.479v27.467h-61.604l36.871-42.74 3.247-3.764-3.247-3.764-36.871-42.7394h61.604v27.4674h11.479v-33.2219-5.7545h-5.74zm.0338 14.5915-36.8733 43.4209 36.8733 43.422 37.4583-43.422z" fill="#fff" fill-rule="evenodd"/></g></svg>