<svg fill="none" height="250" viewBox="0 0 250 250" width="250" xmlns="http://www.w3.org/2000/svg" xmlns:xlink="http://www.w3.org/1999/xlink"><clipPath id="a"><path d="m0 0h250v250h-250z"/></clipPath><g clip-path="url(#a)"><path d="m125 250c69.036 0 125-55.964 125-125 0-69.0356-55.964-125-125-125-69.0356 0-125 55.9644-125 125 0 69.036 55.9644 125 125 125z" fill="#000"/><g fill="#00d4d5"><path d="m129.055 39.0625v42.6328l37.015-21.2891z"/><path d="m166.07 60.4062v42.6328l37.008-21.3437z" opacity=".9"/><path d="m129.055 81.6953v42.6327l37.015-21.289zm37.015 21.3517v42.625l37.008-21.344z" opacity=".8"/><path d="m129.055 124.328v42.633l37.015-21.289z" opacity=".8"/><path d="m166.07 145.672v42.633l37.008-21.344z"/><path d="m33.3828 80.2578v42.6332l37.0156-21.344z" opacity=".4"/><path d="m80.0781 96.1094v42.6326l36.9529-21.289z" opacity=".2"/><path d="m52.6406 123.07v42.633l37.0078-21.344z" opacity=".3"/><path d="m77.0312 155.242v42.633l36.9528-21.344z" opacity=".9"/><path d="m128.75 173.594v42.64l36.953-21.351z" opacity=".7"/><path d="m86.2422 75.0547v42.6403l36.9528-21.2888z" opacity=".9"/><path d="m129.055 39.0625v42.6328l-37.0159-21.2891z" opacity=".8"/><path d="m86.2422 57.1875v42.625l-37.0234-21.3438z" opacity=".6"/><path d="m123.258 78.2812v42.6408l-37.0158-21.3517z" opacity=".6"/><path d="m79.9062 96.1094v42.6326l-37.0156-21.289z" opacity=".95"/><path d="m129.055 124.328v42.633l-36.9534-21.289z" opacity=".6"/><path d="m52.6406 134.258v42.633l-37.0156-21.352z" opacity=".55"/><path d="m203.078 81.6953v42.6327l-37.008-21.289z"/><path d="m166.07 103.047v42.625l-37.015-21.344z" opacity=".95"/><path d="m203.078 124.328v42.633l-37.008-21.289z" opacity=".9"/><path d="m166.07 145.672v42.633l-37.015-21.344z" opacity=".7"/><path d="m120.859 163.438v42.632l-37.0074-21.289z" opacity=".4"/><path d="m166.07 60.4062v42.6328l-37.015-21.3437z"/></g></g></svg>