<svg fill="none" height="250" viewBox="0 0 250 250" width="250" xmlns="http://www.w3.org/2000/svg" xmlns:xlink="http://www.w3.org/1999/xlink"><clipPath id="a"><path d="m0 0h250v250h-250z"/></clipPath><g clip-path="url(#a)"><path d="m220.807 185.201c-2.685 31.879-40.269 58.725-96.645 57.383-53.0199-1.342-90.2682-23.49-92.6172-55.369-.3356-4.027 0-8.054.3355-12.416 1.6779-12.417 6.0403-24.161 12.4161-34.9l4.0269 1.678c10.4027-4.027 21.1409-7.047 32.2147-9.06 14.4296-2.014 29.53-4.698 43.96-3.356l1.342-.336c14.43-1.006 27.517 2.014 41.946 4.027 11.074 2.014 21.812 5.034 32.215 9.061l4.027-1.678 2.685-1.342c6.375 10.738 10.738 22.483 13.087 34.899.671 3.691 1.007 7.718.671 11.409" fill="#f4a427"/><path d="m220.805 185.201c-2.349 31.544-39.597 57.383-96.308 57.047-53.0205-1.342-90.2688-23.49-92.6178-55.369-.3355-4.027 0-8.053.3356-12.416 5.7047-1.342 11.4094-1.342 17.1141-.335 10.7383 1.677 16.7785 8.389 24.4966 11.744 4.3625 2.014 8.7249-1.342 12.7517-5.033 10.7383-10.403 25.1678-16.443 39.9328-16.779 15.101-.335 27.517 5.705 40.604 17.786 2.685 2.684 6.376 4.362 10.067 4.026 3.356-1.006 6.712-2.684 9.396-5.033 10.067-6.711 22.148-9.396 33.893-7.718.671 4.362 1.007 8.054.335 12.08z" fill="#fff"/><path d="m65.1006 106.678c-3.6913 3.691-8.3893 6.376-13.4229 7.382l-2.0134.336c-2.0134.671-4.0268 1.007-6.3758 1.007-.3356 0-1.0067 0-1.3423 0-1.0067-.336-2.349-.671-3.3557-1.007-3.6913-1.678-7.047-3.691-10.0671-6.376-6.0403-5.033-11.745-10.7381-16.1074-17.4495-18.45638-26.8457-12.75168-63.0873 12.7517-83.2215 1.3423-1.00672 3.6912-1.00672 5.0335.67114.6712 1.00671 1.0067 2.01346.6712 3.02016-2.6846 10.7382-4.3624 27.5168 5.3691 41.9463 8.7248 12.4161 26.8456 24.1611 37.9195 23.8255 2.6845 13.4228-1.3423 22.4832-9.0604 29.8659z" fill="#f79422"/><path d="m65.1006 106.678c-3.6913 3.691-8.3893 6.376-13.4229 7.382l-2.0134.336c-2.0134.671-4.0268 1.007-6.3758 1.007-.3356 0-1.0067 0-1.3423 0-1.0067-.336-2.349-.671-3.3557-1.007-3.6913-1.678-7.047-3.691-10.0671-6.376-6.0403-5.033-11.745-10.7381-16.1074-17.4495-18.45638-26.8457-12.75168-63.0873 12.7517-83.2215 1.3423-1.00672 3.6912-1.00672 5.0335.67114.6712 1.00671 1.0067 2.01346.6712 3.02016-2.6846 10.7382-4.3624 27.5168 5.3691 41.9463 8.7248 12.4161 26.8456 24.1611 37.9195 23.8255 2.6845 13.4228-1.0067 22.4832-9.0604 29.8659z" stroke="#221f1f" stroke-linejoin="round" stroke-width="3.3557"/><path d="m113.424 60.3691-4.362 42.9529h-.336c-6.711 1.007-15.7715 2.349-28.1876 4.363-11.4094 1.677-26.8457 9.731-35.9061 15.1l-1.3423-6.711c2.0135-.336 4.3625-.671 6.3759-1.007l2.0134-.335c5.0336-1.007 9.7315-3.692 13.4228-7.383 7.7181-7.7181 11.745-16.443 9.0604-30.2013l1.3423.3355c4.0269-4.3624 8.7248-7.7181 14.094-10.4027 7.3825-4.3624 15.4362-6.3758 23.8252-6.7114z" fill="#5a595c"/><path d="m113.424 60.3691-4.362 42.9529h-.336c-6.711 1.007-15.7715 2.349-28.1876 4.363-11.4094 1.677-26.8457 9.731-35.9061 15.1l-1.3423-6.711c2.0135-.336 4.3625-.671 6.3759-1.007l2.0134-.335c5.0336-1.007 9.7315-3.692 13.4228-7.383 7.7181-7.7181 11.745-16.443 9.0604-30.2013l1.3423.3355c4.0268-4.3624 8.7248-7.7181 14.094-10.4027 7.3825-4.3624 15.4362-6.3758 23.8252-6.7114z" stroke="#221f1f" stroke-linejoin="round" stroke-width="3.3557"/><path d="m211.41 137.55-2.685 1.343-2.685 1.342-4.026 1.678c-10.403-4.027-21.141-7.047-32.215-9.061-14.43-2.684-28.859-4.026-43.624-4.026-14.766 0-29.195 1.006-43.6246 4.026-11.0738 2.014-21.812 5.034-32.2147 9.061-1.3423-.671-2.6846-1.343-4.0269-1.678l-6.0402-2.685c.3355-4.698 0-7.382 0-12.08 1.0067-.671 2.6845-1.678 4.3624-2.685l.3355-.335c8.3893-5.369 23.8255-13.088 35.2349-15.101 12.4161-2.013 21.1406-3.356 28.1876-4.362 4.363-.336 9.061-.336 13.759-.336 7.047 0 13.423 0 19.798.336 6.712 1.006 15.772 2.349 28.524 4.362 11.745 1.678 27.181 9.732 36.242 15.101h.335c1.678 1.006 3.02 1.678 4.027 2.684 0 5.034 0 7.718.336 12.416z" fill="#929497"/><path d="m211.409 137.55-2.684 1.343-2.685 1.342-4.026 1.678c-10.403-4.027-21.141-7.047-32.215-9.061-14.43-2.349-28.859-3.691-43.624-3.691-14.766 0-29.195 1.007-43.6246 3.691-11.0738 2.014-21.812 5.034-32.2147 9.061-1.3423-.671-2.6846-1.343-4.0269-1.678l-6.0402-2.685c.3355-4.698 0-7.382 0-12.08 1.0067-.671 2.6845-1.678 4.3624-2.685l.3355-.335c8.3893-5.369 23.8255-13.088 35.2349-15.101 12.4161-2.013 21.1406-3.356 28.1876-4.362 4.363-.336 9.061-.336 13.759-.336 7.047 0 13.423 0 19.798.336 6.712 1.006 15.772 2.349 28.524 4.362 11.745 1.678 27.181 9.732 36.242 15.101h.335c1.678 1.006 3.02 1.678 4.027 2.684.336 5.034 0 7.718.335 12.416z" stroke="#221f1f" stroke-linecap="round" stroke-linejoin="round" stroke-width="3.3557"/><path d="m142.283 103.322c-6.04-.335-12.752-.671-19.799-.335-4.698 0-9.396.335-13.758.335h.336l4.362-42.9529 1.007-8.7248c3.355-2.0134 7.382-3.0201 11.074-3.0201h.671c4.027 0 7.718 1.0067 11.074 3.0201l1.006 8.7248v.3356z" fill="#929497"/><path d="m142.283 103.322c-6.04-.335-12.752-.671-19.799-.335-4.698 0-9.396.335-13.758.335h.336l4.362-42.9529 1.007-8.7248c3.355-2.0134 7.382-3.0201 11.074-3.0201h.671c4.027 0 7.718 1.0067 11.074 3.0201l1.006 8.7248v.3356z" stroke="#221f1f" stroke-linecap="round" stroke-linejoin="round" stroke-width="3.3557"/><circle cx="208.389" cy="138.557" fill="#221f1f" r="1.67785"/><path d="m221.141 185.537c-2.685 31.879-43.289 57.382-96.644 57.382-53.0205-1.342-90.2688-23.489-92.6178-55.369-.3355-4.027 0-8.053.3356-12.416 1.6779-12.416 6.0403-24.161 12.4161-34.899l4.0269 1.678c10.4026-4.027 21.1409-7.047 32.2147-9.061 14.4296-2.684 28.8595-3.691 43.6245-4.026 14.765 0 29.194 1.342 43.624 4.026 11.074 2.014 21.812 5.034 32.215 9.061l4.362-1.678 2.685-1.342c6.375 10.738 10.738 22.483 13.087 34.899.671 4.027 1.007 8.054.671 11.745z" stroke="#221f1f" stroke-linecap="round" stroke-linejoin="round" stroke-width="3.3557"/><path d="m237.248 90.5705c-4.698 6.3758-10.067 12.4165-16.443 17.4495-3.02 2.685-6.376 4.698-10.067 6.376l-1.678.671-1.006.336c-2.349.671-3.692 0-8.054-.671l-2.014-.672c-5.033-1.006-9.731-3.691-13.422-7.382-7.719-7.7183-11.745-16.4431-9.061-30.2015 10.738.3356 29.195-11.4094 37.92-23.8255 10.067-14.0939 8.053-30.8725 5.704-41.6107-.335-2.01345.671-3.6913 2.685-4.36244 1.007-.33557 2.349 0 3.02.67114 25.503 20.1342 30.873 56.3758 12.416 83.2215z" fill="#f79422"/><path d="m237.248 90.5705c-4.698 6.3758-10.067 12.4165-16.443 17.4495-3.02 2.685-6.376 4.698-10.067 6.376l-1.678.671-1.006.336c-2.349.671-3.692 0-8.054-.671l-2.014-.672c-5.033-1.006-9.731-3.691-13.422-7.382-7.719-7.7183-11.745-16.4431-9.061-30.2015 10.738.3356 29.195-11.4094 37.92-23.8255 10.067-14.0939 8.053-30.8725 5.704-41.6107-.335-2.01345.671-3.6913 2.685-4.36244 1.007-.33557 2.349 0 3.02.67114 25.503 20.1342 30.873 56.3758 12.416 83.2215z" stroke="#221f1f" stroke-linejoin="round" stroke-width="3.3557"/><path d="m208.389 115.403-1.342 7.382c-9.06-5.369-24.497-13.423-36.242-15.1-12.751-2.014-21.476-3.356-28.523-4.363l-4.363-42.9529c7.719.3356 15.437 2.6846 22.484 6.3759 5.369 2.6845 10.067 6.3758 14.094 10.4027l1.342-.3356c-2.685 13.4228 1.342 22.4832 9.06 30.2009 3.692 3.692 8.39 6.376 13.423 7.383.336 0 1.678.671 2.014.671 2.349 1.007 5.369 1.007 8.053.336z" fill="#5a595c"/><path d="m208.389 115.403-1.342 7.382c-9.06-5.369-24.497-13.423-36.242-15.1-12.751-2.014-21.476-3.356-28.523-4.363l-4.363-42.9529c7.719.3356 15.437 2.6846 22.484 6.3759 5.369 2.6845 10.067 6.3758 14.094 10.4027l1.342-.3356c-2.685 13.4228 1.342 22.4832 9.06 30.2009 3.692 3.692 8.39 6.376 13.423 7.383l2.014.336c4.362.671 5.369 1.342 8.053.671z" stroke="#221f1f" stroke-linejoin="round" stroke-width="3.3557"/><path d="m137.919 60.3691h-1.342" stroke="#221f1f" stroke-linejoin="round" stroke-width="3.3557"/><path d="m207.383 122.785c-.336.336-.336.336-.672.671z" fill="#f79422"/><path d="m207.383 122.785c-.336.336-.336.336-.672.671" stroke="#221f1f" stroke-miterlimit="10" stroke-width="3.3557"/><path d="m43.96 122.785c.3355.336.3355.336.6711.671z" fill="#f79422"/><path d="m43.96 122.785c.3355.336.3355.336.6711.671" stroke="#221f1f" stroke-miterlimit="10" stroke-width="3.3557"/><path d="m113.424 198.289c2.349.671 5.033.335 7.382-1.007 3.692-1.342 6.041-5.034 5.705-9.061-.335 4.027 2.014 7.719 5.705 9.061 2.349 1.007 4.698 1.342 7.047 1.007" stroke="#171717" stroke-linecap="round" stroke-linejoin="round" stroke-width="3.3557"/><path d="m139.262 176.812c0 4.027-6.041 9.396-13.423 9.396-7.383 0-13.423-5.369-13.423-9.396s6.04-5.369 13.423-5.369c7.382 0 13.423 1.678 13.423 5.369z" fill="#171717"/><path d="m131.545 175.47c0 1.007-2.685 2.349-5.705 2.349s-5.705-1.342-5.705-2.014c0-.671 2.685-.671 5.705-.671s5.705-.671 5.705.336z" fill="#fff"/><g stroke-linejoin="round" stroke-width="3.3557"><g stroke="#171717" stroke-linecap="round"><path d="m105.034 188.221c-.336 4.698 2.684 8.725 7.382 9.732h1.007"/><path d="m126.174 183.523v4.698"/><path d="m139.262 198.289h1.006c4.698-1.007 8.054-5.034 7.383-9.732"/></g><g stroke="#221f1f"><path d="m224.832 7.349c25.503 20.1342 30.873 56.3758 12.416 82.8859"/><path d="m65.1006 106.678c-3.6913 3.691-8.3893 6.376-13.4229 7.382l-2.0134.336c-2.0134.671-4.0268 1.007-6.3758 1.007-.3356 0-1.0067 0-1.3423 0-1.0067-.336-2.349-.671-3.3557-1.007-3.6913-1.678-7.047-3.691-10.0671-6.376-6.0403-5.033-11.745-10.7381-16.1074-17.4495-18.45638-26.8457-12.75168-63.0873 12.7517-83.2215 1.3423-1.00672 3.6912-1.00672 5.0335.67114.6712 1.00671 1.0067 2.01346.6712 3.02016-2.6846 10.7382-4.3624 27.5168 5.3691 41.9463 8.7248 12.4161 26.8456 24.1611 37.9195 23.8255 2.6845 13.4228-1.0067 22.4832-9.0604 29.8659z"/></g></g><path d="m101.343 155c0 7.383-4.362 13.087-9.7311 13.087s-9.7315-6.04-9.7315-13.087c0-6.376 3.3557-11.745 7.7181-13.087l10.7385 8.053c.671 1.678 1.006 3.356 1.006 5.034z" fill="#221f1f"/><path d="m97.9868 153.322c0 2.685-1.6779 4.698-3.3557 4.698-1.6779 0-3.3557-2.013-3.3557-4.698 0-2.684 1.6778-4.698 3.3557-4.698 1.6778 0 3.3557 2.014 3.3557 4.698z" fill="#fff"/><g fill="#221f1f"><path d="m89.5972 165.067c-3.6912 3.02-7.0469 6.376-10.0671 10.067-1.3423 1.678-2.6845 3.692-3.6912 6.04-1.0068 2.014-1.6779 4.363-2.0135 6.712-.3355 1.007-.3355 2.349-.3355 3.356v1.677 1.678 7.383c.3355 2.349.6711 5.033 1.0067 7.382.3355 1.343.3355 2.349.6711 3.692.3356 1.006.6712 2.349 1.3423 3.355-.6711-1.006-1.0067-2.349-1.6779-3.355-.3355-1.007-1.0067-2.349-1.3422-3.356-.6712-2.349-1.3423-4.698-2.0135-7.383-.3355-2.349-.6711-5.033-1.0067-7.382v-1.678-2.013c0-1.343 0-2.685 0-3.692.3356-2.684.6712-5.369 1.6779-7.718s2.0134-4.698 3.3557-7.047c3.0201-4.362 6.0403-8.389 9.7315-11.745 1.3423-1.006 3.0202-1.006 4.3624 0 1.3423.671 1.3423 2.685 0 4.027z"/><path d="m87.584 164.06c-.3355 0-.3355 0-.6711 0h-.3356-.6711l-1.6779-.335c-1.0067-.336-2.0134-.336-3.0201-.336-2.0134 0-4.3624 0-6.3758.671-1.0067.336-2.0135.672-3.0202 1.007-3.0201 1.342-5.7047 3.691-7.3825 6.376 1.0067-2.349 2.0134-4.362 3.6913-6.04.6711-1.007 1.6778-1.678 2.6845-2.349s2.0134-1.343 3.0202-2.014c2.0134-1.342 4.3624-2.013 7.0469-2.684 1.3423-.336 2.349-.336 3.6913-.336h2.0134 1.3423c1.6779 0 3.0202 1.342 3.3557 3.02.3356 1.678-1.6778 3.02-3.6913 3.02z"/><path d="m170.47 155c0 7.383-4.362 13.087-9.396 13.087s-10.067-5.704-10.067-13.087c0-1.678.335-3.356.671-5.034l10.738-8.053c4.698 1.342 8.054 6.711 8.054 13.087z"/></g><path d="m154.698 153.322c0 2.685 1.678 4.698 3.355 4.698 1.678 0 3.356-2.013 3.356-4.698 0-2.684-1.678-4.698-3.356-4.698-1.677 0-3.355 2.014-3.355 4.698z" fill="#fff"/><g fill="#221f1f"><path d="m167.115 160.369c3.691 3.691 6.712 7.383 9.396 11.745 1.342 2.014 2.685 4.363 3.691 6.711 1.007 2.349 1.678 5.034 2.014 7.383.335 2.685.335 5.034 0 7.718-.336 2.349-.671 5.034-1.007 7.383s-1.007 4.698-1.678 7.047c-.335 1.006-.671 2.349-1.342 3.355-.336 1.007-1.007 2.349-1.678 3.356.336-1.007 1.007-2.349 1.342-3.356.336-1.006.671-2.349 1.007-3.355.336-2.349 1.007-4.698 1.007-7.047.335-2.349.335-4.698.335-7.383 0-2.349-.335-4.698-.671-7.047-.671-2.349-1.342-4.362-2.349-6.376-1.006-2.013-2.349-4.026-4.027-5.704-3.02-3.692-6.375-7.047-10.067-10.067-1.342-1.343-1.342-3.021 0-4.363 1.007-1.007 2.685-1.342 4.027-.335z"/><path d="m164.765 158.02h1.678 2.013c1.343 0 2.685 0 4.027.336 2.685.335 5.034 1.006 7.383 2.013s4.362 2.685 6.376 4.363c1.678 1.677 3.02 4.026 4.026 6.04-1.342-2.014-3.02-3.691-5.033-5.034-2.013-1.342-4.027-2.349-6.376-2.684-2.349-.336-4.362-.336-6.711-.336-1.007 0-2.349.336-3.356.336l-1.678.335h-.671-.336-.335-.336c-1.678.336-3.355-1.006-3.355-2.684-.336-1.678 1.006-3.356 2.684-3.356h.671"/></g></g></svg>