<svg fill="none" height="250" viewBox="0 0 250 250" width="250" xmlns="http://www.w3.org/2000/svg" xmlns:xlink="http://www.w3.org/1999/xlink"><clipPath id="a"><path d="m0 0h250v250h-250z"/></clipPath><clipPath id="b"><path d="m0 0h250v250h-250z"/></clipPath><clipPath id="c"><path d="m51.7578 68.3594h146.484v113.281h-146.484z"/></clipPath><g clip-path="url(#a)"><g clip-path="url(#b)"><path d="m125 250c69.036 0 125-55.964 125-125 0-69.0365-55.964-125-125-125-69.0365 0-125 55.9635-125 125 0 69.036 55.9635 125 125 125z" fill="#000"/><g clip-path="url(#c)"><path d="m132.934 125 65.308-35.2088-10.986-21.2785-59.815 24.4167c-1.526.6123-3.28.6123-4.806 0l-59.8147-24.4167-10.9863 21.2785 65.308 35.2088-65.308 35.209 10.9863 21.279 59.8147-24.417c1.526-.612 3.28-.612 4.806 0l59.815 24.417 10.986-21.279z" fill="#23f7dd"/></g></g></g></svg>