<svg width="250" height="250" viewBox="0 0 250 250" fill="none" xmlns="http://www.w3.org/2000/svg">
<g clip-path="url(#clip0_7_191)">
<path d="M125 250C194.036 250 250 194.036 250 125C250 55.9644 194.036 0 125 0C55.9644 0 0 55.9644 0 125C0 194.036 55.9644 250 125 250Z" fill="#988430"/>
<path d="M125 245.996C191.824 245.996 245.996 191.824 245.996 125C245.996 58.1757 191.824 4.00391 125 4.00391C58.1757 4.00391 4.00391 58.1757 4.00391 125C4.00391 191.824 58.1757 245.996 125 245.996Z" fill="#7A6A2A"/>
<path d="M125 243.447C190.416 243.447 243.447 190.416 243.447 125C243.447 59.5836 190.416 6.55322 125 6.55322C59.5836 6.55322 6.55322 59.5836 6.55322 125C6.55322 190.416 59.5836 243.447 125 243.447Z" fill="#BA9F33"/>
<path fill-rule="evenodd" clip-rule="evenodd" d="M54.6519 111.651C53.9439 111.004 53.1959 110.356 52.5079 109.709C51.8199 109.063 51.1133 108.415 50.4053 107.768L48.3013 105.768C47.9573 105.424 47.5933 105.121 47.2493 104.776C46.9053 104.473 46.5013 104.129 46.1573 103.825C43.3653 101.176 40.5573 98.5266 37.8039 95.876C40.6559 98.4853 43.4479 101.076 46.2999 103.724L47.2906 104.716C47.6346 105.059 47.9986 105.363 48.3426 105.707L50.4453 107.648C51.1533 108.295 51.8413 108.943 52.5493 109.648C53.2573 110.353 53.9453 111.003 54.6533 111.648L54.6519 111.651ZM17.5973 111.251C17.5973 111.251 27.7506 112.301 32.7066 113.009C37.2973 113.657 51.6586 115.861 51.6586 115.861L17.5973 111.251ZM17.5973 111.251C20.4493 111.493 23.3013 111.796 26.1533 112.1C27.6093 112.241 29.0053 112.403 30.4013 112.544L32.5439 112.788C33.2519 112.888 33.9399 112.989 34.6479 113.091L43.1439 114.445L47.3906 115.153C48.7866 115.396 50.1826 115.66 51.6386 115.903C50.2426 115.761 48.7866 115.559 47.3906 115.356L43.1439 114.749L34.6479 113.496C33.9399 113.395 33.2519 113.252 32.5439 113.152L30.3999 112.905C29.0039 112.764 27.5479 112.561 26.1519 112.399C23.2999 112.056 20.4479 111.691 17.5959 111.247L17.5973 111.251ZM50.6479 118.507C50.6479 118.507 39.8066 121.259 36.1453 122.311C32.5453 123.301 21.6426 126.619 21.6426 126.619L50.6466 118.508L50.6479 118.507Z" fill="#CFB66C"/>
<path fill-rule="evenodd" clip-rule="evenodd" d="M50.6468 118.507C48.2401 119.215 45.8468 119.903 43.4055 120.551L36.1641 122.492C33.7575 123.2 31.3641 123.888 28.9641 124.596L25.3641 125.587C24.1708 125.931 22.9575 126.233 21.7241 126.579C22.9161 126.179 24.1308 125.769 25.3241 125.425L28.9241 124.273C31.3308 123.524 33.7241 122.816 36.1241 122.068C38.5708 121.461 40.9788 120.813 43.4255 120.227C45.7508 119.64 48.1988 119.055 50.6468 118.508V118.507ZM23.1601 133.293C24.3521 132.848 38.1068 126.437 41.3028 124.94C42.9028 124.191 47.5535 122.54 47.5535 122.54L23.1601 133.293Z" fill="#CFB66C"/>
<path fill-rule="evenodd" clip-rule="evenodd" d="M23.16 133.293C24.2107 132.893 25.2027 132.404 26.2134 131.939L29.2067 130.543L35.2147 127.651C37.2147 126.7 39.1587 125.651 41.2214 124.757C42.2734 124.313 43.3254 123.949 44.376 123.605L45.976 123.1C46.5214 122.959 47.028 122.796 47.576 122.655C45.576 123.605 43.4707 124.415 41.468 125.344C39.468 126.336 37.4227 127.145 35.3587 128.035L29.2507 130.724C27.2 131.555 25.2 132.444 23.1587 133.293H23.16ZM24.4934 138.893C24.4934 138.893 36.952 131.592 41.24 129.245C43.4854 127.992 50.7467 124.391 50.7467 124.391L24.4934 138.893Z" fill="#CFB66C"/>
<path fill-rule="evenodd" clip-rule="evenodd" d="M24.4946 138.896C26.5973 137.601 28.7413 136.287 30.8853 134.952L34.0853 133.009C35.1773 132.363 36.2293 131.756 37.3426 131.109C38.4346 130.461 39.4866 129.815 40.5986 129.208C41.128 128.881 41.6827 128.597 42.2573 128.359L43.956 127.509C46.2013 126.417 48.4466 125.304 50.8133 124.353C48.6693 125.709 46.464 126.863 44.26 128.055C43.168 128.661 42.0546 129.208 40.9626 129.815C39.8706 130.421 38.8186 131.069 37.7053 131.656C36.6133 132.303 35.5613 132.909 34.4493 133.496L31.152 135.296L24.4973 138.896H24.4946ZM50.6466 125.991C50.6466 125.991 42.9 131.937 40.392 133.839C37.884 135.74 30.5013 141.08 30.5013 141.08L50.6466 125.991V125.991Z" fill="#CFB66C"/>
<path fill-rule="evenodd" clip-rule="evenodd" d="M95.1054 173.948L91.1414 166.444L93.4467 157.059L109.891 150.708L102.892 136.348L106.351 121.845L112.844 108.859L132.909 105.704L147.653 91.6467L179.491 94.0534L185.74 128.095L173.705 170.955L166.849 193.144L139.057 194.196L126.153 185.256L111.044 178.944L95.1054 173.948Z" fill="#E2CC85"/>
<path fill-rule="evenodd" clip-rule="evenodd" d="M143.852 173.705C143.852 173.705 140.008 175.465 133.452 175.06C131.555 172.512 118.267 171.319 118.267 171.319C118.267 171.319 116.608 170.813 113.675 172.027C110.723 173.227 107.931 173.079 105.321 173.725C102.712 174.372 100.121 170.975 98.1214 170.267C96.1214 169.519 93.4694 167.719 93.4694 167.719L87.8694 167.172L76.6241 162.419L58.7587 144.62L53.9041 152.22L52.4067 161.625L57.8081 172.771L72.3507 186.019L100.708 193.219L117.516 188.267L138.572 179.367L143.852 173.704V173.705Z" fill="#F1D789"/>
<path fill-rule="evenodd" clip-rule="evenodd" d="M43.1027 110.801L46.7027 99.8999L50.992 92.8599L64.8054 91.7065L60.6587 103.803L49.1107 124.353L53.904 142.699L45.4094 146.945L42.7987 142.941L40.696 133.759L40.5547 123.443L43.1027 110.801Z" fill="#F4ECB4"/>
<path fill-rule="evenodd" clip-rule="evenodd" d="M58.596 172.957L55.9466 169.256C55.9466 169.256 55.2386 167.496 55.644 165.959C56.044 164.401 55.9866 164.3 55.7853 163.713C55.584 163.127 53.884 161.104 53.9853 159.364C54.0853 157.604 53.844 157.017 55.1373 155.623C56.492 154.268 56.088 151.921 56.088 151.921L57.848 153.013L58.248 152.407C58.248 152.407 58.8946 152.912 58.8946 153.701C59.036 152.609 58.4493 147.552 59.784 146.4C61.1186 145.248 63.4853 151.8 63.4853 151.8L62.0293 142.293L58.2866 132.545L51.632 123.645L51.232 113.835V112.985C51.232 112.985 48.1773 117.679 47.328 121.385C46.7213 123.933 48.1773 127.028 47.8746 130.689C47.6306 134.331 47.328 134.047 48.2173 135.489C49.1066 136.932 51.272 139.899 50.4226 142.043C49.6746 143.884 47.1253 142.589 47.1253 142.589C47.1253 142.589 46.62 144.085 45.932 144.632C45.6893 143.743 45.4266 143.176 44.9413 142.632C44.9 142.976 44.8 143.441 44.8 143.441C44.8 143.441 44.3546 142.045 43.9093 140.285C43.304 137.94 42.656 134.845 42.0693 133.187C41.8266 134.137 41.22 137.029 41.22 137.029L41.564 141.48L43.2226 147.588L44.8226 151.588L46.38 156.483L47.7333 159.771L48.8253 162.279L49.776 167.923L54.3666 172.776L56.8146 173.869L58.5933 172.959L58.596 172.957Z" fill="#F3E19D"/>
<path fill-rule="evenodd" clip-rule="evenodd" d="M45.5092 101.901C45.5092 101.901 42.2119 107.501 41.2625 113.147C40.3132 118.792 39.4625 124.757 40.0625 132.443C40.6692 140.191 41.8225 144.943 42.7532 148.341C44.3532 153.985 48.4972 161.833 48.4972 161.833L48.6385 161.529C47.942 160.209 47.3861 158.819 46.9799 157.383C46.4332 155.239 46.2305 152.691 45.7252 151.537C45.2799 150.385 44.5319 149.393 44.1679 147.977C43.8239 146.623 43.7679 144.479 42.7119 142.881C42.2665 142.233 41.7199 140.535 41.5585 138.836C41.3559 136.287 41.6599 133.435 41.4172 131.089C40.9719 127.185 40.6692 124.536 41.0732 122.492C41.4772 120.448 43.5825 114.645 44.8772 110.033C45.7265 107.08 45.2199 104.592 46.7772 102.023C48.3345 99.4747 49.2865 97.2293 49.6292 95.672C50.0292 94.256 45.5039 101.901 45.5039 101.901H45.5092Z" fill="#F2E8B0"/>
<path fill-rule="evenodd" clip-rule="evenodd" d="M61.1454 99.656C61.1454 99.656 59.4467 100.163 58.6374 101.052C57.8281 101.901 57.4841 102.609 56.3921 104.045C55.3001 105.481 55.2387 106.655 54.3481 108.455C53.4587 110.215 51.4961 112.864 51.2534 113.815C51.0107 114.765 50.6067 119.215 50.1014 121.319C49.6561 123.423 50.6067 126.012 50.6067 126.012L51.7587 125.768C51.7587 125.768 51.7587 127.265 52.9121 128.277C54.0641 129.268 54.2667 124.919 54.2667 124.919L58.5747 110.376L65.0667 105.967L65.7747 102.407L61.1427 99.656H61.1454Z" fill="#F5EEC0"/>
<path fill-rule="evenodd" clip-rule="evenodd" d="M64.3 106.251C64.3 106.251 61.2454 106.452 59.7494 107.545C59.1427 107.989 58.9 108.353 58.2534 108.9C57.06 109.891 55.8454 110.801 55.26 112.1C54.612 113.393 53.904 115.356 53.4187 119.057C53.216 120.615 53.216 122.051 53.0747 123.305C52.872 125.004 52.5694 126.359 52.7307 127.305C52.9334 129.247 54.936 130.259 55.1307 132.463L59.2774 130.36L63.1814 114.967L71.4747 109.767L66.7814 104.508L64.2947 106.241L64.3 106.251Z" fill="#E6DB9D"/>
<path fill-rule="evenodd" clip-rule="evenodd" d="M42.4239 209.905C42.4413 209.753 42.4586 209.601 42.4759 209.445C43.0813 204.245 43.1839 200.304 43.6279 197.836C44.2746 194.337 44.7199 193.036 44.6186 191.727C44.4773 189.624 44.3159 188.087 44.5186 186.468C44.8213 184.324 46.9253 181.776 46.8653 180.016C46.8239 178.62 46.1159 177.711 45.5093 176.861C44.9026 176.012 44.4173 175.304 44.4173 175.304C44.4173 175.304 48.5639 172.452 48.5239 160.963C48.6086 160.987 48.6901 161.021 48.7666 161.064L50.8093 166.868L52.2053 168.567L57.5653 178.559L64.4626 185.255L74.6559 192.111L81.0479 199.067L81.6946 217.615L73.3413 228.456L71.9733 230.933C61.1049 225.477 51.1386 218.385 42.4226 209.904L42.4239 209.905Z" fill="#E5CB7A"/>
<path fill-rule="evenodd" clip-rule="evenodd" d="M67.9414 227.649C67.9414 227.649 68.0827 225.344 69.9841 223.847C70.2881 224.352 70.4894 224.839 70.4294 225.201C70.7734 224.596 73.1801 220.712 78.6214 219.7C84.0627 218.709 85.3774 214.745 85.3774 214.745L96.9254 204.248L110.133 192.092L126.193 186.448L133.699 184.607C133.699 184.607 133.84 185.153 133.557 186.367C134.952 186.267 138.047 185.559 141.263 184.425C142.557 183.92 143.772 183.717 144.419 184.385C145.369 185.275 145.511 187.379 145.571 188.632C147.128 188.288 148.928 186.792 150.371 186.933C152.677 187.176 154.72 189.887 157.067 189.887C160.161 189.887 161.556 187.985 163.721 186.488C165.016 185.599 166.876 184.488 167.928 183.737C170.436 181.896 196.973 173.785 196.973 173.785L206.277 174.392L207.775 184.384L206.975 210.504C206.876 210.599 206.777 210.697 206.677 210.792L164.373 232.887L105.733 241.876C92.5978 239.73 79.9218 235.37 68.2454 228.981L67.9454 227.648L67.9414 227.649Z" fill="#D8C173"/>
<path fill-rule="evenodd" clip-rule="evenodd" d="M45.98 213.228C46.8133 211.485 47.5626 210.028 47.6946 209.507C47.7986 210.557 47.9893 212.863 48.3733 215.313C47.5671 214.628 46.7693 213.932 45.98 213.227V213.228Z" fill="#F1D789"/>
<path fill-rule="evenodd" clip-rule="evenodd" d="M88.816 237.809L96.4 235.7L97.0466 235.903C97.0466 235.903 97.3906 236.105 97.3906 236.792C98.3413 236.247 99.1506 236.347 99.7373 235.984C100.04 236.631 100.343 238.775 101.679 239.037C103.073 239.341 104.571 238.431 106.088 237.279C107.584 236.085 109.288 234.588 110.577 233.981C111.05 234.851 111.469 235.749 111.832 236.671C113.531 235.316 116.484 229.815 120.691 229.915C121.907 227.041 123.938 224.587 126.533 222.856C130.437 220.207 132.884 220.004 135.939 220.247C137.152 218.671 138.647 217.333 140.348 216.303C140.853 216.505 142.249 217.355 143.989 216.545C145.749 215.737 147.731 212.601 150.34 212.197C151.746 212.004 153.176 212.304 154.385 213.047C154.385 213.047 161.985 205.501 167.229 202.993C167.027 202.387 166.623 200.101 172.771 195.044C173.115 195.348 172.872 196.197 173.115 196.244C173.215 196.244 174.715 195.597 176.613 194.14C178.96 192.381 181.771 190.54 183.469 190.035C186.669 189.084 190.064 191.025 190.064 191.025C190.353 190.823 190.674 190.672 191.015 190.58C191.823 190.439 192.409 190.337 192.855 190.18C192.815 191.232 193.401 193.032 192.855 194.589C193.488 194.945 194.159 195.23 194.855 195.439C194.512 196.187 193.763 198.088 192.509 198.999C193.56 199.504 193.701 200.091 195.199 200.599C194.592 201.448 193.599 202.905 193.156 203.799C192.711 204.749 191.112 208.693 190.404 210.189C189.656 211.687 188.645 214.437 188.159 214.989C187.672 215.541 185.913 217.881 184.559 219.033C185.759 218.588 190.668 217.092 192.751 216.525C192.131 217.435 188.988 222.097 185.967 226.581C171.501 235.252 155.353 240.74 138.599 242.679C121.846 244.619 104.871 242.965 88.8066 237.829L88.816 237.809Z" fill="#E0CD81"/>
<path fill-rule="evenodd" clip-rule="evenodd" d="M64.8001 105.704C64.8001 105.704 63.0414 105.704 62.6974 105.947C62.3534 106.189 64.4574 106.696 65.1041 106.939C65.7507 107.181 67.1467 108.293 67.5107 109.184C67.8547 110.033 80.1521 114.988 80.1521 114.988L88.8494 114.543L91.8481 110.4L86.1441 105.404L90.1441 93.6121L84.8454 94.4614L72.1027 102.061L65.7107 104.509L64.8001 105.704Z" fill="#DFC57C"/>
<path fill-rule="evenodd" clip-rule="evenodd" d="M83.9 109.608C84.0257 109.812 84.2028 109.978 84.4134 110.092C84.624 110.205 84.8608 110.262 85.1 110.255C86.9 110.255 88.5573 110.7 89.2453 111.609C90.3986 113.067 93.5946 117.719 93.5946 117.719L101.24 120.469L101.733 111.467L93.38 105.663L83.8733 109.161V109.607H83.8946L83.9 109.608Z" fill="#E5CC7C"/>
<path fill-rule="evenodd" clip-rule="evenodd" d="M82.4 112.945C82.4 112.945 83.7947 113.047 85.5547 112.399C87.3147 111.751 90.2067 110.356 91.4614 110.903C93.22 111.651 92.856 113.997 94.7587 116.103C95.9107 117.397 98.0147 117.357 99.208 118.753C100.401 120.149 104.507 119.501 104.507 119.501L106.064 127.901L99.8147 135.912L97.7707 145.863H89.32L81.6 142.8L77.7974 133.6L79.6987 124.296L82.4 112.945Z" fill="#D2C281"/>
<path fill-rule="evenodd" clip-rule="evenodd" d="M98.7467 113.349C98.9563 113.414 99.1741 113.448 99.3934 113.451C99.1507 113.653 98.6441 114.097 98.8467 115.251C99.0494 116.404 99.6961 117.86 99.1507 118.749C99.5861 119.225 99.9107 119.792 100.101 120.408C100.445 121.4 100.547 122.309 102.791 122.452C102.467 122.651 102.168 122.889 101.901 123.16C101.901 123.16 103.459 124.515 104.248 125.768C105.056 125.733 107.2 125.067 107.2 125.067L107.645 125.371L108.596 124.971C108.596 124.971 107.707 124.627 108.353 122.463C108.96 120.561 109.507 120.663 109.553 120.521C109.6 120.38 109.999 118.377 109.999 117.568C110.301 116.517 110.544 113.321 110.544 113.321L109.897 106.263L106.257 104.057L103.297 101.2L100.505 106.459L98.6667 108.292L98.5254 112.843L98.7467 113.349Z" fill="#E2C270"/>
<path fill-rule="evenodd" clip-rule="evenodd" d="M107.504 107.444C107.504 107.444 108.151 109.284 108.395 110.7C108.481 110.425 108.528 110.139 108.536 109.851C108.536 109.851 109.041 112.643 109.141 113.796C109.344 113.755 109.541 113.695 109.587 113.896C109.632 114.097 110.093 116.344 109.987 117.597C110.829 116.208 111.994 115.042 113.384 114.2C114.193 113.693 115.144 113.148 116.136 113.107C117.693 113.067 118.825 114.099 120.687 114.099C125.176 114.099 129.243 110.801 132.236 109.791C134.44 109.041 136.341 108.496 137.676 107.281C138.324 106.736 139.477 105.523 140.528 103.721C141.924 101.321 143.38 99.232 144.837 98.9693C144.178 99.0905 143.507 99.1379 142.837 99.1107C142.837 99.1107 143.283 98.6653 144.037 98.0587C144.792 97.452 145.696 96.704 146.989 96.704C149.296 96.704 150.448 97.0467 151.743 97.0467C153.037 97.0067 153.785 96.704 153.785 96.704C153.785 96.704 155.141 97.6547 158.195 97.6547C161.249 97.6947 163.292 97.9573 164.891 98.1C166.489 98.2427 171.848 97.6547 173.385 97.7C174.388 97.7386 175.372 97.9794 176.279 98.408L171.323 84.008L153.52 68.448L142.921 75.952L126.617 92.2547L110.841 98.1L107.544 101.801V107.444H107.504Z" fill="#CCB360"/>
<path fill-rule="evenodd" clip-rule="evenodd" d="M142.901 99.1906C142.901 99.1906 143.347 98.7466 144.093 98.14C144.84 97.5333 145.753 96.784 147.047 96.784C149.352 96.784 150.505 97.128 151.8 97.128C153.095 97.088 153.843 96.784 153.843 96.784C153.843 96.784 155.2 97.7333 158.252 97.7333C161.307 97.7733 163.349 98.036 164.948 98.1773C166.547 98.3186 171.905 97.7333 173.443 97.7773C174.445 97.815 175.428 98.0559 176.335 98.4853L174.089 91.992L171.481 87.0373L164.037 78.8853C164.037 78.8853 155.104 73.6266 155.036 73.5866C154.996 73.5466 151.941 72.7373 151.941 72.7373L143.851 77.632L136.509 96.6253L136.368 100.625L141.12 102.871C142.313 100.871 143.629 99.2706 144.863 99.068C143.749 99.1893 142.9 99.1893 142.9 99.1893L142.901 99.1906Z" fill="#D5B457"/>
<path fill-rule="evenodd" clip-rule="evenodd" d="M142.8 100.547C142.092 100.587 141.507 100.445 141.344 99.9399C140.737 98.2413 140.252 97.9986 139.744 97.9986C139.236 97.9986 138.551 99.0906 138.144 99.1906C137.737 99.2906 137.255 97.9373 137.255 97.9373L136.809 97.7346C136.809 97.7346 134.2 99.4333 132.36 101.436C130.52 103.439 127.505 106.837 126.151 107.443C124.796 108.048 120.143 108.252 118.551 108.596C116.959 108.94 115.193 110.093 114.951 110.356C114.708 110.619 115.66 110.901 115.801 111.164C115.943 111.407 114.243 111.305 114.101 111.564C114.001 111.767 114.501 112.919 114.749 113.505C115.183 113.29 115.66 113.172 116.144 113.161C117.701 113.121 118.835 114.153 120.695 114.153C125.185 114.153 129.251 110.856 132.244 109.844C134.449 109.096 136.351 108.549 137.685 107.336C138.332 106.791 139.485 105.576 140.537 103.776C141.305 102.543 142.055 101.389 142.804 100.54L142.8 100.547Z" fill="#D2B257"/>
<path fill-rule="evenodd" clip-rule="evenodd" d="M78.4 200.648C78.4 200.648 78 199.151 74.2933 195.288C73.2413 194.196 72.5947 193.288 71.8867 192.639C70.1267 190.979 69.0947 190.535 67.8413 189.584C65.0907 187.541 62.0973 187.541 59.792 185.033C57.4867 182.525 54.8 177.733 52.9333 172.836C51.0933 167.941 50.5867 166.384 50.5867 166.243C50.5867 166.101 51.0933 165.151 51.74 165.292C52.3867 165.433 52.3867 166.687 52.5493 166.991C52.8715 167.487 53.2369 167.953 53.6413 168.385C54.592 169.479 55.9467 170.785 56.6347 172.735C56.4933 171.076 55.9267 169.236 55.9267 169.236C55.9267 169.236 59.4867 171.481 62.52 173.827C65.5747 176.173 66.828 176.983 67.72 178.479C68.612 179.975 70.7133 183.92 71.72 185.073C72.7267 186.227 86.52 190.575 86.52 190.575L93.0813 195.467L96.3387 202.607L93.7893 206.607L88.8947 207.659L80.9453 204.099L78.4 200.647V200.648Z" fill="#D2B159"/>
<path fill-rule="evenodd" clip-rule="evenodd" d="M60.74 176.052C60.74 176.052 62.3987 178.701 66.444 181.209C70.0853 183.415 75.8493 185.417 80.988 186.611C83.94 187.319 86.8933 187.864 89.5427 187.905C96.6827 188.005 101.597 185.964 107.687 185.296C110.984 184.952 115.029 184.689 119.236 183.696C124.636 182.401 127.832 180.944 132.181 178.896C135.336 177.44 138.229 176.348 140.575 174.952C143.872 173.011 146.279 170.847 149.071 170.2C148.727 171.151 148.363 172.849 145.612 174.609C147.068 174.568 149.071 174.468 149.071 174.468C149.071 174.468 147.129 175.62 143.711 178.209C141.607 179.809 138.816 182.517 135.964 184.317C134.123 185.471 132.12 186.317 130.805 187.008C127.605 188.768 126.315 189.657 124.212 191.808C124.96 191.768 125.021 191.808 125.021 191.808C125.021 191.808 122.371 192.152 120.471 193.163C120.071 193.163 119.377 193.021 118.164 193.365C117.213 193.668 115.959 194.357 114.665 194.72C112.824 195.267 112.219 195.024 112.219 195.024L112.521 195.631C112.521 195.631 110.121 195.589 109.321 195.671C109.463 195.711 109.423 195.772 109.423 195.772C109.282 195.796 109.147 195.843 109.023 195.913C108.638 196.163 108.214 196.347 107.769 196.459C107.527 196.499 107.324 196.499 107.02 196.56C107.121 196.803 107.911 198.16 108.275 198.96C107.972 199.163 103.42 202.601 103.42 202.601C103.561 202.823 103.677 203.061 103.764 203.309C103.905 203.753 103.967 204.401 104.108 204.704C104.451 205.311 104.653 205.412 104.653 205.412C104.653 205.412 104.108 205.513 103.156 205.756C102.348 205.959 101.356 206.301 99.956 206.504C99.5264 206.56 99.0943 206.594 98.6613 206.605C98.864 207.051 99.7533 208.749 98.1147 210.711C96.476 212.672 95.9707 212.957 95.4653 214.211C95.211 214.018 94.9401 213.849 94.656 213.704C94.1107 213.461 93.3613 213.099 93.0987 212.612C92.9455 213.26 92.7427 213.896 92.492 214.513C91.9867 215.868 91.2387 217.204 91.0973 218.215C90.5507 217.608 89.54 216.415 88.144 216.657C86.748 216.9 85.636 218.801 85.3933 219.348C85.3933 219.004 85.1507 218.741 85.0907 219.145C85.0493 219.591 84.2813 224.241 79.9933 228.004C79.9533 227.053 79.9533 224.949 79.852 224.263C79.452 224.663 78.9627 225.253 76.0493 226.508C73.1973 227.761 73.6493 229.016 73.6493 229.016C73.6493 229.016 73.4067 227.016 74.944 224.909C76.5013 222.807 77.452 221.815 77.452 221.653C77.4269 221.489 77.3567 221.335 77.2493 221.208C77.0467 221.005 76.6427 220.763 76.6427 220.601C76.8853 220.501 79.292 219.348 79.1507 216.96C79.0093 214.817 78.1 213.704 77.452 212.916C77.352 212.815 78.404 212.067 78.2613 211.824C78.16 211.683 76.8667 210.731 76.704 210.224C76.7422 209.922 76.8101 209.624 76.9067 209.335C77.048 208.889 77.1493 208.585 77.1093 208.283C77.008 207.777 76.4613 206.381 76.3 206.24C76.4413 206.28 77.452 206.24 77.452 206.24C77.452 206.24 76.644 204.945 76.5013 204.339C76.3587 203.732 76.056 202.133 75.8947 201.831C76.2387 201.871 77.088 201.931 77.088 201.831C77.1293 201.527 76.34 201.021 76.688 200.631C76.9307 200.671 77.396 200.873 77.84 201.44C77.5973 200.792 77.1933 199.539 76.3427 199.033C76.7427 198.892 78.1027 198.527 79.296 199.235C80.4893 199.943 80.896 200.933 80.896 200.933C80.896 200.933 81.604 201.48 82.6973 202.289C83.9507 203.28 85.548 204.689 88.0973 205.687C88.644 205.991 90.0387 205.991 91.0507 205.788C91.4913 205.683 91.9138 205.513 92.304 205.283C92.4449 205.2 92.5942 205.132 92.7493 205.08C92.5319 204.644 92.2819 204.224 92.0013 203.825C92.3453 203.825 92.7493 203.867 92.7493 203.867C92.7493 203.867 92.992 203.32 91.9 202.267C92.1427 202.024 92.4467 201.867 92.4467 201.457C92.1027 201.417 91.496 200.912 91.3547 200.709C91.556 200.568 91.86 200.103 92.204 199.961C91.9 199.719 91.152 198.707 90.808 198.607C91.1366 198.485 91.4546 198.336 91.7587 198.161C91.7587 198.161 90.06 197.716 89.5133 197.352C88.9667 196.952 88.1587 196.26 87.6733 196.057C87.1667 195.855 86.2773 195.755 85.9133 195.349C86.256 195.451 86.8027 195.349 87.208 195.349C87.5107 195.349 87.6533 195.389 87.7533 195.389C87.7133 195.248 87.7133 194.944 88.5027 194.844C88.8823 194.787 89.2507 194.671 89.5947 194.5C89.5947 194.5 88.8453 194.46 87.9947 193.651C87.144 192.841 86.4373 192.195 85.952 192.093C85.4467 191.992 84.496 192.437 83.9093 192.396C83.1 192.296 82.756 191.891 82.756 191.891C82.756 191.891 80.0667 192.133 74.1 188.493C68.9413 185.337 66.696 182.547 66.696 182.547C66.2132 182.371 65.7466 182.155 65.3013 181.899C63.36 180.888 60.6693 178.784 60.7507 176.032L60.74 176.052Z" fill="#C2A44D"/>
<path fill-rule="evenodd" clip-rule="evenodd" d="M135.153 54.6519C135.621 54.8039 136.037 55.0844 136.353 55.4613C137.304 56.5533 137.911 58.6159 135.747 60.8213C136.596 61.1239 136.947 61.2213 137.688 61.1239C136.94 62.0146 135.241 63.9159 135.14 65.5746C135.039 66.9293 135.888 67.3346 135.888 67.3346C135.888 67.3346 134.593 68.8306 134.533 71.3346C135.145 70.6451 135.814 70.009 136.533 69.4333C138.031 68.2399 140.093 66.8853 141.489 66.0359C141.47 66.3919 141.518 66.7483 141.631 67.0866C141.631 67.0866 144.239 64.9426 146.431 65.8946C147.421 66.3399 146.976 67.7346 146.976 67.7346C146.976 67.7346 148.332 67.2293 149.283 68.1799C150.233 69.1306 151.577 71.5826 152.267 72.5333C152.569 72.9786 153.359 73.8279 154.167 75.1426C155.271 76.9832 156.192 78.927 156.919 80.9466C156.959 79.8946 157.221 78.2573 160.216 79.2879C163.209 80.3399 166.607 82.5453 169.459 86.8879C172.311 91.2306 173.017 96.1333 174.453 97.9999C175.909 99.7999 177.407 102.793 177.508 104.048C177.609 105.303 177.063 109.347 180.056 120.289C180.905 116.892 182.2 109.347 182.2 109.347L182.908 102.692L183.717 82.1013L162.216 64.2386L145.408 52.0413L134.465 53.0933L135.152 54.6506L135.153 54.6519Z" fill="#CAA13E"/>
<path fill-rule="evenodd" clip-rule="evenodd" d="M175.101 85.2946C175.101 85.2946 174.797 83.2946 169.741 79.8946C164.684 76.5373 160.74 76.5373 157.1 73.6853C154.308 71.4399 151.396 66.2813 149.5 64.5826C147.659 62.9039 147.356 58.0493 147.356 58.0493L153.565 52.8493L162.8 39.5013L170.607 30.9053L174.348 36.1053L179.548 42.2133L182.44 54.4706L183.492 72.4119L175.092 85.2959L175.101 85.2946Z" fill="#B59544"/>
<path fill-rule="evenodd" clip-rule="evenodd" d="M181.352 106.8C181.505 104.079 181.169 101.353 180.36 98.7507C179.027 94.604 176.113 87.2413 174.76 84.484C174.213 81.4293 174.619 81.1867 175.205 80.8427C175.792 80.4987 177.997 79.2427 179.205 74.836C180.413 70.4293 184.161 70.2853 184.161 70.2853L186.467 68.5867L189.967 77.344L193.02 85.2533L193.971 91.3013L194.679 96.4587L193.02 107.361L184.829 114.764L181.351 106.8H181.352Z" fill="#C89D3A"/>
<path fill-rule="evenodd" clip-rule="evenodd" d="M67.052 228.319V228.095C67.2222 227.988 67.3725 227.853 67.496 227.695C67.6373 227.492 67.74 227.249 67.84 227.189C68.0427 227.088 68.9933 226.789 69.4987 226.885C70.004 226.981 71.34 227.532 72.048 227.492C73.504 227.452 75.2027 226.339 77.8933 226.845C81.9387 227.593 82.8893 230.344 85.236 231.901C86.836 232.995 88.492 232.508 88.7347 232.508H89.28C89.3813 232.508 90.1293 231.659 90.5347 231.7C91.344 231.74 91.424 232.408 91.9293 232.448C93.1227 232.589 95.4293 231.841 96.5827 232.145C96.9246 232.252 97.2357 232.441 97.4892 232.694C97.7427 232.947 97.9312 233.258 98.0387 233.6C98.2813 234.348 98.0787 235.299 97.492 235.845C96.2387 236.997 95.0453 238.091 94.8027 239.045C95.1113 239.281 95.4077 239.532 95.6907 239.797C85.6829 237.247 76.0541 233.392 67.052 228.331V228.319Z" fill="#CEB052"/>
<path fill-rule="evenodd" clip-rule="evenodd" d="M174.757 187.905C174.757 187.905 177.912 183.699 179.005 181.615C180.097 179.467 175.547 152.267 175.547 152.267L184.689 122.312L184.445 112.563C184.445 112.563 184.891 103.561 185.943 99.6573C187.197 101.903 191.101 104.613 191.951 106.049C192.351 103.297 193.709 97.4933 193.508 91.304C194.256 92.456 196.056 104.047 196.056 104.047L197.856 111.853L200.203 120.147L202.812 128.905L204.369 134.953L205.259 136.409L206.008 138.957L206.716 141.709L208.759 148.161L209.959 153.46L210.909 163.068C211.116 163.804 211.265 164.554 211.355 165.313C211.395 166.365 211.213 166.972 211.213 167.155C211.213 167.337 211.557 169.46 211.416 171.059C211.213 172.659 211.213 173.911 209.959 175.059C208.704 176.207 207.916 183.068 207.916 183.068L205.671 181.572C205.671 181.572 206.116 179.528 205.064 177.668C204.012 175.808 201.969 175.423 200.816 175.727C199.664 175.969 197.359 176.332 196.609 176.98C195.901 177.627 194.163 179.629 192.564 180.54C190.564 181.74 187.305 181.835 185.567 182.239C183.807 182.639 181.865 183.839 179.821 185.232C178.219 186.27 176.527 187.162 174.765 187.899V187.899L174.757 187.905Z" fill="#CCA847"/>
<path fill-rule="evenodd" clip-rule="evenodd" d="M174.757 232.1C174.757 232.1 174.891 232.187 175.148 232.328C189.518 225.595 202.394 216.052 213.015 204.261C212.899 200.168 212.748 195.972 212.583 194.417C212.24 191.12 212.483 187.763 212.381 185.821C212.28 183.88 211.188 175.971 210.683 173.928C210.136 171.885 209.083 170.873 208.923 170.873C208.781 170.915 207.931 174.717 207.931 175.673C207.931 176.629 207.728 178.931 207.728 179.517C207.587 179.476 207.527 179.117 207.527 178.971C207.324 179.476 207.081 180.367 206.98 180.468C206.879 180.569 207.121 179.619 206.98 179.416C206.839 179.213 206.58 179.315 206.636 178.809C206.66 178.51 206.707 178.212 206.777 177.92C206.777 177.92 206.171 178.809 205.727 181.075C205.281 183.32 205.281 183.381 205.12 183.583C204.979 183.827 204.169 184.635 204.128 184.939C204.088 185.484 204.877 186.031 204.937 186.333C204.977 186.84 204.229 189.185 203.987 190.333C203.744 191.481 203.845 193.731 203.587 194.884C203.384 195.936 203.187 196.543 202.495 196.987C203 197.088 203.485 197.229 203.485 197.229C203.485 197.229 204.193 200.223 202.393 202.772C201.747 203.661 201.585 204.067 200.897 204.876C199.541 206.372 198.489 208.076 198.388 209.184C198.318 208.857 198.271 208.525 198.247 208.192C198.247 208.192 196.144 210.64 195.253 212.036C194.101 213.836 192.503 213.735 192.053 214.18C191.604 214.625 191.507 215.433 191.653 216.081C191.253 216.181 190.501 216.324 189.995 217.881C189.752 218.689 189.145 219.481 188.195 220.025C187.244 220.569 186.091 220.733 185.504 220.875C186.009 221.016 186.212 221.016 186.455 221.177C186.152 221.683 184.756 222.472 183.199 223.484C181.641 224.435 180.892 225.829 180.508 226.74C180.108 227.589 179.517 228.136 178.567 228.237C178.967 228.48 179.559 229.045 179.861 229.228C179.416 229.329 178.661 229.329 177.313 230.483C175.897 231.656 175.412 232 174.764 232.101L174.757 232.1Z" fill="#C39D3C"/>
<path fill-rule="evenodd" clip-rule="evenodd" d="M146.613 241.473C147.388 240.93 148.227 240.486 149.111 240.149C152.265 238.896 155.603 238.653 156.917 238.249C158.172 237.849 159.163 237.297 160.72 236.995C160.679 237.349 160.644 237.683 160.607 237.997C156.015 239.441 151.34 240.602 146.607 241.473H146.613Z" fill="#D2BA6B"/>
<path fill-rule="evenodd" clip-rule="evenodd" d="M204.8 158.496C204.8 158.496 204.153 161.995 203 164.2C201.847 166.405 200.6 169.459 200.6 169.459C200.608 168.771 200.689 168.085 200.843 167.415C199.387 168.264 195.847 170.308 194.843 171.217C193.892 172.067 192.293 173.564 191.889 174.272C192.84 171.481 193.831 168.973 193.993 167.82C192.537 168.872 185.74 174.475 182.201 178.176L171.177 187.096C169.905 187.782 168.595 188.396 167.253 188.933C165.353 189.741 163.108 190.429 161.449 191.077C161.895 189.884 162.601 188.831 163.593 187.82C164.645 186.829 167.8 183.411 168.285 181.82C168.731 180.161 168.832 179.171 168.245 177.775C167.699 177.916 166.445 177.977 165.596 178.22C164.747 178.463 163.836 179.372 163.836 179.372C163.836 179.372 164.483 175.671 165.879 172.172C164.827 172.212 163.027 172.515 163.027 172.515C163.027 172.515 165.535 168.308 169.827 165.376C168.512 165.656 167.226 166.055 165.984 166.568C163.476 167.62 160.725 169.177 158.683 170.027C159.835 168.427 167.925 156.88 172.74 146.119C177.54 135.379 179.333 132.628 180.385 126.864C180.931 124.012 180.785 119.797 180.931 116.023C181.072 112.28 181.537 108.923 181.235 106.677C182.488 108.235 187.181 112.624 187.343 122.435C187.484 132.244 182.853 145.493 177.937 152.632C179.137 152.976 182.247 153.381 185.441 147.832C188.636 142.283 188.597 140.733 189.751 138.427C189.892 139.58 189.851 139.984 189.851 139.984C189.851 139.984 194.504 134.341 196.708 127.241C197.153 130.296 198.468 132.987 196.404 138.589C194.564 143.645 192.157 144.88 192.157 144.88C192.157 144.88 193.351 144.677 195.109 143.625C195.413 144.373 195.353 145.225 195.859 145.527C196.364 145.828 197.052 146.336 197.153 146.821C197.699 146.012 198.548 144.98 198.812 144.212C198.609 145.812 198.468 152.808 199.212 156.368C200.771 156.227 202.368 156.125 203.46 153.313C202.712 156.065 202.712 157.723 203.217 160.069C204.047 159.504 204.795 158.492 204.795 158.492L204.8 158.496Z" fill="#C0993A"/>
<path fill-rule="evenodd" clip-rule="evenodd" d="M152.245 47.0066C152.245 47.0066 150.688 47.6532 148.039 47.6532C145.733 47.6532 146.38 46.7639 142.78 46.7639C137.239 46.7639 117.881 49.9639 114.483 49.9186C112.277 49.8786 121.925 50.8692 121.925 50.8692L146.583 51.2132L151.537 50.8132L153.379 47.0666L152.245 47.0066Z" fill="#A88F33"/>
<path fill-rule="evenodd" clip-rule="evenodd" d="M88.3095 95.2067C88.3095 95.2067 85.1535 97.6134 83.8188 99.4547C82.4841 101.296 81.7761 102.508 80.2588 104.005C80.615 104.019 80.9708 103.971 81.3108 103.864C81.3108 103.864 81.3108 104.264 81.0681 104.369C81.2778 104.346 81.4901 104.37 81.6894 104.439C81.8888 104.508 82.0701 104.621 82.2201 104.769C81.7748 105.012 80.5615 106.227 81.5121 107.663C82.2201 108.755 83.7175 108.855 83.7175 108.855C83.7175 108.855 83.3735 109.847 84.8095 109.745C87.9041 109.604 91.3628 108.248 92.9601 108.592C94.5601 108.992 95.4695 109.139 96.6015 111.101C97.8015 113.043 98.8468 113.347 98.8468 113.347C98.8468 113.347 99.5548 111.545 99.3935 108.856C99.974 107.406 100.296 105.866 100.344 104.305L99.2921 96.5587L94.7015 90.7534L88.7548 94.0507L88.3095 95.2028V95.2067Z" fill="#E3C571"/>
<path fill-rule="evenodd" clip-rule="evenodd" d="M93.9519 94.0533C93.9519 94.0533 94.3972 95.1053 96.2586 95.2053C96.0559 95.6506 96.0559 95.7119 96.1172 96.0546C96.1572 96.3986 96.2172 96.9039 96.2172 96.9039C96.4222 96.8048 96.6074 96.6692 96.7639 96.5039C96.8652 96.9493 96.6626 97.6559 96.7639 98.1626C96.8264 98.4707 96.9281 98.7696 97.0666 99.0519C97.0961 98.9827 97.1299 98.9155 97.1679 98.8506C97.2079 98.7493 97.5679 99.9426 98.5639 100.851C98.563 100.711 98.5974 100.573 98.6639 100.451C98.6792 100.704 98.763 100.949 98.9066 101.159C98.832 101.123 98.764 101.075 98.7052 101.017C98.7052 101.017 98.8052 104.217 99.3519 105.872C99.4433 105.765 99.5245 105.65 99.5946 105.528C99.5946 105.428 99.5546 106.419 99.4532 107.128C99.3119 107.836 99.4132 108.827 99.4132 108.827C99.7779 108.539 100.179 108.301 100.605 108.119C101.212 107.875 102.205 107.127 102.811 105.468C103.162 104.529 103.432 103.561 103.62 102.576C103.815 102.952 103.95 103.357 104.02 103.776C104.061 104.281 105.012 104.019 105.012 104.019L105.215 101.813L106.415 96.8173L107.507 93.7226L112.765 85.5319L122.267 78.2146L130.56 80.1159L137.557 70.6093L125.503 63.3679L114.095 64.5613L103.741 78.9013L95.4492 91.9079L93.9519 94.0519V94.0533Z" fill="#D8B65B"/>
<path fill-rule="evenodd" clip-rule="evenodd" d="M153.701 73.3013C153.701 73.3013 152.993 73.4427 150.951 74.5013C148.908 75.56 147.492 75.896 146.703 77.4533C145.913 79.0107 145.853 80.2453 145.853 80.2453C145.853 80.2453 147.249 79.6387 148.059 79.436C148.908 79.2347 149.859 79.2946 149.757 79.6386C149.66 79.8745 149.525 80.093 149.357 80.2853C149.357 80.2853 150.957 80.2453 150.915 81.0347C150.872 81.824 150.612 82.6933 150.309 83.0773C150.005 83.4773 148.752 84.0693 148.611 84.5347C148.267 85.4853 148.752 85.5253 148.569 86.2933C148.428 87.0427 147.761 88.4986 145.576 91.0466C143.331 93.596 142.376 95.396 142.376 95.396C142.376 95.396 141.284 93.3533 140.717 91.5933C140.317 91.7946 138.169 92.988 138.169 92.988L133.193 75.6546L133.293 74.5013C133.293 74.5013 133.739 73.956 133.84 72.944C133.092 72.7013 132.991 72.4987 131.999 71.5493C131.007 70.6 130.199 69.4453 128.541 68.656C128.299 68.2106 127.995 67.6053 126.781 67.3613C125.568 67.1173 124.84 66.9173 124.84 66.9173C124.84 66.9173 125.487 66.6733 125.791 66.168C125.041 66.2693 124.436 66.512 122.797 66.472C121.139 66.4307 120.956 66.3707 120.047 66.512C119.137 66.6533 118.047 67.0587 117.64 65.6627C117.195 65.3187 116.244 65.6227 115.435 66.8147C114.625 68.0066 114.343 68.9587 112.785 69.424C112.676 70.1105 112.435 70.7695 112.077 71.3653C111.632 72.1146 110.924 72.8627 109.973 73.9747C108.476 75.7347 108.719 78.6266 106.332 80.832C103.925 83.036 106.732 74.7226 106.732 74.7226L110.575 65.5227L121.517 54.8227L138.508 53.6707L140.167 62.4707L148.46 65.3227L153.699 73.312L153.701 73.3013Z" fill="#D3AE4D"/>
<path fill-rule="evenodd" clip-rule="evenodd" d="M156.392 75.2426L149.252 64.948L144.256 61.104C144.256 61.104 140.696 54.552 140.453 54.3493C140.251 54.208 136.893 53.844 134.749 53.7026L135.149 54.6933C135.617 54.8453 136.033 55.1257 136.349 55.5026C137.3 56.5946 137.907 58.6573 135.743 60.8626C136.592 61.1653 136.943 61.2626 137.684 61.1653C136.936 62.056 135.237 63.9573 135.136 65.616C135.035 66.9706 135.884 67.3746 135.884 67.3746C135.884 67.3746 134.589 68.872 134.529 71.3746C135.141 70.6852 135.81 70.0491 136.529 69.4733C138.027 68.2733 140.089 66.924 141.485 66.0746C141.466 66.4311 141.514 66.7879 141.627 67.1266C141.627 67.1266 144.235 64.9826 146.427 65.9333C147.417 66.3786 146.972 67.7746 146.972 67.7746C146.972 67.7746 148.328 67.2693 149.279 68.22C150.229 69.1706 151.584 71.6173 152.272 72.5693C152.575 73.0146 153.364 73.864 154.172 75.1773C155.276 77.0182 156.198 78.9626 156.924 80.9826C156.964 80.1733 157.127 79.0413 158.524 79.0413L156.4 75.2386L156.392 75.2426Z" fill="#CAA13E"/>
<path fill-rule="evenodd" clip-rule="evenodd" d="M49.3533 104.491C49.3533 104.491 48.8479 103.236 49.3533 100.789C49.8586 98.3426 50.6479 97.1893 50.9106 93.5893C51.1733 89.9893 53.5199 85.4986 53.5199 85.4986L60.0119 82.5466L64.6039 83.8L65.9586 89.9493L60.1533 93.1493C60.1533 93.1493 59.8506 94.504 58.2119 95.596C56.5733 96.688 54.3079 97.5373 53.7626 98.6506C53.4366 99.3324 53.1987 100.053 53.0546 100.795C53.0546 100.795 51.3959 100.451 50.4053 101.543C49.3533 102.656 49.3933 103.647 49.3533 104.496V104.491Z" fill="#F4EFC8"/>
<path fill-rule="evenodd" clip-rule="evenodd" d="M62.46 102.852C62.46 102.852 61.9133 103.196 61.5093 104.052C61.1093 103.405 60.1533 99.5614 60.1133 96.1028C60.0733 92.6441 59.8666 91.7868 60.6666 90.5948C61.4666 89.4028 64.604 88.1468 64.1586 86.0001C63.7133 83.9574 61.852 83.1081 59.5666 83.6948C57.9666 84.0948 56.776 87.4974 55.1173 89.1961C53.8626 90.4908 52.3666 90.2881 51.9626 90.9961C51.416 91.9468 51.9213 92.8974 51.76 93.5041C51.7186 93.7068 51.2133 94.7988 50.3026 96.1134C48.4626 98.7628 45.348 102.505 44.9426 105.863C45.084 103.961 44.984 103.921 45.4893 101.817L45.1853 101.312L47.1853 94.7588L48.48 89.3588L51.3733 80.3161L56.4693 71.0734L61.4253 65.5308L66.5826 65.8748L67.1893 73.6214L70.1426 88.1654L76.352 95.8108L66.4 102.508L62.456 102.852H62.46Z" fill="#EBCC73"/>
<path fill-rule="evenodd" clip-rule="evenodd" d="M65.5546 105.6C65.5546 105.6 64.7053 105.803 64.4013 105.641C64.0973 105.48 63.7959 105.297 63.8959 105.095C63.9959 104.892 64.5426 104.549 64.5426 104.387C64.5538 104.24 64.5073 104.094 64.413 103.981C64.3186 103.868 64.1839 103.796 64.0373 103.78C63.5719 103.72 63.4306 104.023 63.4306 104.023C63.4306 104.023 62.9853 103.68 62.6226 103.623C62.8372 103.596 63.0531 103.583 63.2693 103.581C62.7103 103.328 62.1174 103.158 61.5093 103.076C62.0146 102.773 63.0066 101.883 63.6533 101.883C64.2999 101.883 64.7053 101.783 64.6039 101.439C64.5026 101.095 63.9973 100.589 63.4519 100.387C63.6533 100.144 63.7959 99.78 63.3106 98.7867C62.8039 97.796 63.0066 97.128 63.1693 96.8867C63.3106 96.5827 63.8159 96.0374 64.0586 95.6934C64.3013 95.3494 64.5039 94.884 64.9079 94.6414C65.1106 94.5 65.7573 94.2414 66.4053 93.9947C67.1133 93.752 67.6999 93.448 68.1039 93.752C68.5493 94.0547 68.3466 94.46 68.3466 94.46C68.3466 94.46 69.7426 93.9534 70.9959 94.6014C72.2506 95.2067 75.3053 95.592 75.3053 95.592L76.3999 97.7974L69.1586 104.007L66.1653 105.504L65.5586 105.604L65.5546 105.6Z" fill="#E5C66B"/>
<path fill-rule="evenodd" clip-rule="evenodd" d="M75.6067 95.4494C75.6067 95.4494 73.3614 96.9468 72.8561 97.4921C73.1587 97.5334 73.6641 97.7361 73.4614 98.0388C73.2188 98.3414 71.7628 99.3934 70.9534 100.385C70.1041 101.376 69.2948 102.631 69.0121 103.237C68.7094 103.783 66.4027 105.381 65.6147 105.583C67.2734 105.583 70.6107 103.54 71.8641 103.54C71.8241 104.147 72.2081 104.835 72.9161 104.895C73.6241 104.955 75.6668 105.34 78.4174 103.641C81.1681 101.983 80.2588 100.748 81.4108 99.9401C83.6161 98.4828 84.5054 97.1881 85.7188 96.3801C86.9321 95.5721 87.5601 95.3881 87.5601 95.3881C87.5601 95.3881 87.6001 94.7814 87.9601 94.8428C88.0586 94.8541 88.1522 94.8921 88.2307 94.9527C88.3092 95.0133 88.3696 95.0943 88.4054 95.1868C88.4054 95.1868 90.5094 93.6894 93.2054 93.2854C93.1425 93.2573 93.0922 93.207 93.0641 93.1441C93.0641 93.1441 93.2654 93.0428 93.3068 92.9414C93.3068 92.9414 93.4481 92.7388 93.5494 92.8401C93.6508 92.9414 93.7921 93.6894 93.9948 93.9934C94.4401 93.7908 95.2894 91.8894 95.2894 91.8894L97.3334 86.0441V80.7041L95.7334 81.0081L83.7334 86.1041L76.4508 93.6494L75.6014 95.4494H75.6067Z" fill="#E6BD62"/>
<path fill-rule="evenodd" clip-rule="evenodd" d="M110.153 69.2559C110.802 69.0984 111.425 68.8459 112 68.5065C111.757 69.1545 111.757 69.8625 110.705 71.3999C109.653 72.9372 109.613 73.1599 108.764 74.7572C107.915 76.4159 107.813 78.8026 107.004 79.8532C107.367 79.677 107.756 79.5612 108.156 79.5106C108.156 79.5106 107.348 80.2185 107.004 80.9665C106.66 81.7145 106.053 83.2719 104.557 84.2239C103.061 85.1759 101.159 85.7812 99.116 88.0266C97.072 90.2306 94.9693 93.0226 93.916 94.0266C94.4627 93.0759 95.2107 91.1745 95.4133 89.9212C95.616 88.6679 95.372 87.1692 95.716 85.5119C96.06 83.8546 96.06 82.6599 97.716 79.7665C99.372 76.8732 102.207 66.8212 102.207 66.8212L108.315 64.8799L110.156 69.2492L110.153 69.2559Z" fill="#B6933F"/>
<path fill-rule="evenodd" clip-rule="evenodd" d="M105.744 65.5547C105.744 65.5547 103.904 68.204 103.399 70.5507C102.893 72.8974 103.357 72.6947 103.055 73.848C102.874 74.5512 102.874 75.2888 103.055 75.992C103.692 74.9654 104.564 74.1053 105.6 73.4827C107.34 72.432 108.756 71.6827 109.6 70.7934C110.449 69.8427 111.157 68.2854 112.997 67.092C112.249 66.9907 111.197 66.6467 110.997 66.692C111.747 65.8427 113.991 64.548 116.256 62.9907C118.501 61.3907 118.36 60.7454 122.001 59.148C120.808 59.3507 120.241 59.0467 119.249 59.148C119.649 58.2987 121.049 57.8934 122.449 56.4987C123.849 55.104 121.56 53.04 121.56 53.04L110.893 59.492L105.736 65.56L105.744 65.5547Z" fill="#C49937"/>
<path fill-rule="evenodd" clip-rule="evenodd" d="M76.8 60.7399L77.0427 58.7986L80.0974 53.9039L83.2934 45.3079V33.5559L83.0507 26.7599L83.556 22.3092L83.94 20.8946L84.3454 20.3479L86.9534 21.7026L90.5547 26.5972L90.8987 36.0439L87.3987 50.9506L77.4067 61.8532L76.8 60.7399Z" fill="#DFC068"/>
<path fill-rule="evenodd" clip-rule="evenodd" d="M84.7492 19.8014C84.7492 19.8014 83.1492 19.8427 82.8079 26.4974C82.4666 33.152 82.3012 36.6507 82.0586 39.948C81.8159 43.2454 81.2506 45.2467 80.9666 47.1894C80.6826 49.132 80.5212 51.78 79.6119 53.3987C79.2119 54.1467 78.3572 56.4934 76.3546 58.2534C74.1092 60.1947 70.7546 61.5507 70.2466 61.652C69.3559 61.8534 64.8452 62.2987 63.0052 63.3107C62.3586 63.6547 61.2452 64.0587 60.0119 65.212C57.5639 67.416 54.3079 71.36 51.9612 76.1134C48.3612 83.2134 44.7612 103.257 44.7612 103.257L45.5706 101.903C45.5706 101.903 45.6719 100.103 47.4719 96.9467C49.2319 93.792 48.7266 90.252 51.1732 84.204C52.1239 81.8987 53.3172 78.9054 54.7732 76.356C57.0799 72.2094 59.8706 68.6494 62.6826 66.708C67.2732 63.5534 72.3306 62.8654 72.3306 62.8654L77.7719 59.2654C77.7719 59.2654 78.7226 57.4254 79.9772 55.3214C81.7359 52.3694 83.9772 49.072 84.4666 44.2787C85.2159 37.1787 83.4146 32.5267 83.5159 28.32C83.6172 24.1134 83.6572 21.0187 84.5079 20.2694C85.3586 19.52 84.7506 19.804 84.7506 19.804L84.7492 19.8014Z" fill="#A88F33"/>
<path fill-rule="evenodd" clip-rule="evenodd" d="M84.7492 51.5572C84.7492 51.5572 87.1492 45.6506 88.2479 40.4119C88.4506 39.3599 88.8546 38.3092 88.9559 37.4599C89.4612 32.5039 89.6026 30.4612 88.9559 27.7506C88.4506 25.7506 86.5092 23.9479 85.4972 22.5506C84.5066 21.0932 84.0412 20.5506 84.2439 20.2439C84.4466 19.9372 85.2346 19.4359 86.0026 19.4959C86.8189 19.5197 87.6219 19.7092 88.3628 20.053C89.1036 20.3969 89.7667 20.8878 90.3119 21.4959C91.8692 23.2959 93.1026 29.4052 93.1026 29.4052L94.3999 37.4666L97.6972 47.6199L84.7519 51.5652L84.7492 51.5572Z" fill="#C99E3D"/>
<path fill-rule="evenodd" clip-rule="evenodd" d="M107.301 45.4093C107.301 45.4093 106.856 45.6106 106.048 45.4093C106.082 45.7395 106.025 46.0728 105.882 46.3725C105.739 46.6722 105.517 46.9267 105.239 47.108C104.389 46.764 96.4386 47.452 96.4386 47.452C96.4386 47.452 92.7372 46.804 91.5839 41.9093C90.7759 38.652 92.1906 34.1626 91.7252 31.2093C91.0172 26.86 90.0266 26.0093 89.9252 24.656C89.8239 23.3026 89.7226 22.9573 89.7226 22.108C89.2772 22.0066 89.0146 21.8653 88.5706 21.8653C88.4692 21.4653 88.6706 21.116 88.2266 20.408C88.4692 20.5093 90.1279 20.712 92.0692 22.552C93.6692 24.0493 93.6692 24.5946 93.9106 24.8986C94.2132 25.2013 96.6612 27.2986 97.7132 29.3893C98.7652 31.48 100.808 38.1466 101.273 39.2386C101.415 39.684 101.719 40.1293 102.473 41.14C103.647 42.5973 105.365 45.0066 107.307 45.4066L107.301 45.4093Z" fill="#B58634"/>
<path fill-rule="evenodd" clip-rule="evenodd" d="M94.196 25C95.4213 26.9793 96.5221 29.0331 97.4921 31.1493C98.6854 33.8387 99.3934 36.044 100.891 37.844C100.081 35.4987 98.6454 30.8867 97.796 29.248C96.8454 27.5147 94.904 25.648 94.196 25.0013V25Z" fill="#A88F33"/>
<path fill-rule="evenodd" clip-rule="evenodd" d="M80.4412 58.2533C80.4412 58.2533 78.3986 58.7586 74.5959 60.7613C73.3412 61.408 72.1492 61.9533 70.9959 62.46C67.9999 63.8146 64.7866 65.0666 62.2372 65.7573C62.4399 66 62.5399 66.1 62.5399 66.1C62.5399 66.1 62.5399 67.092 63.0866 67.6573C62.7839 67.9613 58.7372 70.712 59.9319 79.9146C60.7399 79.612 61.6906 79.2066 61.8319 79.2066C62.0759 79.248 62.1359 79.9146 62.4386 79.9146C62.7412 79.9146 63.7332 79.5146 64.7852 78.1546C64.7452 78.7013 64.1386 84.2026 67.3946 87.904C68.0012 87.196 69.5386 84.8493 69.5386 84.8493L69.5786 84.1013C69.5786 84.1013 69.7199 81.4919 70.5706 79.1053C71.4212 76.7186 73.0786 74.9586 73.0786 74.9586L81.7332 62.6L80.4386 58.252L80.4412 58.2533Z" fill="#E6C367"/>
<path fill-rule="evenodd" clip-rule="evenodd" d="M72.3507 76.4C71.9544 76.68 71.5179 76.898 71.056 77.0466C70.9147 76.5413 70.712 74.8013 71.9054 73.1027C73.3014 71.0587 76.3547 68.4093 77.204 66.3026C77.7507 64.9466 77.508 61.5493 82.3627 57.2C87.2174 52.8506 89.1174 51.3546 89.1174 51.3546L96.9654 47.4106L106.613 51.2133L101.82 70L98.0987 78.8L83.2987 76.0093L72.3494 76.4H72.3507Z" fill="#DCBA5A"/>
<path fill-rule="evenodd" clip-rule="evenodd" d="M78 71.2986L79.8413 68.9933V67.3546C79.8413 67.3546 81.884 66.808 84.088 64.5626C86.292 62.3173 89.3467 58.0093 92.0373 58.272C94.728 58.576 94.9907 64.1173 95.092 65.676C95.1933 67.2346 95.5373 70.772 96.0827 72.6746C96.6893 74.576 89.5293 81.776 89.5293 81.776L84.6667 85.4773L78 71.2986Z" fill="#E9CE77"/>
<path fill-rule="evenodd" clip-rule="evenodd" d="M83.6973 90.4932C83.6973 90.4932 85.1946 88.1465 84.0973 87.6412C84.7439 86.1852 85.9373 84.6479 85.9373 84.6479C85.9373 84.6479 86.7866 82.5452 89.5373 79.9559C92.2879 77.3665 93.9879 75.6466 94.4333 73.9079C94.7078 72.7748 94.8572 71.6149 94.8786 70.4492C95.176 70.6922 95.4941 70.9085 95.8293 71.0959C96.2746 71.2985 98.3773 73.0372 98.0746 76.5372C97.7719 80.0372 96.4746 81.4932 96.4746 81.4932C96.4746 81.4932 95.2213 82.7466 94.3319 83.3946C93.3799 84.0412 93.0373 84.7892 91.4386 84.8506C91.6029 84.7199 91.7876 84.6172 91.9853 84.5465C91.9853 84.5465 90.3266 84.3452 89.4359 85.1532C88.5453 85.9612 86.6519 88.4505 85.7013 89.1999C84.7506 89.8065 83.7013 90.4946 83.7013 90.4946L83.6973 90.4932Z" fill="#CDAE50"/>
<path fill-rule="evenodd" clip-rule="evenodd" d="M150.951 51.1521C148.561 50.2811 146.05 49.7899 143.508 49.6961C139.26 49.5547 133.051 49.7974 126.963 49.8374C120.409 49.8774 114.463 47.5921 106.211 47.1881C104.856 46.3787 101.411 42.8387 90.656 50.3427C91.3027 50.3027 98.464 48.6841 100.951 51.8001C103.459 54.8947 102.751 60.1534 102.408 61.4067C101.76 64.1987 99.656 68.2641 98.808 71.1161C97.96 73.9681 98.16 75.4667 97.5533 77.4667C96.9467 79.4667 95.612 80.4601 96.4 82.7654C97.452 82.1187 98 82.1187 99.7573 78.1747C101.515 74.2307 101.153 71.4187 104.067 68.0814C106.919 64.7241 111.667 60.1321 113.472 58.9787C115.277 57.8254 129.612 50.3827 144.621 57.4827C148.241 57.0987 150.952 51.1507 150.952 51.1507L150.951 51.1521Z" fill="#D2A83E"/>
<path fill-rule="evenodd" clip-rule="evenodd" d="M96.7027 48.4C96.6878 48.248 96.6542 48.0984 96.6027 47.9547C96.4623 47.6589 96.278 47.386 96.056 47.1453C96.056 47.1453 92.496 46.4987 90.696 46.7C87.54 47.044 84.688 50.948 83.3533 52.9507C82.0187 54.9533 80.36 58.0467 78.56 59.6453C78.5797 59.4896 78.5438 59.3319 78.4587 59.2C78.4587 59.2 78.56 59.3413 78.3587 59.544C78.1573 59.7466 78.156 59.8466 78.2573 59.944L78.5613 60.2467C78.6613 60.2467 81.4533 58.992 85.256 55.4467C89.3013 51.7453 92.396 49.8467 94.0147 49.196C94.8779 48.8291 95.7802 48.5621 96.704 48.4V48.4H96.7027Z" fill="#C29637"/>
<path fill-rule="evenodd" clip-rule="evenodd" d="M165.757 33.1919C165.757 33.1919 165.109 33.9999 164.3 34.8906C162.5 36.7919 160.153 38.9346 158.151 41.1399C156.251 43.2439 154.107 44.8826 151.699 47.6332C149.291 50.3839 146.499 53.4372 145.792 54.3279C145.145 55.2186 144.64 56.6746 144.64 57.4226C144.296 57.1799 143.892 56.9172 143.892 56.9172C144.062 57.2348 144.266 57.5333 144.499 57.8079C145.004 58.5159 145.792 59.4079 146.197 59.9519C146.695 60.6444 147.052 61.4276 147.248 62.2572C147.491 62.2972 149.048 62.6012 150.991 59.4052C152.933 56.2092 155.48 52.7106 155.48 52.7106L159.525 46.7026L162.075 41.6066L165.275 35.9026L165.761 33.1919H165.757Z" fill="#AC8132"/>
<path fill-rule="evenodd" clip-rule="evenodd" d="M169.904 29.1067C169.904 29.1067 167.456 31.1067 166.505 32.3067C165.555 33.5067 163.305 36.656 163.305 36.656L164.115 36.5547L168.221 32.9147L169.821 30.0627L169.903 29.112L169.904 29.1067Z" fill="#A88F33"/>
<path fill-rule="evenodd" clip-rule="evenodd" d="M169.155 189.847C169.155 189.847 169.115 188.188 170.045 187.197C170.996 186.205 173.403 184.749 175.749 179.288C178.096 173.827 178.357 172.593 178.357 172.593C178.357 172.593 174.151 176.193 171.557 177.043C172.164 175.788 172.508 174.899 172.812 174.251C172.468 173.948 171.012 173.604 170.871 173.443C171.679 172.633 172.124 170.651 173.763 169.336C175.867 167.736 179.709 164.987 182.696 162.536C185.683 160.085 191.555 154.385 192.304 152.727C192.749 153.373 192.849 153.777 192.849 153.777C192.849 153.777 189.897 157.621 188.36 160.068C187.004 162.172 187.105 163.365 187.105 163.365L189.897 162.165C189.897 162.165 190.705 165.159 187.045 169.711C188.645 169.104 189.291 169.468 190.2 168.961C188.703 169.913 186.64 171.208 184.699 174.767C182.797 178.327 180.208 182.473 175.84 185.061C171.592 187.792 169.144 189.835 169.144 189.835L169.155 189.847Z" fill="#A67A2E"/>
<path fill-rule="evenodd" clip-rule="evenodd" d="M158.192 53.2572C158.192 53.2572 156.533 56.7146 156.291 59.4052C156.251 60.0532 156.088 60.5586 156.088 61.3066C156.048 63.7132 156.229 66.4039 155.688 67.6572C155.485 67.1519 155.384 66.8079 155.181 66.6066C154.879 67.4559 154.332 70.1052 153.887 71.0959C153.685 70.4492 153.24 68.2039 153.281 65.5546C153.323 62.9052 153.381 62.3986 153.381 61.8532C153.281 62.6612 152.735 63.7546 152.532 64.4012C152.229 63.8559 151.885 63.1479 151.48 62.5612C151.237 62.9612 150.935 63.5519 150.672 63.8559C150.631 63.6132 150.531 62.9652 150.469 62.0559C150.429 61.0039 150.368 59.6492 150.429 59.3652C150.529 58.8199 151.38 56.6759 153.18 54.7132C155.324 52.3666 157.529 47.8572 158.176 46.4612C158.823 45.0652 161.573 39.2612 161.573 39.2612H163.677L160.623 46.2186C160.623 46.2186 158.783 50.0212 157.832 51.4186C156.881 52.8159 154.879 56.8199 153.988 58.3772C154.635 57.5279 155.181 57.0826 155.829 56.2732C156.456 55.7066 158.195 53.2599 158.195 53.2599L158.192 53.2572Z" fill="#8C6228"/>
<path fill-rule="evenodd" clip-rule="evenodd" d="M169.944 28.8428C169.6 29.9005 169.057 30.8827 168.344 31.7361C167.089 33.2334 164.399 35.2348 163.085 36.8321C161.885 38.3894 159.485 42.6374 160.576 47.6734C160.976 46.5814 161.729 44.4174 163.732 41.9694C165.735 39.5214 167.879 36.7108 168.932 34.5268C169.983 32.3214 170.124 30.5828 170.124 30.5828L170.524 30.0774L170.281 28.9241L169.937 28.8428H169.944Z" fill="#CBA94C"/>
<path fill-rule="evenodd" clip-rule="evenodd" d="M210.903 163.005C210.903 163.005 210.093 160.801 209.851 158.799C209.608 156.796 210.251 156.399 209.507 154.107C209.061 152.711 208.253 152.907 208.051 152.711C207.848 152.515 207.707 150.405 207.747 149.252C207.787 148.099 207.707 146.603 207.504 145.955C207.201 145.712 206.999 145.509 206.553 144.013C206.048 142.516 205.805 141.768 205.563 141.324C205.32 140.88 204.611 140.475 204.611 140.029C204.611 139.139 205.42 138.675 205.42 138.429C205.38 137.924 204.773 138.329 204.611 138.187C204.409 137.944 205.117 136.488 204.855 136.285C204.753 136.185 204.045 137.035 203.863 136.792C203.66 136.548 203.417 134.141 203.053 132.544C202.711 130.987 202.345 129.855 202.305 129.389C202.265 128.944 199.513 121.096 198.847 119.195C198.309 117.588 197.857 115.954 197.492 114.3C197.289 113.349 197.148 111.407 197.047 111.609C196.945 111.812 197.007 112.803 196.844 112.763C196.703 112.721 196.197 109.264 196.036 108.717C195.895 108.171 195.044 106.317 194.836 104.976C194.633 103.62 194.189 100.08 193.885 97.6733C193.581 95.2667 193.44 94.276 193.44 93.6733C193.49 92.1993 193.409 90.7237 193.197 89.264C192.797 86.7147 191.997 83.62 191.296 81.8213C189.941 78.4227 186.34 69.7253 185.696 67.5613C185.696 67.0147 186.404 67.3187 186.404 67.3187C186.404 67.3187 188.163 71.728 189.457 75.1253C190.712 78.524 191.905 81.5173 192.209 81.8213C192.452 82.124 194.353 85.4613 195.203 90.9227C196.052 96.384 196.355 101.42 196.861 104.777C197.104 106.377 197.307 108.075 197.812 109.773C198.357 111.615 199.207 113.516 200.32 116.428C201.271 118.876 201.979 120.919 202.363 122.679C202.808 124.924 202.808 126.623 203.071 127.736C203.315 128.687 203.677 130.587 204.528 133.336C205.379 136.085 206.631 139.627 207.48 141.831C209.14 146.24 209.88 149.921 210.131 151.884C210.352 153.907 211.101 160.905 210.899 163.008L210.903 163.005Z" fill="#A88F33"/>
<path fill-rule="evenodd" clip-rule="evenodd" d="M170.045 28.5999L169.944 28.8426C169.944 28.8426 170.247 28.9439 170.187 29.3492C170.191 29.9038 170.157 30.458 170.085 31.0079C169.985 31.7159 169.783 32.2612 169.743 32.7066C169.743 33.6572 169.884 34.7492 168.543 37.4599C168.143 38.2079 167.896 38.8546 167.693 39.2999C167.188 40.3919 167.087 40.5546 166.641 41.0599C167.349 40.6599 169.899 39.0599 171.192 39.2999C170.303 39.8052 168.947 40.7972 168.097 42.0919C168.3 42.1319 169.149 42.2946 170.497 42.0919C172.743 41.7479 175.251 40.9386 177.455 41.0999C179.863 41.2412 178.912 38.2079 178.912 38.2079L176.133 32.0999L170.875 28.3999L170.045 28.6012V28.5999Z" fill="#BE9C44"/>
<path fill-rule="evenodd" clip-rule="evenodd" d="M183.759 74.3533C183.759 74.3533 181.412 72.0066 180.461 63.9533C179.511 55.8626 179.713 43.9533 179.713 43.9533L177.812 39.3013C177.812 39.3013 177.412 36.2067 176.416 35.0547C175.42 33.9027 173.464 31.96 172.573 31.0093C171.683 30.0587 170.672 28.764 170.065 28.5613C170.368 28.056 171.724 25.204 176.921 25.164C182.119 25.124 183.721 28.016 184.264 29.068C184.807 30.12 187.257 34.668 188.167 43.3347C189.016 51.9906 189.057 52.6386 188.916 55.632C188.815 57.2906 188.268 61.1333 187.316 65.2386C186.447 68.7186 185.496 72.6026 183.756 74.3613L183.759 74.3533Z" fill="#A17C34"/>
<path fill-rule="evenodd" clip-rule="evenodd" d="M176.4 81.2507C177.182 81.3071 177.963 81.1308 178.645 80.744C179.393 80.704 182.104 81.048 184.187 78.3987C184.328 79.004 184.693 80.644 183.741 82.1C184.248 81.5933 184.996 81.392 185.097 81.2507C185.137 81.9987 185.845 84.304 182.852 89.9067C183.66 89.0173 184.611 89.0573 185.46 88.956C185.501 90.008 186.067 93.5467 184.571 95.4493C183.58 96.744 181.961 96.3387 181.961 96.3387C181.985 96.0561 181.985 95.772 181.961 95.4893C181.921 94.9427 181.719 94.3973 181.861 94.0333C181.079 93.6761 180.367 93.1826 179.757 92.576C177.997 90.9173 175.712 88.0867 175.551 85.9827C175.348 83.636 177.452 83.1307 177.452 83.1307C177.276 82.973 177.125 82.7885 177.007 82.584C176.905 82.2413 176.804 81.6947 176.4 81.2507V81.2507Z" fill="#8C6228"/>
<path fill-rule="evenodd" clip-rule="evenodd" d="M160.8 55.8052C160.8 55.8052 160.699 55.6639 160.153 56.3105C160.255 55.6639 160.356 55.0559 160.396 54.4692C160.654 53.9261 160.988 53.4224 161.388 52.9732C161.084 53.5785 160.881 54.1252 160.881 54.1252C160.881 54.1252 161.631 52.7292 162.723 51.8799C163.471 51.2732 164.421 50.9905 164.825 50.4239C165.271 49.8172 165.169 49.7159 165.271 49.6145C165.271 49.6145 166.263 48.9679 167.78 47.0652C167.981 46.8225 168.285 46.5599 168.488 46.3172C168.831 46.1759 169.64 45.8119 170.591 45.3252C171.583 44.7799 172.695 44.0319 173.383 43.7252C174.737 43.1185 176.175 43.1799 176.841 42.2279C177.347 42.0865 177.892 40.5692 177.792 39.2759C178.54 39.5785 182.383 41.9652 183.699 47.1839C184.649 50.8852 182.949 56.5892 182.241 59.3412C181.533 62.0932 181.433 64.1345 180.441 65.3879C179.187 67.0479 175.143 69.3879 174.151 70.5465C173.301 71.4972 170.753 73.9039 170.853 75.6425C170.955 76.9372 172.552 77.6425 172.897 77.8879C173.243 78.1332 173.24 78.4345 173.888 78.2879C174.536 78.1412 174.777 77.8425 175.041 77.8425C175.344 77.8825 175.344 77.9439 175.485 77.9439C175.588 77.9408 175.69 77.927 175.789 77.9025C175.789 77.9025 175.688 79.7439 171.38 80.3025C171.076 80.3439 170.773 80.4439 170.388 80.5052C170.895 80.2625 171.197 80.2625 171.744 79.5145C171.137 79.4132 169.397 79.3119 168.952 79.1706C169.093 78.9279 169.559 78.2799 169.943 77.9772C170.287 77.6745 169.903 77.5772 169.6 77.7345C169.079 78.0891 168.579 78.4737 168.103 78.8865C167.597 79.3319 167.152 79.9385 166.343 80.4866C166.1 79.6772 166.14 78.1399 167.092 77.0279C166.848 77.0679 166.383 77.7759 165.939 77.6345C165.858 76.8968 165.906 76.1507 166.08 75.4292C166.323 74.5185 167.637 72.9212 167.637 72.9212L173.988 61.5732L175.343 52.9772L160.8 55.8025V55.8052Z" fill="#92723A"/>
<path fill-rule="evenodd" clip-rule="evenodd" d="M160.457 56.2906C160.457 56.2906 160.113 56.5332 160.801 56.9986C160.7 57.1399 160.457 57.6452 160.153 57.9892C159.811 58.3892 159.445 58.6372 159.304 58.9812C159.001 59.6892 158.759 60.1746 158.759 60.4786C158.759 60.7826 158.657 62.7239 157.808 63.9772C157.504 64.4226 157.16 65.1706 156.917 65.6759C156.412 66.5652 155.967 67.2759 155.865 67.6759C155.664 68.3839 155.523 70.3252 155.523 70.3252C155.523 70.3252 155.968 69.7786 156.129 69.5772C155.885 70.0826 155.623 70.6279 155.239 71.0332C155.481 70.8306 156.189 70.3252 157.383 69.2732C159.041 67.8786 161.631 65.5319 164.787 63.6732C163.835 64.0172 163.027 64.0172 162.38 64.1186C162.885 63.6132 167.436 58.2732 169.823 57.7679C169.968 57.5842 170.04 57.3535 170.025 57.1199L167.981 56.9186L163.835 57.8079L163.229 54.6079L160.457 56.2866V56.2906Z" fill="#B18E3E"/>
<path fill-rule="evenodd" clip-rule="evenodd" d="M167.052 74.4947C167.052 74.4947 166.505 75.0401 166 76.3961C165.611 75.9898 165.277 75.5339 165.008 75.0401C164.26 73.7867 163.108 72.1881 160.417 73.0987C160.377 72.2494 160.316 71.8041 160.417 71.1974C160.863 71.0974 162.217 70.0054 163.572 68.4067C164.524 67.3147 165.413 66.0601 166.02 64.4627C166.42 64.1587 167.112 63.6534 168.02 63.0667C169.315 62.1774 170.872 60.9627 171.115 59.6081C170.508 59.8507 169.213 60.4574 167.271 60.3574C168.02 60.0134 169.172 59.6494 169.031 58.1521C169.335 57.9494 169.577 57.8081 169.577 57.8081C169.349 57.732 169.109 57.6977 168.869 57.7067C168.828 57.5654 168.768 57.3641 168.424 57.4641C168.08 57.5641 168.024 57.5654 167.979 57.7067C167.837 57.7481 167.372 57.7067 167.028 57.9507C166.684 58.1947 165.733 59.0014 165.369 59.1427C165.511 58.9001 165.712 58.5374 165.712 58.5374C165.712 58.5374 164.721 58.6374 164.013 58.9374C162.719 59.3827 161.223 60.1921 159.705 60.9801C159.847 60.7374 159.908 60.5801 160.008 60.5347C160.108 60.4894 160.352 60.4347 160.352 60.3934C160.352 60.3521 160.252 59.9934 160.312 59.8481C160.766 58.8871 161.301 57.9668 161.912 57.0974C162.62 56.1454 162.761 54.7907 162.761 54.7907L165.856 53.2334L174.553 51.2334L180.197 51.5774L179.489 55.4814L176.156 62.2974L173.304 68.5067L170.047 72.3107L167.053 74.4947H167.052Z" fill="#543E26"/>
<path fill-rule="evenodd" clip-rule="evenodd" d="M181.149 57.6C181.149 57.6 177.751 61.8067 176.8 62.4547C177.407 61.16 181.149 53.4533 182.504 51.3093C182.201 51.0667 181.796 51.0667 182.747 47.3093C181.939 49.2093 181.655 50.2013 180.988 50.7067C180.321 51.212 180.239 51.0507 179.788 51.0507C179.873 50.8967 179.908 50.7201 179.888 50.5453C179.888 50.5453 177.036 50.2013 175.088 50.2013C173.14 50.2013 169.284 51.2533 167.139 52.1027C165.44 52.8107 164.489 52.8107 163.883 53.2547C163.276 53.76 162.932 54.3067 162.628 54.448C162.385 54.5893 161.233 54.9533 160.969 55.3373C160.727 55.7373 160.323 56.1867 160.323 56.288C160.323 56.3893 160.221 56.532 160.525 56.4293C160.625 56.3893 161.375 55.984 162.224 55.4787C163.376 54.832 164.772 54.084 165.784 53.6387C168.676 52.4853 169.587 52.688 170.88 52.4453C172.235 52.2027 174.177 51.636 175.471 51.636C176.765 51.596 179.213 51.636 179.78 51.7373C179.537 51.94 179.335 52.1827 179.436 53.032C179.436 53.2747 179.233 53.5373 179.036 54.124C178.431 55.7827 177.277 58.5333 176.636 59.9293C175.747 61.8293 174.736 63.428 174.236 64.4187C173.736 65.4093 172.636 68.0187 171.547 69.4147C170.457 70.8107 169.888 71.66 169.547 71.964C169.205 72.268 166.755 74.0667 166.937 74.7147C167.383 74.5733 170.195 73.5147 172.236 71.216C174.277 68.9173 174.684 67.5147 176.281 66.26C177.879 65.0053 179.133 62.9027 179.881 61.164C180.508 59.5453 180.367 59.04 181.155 57.604L181.149 57.6Z" fill="#806031"/>
<path fill-rule="evenodd" clip-rule="evenodd" d="M107.909 88.9974C107.909 88.9974 107.464 90.8374 106.452 91.7481C105.461 92.6387 103.701 93.4068 103.5 94.9041C103.257 96.4001 105.26 97.1494 105.26 97.1494C105.26 97.1494 104.167 98.9494 104.167 100.304C104.167 101.7 104.127 101.963 104.268 103.297C104.107 103.401 103.971 103.537 103.868 103.697C103.868 103.697 103.968 104.992 104.96 105.8C105.952 106.608 106.8 107.095 107.305 106.892C107.382 107.057 107.45 107.226 107.508 107.399C107.508 107.399 108.257 105.497 108.763 103.839C109.268 102.14 109.713 102.381 109.915 100.096C110.116 97.8107 112.315 93.8868 112.315 93.8868L113.815 90.5334L111.368 88.6321L107.909 88.9961V88.9974Z" fill="#B6903C"/>
<path fill-rule="evenodd" clip-rule="evenodd" d="M112.46 92.2935C111.956 92.8114 111.49 93.3658 111.067 93.9521C110.42 94.8428 109.915 95.6508 108.964 95.9961C108.013 96.3414 107.407 96.3388 107.467 97.2908C107.527 98.2428 108.417 98.6454 108.923 99.1308C109.469 99.6361 109.915 100.485 109.672 101.437C109.975 101.296 110.521 101.133 111.027 100.041C111.532 98.9495 115.067 92.2948 115.067 92.2948H112.46V92.2935Z" fill="#685026"/>
<path fill-rule="evenodd" clip-rule="evenodd" d="M126.4 76.9413C126.4 76.9413 126.703 76.1333 126.4 75.5466C126.096 74.9399 124.256 74.7373 123.345 74.0493C122.395 73.3413 121.241 72.8493 120.291 73.1599C120.432 72.8159 120.999 72.0666 120.533 71.9053C120.088 71.7639 118.431 72.5119 117.985 72.8559C117.54 73.1999 116.528 73.6039 116.327 73.8479C116.125 74.0919 115.78 74.5559 115.577 74.3533C115.375 74.2119 115.275 73.8479 114.931 74.0493C114.587 74.2506 112.931 75.6066 112.625 76.3959C112.32 77.1853 111.633 78.9453 109.571 80.9466C107.508 82.9479 106.617 84.2439 107.224 84.9919C107.831 85.7399 108.115 85.1946 108.216 85.8413C108.294 86.4761 108.26 87.1197 108.115 87.7426C107.872 88.7946 107.468 89.7853 108.013 89.9879C109.409 90.4333 110.765 89.5879 111.068 89.8466C111.675 90.3919 110.724 92.3546 112.16 92.7386C113.617 93.1386 115.053 92.3946 115.053 92.3946L120.352 89.5426L125.449 86.8533L128.057 81.6946L126.659 77.3866L126.392 76.9413H126.4Z" fill="#D4B968"/>
<path fill-rule="evenodd" clip-rule="evenodd" d="M121.4 89.2599C121.4 89.2599 120.509 87.9052 121.603 86.7106C122.696 85.5159 124.252 85.0119 124.859 84.2639C124.743 84.1214 124.588 84.0162 124.413 83.9612C124.816 83.2406 125.431 82.6611 126.173 82.3012C125.871 81.9986 125.465 81.7559 125.021 81.7559C124.029 81.7559 123.421 82.3625 122.512 82.3625C121.623 82.3625 121.521 81.9172 121.521 81.9172C121.521 81.9172 123.019 81.7759 122.876 81.1079C122.735 80.3999 122.476 80.3999 122.476 80.3999C122.476 80.3999 125.368 79.1999 125.873 78.5599C126.379 77.9199 126.319 77.1639 126.42 76.8612C126.763 76.8612 128.765 75.8092 129.575 76.2545C130.384 76.6999 129.817 77.9132 129.817 77.9132C129.817 77.9132 132.267 76.0719 133.515 74.2666C134.607 74.3679 135.115 73.5186 135.915 73.5186C136.907 73.5186 138.464 74.8732 138.767 77.7652C138.969 79.4239 139.272 80.3746 138.969 83.3079C138.828 84.9666 138.868 88.5079 139.369 90.2652C139.712 91.6612 140.521 91.5199 140.521 91.5199C140.397 91.9453 140.151 92.3249 139.813 92.6119C139.267 93.1172 139.207 94.4532 139.267 94.9586C139.347 95.328 139.449 95.6926 139.571 96.0506C139.571 96.0506 138.924 96.7985 138.761 97.3052C138.62 97.8105 137.953 98.1545 137.467 98.1545C136.98 98.1545 137.224 98.1132 136.577 98.1545C135.931 98.1959 135.728 98.2959 135.323 98.1545C134.917 98.0132 134.615 97.8505 134.777 96.5545C134.919 95.2599 129.781 92.2465 129.781 92.2465L121.381 89.2532L121.4 89.2599Z" fill="#CCA849"/>
<path fill-rule="evenodd" clip-rule="evenodd" d="M111.752 102.043C111.752 102.043 113.592 104.491 121.157 104.491C124.757 104.491 126.012 104.147 126.757 103.944C127.567 103.741 130.6 102.549 133.655 98.9481C136.405 95.6921 135.799 94.3574 135.799 94.3574L134.199 94.1147L128.999 94.8227L113.612 101.376L111.745 102.043H111.752Z" fill="#585136"/>
<path fill-rule="evenodd" clip-rule="evenodd" d="M117.395 102.649C117.395 102.649 110.841 104.107 110.841 99.9599C110.841 95.9146 114.887 91.6666 115.899 90.9186C116.951 90.1693 119.459 89.3186 119.459 89.3186H125.507L126.659 92.3733L126.153 98.9666L117.395 102.648V102.649Z" fill="#252211"/>
<path fill-rule="evenodd" clip-rule="evenodd" d="M123.443 90.5547C123.443 90.5547 122.189 89.4013 119.337 90.9547C116.485 92.508 114.179 95.7547 114.037 98.7027C113.896 101.311 116.181 103.253 119.741 103.355C122.391 103.455 123.989 103.152 124.799 102.955C124.596 102.712 123.544 101.397 123.544 101.397L123.444 90.556L123.443 90.5547Z" fill="#C3B378"/>
<path fill-rule="evenodd" clip-rule="evenodd" d="M122.209 91.2001C122.209 91.2001 121.907 90.9574 121.009 91.4427C120.261 91.8427 119.169 92.9001 118.32 93.6481C117.773 94.0934 117.429 94.2947 117.12 94.6387C115.865 96.1361 114.813 98.5841 115.421 99.7974C116.029 101.011 118.031 102.407 123.128 101.456L122.195 91.2014L122.209 91.2001Z" fill="#E6D89C"/>
<path fill-rule="evenodd" clip-rule="evenodd" d="M120.551 93.7093C120.551 93.7093 119.741 94.964 119.741 96.9666C119.741 99.0093 120.895 102.265 125.143 102.508C128.399 102.711 130.583 97.816 132.949 95.9146C134.749 94.4586 135.841 94.4173 135.841 94.4173C135.841 94.4173 134.001 92.4173 129.087 89.8266C124.232 87.2173 118.791 86.8733 115.837 90.8786C117.233 90.7773 121.744 89.624 121.744 89.624L123.949 90.332L120.551 93.7106V93.7093Z" fill="#252211"/>
<path fill-rule="evenodd" clip-rule="evenodd" d="M126.901 96.3588C126.76 96.0561 126.659 95.6508 127.245 95.5508C127.832 95.4508 128.095 95.5094 128.297 95.9508C128.5 96.3921 128.697 96.7601 128.397 96.9428C128.095 97.1041 127.305 96.9428 126.9 96.3561L126.901 96.3588ZM125.951 93.5068C125.951 93.5068 125.748 93.6481 125.849 93.3654C125.889 93.0228 126.153 92.4148 126.8 92.5574C127.447 92.7001 127.307 93.4068 127.2 93.6094C127.093 93.8121 126.553 94.1548 126.148 94.0094C126.097 93.9963 126.049 93.9712 126.009 93.9363C125.969 93.9013 125.938 93.8574 125.919 93.8082C125.899 93.759 125.891 93.7058 125.896 93.6529C125.9 93.6001 125.917 93.5491 125.945 93.5041L125.951 93.5068Z" fill="#6F674D"/>
<path fill-rule="evenodd" clip-rule="evenodd" d="M71.2 94.7999C71.2 94.7999 72.8 95.9999 74.6586 95.9533C76.4986 95.9119 78.8653 94.0119 79.9573 92.7973C80.604 92.0893 81.1573 91.3413 81.7573 90.7546C82.264 90.2493 82.6066 90.0066 82.8493 89.6626C83.1933 89.2626 83.5573 88.5106 83.74 88.2666C83.2946 88.6106 82.6479 89.2186 81.9799 89.6226C81.3333 90.0226 79.9373 90.7746 79.3706 90.9773C78.8253 91.1799 73.1613 94.1773 73.1613 94.1773L71.2 94.7999Z" fill="#AC924C"/>
<path fill-rule="evenodd" clip-rule="evenodd" d="M73.6453 79.8548C73.6453 79.8548 74.5346 79.2481 76.2546 78.8628C77.9133 78.4628 81.2506 78.1548 81.2506 78.1548L84.0013 79.3548L85.0933 83.5015L83.0933 87.8108L80.5453 89.4108L77.6519 84.7588L73.6519 79.8628L73.6453 79.8548Z" fill="#9F8E57"/>
<path fill-rule="evenodd" clip-rule="evenodd" d="M70.0453 83.5561L69.0933 84.2668C69.0933 84.2668 69.3373 83.8214 69.5386 82.4668C69.7399 81.1121 70.7933 77.8148 72.3306 75.9134C73.8679 74.0121 73.8279 74.1134 73.8279 74.1134C73.6865 74.0876 73.5411 74.0921 73.4016 74.1269C73.262 74.1616 73.1314 74.2256 73.0186 74.3148C73.2213 73.8668 74.5159 72.2668 75.8106 71.4668C77.1053 70.6668 77.6106 70.4148 78.9653 71.0668C80.3199 71.7188 80.6639 72.0574 81.6559 72.0174C82.6479 71.9774 83.4959 70.9254 83.4959 70.9254C83.4959 70.9254 83.6986 71.5721 82.9506 73.0694C82.2026 74.5668 79.2493 77.6201 79.2493 77.6201L73.0999 81.8268L70.0453 83.5601V83.5561Z" fill="#EAC970"/>
<path fill-rule="evenodd" clip-rule="evenodd" d="M74.5947 79.3493C74.5947 79.3493 79.0454 79.956 80.4 78.7026C80.44 78.844 80.6027 78.844 80.6027 78.9453C80.5918 79.0217 80.5562 79.0924 80.5014 79.1466C80.6487 79.1231 80.7975 79.1097 80.9467 79.1066C81.1248 79.1596 81.3081 79.1936 81.4934 79.208C81.6426 79.2047 81.7914 79.1909 81.9387 79.1666C81.9246 79.2672 81.8905 79.3638 81.8382 79.4509C81.786 79.5379 81.7168 79.6136 81.6347 79.6733C81.8374 79.6733 82.0347 79.7133 82.0347 79.8746C82.0347 80.036 82.0747 80.5226 81.832 80.624C81.631 80.6796 81.417 80.665 81.2254 80.5826C81.2414 80.9656 81.3454 81.3397 81.5294 81.676C81.9294 82.424 82.7827 83.276 83.9294 83.0306C83.9294 83.0306 84.5347 84.4866 81.9867 87.7226C81.644 88.168 81.2787 88.7746 80.8347 89.28C80.6593 89.6624 80.5252 90.0624 80.4347 90.4733C80.4347 90.4733 84.744 88.8146 85.9774 85.032C87.232 81.2293 87.4747 77.488 87.232 73.9893C87.1907 72.9973 87.0294 72.2906 86.7867 71.784C86.18 70.5293 84.48 70.732 83.7934 71.44C82.8014 72.432 81.1427 74.8986 78.8374 76.5973C76.4907 78.296 76.3907 78.5973 74.5894 79.3493H74.5947Z" fill="#D7BC6B"/>
<path fill-rule="evenodd" clip-rule="evenodd" d="M69.2561 84.8106C69.2561 84.8106 68.4068 85.316 67.9615 87.2106C67.5161 89.152 68.3615 91.5186 68.8508 92.2666C69.3401 93.0146 70.4508 95.0586 72.7548 95.16C73.3251 95.157 73.889 95.04 74.4134 94.816C75.2178 94.4472 75.9722 93.9781 76.6588 93.42C77.6508 92.672 78.4588 92.0253 78.3575 91.964C78.1148 91.8626 72.2495 87.008 72.2495 87.008L70.0441 84.5466L69.2548 84.8133L69.2561 84.8106Z" fill="#585136"/>
<path fill-rule="evenodd" clip-rule="evenodd" d="M74.8 92.8599C74.8 92.8599 75.9934 92.7599 76.7014 92.3146C77.4094 91.8692 72.5547 87.0559 72.5547 87.0559L72.8987 92.2559L74.8 92.8599Z" fill="#453A25"/>
<path fill-rule="evenodd" clip-rule="evenodd" d="M69.6399 84.4454C69.6399 84.4454 69.0332 85.5987 69.0332 85.9027C68.9319 86.8934 69.2359 90.0081 69.4785 90.9987C69.7212 92.0507 71.0359 93.6481 72.7359 93.6481C73.7865 93.6481 75.2439 93.0014 75.2439 92.8401C75.2439 92.6374 73.7465 92.4401 73.3425 91.6867C73.0999 91.2867 72.9985 90.2921 72.9425 89.2867C72.9025 88.6401 72.9025 87.9321 73.1452 87.6867C73.6919 87.0801 73.7919 85.3401 73.7919 85.3401L75.7332 81.7334H73.1799L70.1252 83.6347L69.6399 84.4454Z" fill="#84754B"/>
<path fill-rule="evenodd" clip-rule="evenodd" d="M68.8921 85.5586C68.8921 85.5586 70.8921 82.9092 72.6948 82.3012C74.4974 81.6932 75.3041 82.0586 75.3041 82.0586L74.2521 84.7492L72.7548 86.4079L72.8561 87.2572C72.8561 87.2572 72.6121 89.5026 74.1094 91.0599C75.6068 92.6172 76.7188 92.5572 77.3668 92.5572C78.0148 92.5572 79.8748 92.0106 80.8254 89.7652C81.6748 87.6626 82.3828 84.9652 80.6841 82.2612C79.0241 79.5706 76.0921 79.4666 75.5254 79.4666C74.9588 79.4666 70.5094 79.6892 68.8921 85.5545V85.5586Z" fill="#252211"/>
<path fill-rule="evenodd" clip-rule="evenodd" d="M120.247 94.5587C119.499 94.2147 120.207 92.1121 120.955 91.4641C121.703 90.8161 122.653 90.0694 124.313 89.9667C124.919 89.9267 125.505 90.3107 125.405 90.7161C125.264 91.4641 124.212 92.5161 123.261 93.2641C121.947 94.2961 121.096 94.9427 120.247 94.5587Z" fill="#F7F7E7"/>
<path fill-rule="evenodd" clip-rule="evenodd" d="M79.7934 83.0907C80.3401 83.0507 81.0481 83.4907 81.1894 84.0827C81.3308 84.7293 80.8455 86.024 79.7934 86.024C78.9441 86.024 78.4988 84.972 78.4988 84.6693C78.5083 84.4205 78.5779 84.1776 78.7014 83.9613C78.7414 83.9 78.8428 83.192 79.7934 83.0907V83.0907Z" fill="#F8F6DE"/>
<path fill-rule="evenodd" clip-rule="evenodd" d="M71.9054 83.5559C71.9054 83.5559 70.5094 84.2026 69.8628 85.5559C69.4007 86.5553 69.2609 87.6736 69.4628 88.7559C69.5641 89.2612 70.0694 90.5146 70.4134 90.9599C70.7574 91.4052 71.2228 91.7092 71.5668 91.6679C71.9108 91.6266 72.6174 90.7172 72.6174 90.1719C72.6174 89.6266 72.6588 87.3199 73.3254 86.0652C73.9121 84.8119 71.9094 83.5572 71.9094 83.5572L71.9054 83.5559Z" fill="#D4C38B"/>
<path fill-rule="evenodd" clip-rule="evenodd" d="M72.1079 83.4547C71.8653 83.596 71.4613 83.7987 71.5613 84.0614C71.6626 84.304 72.5119 84.4614 72.8159 85.0534C73.1599 85.6601 73.1599 86.3067 73.0586 86.6107C73.3228 86.4852 73.5625 86.3136 73.7666 86.1041C74.2119 85.5987 74.7573 84.9121 75.2226 84.9121C75.5266 84.9121 75.8292 85.0534 76.1132 85.0534C76.5586 85.0534 77.0026 84.912 77.0639 84.4467C77.1639 83.84 76.2146 83.2934 75.6679 83.3947C75.7693 82.9947 75.9106 82.404 75.4653 81.9987C75.0199 81.5934 73.6253 82.3027 73.3213 82.5054C73.0173 82.708 72.1079 83.456 72.1079 83.456V83.4547Z" fill="#E2D59D"/>
<path fill-rule="evenodd" clip-rule="evenodd" d="M104.248 125.951L107.241 125.067L108.091 125.673C108.091 125.673 108.696 126.968 109.648 127.129C109.344 127.776 108.555 128.329 108.596 128.788C108.637 129.247 109.041 129.597 109.041 129.597C109.041 129.597 106.351 134.047 111.651 138.531C110.396 139.036 108.799 139.731 107.949 140.131C108.555 140.272 109.849 140.531 110.396 141.021C110.943 141.512 110.943 141.668 111.448 141.972C111.953 142.276 112.256 142.68 112.156 142.861C111.812 142.659 110.659 142.053 110.457 142.619C110.256 143.184 105.461 142.963 105.461 142.963L97.3707 144.52C97.3707 144.52 97.6734 143.711 96.824 142.963C95.8334 142.073 94.62 143.003 93.3254 142.012C91.6267 140.717 91.5654 139.22 91.02 138.655C91.5654 138.311 92.6787 137.805 95.328 137.455C95.2267 137.252 94.8827 136.645 95.0854 136.1C95.328 135.392 96.3387 134.947 96.036 134.1C96.4814 133.999 96.6827 133.999 97.796 132.603C98.848 131.207 99.4947 130.904 100.304 130.803C101.113 130.701 101.599 130.803 103.096 129.407C104.147 128.416 103.804 127.567 103.804 127.567C103.804 127.567 104.491 127.344 104.249 125.948L104.248 125.951Z" fill="#CBAC5A"/>
<path fill-rule="evenodd" clip-rule="evenodd" d="M95.4092 126.4C95.4492 126.197 95.6119 126.096 96.7039 126.197C97.7959 126.299 104.713 125.551 106.595 125.449C108.496 125.308 115.191 125.408 118.448 126.096C121.705 126.784 125.001 127.593 126.599 127.997C128.199 128.443 128.703 128.603 128.641 128.805C128.601 129.008 128.241 129.205 128.035 129.149C127.833 129.109 122.533 127.491 120.896 127.149C119.259 126.808 113.593 125.895 110.496 125.949C107.604 125.991 106.451 125.909 104.004 126.192C101.556 126.496 97.5106 126.9 96.2972 126.739C95.0972 126.597 95.3452 126.597 95.4066 126.395L95.4092 126.4Z" fill="#D6BC6F"/>
<path fill-rule="evenodd" clip-rule="evenodd" d="M111.691 142.253C111.691 142.253 115.837 144.499 117.335 147.249C118.427 149.292 116.688 150.304 116.688 150.304C116.688 150.304 119.035 150.304 118.731 151.599C118.589 152.407 114.685 154.591 112.076 155.744C109.427 156.897 109.528 156.837 108.233 157.039C106.979 157.241 103.54 156.639 102.832 157.645C102.124 158.652 102.432 159.689 102.629 159.851C102.832 159.992 104.471 160.195 104.471 160.195C104.471 160.195 104.127 161.145 100.729 161.247C97.3321 161.348 96.4814 161.589 96.2787 161.955C96.0761 162.297 96.9254 162.096 98.4841 162.355C100.041 162.597 102.225 162.755 102.225 162.755C102.225 162.755 101.517 163.361 99.6774 163.847C97.5734 164.392 94.2761 164.899 93.2854 165.505C93.7907 165.849 94.5401 166.355 94.8854 166.395C94.0361 166.597 92.8414 167.043 92.6401 167.204C92.9427 167.407 93.3481 167.649 93.3481 167.649C93.3481 167.649 91.6481 169.692 90.6574 170.199C89.6667 170.705 83.9627 173.353 82.0001 172.848C77.1054 171.553 76.4987 166.193 75.3054 165.789C73.5054 165.183 72.6561 166.395 71.0574 165.545C71.7654 165.04 72.1507 164.737 72.8987 164.393C72.0894 163.993 67.9027 161.339 67.9027 161.339C67.4649 160.384 66.979 159.453 66.4467 158.548C65.6374 157.152 64.4467 155.291 63.5534 153.652C61.6121 150.052 61.5107 148.393 59.7507 146.351C60.0547 145.951 61.1054 146.007 61.1054 146.007L75.8521 150.861L102 151.619L108.8 141.911L111.692 142.255L111.691 142.253Z" fill="#DFC677"/>
<path fill-rule="evenodd" clip-rule="evenodd" d="M72.9573 157.059C73.1151 157.234 73.299 157.384 73.5026 157.504C74.0093 157.848 74.7573 158.253 75.2626 158.859C75.4653 158.556 75.9706 158.009 76.8626 158.859C77.7546 159.708 78.8626 159.103 79.5519 159.304C80.2599 159.548 80.2999 159.648 80.2999 159.648C80.2999 159.648 80.6999 159.304 81.5946 158.94C82.1413 158.737 82.7879 158.596 83.4959 158.395C84.1426 158.253 84.8506 158.051 85.3373 158.051C85.7826 158.353 87.3799 160.051 93.7919 157.545C99.8399 155.199 101.235 154.936 102.247 155.299C102.348 155.056 102.449 154.591 104.007 154.652C104.007 154.005 102.712 151.8 102.712 151.8L95.5719 149.353H91.6666L79.9559 151.497L73.4666 155.2L72.9613 157.067L72.9573 157.059Z" fill="#C4A859"/>
<path fill-rule="evenodd" clip-rule="evenodd" d="M69.0532 152.953C69.0532 152.953 69.1945 154.045 70.8132 155.199C72.4132 156.351 72.9159 157.039 72.9159 157.039C72.9159 157.039 73.2199 156.639 73.4625 156.231C73.7052 155.785 73.9079 155.28 74.3119 155.139C75.1212 154.795 76.9612 155.441 77.3666 155.34C77.7106 155.24 77.6092 154.532 77.9732 154.532C78.8226 154.491 79.3679 155.077 79.6719 155.077C79.9759 155.077 80.7226 155.037 80.8239 154.876C80.9252 154.715 80.9652 153.035 82.1186 152.225C83.3732 151.336 84.9106 151.72 85.3186 151.923C85.3186 152.225 85.3586 152.975 86.1679 153.015C86.9772 153.055 87.0572 152.913 87.7679 153.156C88.4786 153.399 89.3252 153.116 89.7092 154.308C90.0532 154.208 90.8626 154.107 90.6599 152.953C91.0599 152.651 91.4092 152.448 92.2599 151.255C92.4626 150.952 92.8052 150.608 93.0692 150.163C93.7772 150.163 94.6266 150.021 95.7586 151.012C95.4146 151.255 95.2119 151.412 95.1119 151.659C95.4079 151.952 95.6783 152.27 95.9199 152.609C96.2239 153.009 96.4266 153.5 96.8106 153.601C97.6599 153.844 99.0559 153.5 100.613 153.601C102.111 153.703 103.364 154.248 103.911 154.592C104.113 154.492 104.113 154.451 104.619 154.552C105.124 154.653 105.508 154.693 104.963 154.047C105.265 154.188 105.609 154.492 105.913 154.188C106.217 153.884 106.459 153.44 107.308 153.339C108.157 153.237 108.461 153.379 108.805 152.489C109.251 151.397 107.713 151.397 107.713 151.397C107.713 151.397 108.421 150.749 109.211 149.9C110.161 149.011 111.253 147.857 111.516 146.441C111.961 143.832 109.413 143.489 109.413 143.489L97.0545 147.292L81.9452 146.543L69.0612 152.955L69.0532 152.953Z" fill="#927D49"/>
<path fill-rule="evenodd" clip-rule="evenodd" d="M57.9494 117.253C57.9494 117.253 57.5494 117.759 57.3027 118.952C57.0561 120.145 57.1614 120.004 56.9587 120.853C56.7561 121.703 54.2667 130.157 55.2001 133.009C56.1334 135.861 57.7494 136.913 58.7601 139.219C58.9627 139.724 59.1601 140.028 59.2654 140.473C59.6094 141.969 59.3067 143.123 59.7107 144.62C59.8521 145.125 60.2174 145.712 60.7627 146.319C61.9627 147.572 63.9187 148.765 64.7627 149.615C65.9547 150.869 67.6547 153.419 69.8187 153.66C70.9721 153.801 72.6107 153.316 73.9654 152.508C75.1654 151.759 75.9067 150.708 77.1654 150.108C78.0547 149.663 79.0054 149.501 79.8547 149.299C81.6147 148.955 83.2134 148.899 84.164 149.096C85.62 149.4 89.0587 150.452 90.964 150.452C92.4529 150.428 93.9334 150.224 95.3734 149.845C98.2654 148.996 101.764 147.539 104.071 146.892C105.425 146.492 106.517 146.387 107.631 146.144C109.532 145.699 111.129 145.092 112.04 143.939C111.433 143.231 110.685 142.139 106.639 142.179C102.048 142.28 96.748 144.828 94.1387 145.233C91.5294 145.639 90.3974 145.981 87.4841 144.929C84.6281 143.867 84.5334 143.164 84.5334 143.164C84.5334 143.164 81.5347 141.067 80.28 135.72C79.0254 130.373 80.2801 126.477 83.5374 122.775C84.3867 121.824 84.1841 120.975 84.1841 120.975C84.1841 120.975 86.3281 118.083 85.7414 115.375C85.0947 112.684 80.948 113.231 80.948 113.231L57.9507 117.253H57.9494Z" fill="#6E6342"/>
<path fill-rule="evenodd" clip-rule="evenodd" d="M61.408 126.255C61.2297 126.59 61.1458 126.967 61.1654 127.347C61.2054 127.892 61.368 128.6 63.0054 130.199C64.4014 131.593 64.0974 133.151 64.0974 133.151C64.0974 133.151 64.8 133.292 66.7067 132.4C68.204 131.692 68.7067 132.947 68.7067 132.947C69.1426 132.718 69.615 132.567 70.1027 132.501C70.5446 132.461 70.9723 132.324 71.356 132.101C71.356 132.101 73.116 133.901 74.6534 134.751C76.0494 135.5 76.8587 136.005 77.5467 135.5C78.1934 135.055 78.1934 134.144 78.152 133.74C77.9916 133.367 77.7885 133.014 77.5467 132.688C77.1014 132.041 76.3934 131.292 76.3467 130.688C76.2454 129.293 77.3987 127.633 77.1547 127.229C76.9107 126.825 76.0027 126.724 73.7574 127.533C71.432 128.301 61.3987 126.259 61.3987 126.259L61.408 126.255Z" fill="#39331F"/>
<path fill-rule="evenodd" clip-rule="evenodd" d="M66.7067 135.296C66.7067 135.296 65.5547 134.204 65.9587 128.904C66.4478 128.897 66.9361 128.944 67.4147 129.045C67.4147 129.045 68.0427 133.152 66.7067 135.296Z" fill="#292311"/>
<path fill-rule="evenodd" clip-rule="evenodd" d="M58.4959 113.208C58.6566 113.089 58.8058 112.955 58.9412 112.808C58.5412 113.556 56.6946 116.549 58.1919 121.263C59.6892 125.955 63.4506 129.453 68.0826 129.616C72.7146 129.779 75.1492 127.512 77.9332 124.115C79.0252 122.76 80.2799 121.06 81.3919 119.908C83.0506 118.107 84.3452 117.601 84.3452 115.863C84.3452 112.303 80.7039 110.704 75.3439 109.107C69.9839 107.509 65.1492 107.707 62.6412 108.8C60.1946 109.992 59.1426 111.247 58.4946 113.209L58.4959 113.208Z" fill="#252211"/>
<path fill-rule="evenodd" clip-rule="evenodd" d="M75.7081 136.893L76.1081 136.691C76.1081 136.691 76.2081 135.091 76.8561 135.133C77.5028 135.235 77.8068 136.085 77.7454 136.388C77.7054 136.691 77.5441 137.197 76.8961 137.136C76.0468 137.156 75.7041 136.893 75.7041 136.893H75.7081Z" fill="#3F3824"/>
<path fill-rule="evenodd" clip-rule="evenodd" d="M73.908 130.097C73.908 130.097 74.308 129.956 74.7973 130.441C75.1973 130.441 76.9413 130.239 77.488 130.583C78.0346 130.927 78.196 131.229 78.196 131.229C78.196 131.229 76.1533 131.675 75.04 131.229C73.908 130.845 73.908 130.097 73.908 130.097V130.097Z" fill="#2D2815"/>
<path fill-rule="evenodd" clip-rule="evenodd" d="M82.9092 130.4C82.9092 130.299 81.8172 129.551 80.6639 129.307C80.4612 129.267 80.4199 129.408 80.2639 129.408C80.1626 129.368 80.1226 129.064 80.1226 129.064L79.4666 129.409C79.4666 129.409 79.3652 129.551 79.7092 129.809C80.0119 130.052 80.5186 130.255 80.6599 130.659C80.8012 131.063 80.8012 131.204 80.8626 131.265C80.9026 131.305 81.6106 131.265 81.9546 131.063C82.2986 130.86 82.9466 130.529 82.9052 130.396L82.9092 130.4Z" fill="#82764F"/>
<path fill-rule="evenodd" clip-rule="evenodd" d="M72.6946 134.507C72.6946 134.507 72.8959 133.112 74.2519 133.051C75.6466 132.949 75.9106 134.304 75.9106 134.304L75.1012 135.113C75.1012 135.093 74.4946 134.244 72.7012 134.507H72.6946Z" fill="#2D2816"/>
<path fill-rule="evenodd" clip-rule="evenodd" d="M81.4934 128.499C81.4934 128.499 80.7441 129.308 79.0867 129.551C78.9454 129.348 78.6414 128.944 79.0867 128.297C79.5321 127.651 80.0374 127.448 80.5427 127.649C80.7657 127.685 80.9737 127.785 81.1421 127.935C81.3106 128.086 81.4325 128.281 81.4934 128.499V128.499Z" fill="#574F35"/>
<path fill-rule="evenodd" clip-rule="evenodd" d="M84.5468 129.491C84.5881 129.288 84.4468 129.248 84.5468 129.147C84.6468 129.045 85.1948 128.844 85.2961 128.944C85.3361 128.985 85.2961 129.147 85.2961 129.344C85.2961 129.541 85.2961 129.744 85.1948 129.889C85.0534 130.092 84.6494 130.193 84.4468 130.133C84.2441 130.073 84.2041 129.789 84.2041 129.733C84.3041 129.693 84.5468 129.592 84.5468 129.491ZM88.0001 127.307C88.0001 127.205 88.3441 127.003 88.5468 127.003C88.8494 127.003 88.8494 127.245 88.8908 127.307C88.9908 127.347 88.9908 127.265 89.0921 127.448C89.1934 127.631 89.3361 127.953 89.2334 128.156C89.1308 128.359 88.7281 128.499 88.6281 128.459C88.4868 128.357 88.0414 127.448 88.0001 127.307V127.307Z" fill="#82764F"/>
<path fill-rule="evenodd" clip-rule="evenodd" d="M81.0481 129.956C81.0481 129.956 81.4934 130.056 82.1001 130.563C81.8974 130.704 81.5934 130.865 81.5934 130.865C81.5934 130.865 81.5534 130.4 81.0481 129.955V129.956Z" fill="#6E6342"/>
<path fill-rule="evenodd" clip-rule="evenodd" d="M80.0572 125.505C79.9559 125.405 80.3599 125.163 80.6026 125.203C80.8453 125.243 80.9466 125.405 81.2093 125.445C81.4719 125.485 81.5133 125.344 81.6093 125.243C81.7053 125.141 82.0546 125.203 82.1146 125.243C82.152 125.287 82.1858 125.334 82.2159 125.384C82.2202 125.307 82.2402 125.232 82.2749 125.163C82.3095 125.094 82.358 125.033 82.4173 124.984C82.4948 124.927 82.5843 124.888 82.679 124.871C82.7736 124.853 82.8711 124.857 82.9639 124.883C83.0039 125.024 83.2066 125.529 83.1666 125.631C83.1266 125.732 82.5199 125.875 82.4173 125.772C82.5186 126.016 82.9639 126.521 83.0239 126.621C83.0839 126.721 82.5786 126.965 82.3773 126.925C82.0946 126.905 80.3546 125.893 80.0519 125.509L80.0572 125.505ZM82.7066 122.148C82.6691 122.046 82.5975 121.96 82.5039 121.905C82.3626 121.865 81.8972 121.905 81.8972 122.148C81.8972 122.391 82.2972 123.748 82.7466 124.455C83.2533 125.163 83.5959 125.748 83.9399 125.911C84.0479 125.96 84.1706 125.966 84.2831 125.929C84.3957 125.891 84.4898 125.812 84.5466 125.708C84.5866 125.607 84.6879 124.859 84.6479 123.099C84.6079 121.339 84.5466 119.64 84.4453 119.539C84.3439 119.437 83.9399 119.439 83.7986 119.64C83.6573 119.841 82.7466 121.845 82.7053 122.148H82.7066Z" fill="#585136"/>
<path fill-rule="evenodd" clip-rule="evenodd" d="M80.9067 132.504C80.9067 132.504 80.1987 132.059 79.5107 132.363C78.864 132.667 78.904 133.86 78.904 133.86C79.0495 133.917 79.2067 133.937 79.362 133.92C79.5172 133.902 79.6657 133.847 79.7947 133.759C80.24 133.456 80.8054 132.951 80.9067 132.505V132.504Z" fill="#574F35"/>
<path fill-rule="evenodd" clip-rule="evenodd" d="M82.2413 134.103C82.2013 133.703 81.8413 133.703 81.8413 133.496C81.8661 133.397 81.9233 133.31 82.0038 133.247C82.0843 133.185 82.1835 133.151 82.2853 133.152C82.488 133.152 82.6853 133.395 82.9333 133.552C83.176 133.693 83.54 133.952 83.58 134.26C83.62 134.568 83.18 135.412 82.6906 135.412C82.2013 135.412 82.3466 134.501 82.2453 134.097L82.2413 134.103ZM86.1453 133.556C86.1453 133.556 85.336 133.799 85.396 133.556C85.456 133.313 85.64 133.253 85.9026 133.253C86.0361 133.114 86.2156 133.027 86.408 133.009C86.518 133.004 86.6261 133.04 86.7106 133.111C86.7106 133.111 87.2573 132.868 87.4186 133.009C87.58 133.151 87.46 133.151 87.56 133.313C87.6873 133.494 87.7709 133.702 87.804 133.92C87.804 134.081 87.1973 134.425 86.7106 134.365C86.1453 134.244 86.2453 133.657 86.1453 133.556V133.556ZM90.8573 132.645C90.8573 132.645 91.1 132.787 90.8986 132.949C90.7573 133.091 90.0493 133.349 89.4413 133.395C88.8346 133.395 88.2893 133.495 88.2893 133.293C88.2893 133.092 88.7946 132.687 89.0973 132.585C89.158 132.509 89.2351 132.448 89.3229 132.406C89.4106 132.364 89.5067 132.342 89.604 132.343C89.8466 132.343 90.796 132.241 91.06 132.201C91.3026 132.16 91.5053 132.301 91.3626 132.504C91.3026 132.645 90.8573 132.645 90.8573 132.645V132.645ZM92.2533 126.4C92.2533 126.4 91.9493 127.047 91.6066 127.047C91.2626 127.007 91.2626 126.905 91.2626 126.804C91.2626 126.663 91.6066 126.299 91.5653 126.197C91.4653 126.197 91.2213 126.197 91.2626 125.955C91.2626 125.752 91.6066 125.509 91.9093 125.555C92.138 125.367 92.4228 125.26 92.7186 125.252C93.0626 125.252 93.3653 125.352 93.3653 125.555C93.3653 125.757 92.9653 126.201 92.8186 126.304C92.6573 126.465 92.4546 126.571 92.2533 126.404V126.4ZM87.6413 138.353C87.6413 138.353 87.2413 138.395 87.2413 138.596C87.2413 138.697 87.3413 138.697 87.484 138.637C87.5662 138.633 87.6476 138.619 87.7266 138.596C87.7666 138.637 87.7666 138.839 88.0706 138.839C88.3203 138.805 88.5608 138.722 88.7786 138.596C89.0213 138.496 89.224 138.393 89.224 138.196C89.1226 137.852 88.92 137.689 88.6173 137.689C88.4622 137.679 88.3076 137.715 88.172 137.791C88.172 137.791 88.0706 137.588 87.7266 137.791C87.3826 137.993 87.4226 137.993 87.524 138.095C87.7053 138.256 87.6453 138.361 87.6453 138.361L87.6413 138.353ZM85.356 140.457C85.356 140.356 85.8613 140.153 86.0026 140.215C86.144 140.255 86.548 141.023 86.548 141.104C86.548 141.205 86.0426 141.448 85.84 141.448C85.6373 141.448 85.2946 141.104 85.2946 141.048C85.2946 141.008 85.5373 140.948 85.5373 140.907C85.5973 140.807 85.356 140.563 85.356 140.461V140.457ZM83.756 137.504C83.8573 137.464 83.8573 137.363 83.9986 137.261C84.0429 137.232 84.0933 137.213 84.146 137.206C84.1987 137.199 84.2523 137.204 84.3026 137.221C84.3383 137.158 84.3877 137.103 84.4472 137.061C84.5067 137.018 84.5748 136.99 84.6466 136.977C84.8893 136.937 85.092 136.977 85.0466 137.079C85.0466 137.383 85.2493 137.584 85.2493 137.827C85.2493 138.069 85.108 138.373 84.6026 138.576C84.0973 138.717 83.4093 138.717 83.308 138.677C83.2066 138.637 83.1053 138.232 83.2066 138.029C83.308 137.827 83.5906 137.605 83.7533 137.504H83.756Z" fill="#82764F"/>
<path fill-rule="evenodd" clip-rule="evenodd" d="M84.4001 137.641C84.4001 137.641 84.0561 137.844 84.0561 137.945C84.0256 138.043 84.012 138.146 84.0161 138.248C84.0161 138.308 84.4614 138.208 84.5214 138.147C84.5414 138.107 84.4001 137.747 84.4001 137.641Z" fill="#6E6342"/>
<path fill-rule="evenodd" clip-rule="evenodd" d="M81.3921 136.691C81.5934 136.732 81.9374 136.691 82.2 136.792C82.4027 136.893 82.544 137.096 82.3414 137.339C82.1387 137.581 81.9414 137.945 81.4921 137.884C80.9867 137.844 80.5014 137.581 80.5014 137.379C80.4929 137.25 80.51 137.122 80.5516 137C80.5933 136.879 80.6587 136.767 80.7441 136.671C80.9467 136.509 81.0467 136.611 81.3907 136.691H81.3921Z" fill="#585136"/>
<path fill-rule="evenodd" clip-rule="evenodd" d="M81.1492 136.893C81.1492 136.893 80.5025 137.399 80.3399 137.643C80.1372 137.885 79.1465 139.139 78.8439 139.401C78.9444 139.224 79.059 139.055 79.1865 138.896C78.7865 139.152 78.4867 139.537 78.3372 139.988C78.0946 140.737 79.6932 141.141 80.7439 141.445C81.7945 141.749 82.2012 141.845 82.2012 141.845C81.8144 141.264 81.4823 140.648 81.2092 140.005C80.8092 139.055 80.6025 138.953 80.8652 138.508C81.0679 138.063 81.3719 137.76 81.3719 137.416C81.2505 137.096 81.1492 136.893 81.1492 136.893Z" fill="#574F35"/>
<path fill-rule="evenodd" clip-rule="evenodd" d="M58.0906 138.492C58.2378 138.519 58.3887 138.519 58.5359 138.492C58.8386 138.451 61.9946 137.292 65.2919 137.5C67.7603 137.649 70.2069 138.051 72.5932 138.7C76.7399 139.792 81.8972 141.956 85.2346 143.191C86.1239 143.533 86.9946 144.141 87.6346 144.383C90.1839 145.375 90.2839 145.375 91.7812 145.637C93.5412 145.88 95.3412 145.293 97.2226 144.889C99.5279 144.383 103.472 144.14 106.931 143.635C108.049 143.48 109.152 143.229 110.228 142.887C110.228 142.887 107.477 145.637 100.883 146.628C98.217 147.033 95.5082 147.067 92.8332 146.729C90.7292 146.527 89.3346 146.223 88.2826 145.92C87.0892 145.576 84.6412 144.665 81.6279 143.92C79.5239 143.373 77.1772 142.969 74.4879 142.464C67.8532 141.249 60.6532 139.855 58.0879 138.5L58.0906 138.492Z" fill="#252211"/>
<path fill-rule="evenodd" clip-rule="evenodd" d="M50.6467 125.992C49.0467 127.347 47.3494 128.641 45.6921 129.895L40.6961 133.733C38.9974 134.987 37.3387 136.281 35.6387 137.536C33.9387 138.791 32.2414 139.983 30.4387 141.136C32.0387 139.781 33.7361 138.527 35.4347 137.293C37.1334 136.06 38.8947 134.851 40.5334 133.6L45.5294 129.756C47.2481 128.503 48.9067 127.208 50.6467 125.995V125.992ZM41.8081 140.151C41.8081 140.151 43.6081 138.653 45.8534 136.551C48.6441 133.943 52.0627 130.604 53.1547 129.999L41.8067 140.152L41.8081 140.151Z" fill="#CFB66C"/>
<path fill-rule="evenodd" clip-rule="evenodd" d="M41.8081 140.149C42.6988 139.26 43.6494 138.391 44.6001 137.54L46.0561 136.287C46.5014 135.887 47.0081 135.437 47.4521 134.992C48.3414 134.103 49.2121 133.151 50.1014 132.241C50.5422 131.784 51.0083 131.352 51.4974 130.947C51.742 130.73 52.0136 130.546 52.3054 130.4C52.5494 130.259 52.8121 130 53.1548 129.955C52.9534 130.259 52.7108 130.4 52.5081 130.663C52.2654 130.865 52.0628 131.108 51.8614 131.309C51.4161 131.755 50.9108 132.159 50.4654 132.564C49.5148 133.373 48.5241 134.164 47.5734 135.011C46.6228 135.857 45.7334 136.771 44.7814 137.62C43.7508 138.491 42.8001 139.34 41.8081 140.153V140.149ZM53.9041 132.059C53.9041 132.059 47.3108 138.512 45.9548 139.563L53.9041 132.059Z" fill="#CFB66C"/>
<path fill-rule="evenodd" clip-rule="evenodd" d="M53.9039 132.059C53.3108 132.745 52.6749 133.394 51.9999 134L49.9999 135.901C49.3533 136.548 48.7453 137.196 48.0586 137.843C47.3506 138.449 46.7039 139.043 45.9546 139.603L47.8959 137.701C48.5439 137.055 49.2519 136.509 49.9399 135.861L51.8813 133.96C52.5479 133.293 53.1959 132.645 53.9039 132.059V132.059ZM54.2066 135.557C53.5988 137.253 52.8827 138.909 52.0626 140.513C50.3639 143.912 47.8159 148.159 46.7026 150.324L54.2066 135.557Z" fill="#CFB66C"/>
<path fill-rule="evenodd" clip-rule="evenodd" d="M54.2066 135.559C54.2066 136.307 54.004 136.955 53.7613 137.601C53.5248 138.248 53.2551 138.883 52.9533 139.503C52.6493 140.109 52.3053 140.757 51.9613 141.344C51.6173 141.931 51.2133 142.536 50.9093 143.144L48.8667 146.744C48.1587 147.944 47.4707 149.151 46.7227 150.304C47.228 149.009 47.916 147.796 48.564 146.603C49.272 145.403 49.9187 144.203 50.564 142.961C50.8791 142.343 51.1625 141.709 51.4133 141.061C51.716 140.413 52.0187 139.807 52.2627 139.22C52.5653 138.573 52.808 137.965 53.112 137.38C53.4547 136.752 53.7387 136.145 54.204 135.559H54.2066Z" fill="#CFB66C"/>
<path fill-rule="evenodd" clip-rule="evenodd" d="M61.4081 152.144C61.4081 152.144 59.4081 154.793 59.6081 158.151C60.1534 156.392 60.8414 153.701 61.4081 152.144ZM63.3094 154.8C63.3094 154.8 62.6014 162 62.0147 165.54C62.8441 161.448 63.0054 161.792 63.3094 154.8ZM76.5574 165.965C76.5574 165.965 73.5641 174.765 73.5027 177.211C74.1507 174.696 75.4041 169.559 76.5574 165.959V165.965Z" fill="#DEC270"/>
<path fill-rule="evenodd" clip-rule="evenodd" d="M83.5559 151.6C83.5559 151.6 88.4106 159.609 92.0519 166.445C91.0666 163.005 88.7999 156.696 83.5559 151.6Z" fill="#CBAF59"/>
<path fill-rule="evenodd" clip-rule="evenodd" d="M96.6028 163.391C99.2682 168.102 101.672 172.957 103.803 177.933C103.399 174.495 102.305 168.609 96.6028 163.391Z" fill="#E3C677"/>
<path fill-rule="evenodd" clip-rule="evenodd" d="M134.952 175.2C135.76 174.695 137.359 171.943 138.755 171.256C140.149 170.548 141.201 170.407 142.456 169.011C143.709 167.553 144.056 166.664 146.804 165.512C150.648 163.852 148.004 161.708 148.004 161.708C148.427 161.292 148.88 160.907 149.359 160.556C150.351 159.808 151.503 158.897 151.403 157.299C151.261 154.609 150.756 150.705 148.551 148.44C150.695 147.995 154.8 147.692 157.351 147.045C160.303 146.296 161.659 145.244 161.659 145.244C161.659 145.244 159.96 142.352 162.711 139.44C165.461 136.528 167.707 134.788 169.365 131.531C167.464 131.288 164.565 130.277 157.168 133.088C157.567 133.276 157.953 133.492 158.321 133.735C158.321 133.735 153.771 134.989 152.112 136.385C149.219 138.832 148.855 140.835 145.72 142.332C142.585 143.829 139.429 143.424 136.821 144.637C134.213 145.851 133.828 146.883 132.876 147.328C133.079 147.571 132.836 147.975 133.22 148.319C132.977 148.663 131.561 150.968 130.125 150.968C130.267 151.515 131.48 151.919 131.48 151.919C131.48 151.919 130.591 152.567 128.325 152.728C129.477 153.928 130.571 155.236 133.584 157.137C133.341 157.643 132.329 158.392 132.735 159.343C133.18 160.293 134.335 161.588 138.944 162.64C136.597 162.74 133.848 163.287 130.144 162.781C126.443 162.336 125.836 162.073 123.551 162.64C123.793 162.883 124.44 162.883 125.007 163.529C124.4 163.569 120.597 163.084 119.303 164.784C117.948 166.543 117.361 169.436 117.463 171.377C116.755 171.721 116.067 172.328 116.411 173.583C116.755 174.837 118.555 175.241 119.708 176.029C120.86 176.879 120.961 177.181 122.055 176.98C123.207 176.737 124.905 175.585 125.897 175.585C126.889 175.585 127.596 176.333 127.596 176.333C127.596 176.333 130.287 175.039 130.549 175.281C130.792 175.524 130.589 177.081 130.852 177.324C131.119 177.507 134.149 175.707 134.959 175.2H134.952Z" fill="#ECD592"/>
<path fill-rule="evenodd" clip-rule="evenodd" d="M193.751 94.2561C181.109 61.6107 149.859 55.5627 149.859 55.5627H60.7001L61.0441 88.8147H78.8001V163.067H60.6987V196.259H147.391C168.284 196.259 185.032 175.263 185.032 175.263C211.852 137.197 193.749 94.2561 193.749 94.2561H193.751ZM147.856 152.892C147.856 152.892 141.056 162.703 133.657 162.703H118.857L118.507 88.8961H137.5C137.5 88.8961 146.3 90.7361 152.448 108.151C152.448 108.151 160.599 133.084 147.856 152.892V152.892Z" fill="white" fill-opacity="0.8"/>
</g>
<defs>
<clipPath id="clip0_7_191">
<rect width="250" height="250" fill="white"/>
</clipPath>
</defs>
</svg>
