<svg fill="none" height="250" viewBox="0 0 250 250" width="250" xmlns="http://www.w3.org/2000/svg" xmlns:xlink="http://www.w3.org/1999/xlink"><clipPath id="a"><path d="m0 0h250v250h-250z"/></clipPath><g clip-path="url(#a)"><path d="m125 250c69.036 0 125-55.964 125-125 0-69.0356-55.964-125-125-125-69.0356 0-125 55.9644-125 125 0 69.036 55.9644 125 125 125z" fill="#988430"/><path d="m125 245.996c66.824 0 120.996-54.172 120.996-120.996 0-66.8243-54.172-120.99609-120.996-120.99609-66.8243 0-120.99609 54.17179-120.99609 120.99609 0 66.824 54.17179 120.996 120.99609 120.996z" fill="#7a6a2a"/><path d="m125 243.447c65.416 0 118.447-53.031 118.447-118.447 0-65.4164-53.031-118.44678-118.447-118.44678-65.4164 0-118.44678 53.03038-118.44678 118.44678 0 65.416 53.03038 118.447 118.44678 118.447z" fill="#ba9f33"/><g clip-rule="evenodd" fill-rule="evenodd"><g fill="#cfb66c"><path d="m54.6519 111.651c-.708-.647-1.456-1.295-2.144-1.942-.688-.646-1.3946-1.294-2.1026-1.941l-2.104-2c-.344-.344-.708-.647-1.052-.992-.344-.303-.748-.647-1.092-.951-2.792-2.649-5.6-5.2984-8.3534-7.949 2.852 2.6093 5.644 5.2 8.496 7.848l.9907.992c.344.343.708.647 1.052.991l2.1027 1.941c.708.647 1.396 1.295 2.104 2s1.396 1.355 2.104 2zm-37.0546-.4s10.1533 1.05 15.1093 1.758c4.5907.648 18.952 2.852 18.952 2.852zm0 0c2.852.242 5.704.545 8.556.849 1.456.141 2.852.303 4.248.444l2.1426.244c.708.1 1.396.201 2.104.303l8.496 1.354 4.2467.708c1.396.243 2.792.507 4.248.75-1.396-.142-2.852-.344-4.248-.547l-4.2467-.607-8.496-1.253c-.708-.101-1.396-.244-2.104-.344l-2.144-.247c-1.396-.141-2.852-.344-4.248-.506-2.852-.343-5.704-.708-8.556-1.152zm33.0506 7.256s-10.8413 2.752-14.5026 3.804c-3.6.99-14.5027 4.308-14.5027 4.308l29.004-8.111z"/><path d="m50.6468 118.507c-2.4067.708-4.8 1.396-7.2413 2.044l-7.2414 1.941c-2.4066.708-4.8 1.396-7.2 2.104l-3.6.991c-1.1933.344-2.4066.646-3.64.992 1.192-.4 2.4067-.81 3.6-1.154l3.6-1.152c2.4067-.749 4.8-1.457 7.2-2.205 2.4467-.607 4.8547-1.255 7.3014-1.841 2.3253-.587 4.7733-1.172 7.2213-1.719zm-27.4867 14.786c1.192-.445 14.9467-6.856 18.1427-8.353 1.6-.749 6.2507-2.4 6.2507-2.4z"/><path d="m23.16 133.293c1.0507-.4 2.0427-.889 3.0534-1.354l2.9933-1.396 6.008-2.892c2-.951 3.944-2 6.0067-2.894 1.052-.444 2.104-.808 3.1546-1.152l1.6-.505c.5454-.141 1.052-.304 1.6-.445-2 .95-4.1053 1.76-6.108 2.689-2 .992-4.0453 1.801-6.1093 2.691l-6.108 2.689c-2.0507.831-4.0507 1.72-6.092 2.569zm1.3334 5.6s12.4586-7.301 16.7466-9.648c2.2454-1.253 9.5067-4.854 9.5067-4.854z"/><path d="m24.4946 138.896c2.1027-1.295 4.2467-2.609 6.3907-3.944l3.2-1.943c1.092-.646 2.144-1.253 3.2573-1.9 1.092-.648 2.144-1.294 3.256-1.901.5294-.327 1.0841-.611 1.6587-.849l1.6987-.85c2.2453-1.092 4.4906-2.205 6.8573-3.156-2.144 1.356-4.3493 2.51-6.5533 3.702-1.092.606-2.2054 1.153-3.2974 1.76-1.092.606-2.144 1.254-3.2573 1.841-1.092.647-2.144 1.253-3.256 1.84l-3.2973 1.8-6.6547 3.6zm26.152-12.905s-7.7466 5.946-10.2546 7.848c-2.508 1.901-9.8907 7.241-9.8907 7.241z"/></g><path d="m95.1054 173.948-3.964-7.504 2.3053-9.385 16.4443-6.351-6.999-14.36 3.459-14.503 6.493-12.986 20.065-3.155 14.744-14.0573 31.838 2.4067 6.249 34.0416-12.035 42.86-6.856 22.189-27.792 1.052-12.904-8.94-15.109-6.312z" fill="#e2cc85"/><path d="m143.852 173.705s-3.844 1.76-10.4 1.355c-1.897-2.548-15.185-3.741-15.185-3.741s-1.659-.506-4.592.708c-2.952 1.2-5.744 1.052-8.354 1.698-2.609.647-5.2-2.75-7.1996-3.458-2-.748-4.652-2.548-4.652-2.548l-5.6-.547-11.2453-4.753-17.8654-17.799-4.8546 7.6-1.4974 9.405 5.4014 11.146 14.5426 13.248 28.3573 7.2 16.808-4.952 21.056-8.9 5.28-5.663z" fill="#f1d789"/><path d="m43.1027 110.801 3.6-10.9011 4.2893-7.04 13.8134-1.1534-4.1467 12.0965-11.548 20.55 4.7933 18.346-8.4946 4.246-2.6107-4.004-2.1027-9.182-.1413-10.316z" fill="#f4ecb4"/><path d="m58.596 172.957-2.6494-3.701s-.708-1.76-.3026-3.297c.4-1.558.3426-1.659.1413-2.246-.2013-.586-1.9013-2.609-1.8-4.349.1-1.76-.1413-2.347 1.152-3.741 1.3547-1.355.9507-3.702.9507-3.702l1.76 1.092.4-.606s.6466.505.6466 1.294c.1414-1.092-.4453-6.149.8894-7.301 1.3346-1.152 3.7013 5.4 3.7013 5.4l-1.456-9.507-3.7427-9.748-6.6546-8.9-.4-9.81v-.85s-3.0547 4.694-3.904 8.4c-.6067 2.548.8493 5.643.5466 9.304-.244 3.642-.5466 3.358.3427 4.8.8893 1.443 3.0547 4.41 2.2053 6.554-.748 1.841-3.2973.546-3.2973.546s-.5053 1.496-1.1933 2.043c-.2427-.889-.5054-1.456-.9907-2-.0413.344-.1413.809-.1413.809s-.4454-1.396-.8907-3.156c-.6053-2.345-1.2533-5.44-1.84-7.098-.2427.95-.8493 3.842-.8493 3.842l.344 4.451 1.6586 6.108 1.6 4 1.5574 4.895 1.3533 3.288 1.092 2.508.9507 5.644 4.5906 4.853 2.448 1.093 1.7787-.91z" fill="#f3e19d"/><path d="m45.5092 101.901s-3.2973 5.6-4.2467 11.246c-.9493 5.645-1.8 11.61-1.2 19.296.6067 7.748 1.76 12.5 2.6907 15.898 1.6 5.644 5.744 13.492 5.744 13.492l.1413-.304c-.6965-1.32-1.2524-2.71-1.6586-4.146-.5467-2.144-.7494-4.692-1.2547-5.846-.4453-1.152-1.1933-2.144-1.5573-3.56-.344-1.354-.4-3.498-1.456-5.096-.4454-.648-.992-2.346-1.1534-4.045-.2026-2.549.1014-5.401-.1413-7.747-.4453-3.904-.748-6.553-.344-8.597s2.5093-7.847 3.804-12.459c.8493-2.953.3427-5.441 1.9-8.01 1.5573-2.5483 2.5093-4.7937 2.852-6.351.4-1.416-4.1253 6.229-4.1253 6.229z" fill="#f2e8b0"/><path d="m61.1454 99.656s-1.6987.507-2.508 1.396c-.8093.849-1.1533 1.557-2.2453 2.993s-1.1534 2.61-2.044 4.41c-.8894 1.76-2.852 4.409-3.0947 5.36-.2427.95-.6467 5.4-1.152 7.504-.4453 2.104.5053 4.693.5053 4.693l1.152-.244s0 1.497 1.1534 2.509c1.152.991 1.3546-3.358 1.3546-3.358l4.308-14.543 6.492-4.409.708-3.56-4.632-2.751z" fill="#f5eec0"/><path d="m64.3 106.251s-3.0546.201-4.5506 1.294c-.6067.444-.8494.808-1.496 1.355-1.1934.991-2.408 1.901-2.9934 3.2-.648 1.293-1.356 3.256-1.8413 6.957-.2027 1.558-.2027 2.994-.344 4.248-.2027 1.699-.5053 3.054-.344 4 .2027 1.942 2.2053 2.954 2.4 5.158l4.1467-2.103 3.904-15.393 8.2933-5.2-4.6933-5.259-2.4867 1.733z" fill="#e6db9d"/><path d="m42.4239 209.905c.0174-.152.0347-.304.052-.46.6054-5.2.708-9.141 1.152-11.609.6467-3.499 1.092-4.8.9907-6.109-.1413-2.103-.3027-3.64-.1-5.259.3027-2.144 2.4067-4.692 2.3467-6.452-.0414-1.396-.7494-2.305-1.356-3.155-.6067-.849-1.092-1.557-1.092-1.557s4.1466-2.852 4.1066-14.341c.0847.024.1662.058.2427.101l2.0427 5.804 1.396 1.699 5.36 9.992 6.8973 6.696 10.1933 6.856 6.392 6.956.6467 18.548-8.3533 10.841-1.368 2.477c-10.8684-5.456-20.8347-12.548-29.5507-21.029z" fill="#e5cb7a"/><path d="m67.9414 227.649s.1413-2.305 2.0427-3.802c.304.505.5053.992.4453 1.354.344-.605 2.7507-4.489 8.192-5.501 5.4413-.991 6.756-4.955 6.756-4.955l11.548-10.497 13.2076-12.156 16.06-5.644 7.506-1.841s.141.546-.142 1.76c1.395-.1 4.49-.808 7.706-1.942 1.294-.505 2.509-.708 3.156-.04.95.89 1.092 2.994 1.152 4.247 1.557-.344 3.357-1.84 4.8-1.699 2.306.243 4.349 2.954 6.696 2.954 3.094 0 4.489-1.902 6.654-3.399 1.295-.889 3.155-2 4.207-2.751 2.508-1.841 29.045-9.952 29.045-9.952l9.304.607 1.498 9.992-.8 26.12c-.099.095-.198.193-.298.288l-42.304 22.095-58.64 8.989c-13.1352-2.146-25.8112-6.506-37.4876-12.895l-.3-1.333z" fill="#d8c173"/><path d="m45.98 213.228c.8333-1.743 1.5826-3.2 1.7146-3.721.104 1.05.2947 3.356.6787 5.806-.8062-.685-1.604-1.381-2.3933-2.086z" fill="#f1d789"/><path d="m88.816 237.809 7.584-2.109.6466.203s.344.202.344.889c.9507-.545 1.76-.445 2.3467-.808.3027.647.6057 2.791 1.9417 3.053 1.394.304 2.892-.606 4.409-1.758 1.496-1.194 3.2-2.691 4.489-3.298.473.87.892 1.768 1.255 2.69 1.699-1.355 4.652-6.856 8.859-6.756 1.216-2.874 3.247-5.328 5.842-7.059 3.904-2.649 6.351-2.852 9.406-2.609 1.213-1.576 2.708-2.914 4.409-3.944.505.202 1.901 1.052 3.641.242 1.76-.808 3.742-3.944 6.351-4.348 1.406-.193 2.836.107 4.045.85 0 0 7.6-7.546 12.844-10.054-.202-.606-.606-2.892 5.542-7.949.344.304.101 1.153.344 1.2.1 0 1.6-.647 3.498-2.104 2.347-1.759 5.158-3.6 6.856-4.105 3.2-.951 6.595.99 6.595.99.289-.202.61-.353.951-.445.808-.141 1.394-.243 1.84-.4-.04 1.052.546 2.852 0 4.409.633.356 1.304.641 2 .85-.343.748-1.092 2.649-2.346 3.56 1.051.505 1.192 1.092 2.69 1.6-.607.849-1.6 2.306-2.043 3.2-.445.95-2.044 4.894-2.752 6.39-.748 1.498-1.759 4.248-2.245 4.8-.487.552-2.246 2.892-3.6 4.044 1.2-.445 6.109-1.941 8.192-2.508-.62.91-3.763 5.572-6.784 10.056-14.466 8.671-30.614 14.159-47.368 16.098-16.753 1.94-33.728.286-49.7924-4.85z" fill="#e0cd81"/><path d="m64.8001 105.704s-1.7587 0-2.1027.243c-.344.242 1.76.749 2.4067.992.6466.242 2.0426 1.354 2.4066 2.245.344.849 12.6414 5.804 12.6414 5.804l8.6973-.445 2.9987-4.143-5.704-4.996 4-11.7919-5.2987.8493-12.7427 7.5996-6.392 2.448z" fill="#dfc57c"/><path d="m83.9 109.608c.1257.204.3028.37.5134.484.2106.113.4474.17.6866.163 1.8 0 3.4573.445 4.1453 1.354 1.1533 1.458 4.3493 6.11 4.3493 6.11l7.6454 2.75.493-9.002-8.353-5.804-9.5067 3.498v.446h.0213z" fill="#e5cc7c"/><path d="m82.4 112.945s1.3947.102 3.1547-.546 4.652-2.043 5.9067-1.496c1.7586.748 1.3946 3.094 3.2973 5.2 1.152 1.294 3.256 1.254 4.4493 2.65 1.193 1.396 5.299.748 5.299.748l1.557 8.4-6.2493 8.011-2.044 9.951h-8.4507l-7.72-3.063-3.8026-9.2 1.9013-9.304z" fill="#d2c281"/><path d="m98.7467 113.349c.2096.065.4274.099.6467.102-.2427.202-.7493.646-.5467 1.8.2027 1.153.8494 2.609.304 3.498.4354.476.76 1.043.9503 1.659.344.992.446 1.901 2.69 2.044-.324.199-.623.437-.89.708 0 0 1.558 1.355 2.347 2.608.808-.035 2.952-.701 2.952-.701l.445.304.951-.4s-.889-.344-.243-2.508c.607-1.902 1.154-1.8 1.2-1.942.047-.141.446-2.144.446-2.953.302-1.051.545-4.247.545-4.247l-.647-7.058-3.64-2.206-2.96-2.857-2.792 5.259-1.8383 1.833-.1413 4.551z" fill="#e2c270"/><path d="m107.504 107.444s.647 1.84.891 3.256c.086-.275.133-.561.141-.849 0 0 .505 2.792.605 3.945.203-.041.4-.101.446.1.045.201.506 2.448.4 3.701.842-1.389 2.007-2.555 3.397-3.397.809-.507 1.76-1.052 2.752-1.093 1.557-.04 2.689.992 4.551.992 4.489 0 8.556-3.298 11.549-4.308 2.204-.75 4.105-1.295 5.44-2.51.648-.545 1.801-1.758 2.852-3.56 1.396-2.4 2.852-4.489 4.309-4.7517-.659.1212-1.33.1686-2 .1414 0 0 .446-.4454 1.2-1.052.755-.6067 1.659-1.3547 2.952-1.3547 2.307 0 3.459.3427 4.754.3427 1.294-.04 2.042-.3427 2.042-.3427s1.356.9507 4.41.9507c3.054.04 5.097.3026 6.696.4453 1.598.1427 6.957-.4453 8.494-.4 1.003.0386 1.987.2794 2.894.708l-4.956-14.4-17.803-15.56-10.599 7.504-16.304 16.3027-15.776 5.8453-3.297 3.701v5.643z" fill="#ccb360"/><path d="m142.901 99.1906s.446-.444 1.192-1.0506c.747-.6067 1.66-1.356 2.954-1.356 2.305 0 3.458.344 4.753.344 1.295-.04 2.043-.344 2.043-.344s1.357.9493 4.409.9493c3.055.04 5.097.3027 6.696.444s6.957-.444 8.495-.4c1.002.0377 1.985.2786 2.892.708l-2.246-6.4933-2.608-4.9547-7.444-8.152s-8.933-5.2587-9.001-5.2987c-.04-.04-3.095-.8493-3.095-.8493l-8.09 4.8947-7.342 18.9933-.141 3.9997 4.752 2.246c1.193-2 2.509-3.6004 3.743-3.803-1.114.1213-1.963.1213-1.963.1213z" fill="#d5b457"/><path d="m142.8 100.547c-.708.04-1.293-.102-1.456-.6071-.607-1.6986-1.092-1.9413-1.6-1.9413s-1.193 1.092-1.6 1.192-.889-1.2533-.889-1.2533l-.446-.2027s-2.609 1.6987-4.449 3.7014c-1.84 2.003-4.855 5.401-6.209 6.007-1.355.605-6.008.809-7.6 1.153s-3.358 1.497-3.6 1.76c-.243.263.709.545.85.808.142.243-1.558.141-1.7.4-.1.203.4 1.355.648 1.941.434-.215.911-.333 1.395-.344 1.557-.04 2.691.992 4.551.992 4.49 0 8.556-3.297 11.549-4.309 2.205-.748 4.107-1.295 5.441-2.508.647-.545 1.8-1.76 2.852-3.56.768-1.233 1.518-2.387 2.267-3.236z" fill="#d2b257"/><path d="m78.4 200.648s-.4-1.497-4.1067-5.36c-1.052-1.092-1.6986-2-2.4066-2.649-1.76-1.66-2.792-2.104-4.0454-3.055-2.7506-2.043-5.744-2.043-8.0493-4.551s-4.992-7.3-6.8587-12.197c-1.84-4.895-2.3466-6.452-2.3466-6.593 0-.142.5066-1.092 1.1533-.951s.6467 1.395.8093 1.699c.3222.496.6876.962 1.092 1.394.9507 1.094 2.3054 2.4 2.9934 4.35-.1414-1.659-.708-3.499-.708-3.499s3.56 2.245 6.5933 4.591c3.0547 2.346 4.308 3.156 5.2 4.652s2.9933 5.441 4 6.594c1.0067 1.154 14.8 5.502 14.8 5.502l6.5613 4.892 3.2574 7.14-2.5494 4-4.8946 1.052-7.9494-3.56-2.5453-3.452z" fill="#d2b159"/><path d="m60.74 176.052s1.6587 2.649 5.704 5.157c3.6413 2.206 9.4053 4.208 14.544 5.402 2.952.708 5.9053 1.253 8.5547 1.294 7.14.1 12.0543-1.941 18.1443-2.609 3.297-.344 7.342-.607 11.549-1.6 5.4-1.295 8.596-2.752 12.945-4.8 3.155-1.456 6.048-2.548 8.394-3.944 3.297-1.941 5.704-4.105 8.496-4.752-.344.951-.708 2.649-3.459 4.409 1.456-.041 3.459-.141 3.459-.141s-1.942 1.152-5.36 3.741c-2.104 1.6-4.895 4.308-7.747 6.108-1.841 1.154-3.844 2-5.159 2.691-3.2 1.76-4.49 2.649-6.593 4.8.748-.04.809 0 .809 0s-2.65.344-4.55 1.355c-.4 0-1.094-.142-2.307.202-.951.303-2.205.992-3.499 1.355-1.841.547-2.446.304-2.446.304l.302.607s-2.4-.042-3.2.04c.142.04.102.101.102.101-.141.024-.276.071-.4.141-.385.25-.809.434-1.254.546-.242.04-.445.04-.749.101.101.243.891 1.6 1.255 2.4-.303.203-4.855 3.641-4.855 3.641.141.222.257.46.344.708.141.444.203 1.092.344 1.395.343.607.545.708.545.708s-.545.101-1.497.344c-.808.203-1.8.545-3.2.748-.4296.056-.8617.09-1.2947.101.2027.446 1.092 2.144-.5466 4.106-1.6387 1.961-2.144 2.246-2.6494 3.5-.2543-.193-.5252-.362-.8093-.507-.5453-.243-1.2947-.605-1.5573-1.092-.1532.648-.356 1.284-.6067 1.901-.5053 1.355-1.2533 2.691-1.3947 3.702-.5466-.607-1.5573-1.8-2.9533-1.558-1.396.243-2.508 2.144-2.7507 2.691 0-.344-.2426-.607-.3026-.203-.0414.446-.8094 5.096-5.0974 8.859-.04-.951-.04-3.055-.1413-3.741-.4.4-.8893.99-3.8027 2.245-2.852 1.253-2.4 2.508-2.4 2.508s-.2426-2 1.2947-4.107c1.5573-2.102 2.508-3.094 2.508-3.256-.0251-.164-.0953-.318-.2027-.445-.2026-.203-.6066-.445-.6066-.607.2426-.1 2.6493-1.253 2.508-3.641-.1414-2.143-1.0507-3.256-1.6987-4.044-.1-.101.952-.849.8093-1.092-.1013-.141-1.3946-1.093-1.5573-1.6.0382-.302.1061-.6.2027-.889.1413-.446.2426-.75.2026-1.052-.1013-.506-.648-1.902-.8093-2.043.1413.04 1.152 0 1.152 0s-.808-1.295-.9507-1.901c-.1426-.607-.4453-2.206-.6066-2.508.344.04 1.1933.1 1.1933 0 .0413-.304-.748-.81-.4-1.2.2427.04.708.242 1.152.809-.2427-.648-.6467-1.901-1.4973-2.407.4-.141 1.76-.506 2.9533.202s1.6 1.698 1.6 1.698.708.547 1.8013 1.356c1.2534.991 2.8507 2.4 5.4 3.398.5467.304 1.9414.304 2.9534.101.4406-.105.8631-.275 1.2533-.505.1409-.083.2902-.151.4453-.203-.2174-.436-.4674-.856-.748-1.255.344 0 .748.042.748.042s.2427-.547-.8493-1.6c.2427-.243.5467-.4.5467-.81-.344-.04-.9507-.545-1.092-.748.2013-.141.5053-.606.8493-.748-.304-.242-1.052-1.254-1.396-1.354.3286-.122.6466-.271.9507-.446 0 0-1.6987-.445-2.2454-.809-.5466-.4-1.3546-1.092-1.84-1.295-.5066-.202-1.396-.302-1.76-.708.3427.102.8894 0 1.2947 0 .3027 0 .4453.04.5453.04-.04-.141-.04-.445.7494-.545.3796-.057.748-.173 1.092-.344 0 0-.7494-.04-1.6-.849-.8507-.81-1.5574-1.456-2.0427-1.558-.5053-.101-1.456.344-2.0427.303-.8093-.1-1.1533-.505-1.1533-.505s-2.6893.242-8.656-3.398c-5.1587-3.156-7.404-5.946-7.404-5.946-.4828-.176-.9494-.392-1.3947-.648-1.9413-1.011-4.632-3.115-4.5506-5.867z" fill="#c2a44d"/><path d="m135.153 54.6519c.468.152.884.4325 1.2.8094.951 1.092 1.558 3.1546-.606 5.36.849.3026 1.2.4 1.941.3026-.748.8907-2.447 2.792-2.548 4.4507-.101 1.3547.748 1.76.748 1.76s-1.295 1.496-1.355 4c.612-.6895 1.281-1.3256 2-1.9013 1.498-1.1934 3.56-2.548 4.956-3.3974-.019.356.029.7124.142 1.0507 0 0 2.608-2.144 4.8-1.192.99.4453.545 1.84.545 1.84s1.356-.5053 2.307.4453c.95.9507 2.294 3.4027 2.984 4.3534.302.4453 1.092 1.2946 1.9 2.6093 1.104 1.8406 2.025 3.7844 2.752 5.804.04-1.052.302-2.6893 3.297-1.6587 2.993 1.052 6.391 3.2574 9.243 7.6 2.852 4.3427 3.558 9.2454 4.994 11.112 1.456 1.8 2.954 4.7931 3.055 6.0481s-.445 5.299 2.548 16.241c.849-3.397 2.144-10.942 2.144-10.942l.708-6.655.809-20.5907-21.501-17.8627-16.808-12.1973-10.943 1.052.687 1.5573z" fill="#caa13e"/><path d="m175.101 85.2946s-.304-2-5.36-5.4c-5.057-3.3573-9.001-3.3573-12.641-6.2093-2.792-2.2454-5.704-7.404-7.6-9.1027-1.841-1.6787-2.144-6.5333-2.144-6.5333l6.209-5.2 9.235-13.348 7.807-8.596 3.741 5.2 5.2 6.108 2.892 12.2573 1.052 17.9413-8.4 12.884z" fill="#b59544"/><path d="m181.352 106.8c.153-2.721-.183-5.447-.992-8.0493-1.333-4.1467-4.247-11.5094-5.6-14.2667-.547-3.0547-.141-3.2973.445-3.6413.587-.344 2.792-1.6 4-6.0067s4.956-4.5507 4.956-4.5507l2.306-1.6986 3.5 8.7573 3.053 7.9093.951 6.048.708 5.1574-1.659 10.9023-8.191 7.403-3.478-7.964z" fill="#c89d3a"/><path d="m67.052 228.319v-.224c.1702-.107.3205-.242.444-.4.1413-.203.244-.446.344-.506.2027-.101 1.1533-.4 1.6587-.304.5053.096 1.8413.647 2.5493.607 1.456-.04 3.1547-1.153 5.8453-.647 4.0454.748 4.996 3.499 7.3427 5.056 1.6 1.094 3.256.607 3.4987.607h.5453c.1013 0 .8493-.849 1.2547-.808.8093.04.8893.708 1.3946.748 1.1934.141 3.5-.607 4.6534-.303.3419.107.653.296.9065.549s.442.564.5495.906c.2426.748.04 1.699-.5467 2.245-1.2533 1.152-2.4467 2.246-2.6893 3.2.3086.236.605.487.888.752-10.0078-2.55-19.6366-6.405-28.6387-11.466z" fill="#ceb052"/><path d="m174.757 187.905s3.155-4.206 4.248-6.29c1.092-2.148-3.458-29.348-3.458-29.348l9.142-29.955-.244-9.749s.446-9.002 1.498-12.9057c1.254 2.2457 5.158 4.9557 6.008 6.3917.4-2.752 1.758-8.5557 1.557-14.745.748 1.152 2.548 12.743 2.548 12.743l1.8 7.806 2.347 8.294 2.609 8.758 1.557 6.048.89 1.456.749 2.548.708 2.752 2.043 6.452 1.2 5.299.95 9.608c.207.736.356 1.486.446 2.245.04 1.052-.142 1.659-.142 1.842 0 .182.344 2.305.203 3.904-.203 1.6-.203 2.852-1.457 4-1.255 1.148-2.043 8.009-2.043 8.009l-2.245-1.496s.445-2.044-.607-3.904-3.095-2.245-4.248-1.941c-1.152.242-3.457.605-4.207 1.253-.708.647-2.446 2.649-4.045 3.56-2 1.2-5.259 1.295-6.997 1.699-1.76.4-3.702 1.6-5.746 2.993-1.602 1.038-3.294 1.93-5.056 2.667z" fill="#cca847"/><path d="m174.757 232.1s.134.087.391.228c14.37-6.733 27.246-16.276 37.867-28.067-.116-4.093-.267-8.289-.432-9.844-.343-3.297-.1-6.654-.202-8.596-.101-1.941-1.193-9.85-1.698-11.893-.547-2.043-1.6-3.055-1.76-3.055-.142.042-.992 3.844-.992 4.8s-.203 3.258-.203 3.844c-.141-.041-.201-.4-.201-.546-.203.505-.446 1.396-.547 1.497s.141-.849 0-1.052-.4-.101-.344-.607c.024-.299.071-.597.141-.889 0 0-.606.889-1.05 3.155-.446 2.245-.446 2.306-.607 2.508-.141.244-.951 1.052-.992 1.356-.04.545.749 1.092.809 1.394.04.507-.708 2.852-.95 4-.243 1.148-.142 3.398-.4 4.551-.203 1.052-.4 1.659-1.092 2.103.505.101.99.242.99.242s.708 2.994-1.092 5.543c-.646.889-.808 1.295-1.496 2.104-1.356 1.496-2.408 3.2-2.509 4.308-.07-.327-.117-.659-.141-.992 0 0-2.103 2.448-2.994 3.844-1.152 1.8-2.75 1.699-3.2 2.144-.449.445-.546 1.253-.4 1.901-.4.1-1.152.243-1.658 1.8-.243.808-.85 1.6-1.8 2.144-.951.544-2.104.708-2.691.85.505.141.708.141.951.302-.303.506-1.699 1.295-3.256 2.307-1.558.951-2.307 2.345-2.691 3.256-.4.849-.991 1.396-1.941 1.497.4.243.992.808 1.294.991-.445.101-1.2.101-2.548 1.255-1.416 1.173-1.901 1.517-2.549 1.618z" fill="#c39d3c"/><path d="m146.613 241.473c.775-.543 1.614-.987 2.498-1.324 3.154-1.253 6.492-1.496 7.806-1.9 1.255-.4 2.246-.952 3.803-1.254-.041.354-.076.688-.113 1.002-4.592 1.444-9.267 2.605-14 3.476z" fill="#d2ba6b"/><path d="m204.8 158.496s-.647 3.499-1.8 5.704-2.4 5.259-2.4 5.259c.008-.688.089-1.374.243-2.044-1.456.849-4.996 2.893-6 3.802-.951.85-2.55 2.347-2.954 3.055.951-2.791 1.942-5.299 2.104-6.452-1.456 1.052-8.253 6.655-11.792 10.356l-11.024 8.92c-1.272.686-2.582 1.3-3.924 1.837-1.9.808-4.145 1.496-5.804 2.144.446-1.193 1.152-2.246 2.144-3.257 1.052-.991 4.207-4.409 4.692-6 .446-1.659.547-2.649-.04-4.045-.546.141-1.8.202-2.649.445s-1.76 1.152-1.76 1.152.647-3.701 2.043-7.2c-1.052.04-2.852.343-2.852.343s2.508-4.207 6.8-7.139c-1.315.28-2.601.679-3.843 1.192-2.508 1.052-5.259 2.609-7.301 3.459 1.152-1.6 9.242-13.147 14.057-23.908 4.8-10.74 6.593-13.491 7.645-19.255.546-2.852.4-7.067.546-10.841.141-3.743.606-7.1.304-9.346 1.253 1.558 5.946 5.947 6.108 15.758.141 9.809-4.49 23.058-9.406 30.197 1.2.344 4.31.749 7.504-4.8 3.195-5.549 3.156-7.099 4.31-9.405.141 1.153.1 1.557.1 1.557s4.653-5.643 6.857-12.743c.445 3.055 1.76 5.746-.304 11.348-1.84 5.056-4.247 6.291-4.247 6.291s1.194-.203 2.952-1.255c.304.748.244 1.6.75 1.902.505.301 1.193.809 1.294 1.294.546-.809 1.395-1.841 1.659-2.609-.203 1.6-.344 8.596.4 12.156 1.559-.141 3.156-.243 4.248-3.055-.748 2.752-.748 4.41-.243 6.756.83-.565 1.578-1.577 1.578-1.577z" fill="#c0993a"/><path d="m152.245 47.0066s-1.557.6466-4.206.6466c-2.306 0-1.659-.8893-5.259-.8893-5.541 0-24.899 3.2-28.297 3.1547-2.206-.04 7.442.9506 7.442.9506l24.658.344 4.954-.4 1.842-3.7466z" fill="#a88f33"/><path d="m88.3095 95.2067s-3.156 2.4067-4.4907 4.248-2.0427 3.0533-3.56 4.5503c.3562.014.712-.034 1.052-.141 0 0 0 .4-.2427.505.2097-.023.422.001.6213.07.1994.069.3807.182.5307.33-.4453.243-1.6586 1.458-.708 2.894.708 1.092 2.2054 1.192 2.2054 1.192s-.344.992 1.092.89c3.0946-.141 6.5533-1.497 8.1506-1.153 1.6.4 2.5094.547 3.6414 2.509 1.2 1.942 2.2453 2.246 2.2453 2.246s.708-1.802.5467-4.491c.5805-1.45.9025-2.99.9505-4.551l-1.0519-7.7463-4.5906-5.8053-5.9467 3.2973-.4453 1.1521z" fill="#e3c571"/><path d="m93.9519 94.0533s.4453 1.052 2.3067 1.152c-.2027.4453-.2027.5066-.1414.8493.04.344.1.8493.1.8493.205-.0991.3902-.2347.5467-.4.1013.4454-.1013 1.152 0 1.6587.0625.3081.1642.607.3027.8893.0295-.0692.0633-.1364.1013-.2013.04-.1013.4 1.092 1.396 2.0004-.0009-.14.0335-.278.1-.4.0153.253.0991.498.2427.708-.0746-.036-.1426-.084-.2014-.142 0 0 .1 3.2.6467 4.855.0914-.107.1726-.222.2427-.344 0-.1-.04.891-.1414 1.6-.1413.708-.04 1.699-.04 1.699.3647-.288.7658-.526 1.1918-.708.607-.244 1.6-.992 2.206-2.651.351-.939.621-1.907.809-2.892.195.376.33.781.4 1.2.041.505.992.243.992.243l.203-2.206 1.2-4.9957 1.092-3.0947 5.258-8.1907 9.502-7.3173 8.293 1.9013 6.997-9.5066-12.054-7.2414-11.408 1.1934-10.354 14.34-8.2918 13.0066-1.4973 2.144z" fill="#d8b65b"/><path d="m153.701 73.3013s-.708.1414-2.75 1.2c-2.043 1.0587-3.459 1.3947-4.248 2.952-.79 1.5574-.85 2.792-.85 2.792s1.396-.6066 2.206-.8093c.849-.2013 1.8-.1414 1.698.2026-.097.2359-.232.4544-.4.6467 0 0 1.6-.04 1.558.7494-.043.7893-.303 1.6586-.606 2.0426-.304.4-1.557.992-1.698 1.4574-.344.9506.141.9906-.042 1.7586-.141.7494-.808 2.2053-2.993 4.7533-2.245 2.5494-3.2 4.3494-3.2 4.3494s-1.092-2.0427-1.659-3.8027c-.4.2013-2.548 1.3947-2.548 1.3947l-4.976-17.3334.1-1.1533s.446-.5453.547-1.5573c-.748-.2427-.849-.4453-1.841-1.3947-.992-.9493-1.8-2.104-3.458-2.8933-.242-.4454-.546-1.0507-1.76-1.2947-1.213-.244-1.941-.444-1.941-.444s.647-.244.951-.7493c-.75.1013-1.355.344-2.994.304-1.658-.0413-1.841-.1013-2.75.04-.91.1413-2 .5467-2.407-.8493-.445-.344-1.396-.04-2.205 1.152-.81 1.1919-1.092 2.144-2.65 2.6093-.109.6865-.35 1.3455-.708 1.9413-.445.7493-1.153 1.4974-2.104 2.6094-1.497 1.76-1.254 4.6519-3.641 6.8573-2.407 2.204.4-6.1094.4-6.1094l3.843-9.1999 10.942-10.7 16.991-1.152 1.659 8.8 8.293 2.852 5.239 7.9893z" fill="#d3ae4d"/><path d="m156.392 75.2426-7.14-10.2946-4.996-3.844s-3.56-6.552-3.803-6.7547c-.202-.1413-3.56-.5053-5.704-.6467l.4.9907c.468.152.884.4324 1.2.8093.951 1.092 1.558 3.1547-.606 5.36.849.3027 1.2.4 1.941.3027-.748.8907-2.447 2.792-2.548 4.4507-.101 1.3546.748 1.7586.748 1.7586s-1.295 1.4974-1.355 4c.612-.6894 1.281-1.3255 2-1.9013 1.498-1.2 3.56-2.5493 4.956-3.3987-.019.3565.029.7133.142 1.052 0 0 2.608-2.144 4.8-1.1933.99.4453.545 1.8413.545 1.8413s1.356-.5053 2.307.4454c.95.9506 2.305 3.3973 2.993 4.3493.303.4453 1.092 1.2947 1.9 2.608 1.104 1.8409 2.026 3.7853 2.752 5.8053.04-.8093.203-1.9413 1.6-1.9413l-2.124-3.8027z" fill="#caa13e"/><path d="m49.3533 104.491s-.5054-1.255 0-3.702c.5053-2.4464 1.2946-3.5997 1.5573-7.1997s2.6093-8.0907 2.6093-8.0907l6.492-2.952 4.592 1.2534 1.3547 6.1493-5.8053 3.2s-.3027 1.3547-1.9414 2.4467c-1.6386 1.092-3.904 1.9413-4.4493 3.0546-.326.6818-.5639 1.4024-.708 2.1444 0 0-1.6587-.344-2.6493.748-1.052 1.113-1.012 2.104-1.052 2.953z" fill="#f4efc8"/><path d="m62.46 102.852s-.5467.344-.9507 1.2c-.4-.647-1.356-4.4906-1.396-7.9492-.04-3.4587-.2467-4.316.5533-5.508s3.9374-2.448 3.492-4.5947c-.4453-2.0427-2.3066-2.892-4.592-2.3053-1.6.4-2.7906 3.8026-4.4493 5.5013-1.2547 1.2947-2.7507 1.092-3.1547 1.8-.5466.9507-.0413 1.9013-.2026 2.508-.0414.2027-.5467 1.2947-1.4574 2.6093-1.84 2.6494-4.9546 6.3916-5.36 9.7496.1414-1.902.0414-1.942.5467-4.046l-.304-.505 2-6.5532 1.2947-5.4 2.8933-9.0427 5.096-9.2427 4.956-5.5426 5.1573.344.6067 7.7466 2.9533 14.544 6.2094 7.6454-9.952 6.6972-3.944.344z" fill="#ebcc73"/><path d="m65.5546 105.6s-.8493.203-1.1533.041c-.304-.161-.6054-.344-.5054-.546.1-.203.6467-.546.6467-.708.0112-.147-.0353-.293-.1296-.406-.0944-.113-.2291-.185-.3757-.201-.4654-.06-.6067.243-.6067.243s-.4453-.343-.808-.4c.2146-.027.4305-.04.6467-.042-.559-.253-1.1519-.423-1.76-.505.5053-.303 1.4973-1.193 2.144-1.193.6466 0 1.052-.1.9506-.444-.1013-.344-.6066-.85-1.152-1.052.2014-.243.344-.607-.1413-1.6003-.5067-.9907-.304-1.6587-.1413-1.9.1413-.304.6466-.8493.8893-1.1933s.4453-.8094.8493-1.052c.2027-.1414.8494-.4 1.4974-.6467.708-.2427 1.2946-.5467 1.6986-.2427.4454.3027.2427.708.2427.708s1.396-.5066 2.6493.1414c1.2547.6053 4.3094.9906 4.3094.9906l1.0946 2.2054-7.2413 6.2096-2.9933 1.497-.6067.1z" fill="#e5c66b"/><path d="m75.6067 95.4494s-2.2453 1.4974-2.7506 2.0427c.3026.0413.808.244.6053.5467-.2426.3026-1.6986 1.3546-2.508 2.3462-.8493.991-1.6586 2.246-1.9413 2.852-.3027.546-2.6094 2.144-3.3974 2.346 1.6587 0 4.996-2.043 6.2494-2.043-.04.607.344 1.295 1.052 1.355s2.7507.445 5.5013-1.254c2.7507-1.658 1.8414-2.893 2.9934-3.7009 2.2053-1.4573 3.0946-2.752 4.308-3.56 1.2133-.808 1.8413-.992 1.8413-.992s.04-.6067.4-.5453c.0985.0113.1921.0493.2706.1099s.1389.1416.1747.2341c0 0 2.104-1.4974 4.8-1.9014-.0629-.0281-.1132-.0784-.1413-.1413 0 0 .2013-.1013.2427-.2027 0 0 .1413-.2026.2426-.1013.1014.1013.2427.8493.4454 1.1533.4453-.2026 1.2946-2.104 1.2946-2.104l2.044-5.8453v-5.34l-1.6.304-12 5.096-7.2826 7.5453-.8494 1.8z" fill="#e6bd62"/><path d="m110.153 69.2559c.649-.1575 1.272-.41 1.847-.7494-.243.648-.243 1.356-1.295 2.8934-1.052 1.5373-1.092 1.76-1.941 3.3573-.849 1.6587-.951 4.0454-1.76 5.096.363-.1762.752-.292 1.152-.3426 0 0-.808.7079-1.152 1.4559s-.951 2.3054-2.447 3.2574-3.398 1.5573-5.441 3.8027c-2.044 2.204-4.1467 4.996-5.2 6 .5467-.9507 1.2947-2.8521 1.4973-4.1054.2027-1.2533-.0413-2.752.3027-4.4093s.344-2.852 2-5.7454c1.656-2.8933 4.491-12.9453 4.491-12.9453l6.108-1.9413 1.841 4.3693z" fill="#b6933f"/><path d="m105.744 65.5547s-1.84 2.6493-2.345 4.996c-.506 2.3467-.042 2.144-.344 3.2973-.181.7032-.181 1.4408 0 2.144.637-1.0266 1.509-1.8867 2.545-2.5093 1.74-1.0507 3.156-1.8 4-2.6893.849-.9507 1.557-2.508 3.397-3.7014-.748-.1013-1.8-.4453-2-.4.75-.8493 2.994-2.144 5.259-3.7013 2.245-1.6 2.104-2.2453 5.745-3.8427-1.193.2027-1.76-.1013-2.752 0 .4-.8493 1.8-1.2546 3.2-2.6493s-.889-3.4587-.889-3.4587l-10.667 6.452-5.157 6.068z" fill="#c49937"/><path d="m76.8 60.7399.2427-1.9413 3.0547-4.8947 3.196-8.596v-11.752l-.2427-6.796.5053-4.4507.384-1.4146.4054-.5467 2.608 1.3547 3.6013 4.8946.344 9.4467-3.5 14.9067-9.992 10.9026z" fill="#dfc068"/><path d="m84.7492 19.8014s-1.6.0413-1.9413 6.696c-.3413 6.6546-.5067 10.1533-.7493 13.4506-.2427 3.2974-.808 5.2987-1.092 7.2414-.284 1.9426-.4454 4.5906-1.3547 6.2093-.4.748-1.2547 3.0947-3.2573 4.8547-2.2454 1.9413-5.6 3.2973-6.108 3.3986-.8907.2014-5.4014.6467-7.2414 1.6587-.6466.344-1.76.748-2.9933 1.9013-2.448 2.204-5.704 6.148-8.0507 10.9014-3.6 7.1-7.2 27.1436-7.2 27.1436l.8094-1.354s.1013-1.8 1.9013-4.9563c1.76-3.1547 1.2547-6.6947 3.7013-12.7427.9507-2.3053 2.144-5.2986 3.6-7.848 2.3067-4.1466 5.0974-7.7066 7.9094-9.648 4.5906-3.1546 9.648-3.8426 9.648-3.8426l5.4413-3.6s.9507-1.84 2.2053-3.944c1.7587-2.952 4-6.2494 4.4894-11.0427.7493-7.1-1.052-11.752-.9507-15.9587.1013-4.2066.1413-7.3013.992-8.0506.8507-.7494.2427-.4654.2427-.4654z" fill="#a88f33"/><path d="m84.7492 51.5572s2.4-5.9066 3.4987-11.1453c.2027-1.052.6067-2.1027.708-2.952.5053-4.956.6467-6.9987 0-9.7093-.5053-2-2.4467-3.8027-3.4587-5.2-.9906-1.4574-1.456-2-1.2533-2.3067s.9907-.808 1.7587-.748c.8163.0238 1.6193.2133 2.3602.5571.7408.3439 1.4039.8348 1.9491 1.4429 1.5573 1.8 2.7907 7.9093 2.7907 7.9093l1.2973 8.0614 3.2973 10.1533-12.9453 3.9453z" fill="#c99e3d"/><path d="m107.301 45.4093s-.445.2013-1.253 0c.034.3302-.023.6635-.166.9632s-.365.5542-.643.7355c-.85-.344-8.8004.344-8.8004.344s-3.7014-.648-4.8547-5.5427c-.808-3.2573.6067-7.7467.1413-10.7-.708-4.3493-1.6986-5.2-1.8-6.5533-.1013-1.3534-.2026-1.6987-.2026-2.548-.4454-.1014-.708-.2427-1.152-.2427-.1014-.4.1-.7493-.344-1.4573.2426.1013 1.9013.304 3.8426 2.144 1.6 1.4973 1.6 2.0426 1.8414 2.3466.3026.3027 2.7506 2.4 3.8026 4.4907s3.0948 8.7573 3.5598 9.8493c.142.4454.446.8907 1.2 1.9014 1.174 1.4573 2.892 3.8666 4.834 4.2666z" fill="#b58634"/><path d="m94.196 25c1.2253 1.9793 2.3261 4.0331 3.2961 6.1493 1.1933 2.6894 1.9013 4.8947 3.3989 6.6947-.81-2.3453-2.2456-6.9573-3.095-8.596-.9506-1.7333-2.892-3.6-3.6-4.2467z" fill="#a88f33"/><path d="m80.4412 58.2533s-2.0426.5053-5.8453 2.508c-1.2547.6467-2.4467 1.192-3.6 1.6987-2.996 1.3546-6.2093 2.6066-8.7587 3.2973.2027.2427.3027.3427.3027.3427s0 .992.5467 1.5573c-.3027.304-4.3494 3.0547-3.1547 12.2573.808-.3026 1.7587-.708 1.9-.708.244.0414.304.708.6067.708.3026 0 1.2946-.4 2.3466-1.76-.04.5467-.6466 6.048 2.6094 9.7494.6066-.708 2.144-3.0547 2.144-3.0547l.04-.748s.1413-2.6094.992-4.996c.8506-2.3867 2.508-4.1467 2.508-4.1467l8.6546-12.3586-1.2946-4.348z" fill="#e6c367"/><path d="m72.3507 76.4c-.3963.28-.8328.498-1.2947.6466-.1413-.5053-.344-2.2453.8494-3.9439 1.396-2.044 4.4493-4.6934 5.2986-6.8001.5467-1.356.304-4.7533 5.1587-9.1026 4.8547-4.3494 6.7547-5.8454 6.7547-5.8454l7.848-3.944 9.6476 3.8027-4.793 18.7867-3.7213 8.8-14.8-2.7907-10.9493.3907z" fill="#dcba5a"/><path d="m78 71.2986 1.8413-2.3053v-1.6387s2.0427-.5466 4.2467-2.792c2.204-2.2453 5.2587-6.5533 7.9493-6.2906 2.6907.304 2.9534 5.8453 3.0547 7.404.1013 1.5586.4453 5.096.9907 6.9986.6066 1.9014-6.5534 9.1014-6.5534 9.1014l-4.8626 3.7013z" fill="#e9ce77"/><path d="m83.6973 90.4932s1.4973-2.3467.4-2.852c.6466-1.456 1.84-2.9933 1.84-2.9933s.8493-2.1027 3.6-4.692c2.7506-2.5894 4.4506-4.3093 4.896-6.048.2745-1.1331.4239-2.293.4453-3.4587.2974.243.6155.4593.9507.6467.4453.2026 2.548 1.9413 2.2453 5.4413s-1.6 4.956-1.6 4.956-1.2533 1.2534-2.1427 1.9014c-.952.6466-1.2946 1.3946-2.8933 1.456.1643-.1307.349-.2334.5467-.3041 0 0-1.6587-.2013-2.5494.6067-.8906.808-2.784 3.2973-3.7346 4.0467-.9507.6066-2 1.2947-2 1.2947z" fill="#cdae50"/><path d="m150.951 51.1521c-2.39-.871-4.901-1.3622-7.443-1.456-4.248-.1414-10.457.1013-16.545.1413-6.554.04-12.5-2.2453-20.752-2.6493-1.355-.8094-4.8-4.3494-15.555 3.1546.6467-.04 7.808-1.6586 10.295 1.4574 2.508 3.0946 1.8 8.3533 1.457 9.6066-.648 2.792-2.752 6.8574-3.6 9.7094s-.648 4.3506-1.2547 6.3506c-.6066 2-1.9413 2.9934-1.1533 5.2987 1.052-.6467 1.6-.6467 3.3573-4.5907 1.7577-3.944 1.3957-6.756 4.3097-10.0933 2.852-3.3573 7.6-7.9493 9.405-9.1027 1.805-1.1533 16.14-8.596 31.149-1.496 3.62-.384 6.331-6.332 6.331-6.332z" fill="#d2a83e"/><path d="m96.7027 48.4c-.0149-.152-.0485-.3016-.1-.4453-.1404-.2958-.3247-.5687-.5467-.8094 0 0-3.56-.6466-5.36-.4453-3.156.344-6.008 4.248-7.3427 6.2507-1.3346 2.0026-2.9933 5.096-4.7933 6.6946.0197-.1557-.0162-.3134-.1013-.4453 0 0 .1013.1413-.1.344-.2014.2026-.2027.3026-.1014.4l.304.3027c.1 0 2.892-1.2547 6.6947-4.8 4.0453-3.7014 7.14-5.6 8.7587-6.2507.8632-.3669 1.7655-.6339 2.6893-.796z" fill="#c29637"/><path d="m165.757 33.1919s-.648.808-1.457 1.6987c-1.8 1.9013-4.147 4.044-6.149 6.2493-1.9 2.104-4.044 3.7427-6.452 6.4933-2.408 2.7507-5.2 5.804-5.907 6.6947-.647.8907-1.152 2.3467-1.152 3.0947-.344-.2427-.748-.5054-.748-.5054.17.3176.374.6161.607.8907.505.708 1.293 1.6 1.698 2.144.498.6925.855 1.4757 1.051 2.3053.243.04 1.8.344 3.743-2.852 1.942-3.196 4.489-6.6946 4.489-6.6946l4.045-6.008 2.55-5.096 3.2-5.704.486-2.7107z" fill="#ac8132"/><path d="m169.904 29.1067s-2.448 2-3.399 3.2c-.95 1.2-3.2 4.3493-3.2 4.3493l.81-.1013 4.106-3.64 1.6-2.852.082-.9507z" fill="#a88f33"/><path d="m169.155 189.847s-.04-1.659.89-2.65c.951-.992 3.358-2.448 5.704-7.909 2.347-5.461 2.608-6.695 2.608-6.695s-4.206 3.6-6.8 4.45c.607-1.255.951-2.144 1.255-2.792-.344-.303-1.8-.647-1.941-.808.808-.81 1.253-2.792 2.892-4.107 2.104-1.6 5.946-4.349 8.933-6.8s8.859-8.151 9.608-9.809c.445.646.545 1.05.545 1.05s-2.952 3.844-4.489 6.291c-1.356 2.104-1.255 3.297-1.255 3.297l2.792-1.2s.808 2.994-2.852 7.546c1.6-.607 2.246-.243 3.155-.75-1.497.952-3.56 2.247-5.501 5.806-1.902 3.56-4.491 7.706-8.859 10.294-4.248 2.731-6.696 4.774-6.696 4.774z" fill="#a67a2e"/><path d="m158.192 53.2572s-1.659 3.4574-1.901 6.148c-.04.648-.203 1.1534-.203 1.9014-.04 2.4066.141 5.0973-.4 6.3506-.203-.5053-.304-.8493-.507-1.0506-.302.8493-.849 3.4986-1.294 4.4893-.202-.6467-.647-2.892-.606-5.5413.042-2.6494.1-3.156.1-3.7014-.1.808-.646 1.9014-.849 2.548-.303-.5453-.647-1.2533-1.052-1.84-.243.4-.545.9907-.808 1.2947-.041-.2427-.141-.8907-.203-1.8-.04-1.052-.101-2.4067-.04-2.6907.1-.5453.951-2.6893 2.751-4.652 2.144-2.3466 4.349-6.856 4.996-8.252s3.397-7.2 3.397-7.2h2.104l-3.054 6.9574s-1.84 3.8026-2.791 5.2c-.951 1.3973-2.953 5.4013-3.844 6.9586.647-.8493 1.193-1.2946 1.841-2.104.627-.5666 2.366-3.0133 2.366-3.0133z" fill="#8c6228"/><path d="m169.944 28.8428c-.344 1.0577-.887 2.0399-1.6 2.8933-1.255 1.4973-3.945 3.4987-5.259 5.096-1.2 1.5573-3.6 5.8053-2.509 10.8413.4-1.092 1.153-3.256 3.156-5.704s4.147-5.2586 5.2-7.4426c1.051-2.2054 1.192-3.944 1.192-3.944l.4-.5054-.243-1.1533-.344-.0813z" fill="#cba94c"/><path d="m210.903 163.005s-.81-2.204-1.052-4.206c-.243-2.003.4-2.4-.344-4.692-.446-1.396-1.254-1.2-1.456-1.396-.203-.196-.344-2.306-.304-3.459s-.04-2.649-.243-3.297c-.303-.243-.505-.446-.951-1.942-.505-1.497-.748-2.245-.99-2.689-.243-.444-.952-.849-.952-1.295 0-.89.809-1.354.809-1.6-.04-.505-.647-.1-.809-.242-.202-.243.506-1.699.244-1.902-.102-.1-.81.75-.992.507-.203-.244-.446-2.651-.81-4.248-.342-1.557-.708-2.689-.748-3.155-.04-.445-2.792-8.293-3.458-10.194-.538-1.607-.99-3.241-1.355-4.895-.203-.951-.344-2.893-.445-2.691-.102.203-.04 1.194-.203 1.154-.141-.042-.647-3.499-.808-4.046-.141-.546-.992-2.4-1.2-3.741-.203-1.356-.647-4.896-.951-7.3027-.304-2.4066-.445-3.3973-.445-4 .05-1.474-.031-2.9496-.243-4.4093-.4-2.5493-1.2-5.644-1.901-7.4427-1.355-3.3986-4.956-12.096-5.6-14.26 0-.5466.708-.2426.708-.2426s1.759 4.4093 3.053 7.8066c1.255 3.3987 2.448 6.392 2.752 6.696.243.3027 2.144 3.64 2.994 9.1014.849 5.4613 1.152 10.4973 1.658 13.8543.243 1.6.446 3.298.951 4.996.545 1.842 1.395 3.743 2.508 6.655.951 2.448 1.659 4.491 2.043 6.251.445 2.245.445 3.944.708 5.057.244.951.606 2.851 1.457 5.6s2.103 6.291 2.952 8.495c1.66 4.409 2.4 8.09 2.651 10.053.221 2.023.97 9.021.768 11.124z" fill="#a88f33"/><path d="m170.045 28.5999-.101.2427s.303.1013.243.5066c.004.5546-.03 1.1088-.102 1.6587-.1.708-.302 1.2533-.342 1.6987 0 .9506.141 2.0426-1.2 4.7533-.4.748-.647 1.3947-.85 1.84-.505 1.092-.606 1.2547-1.052 1.76.708-.4 3.258-2 4.551-1.76-.889.5053-2.245 1.4973-3.095 2.792.203.04 1.052.2027 2.4 0 2.246-.344 4.754-1.1533 6.958-.992 2.408.1413 1.457-2.892 1.457-2.892l-2.779-6.108-5.258-3.7-.83.2013z" fill="#be9c44"/><path d="m183.759 74.3533s-2.347-2.3467-3.298-10.4c-.95-8.0907-.748-20-.748-20l-1.901-4.652s-.4-3.0946-1.396-4.2466-2.952-3.0947-3.843-4.0454c-.89-.9506-1.901-2.2453-2.508-2.448.303-.5053 1.659-3.3573 6.856-3.3973 5.198-.04 6.8 2.852 7.343 3.904s2.993 5.6 3.903 14.2667c.849 8.6559.89 9.3039.749 12.2973-.101 1.6586-.648 5.5013-1.6 9.6066-.869 3.48-1.82 7.364-3.56 9.1227z" fill="#a17c34"/><path d="m176.4 81.2507c.782.0564 1.563-.1199 2.245-.5067.748-.04 3.459.304 5.542-2.3453.141.6053.506 2.2453-.446 3.7013.507-.5067 1.255-.708 1.356-.8493.04.748.748 3.0533-2.245 8.656.808-.8894 1.759-.8494 2.608-.9507.041 1.052.607 4.5907-.889 6.4933-.991 1.2947-2.61.8894-2.61.8894.024-.2826.024-.5667 0-.8494-.04-.5466-.242-1.092-.1-1.456-.782-.3572-1.494-.8507-2.104-1.4573-1.76-1.6587-4.045-4.4893-4.206-6.5933-.203-2.3467 1.901-2.852 1.901-2.852-.176-.1577-.327-.3422-.445-.5467-.102-.3427-.203-.8893-.607-1.3333z" fill="#8c6228"/><path d="m160.8 55.8052s-.101-.1413-.647.5053c.102-.6466.203-1.2546.243-1.8413.258-.5431.592-1.0468.992-1.496-.304.6053-.507 1.152-.507 1.152s.75-1.396 1.842-2.2453c.748-.6067 1.698-.8894 2.102-1.456.446-.6067.344-.708.446-.8094 0 0 .992-.6466 2.509-2.5493.201-.2427.505-.5053.708-.748.343-.1413 1.152-.5053 2.103-.992.992-.5453 2.104-1.2933 2.792-1.6 1.354-.6067 2.792-.5453 3.458-1.4973.506-.1414 1.051-1.6587.951-2.952.748.3026 4.591 2.6893 5.907 7.908.95 3.7013-.75 9.4053-1.458 12.1573s-.808 4.7933-1.8 6.0467c-1.254 1.66-5.298 4-6.29 5.1586-.85.9507-3.398 3.3574-3.298 5.096.102 1.2947 1.699 2 2.044 2.2454.346.2453.343.5466.991.4.648-.1467.889-.4454 1.153-.4454.303.04.303.1014.444.1014.103-.0031.205-.0169.304-.0414 0 0-.101 1.8414-4.409 2.4-.304.0414-.607.1414-.992.2027.507-.2427.809-.2427 1.356-.9907-.607-.1013-2.347-.2026-2.792-.3439.141-.2427.607-.8907.991-1.1934.344-.3027-.04-.4-.343-.2427-.521.3546-1.021.7392-1.497 1.152-.506.4454-.951 1.052-1.76 1.6001-.243-.8094-.203-2.3467.749-3.4587-.244.04-.709.748-1.153.6066-.081-.7377-.033-1.4838.141-2.2053.243-.9107 1.557-2.508 1.557-2.508l6.351-11.348 1.355-8.596-14.543 2.8253z" fill="#92723a"/><path d="m160.457 56.2906s-.344.2426.344.708c-.101.1413-.344.6466-.648.9906-.342.4-.708.648-.849.992-.303.708-.545 1.1934-.545 1.4974s-.102 2.2453-.951 3.4986c-.304.4454-.648 1.1934-.891 1.6987-.505.8893-.95 1.6-1.052 2-.201.708-.342 2.6493-.342 2.6493s.445-.5466.606-.748c-.244.5054-.506 1.0507-.89 1.456.242-.2026.95-.708 2.144-1.76 1.658-1.3946 4.248-3.7413 7.404-5.6-.952.344-1.76.344-2.407.4454.505-.5054 5.056-5.8454 7.443-6.3507.145-.1837.217-.4144.202-.648l-2.044-.2013-4.146.8893-.606-3.2-2.772 1.6787z" fill="#b18e3e"/><path d="m167.052 74.4947s-.547.5454-1.052 1.9014c-.389-.4063-.723-.8622-.992-1.356-.748-1.2534-1.9-2.852-4.591-1.9414-.04-.8493-.101-1.2946 0-1.9013.446-.1 1.8-1.192 3.155-2.7907.952-1.092 1.841-2.3466 2.448-3.944.4-.304 1.092-.8093 2-1.396 1.295-.8893 2.852-2.104 3.095-3.4586-.607.2426-1.902.8493-3.844.7493.749-.344 1.901-.708 1.76-2.2053.304-.2027.546-.344.546-.344-.228-.0761-.468-.1104-.708-.1014-.041-.1413-.101-.3426-.445-.2426s-.4.1013-.445.2426c-.142.0414-.607 0-.951.244s-1.295 1.0507-1.659 1.192c.142-.2426.343-.6053.343-.6053s-.991.1-1.699.4c-1.294.4453-2.79 1.2547-4.308 2.0427.142-.2427.203-.4.303-.4454.1-.0453.344-.1.344-.1413s-.1-.4-.04-.5453c.454-.961.989-1.8813 1.6-2.7507.708-.952.849-2.3067.849-2.3067l3.095-1.5573 8.697-2 5.644.344-.708 3.904-3.333 6.816-2.852 6.2093-3.257 3.804-2.994 2.184z" fill="#543e26"/><path d="m181.149 57.6s-3.398 4.2067-4.349 4.8547c.607-1.2947 4.349-9.0014 5.704-11.1454-.303-.2426-.708-.2426.243-4-.808 1.9-1.092 2.892-1.759 3.3974-.667.5053-.749.344-1.2.344.085-.154.12-.3306.1-.5054 0 0-2.852-.344-4.8-.344s-5.804 1.052-7.949 1.9014c-1.699.708-2.65.708-3.256 1.152-.607.5053-.951 1.052-1.255 1.1933-.243.1413-1.395.5053-1.659.8893-.242.4-.646.8494-.646.9507s-.102.244.202.1413c.1-.04.85-.4453 1.699-.9506 1.152-.6467 2.548-1.3947 3.56-1.84 2.892-1.1534 3.803-.9507 5.096-1.1934 1.355-.2426 3.297-.8093 4.591-.8093 1.294-.04 3.742 0 4.309.1013-.243.2027-.445.4454-.344 1.2947 0 .2427-.203.5053-.4 1.092-.605 1.6587-1.759 4.4093-2.4 5.8053-.889 1.9-1.9 3.4987-2.4 4.4894-.5.9906-1.6 3.6-2.689 4.996-1.09 1.396-1.659 2.2453-2 2.5493-.342.304-2.792 2.1027-2.61 2.7507.446-.1414 3.258-1.2 5.299-3.4987s2.448-3.7013 4.045-4.956c1.598-1.2547 2.852-3.3573 3.6-5.096.627-1.6187.486-2.124 1.274-3.56z" fill="#806031"/><path d="m107.909 88.9974s-.445 1.84-1.457 2.7507c-.991.8906-2.751 1.6587-2.952 3.156-.243 1.496 1.76 2.2453 1.76 2.2453s-1.093 1.8-1.093 3.1546c0 1.396-.04 1.659.101 2.993-.161.104-.297.24-.4.4 0 0 .1 1.295 1.092 2.103s1.84 1.295 2.345 1.092c.077.165.145.334.203.507 0 0 .749-1.902 1.255-3.56.505-1.699.95-1.458 1.152-3.743.201-2.2853 2.4-6.2092 2.4-6.2092l1.5-3.3534-2.447-1.9013-3.459.364z" fill="#b6903c"/><path d="m112.46 92.2935c-.504.5179-.97 1.0723-1.393 1.6586-.647.8907-1.152 1.6987-2.103 2.044s-1.557.3427-1.497 1.2947.95 1.3546 1.456 1.84c.546.5053.992 1.3542.749 2.3062.303-.141.849-.304 1.355-1.396.505-1.0915 4.04-7.7462 4.04-7.7462h-2.607z" fill="#685026"/><path d="m126.4 76.9413s.303-.808 0-1.3947c-.304-.6067-2.144-.8093-3.055-1.4973-.95-.708-2.104-1.2-3.054-.8894.141-.344.708-1.0933.242-1.2546-.445-.1414-2.102.6066-2.548.9506-.445.344-1.457.748-1.658.992-.202.244-.547.708-.75.5054-.202-.1414-.302-.5054-.646-.304-.344.2013-2 1.5573-2.306 2.3466-.305.7894-.992 2.5494-3.054 4.5507-2.063 2.0013-2.954 3.2973-2.347 4.0453s.891.2027.992.8494c.078.6348.044 1.2784-.101 1.9013-.243 1.052-.647 2.0427-.102 2.2453 1.396.4454 2.752-.4 3.055-.1413.607.5453-.344 2.508 1.092 2.892 1.457.4 2.893-.344 2.893-.344l5.299-2.852 5.097-2.6893 2.608-5.1587-1.398-4.308-.267-.4453z" fill="#d4b968"/><path d="m121.4 89.2599s-.891-1.3547.203-2.5493c1.093-1.1947 2.649-1.6987 3.256-2.4467-.116-.1425-.271-.2477-.446-.3027.403-.7206 1.018-1.3001 1.76-1.66-.302-.3026-.708-.5453-1.152-.5453-.992 0-1.6.6066-2.509.6066-.889 0-.991-.4453-.991-.4453s1.498-.1413 1.355-.8093c-.141-.708-.4-.708-.4-.708s2.892-1.2 3.397-1.84c.506-.64.446-1.396.547-1.6987.343 0 2.345-1.052 3.155-.6067.809.4454.242 1.6587.242 1.6587s2.45-1.8413 3.698-3.6466c1.092.1013 1.6-.748 2.4-.748.992 0 2.549 1.3546 2.852 4.2466.202 1.6587.505 2.6094.202 5.5427-.141 1.6587-.101 5.2.4 6.9573.343 1.396 1.152 1.2547 1.152 1.2547-.124.4254-.37.805-.708 1.092-.546.5053-.606 1.8413-.546 2.3467.08.3694.182.734.304 1.092 0 0-.647.7479-.81 1.2546-.141.5053-.808.8493-1.294.8493-.487 0-.243-.0413-.89 0-.646.0414-.849.1414-1.254 0-.406-.1413-.708-.304-.546-1.6.142-1.2946-4.996-4.308-4.996-4.308l-8.4-2.9933z" fill="#cca849"/><path d="m111.752 102.043s1.84 2.448 9.405 2.448c3.6 0 4.855-.344 5.6-.547.81-.203 3.843-1.395 6.898-4.9959 2.75-3.256 2.144-4.5907 2.144-4.5907l-1.6-.2427-5.2.708-15.387 6.5533-1.867.667z" fill="#585136"/><path d="m117.395 102.649s-6.554 1.458-6.554-2.6891c0-4.0453 4.046-8.2933 5.058-9.0413 1.052-.7493 3.56-1.6 3.56-1.6h6.048l1.152 3.0547-.506 6.5933-8.758 3.6814z" fill="#252211"/><path d="m123.443 90.5547s-1.254-1.1534-4.106.4c-2.852 1.5533-5.158 4.8-5.3 7.748-.141 2.6083 2.144 4.5503 5.704 4.6523 2.65.1 4.248-.203 5.058-.4-.203-.243-1.255-1.558-1.255-1.558l-.1-10.841z" fill="#c3b378"/><path d="m122.209 91.2001s-.302-.2427-1.2.2426c-.748.4-1.84 1.4574-2.689 2.2054-.547.4453-.891.6466-1.2.9906-1.255 1.4974-2.307 3.9454-1.699 5.1587.608 1.2136 2.61 2.6096 7.707 1.6586l-.933-10.2546z" fill="#e6d89c"/><path d="m120.551 93.7093s-.81 1.2547-.81 3.2573c0 2.0427 1.154 5.2984 5.402 5.5414 3.256.203 5.44-4.692 7.806-6.5934 1.8-1.456 2.892-1.4973 2.892-1.4973s-1.84-2-6.754-4.5907c-4.855-2.6093-10.296-2.9533-13.25 1.052 1.396-.1013 5.907-1.2546 5.907-1.2546l2.205.708-3.398 3.3786z" fill="#252211"/><path d="m126.901 96.3588c-.141-.3027-.242-.708.344-.808.587-.1.85-.0414 1.052.4.203.4413.4.8093.1.992-.302.1613-1.092 0-1.497-.5867zm-.95-2.852s-.203.1413-.102-.1414c.04-.3426.304-.9506.951-.808.647.1427.507.8494.4 1.052-.107.2027-.647.5454-1.052.4-.051-.0131-.099-.0382-.139-.0731-.04-.035-.071-.0789-.09-.1281-.02-.0492-.028-.1024-.023-.1553.004-.0528.021-.1038.049-.1488z" fill="#6f674d"/><path d="m71.2 94.7999s1.6 1.2 3.4586 1.1534c1.84-.0414 4.2067-1.9414 5.2987-3.156.6467-.708 1.2-1.456 1.8-2.0427.5067-.5053.8493-.748 1.092-1.092.344-.4.708-1.152.8907-1.396-.4454.344-1.0921.952-1.7601 1.356-.6466.4-2.0426 1.152-2.6093 1.3547-.5453.2026-6.2093 3.2-6.2093 3.2z" fill="#ac924c"/><path d="m73.6453 79.8548s.8893-.6067 2.6093-.992c1.6587-.4 4.996-.708 4.996-.708l2.7507 1.2 1.092 4.1467-2 4.3093-2.548 1.6-2.8934-4.652-4-4.896z" fill="#9f8e57"/><path d="m70.0453 83.5561-.952.7107s.244-.4454.4453-1.8c.2013-1.3547 1.2547-4.652 2.792-6.5534 1.5373-1.9013 1.4973-1.8 1.4973-1.8-.1414-.0258-.2868-.0213-.4263.0135-.1396.0347-.2702.0987-.383.1879.2027-.448 1.4973-2.048 2.792-2.848s1.8-1.052 3.1547-.4c1.3546.652 1.6986.9906 2.6906.9506s1.84-1.092 1.84-1.092.2027.6467-.5453 2.144c-.748 1.4974-3.7013 4.5507-3.7013 4.5507l-6.1494 4.2067-3.0546 1.7333z" fill="#eac970"/><path d="m74.5947 79.3493s4.4507.6067 5.8053-.6467c.04.1414.2027.1414.2027.2427-.0109.0764-.0465.1471-.1013.2013.1473-.0235.2961-.0369.4453-.04.1781.053.3614.087.5467.1014.1492-.0033.298-.0171.4453-.0414-.0141.1006-.0482.1972-.1005.2843-.0522.087-.1214.1627-.2035.2224.2027 0 .4.04.4.2013 0 .1614.04.648-.2027.7494-.201.0556-.415.041-.6066-.0414.016.383.12.7571.304 1.0934.4.748 1.2533 1.6 2.4 1.3546 0 0 .6053 1.456-1.9427 4.692-.3427.4454-.708 1.052-1.152 1.5574-.1754.3824-.3095.7824-.4 1.1933 0 0 4.3093-1.6587 5.5427-5.4413 1.2546-3.8027 1.4973-7.544 1.2546-11.0427-.0413-.992-.2026-1.6987-.4453-2.2053-.6067-1.2547-2.3067-1.052-2.9933-.344-.992.992-2.6507 3.4586-4.956 5.1573-2.3467 1.6987-2.4467 2-4.248 2.752z" fill="#d7bc6b"/><path d="m69.2561 84.8106s-.8493.5054-1.2946 2.4c-.4454 1.9414.4 4.308.8893 5.056s1.6 2.792 3.904 2.8934c.5703-.003 1.1342-.12 1.6586-.344.8044-.3688 1.5588-.8379 2.2454-1.396.992-.748 1.8-1.3947 1.6987-1.456-.2427-.1014-6.108-4.956-6.108-4.956l-2.2054-2.4614-.7893.2667z" fill="#585136"/><path d="m74.8 92.8599s1.1934-.1 1.9014-.5453c.708-.4454-4.1467-5.2587-4.1467-5.2587l.344 5.2z" fill="#453a25"/><path d="m69.6399 84.4454s-.6067 1.1533-.6067 1.4573c-.1013.9907.2027 4.1054.4453 5.096.2427 1.052 1.5574 2.6494 3.2574 2.6494 1.0506 0 2.508-.6467 2.508-.808 0-.2027-1.4974-.4-1.9014-1.1534-.2426-.4-.344-1.3946-.4-2.4-.04-.6466-.04-1.3546.2027-1.6.5467-.6066.6467-2.3466.6467-2.3466l1.9413-3.6067h-2.5533l-3.0547 1.9013z" fill="#84754b"/><path d="m68.8921 85.5586s2-2.6494 3.8027-3.2574c1.8026-.608 2.6093-.2426 2.6093-.2426l-1.052 2.6906-1.4973 1.6587.1013.8493s-.244 2.2454 1.2533 3.8027c1.4974 1.5573 2.6094 1.4973 3.2574 1.4973s2.508-.5466 3.4586-2.792c.8494-2.1026 1.5574-4.8-.1413-7.504-1.66-2.6906-4.592-2.7946-5.1587-2.7946-.5666 0-5.016.2226-6.6333 6.0879z" fill="#252211"/><path d="m120.247 94.5587c-.748-.344-.04-2.4466.708-3.0946s1.698-1.3947 3.358-1.4974c.606-.04 1.192.344 1.092.7494-.141.748-1.193 1.8-2.144 2.548-1.314 1.032-2.165 1.6786-3.014 1.2946z" fill="#f7f7e7"/><path d="m79.7934 83.0907c.5467-.04 1.2547.4 1.396.992.1414.6466-.3439 1.9413-1.396 1.9413-.8493 0-1.2946-1.052-1.2946-1.3547.0095-.2488.0791-.4917.2026-.708.04-.0613.1414-.7693 1.092-.8706z" fill="#f8f6de"/><path d="m71.9054 83.5559s-1.396.6467-2.0426 2c-.4621.9994-.6019 2.1177-.4 3.2.1013.5053.6066 1.7587.9506 2.204s.8094.7493 1.1534.708 1.0506-.9507 1.0506-1.496.0414-2.852.708-4.1067c.5867-1.2533-1.416-2.508-1.416-2.508z" fill="#d4c38b"/><path d="m72.1079 83.4547c-.2426.1413-.6466.344-.5466.6067.1013.2426.9506.4 1.2546.992.344.6067.344 1.2533.2427 1.5573.2642-.1255.5039-.2971.708-.5066.4453-.5054.9907-1.192 1.456-1.192.304 0 .6066.1413.8906.1413.4454 0 .8894-.1414.9507-.6067.1-.6067-.8493-1.1533-1.396-1.052.1014-.4.2427-.9907-.2026-1.396-.4454-.4053-1.84.304-2.144.5067-.304.2026-1.2134.9506-1.2134.9506z" fill="#e2d59d"/><path d="m104.248 125.951 2.993-.884.85.606s.605 1.295 1.557 1.456c-.304.647-1.093 1.2-1.052 1.659s.445.809.445.809-2.69 4.45 2.61 8.934c-1.255.505-2.852 1.2-3.702 1.6.606.141 1.9.4 2.447.89.547.491.547.647 1.052.951s.808.708.708.889c-.344-.202-1.497-.808-1.699-.242-.201.565-4.996.344-4.996.344l-8.0903 1.557s.3027-.809-.5467-1.557c-.9906-.89-2.204.04-3.4986-.951-1.6987-1.295-1.76-2.792-2.3054-3.357.5454-.344 1.6587-.85 4.308-1.2-.1013-.203-.4453-.81-.2426-1.355.2426-.708 1.2533-1.153.9506-2 .4454-.101.6467-.101 1.76-1.497 1.052-1.396 1.6987-1.699 2.508-1.8.809-.102 1.295 0 2.792-1.396 1.051-.991.708-1.84.708-1.84s.687-.223.445-1.619z" fill="#cbac5a"/><path d="m95.4092 126.4c.04-.203.2027-.304 1.2947-.203 1.092.102 8.0091-.646 9.8911-.748 1.901-.141 8.596-.041 11.853.647s6.553 1.497 8.151 1.901c1.6.446 2.104.606 2.042.808-.04.203-.4.4-.606.344-.202-.04-5.502-1.658-7.139-2-1.637-.341-7.303-1.254-10.4-1.2-2.892.042-4.045-.04-6.492.243-2.448.304-6.4934.708-7.7068.547-1.2-.142-.952-.142-.8906-.344z" fill="#d6bc6f"/><path d="m111.691 142.253s4.146 2.246 5.644 4.996c1.092 2.043-.647 3.055-.647 3.055s2.347 0 2.043 1.295c-.142.808-4.046 2.992-6.655 4.145-2.649 1.153-2.548 1.093-3.843 1.295-1.254.202-4.693-.4-5.401.606-.708 1.007-.4 2.044-.203 2.206.203.141 1.842.344 1.842.344s-.344.95-3.742 1.052c-3.3969.101-4.2476.342-4.4503.708-.2026.342.6467.141 2.2054.4 1.5569.242 3.7409.4 3.7409.4s-.708.606-2.5476 1.092c-2.104.545-5.4013 1.052-6.392 1.658.5053.344 1.2547.85 1.6.89-.8493.202-2.044.648-2.2453.809.3026.203.708.445.708.445s-1.7 2.043-2.6907 2.55c-.9907.506-6.6947 3.154-8.6573 2.649-4.8947-1.295-5.5014-6.655-6.6947-7.059-1.8-.606-2.6493.606-4.248-.244.708-.505 1.0933-.808 1.8413-1.152-.8093-.4-4.996-3.054-4.996-3.054-.4378-.955-.9237-1.886-1.456-2.791-.8093-1.396-2-3.257-2.8933-4.896-1.9413-3.6-2.0427-5.259-3.8027-7.301.304-.4 1.3547-.344 1.3547-.344l14.7467 4.854 26.1479.758 6.8-9.708 2.892.344z" fill="#dfc677"/><path d="m72.9573 157.059c.1578.175.3417.325.5453.445.5067.344 1.2547.749 1.76 1.355.2027-.303.708-.85 1.6 0 .892.849 2 .244 2.6893.445.708.244.748.344.748.344s.4-.344 1.2947-.708c.5467-.203 1.1933-.344 1.9013-.545.6467-.142 1.3547-.344 1.8414-.344.4453.302 2.0426 2 8.4546-.506 6.048-2.346 7.4431-2.609 8.4551-2.246.101-.243.202-.708 1.76-.647 0-.647-1.295-2.852-1.295-2.852l-7.1401-2.447h-3.9053l-11.7107 2.144-6.4893 3.703-.5053 1.867z" fill="#c4a859"/><path d="m69.0532 152.953s.1413 1.092 1.76 2.246c1.6 1.152 2.1027 1.84 2.1027 1.84s.304-.4.5466-.808c.2427-.446.4454-.951.8494-1.092.8093-.344 2.6493.302 3.0547.201.344-.1.2426-.808.6066-.808.8494-.041 1.3947.545 1.6987.545s1.0507-.04 1.152-.201.1413-1.841 1.2947-2.651c1.2546-.889 2.792-.505 3.2-.302 0 .302.04 1.052.8493 1.092s.8893-.102 1.6.141 1.5573-.04 1.9413 1.152c.344-.1 1.1534-.201.9507-1.355.4-.302.7493-.505 1.6-1.698.2027-.303.5453-.647.8093-1.092.708 0 1.5574-.142 2.6894.849-.344.243-.5467.4-.6467.647.296.293.5664.611.808.95.304.4.5067.891.8907.992.8493.243 2.2453-.101 3.8024 0 1.498.102 2.751.647 3.298.991.202-.1.202-.141.708-.04.505.101.889.141.344-.505.302.141.646.445.95.141s.546-.748 1.395-.849c.849-.102 1.153.04 1.497-.85.446-1.092-1.092-1.092-1.092-1.092s.708-.648 1.498-1.497c.95-.889 2.042-2.043 2.305-3.459.445-2.609-2.103-2.952-2.103-2.952l-12.3585 3.803-15.1093-.749-12.884 6.412z" fill="#927d49"/><path d="m57.9494 117.253s-.4.506-.6467 1.699c-.2466 1.193-.1413 1.052-.344 1.901-.2026.85-2.692 9.304-1.7586 12.156.9333 2.852 2.5493 3.904 3.56 6.21.2026.505.4.809.5053 1.254.344 1.496.0413 2.65.4453 4.147.1414.505.5067 1.092 1.052 1.699 1.2 1.253 3.156 2.446 4 3.296 1.192 1.254 2.892 3.804 5.056 4.045 1.1534.141 2.792-.344 4.1467-1.152 1.2-.749 1.9413-1.8 3.2-2.4.8893-.445 1.84-.607 2.6893-.809 1.76-.344 3.3587-.4 4.3093-.203 1.456.304 4.8947 1.356 6.8 1.356 1.4889-.024 2.9694-.228 4.4094-.607 2.892-.849 6.3906-2.306 8.6976-2.953 1.354-.4 2.446-.505 3.56-.748 1.901-.445 3.498-1.052 4.409-2.205-.607-.708-1.355-1.8-5.401-1.76-4.591.101-9.891 2.649-12.5003 3.054-2.6093.406-3.7413.748-6.6546-.304-2.856-1.062-2.9507-1.765-2.9507-1.765s-2.9987-2.097-4.2534-7.444c-1.2546-5.347.0001-9.243 3.2574-12.945.8493-.951.6467-1.8.6467-1.8s2.144-2.892 1.5573-5.6c-.6467-2.691-4.7934-2.144-4.7934-2.144l-22.9973 4.022z" fill="#6e6342"/><path d="m61.408 126.255c-.1783.335-.2622.712-.2426 1.092.04.545.2026 1.253 1.84 2.852 1.396 1.394 1.092 2.952 1.092 2.952s.7026.141 2.6093-.751c1.4973-.708 2 .547 2 .547.4359-.229.9083-.38 1.396-.446.4419-.04.8696-.177 1.2533-.4 0 0 1.76 1.8 3.2974 2.65 1.396.749 2.2053 1.254 2.8933.749.6467-.445.6467-1.356.6053-1.76-.1604-.373-.3635-.726-.6053-1.052-.4453-.647-1.1533-1.396-1.2-2-.1013-1.395 1.052-3.055.808-3.459s-1.152-.505-3.3973.304c-2.3254.768-12.3587-1.274-12.3587-1.274z" fill="#39331f"/><path d="m66.7067 135.296s-1.152-1.092-.748-6.392c.4891-.007.9774.04 1.456.141 0 0 .628 4.107-.708 6.251z" fill="#292311"/><path d="m58.4959 113.208c.1607-.119.3099-.253.4453-.4-.4.748-2.2466 3.741-.7493 8.455 1.4973 4.692 5.2587 8.19 9.8907 8.353s7.0666-2.104 9.8506-5.501c1.092-1.355 2.3467-3.055 3.4587-4.207 1.6587-1.801 2.9533-2.307 2.9533-4.045 0-3.56-3.6413-5.159-9.0013-6.756-5.36-1.598-10.1947-1.4-12.7027-.307-2.4466 1.192-3.4986 2.447-4.1466 4.409z" fill="#252211"/><path d="m75.7081 136.893.4-.202s.1-1.6.748-1.558c.6467.102.9507.952.8893 1.255-.04.303-.2013.809-.8493.748-.8493.02-1.192-.243-1.192-.243z" fill="#3f3824"/><path d="m73.908 130.097s.4-.141.8893.344c.4 0 2.144-.202 2.6907.142.5466.344.708.646.708.646s-2.0427.446-3.156 0c-1.132-.384-1.132-1.132-1.132-1.132z" fill="#2d2815"/><path d="m82.9092 130.4c0-.101-1.092-.849-2.2453-1.093-.2027-.04-.244.101-.4.101-.1013-.04-.1413-.344-.1413-.344l-.656.345s-.1014.142.2426.4c.3027.243.8094.446.9507.85s.1413.545.2027.606c.04.04.748 0 1.092-.202.344-.203.992-.534.9506-.667z" fill="#82764f"/><path d="m72.6946 134.507s.2013-1.395 1.5573-1.456c1.3947-.102 1.6587 1.253 1.6587 1.253l-.8094.809c0-.02-.6066-.869-2.4-.606z" fill="#2d2816"/><path d="m81.4934 128.499s-.7493.809-2.4067 1.052c-.1413-.203-.4453-.607 0-1.254.4454-.646.9507-.849 1.456-.648.223.036.431.136.5994.286.1685.151.2904.346.3513.564z" fill="#574f35"/><path d="m84.5468 129.491c.0413-.203-.1-.243 0-.344.1-.102.648-.303.7493-.203.04.041 0 .203 0 .4s0 .4-.1013.545c-.1414.203-.5454.304-.748.244-.2027-.06-.2427-.344-.2427-.4.1-.04.3427-.141.3427-.242zm3.4533-2.184c0-.102.344-.304.5467-.304.3026 0 .3026.242.344.304.1.04.1-.042.2013.141s.244.505.1413.708c-.1026.203-.5053.343-.6053.303-.1413-.102-.5867-1.011-.628-1.152z" fill="#82764f"/><path d="m81.0481 129.956s.4453.1 1.052.607c-.2027.141-.5067.302-.5067.302s-.04-.465-.5453-.91z" fill="#6e6342"/><path d="m80.0572 125.505c-.1013-.1.3027-.342.5454-.302s.344.202.6067.242c.2626.04.304-.101.4-.202.096-.102.4453-.04.5053 0 .0374.044.0712.091.1013.141.0043-.077.0243-.152.059-.221.0346-.069.0831-.13.1424-.179.0775-.057.167-.096.2617-.113.0946-.018.1921-.014.2849.012.04.141.2427.646.2027.748-.04.101-.6467.244-.7493.141.1013.244.5466.749.6066.849s-.4453.344-.6466.304c-.2827-.02-2.0227-1.032-2.3254-1.416zm2.6494-3.357c-.0375-.102-.1091-.188-.2027-.243-.1413-.04-.6067 0-.6067.243s.4 1.6.8494 2.307c.5067.708.8493 1.293 1.1933 1.456.108.049.2307.055.3432.018.1126-.038.2067-.117.2635-.221.04-.101.1413-.849.1013-2.609s-.1013-3.459-.2026-3.56c-.1014-.102-.5054-.1-.6467.101s-1.052 2.205-1.0933 2.508z" fill="#585136"/><path d="m80.9067 132.504s-.708-.445-1.396-.141c-.6467.304-.6067 1.497-.6067 1.497.1455.057.3027.077.458.06.1552-.018.3037-.073.4327-.161.4453-.303 1.0107-.808 1.112-1.254z" fill="#574f35"/><path d="m82.2413 134.103c-.04-.4-.4-.4-.4-.607.0248-.099.082-.186.1625-.249.0805-.062.1797-.096.2815-.095.2027 0 .4.243.648.4.2427.141.6067.4.6467.708s-.4 1.152-.8894 1.152c-.4893 0-.344-.911-.4453-1.315zm3.904-.547s-.8093.243-.7493 0 .244-.303.5066-.303c.1335-.139.313-.226.5054-.244.11-.005.2181.031.3026.102 0 0 .5467-.243.708-.102.1614.142.0414.142.1414.304.1273.181.2109.389.244.607 0 .161-.6067.505-1.0934.445-.5653-.121-.4653-.708-.5653-.809zm4.712-.911s.2427.142.0413.304c-.1413.142-.8493.4-1.4573.446-.6067 0-1.152.1-1.152-.102 0-.201.5053-.606.808-.708.0607-.076.1378-.137.2256-.179.0877-.042.1838-.064.2811-.063.2426 0 1.192-.102 1.456-.142.2426-.041.4453.1.3026.303-.06.141-.5053.141-.5053.141zm1.396-6.245s-.304.647-.6467.647c-.344-.04-.344-.142-.344-.243 0-.141.344-.505.3027-.607-.1 0-.344 0-.3027-.242 0-.203.344-.446.6467-.4.2287-.188.5135-.295.8093-.303.344 0 .6467.1.6467.303 0 .202-.4.646-.5467.749-.1613.161-.364.267-.5653.1zm-4.612 11.953s-.4.042-.4.243c0 .101.1.101.2427.041.0822-.004.1636-.018.2426-.041.04.041.04.243.344.243.2497-.034.4902-.117.708-.243.2427-.1.4454-.203.4454-.4-.1014-.344-.304-.507-.6067-.507-.1551-.01-.3097.026-.4453.102 0 0-.1014-.203-.4454 0-.344.202-.304.202-.2026.304.1813.161.1213.266.1213.266zm-2.2853 2.104c0-.101.5053-.304.6466-.242.1414.04.5454.808.5454.889 0 .101-.5054.344-.708.344-.2027 0-.5454-.344-.5454-.4 0-.04.2427-.1.2427-.141.06-.1-.1813-.344-.1813-.446zm-1.6-2.953c.1013-.04.1013-.141.2426-.243.0443-.029.0947-.048.1474-.055s.1063-.002.1566.015c.0357-.063.0851-.118.1446-.16.0595-.043.1276-.071.1994-.084.2427-.04.4454 0 .4.102 0 .304.2027.505.2027.748 0 .242-.1413.546-.6467.749-.5053.141-1.1933.141-1.2946.101-.1014-.04-.2027-.445-.1014-.648.1014-.202.384-.424.5467-.525z" fill="#82764f"/><path d="m84.4001 137.641s-.344.203-.344.304c-.0305.098-.0441.201-.04.303 0 .06.4453-.04.5053-.101.02-.04-.1213-.4-.1213-.506z" fill="#6e6342"/><path d="m81.3921 136.691c.2013.041.5453 0 .8079.101.2027.101.344.304.1414.547-.2027.242-.4.606-.8493.545-.5054-.04-.9907-.303-.9907-.505-.0085-.129.0086-.257.0502-.379.0417-.121.1071-.233.1925-.329.2026-.162.3026-.06.6466.02z" fill="#585136"/><path d="m81.1492 136.893s-.6467.506-.8093.75c-.2027.242-1.1934 1.496-1.496 1.758.1005-.177.2151-.346.3426-.505-.4.256-.6998.641-.8493 1.092-.2426.749 1.356 1.153 2.4067 1.457 1.0506.304 1.4573.4 1.4573.4-.3868-.581-.7189-1.197-.992-1.84-.4-.95-.6067-1.052-.344-1.497.2027-.445.5067-.748.5067-1.092-.1214-.32-.2227-.523-.2227-.523z" fill="#574f35"/><path d="m58.0906 138.492c.1472.027.2981.027.4453 0 .3027-.041 3.4587-1.2 6.756-.992 2.4684.149 4.915.551 7.3013 1.2 4.1467 1.092 9.304 3.256 12.6414 4.491.8893.342 1.76.95 2.4 1.192 2.5493.992 2.6493.992 4.1466 1.254 1.76.243 3.56-.344 5.4414-.748 2.3053-.506 6.2494-.749 9.7084-1.254 1.118-.155 2.221-.406 3.297-.748 0 0-2.751 2.75-9.345 3.741-2.666.405-5.3748.439-8.0498.101-2.104-.202-3.4986-.506-4.5506-.809-1.1934-.344-3.6414-1.255-6.6547-2-2.104-.547-4.4507-.951-7.14-1.456-6.6347-1.215-13.8347-2.609-16.4-3.964z" fill="#252211"/><g fill="#cfb66c"><path d="m50.6467 125.992c-1.6 1.355-3.2973 2.649-4.9546 3.903l-4.996 3.838c-1.6987 1.254-3.3574 2.548-5.0574 3.803s-3.3973 2.447-5.2 3.6c1.6-1.355 3.2974-2.609 4.996-3.843 1.6987-1.233 3.46-2.442 5.0987-3.693l4.996-3.844c1.7187-1.253 3.3773-2.548 5.1173-3.761zm-8.8386 14.159s1.8-1.498 4.0453-3.6c2.7907-2.608 6.2093-5.947 7.3013-6.552l-11.348 10.153z"/><path d="m41.8081 140.149c.8907-.889 1.8413-1.758 2.792-2.609l1.456-1.253c.4453-.4.952-.85 1.396-1.295.8893-.889 1.76-1.841 2.6493-2.751.4408-.457.9069-.889 1.396-1.294.2446-.217.5162-.401.808-.547.244-.141.5067-.4.8494-.445-.2014.304-.444.445-.6467.708-.2427.202-.4453.445-.6467.646-.4453.446-.9506.85-1.396 1.255-.9506.809-1.9413 1.6-2.892 2.447-.9506.846-1.84 1.76-2.792 2.609-1.0306.871-1.9813 1.72-2.9733 2.533zm12.096-8.09s-6.5933 6.453-7.9493 7.504z"/><path d="m53.9039 132.059c-.5931.686-1.229 1.335-1.904 1.941l-2 1.901c-.6466.647-1.2546 1.295-1.9413 1.942-.708.606-1.3547 1.2-2.104 1.76l1.9413-1.902c.648-.646 1.356-1.192 2.044-1.84l1.9414-1.901c.6666-.667 1.3146-1.315 2.0226-1.901zm.3027 3.498c-.6078 1.696-1.3239 3.352-2.144 4.956-1.6987 3.399-4.2467 7.646-5.36 9.811z"/><path d="m54.2066 135.559c0 .748-.2026 1.396-.4453 2.042-.2365.647-.5062 1.282-.808 1.902-.304.606-.648 1.254-.992 1.841s-.748 1.192-1.052 1.8l-2.0426 3.6c-.708 1.2-1.396 2.407-2.144 3.56.5053-1.295 1.1933-2.508 1.8413-3.701.708-1.2 1.3547-2.4 2-3.642.3151-.618.5985-1.252.8493-1.9.3027-.648.6054-1.254.8494-1.841.3026-.647.5453-1.255.8493-1.84.3427-.628.6267-1.235 1.092-1.821z"/></g><path d="m61.4081 152.144s-2 2.649-1.8 6.007c.5453-1.759 1.2333-4.45 1.8-6.007zm1.9013 2.656s-.708 7.2-1.2947 10.74c.8294-4.092.9907-3.748 1.2947-10.74zm13.248 11.165s-2.9933 8.8-3.0547 11.246c.648-2.515 1.9014-7.652 3.0547-11.252z" fill="#dec270"/><path d="m83.5559 151.6s4.8547 8.009 8.496 14.845c-.9853-3.44-3.252-9.749-8.496-14.845z" fill="#cbaf59"/><path d="m96.6028 163.391c2.6654 4.711 5.0692 9.566 7.2002 14.542-.404-3.438-1.498-9.324-7.2002-14.542z" fill="#e3c677"/><path d="m134.952 175.2c.808-.505 2.407-3.257 3.803-3.944 1.394-.708 2.446-.849 3.701-2.245 1.253-1.458 1.6-2.347 4.348-3.499 3.844-1.66 1.2-3.804 1.2-3.804.423-.416.876-.801 1.355-1.152.992-.748 2.144-1.659 2.044-3.257-.142-2.69-.647-6.594-2.852-8.859 2.144-.445 6.249-.748 8.8-1.395 2.952-.749 4.308-1.801 4.308-1.801s-1.699-2.892 1.052-5.804c2.75-2.912 4.996-4.652 6.654-7.909-1.901-.243-4.8-1.254-12.197 1.557.399.188.785.404 1.153.647 0 0-4.55 1.254-6.209 2.65-2.893 2.447-3.257 4.45-6.392 5.947s-6.291 1.092-8.899 2.305c-2.608 1.214-2.993 2.246-3.945 2.691.203.243-.04.647.344.991-.243.344-1.659 2.649-3.095 2.649.142.547 1.355.951 1.355.951s-.889.648-3.155.809c1.152 1.2 2.246 2.508 5.259 4.409-.243.506-1.255 1.255-.849 2.206.445.95 1.6 2.245 6.209 3.297-2.347.1-5.096.647-8.8.141-3.701-.445-4.308-.708-6.593-.141.242.243.889.243 1.456.889-.607.04-4.41-.445-5.704 1.255-1.355 1.759-1.942 4.652-1.84 6.593-.708.344-1.396.951-1.052 2.206.344 1.254 2.144 1.658 3.297 2.446 1.152.85 1.253 1.152 2.347.951 1.152-.243 2.85-1.395 3.842-1.395s1.699.748 1.699.748 2.691-1.294 2.953-1.052c.243.243.04 1.8.303 2.043.267.183 3.297-1.617 4.107-2.124z" fill="#ecd592"/><path d="m193.751 94.2561c-12.642-32.6454-43.892-38.6934-43.892-38.6934h-89.1589l.344 33.252h17.756v74.2523h-18.1014v33.192h86.6923c20.893 0 37.641-20.996 37.641-20.996 26.82-38.066 8.717-81.0069 8.717-81.0069zm-45.895 58.6359s-6.8 9.811-14.199 9.811h-14.8l-.35-73.8069h18.993s8.8 1.84 14.948 19.2549c0 0 8.151 24.933-4.592 44.741z" fill="#fff" fill-opacity=".8"/></g></g></svg>