<svg fill="none" height="250" viewBox="0 0 250 250" width="250" xmlns="http://www.w3.org/2000/svg"><path d="m118.673 0-108.2563 62.5v125l108.2563 62.5 108.256-62.5v-125zm2.213 202.463-83.0925-47.392.3368-23.046 82.7077 47.344 39.887-22.999-26.752-15.444-10.007 5.773-18.765-10.777 10.056-5.822-13.135-7.602-7.939 4.619-18.8125-10.778 7.9869-4.618-42.3884-24.4904 79.869-46.0932 75.347 42.9658-20.208 11.7398-55.139-31.6109-39.8863 22.9985 22.3253 12.8944 11.403-6.6396 18.812 10.7776-11.499 6.64 13.135 7.602 9.334-5.437 18.813 10.777-9.431 5.485 46.767 26.992z" fill="#fff"/></svg>