<svg width="24" height="24" viewBox="0 0 24 24" fill="none" xmlns="http://www.w3.org/2000/svg">
<g clip-path="url(#clip0_524_3366)">
<g clip-path="url(#clip1_524_3366)">
<path fill-rule="evenodd" clip-rule="evenodd" d="M12 0C18.6048 0 24 5.4048 24 12C24 18.6048 18.5952 24 12 24C5.3952 24 0 18.5952 0 12C0 5.3952 5.4048 0 12 0Z" fill="url(#paint0_linear_524_3366)"/>
<path d="M7.6128 5.8752H5.8848V7.6032H7.6128V5.8752Z" fill="white"/>
<path d="M11.232 5.8752H9.504V7.6032H11.232V5.8752Z" fill="white"/>
<path d="M14.8608 5.8752H13.1328V7.6032H14.8608V5.8752Z" fill="white"/>
<path d="M7.6128 9.504H5.8848V11.232H7.6128V9.504Z" fill="white"/>
<path d="M11.232 9.504H9.504V11.232H11.232V9.504Z" fill="white"/>
<path d="M7.6128 13.1328H5.8848V14.8608H7.6128V13.1328Z" fill="white"/>
<path d="M17.616 6.24C17.3376 6.24 17.1168 6.4704 17.1168 6.7392C17.1168 7.0176 17.3472 7.2384 17.616 7.2384C17.8944 7.2384 18.1152 7.008 18.1152 6.7392C18.1152 6.4608 17.8848 6.24 17.616 6.24Z" fill="white"/>
<path d="M17.616 9.8688C17.3376 9.8688 17.1168 10.0992 17.1168 10.368C17.1168 10.6464 17.3472 10.8672 17.616 10.8672C17.8944 10.8672 18.1152 10.6368 18.1152 10.368C18.1152 10.0896 17.8848 9.8688 17.616 9.8688Z" fill="white"/>
<path d="M17.616 13.488C17.3376 13.488 17.1168 13.7184 17.1168 13.9872C17.1168 14.2656 17.3472 14.4864 17.616 14.4864C17.8944 14.4864 18.1152 14.256 18.1152 13.9872C18.1152 13.7088 17.8848 13.488 17.616 13.488Z" fill="white"/>
<path d="M17.616 17.1168C17.3376 17.1168 17.1168 17.3472 17.1168 17.616C17.1168 17.8944 17.3472 18.1152 17.616 18.1152C17.8944 18.1152 18.1152 17.8848 18.1152 17.616C18.1152 17.3376 17.8848 17.1168 17.616 17.1168Z" fill="white"/>
<path d="M13.9968 9.8688C13.7184 9.8688 13.4976 10.0992 13.4976 10.368C13.4976 10.6464 13.728 10.8672 13.9968 10.8672C14.2752 10.8672 14.496 10.6368 14.496 10.368C14.496 10.0896 14.2656 9.8688 13.9968 9.8688Z" fill="white"/>
<path d="M13.9968 13.488C13.7184 13.488 13.4976 13.7184 13.4976 13.9872C13.4976 14.2656 13.728 14.4864 13.9968 14.4864C14.2752 14.4864 14.496 14.256 14.496 13.9872C14.496 13.7088 14.2656 13.488 13.9968 13.488Z" fill="white"/>
<path d="M13.9968 17.1168C13.7184 17.1168 13.4976 17.3472 13.4976 17.616C13.4976 17.8944 13.728 18.1152 13.9968 18.1152C14.2752 18.1152 14.496 17.8848 14.496 17.616C14.496 17.3376 14.2656 17.1168 13.9968 17.1168Z" fill="white"/>
<path d="M10.368 13.488C10.0896 13.488 9.8688 13.7184 9.8688 13.9872C9.8688 14.2656 10.0992 14.4864 10.368 14.4864C10.6464 14.4864 10.8672 14.256 10.8672 13.9872C10.8672 13.7088 10.6368 13.488 10.368 13.488Z" fill="white"/>
<path d="M10.368 17.1168C10.0896 17.1168 9.8688 17.3472 9.8688 17.616C9.8688 17.8944 10.0992 18.1152 10.368 18.1152C10.6464 18.1152 10.8672 17.8848 10.8672 17.616C10.8672 17.3376 10.6368 17.1168 10.368 17.1168Z" fill="white"/>
<path d="M6.7392 17.1168C6.4608 17.1168 6.24 17.3472 6.24 17.616C6.24 17.8944 6.4704 18.1152 6.7392 18.1152C7.0176 18.1152 7.2384 17.8848 7.2384 17.616C7.2384 17.3376 7.008 17.1168 6.7392 17.1168Z" fill="white"/>
</g>
</g>
<defs>
<linearGradient id="paint0_linear_524_3366" x1="2.81399" y1="4.30024" x2="21.2076" y2="19.7178" gradientUnits="userSpaceOnUse">
<stop stop-color="#2A63A8"/>
<stop offset="0.3804" stop-color="#213D5F"/>
<stop offset="1" stop-color="#191919"/>
</linearGradient>
<clipPath id="clip0_524_3366">
<rect width="24" height="24" fill="white"/>
</clipPath>
<clipPath id="clip1_524_3366">
<rect width="24" height="24" fill="white"/>
</clipPath>
</defs>
</svg>
