<svg width="250" height="250" viewBox="0 0 250 250" fill="none" xmlns="http://www.w3.org/2000/svg">
<g clip-path="url(#clip0_46_11183)">
<path d="M125 250C194.036 250 250 194.036 250 125C250 55.9644 194.036 0 125 0C55.9644 0 0 55.9644 0 125C0 194.036 55.9644 250 125 250Z" fill="#F0B90B"/>
<path d="M117.362 31.25L139.802 54.0749L83.2955 110.197L60.855 87.9095L117.362 31.25Z" fill="white"/>
<path d="M155.762 60.8516L179.276 84.8177L84.3692 179.273L60.855 155.87L155.762 60.8516Z" fill="white"/>
<path d="M195.235 100.328L218.75 124.294L123.843 218.749L100.329 195.347L195.235 100.328Z" fill="white"/>
<path d="M50.9866 100.328L70.7234 120.3L50.9866 139.802L31.2498 120.3L50.9866 100.328Z" fill="white"/>
</g>
<defs>
<clipPath id="clip0_46_11183">
<rect width="250" height="250" fill="white"/>
</clipPath>
</defs>
</svg>
