<svg width="250" height="250" viewBox="0 0 250 250" fill="none" xmlns="http://www.w3.org/2000/svg">
<path d="M125.4 248.95C193.856 248.95 249.35 193.455 249.35 125C249.35 56.5441 193.856 1.0498 125.4 1.0498C56.9443 1.0498 1.44995 56.5441 1.44995 125C1.44995 193.455 56.9443 248.95 125.4 248.95Z" fill="url(#paint0_linear_37_33487)"/>
<path d="M109.1 99.5004H62.8V81.9004H134.3L124.2 92.8504C120.35 97.1004 114.85 99.5004 109.1 99.5004Z" fill="white"/>
<path d="M109.1 150.6H62.8V168.2H134.3L124.2 157.25C120.35 153 114.85 150.6 109.1 150.6Z" fill="white"/>
<path d="M91.3001 116.25H62.8V133.85H91.3001V116.25Z" fill="white"/>
<path d="M186.85 82.1504L143.95 125.05L186.85 167.95H169.05C164.85 167.95 160.85 166.3 157.9 163.35L119.35 124.8L157.3 86.8004C160.25 83.8504 164.3 82.1504 168.5 82.1504H186.85Z" fill="white"/>
<defs>
<linearGradient id="paint0_linear_37_33487" x1="37.7604" y1="212.623" x2="213.033" y2="37.3503" gradientUnits="userSpaceOnUse">
<stop stop-color="#C08429"/>
<stop offset="1" stop-color="#FDEA8C"/>
</linearGradient>
</defs>
</svg>
