<svg width="250" height="250" viewBox="0 0 250 250" fill="none" xmlns="http://www.w3.org/2000/svg">
<path fill-rule="evenodd" clip-rule="evenodd" d="M55.1407 22.7344H198.31C201.726 22.7344 204.882 24.4628 206.585 27.2668L248.297 95.9187C250.459 99.479 249.818 103.973 246.732 106.86L131.921 214.291C128.202 217.771 122.219 217.771 118.5 214.291L3.84454 107.005C0.687497 104.051 0.0963241 99.4258 2.41785 95.8435L47.0036 27.0466C48.7401 24.3672 51.8214 22.7344 55.1407 22.7344ZM179.824 53.3851V72.6476H139.041V86.003C167.684 87.4302 189.174 93.2921 189.334 100.318L189.333 114.965C189.173 121.991 167.684 127.853 139.041 129.28V162.056H111.961V129.28C83.3173 127.853 61.8272 121.991 61.6678 114.965L61.6689 100.318C61.8281 93.2921 83.3173 87.4302 111.961 86.003V72.6476H71.1774V53.3851H179.824ZM125.501 119.217C156.068 119.217 181.618 114.261 187.87 107.641C182.568 102.028 163.389 97.6109 139.041 96.3976V110.381C134.677 110.598 130.147 110.713 125.501 110.713C120.855 110.713 116.325 110.598 111.961 110.381V96.3976C87.6124 97.6109 68.4337 102.028 63.1315 107.641C69.3842 114.261 94.9333 119.217 125.501 119.217Z" fill="#009393"/>
</svg>
