<svg width="250" height="250" viewBox="0 0 250 250" fill="none" xmlns="http://www.w3.org/2000/svg">
<rect width="250" height="250" rx="125" fill="white"/>
<path d="M178.092 135.762C177.159 136.095 175.959 136.761 174.96 136.961C160.564 130.43 141.37 128.231 125.376 128.164C125.242 128.164 125.176 128.164 125.109 128.164C125.042 128.164 124.843 128.164 124.843 128.164C109.114 128.231 89.5873 130.43 75.2586 136.961C74.2589 136.761 72.9927 136.095 72.1263 135.762C69.2605 138.894 64.9286 151.756 63.5957 159.554C63.5957 159.621 63.6623 159.687 63.6623 159.754C82.1897 156.422 84.9888 167.218 92.7862 167.351C97.9846 167.551 105.915 153.089 125.242 152.956C144.303 153.089 152.367 167.485 157.632 167.351C165.429 167.151 168.228 156.422 186.756 159.754C186.756 159.687 186.822 159.621 186.756 159.554C185.356 151.756 181.024 138.961 178.225 135.762H178.092Z" fill="#F4A427"/>
<path d="M186.291 157.559C168.497 153.96 162.899 165.356 157.167 165.29C151.502 165.223 144.371 151.228 125.311 150.961C125.177 150.961 125.111 150.961 124.977 150.961C124.844 150.961 124.778 150.961 124.644 150.961C105.65 151.228 98.4528 165.223 92.8546 165.29C87.1231 165.356 81.5249 153.96 63.7307 157.559C63.4641 159.625 60.3984 172.354 73.061 184.35C90.1221 200.545 121.312 201.011 125.044 201.011C128.776 201.011 159.966 200.545 177.027 184.35C189.623 172.354 186.624 159.625 186.358 157.559H186.291Z" fill="white"/>
<path d="M180.626 125.701C164.564 113.971 142.971 112.238 125.777 111.438C125.777 111.372 125.777 111.239 125.777 111.172C108.182 111.905 85.7897 113.504 69.1284 125.434C68.9285 126.634 69.1284 133.498 69.1284 133.498C69.1284 133.498 73.4603 135.564 75.1265 136.297C94.8534 128.566 119.912 128.033 124.844 128.033C124.844 128.166 124.844 128.233 124.844 128.233C124.844 128.233 153.035 127.833 174.761 136.497C176.36 135.697 180.692 133.698 180.692 133.698C180.692 133.698 180.892 126.833 180.692 125.634L180.626 125.701Z" fill="#929497"/>
<path d="M135.974 111.242H114.381L116.98 78.3863L125.044 76.3203L133.308 78.3863L135.974 111.242Z" fill="#929497"/>
<path d="M179.627 124.504L156.235 115.174L135.908 111.242L133.709 84.1172C133.709 84.1172 152.769 86.0499 158.101 94.6471C156.768 105.91 165.299 118.04 179.694 119.906C179.694 122.172 179.561 124.571 179.561 124.571L179.627 124.504Z" fill="#5A595C"/>
<path d="M70.1943 124.504L93.5867 115.174L113.913 111.242L116.113 84.1172C116.113 84.1172 97.0523 86.0499 91.7207 94.6471C93.0536 105.91 84.523 118.04 70.1277 119.906C70.1277 122.172 70.261 124.571 70.261 124.571L70.1943 124.504Z" fill="#5A595C"/>
<path d="M199.952 102.377C195.22 108.575 192.754 110.708 189.289 113.574C188.356 114.373 185.49 116.506 182.758 117.639C182.358 117.839 181.958 117.972 181.625 118.106C181.358 118.172 181.158 118.306 180.892 118.306C179.359 118.705 178.559 118.372 175.627 117.772C175.427 117.772 174.494 117.572 174.36 117.572C172.494 117.239 168.895 115.973 165.563 112.841C160.432 107.909 157.966 102.177 159.632 93.5136C166.763 93.7135 178.759 86.116 184.357 78.2518C190.888 68.9882 189.622 58.125 188.023 51.2606C187.489 49.1279 190.022 47.5951 191.755 48.928C212.281 64.9895 209.082 90.3146 199.952 102.377Z" fill="#F79422"/>
<path d="M52.0003 102.307C56.7321 108.505 59.198 110.638 62.6635 113.503C63.5965 114.303 66.4623 116.436 69.1947 117.569C69.5946 117.769 69.9945 117.902 70.3277 118.035C70.5943 118.102 70.7942 118.235 71.0608 118.235C72.5936 118.635 73.3934 118.302 76.3258 117.702C76.5257 117.635 77.4587 117.502 77.592 117.502C79.4581 117.169 83.0569 115.903 86.3892 112.77C91.5208 107.839 93.9867 102.107 92.3206 93.4433C85.1895 93.6432 73.1934 86.0456 67.5952 78.1815C61.064 68.9179 62.3303 58.0547 63.9298 51.1903C64.4629 49.0576 61.9304 47.5248 60.1976 48.8577C39.671 64.9192 42.8699 90.2443 52.0003 102.307Z" fill="#F79422"/>
<path d="M70.8607 134.366C64.9959 145.762 59.7309 159.691 63.7296 172.554C65.3291 177.552 68.3282 181.884 72.1269 185.483C75.4592 188.615 79.3246 191.014 83.2567 193.214C92.6536 198.345 103.184 200.944 113.847 202.011C117.579 202.344 121.244 202.544 124.976 202.544C126.509 202.544 126.509 200.145 124.976 200.145C112.514 200.078 99.5181 198.279 88.255 193.014C80.3243 189.348 72.3269 184.217 67.9949 176.419C61.9969 165.689 65.2625 152.627 69.7943 142.03C70.7274 139.831 71.7937 137.698 72.86 135.566C73.5265 134.166 71.5271 132.966 70.794 134.366H70.8607Z" fill="black"/>
<path d="M67.928 135.23C70.128 136.296 72.328 137.296 74.5947 138.23C75.5947 138.63 76.7947 137.763 77.0614 136.83C77.3947 135.696 76.6614 134.83 75.6614 134.363C75.4614 134.296 75.528 134.296 75.7947 134.43C75.6614 134.363 75.5947 134.363 75.528 134.296C75.328 134.23 75.128 134.096 74.8614 134.03C74.328 133.763 73.728 133.563 73.1947 133.296C72.128 132.83 71.0614 132.296 69.9947 131.763C68.9947 131.296 67.8614 131.496 67.2614 132.496C66.728 133.363 66.9947 134.696 67.9947 135.23H67.928Z" fill="black"/>
<path d="M75.5935 138.23C81.7248 135.765 88.256 134.098 94.7206 132.899C102.718 131.433 110.715 130.7 118.979 130.366C120.979 130.3 122.978 130.233 124.977 130.233C126.044 130.233 126.977 129.367 126.977 128.234C126.977 127.167 126.044 126.234 124.977 126.234C116.314 126.368 107.65 126.967 99.1192 128.167C92.1881 129.167 85.257 130.633 78.5925 132.899C77.1929 133.365 75.86 133.899 74.5271 134.432C73.5275 134.832 72.7944 135.765 73.1276 136.898C73.3942 137.831 74.5938 138.697 75.5935 138.297V138.23Z" fill="black"/>
<path d="M70.9303 133.566C70.9303 130.966 70.7969 128.366 70.9303 125.766C70.9303 124.699 69.9969 123.766 68.9303 123.766C67.7969 123.766 66.9969 124.699 66.9303 125.766C66.8636 128.366 66.9303 130.966 66.9303 133.566C66.9303 134.632 67.8636 135.566 68.9303 135.566C69.9969 135.566 70.9303 134.632 70.9303 133.566Z" fill="black"/>
<path d="M69.8617 127.433C71.6611 126.3 73.4605 125.233 75.3266 124.3C76.3929 123.767 77.4592 123.167 78.5255 122.701C79.0587 122.434 79.6585 122.168 80.1916 121.901C80.4582 121.768 80.7914 121.635 81.058 121.501C81.1913 121.435 81.3913 121.368 81.5245 121.301C81.7245 121.235 81.7245 121.235 81.5245 121.301C81.6578 121.235 81.7245 121.235 81.8578 121.168C87.6559 118.769 93.6539 116.969 99.7853 115.636C103.717 114.837 107.516 114.237 111.382 113.837C115.913 113.371 120.445 113.171 125.044 113.171C126.11 113.171 127.043 112.238 127.043 111.171C127.043 110.105 126.11 109.172 125.044 109.172C110.449 109.172 95.6533 111.371 82.0577 116.769C77.126 118.702 72.3942 121.035 67.929 123.9C66.9959 124.5 66.6627 125.633 67.1959 126.633C67.729 127.566 68.9953 127.966 69.9283 127.366L69.8617 127.433Z" fill="black"/>
<path d="M55.3314 50.3302C52.4657 53.3293 49.8665 56.5949 47.7339 60.1937C45.9345 63.1927 44.4016 66.3917 43.3353 69.7239C42.1357 73.3894 41.6692 77.1882 41.6692 81.0536C41.7358 95.8488 50.3997 109.378 62.3292 117.642C65.6614 119.974 69.7268 121.507 73.8588 121.174C76.1247 120.974 78.0574 120.174 80.1234 119.175C81.6562 118.441 83.2557 117.642 84.6553 116.709C87.5876 114.776 89.9869 112.244 91.5197 109.111C93.0525 106.046 93.7856 102.647 93.7856 99.2477C93.7856 97.7149 93.5857 96.1154 93.3858 94.5826C93.2525 93.8495 92.586 93.383 91.9862 93.183C89.7203 92.3833 87.3877 91.9834 85.1884 91.1837C84.8552 91.0504 84.522 90.9171 84.1887 90.7838C83.8555 90.6505 84.6553 90.9837 84.322 90.8504C84.2554 90.7838 84.1221 90.7838 84.0555 90.7171C83.8555 90.5839 83.5889 90.5172 83.389 90.3839C82.5226 89.9841 81.6562 89.5842 80.8565 89.1177C79.9235 88.5845 78.9904 88.0513 78.0574 87.4515C77.5909 87.1183 77.1244 86.8517 76.6578 86.5185C76.4579 86.3186 76.1913 86.1853 75.9248 85.9853C75.7915 85.9187 75.7248 85.7854 75.5915 85.7188C75.5249 85.6521 75.4582 85.5855 75.3916 85.5188C75.5915 85.6521 75.5915 85.7188 75.4582 85.5855C73.3922 83.986 71.5262 82.1199 69.8601 80.1206C69.7268 79.9873 69.6601 79.854 69.5268 79.7207C69.1936 79.3208 69.7934 80.0539 69.3935 79.5874C69.1936 79.3208 68.9937 79.0543 68.7937 78.7877C68.3939 78.1879 67.994 77.5881 67.5941 76.9216C67.2609 76.3218 66.9277 75.722 66.5944 75.1222C66.4612 74.789 66.2612 74.4557 66.1279 74.1892C66.0613 74.0559 65.9946 73.8559 65.928 73.7227C65.7947 73.5227 65.8613 73.5227 65.928 73.7227C65.8613 73.5894 65.8613 73.5227 65.7947 73.3894C65.1949 71.9232 64.795 70.457 64.3952 68.9242C64.3285 68.5243 64.2619 68.1245 64.1952 67.7912C64.1952 67.5913 64.1286 67.3914 64.0619 67.1914C64.0619 67.1914 63.9286 66.525 63.9953 66.9249C63.862 66.0585 63.7954 65.1254 63.7954 64.2591C63.5954 60.4603 63.9286 56.8615 64.5951 53.3959C64.995 51.3299 64.8617 49.1306 62.729 48.0643C60.5964 46.998 58.3305 47.9977 56.5977 49.3972C56.1978 49.7304 55.7313 50.1303 55.3981 50.5302C53.5987 52.3962 56.3977 55.1953 58.1972 53.3293C58.797 52.6628 59.1968 52.3296 59.9299 51.9297C60.3298 51.7298 60.2632 51.7298 60.7963 51.5965C60.3965 51.6631 60.9963 51.5965 61.0629 51.5965C60.863 51.5965 60.863 51.5965 61.0629 51.6631C60.863 51.5965 60.9296 51.5965 61.1295 51.7298C60.9963 51.6631 60.7963 51.2633 60.9963 51.5965C60.7297 51.1966 60.9963 51.8631 60.9296 51.3966C60.9296 51.5965 60.9296 51.7298 60.9296 51.9297C60.9296 52.5295 60.9963 51.5298 60.863 52.1963C60.663 53.1293 60.4631 54.0624 60.3298 54.9954C59.7966 58.7275 59.5967 62.6596 59.9966 66.3917C60.663 72.7896 63.2622 78.721 67.4608 83.5861C70.6598 87.3849 74.7251 90.4506 79.1237 92.7831C80.7898 93.6495 82.456 94.4493 84.1887 95.1157C86.388 95.9821 88.7873 96.382 90.9865 97.1151C90.52 96.6486 90.0535 96.182 89.587 95.7155C90.1868 99.3144 89.9202 102.58 88.654 105.979C88.5873 106.112 88.5207 106.312 88.454 106.445C88.2541 106.979 88.654 106.046 88.3874 106.579C88.2541 106.845 88.1208 107.112 87.9875 107.378C87.5876 108.112 87.1878 108.845 86.7213 109.511C86.388 109.978 86.4547 109.911 86.1881 110.244C85.9215 110.577 85.6549 110.844 85.3884 111.111C85.1218 111.377 84.8552 111.644 84.522 111.91C84.3887 112.044 84.1887 112.177 84.0555 112.31C83.9222 112.377 83.8555 112.51 83.7222 112.577C83.8555 112.443 83.8555 112.443 83.6556 112.643C82.3227 113.643 80.8565 114.509 79.3237 115.243C77.6575 116.109 75.9914 116.909 74.1253 117.309C73.5255 117.442 72.4592 117.442 71.6595 117.442C70.8597 117.375 69.9933 117.242 69.0603 116.909C67.2609 116.375 65.5948 115.376 63.9953 114.31C62.5957 113.376 61.4628 112.377 60.0632 111.177C58.7303 110.044 57.5307 108.778 56.3311 107.512C53.9985 104.979 52.1325 102.38 50.3997 99.3144C46.9341 93.183 45.268 86.3852 45.5346 79.2542C45.6679 75.9219 46.3343 72.8563 47.4673 69.5907C48.0005 68.1245 48.5336 66.9915 49.2667 65.5253C49.9332 64.1924 50.6663 62.9262 51.466 61.6599C52.1991 60.5269 52.9322 59.4606 53.7319 58.3943C53.8652 58.1944 54.0652 57.9944 54.1985 57.7945C54.5317 57.3946 53.9319 58.1277 54.2651 57.7278C54.3318 57.5945 54.465 57.5279 54.5317 57.3946C54.8649 56.9947 55.1981 56.5949 55.5314 56.1284C56.3311 55.1953 57.1308 54.3289 57.9306 53.3959C59.73 51.5298 56.9309 48.7308 55.1315 50.5968L55.3314 50.3302Z" fill="black"/>
<path d="M68.5298 118.634C67.6632 120.901 67.9965 123.834 69.9965 125.367C70.8632 126.034 71.9965 126.167 72.7965 125.367C73.4632 124.701 73.6632 123.234 72.7965 122.567C72.6632 122.434 72.4632 122.301 72.3298 122.167C72.1965 121.967 72.1298 121.967 72.2632 122.101C72.1965 121.967 72.1298 121.901 72.0632 121.767C72.2632 122.167 72.0632 121.634 72.0632 121.567C71.9965 121.367 71.9965 121.367 72.0632 121.567C72.0632 121.434 72.0632 121.367 72.0632 121.234C72.0632 121.101 72.0632 120.901 72.0632 120.767C72.0632 120.567 72.0632 120.567 72.0632 120.834C72.0632 120.701 72.0632 120.634 72.1298 120.567C72.1965 120.234 72.2632 119.967 72.3965 119.634C72.7965 118.634 71.9965 117.434 70.9965 117.167C69.8632 116.834 68.9298 117.567 68.5298 118.567V118.634Z" fill="black"/>
<path d="M92.921 96.4487C98.9876 90.182 108.054 85.782 116.721 86.0487C117.788 86.0487 118.721 85.1153 118.721 84.0487C118.721 82.9153 117.788 82.1153 116.721 82.0487C111.788 81.9153 106.988 83.182 102.454 85.1153C97.8543 87.1153 93.5876 89.982 90.121 93.582C88.321 95.4487 91.121 98.2487 92.921 96.382V96.4487Z" fill="black"/>
<path d="M115.98 111.705C117.113 100.575 118.246 89.5119 119.446 78.3822C119.579 77.3158 118.446 76.3828 117.446 76.3828C116.247 76.3828 115.58 77.3158 115.447 78.3822C114.314 89.5119 113.181 100.575 111.981 111.705C111.848 112.771 112.981 113.704 113.981 113.704C115.18 113.704 115.847 112.771 115.98 111.705Z" fill="black"/>
<path d="M118.447 80.1203C120.38 78.8536 122.78 78.387 125.047 78.3203C126.113 78.2536 127.047 77.4536 127.047 76.3203C127.047 75.2536 126.113 74.3203 125.047 74.3203C122.113 74.4536 118.98 74.987 116.447 76.6536C115.513 77.2536 115.18 78.387 115.713 79.387C116.247 80.3203 117.513 80.7203 118.447 80.1203Z" fill="black"/>
<path d="M177.029 135.562C182.693 146.625 187.958 160.354 183.626 172.75C180.494 181.68 172.497 187.412 164.433 191.677C154.636 196.809 143.439 199.141 132.31 199.874C129.91 200.008 127.445 200.074 125.045 200.141C123.513 200.141 123.513 202.54 125.045 202.54C137.841 202.473 150.837 200.674 162.5 195.276C170.631 191.544 178.695 186.412 183.426 178.681C189.891 168.151 187.825 155.355 183.693 144.426C182.36 141.027 180.827 137.628 179.161 134.362C178.428 133.029 176.362 134.229 177.095 135.562H177.029Z" fill="black"/>
<path d="M180.096 131.83C179.096 132.296 178.096 132.763 177.096 133.23C176.562 133.496 175.962 133.763 175.429 133.963C175.229 134.096 174.962 134.163 174.762 134.23C174.629 134.296 174.562 134.296 174.429 134.363C173.962 134.563 174.829 134.23 174.362 134.363C173.362 134.763 172.629 135.696 172.962 136.83C173.229 137.763 174.429 138.63 175.429 138.23C177.696 137.296 179.896 136.296 182.096 135.23C183.096 134.763 183.296 133.43 182.829 132.496C182.229 131.496 181.029 131.296 180.096 131.763V131.83Z" fill="black"/>
<path d="M175.428 134.432C169.297 131.966 162.832 130.3 156.301 129.1C148.17 127.567 139.839 126.768 131.575 126.434C129.376 126.368 127.177 126.301 125.044 126.234C123.978 126.234 123.045 127.167 123.045 128.234C123.045 129.3 123.978 130.233 125.044 130.233C140.506 130.433 156.034 131.833 170.696 136.898C171.962 137.297 173.162 137.831 174.428 138.297C175.428 138.697 176.628 137.897 176.894 136.898C177.227 135.765 176.494 134.832 175.495 134.432H175.428Z" fill="black"/>
<path d="M183.027 133.566C183.027 130.966 183.16 128.366 183.027 125.766C183.027 124.699 182.16 123.766 181.027 123.766C179.96 123.766 179.027 124.699 179.027 125.766C179.093 128.366 179.027 130.966 179.027 133.566C179.027 134.632 179.96 135.566 181.027 135.566C182.093 135.566 183.027 134.632 183.027 133.566Z" fill="black"/>
<path d="M182.091 124.037C172.828 118.173 162.364 114.307 151.701 111.975C142.971 110.109 133.973 109.242 124.976 109.242C123.91 109.242 122.977 110.175 122.977 111.242C122.977 112.308 123.91 113.241 124.976 113.241C139.438 113.241 153.7 115.374 167.229 120.838C167.563 120.972 167.829 121.105 168.162 121.238C168.696 121.438 167.763 121.105 168.296 121.305C168.496 121.372 168.696 121.505 168.896 121.572C169.495 121.838 170.162 122.105 170.762 122.371C171.961 122.904 173.161 123.504 174.294 124.104C176.293 125.104 178.226 126.237 180.092 127.436C181.025 128.036 182.291 127.636 182.824 126.703C183.357 125.77 183.024 124.571 182.091 123.971V124.037Z" fill="black"/>
<path d="M191.821 53.1245C192.754 54.1242 193.62 55.0573 194.487 56.1236C194.82 56.5234 195.22 56.99 195.553 57.3898C195.886 57.7897 195.286 57.0566 195.62 57.4565C195.753 57.5898 195.82 57.7231 195.886 57.8563C196.086 58.1896 196.353 58.4562 196.553 58.7894C197.419 59.989 198.219 61.2552 199.019 62.5215C200.818 65.5205 202.151 68.3196 203.084 71.5852C204.15 75.1841 204.417 78.5163 204.283 82.3151C204.017 89.1795 201.618 95.7774 197.752 101.709C195.886 104.575 193.82 107.04 191.221 109.506C188.555 112.105 185.956 114.305 182.624 115.904C181.291 116.571 179.492 117.104 178.092 117.17C176.293 117.304 174.76 116.971 173.027 116.304C171.561 115.704 170.095 114.905 168.762 114.171C168.095 113.838 167.495 113.438 166.896 113.038C166.562 112.839 166.229 112.572 165.963 112.372C166.296 112.572 165.763 112.172 165.763 112.172C165.629 112.039 165.429 111.905 165.296 111.772C164.03 110.639 163.297 109.773 162.497 108.44C162.164 107.907 161.897 107.374 161.631 106.84C161.564 106.707 161.497 106.574 161.431 106.441C161.231 105.974 161.564 106.84 161.364 106.307C161.231 105.974 161.097 105.708 161.031 105.374C159.898 102.175 159.698 99.043 160.298 95.6441C159.831 96.1106 159.365 96.5771 158.898 97.0436C161.164 96.2439 163.497 95.844 165.763 95.0443C167.495 94.3778 169.228 93.5781 170.828 92.7117C175.226 90.3791 179.225 87.3135 182.491 83.5147C186.689 78.583 189.222 72.7182 189.955 66.3203C190.355 62.5881 190.155 58.6561 189.622 54.924C189.488 54.0576 189.288 53.1912 189.088 52.3248C189.088 52.3248 188.955 51.6584 189.022 52.0582C189.022 51.8583 189.022 51.725 189.022 51.5251C189.022 50.9919 188.888 51.9249 189.022 51.3918C188.888 51.5917 188.888 51.6584 189.022 51.4584C188.955 51.5917 188.888 51.6584 188.822 51.725C189.222 51.3918 188.622 51.725 189.088 51.5917C188.689 51.725 189.222 51.5917 189.288 51.5917C188.888 51.5917 189.488 51.6584 189.555 51.6584C190.155 51.7916 189.288 51.5251 189.888 51.7916C190.088 51.9249 190.288 51.9916 190.421 52.1249C190.355 52.1249 190.954 52.5247 190.755 52.3248C191.154 52.5914 191.488 52.9246 191.821 53.2578C193.62 55.1239 196.419 52.3248 194.62 50.4587C193.154 48.9259 191.421 47.7929 189.355 47.593C188.289 47.4597 187.156 47.9262 186.356 48.6593C185.556 49.3924 185.223 50.3921 185.156 51.4584C185.09 52.3915 185.356 53.3245 185.556 54.1909C185.69 54.6574 185.756 55.0573 185.823 55.5238C185.889 55.9236 185.889 56.1236 185.956 56.7234C186.156 58.6561 186.223 60.5888 186.223 62.5215C186.223 63.3879 186.223 64.2543 186.156 65.054C186.156 65.4539 186.089 65.8538 186.023 66.3203C185.956 66.9201 185.956 66.7868 185.889 67.3866C185.623 68.9861 185.223 70.5189 184.756 72.0517C184.623 72.385 184.49 72.7848 184.357 73.1181C184.29 73.318 184.223 73.4513 184.157 73.6512C183.957 74.1844 184.29 73.318 184.09 73.8512C183.757 74.5843 183.424 75.2507 183.09 75.9172C182.424 77.1834 181.624 78.383 180.824 79.516C180.691 79.6493 180.624 79.7826 180.491 79.9159C180.758 79.516 180.425 79.9825 180.358 80.0492C180.158 80.3157 179.958 80.5823 179.758 80.7822C179.292 81.3154 178.825 81.8486 178.359 82.3151C177.426 83.2481 176.493 84.1145 175.493 84.9809C175.293 85.1808 175.026 85.3808 174.76 85.5807C174.626 85.714 174.56 85.7806 174.427 85.8473C174.826 85.514 174.427 85.8473 174.36 85.9139C173.827 86.3138 173.36 86.647 172.827 86.9802C171.894 87.58 170.961 88.1799 169.961 88.7797C169.095 89.3128 168.229 89.7127 167.295 90.1792C166.896 90.3791 166.496 90.5791 166.163 90.7124C165.963 90.779 165.763 90.8457 165.629 90.9789C165.296 91.1122 166.096 90.779 165.763 90.9123C165.629 90.9789 165.563 91.0456 165.429 91.0456C163.297 91.912 160.964 92.4451 158.698 93.1116C158.432 93.1782 158.165 93.2449 157.965 93.3782C157.365 93.5781 156.699 94.0446 156.566 94.7777C155.366 101.909 156.966 109.64 162.43 114.705C165.096 117.17 168.495 118.903 171.827 120.303C175.826 122.036 180.091 121.636 184.09 119.903C187.556 118.37 190.621 115.838 193.354 113.238C195.953 110.839 198.352 108.107 200.418 105.174C204.617 99.2429 207.283 92.2452 208.082 84.9809C208.482 81.1821 208.349 77.2501 207.616 73.5179C206.883 69.9191 205.55 66.5202 203.884 63.2546C201.618 58.856 198.552 54.724 195.153 51.0586C194.953 50.8586 194.82 50.6587 194.62 50.5254C192.887 48.6593 190.088 51.4584 191.821 53.3245V53.1245Z" fill="black"/>
<path d="M177.628 119.701C177.761 119.968 177.828 120.235 177.894 120.501C177.894 120.635 177.961 120.768 177.961 120.901C177.828 120.368 177.961 121.035 177.961 121.168C177.961 121.368 177.961 121.501 177.961 121.701C178.028 121.235 177.894 121.901 177.828 122.035C177.961 121.501 177.494 122.435 177.828 122.101C177.628 122.301 177.428 122.501 177.228 122.635C176.361 123.301 176.561 124.768 177.228 125.435C178.028 126.235 179.161 126.101 180.028 125.435C182.028 123.901 182.361 120.968 181.494 118.701C181.094 117.701 180.161 117.035 179.028 117.301C178.028 117.568 177.228 118.768 177.628 119.768V119.701Z" fill="black"/>
<path d="M159.909 93.6523C156.442 90.0523 152.176 87.1856 147.576 85.1856C143.109 83.2523 138.242 81.9856 133.309 82.119C132.242 82.119 131.309 82.9856 131.309 84.119C131.309 85.1856 132.242 86.119 133.309 86.119C141.976 85.8523 151.042 90.2523 157.109 96.519C158.909 98.319 161.709 95.519 159.909 93.719V93.6523Z" fill="black"/>
<path d="M137.974 111.705C136.841 100.575 135.708 89.5119 134.508 78.3822C134.375 77.3158 133.709 76.3828 132.509 76.3828C131.509 76.3828 130.376 77.3158 130.51 78.3822C131.643 89.5119 132.776 100.575 133.975 111.705C134.109 112.771 134.775 113.704 135.975 113.704C136.974 113.704 138.107 112.771 137.974 111.705Z" fill="black"/>
<path d="M133.578 76.649C131.112 74.9823 127.978 74.449 125.045 74.3157C123.978 74.249 123.045 75.249 123.045 76.3157C123.045 77.449 123.978 78.249 125.045 78.3157C127.312 78.3823 129.712 78.849 131.578 80.1157C132.512 80.7157 133.778 80.3157 134.312 79.3823C134.912 78.3823 134.512 77.249 133.578 76.649Z" fill="black"/>
<path d="M131.847 173.288C130.514 173.288 129.247 173.021 128.247 172.421L128.18 172.355C127.047 171.755 125.78 171.088 124.98 169.821C124.114 171.088 122.914 171.755 121.78 172.355L121.714 172.421C120.247 173.221 118.314 173.421 116.314 173.088C115.714 172.955 115.314 172.421 115.447 171.821C115.58 171.221 116.114 170.821 116.714 170.955C118.247 171.221 119.647 171.088 120.714 170.488L120.78 170.421C122.714 169.421 123.98 168.688 123.98 165.621C123.98 165.021 124.447 164.555 125.047 164.555C125.647 164.555 126.114 165.021 126.114 165.621C126.114 168.755 127.38 169.421 129.247 170.421L129.314 170.488C130.314 171.021 131.78 171.221 133.314 170.955C133.914 170.821 134.447 171.221 134.58 171.821C134.714 172.421 134.314 172.955 133.714 173.088C133.114 173.155 132.514 173.221 131.914 173.221L131.847 173.288Z" fill="black"/>
<path d="M133.446 158.36C133.446 160.894 129.446 164.427 124.58 164.427C119.646 164.427 115.713 161.027 115.713 158.494C115.713 155.96 119.713 155.094 124.58 155.094C129.513 155.094 133.446 155.827 133.446 158.36Z" fill="black"/>
<path d="M128.312 157.425C128.312 158.025 126.645 158.825 124.578 158.825C122.512 158.825 120.845 158.025 120.845 157.425C120.845 156.825 122.512 156.958 124.578 156.958C126.645 156.958 128.312 156.825 128.312 157.425Z" fill="white"/>
<path d="M116.382 173.158C116.315 173.158 116.249 173.158 116.182 173.158C115.982 173.158 115.782 173.092 115.582 173.025C111.915 172.158 109.849 169.558 109.849 165.692C109.849 165.092 110.315 164.625 110.915 164.625C111.515 164.625 111.982 165.092 111.982 165.692C111.982 168.492 113.315 170.225 115.982 170.892C116.182 170.958 116.315 170.958 116.515 171.025C117.115 171.158 117.515 171.692 117.382 172.292C117.249 172.825 116.849 173.225 116.315 173.225L116.382 173.158Z" fill="black"/>
<path d="M124.912 166.755C124.312 166.755 123.845 166.288 123.845 165.688C123.845 165.288 123.845 164.888 123.845 164.488C123.845 163.955 123.845 163.421 123.845 162.688C123.845 162.088 124.312 161.555 124.912 161.555C125.512 161.555 126.045 162.021 126.045 162.621C126.045 163.355 126.045 163.888 126.045 164.421C126.045 164.755 126.045 165.155 126.045 165.555C126.045 166.155 125.578 166.688 124.978 166.688L124.912 166.755Z" fill="black"/>
<path d="M133.443 173.155C132.91 173.155 132.443 172.755 132.376 172.221C132.243 171.621 132.71 171.088 133.31 170.955C133.443 170.955 133.643 170.888 133.843 170.821C136.576 170.155 137.843 168.488 137.843 165.621C137.843 165.021 138.31 164.555 138.91 164.555C139.509 164.555 139.976 165.021 139.976 165.621C139.976 169.421 137.976 172.021 134.243 172.955C134.043 173.021 133.776 173.088 133.576 173.088C133.51 173.088 133.443 173.088 133.376 173.088L133.443 173.155Z" fill="black"/>
<path d="M108.653 144.294C108.653 149.028 105.853 152.828 102.387 152.828C98.9201 152.828 96.1201 149.028 96.1201 144.294C96.1201 140.228 98.2535 136.761 101.053 135.961C102.92 137.294 105.253 139.028 108.187 141.094C108.52 142.094 108.653 143.161 108.653 144.294Z" fill="black"/>
<path d="M106.386 143.16C106.386 144.827 105.386 146.227 104.119 146.227C102.852 146.227 101.852 144.894 101.852 143.16C101.852 141.494 102.852 140.094 104.119 140.094C105.319 140.094 106.386 141.494 106.386 143.16Z" fill="white"/>
<path d="M100.984 150.692C98.5849 152.692 96.2523 154.824 94.3862 157.224C93.4532 158.423 92.5868 159.69 91.987 161.022C91.3206 162.355 90.9207 163.755 90.6541 165.288C90.5208 166.021 90.3875 166.821 90.3209 167.554L90.1876 168.687C90.1876 169.086 90.121 169.486 90.121 169.886C90.0543 171.419 90.0543 173.019 90.1876 174.551C90.3209 176.151 90.5208 177.684 90.8541 179.217C91.054 180.016 91.1873 180.749 91.3872 181.549C91.5871 182.282 91.8537 183.082 92.187 183.815C91.7871 183.149 91.4539 182.415 91.1206 181.682C90.7874 180.949 90.5208 180.15 90.3209 179.416C89.7877 177.884 89.3879 176.351 89.1213 174.751C88.7881 173.152 88.5881 171.552 88.4548 169.953C88.4548 169.553 88.3882 169.153 88.3882 168.753V167.554C88.3882 166.754 88.3882 165.887 88.5215 165.088C88.6548 163.422 88.988 161.755 89.5878 160.156C90.1876 158.557 90.9873 157.024 91.9204 155.624C93.7864 152.825 95.9857 150.359 98.3183 147.96C99.0514 147.16 100.318 147.16 101.117 147.893C101.917 148.626 101.917 149.893 101.184 150.692C101.184 150.692 101.117 150.759 101.051 150.826L100.984 150.692Z" fill="black"/>
<path d="M99.5916 150.031C99.2583 150.031 99.2583 149.965 99.125 149.965L98.8583 149.898L98.325 149.765C97.9916 149.698 97.6583 149.631 97.325 149.565C96.6583 149.431 95.9916 149.365 95.2583 149.298C93.8583 149.231 92.525 149.298 91.125 149.631C90.4583 149.831 89.7916 150.031 89.125 150.298C88.4583 150.631 87.8583 150.965 87.2583 151.365C86.0583 152.165 85.0583 153.298 84.1917 154.498C84.725 153.098 85.525 151.765 86.5916 150.631C87.125 150.031 87.725 149.498 88.325 149.031C88.925 148.565 89.6583 148.098 90.3916 147.765C91.8583 147.031 93.3916 146.565 94.9916 146.298C95.7916 146.165 96.5916 146.098 97.3916 146.031C97.7916 146.031 98.1916 146.031 98.5916 146.031H99.1916H99.4583C99.525 146.031 99.6583 146.031 99.525 146.031C100.658 146.098 101.458 146.965 101.458 148.098C101.458 149.165 100.525 150.031 99.3916 149.965L99.5916 150.031Z" fill="black"/>
<path d="M141.105 144.294C141.105 149.028 143.905 152.828 147.372 152.828C150.839 152.828 153.639 149.028 153.639 144.294C153.639 140.161 151.505 136.761 148.639 135.961C146.772 137.294 145.039 138.561 141.572 141.028C141.239 142.028 141.105 143.161 141.105 144.294Z" fill="black"/>
<path d="M143.37 143.16C143.37 144.827 144.37 146.227 145.637 146.227C146.903 146.227 147.903 144.894 147.903 143.16C147.903 141.494 146.903 140.094 145.637 140.094C144.437 140.094 143.37 141.494 143.37 143.16Z" fill="white"/>
<path d="M148.769 150.692C151.168 152.692 153.501 154.824 155.367 157.224C156.3 158.423 157.166 159.69 157.766 161.022C158.433 162.355 158.832 163.755 159.099 165.288C159.232 166.021 159.366 166.821 159.432 167.554L159.566 168.687C159.566 169.086 159.632 169.486 159.632 169.886C159.699 171.419 159.699 173.019 159.566 174.551C159.432 176.151 159.232 177.684 158.899 179.217C158.699 180.016 158.566 180.749 158.366 181.549C158.166 182.282 157.899 183.082 157.566 183.815C157.966 183.149 158.299 182.415 158.633 181.682C158.966 180.949 159.232 180.15 159.432 179.416C159.965 177.884 160.365 176.351 160.632 174.751C160.965 173.152 161.165 171.552 161.298 169.953C161.298 169.553 161.365 169.153 161.365 168.753V167.554C161.365 166.754 161.365 165.887 161.232 165.088C161.098 163.422 160.765 161.755 160.165 160.156C159.566 158.557 158.766 157.024 157.833 155.624C155.967 152.825 153.767 150.359 151.435 147.96C150.702 147.16 149.435 147.16 148.636 147.893C147.836 148.626 147.836 149.893 148.569 150.692C148.569 150.759 148.636 150.759 148.702 150.826L148.769 150.692Z" fill="black"/>
<path d="M150.169 150.031C150.502 150.031 150.502 149.965 150.635 149.965L150.902 149.898L151.435 149.765C151.769 149.698 152.102 149.631 152.435 149.565C153.102 149.431 153.769 149.365 154.502 149.298C155.902 149.231 157.235 149.298 158.635 149.631C159.302 149.831 159.969 150.031 160.635 150.298C161.235 150.631 161.902 150.965 162.502 151.365C163.702 152.165 164.702 153.298 165.569 154.498C165.035 153.098 164.235 151.765 163.169 150.631C162.635 150.031 162.035 149.498 161.435 149.031C160.835 148.565 160.102 148.098 159.369 147.765C157.902 147.031 156.369 146.565 154.769 146.298C153.969 146.165 153.169 146.098 152.369 146.031C151.969 146.031 151.569 146.031 151.169 146.031H150.569H150.302C150.235 146.031 150.102 146.031 150.235 146.031C149.102 146.098 148.302 146.965 148.302 148.098C148.302 149.165 149.235 150.031 150.369 149.965L150.169 150.031Z" fill="black"/>
</svg>
