<svg width="250" height="250" viewBox="0 0 250 250" fill="none" xmlns="http://www.w3.org/2000/svg">
<g clip-path="url(#clip0_30_482)">
<path d="M125 250C194.036 250 250 194.036 250 125C250 55.9644 194.036 0 125 0C55.9644 0 0 55.9644 0 125C0 194.036 55.9644 250 125 250Z" fill="white"/>
<path d="M125.009 0C56.0749 0 0 56.0749 0 125.009C0 193.943 56.0749 250.018 125.009 250.018C193.943 250.018 250.018 193.943 250.018 125.009C250.018 56.0749 193.925 0 125.009 0ZM125.009 242.927C59.9908 242.927 7.09095 190.027 7.09095 125.009C7.09095 59.9908 59.9732 7.09095 125.009 7.09095C190.044 7.09095 242.927 59.9908 242.927 125.009C242.927 190.027 190.027 242.927 125.009 242.927ZM148.822 72.2677L137.85 83.2393C134.128 80.5757 129.577 79.0235 124.656 79.0235C112.097 79.0235 101.884 89.2366 101.884 101.796C101.884 113.067 110.104 122.433 120.864 124.25V132.488C110.104 134.305 101.884 143.671 101.884 154.942C101.884 167.502 112.097 177.715 124.656 177.715C137.215 177.715 147.428 167.502 147.428 154.942C147.428 143.671 139.208 134.305 128.448 132.488V124.25C139.208 122.433 147.428 113.067 147.428 101.796C147.428 96.892 145.858 92.3411 143.212 88.6016L154.184 77.63L148.822 72.2677ZM139.843 154.96C139.843 163.339 133.035 170.147 124.656 170.147C116.277 170.147 109.469 163.339 109.469 154.96C109.469 146.582 116.277 139.773 124.656 139.773C133.035 139.773 139.843 146.582 139.843 154.96ZM124.656 116.983C116.277 116.983 109.469 110.174 109.469 101.796C109.469 93.4171 116.277 86.6083 124.656 86.6083C133.035 86.6083 139.843 93.4171 139.843 101.796C139.843 110.174 133.035 116.983 124.656 116.983Z" fill="black"/>
</g>
<defs>
<clipPath id="clip0_30_482">
<rect width="250" height="250" fill="white"/>
</clipPath>
</defs>
</svg>
