<svg width="250" height="250" viewBox="0 0 250 250" fill="none" xmlns="http://www.w3.org/2000/svg">
<g clip-path="url(#clip0_46_11494)">
<path d="M58.7611 224.935L41.834 195.615C41.5719 195.081 41.4356 194.494 41.4356 193.898C41.4356 193.303 41.5719 192.716 41.834 192.181L60.6296 159.634C60.9602 159.132 61.4033 158.713 61.9238 158.412C62.4443 158.111 63.0278 157.935 63.6281 157.899H101.212C101.813 157.935 102.398 158.111 102.919 158.412C103.441 158.713 103.886 159.132 104.218 159.634L123.013 192.181C123.279 192.721 123.417 193.315 123.417 193.917C123.417 194.519 123.279 195.112 123.013 195.652L104.218 228.199C103.887 228.691 103.45 229.102 102.938 229.401C102.427 229.701 101.854 229.88 101.264 229.928H67.4758C65.7383 229.816 64.0495 229.309 62.5388 228.443C61.0281 227.578 59.7358 226.378 58.7611 224.935ZM180.818 157.958L143.375 93.1295C142.92 92.444 142.312 91.8732 141.6 91.4619C140.887 91.0506 140.089 90.8099 139.268 90.7588H64.3814C63.5603 90.8099 62.7622 91.0506 62.0498 91.4619C61.3374 91.8732 60.7299 92.444 60.2751 93.1295L22.8316 157.987C22.4637 158.723 22.2722 159.535 22.2722 160.358C22.2722 161.181 22.4637 161.993 22.8316 162.729L33.8062 181.753L53.008 148.519C53.5283 147.721 54.2293 147.056 55.0543 146.579C55.8793 146.101 56.8051 145.825 57.7567 145.772H107.091C108.042 145.825 108.968 146.101 109.793 146.579C110.618 147.056 111.319 147.721 111.839 148.519L136.514 191.251C136.943 192.101 137.167 193.041 137.167 193.994C137.167 194.947 136.943 195.887 136.514 196.738L117.312 229.972H139.246C140.068 229.921 140.867 229.68 141.58 229.267C142.292 228.854 142.899 228.281 143.352 227.594L180.796 162.743C181.175 162.003 181.374 161.184 181.378 160.353C181.381 159.522 181.19 158.701 180.818 157.958ZM248.763 115.056L191.327 15.5321C190.354 14.0447 189.045 12.8066 187.506 11.9176C185.966 11.0287 184.24 10.5137 182.465 10.4141L67.5423 10.4141C65.7675 10.5137 64.0409 11.0287 62.5016 11.9176C60.9622 12.8066 59.6532 14.0447 58.6799 15.5321L1.22222 115.056C0.421216 116.642 0.00390625 118.394 0.00390625 120.171C0.00390625 121.947 0.421216 123.699 1.22222 125.285L14.3902 148.091L52.5723 81.9481C53.2154 80.9635 54.0814 80.1441 55.1002 79.5565C56.119 78.9688 57.2618 78.6294 58.4362 78.5657H145.147C146.321 78.6294 147.464 78.9688 148.483 79.5565C149.502 80.1441 150.368 80.9635 151.011 81.9481L194.37 157.049C194.902 158.098 195.178 159.256 195.178 160.432C195.178 161.607 194.902 162.766 194.37 163.814L156.195 229.928H182.465C184.24 229.828 185.966 229.313 187.506 228.424C189.045 227.535 190.354 226.297 191.327 224.809L248.785 125.285C249.586 123.699 250.003 121.947 250.003 120.171C250.003 118.394 249.586 116.642 248.785 115.056H248.763Z" fill="url(#paint0_linear_46_11494)"/>
</g>
<defs>
<linearGradient id="paint0_linear_46_11494" x1="62.5055" y1="228.421" x2="187.509" y2="11.9207" gradientUnits="userSpaceOnUse">
<stop stop-color="#FFDC00"/>
<stop offset="0.33" stop-color="#E58E2F"/>
<stop offset="0.67" stop-color="#DB2D72"/>
<stop offset="1" stop-color="#FF00FF"/>
</linearGradient>
<clipPath id="clip0_46_11494">
<rect width="250" height="250" fill="white"/>
</clipPath>
</defs>
</svg>
