<svg width="250" height="250" viewBox="0 0 250 250" fill="none" xmlns="http://www.w3.org/2000/svg">
<path d="M118.673 0L10.4165 62.5V187.5L118.673 250L226.929 187.5V62.5L118.673 0ZM120.886 202.463L37.7933 155.071L38.1301 132.025L120.838 179.369L160.724 156.37L133.973 140.926L123.965 146.699L105.201 135.922L115.257 130.1L102.122 122.498L94.1829 127.117L75.3703 116.34L83.3572 111.721L40.9689 87.2306L120.838 41.1374L196.184 84.1032L175.977 95.843L120.838 64.2321L80.9515 87.2306L103.276 100.125L114.679 93.4854L133.492 104.263L121.993 110.903L135.128 118.505L144.462 113.068L163.274 123.845L153.844 129.33L200.611 156.322L120.886 202.463Z" fill="white"/>
</svg>
