<svg width="250" height="250" viewBox="0 0 250 250" fill="none" xmlns="http://www.w3.org/2000/svg">
<g clip-path="url(#clip0_31_711)">
<path d="M125 250C194.036 250 250 194.036 250 125C250 55.9644 194.036 0 125 0C55.9644 0 0 55.9644 0 125C0 194.036 55.9644 250 125 250Z" fill="#34445B"/>
<path d="M124.508 79.8608L140.211 55.3608C144.24 56.0143 148.366 55.0891 151.731 52.7778C155.095 50.4665 157.439 46.9469 158.274 42.9515C159.109 38.956 158.372 34.7924 156.215 31.3268C154.059 27.8612 150.649 25.3605 146.695 24.3451C143.546 23.693 140.273 24.0137 137.31 25.2647C134.348 26.5157 131.835 28.6378 130.106 31.3497C128.378 34.0615 127.514 37.2349 127.63 40.4488C127.747 43.6628 128.838 46.7654 130.758 49.3451L111.274 79.7436C103.142 80.5434 95.2482 82.9377 88.0426 86.7897C80.837 90.6417 74.4612 95.8759 69.2794 102.193C64.0976 108.51 60.2115 115.787 57.8432 123.607C55.4748 131.426 54.6707 139.636 55.4767 147.767C57.102 164.183 65.1795 179.283 77.9337 189.746C90.6879 200.209 107.075 205.179 123.492 203.564C139.91 201.94 155.011 193.864 165.476 181.109C175.941 168.355 180.912 151.967 179.297 135.548C177.894 121.406 171.694 108.169 161.727 98.0385C151.76 87.9078 138.626 81.4932 124.508 79.8608ZM117.359 174.564C113.025 174.568 108.733 173.717 104.728 172.061C100.723 170.405 97.0836 167.975 94.0186 164.91C90.9535 161.846 88.5227 158.207 86.8653 154.203C85.2079 150.198 84.3564 145.906 84.3595 141.572C84.3554 137.237 85.2061 132.944 86.8631 128.938C88.52 124.933 90.9506 121.293 94.0158 118.228C97.0809 115.163 100.72 112.732 104.726 111.075C108.732 109.418 113.025 108.568 117.359 108.572C124.063 108.57 130.608 110.612 136.122 114.425C141.635 118.239 145.855 123.642 148.219 129.915C145.118 125.922 140.559 123.323 135.544 122.689C130.528 122.055 125.466 123.437 121.469 126.533C117.474 129.632 114.874 134.191 114.239 139.207C113.605 144.223 114.989 149.286 118.086 153.283C119.865 155.572 122.143 157.425 124.746 158.701C127.349 159.978 130.209 160.644 133.108 160.649C136.007 160.654 138.869 159.999 141.477 158.732C144.084 157.465 146.369 155.62 148.156 153.337C145.783 159.582 141.566 164.958 136.065 168.749C130.564 172.54 124.04 174.568 117.359 174.564Z" fill="white"/>
<path d="M124.508 79.8608L140.211 55.3608C144.24 56.0143 148.366 55.0891 151.731 52.7778C155.095 50.4665 157.439 46.9469 158.274 42.9515C159.109 38.956 158.372 34.7924 156.215 31.3268C154.059 27.8612 150.649 25.3605 146.695 24.3451C143.546 23.693 140.273 24.0137 137.31 25.2647C134.348 26.5157 131.835 28.6378 130.106 31.3497C128.378 34.0615 127.514 37.2349 127.63 40.4488C127.747 43.6628 128.838 46.7654 130.758 49.3451L111.274 79.7436C103.142 80.5434 95.2482 82.9377 88.0426 86.7897C80.837 90.6417 74.4612 95.8759 69.2794 102.193C64.0976 108.51 60.2115 115.787 57.8432 123.607C55.4748 131.426 54.6707 139.636 55.4767 147.767C57.102 164.183 65.1795 179.283 77.9337 189.746C90.6879 200.209 107.075 205.179 123.492 203.564C139.91 201.94 155.011 193.864 165.476 181.109C175.941 168.355 180.912 151.967 179.297 135.548C177.894 121.406 171.694 108.169 161.727 98.0385C151.76 87.9078 138.626 81.4932 124.508 79.8608ZM117.359 174.564C113.025 174.568 108.733 173.717 104.728 172.061C100.723 170.405 97.0836 167.975 94.0186 164.91C90.9535 161.846 88.5227 158.207 86.8653 154.203C85.2079 150.198 84.3564 145.906 84.3595 141.572C84.3554 137.237 85.2061 132.944 86.8631 128.938C88.52 124.933 90.9506 121.293 94.0158 118.228C97.0809 115.163 100.72 112.732 104.726 111.075C108.732 109.418 113.025 108.568 117.359 108.572C124.063 108.57 130.608 110.612 136.122 114.425C141.635 118.239 145.855 123.642 148.219 129.915C145.118 125.922 140.559 123.323 135.544 122.689C130.528 122.055 125.466 123.437 121.469 126.533C117.474 129.632 114.874 134.191 114.239 139.207C113.605 144.223 114.989 149.286 118.086 153.283C119.865 155.572 122.143 157.425 124.746 158.701C127.349 159.978 130.209 160.644 133.108 160.649C136.007 160.654 138.869 159.999 141.477 158.732C144.084 157.465 146.369 155.62 148.156 153.337C145.783 159.582 141.566 164.958 136.065 168.749C130.564 172.54 124.04 174.568 117.359 174.564Z" fill="white"/>
</g>
<defs>
<clipPath id="clip0_31_711">
<rect width="250" height="250" fill="white"/>
</clipPath>
</defs>
</svg>
