<svg width="250" height="250" viewBox="0 0 250 250" fill="none" xmlns="http://www.w3.org/2000/svg">
<mask id="mask0_31_730" style="mask-type:alpha" maskUnits="userSpaceOnUse" x="56" y="103" width="194" height="140">
<path d="M56.9114 103.129H249.312V242.506H56.9114V103.129Z" fill="white"/>
</mask>
<g mask="url(#mask0_31_730)">
<path fill-rule="evenodd" clip-rule="evenodd" d="M237.994 103.129C258.579 134.309 250.754 163.533 217.211 178.675C197.545 187.552 180.539 200.005 164.824 214.499C164.265 215.015 163.649 215.476 163.134 216.031C128.857 252.95 95.6199 250.434 56.9114 213.622C57.3173 213.17 57.7232 212.717 58.1263 212.261C69.4795 210.238 80.8145 212.557 92.134 212.788C127.856 213.517 157.49 200.439 182.513 175.668C203.668 158.798 218.283 136.981 230.18 113.03C232.028 109.311 232.09 103.793 237.994 103.129Z" fill="#0095D9"/>
</g>
<path fill-rule="evenodd" clip-rule="evenodd" d="M56.9113 213.622C46.5672 211.063 36.103 208.966 26.4492 204.109C5.89587 193.768 -3.26705 175.804 1.04264 153.15C2.24629 146.823 3.74839 140.4 6.24629 134.502C14.7568 114.405 19.8615 93.4644 24.2217 72.1392C31.9738 34.2214 41.8425 26.2404 80.2969 23.8977C81.8109 23.8057 83.3074 23.4384 84.813 23.1989C89.0019 21.3675 93.2154 19.3324 96.5567 24.5887C96.3242 25.3296 96.0286 26.3724 95.4696 26.4609C73.5272 29.9307 64.2891 48.0269 54.0026 63.9124C34.8615 93.4735 25.4612 125.721 32.478 161.313C33.4359 166.173 34.9127 170.86 37.7133 175.022C42.7962 188.492 52.5103 199.533 57.7027 212.954L56.9113 213.622Z" fill="#B2D134"/>
<path fill-rule="evenodd" clip-rule="evenodd" d="M96.3251 25.276C92.8862 22.3665 88.6355 23.9656 84.8118 23.2015C102.609 6.22258 122.31 1.72399 141.53 13.9487C163.322 27.809 186.857 34.1144 211.782 38.1383C237.461 42.2837 244.926 52.757 242.974 78.9108C242.439 86.0856 241.475 93.2134 237.65 99.5695C230.559 98.6523 228.72 92.0323 224.949 87.6348C208.429 68.3729 189.428 52.8553 164.312 46.2275C161.534 45.4515 158.862 44.3946 156.175 43.3616C140.685 36.1931 124.193 32.606 107.541 29.5084C103.614 28.7788 99.1116 29.1819 96.3251 25.276Z" fill="#EBE710"/>
<path fill-rule="evenodd" clip-rule="evenodd" d="M164.412 43.8984C190.449 48.9701 208.58 66.0501 225.714 84.5094C230.058 89.1899 233.689 94.5319 237.648 99.5705C237.764 100.76 237.879 101.948 237.994 103.134C226.627 127.564 213.473 150.826 193.844 169.764C191.21 172.305 189.335 175.982 185.102 176.502C182.406 168.662 189.033 163.967 191.584 157.994C205.613 125.154 204.98 93.8268 183.072 64.3135C179.85 59.9729 175.693 56.7306 171.573 53.3521C168.497 50.8296 164.116 49.0628 164.412 43.8984Z" fill="#00845D"/>
<path fill-rule="evenodd" clip-rule="evenodd" d="M164.412 43.8958C213.283 74.7069 212.39 136.658 186.701 172.293C185.854 173.468 185.623 175.088 185.103 176.5C164.061 199.864 137.763 212.993 106.535 215.414C90.2586 216.676 73.8435 216.462 57.7031 212.955C47.3098 203.004 42.3555 189.828 36.4903 177.191C24.8168 140.693 30.0079 106.603 55.1476 77.787C81.9692 47.0433 115.489 31.0826 157.606 41.5658L164.412 43.8958Z" fill="#005120"/>
<path fill-rule="evenodd" clip-rule="evenodd" d="M157.606 41.5658C120.755 37.8067 88.4698 47.3214 62.0969 74.2491C36.823 100.055 30.8939 131.501 35.1187 165.959C35.5772 169.7 36.033 173.442 36.4901 177.187C23.7893 160.105 25.7984 140.265 28.4073 121.483C32.9606 88.7035 49.3265 61.0757 70.7064 36.0918C77.8132 27.787 85.7261 24.0174 96.3244 25.2765C117.593 27.5405 138.542 31.0082 157.606 41.5658Z" fill="#4CB748"/>
<path fill-rule="evenodd" clip-rule="evenodd" d="M182.895 126.608C182.9 162.778 155.328 190.389 119.394 190.198C83.7834 190.008 54.5545 160.758 54.7981 125.557C55.0517 89.0346 87.2602 57.3338 123.864 57.5795C158.398 57.812 182.89 86.451 182.895 126.608Z" fill="#FEFEFE"/>
</svg>
