<svg fill="none" height="250" viewBox="0 0 251 250" width="251" xmlns="http://www.w3.org/2000/svg" xmlns:xlink="http://www.w3.org/1999/xlink"><clipPath id="a"><path d="m.125 0h250v250h-250z"/></clipPath><clipPath id="b"><path d="m52.2083 52.0833h145.833v145.833h-145.833z"/></clipPath><g clip-path="url(#a)"><path d="m250.125 125c0 69.05-55.95 125-125 125s-125-55.95-125-125 55.95-125 125-125 125 55.95 125 125z" fill="#fff"/><g clip-path="url(#b)"><path d="m169.079 59.6084-30.45 45.1496c-2.1 3.063 1.954 6.796 4.842 4.2l29.954-26.0454c.817-.6417 1.954-.175 1.954.9625v81.4039c0 1.138-1.458 1.604-2.1.817l-90.6499-108.4418c-2.9167-3.5583-7.1167-5.4833-11.8125-5.4833h-3.2375c-8.4 0-15.3708 6.9417-15.3708 15.5458v114.5963c0 8.575 6.9708 15.545 15.5458 15.545 5.3375 0 10.3542-2.741 13.2708-7.437l30.4211-45.15c2.1-3.063-1.954-6.796-4.842-4.2l-29.9541 25.842c-.8166.641-1.9541.175-1.9541-.963v-81.2583c0-1.1375 1.4583-1.6041 2.1-.8166l90.6502 108.4419c2.916 3.558 7.291 5.512 11.812 5.512h3.238c8.575 0 15.546-6.971 15.546-15.546v-114.5663c0-8.575-6.971-15.5458-15.546-15.5458-5.484 0-10.5 2.7417-13.417 7.4375z" fill="#000"/></g></g></svg>