<svg fill="none" height="256" viewBox="0 0 256 256" width="256" xmlns="http://www.w3.org/2000/svg" xmlns:xlink="http://www.w3.org/1999/xlink"><clipPath id="a"><path d="m0 0h256v256h-256z"/></clipPath><g clip-path="url(#a)"><path d="m128 256c70.692 0 128-57.308 128-128 0-70.6925-57.308-128-128-128-70.6925 0-128 57.3075-128 128 0 70.692 57.3075 128 128 128z" fill="#fff"/><g fill="#000"><path d="m189.245 76.3185-20.549 10.4699-99.2335 50.5446c-.3356-2.559-.5044-5.138-.5055-7.719.0136-10.299 2.7175-20.416 7.844-29.348 5.1264-8.9321 12.4975-16.3702 21.383-21.5772 8.886-5.207 18.977-8.0023 29.276-8.1091 10.298-.1067 20.445 2.4789 29.437 7.5006l11.762-5.9931 1.755-.8953c-10.775-7.8208-23.503-12.51-36.776-13.5496-13.274-1.0395-26.576 1.6112-38.4375 7.6591-11.8613 6.0479-21.8194 15.2576-28.7738 26.6112-6.9544 11.3534-10.6342 24.4084-10.6329 37.7234 0 1.838.0698 3.67.2094 5.494.1956 2.584-.3774 5.168-1.6468 7.427-1.2695 2.258-3.1786 4.091-5.4871 5.267l-6.2026 3.163v14.752l18.261-9.308 5.9137-3.018 5.827-2.968 104.6126-53.3022 11.755-5.9859 24.297-12.3834v-14.7445z"/><path d="m213.333 93.5322-134.722 68.5958-11.7552 6-24.1891 12.326v14.737l24.0231-12.239 20.5499-10.469 99.3343-50.617c.336 2.576.504 5.171.505 7.769-.006 10.311-2.709 20.441-7.841 29.384-5.131 8.943-12.512 16.389-21.411 21.597-8.898 5.209-19.004 8-29.315 8.095-10.31.096-20.466-2.507-29.4594-7.549l-.7221.382-12.7516 6.499c10.7726 7.821 23.4981 12.512 36.7691 13.554s26.573-1.605 38.434-7.649 21.821-15.249 28.778-26.599c6.958-11.349 10.642-24.401 10.646-37.714 0-1.855-.072-3.711-.209-5.545-.195-2.583.377-5.166 1.645-7.424s3.175-4.092 5.482-5.27l6.209-3.163z"/></g></g></svg>