<svg fill="none" height="250" viewBox="0 0 250 250" width="250" xmlns="http://www.w3.org/2000/svg" xmlns:xlink="http://www.w3.org/1999/xlink"><clipPath id="a"><path d="m0 0h250v250h-250z"/></clipPath><g clip-path="url(#a)"><path d="m165.649 140.459 62.73-62.5359c2.33-2.3219 4.178-5.0823 5.437-8.122 1.258-3.0397 1.902-6.2985 1.895-9.5884l.106-50.54548c-.006-2.59301-1.008-5.08468-2.798-6.96019l-120.342 120.07697c-2.339 2.318-4.196 5.077-5.463 8.116-1.267 3.04-1.919 6.301-1.919 9.594s.652 6.554 1.919 9.594c1.267 3.039 3.124 5.798 5.463 8.116l84.85 84.585c2.326 2.314 5.085 4.148 8.119 5.396s6.285 1.886 9.566 1.877c3.281-.008 6.528-.662 9.556-1.925s5.777-3.111 8.091-5.436c2.315-2.326 4.148-5.085 5.396-8.119s1.886-6.285 1.878-9.566c-.009-3.281-.663-6.528-1.926-9.556s-3.11-5.777-5.436-8.092z" fill="#008c62"/><path d="m226.006-.00151922h-189.0236c-15.284 0-26.5656 11.54721922-26.5656 27.30941922v197.2051c-.0428 3.351.5858 6.677 1.849 9.781 1.2631 3.103 3.1351 5.923 5.5055 8.292s5.1913 4.239 8.2961 5.5c3.1048 1.26 6.4308 1.887 9.7816 1.842 3.3533.057 6.6839-.561 9.7933-1.818s5.9341-3.126 8.3056-5.498c2.3715-2.371 4.2413-5.196 5.4982-8.305 1.2568-3.11 1.8748-6.44 1.8173-9.794v-175.8641h125.7436l46.047-45.81676c-.922-.92456-2.022-1.6524-3.234-2.13947-1.211-.487067-2.509-.7232274-3.814-.69418922z" fill="#00e6a0"/></g></svg>