<svg fill="none" height="250" viewBox="0 0 250 250" width="250" xmlns="http://www.w3.org/2000/svg" xmlns:xlink="http://www.w3.org/1999/xlink"><clipPath id="a"><path d="m0 0h250v250h-250z"/></clipPath><g clip-path="url(#a)"><path d="m125.005 250.009c69.038 0 125.004-55.966 125.004-125.004 0-69.0385-55.966-125.005-125.004-125.005-69.0385 0-125.005 55.9665-125.005 125.005 0 69.038 55.9665 125.004 125.005 125.004z" fill="#161e53"/><path d="m167.822 82.3464 8.761-23.3141h-14.394l-5.781 15.3279c-3.167-1.6626-6.492-2.9983-9.929-3.9884l4.277-11.3488h-14.393l-3.494 9.2658c-.457 0-.915-.028-1.382-.028h-16.72c-2.223-.2802-4.408-.7753-6.529-1.4945-.738-.2428-1.457-.5137-2.167-.8033l-4.745 12.5911-36.7735 97.5809h27.6947l-5.595 14.842h14.3938l5.604-14.842h11.433l-5.595 14.842h14.394l5.595-14.851c29.768-.505 53.484-25.052 52.98-54.82-.253-14.861-6.632-28.9559-17.626-38.9596zm-83.8131 80.3196 30.5061-80.9174c1.373.1307 2.746.1868 4.119.1868s2.812-.0654 4.185-.1962h5.006l-30.5058 80.9268zm27.6951 0 30.039-79.6284c3.465.9153 6.79 2.2791 9.901 4.0631l-28.508 75.5553h-11.432zm48.421-11.863c-6.062 6.1-13.917 10.097-22.417 11.386l24.855-65.9159c13.441 16.0659 12.376 39.7259-2.438 54.5299z" fill="#ffbb51"/></g></svg>