<svg fill="none" height="250" viewBox="0 0 250 250" width="250" xmlns="http://www.w3.org/2000/svg" xmlns:xlink="http://www.w3.org/1999/xlink"><clipPath id="a"><path d="m0 0h250v250h-250z"/></clipPath><g clip-path="url(#a)"><circle cx="125" cy="125" fill="#fa2e53" r="125"/><path clip-rule="evenodd" d="m149.937 158.615c2.505-.538 4.836-.567 7.05-.114s4.224 1.388 6.03 2.719l34.9 26.28h-47.776l-20.975-23.618zm-59.8369-95.9168 41.9499 48.2558c3.175 4.248 4.777 8.949 4.777 14.131s-1.602 9.883-4.777 14.131l-41.9499 48.256h-38.0168l46.1154-52.9c2.4183-2.69 3.6413-5.862 3.6413-9.487s-1.223-6.797-3.6413-9.487l-46.1154-52.8998zm107.8169-.1982-34.9 26.2517c-1.806 1.3593-3.816 2.2655-6.03 2.7186-2.214.4814-4.574.4248-7.05-.1133l-20.771-5.239 20.975-23.618z" fill="#fff" fill-rule="evenodd"/></g></svg>