<svg fill="none" height="250" viewBox="0 0 250 250" width="250" xmlns="http://www.w3.org/2000/svg" xmlns:xlink="http://www.w3.org/1999/xlink"><radialGradient id="a" cx="0" cy="0" gradientTransform="matrix(121.25053122 167.9171659 -167.9171659 121.25053122 81.6667 59.7917)" gradientUnits="userSpaceOnUse" r="1"><stop offset="0" stop-color="#ffd794"/><stop offset="1" stop-color="#ed5a37"/></radialGradient><linearGradient id="b" gradientUnits="userSpaceOnUse" x1="35.0002" x2="35.0002" y1="63.75" y2="190"><stop offset="0" stop-color="#ffe090"/><stop offset="1" stop-color="#ffe090" stop-opacity="0"/></linearGradient><linearGradient id="c"><stop offset="0" stop-color="#df3600"/><stop offset="1" stop-color="#df3600" stop-opacity="0"/></linearGradient><linearGradient id="d" gradientUnits="userSpaceOnUse" x1="82.5001" x2="82.5001" xlink:href="#c" y1="81.25" y2="152.5"/><linearGradient id="e" gradientUnits="userSpaceOnUse" x1="23.75" x2="89.2229" xlink:href="#c" y1="133.451" y2="133.451"/><linearGradient id="f" gradientUnits="userSpaceOnUse" x1="178.333" x2="178.333" xlink:href="#c" y1="-5" y2="107.917"/><clipPath id="g"><path d="m0 0h250v250h-250z"/></clipPath><mask id="h" height="250" maskUnits="userSpaceOnUse" width="250" x="0" y="0"><path d="m250 0h-250v250h250z" fill="#fff"/></mask><mask id="i" height="250" maskUnits="userSpaceOnUse" width="250" x="0" y="0"><path d="m125 250c69.035 0 125-55.965 125-125 0-69.0354-55.965-125-125-125-69.0354 0-125 55.9646-125 125 0 69.035 55.9646 125 125 125z" fill="url(#a)"/></mask><g clip-path="url(#g)"><g mask="url(#h)"><path d="m125 250c69.035 0 125-55.965 125-125 0-69.0354-55.965-125-125-125-69.0354 0-125 55.9646-125 125 0 69.035 55.9646 125 125 125z" fill="url(#a)"/><g mask="url(#i)"><path d="m-4.1665 68.75c0-2.7613 2.23857-5 4.999996-5h68.333304c2.7613 0 5 2.2387 5 5v116.25c0 2.761-2.2387 5-5 5h-68.333304c-2.761426 0-4.999996-2.239-4.999996-5z" fill="url(#b)" opacity=".2"/><path d="m150.833 169.586c0-2.761 2.239-5 5-5h89.167c2.761 0 5 2.239 5 5v43.333c0 2.762-2.239 5-5 5h-89.167c-2.761 0-5-2.238-5-5z" fill="#e74310" opacity=".2"/><path d="m208.75 182.922c2.761 0 5 2.239 5 5v84.167c0 2.761-2.239 5-5 5h-32.917c-2.761 0-5-2.239-5-5v-84.167c0-2.761 2.239-5 5-5z" fill="#df3600" opacity=".2"/><path d="m101.25 81.25c2.761 0 5 2.2387 5 5v67.083c0 2.762-2.239 5-5 5h-37.0833c-2.7612 0-5-2.238-5-5v-67.083c0-2.7613 2.2388-5 5-5z" fill="url(#d)" opacity=".1"/><path d="m23.75 101.25c0-2.7612 2.2386-5 5-5h60.8333c2.7613 0 5 2.2388 5 5v63.75c0 2.761-2.2387 5-5 5h-60.8333c-2.7614 0-5-2.239-5-5z" fill="url(#e)" opacity=".1"/><path d="m250 34.1719c2.761 0 5 2.2386 5 5v84.1671c0 2.761-2.239 5-5 5h-77.5c-2.761 0-5-2.239-5-5v-84.1671c0-2.7614 2.239-5 5-5z" fill="#ff9776" opacity=".2"/><path d="m202.917-21.6641c2.761 0 5 2.2386 5 5v92.5c0 2.7613-2.239 5-5 5h-43.334c-2.761 0-5-2.2387-5-5v-92.5c0-2.7614 2.239-5 5-5z" fill="#ffca8c" opacity=".2"/><path d="m225.417-5c2.761 0 5 2.23858 5 5.00000477v102.91699523c0 2.761-2.239 5-5 5h-94.167c-2.761 0-5-2.239-5-5v-102.91699714c0-2.76142286 2.239-5.00000286 5-5.00000286z" fill="url(#f)" opacity=".2"/><path d="m88.3334-34.1641c2.7613 0 5 2.2386 5 5v69.1667c0 2.7613-2.2387 5-5 5h-32.9167c-2.7612 0-5-2.2387-5-5v-69.1667c0-2.7614 2.2388-5 5-5z" fill="#df3600" opacity=".1"/><path d="m92.0835 180.422c2.7612 0 5 2.239 5 5v59.583c0 2.761-2.2388 5-5 5h-83.75c-2.76142 0-5-2.239-5-5v-59.583c0-2.761 2.23858-5 5-5z" fill="#df3600" opacity=".1"/><path d="m165.833 147.086c2.762 0 5 2.239 5 5v92.917c0 2.761-2.238 5-5 5h-95.833c-2.7613 0-5-2.239-5-5v-92.917c0-2.761 2.2387-5 5-5z" fill="#ffd494" opacity=".1"/><path d="m134.167.00000437c2.761.00000012 5 2.23857563 5 4.99999563v24.1667c0 2.7614-2.239 5-5 5h-100.0003c-2.7614 0-5-2.2386-5-5v-24.1667c0-2.76142 2.2386-5.00000012 5-5z" fill="#ffd494" opacity=".2"/><path d="m55.3118 247.566 187.2532-187.2535-6.422-6.4221-187.2534 187.2536z" fill="#df3600" opacity=".1"/><path d="m41.2651 233.941 187.2539-187.2535-8.362-8.3614-187.2533 187.2539z" fill="#df3600" opacity=".1"/><path d="m33.3613 225.199 187.2537-187.2537-8.361-8.3614-187.254 187.2541z" fill="#f45c2c" opacity=".1"/><path d="m25.8613 216.035 187.2537-187.2538-6.882-6.8816-187.2533 187.2534z" fill="#f45c2c" opacity=".2"/><path d="m18.9651 209.136 187.2539-187.2532-6.882-6.8816-187.2535 187.2538z" fill="#ffbc6e" opacity=".1"/><path d="m14.3818 199.972 187.2532-187.2532-6.881-6.88167-187.25379 187.25387z" fill="#df3600" opacity=".1"/><g fill="#ffd5a4"><path d="m-7.70156 144.972 147.65156-147.65169-6.882-6.88162-147.6512 147.65131z" opacity=".09"/><path d="m-15.6183 136.62 147.6513-147.6512-6.882-6.8817-147.6509 147.6509z" opacity=".08"/><path d="m-22.7015 127.034 147.6515-147.6512-6.882-6.8816-147.6512 147.6508z" opacity=".05"/><path d="m3.96475 165.035 171.48825-171.48812-6.882-6.88158-171.48787 171.4877z" opacity=".2"/><path d="m8.54825 175.871 171.48775-171.48819-6.881-6.88162-171.48837 171.48781z" opacity=".2"/><path d="m1.04833 152.475 152.20167-152.201562-6.882-6.881618-152.20129 152.20118z" opacity=".1"/></g><g fill="#df3600"><path d="m55.0357 247.707 187.2533-187.2539-13.729-13.7292-187.2535 187.2541z" opacity=".1"/><path d="m55.0357 247.707 187.2533-187.2539-13.799-13.7991-187.2534 187.254z" opacity=".1"/></g></g><g fill="#fff"><path d="m124.815 151.972-47.5579-28.133 47.5579-78.8937 47.515 78.8937z"/><path d="m124.815 199.873-47.5579-66.982 47.5579 28.09 47.558-28.09z"/></g></g></g></svg>