<svg width="250" height="250" viewBox="0 0 250 250" fill="none" xmlns="http://www.w3.org/2000/svg">
<g clip-path="url(#clip0_48_12722)">
<mask id="mask0_48_12722" style="mask-type:luminance" maskUnits="userSpaceOnUse" x="0" y="0" width="250" height="250">
<path d="M250 0H0V250H250V0Z" fill="white"/>
</mask>
<g mask="url(#mask0_48_12722)">
<path d="M125 250C194.035 250 250 194.035 250 125C250 55.9646 194.035 0 125 0C55.9646 0 0 55.9646 0 125C0 194.035 55.9646 250 125 250Z" fill="url(#paint0_radial_48_12722)"/>
<mask id="mask1_48_12722" style="mask-type:alpha" maskUnits="userSpaceOnUse" x="0" y="0" width="250" height="250">
<path d="M125 250C194.035 250 250 194.035 250 125C250 55.9646 194.035 0 125 0C55.9646 0 0 55.9646 0 125C0 194.035 55.9646 250 125 250Z" fill="url(#paint1_radial_48_12722)"/>
</mask>
<g mask="url(#mask1_48_12722)">
<path opacity="0.2" d="M-4.1665 68.75C-4.1665 65.9887 -1.92793 63.75 0.833496 63.75H69.1668C71.9281 63.75 74.1668 65.9887 74.1668 68.75V185C74.1668 187.761 71.9281 190 69.1668 190H0.833496C-1.92793 190 -4.1665 187.761 -4.1665 185V68.75Z" fill="url(#paint2_linear_48_12722)"/>
<path opacity="0.2" d="M150.833 169.586C150.833 166.825 153.072 164.586 155.833 164.586H245C247.761 164.586 250 166.825 250 169.586V212.919C250 215.681 247.761 217.919 245 217.919H155.833C153.072 217.919 150.833 215.681 150.833 212.919V169.586Z" fill="#E74310"/>
<path opacity="0.2" d="M208.75 182.922C211.511 182.922 213.75 185.161 213.75 187.922V272.089C213.75 274.85 211.511 277.089 208.75 277.089H175.833C173.072 277.089 170.833 274.85 170.833 272.089V187.922C170.833 185.161 173.072 182.922 175.833 182.922H208.75Z" fill="#DF3600"/>
<path opacity="0.1" d="M101.25 81.25C104.011 81.25 106.25 83.4887 106.25 86.25V153.333C106.25 156.095 104.011 158.333 101.25 158.333H64.1667C61.4055 158.333 59.1667 156.095 59.1667 153.333V86.25C59.1667 83.4887 61.4055 81.25 64.1667 81.25H101.25Z" fill="url(#paint3_linear_48_12722)"/>
<path opacity="0.1" d="M23.75 101.25C23.75 98.4888 25.9886 96.25 28.75 96.25H89.5833C92.3446 96.25 94.5833 98.4888 94.5833 101.25V165C94.5833 167.761 92.3446 170 89.5833 170H28.75C25.9886 170 23.75 167.761 23.75 165V101.25Z" fill="url(#paint4_linear_48_12722)"/>
<path opacity="0.2" d="M250 34.1719C252.761 34.1719 255 36.4105 255 39.1719V123.339C255 126.1 252.761 128.339 250 128.339H172.5C169.739 128.339 167.5 126.1 167.5 123.339V39.1719C167.5 36.4105 169.739 34.1719 172.5 34.1719H250Z" fill="#FF9776"/>
<path opacity="0.2" d="M202.917 -21.6641C205.678 -21.6641 207.917 -19.4255 207.917 -16.6641V75.8359C207.917 78.5972 205.678 80.8359 202.917 80.8359H159.583C156.822 80.8359 154.583 78.5972 154.583 75.8359V-16.6641C154.583 -19.4255 156.822 -21.6641 159.583 -21.6641H202.917Z" fill="#FFCA8C"/>
<path opacity="0.2" d="M225.417 -5C228.178 -5 230.417 -2.76142 230.417 4.76837e-06V102.917C230.417 105.678 228.178 107.917 225.417 107.917H131.25C128.489 107.917 126.25 105.678 126.25 102.917V2.86102e-06C126.25 -2.76142 128.489 -5 131.25 -5H225.417Z" fill="url(#paint5_linear_48_12722)"/>
<path opacity="0.1" d="M88.3334 -34.1641C91.0947 -34.1641 93.3334 -31.9255 93.3334 -29.1641V40.0026C93.3334 42.7639 91.0947 45.0026 88.3334 45.0026H55.4167C52.6555 45.0026 50.4167 42.7639 50.4167 40.0026V-29.1641C50.4167 -31.9255 52.6555 -34.1641 55.4167 -34.1641H88.3334Z" fill="#DF3600"/>
<path opacity="0.1" d="M92.0835 180.422C94.8447 180.422 97.0835 182.661 97.0835 185.422V245.005C97.0835 247.766 94.8447 250.005 92.0835 250.005H8.3335C5.57208 250.005 3.3335 247.766 3.3335 245.005L3.3335 185.422C3.3335 182.661 5.57208 180.422 8.3335 180.422H92.0835Z" fill="#DF3600"/>
<path opacity="0.1" d="M165.833 147.086C168.595 147.086 170.833 149.325 170.833 152.086V245.003C170.833 247.764 168.595 250.003 165.833 250.003H70C67.2387 250.003 65 247.764 65 245.003V152.086C65 149.325 67.2387 147.086 70 147.086H165.833Z" fill="#FFD494"/>
<path opacity="0.2" d="M134.167 4.37113e-06C136.928 4.49183e-06 139.167 2.23858 139.167 5V29.1667C139.167 31.9281 136.928 34.1667 134.167 34.1667H34.1667C31.4053 34.1667 29.1667 31.9281 29.1667 29.1667V5C29.1667 2.23858 31.4053 -1.20706e-07 34.1667 0L134.167 4.37113e-06Z" fill="#FFD494"/>
<path opacity="0.1" d="M55.3118 247.566L242.565 60.3125L236.143 53.8904L48.8896 241.144L55.3118 247.566Z" fill="#DF3600"/>
<path opacity="0.1" d="M41.2651 233.941L228.519 46.6875L220.157 38.3261L32.9037 225.58L41.2651 233.941Z" fill="#DF3600"/>
<path opacity="0.1" d="M33.3613 225.199L220.615 37.9453L212.254 29.5839L25 216.838L33.3613 225.199Z" fill="#F45C2C"/>
<path opacity="0.2" d="M25.8613 216.035L213.115 28.7812L206.233 21.8996L18.9797 209.153L25.8613 216.035Z" fill="#F45C2C"/>
<path opacity="0.1" d="M18.9651 209.136L206.219 21.8828L199.337 15.0012L12.0835 202.255L18.9651 209.136Z" fill="#FFBC6E"/>
<path opacity="0.1" d="M14.3818 199.972L201.635 12.7188L194.754 5.83713L7.50021 193.091L14.3818 199.972Z" fill="#DF3600"/>
<path opacity="0.09" d="M-7.70156 144.972L139.95 -2.67969L133.068 -9.56131L-14.5832 138.09L-7.70156 144.972Z" fill="#FFD5A4"/>
<path opacity="0.08" d="M-15.6183 136.62L132.033 -11.0312L125.151 -17.9129L-22.4999 129.738L-15.6183 136.62Z" fill="#FFD5A4"/>
<path opacity="0.05" d="M-22.7015 127.034L124.95 -20.6172L118.068 -27.4988L-29.5832 120.152L-22.7015 127.034Z" fill="#FFD5A4"/>
<path opacity="0.2" d="M3.96475 165.035L175.453 -6.45312L168.571 -13.3347L-2.91687 158.153L3.96475 165.035Z" fill="#FFD5A4"/>
<path opacity="0.2" d="M8.54825 175.871L180.036 4.38281L173.155 -2.49881L1.66663 168.989L8.54825 175.871Z" fill="#FFD5A4"/>
<path opacity="0.1" d="M1.04833 152.475L153.25 0.273438L146.368 -6.60818L-5.83329 145.593L1.04833 152.475Z" fill="#FFD5A4"/>
<path opacity="0.1" d="M55.0357 247.707L242.289 60.4531L228.56 46.7239L41.3065 233.978L55.0357 247.707Z" fill="#DF3600"/>
<path opacity="0.1" d="M55.0357 247.707L242.289 60.4531L228.49 46.654L41.2366 233.908L55.0357 247.707Z" fill="#DF3600"/>
</g>
<path d="M124.815 151.972L77.2571 123.839L124.815 44.9453L172.33 123.839L124.815 151.972Z" fill="white"/>
<path d="M124.815 199.873L77.2571 132.891L124.815 160.981L172.373 132.891L124.815 199.873Z" fill="white"/>
</g>
</g>
<defs>
<radialGradient id="paint0_radial_48_12722" cx="0" cy="0" r="1" gradientUnits="userSpaceOnUse" gradientTransform="translate(81.6667 59.7917) rotate(54.1675) scale(207.118)">
<stop stop-color="#FFD794"/>
<stop offset="1" stop-color="#ED5A37"/>
</radialGradient>
<radialGradient id="paint1_radial_48_12722" cx="0" cy="0" r="1" gradientUnits="userSpaceOnUse" gradientTransform="translate(81.6667 59.7917) rotate(54.1675) scale(207.118)">
<stop stop-color="#FFD794"/>
<stop offset="1" stop-color="#ED5A37"/>
</radialGradient>
<linearGradient id="paint2_linear_48_12722" x1="35.0002" y1="63.75" x2="35.0002" y2="190" gradientUnits="userSpaceOnUse">
<stop stop-color="#FFE090"/>
<stop offset="1" stop-color="#FFE090" stop-opacity="0"/>
</linearGradient>
<linearGradient id="paint3_linear_48_12722" x1="82.5001" y1="81.25" x2="82.5001" y2="152.5" gradientUnits="userSpaceOnUse">
<stop stop-color="#DF3600"/>
<stop offset="1" stop-color="#DF3600" stop-opacity="0"/>
</linearGradient>
<linearGradient id="paint4_linear_48_12722" x1="23.75" y1="133.451" x2="89.2229" y2="133.451" gradientUnits="userSpaceOnUse">
<stop stop-color="#DF3600"/>
<stop offset="1" stop-color="#DF3600" stop-opacity="0"/>
</linearGradient>
<linearGradient id="paint5_linear_48_12722" x1="178.333" y1="-5" x2="178.333" y2="107.917" gradientUnits="userSpaceOnUse">
<stop stop-color="#DF3600"/>
<stop offset="1" stop-color="#DF3600" stop-opacity="0"/>
</linearGradient>
<clipPath id="clip0_48_12722">
<rect width="250" height="250" fill="white"/>
</clipPath>
</defs>
</svg>
