<svg fill="none" height="250" viewBox="0 0 250 250" width="250" xmlns="http://www.w3.org/2000/svg"><path d="m70.0853 247.949c62.8377 0 62.8377-.935 73.4927-4.098 13.924-4.133-39.313-40.984-73.4927-40.984-34.1801 0-61.88852 10.092-61.88852 22.541s27.70982 22.541 61.88852 22.541z" fill="#000"/><path d="m212.772 56.2643 2.89 3.1147-2.527 3.4163c-81.952 110.8057-129.162 160.9757-149.1926 154.2467-12.2007-4.098-24.4363-16.425-36.6721-34.323-4.3009-6.291-8.3395-12.916-12.0127-19.509-2.446-4.39-4.5163-8.394-5.5912-10.649-1.37122-2.876-1.95015-4.649-2.40944-6.976-.02803-.143-.02803-.143-.05466-.28-.1917-.988-.25802-1.3-.40132-1.84-2.46599-9.294-3.72725-18.923-3.72725-28.714 0-61.6797 50.00097-111.68069 111.68027-111.68069 19.323 0 37.945 4.91785 54.447 14.14949l.427.2666c13.511 9.4069 27.883 22.3327 43.144 38.7779zm-48.791-30.2246c-14.93-8.3033-31.752-12.7235-49.227-12.7235-56.0206 0-101.4344 45.4138-101.4344 101.4348 0 8.902 1.1456 17.648 3.3846 26.086.2214.835.3216 1.306.5564 2.517.0247.127.0247.127.0484.247.2964 1.502.6092 2.46 1.6063 4.552.9807 2.057 2.9513 5.868 5.2927 10.071 3.5304 6.336 7.41 12.7 11.5206 18.713 11.0549 16.171 22.0185 27.215 31.4765 30.393 12.6144 4.237 60.1029-46.032 135.1499-147.1954-13.625-14.3816-26.424-25.7467-38.374-34.0949z" fill="#000"/><path d="m163.981 26.036c-14.93-8.3033-31.752-12.7235-49.227-12.7235-56.0207 0-101.4344 45.4137-101.4344 101.4345 0 8.902 1.1456 17.648 3.3846 26.086.2214.835.3215 1.306.5564 2.517.0246.127.0246.127.0483.247.2965 1.503.6092 2.46 1.6064 4.552.9806 2.057 2.9513 5.868 5.2927 10.071 3.5303 6.336 7.4099 12.7 11.5205 18.713 11.0549 16.171 22.0186 27.216 31.4765 30.393 12.6144 4.237 60.103-46.032 135.15-147.1952-13.625-14.3815-26.424-25.7466-38.374-34.0948z" fill="#ec1c79"/><path d="m135.246 246.923c-61.6796 0-111.6806-50.001-111.6806-111.68 0-61.6795 50.001-111.6805 111.6806-111.6805 61.679 0 111.68 50.001 111.68 111.6805 0 61.679-50.001 111.68-111.68 111.68zm0-10.246c56.02 0 101.434-45.413 101.434-101.434 0-56.0209-45.414-101.4346-101.434-101.4346-56.0209 0-101.4347 45.4137-101.4347 101.4346 0 56.021 45.4138 101.434 101.4347 101.434z" fill="#000"/><path d="m135.246 236.674c56.021 0 101.434-45.414 101.434-101.435 0-56.0206-45.413-101.4343-101.434-101.4343-56.0207 0-101.4345 45.4137-101.4345 101.4343 0 56.021 45.4138 101.435 101.4345 101.435z" fill="#fff"/><g fill="#000"><path clip-rule="evenodd" d="m59.3689 156.019-13.4263-40.451h11.7623l7 23.238 7.7459-23.353h9.582l7.7459 23.353 7-23.238h11.5323l-13.4257 40.451h-9.6968l-8.0901-23.123-8.0328 23.123zm53.3611-.287v-40.164h32.303v9.467h-21.287v6.082h19.279v8.779h-19.279v6.369h21.574v9.467zm48.081 0v-30.41h-12.049v-9.754h35.23v9.754h-12.049v30.41zm28.058 0v-40.164h11.131v15.033h14.287v-15.033h11.131v40.164h-11.131v-15.262h-14.287v15.262z" fill-rule="evenodd"/><path d="m9.72913 103.488c-2.8343-1.417-3.98313-4.8635-2.56598-7.6978 1.41716-2.8343 4.86365-3.9832 7.69795-2.566l16.3934 8.1968c2.8343 1.417 3.9832 4.864 2.566 7.698-1.4171 2.834-4.8636 3.983-7.6979 2.566z"/><path d="m7.84161 130.667c-2.87722-1.327-4.13321-4.736-2.80534-7.613 1.32787-2.878 4.73676-4.134 7.61393-2.806l16.3935 7.566c2.8772 1.328 4.1332 4.737 2.8053 7.614-1.3278 2.877-4.7367 4.133-7.6139 2.805z"/></g></svg>