<svg fill="none" height="250" viewBox="0 0 250 250" width="250" xmlns="http://www.w3.org/2000/svg" xmlns:xlink="http://www.w3.org/1999/xlink"><linearGradient id="a" gradientUnits="userSpaceOnUse" x1="49.335" x2="177.469" y1="127.865" y2="127.865"><stop offset="0" stop-color="#a3a2a5"/><stop offset=".2705" stop-color="#9f9ea0"/><stop offset=".5607" stop-color="#929194"/><stop offset=".8592" stop-color="#7c7c80"/><stop offset="1" stop-color="#707073"/></linearGradient><linearGradient id="b" gradientUnits="userSpaceOnUse" x1="48.4877" x2="139.53" y1="112.863" y2="22.6991"><stop offset="0" stop-color="#969598"/><stop offset=".3396" stop-color="#908f92"/><stop offset=".7917" stop-color="#7f7f82"/><stop offset="1" stop-color="#757578"/></linearGradient><linearGradient id="c" gradientUnits="userSpaceOnUse" x1="55.5048" x2="104.139" y1="111.592" y2="208.036"><stop offset="0" stop-color="#9e9ea0"/><stop offset=".2759" stop-color="#9b9b9d"/><stop offset=".494" stop-color="#919194"/><stop offset=".6923" stop-color="#808083"/><stop offset=".8777" stop-color="#69696d"/><stop offset="1" stop-color="#55565a"/></linearGradient><path d="m197.15 19.4992-123.8-5.55-72.04995 90.0498 50.49995 120.3 125 7.6 71.2-101.25z" fill="#45464d" opacity=".7"/><path d="m248 130.797-70.55-71.5001-18.55 137.1501z" fill="#656569"/><path d="m49.3501 114.697 128.0999-55.4001-18.55 137.1501z" fill="url(#a)"/><path d="m177.45 59.2977-104.0999-45.2-24 100.6003z" fill="url(#b)"/><path d="m49.3501 114.699 2.45 109.75 107.0999-28z" fill="url(#c)"/><path d="m177.45 59.2977 19.7-39.7-123.7999-5.5z" fill="#757578"/><path d="m197.15 19.5977 50.85 111.2003-70.55-71.5003z" fill="#6c6d70"/><path d="m248 130.797-71.2 101.2-17.9-35.55z" fill="#6c6d70"/><path d="m176.8 231.999-125-7.55 107.1-28z" fill="#55565a"/><path d="m73.35 14.0977-72.04995 90.0003 48.04995 10.6z" fill="#55565a"/><path d="m1.30005 104.098 50.49995 120.35-2.45-109.75z" fill="#656569"/><path d="m164.35 78.1484-13 98.3496-76.55-59.2z" fill="#151a22" opacity=".7"/><path d="m154 58.5461-71.5499-30.8-15.05 64.8z" fill="#151a22" opacity=".7"/><path d="m135.85 191.398-77.7499-55.55 1.85 75.3z" fill="#23262e" opacity=".7"/><path d="m234.9 130.546-52.95-53.7999-14 103.4499z" fill="#23262e" opacity=".7"/><path d="m154.1 203.496 11.55 22.1-77.15-4.95z" fill="#43444b" opacity=".7"/><path d="m224.55 154.949-57.4 42.8 11.4 22.3z" fill="#34363d" opacity=".7"/><path d="m197.4 35.1484 30.35 65.0996-41.5-42.1996z" fill="#34363d" opacity=".7"/><path d="m183.5 24.1992-12.75 23.35-60.1-26.35z" fill="#36383f" opacity=".7"/><path d="m63.1501 34.7461-16.95 71.7499-34.1-7.2499z" fill="#3b3c43" opacity=".7"/><path d="m44.1501 119.148 1.5 77.05-35.8-84.3z" fill="#45464d" opacity=".7"/></svg>