<svg fill="none" height="232" viewBox="0 0 232 232" width="232" xmlns="http://www.w3.org/2000/svg"><path d="m116.005 231.555c63.819 0 115.555-51.736 115.555-115.556 0-63.8196-51.736-115.555763-115.555-115.555763-63.8198 0-115.555781 51.736163-115.555781 115.555763 0 63.82 51.735981 115.556 115.555781 115.556z" fill="#000"/><g fill="#f3ba2f"><path d="m86.0841 103.705 29.9219-29.9225 29.937 29.9355 17.41-17.4105-47.347-47.3456-47.331 47.3314 17.4097 17.4107zm-47.1144 12.294 17.4109-17.4137 17.4097 17.4097-17.4109 17.411zm47.1144 12.295 29.9219 29.921 29.936-29.935 17.42 17.401-.009.01-47.347 47.345-47.331-47.332-.0246-.024 17.4355-17.387zm72.1379-12.288 17.411-17.4108 17.41 17.4098-17.41 17.411z"/><path d="m133.662 115.99h.007l-17.665-17.6674-13.057 13.0544-1.5 1.5-3.0942 3.095-.0247.024.0247.025 17.6512 17.654 17.667-17.667.008-.01-.016-.008"/></g></svg>