<svg width="250" height="250" viewBox="0 0 250 250" fill="none" xmlns="http://www.w3.org/2000/svg">
<g clip-path="url(#clip0_155_11299)">
<path d="M116.005 231.555C179.824 231.555 231.56 179.819 231.56 115.999C231.56 52.1794 179.824 0.443237 116.005 0.443237C52.1852 0.443237 0.449219 52.1794 0.449219 115.999C0.449219 179.819 52.1852 231.555 116.005 231.555Z" fill="black"/>
<path d="M86.0841 103.705L116.006 73.7825L145.943 103.718L163.353 86.3075L116.006 38.9619L68.675 86.2933L86.0847 103.704L86.0841 103.705ZM38.9697 115.999L56.3806 98.5853L73.7903 115.995L56.3794 133.406L38.9697 115.999ZM86.0841 128.294L116.006 158.215L145.942 128.28L163.362 145.681L163.353 145.691L116.006 193.036L68.675 145.704L68.6504 145.68L86.0859 128.293L86.0841 128.294ZM158.222 116.006L175.633 98.5952L193.043 116.005L175.633 133.416L158.222 116.006Z" fill="#F3BA2F"/>
<path d="M133.662 115.99H133.669L116.004 98.3226L102.947 111.377L101.447 112.877L98.3528 115.972L98.3281 115.996L98.3528 116.021L116.004 133.675L133.671 116.008L133.679 115.998L133.663 115.99" fill="#F3BA2F"/>
</g>
<defs>
<clipPath id="clip0_155_11299">
<rect width="231.111" height="231.111" fill="white" transform="translate(0.449219 0.443237)"/>
</clipPath>
</defs>
</svg>
