<svg width="250" height="250" viewBox="0 0 250 250" fill="none" xmlns="http://www.w3.org/2000/svg">
<g clip-path="url(#clip0_30_521)">
<path fill-rule="evenodd" clip-rule="evenodd" d="M35.0994 115.437L73.5244 24.0996L182.674 36.6746L205.024 104.087L193.849 197.337C177.787 214.575 167.537 223.187 163.112 223.187C158.687 223.187 125.162 217.075 62.5244 204.85L35.1119 137.087L35.0994 115.437Z" fill="#F9F9F9"/>
<mask id="mask0_30_521" style="mask-type:alpha" maskUnits="userSpaceOnUse" x="0" y="0" width="250" height="250">
<path fill-rule="evenodd" clip-rule="evenodd" d="M0 0H250V250H0V0Z" fill="white"/>
</mask>
<g mask="url(#mask0_30_521)">
<path fill-rule="evenodd" clip-rule="evenodd" d="M177.375 197.425H150.762V151.613C150.762 144.275 144.825 138.312 137.488 138.312H137.475H99.225C84.5375 138.312 72.625 126.4 72.625 111.713V52.5875H99.225V98.4125C99.225 105.75 105.175 111.713 112.512 111.713H150.762C165.45 111.725 177.35 123.625 177.363 138.312L177.375 197.425ZM100.15 197.425H73.5375V152.75C88.225 152.75 100.137 164.65 100.137 179.35L100.15 197.425ZM149.85 52.575H176.45V97.275C161.75 97.275 149.85 85.3625 149.85 70.675V52.575ZM125 0C55.9625 0 0 55.975 0 125C0 194.025 55.9625 250 125 250C194.038 250 250 194.038 250 125C250 55.9625 194.038 0 125 0Z" fill="#005FFA"/>
</g>
</g>
<defs>
<clipPath id="clip0_30_521">
<rect width="250" height="250" fill="white"/>
</clipPath>
</defs>
</svg>
