<svg fill="none" height="250" viewBox="0 0 250 250" width="250" xmlns="http://www.w3.org/2000/svg" xmlns:xlink="http://www.w3.org/1999/xlink"><clipPath id="a"><path d="m0 0h250v250h-250z"/></clipPath><mask id="b" height="250" maskUnits="userSpaceOnUse" width="250" x="0" y="0"><path clip-rule="evenodd" d="m0 0h250v250h-250z" fill="#fff" fill-rule="evenodd"/></mask><g clip-path="url(#a)"><path clip-rule="evenodd" d="m35.0994 115.437 38.425-91.3374 109.1496 12.575 22.35 67.4124-11.175 93.25c-16.062 17.238-26.312 25.85-30.737 25.85s-37.95-6.112-100.5876-18.337l-27.4125-67.763z" fill="#f9f9f9" fill-rule="evenodd"/><g mask="url(#b)"><path clip-rule="evenodd" d="m177.375 197.425h-26.613v-45.812c0-7.338-5.937-13.301-13.274-13.301h-.013-38.25c-14.6875 0-26.6-11.912-26.6-26.599v-59.1255h26.6v45.825c0 7.3375 5.95 13.3005 13.287 13.3005h38.25c14.688.012 26.588 11.912 26.601 26.599zm-77.225 0h-26.6125v-44.675c14.6875 0 26.5995 11.9 26.5995 26.6zm49.7-144.85h26.6v44.7c-14.7 0-26.6-11.9125-26.6-26.6zm-24.85-52.575c-69.0375 0-125 55.975-125 125s55.9625 125 125 125c69.038 0 125-55.962 125-125 0-69.0375-55.962-125-125-125z" fill="#005ffa" fill-rule="evenodd"/></g></g></svg>