<svg fill="none" height="250" viewBox="0 0 250 250" width="250" xmlns="http://www.w3.org/2000/svg" xmlns:xlink="http://www.w3.org/1999/xlink"><clipPath id="a"><path d="m0 0h250v250h-250z"/></clipPath><clipPath id="b"><path d="m62.5 52.084h125v135.417h-125z"/></clipPath><g clip-path="url(#a)"><path clip-rule="evenodd" d="m250 125c0 69.036-55.964 125-125 125-69.0359 0-125-55.964-125-125 0-69.0359 55.9641-125 125-125 69.036 0 125 55.9641 125 125z" fill="#fff" fill-rule="evenodd"/><g clip-path="url(#b)" fill="#000"><path d="m62.5 119.426v67.341h62.491 62.483v-67.341h-62.483z"/><path d="m187.5 52.084h-125c-.0069 8.836 1.604 17.5869 4.7408 25.7532 3.1367 8.1662 7.7379 15.5879 13.5407 21.8411 5.8029 6.2537 12.6938 11.2157 20.2795 14.6037 7.585 3.388 15.717 5.136 23.93 5.144 8.215-.004 16.349-1.749 23.937-5.136s14.482-8.349 20.287-14.6023c5.805-6.2537 10.407-13.6767 13.545-21.8447 3.137-8.168 4.748-16.9211 4.74-25.759z"/></g></g></svg>