<svg width="250" height="250" viewBox="0 0 250 250" fill="none" xmlns="http://www.w3.org/2000/svg">
<g clip-path="url(#clip0_44_10511)">
<path fill-rule="evenodd" clip-rule="evenodd" d="M250 125C250 194.036 194.036 250 125 250C55.9641 250 0 194.036 0 125C0 55.9641 55.9641 0 125 0C194.036 0 250 55.9641 250 125Z" fill="white"/>
<g clip-path="url(#clip1_44_10511)">
<path d="M62.5 119.426V186.767H124.991H187.474V119.426H124.991H62.5Z" fill="black"/>
<path d="M187.5 52.084H62.5C62.4931 60.92 64.104 69.6709 67.2408 77.8372C70.3775 86.0034 74.9787 93.4251 80.7815 99.6783C86.5844 105.932 93.4753 110.894 101.061 114.282C108.646 117.67 116.778 119.418 124.991 119.426C133.206 119.422 141.34 117.677 148.928 114.29C156.516 110.903 163.41 105.941 169.215 99.6877C175.02 93.434 179.622 86.011 182.76 77.843C185.897 69.675 187.508 60.9219 187.5 52.084Z" fill="black"/>
</g>
</g>
<defs>
<clipPath id="clip0_44_10511">
<rect width="250" height="250" fill="white"/>
</clipPath>
<clipPath id="clip1_44_10511">
<rect width="125" height="135.417" fill="white" transform="translate(62.5 52.084)"/>
</clipPath>
</defs>
</svg>
