<svg fill="none" height="262" viewBox="0 0 262 262" width="262" xmlns="http://www.w3.org/2000/svg" xmlns:xlink="http://www.w3.org/1999/xlink"><clipPath id="a"><path d="m0 0h262v262h-262z"/></clipPath><g clip-path="url(#a)"><path d="m131 262c72.349 0 131-58.651 131-131 0-72.3493-58.651-131-131-131-72.3493 0-131 58.6507-131 131 0 72.349 58.6507 131 131 131z" fill="#30367a"/><path d="m117.515 182.565v-108.6483h-31.5462v-24.7917h90.0622v24.7917h-31.546v108.6483zm-7.262 30.31c-16.2851 0-23.9895-7.827-23.9895-24.382v-107.4695h23.6945v106.3725c0 2.62.86 3.487 3.431 3.487h35.525c2.571 0 3.439-.876 3.439-3.487v-106.3725h23.678v107.4695c0 16.555-7.712 24.382-23.989 24.382z" fill="#fff"/></g></svg>