<svg width="262" height="262" viewBox="0 0 262 262" fill="none" xmlns="http://www.w3.org/2000/svg">
<g clip-path="url(#clip0_112_11049)">
<path d="M131 262C203.349 262 262 203.349 262 131C262 58.6507 203.349 0 131 0C58.6507 0 0 58.6507 0 131C0 203.349 58.6507 262 131 262Z" fill="#30367A"/>
<path d="M117.515 182.565V73.9167H85.9688V49.125H176.031V73.9167H144.485V182.565H117.515ZM110.253 212.875C93.9679 212.875 86.2635 205.048 86.2635 188.493V81.0235H109.958V187.396C109.958 190.016 110.818 190.883 113.389 190.883H148.914C151.485 190.883 152.353 190.007 152.353 187.396V81.0235H176.031V188.493C176.031 205.048 168.319 212.875 152.042 212.875H110.253Z" fill="white"/>
</g>
<defs>
<clipPath id="clip0_112_11049">
<rect width="262" height="262" fill="white"/>
</clipPath>
</defs>
</svg>
