<svg fill="none" height="250" viewBox="0 0 250 250" width="250" xmlns="http://www.w3.org/2000/svg" xmlns:xlink="http://www.w3.org/1999/xlink"><clipPath id="a"><path d="m0 0h250v250h-250z"/></clipPath><g clip-path="url(#a)"><path d="m125 250.001c69.036 0 125-55.965 125-125.001 0-69.0354-55.964-125-125-125-69.0356 0-125 55.9646-125 125 0 69.036 55.9644 125.001 125 125.001z" fill="#f3ba2f"/><g fill="#fff"><path d="m92.6318 111.701 32.3682-32.3676 32.383 32.3816 18.833-18.833-51.216-51.2152-51.2001 51.1999 18.8325 18.8333zm-50.9651 13.299 18.8339-18.837 18.8326 18.833-18.8339 18.834zm50.9651 13.301 32.3682 32.366 32.382-32.382 18.843 18.824-.009.01-51.216 51.214-51.2001-51.2-.0267-.026 18.8606-18.808zm78.0342-13.293 18.834-18.834 18.832 18.833-18.833 18.834z"/><path d="m144.101 124.99h.008l-19.11-19.111-14.124 14.121-1.623 1.624-3.346 3.347-.027.026.027.027 19.093 19.097 19.111-19.111.009-.01-.017-.01"/></g></g></svg>