<svg width="24" height="24" viewBox="0 0 24 24" fill="none" xmlns="http://www.w3.org/2000/svg">
<g clip-path="url(#clip0_524_3368)">
<path fill-rule="evenodd" clip-rule="evenodd" d="M12 0C18.6279 0 24 5.37211 24 12C24 18.6279 18.6279 24 12 24C5.37211 24 0 18.6279 0 12C0 5.37211 5.37211 0 12 0Z" fill="black"/>
<path d="M6.59538 12L6.60403 15.1731L9.30018 16.7596V18.6173L5.02614 16.1106V11.0721L6.59538 12ZM6.59538 8.82692V10.6759L5.02518 9.74714V7.89808L6.59538 6.96923L8.17326 7.89808L6.59538 8.82692ZM10.4262 7.89808L11.9963 6.96923L13.5742 7.89808L11.9963 8.82692L10.4262 7.89808Z" fill="#F0B90B"/>
<path d="M7.7296 14.5154V12.6577L9.29982 13.5865V15.4356L7.7296 14.5154ZM10.4258 17.425L11.9959 18.3538L13.5738 17.425V19.274L11.9959 20.2029L10.4258 19.274V17.425ZM15.8258 7.89808L17.3959 6.96923L18.9738 7.89808V9.74714L17.3959 10.6759V8.82692L15.8258 7.89808ZM17.3959 15.1731L17.4046 12L18.9748 11.0711V16.1096L14.7007 18.6163V16.7586L17.3959 15.1731Z" fill="#F0B90B"/>
<path d="M16.2702 14.5154L14.7001 15.4356V13.5865L16.2702 12.6577V14.5154Z" fill="#F0B90B"/>
<path d="M16.27 9.48462L16.2786 11.3423L13.5748 12.9289V16.1096L12.0046 17.0298L10.4344 16.1096V12.9289L7.73056 11.3423V9.48462L9.30748 8.55577L11.995 10.15L14.6988 8.55577L16.2767 9.48462H16.27ZM7.7296 6.3125L11.9959 3.79711L16.27 6.3125L14.6998 7.24134L11.9959 5.64712L9.29982 7.24134L7.7296 6.3125Z" fill="#F0B90B"/>
</g>
<defs>
<clipPath id="clip0_524_3368">
<rect width="24" height="24" fill="white"/>
</clipPath>
</defs>
</svg>
