<svg fill="none" height="260" viewBox="0 0 260 260" width="260" xmlns="http://www.w3.org/2000/svg"><path clip-rule="evenodd" d="m130 0c71.802 0 130 58.1979 130 130 0 71.802-58.198 130-130 130-71.8021 0-130-58.198-130-130 0-71.8021 58.1979-130 130-130z" fill="#000" fill-rule="evenodd"/><g fill="#f0b90b"><path d="m71.4499 130 .0937 34.375 29.2084 17.187v20.125l-46.3021-27.156v-54.583zm0-34.375v20.031l-17.0104-10.062v-20.0315l17.0104-10.0625 17.0937 10.0625zm41.5001-10.0625 17.01-10.0625 17.094 10.0625-17.094 10.0625z"/><path d="m83.7373 157.25v-20.125l17.0107 10.062v20.032zm29.2087 31.521 17.01 10.062 17.094-10.062v20.031l-17.094 10.063-17.01-10.063zm58.5-103.2085 17.01-10.0625 17.094 10.0625v20.0315l-17.094 10.062v-20.031zm17.01 78.8125.094-34.375 17.01-10.063v54.584l-46.302 27.156v-20.125z"/><path d="m176.261 157.25-17.01 9.969v-20.032l17.01-10.062z"/><path d="m176.258 102.75.094 20.125-29.292 17.188v34.458l-17.01 9.969-17.011-9.969v-34.458l-29.2913-17.188v-20.125l17.0833-10.0625 29.115 17.2705 29.291-17.2705 17.094 10.0625zm-92.5207-34.3646 46.2187-27.25 46.302 27.25-17.01 10.0625-29.292-17.2708-29.208 17.2708z"/></g></svg>