<svg fill="none" height="250" viewBox="0 0 250 250" width="250" xmlns="http://www.w3.org/2000/svg" xmlns:xlink="http://www.w3.org/1999/xlink"><linearGradient id="a"><stop offset="0" stop-color="#08bccd"/><stop offset=".9996" stop-color="#26a5f1"/></linearGradient><linearGradient id="b" gradientUnits="userSpaceOnUse" x1="125.428" x2="125.428" xlink:href="#a" y1="246.728" y2="-.014382"/><linearGradient id="c" gradientUnits="userSpaceOnUse" x1="118.903" x2="118.903" xlink:href="#a" y1="246.727" y2="-.104654"/><path d="m125.45 1.75-106.8499 61.7v123.35l106.8499 61.7 106.85-61.7v-123.35zm26.45 59.8h-27.4v18.2h20.2c3.25 0 5.9 2.65 5.9 5.9s-2.65 5.9-5.9 5.9h-20.2v56.35c12.6 2.6 22.15 13.8 22.15 27.15 0 15.3-12.45 27.75-27.75 27.75s-27.7499-12.45-27.7499-27.75c0-13.15 9.1999-24.2 21.5499-27v-92.45c0-3.25 2.65-5.9 5.9-5.9h33.3c3.25 0 5.9 2.65 5.9 5.9.05 3.3-2.6 5.95-5.9 5.95z" fill="url(#b)"/><path d="m118.9 190.999c8.781 0 15.9-7.118 15.9-15.9 0-8.781-7.119-15.9-15.9-15.9s-15.9 7.119-15.9 15.9c0 8.782 7.119 15.9 15.9 15.9z" fill="url(#c)"/></svg>