<svg width="24" height="24" viewBox="0 0 24 24" fill="none" xmlns="http://www.w3.org/2000/svg">
<g clip-path="url(#clip0_1_12376)">
<mask id="mask0_1_12376" style="mask-type:luminance" maskUnits="userSpaceOnUse" x="0" y="0" width="24" height="24">
<path d="M24 0H0V24H24V0Z" fill="white"/>
</mask>
<g mask="url(#mask0_1_12376)">
<path d="M12 24C18.6274 24 24 18.6274 24 12C24 5.37258 18.6274 0 12 0C5.37258 0 0 5.37258 0 12C0 18.6274 5.37258 24 12 24Z" fill="white"/>
<mask id="mask1_1_12376" style="mask-type:luminance" maskUnits="userSpaceOnUse" x="7" y="6" width="11" height="12">
<path d="M17.3671 6.07903H7.61002V17.9392H17.3671V6.07903Z" fill="white"/>
</mask>
<g mask="url(#mask1_1_12376)">
<path d="M7.61001 6.09072C7.6932 6.0861 7.75437 6.0798 7.81575 6.0798C9.58635 6.08001 11.3572 6.07593 13.1278 6.08337C13.9686 6.08694 14.783 6.2271 15.5288 6.64383C16.9791 7.45422 17.4947 9.44547 16.5571 10.7238C16.3199 11.0471 15.965 11.2841 15.6612 11.5578C15.6061 11.6075 15.5372 11.6414 15.4616 11.6913C15.4942 11.7134 15.528 11.7337 15.5627 11.7523C16.8536 12.3313 17.507 13.4837 17.342 14.892C17.1524 16.5097 16.1375 17.543 14.438 17.8198C14.0092 17.8905 13.5756 17.928 13.1411 17.9321C11.3705 17.9444 9.59964 17.9375 7.82901 17.9371C7.76028 17.9371 7.69179 17.9308 7.60986 17.9269L7.61001 6.09072ZM10.4215 15.5943C10.4661 15.6034 10.5111 15.6098 10.5565 15.6134C11.356 15.6136 12.1557 15.6251 12.9546 15.6044C13.2101 15.5961 13.4619 15.5411 13.6976 15.4422C14.1656 15.2453 14.3831 14.861 14.3898 14.3544C14.3965 13.8397 14.1948 13.43 13.715 13.2342C13.4288 13.1172 13.1013 13.0647 12.7899 13.0534C12.0767 13.0276 11.3621 13.0448 10.6479 13.0458C10.574 13.046 10.5 13.0563 10.4213 13.0622L10.4215 15.5943ZM10.4225 10.7931C11.3405 10.7931 12.2422 10.8469 13.1341 10.7759C13.8343 10.7201 14.1869 10.1842 14.1451 9.47583C14.1082 8.85183 13.6873 8.4339 12.937 8.39349C12.1166 8.34906 11.2921 8.37945 10.4694 8.37849C10.4572 8.37849 10.4449 8.39505 10.4225 8.41116L10.4225 10.7931Z" fill="black"/>
</g>
</g>
</g>
<defs>
<clipPath id="clip0_1_12376">
<rect width="24" height="24" fill="white"/>
</clipPath>
</defs>
</svg>
