<svg fill="none" height="250" viewBox="0 0 250 250" width="250" xmlns="http://www.w3.org/2000/svg" xmlns:xlink="http://www.w3.org/1999/xlink"><clipPath id="a"><path d="m0 0h250v250h-250z"/></clipPath><g clip-path="url(#a)" fill="#def141"><path d="m159.667 62.0625-136.2921 135.7295c-9.7866-13.751-16.68741-29.34-20.28623-45.83-3.598812-16.489-3.821134-33.536-.65356-50.114 3.16758-16.5773 9.65949-32.3417 19.08419-46.3425 9.4248-14.0008 21.5872-25.948 35.754-35.1213s30.0446-15.38271 46.6757-18.25383c16.632-2.871133 33.672-2.344516 50.095 1.5481 16.422 3.89261 31.886 11.07063 45.46 21.10113 13.573 10.0306 24.975 22.706 33.517 37.2621h-73.334z"/><path d="m173.229 95.4583-127.0414 126.5627c-3.3845-2.763-6.6248-5.697-9.7084-8.792l131.5628-131.1248h74.396c1.604 4.375 2.958 8.8333 4.041 13.3333zm21.917 53.6047h52.542c-3.225 16.438-9.721 32.061-19.1 45.941-9.38 13.88-21.453 25.733-35.503 34.857-14.049 9.123-29.789 15.331-46.284 18.254-16.495 2.922-33.409 2.501-49.7384-1.24z"/><path d="m250 125c0 1.333 0 2.667-.062 4h-63.146l-111.2503 110.833c-4.2592-1.826-8.4116-3.892-12.4375-6.187l118.4788-118.125h68.063c.229 3.125.354 6.292.354 9.479z"/></g></svg>