<svg fill="none" height="250" viewBox="0 0 250 250" width="250" xmlns="http://www.w3.org/2000/svg" xmlns:xlink="http://www.w3.org/1999/xlink"><linearGradient id="a"><stop offset="0" stop-color="#8568c5"/><stop offset="1" stop-color="#7c4497"/></linearGradient><linearGradient id="b" gradientUnits="userSpaceOnUse" x1="14.0554" x2="220.954" xlink:href="#a" y1="228.073" y2="37.0897"/><linearGradient id="c" gradientUnits="userSpaceOnUse" x1="-7.20225" x2="199.697" xlink:href="#a" y1="205.045" y2="14.061"/><linearGradient id="d" gradientUnits="userSpaceOnUse" x1="64.9076" x2="271.807" xlink:href="#a" y1="283.161" y2="92.1771"/><linearGradient id="e" gradientUnits="userSpaceOnUse" x1="-37.3269" x2="169.572" xlink:href="#a" y1="172.407" y2="-18.577"/><linearGradient id="f" gradientUnits="userSpaceOnUse" x1="34.7296" x2="241.629" xlink:href="#a" y1="250.474" y2="59.4903"/><clipPath id="g"><path d="m0 0h250v250h-250z"/></clipPath><g clip-path="url(#g)"><path d="m131.78 167.879c0 3.14-.025 6.02.01 8.895.025 2.22-.995 3.155-3.24 3.355-8.95.8-9.27.56-9.56-8.34-.04-1.225-.235-2.44-.38-3.845-2.345-.405-4.51-.7-6.64-1.155-10.26-2.2-17.235-12.84-14.94-23 .235-1.045 1.64-2.49 2.605-2.58 3.575-.325 7.195-.21 10.8-.16 2.085.03 2.95 1.39 2.87 3.315-.305 7.39 3.525 9.05 9.965 8.94 2.625-.045 5.27-.095 7.865-.43 3.325-.435 4.99-2.615 5.495-5.875 1.32-8.445-1.085-11.775-9.65-13.03-3.975-.58-7.99-.9-11.96-1.51-12.235-1.87-18.01-8.395-18.265-20.805-.085-4.145-.175-8.37.52-12.4296 1.48-8.665 6.81-13.62 15.455-15.15 1.75-.31 3.51-.595 5.865-.995 0-2.805.055-5.54-.015-8.27-.08-2.99 1.285-4.21 4.275-4.2 10.23.025 9.09-.43 9.145 8.39.01 1.35.15 2.705.23 4.12 1.53.31 2.73.605 3.95.79 12.88 1.96 16.815 13.505 16.105 23.4696-.145 2.04-1.425 2.865-3.375 2.855-3.325-.01-6.655-.02-9.98-.005-2.27.01-3.03-1.19-3.27-3.36-.855-7.6646-1.96-8.5946-9.63-8.6846-1.8-.02-3.61-.045-5.405.07-5.01.325-6.82 2.1546-7.235 7.2546-.09 1.105-.09 2.215-.09 3.325.015 5.175 1.95 7.595 7.145 8.465 3.275.55 6.64.55 9.91 1.12 4.07.71 8.24 1.335 12.08 2.76 5.72 2.12 9.505 6.505 10.145 12.645.6 5.75.99 11.66.315 17.365-1.05 8.89-6.88 14.29-15.725 15.935-1.485.275-3 .42-5.39.755z" fill="url(#b)"/><path d="m30.3901 98.38c11.61-41.335 49.57-71.64 94.6099-71.64 45.04 0 83 30.305 94.61 71.64h27.54c-12.205-56.245-62.25-98.38-122.15-98.38-59.8999 0-109.9449 42.135-122.1499 98.38z" fill="url(#c)"/><path d="m223.26 124.997c0 3.66-.205 7.275-.595 10.835h26.865c.305-3.57.475-7.185.475-10.835 0-3.56-.155-7.085-.45-10.575h-26.855c.365 3.475.56 7 .56 10.575z" fill="url(#d)"/><path d="m26.74 124.997c0-3.575.195-7.1.57-10.575h-26.86c-.295 3.49-.45 7.015-.45 10.575 0 3.65.165 7.265.475 10.835h26.865c-.395-3.56-.6-7.175-.6-10.835z" fill="url(#e)"/><path d="m219.54 151.883c-11.695 41.2-49.59 71.38-94.54 71.38-44.9501 0-82.8451-30.175-94.5401-71.38h-27.54999c12.29499 56.115 62.28499 98.12 122.09009 98.12 59.805 0 109.795-42.005 122.09-98.12z" fill="url(#f)"/></g></svg>