<svg fill="none" height="250" viewBox="0 0 250 250" width="250" xmlns="http://www.w3.org/2000/svg" xmlns:xlink="http://www.w3.org/1999/xlink"><linearGradient id="a" gradientUnits="userSpaceOnUse" x1="13.0894" x2="236.913" y1="125" y2="125"><stop offset="0" stop-color="#ff0058"/><stop offset=".9368" stop-color="#ff0058"/><stop offset="1" stop-color="#ff0058"/></linearGradient><clipPath id="b"><path d="m-.000244 0h250v250h-250z"/></clipPath><clipPath id="c"><path d="m-.000244 0h250v250h-250z"/></clipPath><mask id="d" height="250" maskUnits="userSpaceOnUse" width="251" x="-1" y="0"><path d="m-.00024414.0000149h250.00024414v249.9999851h-250.00024414z" fill="#fff"/></mask><g clip-path="url(#b)"><g clip-path="url(#c)"><path d="m13.0894 125c0 61.807 50.1044 111.912 111.9116 111.912 61.807 0 111.912-50.105 111.912-111.912 0-61.8071-50.105-111.9115-111.912-111.9115-61.8072 0-111.9116 50.1044-111.9116 111.9115z" fill="url(#a)"/><g mask="url(#d)"><path d="m143.668 124.248c-.004.15-.011.3-.021.452-.007.105-.017.212-.027.316-.015.154-.033.309-.055.464-.015.107-.028.212-.045.32-.027.161-.056.325-.088.49-.02.103-.038.205-.062.308-.04.182-.087.365-.133.549-.023.088-.044.176-.069.266-.071.259-.149.519-.236.782-.005.016-.01.033-.015.05-.093.282-.197.567-.307.853-.033.085-.07.172-.103.257-.082.203-.164.407-.254.612-.046.108-.098.218-.148.328-.083.185-.168.37-.26.558-.057.119-.118.239-.178.358-.092.182-.185.366-.284.549-.065.123-.133.248-.201.372-.102.183-.205.368-.312.555-.072.125-.145.25-.22.376-.113.192-.232.383-.352.577-.076.123-.151.245-.23.368-.026.043-.056.087-.084.13-.002-.001-.002-.003-.004-.003l-1.808 2.588c-2.902 3.867-6.94 8.055-12.05 12.473-5.755 4.977-8.905 8.82-10.63 11.527-.274-1.676-.43-3.385-.467-5.098l-.007-.245c-.005-.18-.008-.362-.008-.544 0-5.719 2.682-13.013 5.185-16.279 2.45-3.197 5.447-6.372 8.484-9.907l2.601-3.127c2.2-2.753 4.342-5.763 6.232-9.178.806.032 1.603.11 2.378.247.004.001.007.003.01.006.02.014.047.029.077.049.011.008.026.018.04.026.028.019.058.039.093.062.02.013.045.031.067.047.033.023.066.046.103.073.028.022.062.047.092.07.036.028.073.055.112.087.035.028.073.059.109.09.04.033.08.065.122.101.04.035.083.073.125.11.043.039.085.075.128.117.044.042.09.086.135.13.045.043.089.085.134.132.048.048.096.101.145.153.045.048.09.095.135.145.05.057.1.118.15.177.045.053.088.103.133.16.05.063.102.131.152.199.043.059.088.115.131.176.052.071.1.148.151.223.041.063.084.123.125.188.049.08.098.169.148.252.038.067.078.132.116.2.05.09.095.188.142.283.035.07.072.137.105.21.048.105.092.215.137.325.028.07.06.137.086.209.047.121.087.251.129.38.021.066.045.128.067.196.059.199.113.403.16.617.049.23.091.463.125.698.011.077.016.155.026.234.018.16.037.321.048.485.007.095.009.19.012.285.007.15.01.299.01.451.005.105.002.209-.002.31zm-4.418-11.323c.822-1.777 1.574-3.655 2.227-5.658 4.033-12.3721-3.207-21.9038-8-28.8973-3.333-4.8648-15.347-13.5498-15.347-13.5498s11.995 22.8017-15.045 44.2571c-28.9466 22.968-15.0199 60.813 15.327 67.126l.173.039c1.138.248 2.307.336 3.47.261.06 0 .122.002.182.002.268 0 .541 0 .81-.012h.053c6.182-.14 12.259-1.86 17.57-4.973.327-.192.655-.392.982-.598v.135l2.333-1.73c9.265-6.869 14.838-18.007 16.047-29.464 1.783-16.901-8.337-27.446-20.782-26.938z" fill="#fff"/></g></g></g></svg>