<svg width="250" height="250" viewBox="0 0 250 250" fill="none" xmlns="http://www.w3.org/2000/svg">
<g clip-path="url(#clip0_48_13097)">
<path d="M125 250C108.128 250 91.759 246.693 76.3423 240.175C61.4549 233.878 48.0932 224.864 36.6101 213.39C25.1358 201.916 16.1222 188.545 9.82502 173.658C3.30735 158.241 0 141.872 0 125C0 108.128 3.30735 91.759 9.82502 76.3423C16.1222 61.4549 25.1358 48.0932 36.6101 36.6101C48.0932 25.1358 61.4549 16.1222 76.3423 9.82502C91.759 3.30735 108.128 0 125 0C141.872 0 158.241 3.30735 173.658 9.82502C188.545 16.1222 201.907 25.1358 213.39 36.6101C224.864 48.0844 233.878 61.4549 240.175 76.3423C246.693 91.759 250 108.128 250 125C250 141.872 246.693 158.241 240.175 173.658C233.878 188.545 224.864 201.907 213.39 213.39C201.916 224.864 188.545 233.878 173.658 240.175C158.241 246.701 141.872 250 125 250Z" fill="white"/>
<path d="M125 243.378C190.378 243.378 243.377 190.379 243.377 125.001C243.377 59.624 190.378 6.625 125 6.625C59.6225 6.625 6.62354 59.624 6.62354 125.001C6.62354 190.379 59.6225 243.378 125 243.378Z" fill="black"/>
<path d="M173.076 153.729C173.076 142.783 168.525 133.796 159.555 126.996C152.923 121.969 143.653 117.85 128.616 113.229C101.549 104.912 101.549 100.123 101.549 96.2689C101.549 90.9419 109.433 83.5599 124.224 83.5599C132.982 83.5599 147.675 85.7648 147.675 100.546H172.299C172.299 93.579 170.738 87.0789 167.784 81.4079L187.54 61.6521L170.13 44.2422L149.995 64.3861C142.692 60.8054 133.952 58.9444 124.233 58.9444C115.175 58.9444 106.849 60.6907 99.6701 64.051L79.8701 44.251L62.4602 61.6609L81.246 80.4466C78.4413 85.3503 76.9332 90.7655 76.9332 96.2778C76.9332 107.223 81.4841 116.21 90.4536 123.01C97.0859 128.037 106.329 132.147 121.366 136.768C148.434 145.077 148.451 149.883 148.451 153.737C148.451 159.064 140.567 166.446 125.776 166.446C117.018 166.446 102.325 164.241 102.325 149.46H77.7005C77.7005 156.454 79.2704 162.971 82.2426 168.66L62.4514 188.451L79.8613 205.861L100.067 185.655C107.361 189.219 116.075 191.071 125.767 191.071C134.799 191.071 143.098 189.333 150.259 185.999L170.13 205.87L187.54 188.46L168.719 169.639C171.55 164.7 173.076 159.276 173.076 153.729Z" fill="white"/>
</g>
<defs>
<clipPath id="clip0_48_13097">
<rect width="250" height="250" fill="white"/>
</clipPath>
</defs>
</svg>
