<svg fill="none" height="250" viewBox="0 0 250 250" width="250" xmlns="http://www.w3.org/2000/svg" xmlns:xlink="http://www.w3.org/1999/xlink"><clipPath id="a"><path d="m0 0h250v250h-250z"/></clipPath><g clip-path="url(#a)"><path d="m125 250c-16.872 0-33.241-3.307-48.6577-9.825-14.8874-6.297-28.2491-15.311-39.7322-26.785-11.4743-11.474-20.4879-24.845-26.78508-39.732-6.51767-15.417-9.82502-31.786-9.82502-48.658s3.30735-33.241 9.82502-48.6577c6.29718-14.8874 15.31078-28.2491 26.78508-39.7322 11.4831-11.4743 24.8448-20.4879 39.7322-26.78508 15.4167-6.51767 31.7857-9.82502 48.6577-9.82502s33.241 3.30735 48.658 9.82502c14.887 6.29718 28.249 15.31078 39.732 26.78508 11.474 11.4743 20.488 24.8448 26.785 39.7322 6.518 15.4167 9.825 31.7857 9.825 48.6577s-3.307 33.241-9.825 48.658c-6.297 14.887-15.311 28.249-26.785 39.732-11.474 11.474-24.845 20.488-39.732 26.785-15.417 6.526-31.786 9.825-48.658 9.825z" fill="#fff"/><path d="m125 243.378c65.378 0 118.377-52.999 118.377-118.377 0-65.377-52.999-118.376-118.377-118.376-65.3775 0-118.37646 52.999-118.37646 118.376 0 65.378 52.99896 118.377 118.37646 118.377z" fill="#000"/><path d="m173.076 153.729c0-10.946-4.551-19.933-13.521-26.733-6.632-5.027-15.902-9.146-30.939-13.767-27.067-8.317-27.067-13.106-27.067-16.9601 0-5.327 7.884-12.709 22.675-12.709 8.758 0 23.451 2.2049 23.451 16.9861h24.624c0-6.967-1.561-13.4671-4.515-19.1381l19.756-19.7558-17.41-17.4099-20.135 20.1439c-7.303-3.5807-16.043-5.4417-25.762-5.4417-9.058 0-17.384 1.7463-24.5629 5.1066l-19.8-19.8-17.4099 17.4099 18.7858 18.7857c-2.8047 4.9037-4.3128 10.3189-4.3128 15.8312 0 10.9452 4.5509 19.9322 13.5204 26.7322 6.6323 5.027 15.8754 9.137 30.9124 13.758 27.068 8.309 27.085 13.115 27.085 16.969 0 5.327-7.884 12.709-22.675 12.709-8.758 0-23.451-2.205-23.451-16.986h-24.6245c0 6.994 1.5699 13.511 4.5421 19.2l-19.7912 19.791 17.4099 17.41 20.2057-20.206c7.294 3.564 16.008 5.416 25.7 5.416 9.032 0 17.331-1.738 24.492-5.072l19.871 19.871 17.41-17.41-18.821-18.821c2.831-4.939 4.357-10.363 4.357-15.91z" fill="#fff"/></g></svg>