<svg width="238" height="238" viewBox="0 0 238 238" fill="none" xmlns="http://www.w3.org/2000/svg">
<circle cx="119.564" cy="118.436" r="117.308" fill="#161616"/>
<path fill-rule="evenodd" clip-rule="evenodd" d="M60.084 138.005L84.8216 110.632V95.9514L60.084 124.479V138.005Z" fill="url(#paint0_linear_105_11275)"/>
<path fill-rule="evenodd" clip-rule="evenodd" d="M60.084 116.566L84.8216 89.1934V74.5125L60.084 103.04V116.566Z" fill="url(#paint1_linear_105_11275)"/>
<path fill-rule="evenodd" clip-rule="evenodd" d="M60.084 95.127L84.8216 67.7539V53.073L60.084 81.6008V95.127Z" fill="url(#paint2_linear_105_11275)"/>
<path fill-rule="evenodd" clip-rule="evenodd" d="M60.084 185.007L104.917 135.8L144.332 185.007H178L121.413 119.04L178 53.073H146.449L60.084 150.259L60.084 185.007Z" fill="url(#paint3_linear_105_11275)"/>
<path opacity="0.368431" fill-rule="evenodd" clip-rule="evenodd" d="M104.612 135.842L121.043 119.04L154.087 157.811L135.25 174.287L104.612 135.842Z" fill="url(#paint4_linear_105_11275)"/>
<defs>
<linearGradient id="paint0_linear_105_11275" x1="1296.96" y1="95.9514" x2="1296.96" y2="4301.35" gradientUnits="userSpaceOnUse">
<stop stop-color="#F7A259"/>
<stop offset="1" stop-color="#F95412"/>
</linearGradient>
<linearGradient id="paint1_linear_105_11275" x1="1296.96" y1="74.5125" x2="1296.96" y2="4279.91" gradientUnits="userSpaceOnUse">
<stop stop-color="#F7A259"/>
<stop offset="1" stop-color="#F95412"/>
</linearGradient>
<linearGradient id="paint2_linear_105_11275" x1="1296.96" y1="53.073" x2="1296.96" y2="4258.47" gradientUnits="userSpaceOnUse">
<stop stop-color="#F7A259"/>
<stop offset="1" stop-color="#F95412"/>
</linearGradient>
<linearGradient id="paint3_linear_105_11275" x1="5955.88" y1="71.9096" x2="5955.88" y2="13246.5" gradientUnits="userSpaceOnUse">
<stop stop-color="#FF986E"/>
<stop offset="1" stop-color="#FF672A"/>
</linearGradient>
<linearGradient id="paint4_linear_105_11275" x1="1296.42" y1="992.716" x2="4175.01" y2="4518.15" gradientUnits="userSpaceOnUse">
<stop/>
<stop offset="1" stop-opacity="0"/>
</linearGradient>
</defs>
</svg>
