<svg fill="none" height="250" viewBox="0 0 250 250" width="250" xmlns="http://www.w3.org/2000/svg" xmlns:xlink="http://www.w3.org/1999/xlink"><clipPath id="a"><path d="m0 0h250v250h-250z"/></clipPath><g clip-path="url(#a)"><path d="m246.26 155.238c-16.697 66.965-84.529 107.719-151.5094 91.02-66.9523-16.695-107.7105-84.524-91.00661-151.4833 16.68921-66.9723 84.52151-107.7289 151.48101-91.03427 66.976 16.69467 107.731 84.53087 91.033 151.49857l.001-.001z" fill="#fff"/><g fill="#23292f"><path d="m178.917 61.1982h22.043l-45.874 45.4208c-16.613 16.44-43.547 16.44-60.172 0l-45.8918-45.4208h22.0612l34.8526 34.5037c5.078 5.0051 11.921 7.8101 19.051 7.8101 7.129 0 13.973-2.805 19.051-7.8101z"/><path d="m70.8004 187.5h-22.0582l46.1717-45.701c16.6131-16.44 43.5471-16.44 60.1721 0l46.172 45.701h-22.043l-35.15-34.784c-5.078-5.004-11.922-7.81-19.052-7.81-7.129 0-13.973 2.806-19.051 7.81z"/></g></g></svg>