<svg fill="none" height="250" viewBox="0 0 250 250" width="250" xmlns="http://www.w3.org/2000/svg" xmlns:xlink="http://www.w3.org/1999/xlink"><clipPath id="a"><path d="m0 0h250v250h-250z"/></clipPath><g clip-path="url(#a)"><circle cx="125" cy="125" fill="#fff" r="125"/><path d="m174.359 111.375 13.141-13.9263-62.5-66.1987-62.5 66.2364 13.141 13.9266-13.141 13.927 12.8205 13.587-12.8205 13.587 62.5 66.236 62.5-66.236-13.141-13.587 12.82-13.587zm-103.7393-13.8886 54.3803-57.2917 54.06 57.2917-8.761 9.2846-45.299-48.0452-45.6197 48.0072zm54.3803 57.5936-28.1339-29.816 28.1339-29.8156 28.134 29.8156zm32.158-25.815 8.761 9.284-40.919 44.045-41.2749-43.705 8.7607-9.285 32.4782 34.119zm-32.158-43.0633-32.4786 34.4203-8.7963-9.247 41.2749-43.7044 41.239 43.7044-9.045 9.285zm-54.3803 38.7603 8.7606-9.284 8.7607 9.284-8.7607 9.285zm108.4043 27.476-54.024 57.631-54.3803-57.631 8.7606-9.284 45.2987 48.007 45.3-48.007zm-17.486-27.476 8.761-9.284 8.761 9.284-8.761 9.285z" fill="#000"/></g></svg>