<svg width="250" height="250" viewBox="0 0 250 250" fill="none" xmlns="http://www.w3.org/2000/svg">
<g clip-path="url(#clip0_37_33971)">
<circle cx="125" cy="125" r="125" fill="white"/>
<path d="M174.359 111.375L187.5 97.4487L125 31.25L62.5 97.4864L75.641 111.413L62.5 125.34L75.3205 138.927L62.5 152.514L125 218.75L187.5 152.514L174.359 138.927L187.179 125.34L174.359 111.375ZM70.6197 97.4864L125 40.1947L179.06 97.4864L170.299 106.771L125 58.7258L79.3803 106.733L70.6197 97.4864ZM125 155.08L96.8661 125.264L125 95.4484L153.134 125.264L125 155.08ZM157.158 129.265L165.919 138.549L125 182.594L83.7251 138.889L92.4858 129.604L124.964 163.723L157.158 129.265ZM125 86.2017L92.5214 120.622L83.7251 111.375L125 67.6706L166.239 111.375L157.194 120.66L125 86.2017ZM70.6197 124.962L79.3803 115.678L88.141 124.962L79.3803 134.247L70.6197 124.962ZM179.024 152.438L125 210.069L70.6197 152.438L79.3803 143.154L124.679 191.161L169.979 143.154L179.024 152.438ZM161.538 124.962L170.299 115.678L179.06 124.962L170.299 134.247L161.538 124.962Z" fill="black"/>
</g>
<defs>
<clipPath id="clip0_37_33971">
<rect width="250" height="250" fill="white"/>
</clipPath>
</defs>
</svg>
