<svg fill="none" height="250" viewBox="0 0 250 250" width="250" xmlns="http://www.w3.org/2000/svg" xmlns:xlink="http://www.w3.org/1999/xlink"><clipPath id="a"><path d="m0 0h250v250h-250z"/></clipPath><g clip-path="url(#a)"><path clip-rule="evenodd" d="m125 0c69.025 0 125 55.975 125 125s-55.975 125-125 125-125-55.975-125-125 55.975-125 125-125z" fill="#006ae3" fill-rule="evenodd"/><g fill="#fff"><path d="m119.85 177.703v-103.9999h11.325v103.9999z"/><path d="m177.5 108.349-34.975 9.275-7.8-36.2999 10.4-2.35 4.1 17.2s9.45-15.5-3.15-31.55c-7.425-8.25-10.95-8.6-19.275-9.9-7.325-1.05-24.35 1.425-29.4251 21.3-2.15 12.8.275 22.275 16.7751 34.6749l-.925 13.8s-18.4251-12.975-23.1751-22.075c-3.675-7.1999-9.975-21.4249 1.4-41.2249 6.125-9.9 18.2001-19.4 39.4751-18.4 10.7.45 36.825 13.525 32.775 44.075-.7 5.725-3.675 13.3499-3.675 13.3499l14.35-3.1999z"/><path d="m157.525 189.726c-6.4 9.725-18.725 18.9-39.95 17.35-10.7-.725-36.45-14.5-31.6-44.925.85-5.7 4.025-13.225 4.025-13.225l-14.425 2.8-2.825-11.374 35.225-8.35 6.85 36.499-10.475 2.075-3.65-17.325s-9.85 15.225 2.3 31.625c7.2 8.45 10.7 8.875 19.025 10.4 7.275 1.25 24.375-.8 29.975-20.525 2.475-12.725.3-22.275-15.85-35.124l1.3-13.775s18.075 13.45 22.575 22.674c3.45 7.325 9.375 21.725-2.5 41.2z"/></g></g></svg>