<svg fill="none" height="250" viewBox="0 0 250 250" width="250" xmlns="http://www.w3.org/2000/svg" xmlns:xlink="http://www.w3.org/1999/xlink"><clipPath id="a"><path d="m0 0h250v250h-250z"/></clipPath><g clip-path="url(#a)"><path d="m246.072 155.421c-16.695 66.965-84.519 107.719-151.4922 91.02-66.9448-16.695-107.6984-84.524-90.99639-151.4831 16.68729-66.9723 84.51189-107.7289 151.46359-91.03425 66.968 16.69465 107.72 84.53085 91.023 151.49935l.001-.002z" fill="#f7931a"/><path d="m180.12 107.191c2.488-16.6348-10.176-25.5766-27.494-31.5417l5.618-22.5332-13.717-3.4179-5.469 21.94c-3.606-.8994-7.309-1.7468-10.99-2.587l5.509-22.0847-13.708-3.4179-5.621 22.5259c-2.984-.6794-5.915-1.3509-8.759-2.0584l.016-.0709-18.9155-4.7235-3.6489 14.6502s10.1767 2.3328 9.9622 2.4764c5.5545 1.3863 6.559 5.0632 6.3922 7.9777l-6.3995 25.671c.3825.097.8786.237 1.426.457-.4576-.113-.9446-.237-1.4498-.358l-8.97 35.961c-.6788 1.687-2.4018 4.22-6.2852 3.258.1375.199-9.9695-2.488-9.9695-2.488l-6.8101 15.701 17.85 4.45c3.3208.833 6.5749 1.704 9.7795 2.523l-5.6761 22.792 13.7008 3.418 5.6209-22.55c3.743 1.016 7.375 1.954 10.931 2.837l-5.602 22.444 13.718 3.417 5.675-22.749c23.39 4.427 40.977 2.642 48.38-18.514 5.965-17.033-.297-26.858-12.602-33.264 8.962-2.067 15.713-7.962 17.513-20.139l-.004-.003zm-31.339 43.946c-4.239 17.033-32.918 7.825-42.216 5.517l7.532-30.195c9.298 2.321 39.114 6.914 34.684 24.678zm4.242-44.193c-3.867 15.494-27.737 7.622-35.48 5.692l6.829-27.385c7.743 1.9301 32.679 5.5325 28.652 21.693z" fill="#fff"/></g></svg>