<svg width="250" height="250" viewBox="0 0 250 250" fill="none" xmlns="http://www.w3.org/2000/svg">
<g clip-path="url(#clip0_9_616)">
<path d="M246.072 155.421C229.377 222.386 161.553 263.14 94.5798 246.441C27.635 229.746 -13.1186 161.917 3.58341 94.9579C20.2707 27.9856 88.0953 -12.771 155.047 3.92365C222.015 20.6183 262.767 88.4545 246.07 155.423L246.071 155.421H246.072Z" fill="#F7931A"/>
<path d="M180.12 107.191C182.608 90.5562 169.944 81.6144 152.626 75.6493L158.244 53.1161L144.527 49.6982L139.058 71.6382C135.452 70.7388 131.749 69.8914 128.068 69.0512L133.577 46.9665L119.869 43.5486L114.248 66.0745C111.264 65.3951 108.333 64.7236 105.489 64.0161L105.505 63.9452L86.5895 59.2217L82.9406 73.8719C82.9406 73.8719 93.1173 76.2047 92.9028 76.3483C98.4573 77.7346 99.4618 81.4115 99.295 84.326L92.8955 109.997C93.278 110.094 93.7741 110.234 94.3215 110.454C93.8639 110.341 93.3769 110.217 92.8717 110.096L83.9017 146.057C83.2229 147.744 81.4999 150.277 77.6165 149.315C77.754 149.514 67.647 146.827 67.647 146.827L60.8369 162.528L78.6869 166.978C82.0077 167.811 85.2618 168.682 88.4664 169.501L82.7903 192.293L96.4911 195.711L102.112 173.161C105.855 174.177 109.487 175.115 113.043 175.998L107.441 198.442L121.159 201.859L126.834 179.11C150.224 183.537 167.811 181.752 175.214 160.596C181.179 143.563 174.917 133.738 162.612 127.332C171.574 125.265 178.325 119.37 180.125 107.193L180.121 107.19L180.12 107.191ZM148.781 151.137C144.542 168.17 115.863 158.962 106.565 156.654L114.097 126.459C123.395 128.78 153.211 133.373 148.781 151.137H148.781ZM153.023 106.944C149.156 122.438 125.286 114.566 117.543 112.636L124.372 85.251C132.115 87.1811 157.051 90.7835 153.024 106.944H153.023Z" fill="white"/>
</g>
<defs>
<clipPath id="clip0_9_616">
<rect width="250" height="250" fill="white"/>
</clipPath>
</defs>
</svg>
