<svg fill="none" height="250" viewBox="0 0 250 250" width="250" xmlns="http://www.w3.org/2000/svg"><rect fill="#fff" height="250" rx="125" width="250"/><path d="m48.5222 118.09c.4982 2.26.7829 4.554 1.2812 6.849.3203 1.377.7473 1.059 1.4591.459 1.388-1.13 2.7048-2.365 4.2351-3.283.4271.071.6762.424.8897.741 4.0572 5.261 9.4311 8.473 15.8015 10.203 2.9183.812 5.9434 1.342 8.9684 1.66-.9609-1.059-1.7438-2.224-2.3488-3.531-1.0321-2.259-.6762-4.272 1.0676-6.072 2.0998-2.189 4.8401-3.107 7.6517-3.813 5.8721-1.518 11.8511-1.659 17.8653-1.236 4.84.318 9.609 1.13 14.307 2.436 3.915 1.095 7.723 2.366 11.175 4.555.498.388.819.918 1.281 1.306 4.449 4.731 7.047 10.309 7.225 16.77.107 4.448-1.139 8.72-3.381 12.639-4.057 7.061-10.001 12.215-17.083 16.134-7.189 3.99-15.125 6.461-23.3462 7.308-14.6627 1.589-28.2933-1.588-40.785-9.32-10.392-6.426-18.3995-15.217-24.9123-25.384-3.025-4.837-5.6942-9.886-8.0075-15.111-.2847-.635-.3559-1.342-.6406-1.871.178.635.5338 1.306-.1423 1.977-.2136-2.648.0355-5.26.1779-7.873.3559-7.238 1.4947-14.404 3.381-21.359 8.5769-31.4571 31.5674-57.0531 62.1027-69.1274 9.182-3.6364 18.8263-5.8959 28.6493-6.7785 15.517-1.4122 30.535.6001 45.198 5.7547-2.242 4.2012-14.948 15.4282-24.841 21.9596-.285-2.8244-.926-5.6135-1.922-8.2967-.036-.7061.605-.9179.996-1.2709 2.065-1.7653 4.129-3.4952 6.193-5.2252.213-.1765.427-.353.605-.5295.249-.2472.64-.459.534-.8473-.071-.3884-.534-.3884-.89-.459-.961-.2118-1.922-.3178-2.918-.3531-1.353-.1412-2.705-.4589-4.057-.4942-1.068-.0706-2.1-.3178-3.132-.2472-.534 0-1.068-.0353-1.602-.1059-.89-.2824-1.815-.1412-2.705-.1412-.533 0-1.067-.0353-1.637 0-1.566.0706-3.096-.1765-4.662.1059-.391.0706-.747.1059-1.139.1059-.462 0-.889.0353-1.352 0-.569-.0706-1.174 0-1.744.1766-1.637.1412-3.274.2824-4.876.5648-1.957.4237-3.95.4943-5.872.9886-1.779.4589-3.594.7061-5.338 1.3063-2.3134.6354-4.6266 1.3415-6.9043 2.1182-3.3098 1.3063-6.6908 2.5067-9.8582 4.2013-7.1534 3.4599-13.8441 7.8377-19.823 13.0275-5.5519 4.7662-10.5344 10.1325-14.8406 16.0284-2.1354 2.9657-4.1284 6.0372-5.8722 9.2499-1.1389 2.083-2.2065 4.2013-3.203 6.3549-.7118 1.6593-1.5659 3.2834-2.1354 5.0133-.7117 1.7299-1.2812 3.4952-1.8506 5.2962-.6762 1.8-1.0677 3.671-1.5659 5.472-.2135.706-.3559 1.447-.5338 2.189-.2136.882-.3559 1.765-.5339 2.648-.2847 1.482-.5338 3-.7473 4.519-.2848 1.553-.4627 3.106-.5695 4.695-.2491 1.024-.0711 2.118-.2491 3.178-.2847 1.306-.1068 2.647-.1779 3.954-.0356.918-.0712 1.836-.0356 2.753 0 .389-.178.918.2135 1.095.4627.212.783-.283 1.1389-.53 1.1388-.918 2.2421-1.871 3.3453-2.824 3.7369-3.177 7.5093-6.32 11.2461-9.497.3203-.212.6762-.918 1.2457-.212z" fill="#4189c9"/><path d="m130.839 127.34c-4.413-2.613-9.217-4.095-14.164-5.26-6.477-1.519-13.168-2.154-19.823-1.801-4.6977.247-9.3599.883-13.7018 2.93-.5338.247-1.032.53-1.4947.848-3.5233 2.33-4.0571 5.437-1.4947 8.791.5338.706 1.1032 1.341 1.815 2.188-2.2777 0-4.3063-.423-6.2992-.812-5.374-1.059-10.4276-2.895-14.7695-6.354-2.0997-1.66-3.9859-3.496-5.3739-5.826.5694-.918 1.5303-1.341 2.4201-1.871 1.7082-.706 3.2741-1.73 4.9824-2.507 7.5805-3.459 15.6947-5.578 23.987-6.354 3.3098-.318 6.6195-.636 9.9649-.495 9.8224.389 19.5744 2.083 28.9334 5.014 2.42.741 4.805 1.588 7.332 2.4 0-.706-.392-1.129-.676-1.588-.997-1.695-2.171-3.319-3.453-4.837-.462-.565-1.138-1.024-1.103-1.871 1.317.317 2.669.6 3.986.918.356.07.783.282.997 0 .32-.389-.143-.706-.356-.989-1.958-2.895-4.378-5.366-7.011-7.661 1.388-.812 2.811-.141 4.164.035 13.844 1.766 26.442 6.638 37.439 15.181 14.556 11.333 23.952 25.949 27.938 43.955 1.281 6.002 1.672 12.18 1.21 18.288-.783 10.627-4.164 20.441-10.499 29.162-.427.565-.997 1.024-1.281 1.694-1.424 2.119-3.559 3.566-5.481 5.12-10.499 8.473-22.777 12.886-35.981 14.934-10.285 1.624-20.748 1.8-31.069.529-16.2638-1.977-31.8162-7.802-45.34-16.982-3.3098-2.224-6.5484-4.519-9.4311-7.272-.1068-.071-.1068-.212-.0356-.318l.0356-.035c.605-.248.9965.211 1.4235.494 6.9043 5.154 14.7695 8.932 23.1329 11.156 2.8115.706 5.623 1.271 8.5057 1.695.6406.247 1.3524.106 1.993.247.1424 0 .2847.035.3915.071 6.4772.776 12.9545.317 19.3605-.812 14.058-2.472 26.585-8.297 37.262-17.723 7.295-6.391 13.061-13.946 16.121-23.266 3.061-9.321 2.634-18.394-1.672-27.362-.89 4.025-2.99 7.344-5.659 10.38-2.669 2.966-5.801 5.508-9.289 7.485-.391.247-.854.67-1.316.317-.392-.317-.178-.847-.036-1.235.854-2.789 1.423-5.649 1.744-8.544 1.245-12.18-3.488-21.677-13.275-28.844-1.637-1.201-3.31-2.26-5.054-3.213z" fill="#262f71"/><path d="m90.268 220.086c-3.5945-.353-7.1534-1.095-10.6411-2.154-6.5484-1.977-12.7409-4.836-18.4707-8.579-1.3524-.882-2.5268-2.083-3.986-2.789-.8541-.106-1.21-.953-1.8862-1.306-14.3779-12.675-24.2005-28.244-29.8235-46.426-2.7404-8.826-4.2351-18.006-4.3775-27.255.0356-.707.0712-1.377.1424-2.472.7117 1.554 1.2456 2.754 1.815 3.99 5.1604 11.262 11.78 21.5 20.8907 30.044 9.6802 9.074 20.9619 15.146 34.2366 17.264 15.5524 2.507 30.1083-.176 43.4893-8.508 6.691-4.166 12.136-9.497 15.304-16.805 3.808-8.862 2.384-17.088-3.452-24.678-.499-.671-1.068-1.307-1.566-1.942.676-.6 1.067.106 1.459.423 3.452 2.86 6.192 6.461 8.043 10.557 1.779 3.918 2.74 8.12 2.776 12.427.071 4.378-.925 8.72-2.847 12.674.427 0 .818-.141 1.139-.423 1.85-1.059 3.594-2.295 5.231-3.672.498-.424.961-1.094 1.78-.989-.427 3.319-1.175 6.602-2.171 9.815 2.135-1.2 4.199-2.542 6.157-4.06 1.53-1.2 2.776-2.683 4.306-3.919.64.283.64.918.783 1.448 2.455 8.826.676 17.052-3.701 24.819-5.339 9.427-13.168 16.452-22.279 22.136-7.367 4.59-15.446 7.873-23.952 9.709-5.338 1.201-10.8186 1.518-16.2637.953-.7118-.388-1.4591.036-2.1353-.282z" fill="#161f42"/><path d="m224.795 154.631c-.463-10.098-2.99-19.983-7.403-29.092-2.883-5.931-6.513-11.474-10.819-16.487-3.879-4.554-8.328-8.438-13.025-12.1448.427-.4236.996-.353 1.494-.2824 6.549.7414 12.955 2.2595 19.147 4.5192 1.53.565 3.025 1.235 4.449 2.047.498.248.996.53 1.495.848.106.07.177.247.355.212-.106-.142-.142-.318-.071-.495-4.199-5.4366-9.324-9.9909-14.662-14.2981-6.371-5.1192-13.311-9.497-20.713-13.0275-10.25-5.0133-21.247-8.2967-32.6-9.6736-.996-.1412-2.064 0-3.025-.353-.071-.6708.498-.8826.89-1.2004 6.655-5.5075 11.993-12.0036 15.766-19.7354 1.139-2.3301 2.1-4.7662 2.883-7.2375.213-.7061.355-1.4828 1.067-1.9065 11.923 5.6841 22.599 13.5924 31.496 23.3013 23.632 25.7725 32.529 61.6067 23.703 95.3227-.249.106-.285-.141-.427-.317z" fill="#4189c9"/><g fill="#161f42"><path d="m184.472 210.518c0-1.024.819-1.624 1.352-2.365 4.876-6.885 7.83-14.51 9.36-22.772.961-5.119 1.032-10.273.712-15.393-.534-7.873-2.562-15.463-5.765-22.736-2.349-5.331-5.303-10.38-8.791-15.04-3.737-4.907-8.078-9.391-12.883-13.275-7.402-6.072-15.944-10.626-25.126-13.451-4.875-1.553-9.929-2.577-15.018-3.071-.926-.071-1.815-.318-2.776-.247-3.239-2.3658-6.549-4.6606-10.25-6.3199l.036-.3531c1.316 0 2.669.0353 3.986 0 18.648-.3177 35.873 4.2013 50.892 15.464 15.552 11.685 25.304 27.114 28.934 46.178 3.096 16.241.711 31.598-8.399 45.685-1.78 2.86-3.737 5.507-6.264 7.696z"/><path d="m170.094 36.324c-1.851 5.6841-4.2 11.1211-7.581 16.0991-3.381 5.0133-7.509 9.497-12.242 13.3099-.285.2118-.534.459-.783.7061-1.637.812-2.99 2.083-4.484 3.0715-5.517 3.6011-11.424 6.6373-17.581 9.0028-.143.0353-.321.0706-.463.1059-.285-.3884.036-.5296.214-.7061 3.487-3.3187 5.658-7.3787 7.117-11.8978.143-.6001.57-1.0944 1.139-1.2709 10.855-4.2719 19.538-11.3329 26.621-20.4416.64-.812 1.281-1.6593 2.064-2.7184-2.207-.0353-3.879 1.0591-5.73 1.3415-.356.0354-.819.3178-.89-.353 6.727-7.8024 11.816-16.911 14.877-26.6905.177-.6355-.001-1.4828.889-1.8005.071.0353.107.1059.071.1765 0 .0706-.035.1059-.035.1059-.107 6.9904-1.103 13.9454-2.954 20.6887-.107.3883-.178.812-.249 1.2709z"/><path d="m127.885 109.97c2.207 2.401 4.129 5.084 5.73 7.944.143.282.534.6.178.918-.285.247-.569-.071-.854-.177-7.225-2.683-14.663-4.696-22.279-6.002-3.843-.671-7.723-.953-11.6017-1.235-3.4877-.212-7.0111-.177-10.4988.141-7.9719.635-15.7303 2.33-23.1328 5.507-2.2777.989-4.591 1.871-6.7263 3.178-.2491.141-.5339.388-.8186.035 6.4061-4.484 13.5238-7.873 21.0687-10.027 10.392-3.071 20.9619-3.812 31.7455-3 5.481.423 10.926 1.271 16.264 2.471.356.035.641.141.925.247z"/></g><path d="m125.216 35.7592h1.602c.854.353 1.815-.106 2.669.2471h1.601c.143.7767-.498 1.0944-.925 1.4475-7.402 6.2136-14.734 12.4626-22.136 18.641-2.456 2.0476-4.876 4.0953-7.296 6.143-.391.2472-.676.6002-.8541.9886-3.203 1.2003-6.1925 2.6831-8.5413 5.2604-1.1033 1.2357-1.8507 2.6478-2.6336 4.06-2.2065 1.4122-4.0572 3.2834-6.0501 4.9427-5.2672 4.3778-10.4632 8.8616-15.7304 13.2041-.427.353-.7473.8826-1.2456 1.165-.8897-1.3416-.7118-2.8244-.4982-4.2719.6762-1.0944 1.7082-1.7652 2.6335-2.5772 5.1249-4.3072 10.2141-8.6144 15.3033-12.9216 4.9825-4.2013 9.9293-8.4026 14.9118-12.5686 5.7297-4.8014 11.4237-9.6382 17.1537-14.475 3.168-2.6831 6.335-5.4016 9.574-8.0142.498-.3177.818-.6355.462-1.2709z" fill="#5c94ce"/><path d="m218.887 103.58c-6.264-3.001-12.919-4.8722-19.752-5.9667-1.851-.2824-3.666-.6708-5.516-.6708-2.385-1.4828-4.734-3.0715-7.189-4.4837-7.937-4.5543-16.62-7.6612-25.696-9.1087-.213-.0706-.391-.1412-.569-.2118 2.705-.4943 11.994.8826 18.4 2.6479 5.978 1.624 11.744 3.8482 17.26 6.7079-.569-1.7299-1.637-2.8597-2.278-4.2366-.071-.353-.569-.6708-.249-1.0591.321-.3884.748.0353 1.068.1765.925.4237 1.815.9179 2.74 1.3416 7.759 3.9894 15.09 8.7909 21.852 14.2985.356.459.356.459-.071.565z" fill="#161f42"/><path d="m125.216 35.7592c.178.3883.677.1059.926.5295-1.495 1.271-2.99 2.5773-4.485 3.8483-2.74 2.2948-5.48 4.5896-8.221 6.8844-3.879 3.2481-7.758 6.5314-11.673 9.7795-2.7046 2.2595-5.3381 4.5896-8.0429 6.8844-3.2742 2.7538-6.584 5.4723-9.8226 8.2261-2.598 2.1889-5.1604 4.4131-7.7584 6.602-2.7403 2.2948-5.4807 4.5896-8.221 6.8844l-2.7404 2.2948.783-3.4598c-.4271-1.1298.4982-1.6241 1.1033-2.1536 2.4912-2.0477 4.9468-4.166 7.4025-6.249 5.7654-4.8368 11.4952-9.7088 17.2606-14.5456 4.9469-4.166 9.8939-8.332 14.8409-12.4979 4.591-3.8836 9.217-7.7318 13.773-11.686.356-.3177 1.032-.6707.035-1.0591 1.602-.5649 3.239-.1412 4.84-.2824z" fill="#6497d0"/><path d="m120.412 36.0416c.356.0706.783-.1412 1.174.1765-.925 1.3769-2.313 2.2595-3.559 3.3187-3.487 3.0362-7.046 6.0018-10.57 8.9674-3.238 2.7185-6.512 5.4017-9.7511 8.1201-3.2386 2.7185-6.4771 5.5429-9.7513 8.2967s-6.5128 5.4016-9.7514 8.1201-6.4772 5.5076-9.7514 8.2967c-.9609.8473-2.2777 1.4122-2.5268 2.8597-1.7083.2118-2.6336 1.624-3.8792 2.5419-1.993 1.4122-3.5233 3.354-5.3383 4.9427-1.8507 1.3063-3.4878 2.8597-5.196 4.3072-5.1248 4.3067-10.2141 8.6497-15.3389 12.9217-.7118.6-1.3524 1.306-2.1353 1.8-.3559.212-.6762.636-1.1745.283-.0355-.918.1424-1.836.5339-2.648 2.5624-1.624 4.6977-3.778 7.011-5.684 6.3704-5.2958 12.6697-10.6622 19.0045-15.9932 6.3349-5.331 12.5629-10.6268 18.8622-15.9225 6.1569-5.1898 12.3138-10.3796 18.4706-15.5695 6.299-5.2957 12.599-10.5914 18.862-15.9225 1.246-1.0591 2.563-2.0476 3.737-3.1774z" fill="#689ad1"/><path d="m134.291 36.2887c1.459-.0353 2.847.3531 4.271.5296.391.8473-.356 1.1651-.783 1.5534-1.78 1.5534-3.63 3.0009-5.374 4.5897-.178-.2472-.392-.4943-.57-.7415-.391-.5648-.676-.4236-.925.106-2.1 4.4837-5.694 7.5905-9.645 10.3443-4.413 3.0715-9.182 5.6488-14.2 7.6965-.284-.4943-.284-.5296.178-.9886.961-.9885 2.065-1.8005 3.097-2.6831 7.58-6.3902 15.16-12.7451 22.705-19.2059.427-.3531.819-.7767 1.246-1.2004z" fill="#4e8fcc"/><path d="m134.292 36.2887c-.036.4237-.285.8473-.641 1.0945-4.875 4.0953-9.751 8.226-14.627 12.3214-3.736 3.1421-7.438 6.3196-11.175 9.497-.32.2824-.96.4943-.783 1.1651-2.348 1.0944-4.768 2.0829-7.2241 2.895-.8186-.2119-.1424-.5296 0-.6708 1.4591-1.271 2.9181-2.542 4.4131-3.7777 2.705-2.2948 5.445-4.5896 8.185-6.8844 2.705-2.2595 5.41-4.519 8.079-6.7785 2.669-2.2596 5.374-4.5544 8.043-6.8492.854-.7414 1.922-1.3063 2.491-2.3301 1.104-.0706 2.171.2824 3.239.3177z" fill="#5591cd"/><path d="m115.359 68.1337c2.811-1.3769 5.765-2.5419 8.221-4.5543.498-.0353.462.2824.32.6002-2.278 9.3205-9.395 15.4635-19.04 16.3461-1.851.1766-3.701.3884-5.5875.2119.2491-.6708.8895-.6355 1.4235-.7767 2.1-.5649 4.164-1.1651 6.121-2.1536 3.63-1.8712 6.3-4.625 7.83-8.4026.107-.4943.356-.9532.712-1.271z" fill="#161f42"/><path d="m115.358 68.1337c-1.174 4.4485-4.021 7.52-7.972 9.7442-2.527 1.4122-5.338 2.083-8.1141 2.8597-.6762-1.9771.0712-3.6364 1.2451-5.1545 1.388-1.7653 3.31-2.8597 5.339-3.7777 3.096-1.4122 6.263-2.6125 9.502-3.6717z" fill="#418ac9"/><path d="m32.863 110.959c1.566-.565 2.598-1.907 3.8436-2.931 4.0216-3.283 7.972-6.637 11.9224-9.9557 2.0997-1.7653 4.1283-3.5305 6.1924-5.3311.5695-.4942 1.0677-1.0238 1.8863-1.0944-2.1354 2.6478-4.164 5.3663-5.6943 8.4382-4.0927 3.424-8.1855 6.884-12.2426 10.344-1.8862 1.589-3.808 3.142-5.6586 4.801-.2848.248-.6051.565-1.0321.212.0712-1.483.3203-3.001.7829-4.483z" fill="#6497d0"/><path d="m48.5222 118.09c-1.2456.106-1.815 1.201-2.6692 1.871-3.5233 2.825-6.9042 5.72-10.3208 8.65-1.1388.989-2.2421 1.977-3.4521 2.895-.783.6-1.1033.353-1.0677-.565 0-1.094 0-2.189 0-3.319 1.2456-1.341 2.7048-2.365 4.0928-3.53 3.9859-3.354 7.9007-6.743 11.9578-10.027.3559-.282.6406-.812 1.2457-.459z" fill="#468cca"/><path d="m65.6758 91.9292c.0356-.4589.2847-.8473.6762-1.0944 3.203-2.6832 6.406-5.3664 9.609-8.0495 2.6336-2.1889 5.2316-4.4485 7.8652-6.6727 1.3879-1.165 2.7403-2.3654 4.0927-3.5305.2491-.2118.4982-.3883.7474 0-.2848 1.2004-.6406 2.4008-.605 3.6718-1.4236 1.5534-3.1675 2.789-4.769 4.1659-4.9824 4.2366-9.9649 8.4379-14.9473 12.6392-.2136.1765-.3559.3883-.5339.6002-.9609-.1766-1.7794-.812-2.1353-1.73z" fill="#5591cd"/><path d="m32.0449 115.478c1.1388-.353 1.815-1.342 2.7047-2.048 4.6978-3.848 9.2887-7.767 13.9509-11.686.7474-.6 1.2456-1.518 2.3489-1.624-.8542 2.083-1.5659 4.201-2.1354 6.355-.8185-.071-1.2456.565-1.7794 1.024-4.8401 4.13-9.7158 8.19-14.5559 12.286-.2847.247-.5694.6-1.0321.459-.0712-1.624.1068-3.213.4983-4.766z" fill="#5c94ce"/><path d="m67.8117 93.6592c-.3203-.6002.2135-.7767.5338-1.0239 4.0927-3.4598 8.1855-6.9197 12.2782-10.3443 2.3133-1.9418 4.6266-3.8835 6.9754-5.8253.1424-.0706.3203-.1412.4983-.1765 0 1.0944.1779 2.1536.4982 3.1774-1.3879 1.624-3.1674 2.8244-4.7689 4.2013-3.5945 3.0715-7.189 6.1077-10.8546 9.144-.2492.1765-.4627.4236-.5339.7061-1.5303.5648-3.0606.7767-4.6265.1412z" fill="#4e8fcc"/><path d="m48.2373 113.642c-1.4947.847-2.7048 2.083-4.0216 3.177-3.4877 2.825-6.9042 5.72-10.2852 8.65-.9253.812-1.7794 1.694-2.9539 2.224.1424-1.412-.2847-2.86.2492-4.237 5.2671-4.448 10.5343-8.896 15.8371-13.345.3559-.318.7473-.671 1.2812-.423z" fill="#4e8fcc"/><path d="m48.3797 109.652c-1.7083.883-2.9895 2.295-4.4486 3.495-3.4521 2.825-6.7975 5.72-10.2141 8.544-.7473.636-1.2812 1.624-2.42 1.73.1423-1.059-.2847-2.153.2847-3.177 3.3098-2.825 6.6551-5.649 10.0005-8.438 2.2421-1.907 4.5198-3.778 6.7975-5.684.7118-.6.5338.07.5694.388-.2491 1.024-.3915 2.083-.5694 3.142z" fill="#5591cd"/><path d="m72.4375 93.5532c-.4983-.353-.1424-.6001.1067-.8473 3.1319-2.6125 6.2993-5.2251 9.4311-7.8377 1.9574-1.624 3.8792-3.2833 5.8366-4.9426.2135-.2472.4627-.3884.783-.459l.7829 1.5887c-.605.9533-1.6015 1.5181-2.3133 2.4008-3.8436 4.2365-8.1854 7.8023-13.6305 9.85-.3203.1059-.6406.1765-.9965.2471z" fill="#488dca"/><path d="m132.405 42.9967c.499-1.4829 2.064-1.9418 2.99-3.001.996-1.1297 2.598-1.624 3.203-3.1774 1.174 0 2.277.3177 3.381.4943.961.1765 1.032.6002.356 1.2003-1.46 1.271-2.919 2.5773-4.378 3.813-1.388 1.165-2.776 2.3301-4.164 3.4951-.498-.9532-.961-1.9064-1.388-2.8243z" fill="#468cca"/><path d="m66.4949 103.368c.2491.6-.4627.883-.3915 1.412-.3559-1.624-1.2456-2.224-2.8827-1.906-1.7439.388-3.3098 1.271-4.4842 2.612-.3203.353-.7118.671-1.0677.989-.2847-.353 0-.671.1068-.989.7118-2.295 2.2777-3.919 4.2351-5.225.427-.3176.9253-.5294 1.4591-.6706 2.2777-.5296 3.5233.5646 3.203 2.8596.0356.318-.0356.636-.1779.918z" fill="#428ac9"/><path d="m66.4947 103.368c0-.353.0356-.706.0356-1.059.0355-2.295-1.2812-3.1776-3.4522-2.189-2.4912 1.13-4.0571 3.142-5.1604 5.578-.2491.035-.3915-.035-.3203-.318.783-2.895 2.3133-5.26 4.8401-6.9547.6406-.4236 1.3524-.6708 2.0642-.812 1.1744-.2471 2.3489.459 2.6336 1.624.3914 1.3767.1779 2.8947-.6406 4.1307z" fill="#182144"/><path d="m87.0654 83.456c-.4626-.353-.0356-.4942.178-.6707.7473-.5296 1.1744-1.4475 2.0997-1.73 1.21 1.9065 3.1319 2.7538 5.1604 3.4599.3915.1412.8186.2471 1.4948.4237-3.0963.812-5.7655.4942-8.2211-1.1651-.1779-.2118-.4271-.3178-.7118-.3178z" fill="#458cca"/><path d="m197.07 88.6812c-.996-.1059-1.708-.7767-2.598-1.0945-.355-.1412-.676-.5649-1.032-.2824-.284.2471.178.6002.072.9532-.534-.4589-.748-1.165-1.033-1.8358 1.602.6354 3.168 1.2709 4.591 2.2595z" fill="#63657d"/><path d="m218.887 103.58c.284-.177 0-.389.035-.6l1.531.847.818 1.059c-.996-.282-1.673-.847-2.384-1.306z" fill="#263154"/><path d="m157.566 82.6793c.712-.1059 1.46-.0353 2.136.1413-.854.4942-1.424.4236-2.136-.1413z" fill="#a09aa9"/><path d="m55.2842 205.223c.8185.141 1.21.953 1.8862 1.306l-.0356.318c-.7474-.353-1.388-.918-1.8506-1.624z" fill="#424a7f"/><path d="m224.795 154.631.463.282c.071.53-.178.989-.463 1.624z" fill="#8cb7de"/><path d="m157.496 42.6436c.178.3884.605.2471.889.3531l-1.423.5648c-.107-.6001.249-.7414.534-.9179z" fill="#5a5d76"/><path d="m57.633 105.38.3203.318c-.0712.247-.1779.53-.2491.777l-.5694.741c.1423-.882.1779-1.412.4982-1.836z" fill="#4f668a"/><path d="m123.899 64.1443c-.071-.2118-.035-.4943-.32-.6002.071-.2118.32-.4943.427-.3884.32.3178.178.6708-.107.9886z" fill="#555a73"/><path d="m33.9307 106.192c.3559-1.906.7473-3.813 1.6015-5.578 3.1318-2.1887 5.9077-4.8012 8.826-7.2373 5.0537-4.2366 10.1073-8.4731 15.1253-12.745 4.591-3.8836 9.182-7.7671 13.8086-11.6506 4.9824-4.2013 9.9649-8.4026 14.9473-12.6039 4.5198-3.8129 9.0752-7.6258 13.5946-11.4741 3.168-2.6831 6.406-5.331 9.503-8.0848 1.672-.3884 3.345-.6002 5.053-.5296.143-.1412.356-.1412.534-.0706.392.6355-.107.9886-.498 1.3416-4.306 3.6011-8.577 7.2375-12.883 10.8739-4.5913 3.8482-9.1467 7.6965-13.7377 11.58-4.235 3.5658-8.4345 7.1316-12.6696 10.6974-5.1248 4.3425-10.2852 8.6497-15.4456 12.9922-6.4061 5.3663-12.7765 10.8033-19.1825 16.1696-2.4912 2.0832-4.9113 4.2012-7.4381 6.2132-.2135.248-.6406 1.06-1.1388.106z" fill="#6d9cd2"/><path d="m111.337 36.8183c-.462 1.4828-1.886 2.0477-2.918 2.9656-3.381 2.9656-6.869 5.8253-10.2853 8.7203-3.8437 3.2128-7.7229 6.4255-11.5665 9.6736-3.3453 2.8243-6.6195 5.684-9.9649 8.5084-3.2386 2.7185-6.5127 5.4017-9.7513 8.1555-3.2386 2.7537-6.4417 5.5075-9.6803 8.226-3.2385 2.7185-6.4771 5.437-9.7513 8.1554-2.6692 2.2595-5.3028 4.519-7.972 6.7786-1.0676.9179-2.1709 1.8005-3.2741 2.6833-.2492.176-.4627.282-.6762 0 .3914-1.836.9965-3.6366 1.8506-5.2959 2.4556-1.5534 4.5198-3.5658 6.7263-5.4016 5.0536-4.2366 10.1073-8.4732 15.1253-12.7451 5.196-4.4131 10.4276-8.8262 15.6236-13.204 4.3062-3.6364 8.6125-7.2375 12.8832-10.8739 5.5875-4.6956 11.1393-9.4617 16.7619-14.122.428-.2824.748-.6708.926-1.0944 1.957-.7768 3.986-.7414 5.943-1.1298z" fill="#729fd4"/><path d="m105.465 37.8774c.818.2119.142.5296 0 .6708-1.495 1.3416-3.026 2.6832-4.591 3.9895-2.7052 2.2595-5.41 4.519-8.1148 6.7785-3.9503 3.2834-7.9007 6.602-11.8511 9.9207-3.2386 2.7185-6.4416 5.5076-9.6802 8.226-3.3453 2.8244-6.6907 5.6135-10.0361 8.4026-3.2386 2.7185-6.4416 5.4723-9.6802 8.226-3.2386 2.7185-6.4772 5.437-9.7158 8.1555-1.1744.9885-2.3488 1.977-3.5589 2.9656-.2491.1765-.4982.6355-.8541.1412.3559-1.8006 1.3168-3.3893 2.1354-5.0133 4.3774-3.707 8.7904-7.414 13.2035-11.1563 4.5198-3.8483 9.0751-7.6612 13.5949-11.4741 4.3419-3.6717 8.6482-7.3081 12.99-10.9445 4.5554-3.8483 9.1464-7.7318 13.7018-11.58 2.3488-1.9771 4.6621-4.0601 7.1176-6.0019 1.673-.7767 3.523-.9885 5.339-1.3063z" fill="#78a2d5"/><path d="m100.127 39.1837c-1.7087 2.1889-3.9864 3.707-6.0506 5.5076-2.7047 2.3301-5.4451 4.6249-8.1854 6.9197-2.6692 2.2243-5.3384 4.4485-8.0075 6.708-2.6692 2.2595-5.3028 4.519-7.972 6.7432-2.6691 2.2595-5.4095 4.519-8.1143 6.7785-2.6335 2.2243-5.2315 4.4485-7.8651 6.6727-3.3454 2.8244-6.6907 5.6134-10.0361 8.4025-1.1744.9886-2.3845 1.9771-3.5589 2.9656-.2135.2119-.4982.3531-.8185.3884.8541-2.2242 1.9218-4.3425 3.203-6.3549 6.0857-4.9074 12.029-10.0266 18.008-15.0752 6.9398-5.8606 13.8797-11.6506 20.7839-17.5465 3.8792-3.3187 7.9364-6.4961 11.7088-9.9913 2.2065-.8826 4.5198-1.5887 6.9047-2.1183z" fill="#7da5d6"/><path d="m93.1859 41.3373c.2847.459-.2136.6002-.4271.812-2.9539 2.5773-5.9434 5.1192-8.9328 7.6612-2.6336 2.2242-5.2672 4.4131-7.9008 6.6373-3.2742 2.7538-6.5484 5.5076-9.8225 8.2261-2.6692 2.2595-5.3028 4.519-7.972 6.7432-3.3453 2.8244-6.6907 5.6135-10.0005 8.4025-1.3879 1.1651-2.7759 2.3655-4.1283 3.5305-.3559.3531-.8185.5649-1.2812.6355 1.6371-3.2833 3.6301-6.3902 5.8722-9.2499 2.0641-1.5181 3.9504-3.248 5.9078-4.872 5.0892-4.2719 10.1428-8.5438 15.1964-12.8157 3.9148-3.3187 7.8296-6.6373 11.7444-9.9207.605-.4942 1.3524-.8473 1.815-1.5181 3.1319-1.9418 6.5484-3.0715 9.9294-4.2719z" fill="#81a7d8"/><path d="m149.488 159.432c-2.669 2.189-5.338 4.413-8.897 5.931 1.032-2.047 1.815-4.201 2.349-6.425 2.099-9.179.142-17.547-5.303-25.137-1.353-1.871-3.168-3.319-4.769-4.978-.249-.283-.534-.6-.997-.389-.498-.247-.711-.706-1.067-1.059.213-.282.462-.141.711 0 6.442 3.637 11.816 8.332 15.126 15.076 1.601 3.318 2.598 6.919 2.918 10.591.214 2.118.178 4.272-.071 6.39z" fill="#0e1f66"/><path d="m33.9303 106.192c1.0677.389 1.4236-.67 1.9574-1.094 5.4095-4.448 10.7479-8.9675 16.0862-13.5218 5.0537-4.2719 10.0361-8.5791 15.0898-12.851 5.623-4.7309 11.2816-9.4264 16.9403-14.1573 5.0536-4.2719 10.0717-8.5791 15.1253-12.8509 5.4447-4.5897 10.8907-9.2146 16.3707-13.8396.57-.4589 1.353-.7061 1.459-1.5887.321-.2824.748.0353 1.068-.2471h1.352c-.391 1.4122-1.779 1.9064-2.74 2.7538-2.776 2.4713-5.659 4.8014-8.47 7.1669-3.239 2.7184-6.513 5.4369-9.7515 8.1554-2.6336 2.2242-5.2315 4.4484-7.8651 6.6726-3.8792 3.2481-7.794 6.4961-11.6376 9.7795-2.6336 2.2242-5.2316 4.4484-7.8652 6.6726-3.3454 2.8244-6.6907 5.6135-10.0361 8.4025-2.6336 2.2243-5.2316 4.4485-7.8651 6.6727-2.7048 2.2595-5.4096 4.519-8.1143 6.7785-2.7048 2.2599-5.374 4.5899-8.0787 6.8489-.9253.777-1.9218 1.554-2.8827 2.33-.2136.177-.4271.318-.6762 0 0-.67.1779-1.412.5338-2.083z" fill="#699ad1"/><path d="m83.293 45.5386c-.2135 1.271-1.4591 1.5887-2.2421 2.2948-2.7404 2.4361-5.5519 4.7309-8.3634 7.0963-3.2742 2.7538-6.5484 5.4723-9.8226 8.226-2.6336 2.2243-5.2316 4.4485-7.8651 6.6727-1.9218 1.624-3.808 3.248-5.7299 4.872-.2135.1766-.427.3178-.6761 0 1.3879-2.1183 2.9538-4.1306 4.6621-6.0371 6.2637-7.2375 13.4171-13.5218 21.6025-18.5704 2.7404-1.6593 5.4451-3.3892 8.4346-4.5543z" fill="#88abd9"/><path d="m129.487 36.0416c-.89-.1059-1.815.2824-2.67-.2471.89.1059 1.815-.2825 2.67.2471z" fill="#5591cd"/><path d="m117.992 36.0416c-.285.3884-.712.2118-1.068.2471h-.533c.498-.4589 1.067-.1765 1.601-.2471z" fill="#689ad1"/><path d="m92.3682 220.333c8.7188.388 17.4028-.988 25.5528-3.989 7.936-2.86 15.339-6.991 21.923-12.251 6.441-5.19 11.993-11.121 15.695-18.571 1.993-3.989 3.238-8.296 3.63-12.709.356-3.99-.321-7.767-1.424-11.51.107-.918.961-1.341 1.459-1.977 1.922-2.506 3.31-5.19 3.915-8.296.107-.424.249-.812.427-1.201 1.21 2.401 2.171 4.908 2.847 7.485.926 3.636 1.459 7.343 1.175 11.086-.499 6.496-2.456 12.815-5.73 18.464-3.274 5.719-7.474 10.592-12.314 14.969-4.271 3.778-8.968 7.061-14.022 9.709-6.086 3.284-12.563 5.72-19.325 7.308-4.199.989-8.506 1.589-12.812 1.836-2.1.106-4.1637.283-6.2279.177-1.5303-.142-3.1674-.036-4.7689-.53z" fill="#0e1f66"/></svg>