<svg fill="none" height="250" viewBox="0 0 250 250" width="250" xmlns="http://www.w3.org/2000/svg" xmlns:xlink="http://www.w3.org/1999/xlink"><clipPath id="a"><path d="m0 0h250v250h-250z"/></clipPath><g clip-path="url(#a)"><path d="m125 250c69.036 0 125-55.964 125-125 0-69.0356-55.964-125-125-125-69.0356 0-125 55.9644-125 125 0 69.036 55.9644 125 125 125z" fill="#00adef"/><path d="m82.9998 59-13.5 13.5v53.5l13.5 13.5h53.5002v27h-26.5v-13.5h-40.5002v27l13.5 13.5h80.5002l13.5-13.5v-54l-13.5-13.5h-53.5v-27h27v13.5h40.5v-27l-13.5-13.5h-81.0002z" fill="#fff"/></g></svg>