<svg fill="none" height="250" viewBox="0 0 250 250" width="250" xmlns="http://www.w3.org/2000/svg"><path d="m218.263 103.305-35.997 16.049-95.4931 48.606 95.4931 45.913v-75.89l35.997-16.222v112.116l-35.997 16.05-140.6032-67.293v-35.767l97.3282-47.7467-97.3282-46.7724v-36.2829l36.5696-16.049375 140.0306 67.407175z" fill="#000"/><path d="m41.6628 16.0651 140.6032 67.4077 35.997-16.0495-140.0306-67.407675z" fill="#087a8e"/><path d="m182.268 83.3228 35.997-16.0494v35.8816l-35.997 16.049z" fill="#2a8e97"/><path d="m41.6628 16.0938v36.2829l97.3282 46.7724-97.3282 47.7469v35.767l140.6032 67.293v-35.997l-95.4931-45.97 95.4931-48.606v-35.882z" fill="#49c1bf"/><path d="m182.268 249.689 35.997-16.049v-112.117l-35.997 16.222z" fill="#2a8e97"/></svg>