<svg width="250" height="250" viewBox="0 0 250 250" fill="none" xmlns="http://www.w3.org/2000/svg">
<path d="M218.263 103.305L182.266 119.354L86.7729 167.96L182.266 213.873V137.983L218.263 121.761V233.877L182.266 249.927L41.6628 182.634V146.867L138.991 99.1203L41.6628 52.3479V16.065L78.2324 0.015625L218.263 67.4228V103.305Z" fill="black"/>
<path d="M41.6628 16.0651L182.266 83.4728L218.263 67.4233L78.2324 0.015625L41.6628 16.0651Z" fill="#087A8E"/>
<path d="M182.268 83.3228L218.265 67.2734V103.155L182.268 119.204V83.3228Z" fill="#2A8E97"/>
<path d="M41.6628 16.0938V52.3767L138.991 99.1491L41.6628 146.896V182.663L182.266 249.956V213.959L86.7729 167.989L182.266 119.383V83.501L41.6628 16.0938Z" fill="#49C1BF"/>
<path d="M182.268 249.689L218.265 233.64V121.523L182.268 137.745V249.689Z" fill="#2A8E97"/>
</svg>
