<svg width="250" height="250" viewBox="0 0 250 250" fill="none" xmlns="http://www.w3.org/2000/svg">
<path d="M64.8747 22.247L187.449 92.9827V165.133L0 56.9075L60.0748 22.247C60.8121 21.849 61.6369 21.6406 62.4747 21.6406C63.3126 21.6406 64.1374 21.849 64.8747 22.247Z" fill="#3CA9E5"/>
<path d="M187.449 20.8359L124.949 56.9111L187.449 92.9863V20.8359Z" fill="#2853C3"/>
<path d="M187.449 20.8359L247.575 55.4964C248.298 55.9363 248.899 56.5509 249.323 57.2836C249.747 58.0163 249.979 58.8438 250 59.69V201.161L187.449 165.137V20.8359Z" fill="#1A4199"/>
<path d="M249.949 201.209L189.875 235.87C189.107 236.313 188.235 236.547 187.348 236.547C186.461 236.547 185.59 236.313 184.822 235.87L62.2979 165.134V92.8828L249.949 201.209Z" fill="#2853C3"/>
<path d="M8.56939e-05 56.9062V198.378C-0.00499231 199.25 0.215692 200.108 0.640674 200.869C1.06566 201.631 1.68047 202.269 2.42531 202.723L62.5001 237.383V92.8804L8.56939e-05 56.9062Z" fill="#60BEFF"/>
<path d="M62.5 237.283L124.949 201.208L62.5 165.133V237.283Z" fill="#3CA9E5"/>
</svg>
