<svg fill="none" height="250" viewBox="0 0 250 250" width="250" xmlns="http://www.w3.org/2000/svg"><path d="m64.8747 22.247 122.5743 70.7357v72.1503l-187.449-108.2255 60.0748-34.6605c.7373-.398 1.5621-.6064 2.3999-.6064.8379 0 1.6627.2084 2.4.6064z" fill="#3ca9e5"/><path d="m187.449 20.8359-62.5 36.0752 62.5 36.0752z" fill="#2853c3"/><path d="m187.449 20.8359 60.126 34.6605c.723.4399 1.324 1.0545 1.748 1.7872s.656 1.5602.677 2.4064v141.471l-62.551-36.024z" fill="#1a4199"/><path d="m249.949 201.209-60.074 34.661c-.768.443-1.64.677-2.527.677s-1.758-.234-2.526-.677l-122.5241-70.736v-72.2512z" fill="#2853c3"/><path d="m.00008569 56.9062v141.4718c-.005078.872.21560631 1.73.64058831 2.491.424986.762 1.039796 1.4 1.784636 1.854l60.07479 34.66v-144.5026z" fill="#60beff"/><path d="m62.5 237.283 62.449-36.075-62.449-36.075z" fill="#3ca9e5"/></svg>