<svg fill="none" height="250" viewBox="0 0 250 250" width="250" xmlns="http://www.w3.org/2000/svg" xmlns:xlink="http://www.w3.org/1999/xlink"><clipPath id="a"><path d="m62.5 31.25h125v177.083h-125z"/></clipPath><rect fill="#fff" height="250" rx="125" width="250"/><g clip-path="url(#a)" fill="#1ba5f8"><path d="m98.2958 171.289 22.2092-27.528c.542-.674 1.227-1.218 2.004-1.592.778-.374 1.629-.567 2.491-.567s1.713.193 2.49.567c.778.374 1.463.918 2.004 1.592l22.204 27.528c.841 1.037 1.301 2.335 1.301 3.675 0 1.339-.46 2.637-1.301 3.675l-22.204 27.528c-.541.674-1.226 1.218-2.004 1.591-.777.374-1.628.568-2.49.568s-1.713-.194-2.491-.568c-.777-.373-1.462-.917-2.004-1.591l-22.2028-27.528c-.8426-1.037-1.3035-2.335-1.3046-3.674-.0012-1.339.4574-2.638 1.2982-3.676z" opacity=".62"/><path d="m132.796 103.966 22.203-27.5341c.542-.6742 1.227-1.2181 2.004-1.5917.778-.3736 1.629-.5676 2.491-.5676s1.713.194 2.49.5676c.778.3736 1.463.9175 2.004 1.5917l22.216 27.5341c.84 1.037 1.299 2.334 1.299 3.672s-.459 2.635-1.299 3.672l-22.203 27.534c-.542.674-1.226 1.218-2.004 1.592s-1.629.567-2.49.567c-.862 0-1.713-.193-2.491-.567-.777-.374-1.462-.918-2.004-1.592l-22.203-27.534c-.842-1.036-1.303-2.332-1.305-3.67-.003-1.337.454-2.635 1.292-3.674zm-68.9977 0 22.2031-27.5341c.5417-.6742 1.2264-1.2181 2.0041-1.5917s1.6286-.5676 2.4904-.5676 1.7128.194 2.4904.5676c.7777.3736 1.4625.9175 2.0042 1.5917l22.2155 27.5341c.84 1.037 1.299 2.334 1.299 3.672s-.459 2.635-1.299 3.672l-22.2027 27.534c-.5417.674-1.2264 1.218-2.0041 1.592s-1.6286.567-2.4904.567-1.7128-.193-2.4905-.567-1.4624-.918-2.0041-1.592l-22.2031-27.534c-.8419-1.036-1.3029-2.332-1.3052-3.67-.0024-1.337.4541-2.635 1.2924-3.674zm34.4989-43.0289 22.2098-27.5278c.541-.6743 1.226-1.2182 2.004-1.5918s1.628-.5675 2.49-.5675 1.713.1939 2.491.5675c.777.3736 1.462.9175 2.004 1.5918l22.203 27.5278c.842 1.0376 1.301 2.3358 1.301 3.6751s-.459 2.6374-1.301 3.6751l-22.203 27.5278c-.542.6743-1.227 1.2181-2.004 1.5917-.778.3736-1.629.5676-2.491.5676s-1.712-.194-2.49-.5676-1.463-.9174-2.004-1.5917l-22.2034-27.5278c-.8426-1.0369-1.3035-2.3347-1.3047-3.674-.0011-1.3392.4574-2.6378 1.2983-3.6762z"/></g></svg>