<svg fill="none" height="250" viewBox="0 0 250 250" width="250" xmlns="http://www.w3.org/2000/svg" xmlns:xlink="http://www.w3.org/1999/xlink"><mask id="a" height="82" maskUnits="userSpaceOnUse" width="150" x="50" y="130"><path d="m50.4199 145.238c11.0375-7.698 20.6546-12.571 28.8512-14.618 12.2949-3.071 5.1284 17.013 29.6249 19.472 24.496 2.46 48.005-17.113 64.044-15.328 10.693 1.191 19.678 6.014 26.955 14.468l-75.305 62.412z" fill="#fff"/></mask><rect fill="#fff" height="250" rx="125" width="250"/><path d="m121.563 83.1568-8.917 68.2512" stroke="#06070a" stroke-width="9.31479"/><path d="m50.4189 145.238c11.0376-7.698 20.6546-12.571 28.8512-14.618 12.2949-3.071 5.1284 17.013 29.6249 19.472 24.496 2.46 48.005-17.113 64.044-15.328 10.693 1.191 19.678 6.014 26.955 14.468l-75.305 62.412z" fill="#06070a"/><g mask="url(#a)"><path d="m112.646 147.4 11.942 64.244" stroke="#fff3d1" stroke-width="9.31479"/></g><g stroke="#06070a" stroke-width="9.31479"><path clip-rule="evenodd" d="m124.554 38.3563-42.0579 33.61-34.2891 70.6867 76.347 68.991 76.447-63.511-40.363-86.662z" fill-rule="evenodd"/><path d="m82.4932 71.9663 38.1708 11.1905 39.971-21.6858"/></g></svg>