<svg fill="none" height="250" viewBox="0 0 250 250" width="250" xmlns="http://www.w3.org/2000/svg" xmlns:xlink="http://www.w3.org/1999/xlink"><clipPath id="a"><path d="m0 0h250v250h-250z"/></clipPath><g clip-path="url(#a)"><path d="m125 250c69.036 0 125-55.964 125-125 0-69.0356-55.964-125-125-125-69.0356 0-125 55.9644-125 125 0 69.036 55.9644 125 125 125z" fill="#6747ed"/><path clip-rule="evenodd" d="m123.177 141.146c-18.49 0-33.3333-14.844-33.3333-33.333 0-18.4901 14.8433-33.3338 33.3333-33.3338s33.333 14.8437 33.333 33.3338c0 18.489-14.843 33.333-33.333 33.333zm0-83.3335c27.604 0 50 22.3958 50 50.0005 0 27.604-22.396 49.999-50 49.999-27.6042 0-50-22.395-50-49.999 0-27.6047 22.3958-50.0005 50-50.0005zm47.656 102.6045c3.386 3.385 3.386 8.593 0 11.718l-33.333 33.334c-3.385 3.385-8.594 3.385-11.719 0-3.385-3.386-3.385-8.594 0-11.719l33.334-33.333c3.125-3.386 8.593-3.386 11.718 0zm19.271-94.2712c0 4.6875-3.646 8.3334-8.333 8.3334-4.688 0-8.334-3.6459-8.334-8.3334s3.646-8.3333 8.334-8.3333c4.427 0 8.333 3.6458 8.333 8.3333z" fill="#fff" fill-rule="evenodd"/></g></svg>