<svg width="250" height="250" viewBox="0 0 250 250" fill="none" xmlns="http://www.w3.org/2000/svg">
<path d="M125 250C194.036 250 250 194.036 250 125C250 55.9644 194.036 0 125 0C55.9644 0 0 55.9644 0 125C0 194.036 55.9644 250 125 250Z" fill="#F3BA2F"/>
<path fill-rule="evenodd" clip-rule="evenodd" d="M157.422 138.292L176.277 157.094L125.02 208.297L73.8175 157.094L92.6731 138.292L125.02 170.64L157.422 138.292ZM125.02 105.891L144.147 125.018L125.02 144.144L105.948 125.072V125.018L109.307 121.658L110.933 120.033L125.02 105.891ZM60.5427 106.162L79.3983 125.018L60.5427 143.819L41.687 124.963L60.5427 106.162ZM189.498 106.162L208.354 125.018L189.498 143.819L170.642 124.963L189.498 106.162ZM125.02 41.6842L176.223 92.8871L157.368 111.743L125.02 79.3413L92.6731 111.689L73.8175 92.8871L125.02 41.6842Z" fill="#131415"/>
</svg>
