<svg fill="none" height="250" viewBox="0 0 250 250" width="250" xmlns="http://www.w3.org/2000/svg" xmlns:xlink="http://www.w3.org/1999/xlink"><filter id="a" color-interpolation-filters="sRGB" filterUnits="userSpaceOnUse" height="200.216" width="213.166" x="62.5588" y="65.4618"><feFlood flood-opacity="0" result="BackgroundImageFix"/><feBlend in="SourceGraphic" in2="BackgroundImageFix" mode="normal" result="shape"/><feGaussianBlur result="effect1_foregroundBlur_318_11814" stdDeviation="1.92"/></filter><filter id="b" color-interpolation-filters="sRGB" filterUnits="userSpaceOnUse" height="174.4" width="194.817" x="-12.4065" y="74.2303"><feFlood flood-opacity="0" result="BackgroundImageFix"/><feBlend in="SourceGraphic" in2="BackgroundImageFix" mode="normal" result="shape"/><feGaussianBlur result="effect1_foregroundBlur_318_11814" stdDeviation="1.92"/></filter><filter id="c" color-interpolation-filters="sRGB" filterUnits="userSpaceOnUse" height="204.933" width="228.536" x="11.5615" y="-55.436"><feFlood flood-opacity="0" result="BackgroundImageFix"/><feBlend in="SourceGraphic" in2="BackgroundImageFix" mode="normal" result="shape"/><feGaussianBlur result="effect1_foregroundBlur_318_11814" stdDeviation="1.92"/></filter><linearGradient id="d"><stop offset="0" stop-color="#6f56fd"/><stop offset="1" stop-color="#00cabe"/></linearGradient><linearGradient id="e" gradientUnits="userSpaceOnUse" x1="251.847" x2="73.7664" xlink:href="#d" y1="165.57" y2="175.929"/><linearGradient id="f" gradientUnits="userSpaceOnUse" x1="-13.3672" x2="-46.5216" y1="211.697" y2="152.407"><stop offset="0" stop-color="#42f4ca"/><stop offset="1" stop-color="#5d89f8"/></linearGradient><linearGradient id="g" gradientUnits="userSpaceOnUse" x1="218.752" x2="18.7393" xlink:href="#d" y1="47.0306" y2="59.2361"/><clipPath id="h"><path d="m0 0h250v250h-250z"/></clipPath><mask id="i" height="250" maskUnits="userSpaceOnUse" width="250" x="0" y="0"><path clip-rule="evenodd" d="m249.802 125c0 69.036-55.92 125-124.901 125-68.9808 0-124.901-55.964-124.901-125 0-69.0356 55.9202-125 124.901-125 68.981 0 124.901 55.9644 124.901 125zm-119.396-47.9915c0-9.5 7.652-17.2011 17.092-17.2011s17.092 7.7011 17.092 17.2016v49.52h22.348v-35.8657c0-5.4809 4.415-9.9239 9.861-9.9239s9.861 4.443 9.861 9.9239v35.8657h-19.722v39.775c0 6.212-5.004 11.248-11.176 11.248s-11.175-5.036-11.175-11.248v-39.775h-34.181v50.167c0 9.865-7.947 17.863-17.75 17.863s-17.7496-7.998-17.7496-17.863v-50.167h35.4996zm-57.8526 16.2872c0-6.2117 5.0037-11.2473 11.1755-11.2473 6.1723 0 11.176 5.0356 11.176 11.2473v33.2343h-22.3515zm-14.4625 64.6323c7.9873 0 14.4625-6.516 14.4625-14.555v-16.843h-28.9255v16.843c0 8.039 6.4752 14.555 14.463 14.555zm169.9101-20.487c0 6.068-4.888 10.987-10.918 10.987-6.029 0-10.917-4.919-10.917-10.987v-10.864h21.835zm-195.2922-32.717c-6.0291 0-10.917 4.92-10.917 10.987v10.865h21.834v-10.865c0-6.067-4.8874-10.987-10.917-10.987z" fill="#fff" fill-rule="evenodd"/></mask><g clip-path="url(#h)"><g mask="url(#i)"><g filter="url(#a)"><path d="m169.142 261.838c56.743 0 102.743-43.101 102.743-96.268 0-53.168-46-96.2682-102.743-96.2682-56.744 0-102.7432 43.1002-102.7432 96.2682 0 53.167 45.9992 96.268 102.7432 96.268z" fill="url(#e)"/></g><g filter="url(#b)"><path d="m85.0022 244.79c51.6768 0 93.5688-37.321 93.5688-83.36 0-46.038-41.892-83.3597-93.5688-83.3597-51.6765 0-93.56867 37.3217-93.56867 83.3597 0 46.039 41.89217 83.36 93.56867 83.36z" fill="url(#f)"/></g><g filter="url(#c)"><path d="m125.83 145.657c60.987 0 110.428-44.156 110.428-98.6264 0-54.46995-49.441-98.6266-110.428-98.6266-60.9881 0-110.4284 44.15665-110.4284 98.6266 0 54.4704 49.4403 98.6264 110.4284 98.6264z" fill="url(#g)"/></g></g></g></svg>