<svg fill="none" height="250" viewBox="0 0 250 250" width="250" xmlns="http://www.w3.org/2000/svg" xmlns:xlink="http://www.w3.org/1999/xlink"><clipPath id="a"><rect height="250" rx="125" width="250"/></clipPath><g clip-path="url(#a)"><path d="m0 125c0-69.0356 55.9644-125 125-125 69.036 0 125 55.9644 125 125 0 69.036-55.964 125-125 125-69.0356 0-125-55.964-125-125z" fill="#00ff24"/><g fill="#000"><path d="m152.308 102.778v48.283h-38.701-38.701v14.451 14.419l14.4506 14.451c7.9274 7.927 14.5134 14.419 14.6684 14.419.126 0 .219-6.461.219-14.357v-14.356h38.545 38.545v-48.314-48.2844l-14.513-14.5132-14.513-14.5132z"/><path d="m74.906 93.0088v19.3502h19.5064 19.5066v-19.3502-19.3506h-19.5066-19.5064z"/></g></g></svg>