<svg width="250" height="250" viewBox="0 0 250 250" fill="none" xmlns="http://www.w3.org/2000/svg">
<g clip-path="url(#clip0_31_773)">
<path d="M0 125C0 55.9644 55.9644 0 125 0C194.036 0 250 55.9644 250 125C250 194.036 194.036 250 125 250C55.9644 250 0 194.036 0 125Z" fill="#00FF24"/>
<path d="M152.308 102.778V151.061H113.607H74.906V165.512V179.931L89.3566 194.382C97.284 202.309 103.87 208.801 104.025 208.801C104.151 208.801 104.244 202.34 104.244 194.444V180.088H142.789H181.334V131.774V83.4896L166.821 68.9764L152.308 54.4632V102.778Z" fill="black"/>
<path d="M74.906 93.0088V112.359H94.4124H113.919V93.0088V73.6582H94.4124H74.906V93.0088Z" fill="black"/>
</g>
<defs>
<clipPath id="clip0_31_773">
<rect width="250" height="250" rx="125" fill="white"/>
</clipPath>
</defs>
</svg>
