<svg fill="none" height="250" viewBox="0 0 250 250" width="250" xmlns="http://www.w3.org/2000/svg" xmlns:xlink="http://www.w3.org/1999/xlink"><clipPath id="a"><path d="m-.000244 0h250v250h-250z"/></clipPath><mask id="b" height="250" maskUnits="userSpaceOnUse" width="251" x="-1" y="0"><path d="m250 0h-250.00024414v250h250.00024414z" fill="#fff"/></mask><g clip-path="url(#a)"><g mask="url(#b)"><path d="m250 125c0-69.0356-55.965-125-125-125-69.0359 0-125.00024414 55.9644-125.00024414 125 0 69.035 55.96434414 125 125.00024414 125 69.035 0 125-55.965 125-125z" fill="#000"/><path d="m234.375 125c0-60.4061-48.969-109.375-109.375-109.375-60.4064 0-109.3752 48.9689-109.3752 109.375 0 60.406 48.9688 109.375 109.3752 109.375 60.406 0 109.375-48.969 109.375-109.375z" fill="#75f2dd"/><g fill="#000"><path d="m64.6626 154.06 52.1954-27.989c.742-.398.742-1.463 0-1.861l-52.1408-27.988c2.7825-5.393 5.3226-10.5985 8.2224-15.632.383-.6571 2.7825-.7117 3.908-.2578 15.0141 5.9242 29.9354 12.075 44.9644 17.9766 2.024.7147 4.231.7147 6.254 0 15.155-5.9094 30.232-12.029 45.332-18.1641 1.814-.743 3.126-1.0789 4.15 1.0312 2.423 4.8774 4.964 9.7 7.723 15.0461l-52.157 27.988c-.742.398-.741 1.463 0 1.861l52.195 27.989c-2.782 5.354-5.345 10.566-8.268 15.561-.383.649-2.814.642-4.002.18-11.153-4.353-30.497-12.438-41.603-16.902-6.339-2.546-8.23-3.273-14.79 0-11.38 5.679-27.2694 11.955-39.0482 16.855-2.9777 1.235-4.6895.9-6.0573-2.235-2.0634-4.478-4.4863-8.77-6.8779-13.459z"/><path clip-rule="evenodd" d="m175.261 81.963c-.235.0614-.537.1712-.974.3503l-.006.0026c-15.098 6.1344-30.191 12.2601-45.363 18.1761l-.035.014-.036.012c-2.528.894-5.286.894-7.815.001l-.038-.014-.038-.015c-7.865-3.0883-15.787-6.28-23.6978-9.4669-7.1166-2.8672-14.2234-5.7304-21.2703-8.5109l-.0164-.0065c.0001.0001-.0028-.0012-.009-.0033-.0061-.0022-.0149-.0051-.0265-.0087-.0236-.0072-.0555-.016-.0963-.0256-.0829-.0193-.1881-.0384-.3126-.0539-.2531-.0315-.5349-.0419-.7954-.029-.0439.0022-.0849.0049-.1232.008-2.0069 3.5295-3.8422 7.1337-5.7525 10.8849-.3315.6511-.6653 1.3066-1.0026 1.9668l50.1136 26.8991c2.39 1.283 2.388 4.709.001 5.992l-.002.001-50.1613 26.898c.4506.863.9044 1.723 1.3572 2.581 1.571 2.977 3.1308 5.934 4.5077 8.922l.01.021.0096.022c.5787 1.327.9761 1.457 1.0119 1.468.1249.042.6126.115 1.9971-.459 2.3708-.987 4.8979-2.025 7.5144-3.099 10.4655-4.299 22.3594-9.185 31.3874-13.69 3.384-1.687 5.935-2.543 8.626-2.426 2.511.109 4.922 1.078 7.876 2.265l.208.084c4.411 1.773 10.081 4.1 16.015 6.535 9.096 3.734 18.813 7.722 25.564 10.357.073.029.256.081.544.121.276.038.574.055.847.047.043-.001.083-.002.121-.004 2.042-3.54 3.908-7.177 5.847-10.956.305-.593.611-1.189.92-1.79l-50.163-26.899c-2.381-1.281-2.393-4.706.002-5.991l50.122-26.8959c-.373-.7197-.742-1.4317-1.108-2.1374-1.941-3.7411-3.79-7.3055-5.571-10.8924l-.005-.0097-.005-.0098c-.051-.1061-.097-.1869-.134-.2472-.014.0035-.029.0073-.045.0114zm4.391-1.8213c-.713-1.4632-1.841-2.6544-3.586-2.8765-1.387-.1765-2.73.3721-3.552.7091-15.089 6.1304-30.138 12.2385-45.262 18.1361-1.496.5204-3.125.5208-4.623.0008-7.929-3.114-15.743-6.2624-23.5669-9.4151-7.076-2.8513-14.1605-5.7059-21.347-8.5416-.9914-.3972-2.2422-.4993-3.2154-.451-.5134.0254-1.0896.0985-1.6296.2633-.4035.1231-1.3865.4677-1.9549 1.4429l-.0059.0102c-2.2159 3.8464-4.2335 7.8088-6.2724 11.813-.6626 1.3012-1.3274 2.6068-2.002 3.9143l-1.0573 2.0492 52.0584 27.9436-52.104 27.939 1.0433 2.046c.858 1.682 1.702 3.281 2.5241 4.838 1.5268 2.893 2.9782 5.642 4.3035 8.516.7833 1.787 1.922 3.391 3.827 4.021 1.8173.601 3.6748.079 5.2664-.581l.0023-.001c2.3215-.966 4.8127-1.989 7.4045-3.054 10.474-4.301 22.5899-9.278 31.7899-13.868m61.959-74.8543c1.76 3.5441 3.58 7.0524 5.513 10.7773.713 1.3756 1.442 2.7807 2.189 4.2281l1.058 2.0495-52.074 27.9434 52.119 27.948-1.067 2.053c-.649 1.248-1.29 2.496-1.929 3.743-2.073 4.039-4.133 8.052-6.397 11.921l-.004.007c-.59 1-1.615 1.324-2.012 1.434-.545.152-1.127.21-1.643.224-.996.027-2.236-.104-3.214-.484l-.003-.002c-6.771-2.642-16.592-6.673-25.734-10.425-5.919-2.43-11.554-4.742-15.891-6.486-3.29-1.321-4.94-1.945-6.541-2.015-1.478-.064-3.153.353-6.329 1.938" fill-rule="evenodd"/></g></g></g></svg>