<svg fill="none" height="250" viewBox="0 0 250 250" width="250" xmlns="http://www.w3.org/2000/svg" xmlns:xlink="http://www.w3.org/1999/xlink"><clipPath id="a"><path d="m0 0h250v250h-250z"/></clipPath><g clip-path="url(#a)"><path d="m111.61 249.717c-56.1997-7.1-98.9996-46.7-110.04965-101.85-2.099998-10.5-2.099998-35.4 0-45.9 10.35005-51.5998 48.80005-90.0998 100.44965-100.39981 10.5-2.100002 35.4-2.100002 45.9 0 51.65 10.30001 90.15 48.80001 100.45 100.39981 2.1 10.5 2.1 35.4 0 45.9-10.3 51.4-49 90.25-100 100.3-6.85 1.35-30.4 2.35-36.75 1.55z" fill="#000"/><path d="m111.61 249.698c-56.1501-7.05-99.0001-46.7-110.05014-101.85-2.099997-10.5-2.099997-35.4 0-45.9 10.35004-51.6003 48.80004-90.1003 100.45014-100.40034 10.5-2.100004 35.4-2.100004 45.9 0 51.65 10.30004 90.15 48.80004 100.45 100.40034 2.1 10.5 2.1 35.4 0 45.9-10.3 51.4-49 90.25-100 100.3-6.85 1.35-30.4 2.35-36.75 1.55zm5.65-93.25.25-18.15h8.15 8.15l7.9 18.4 7.9 18.4h10.1c5.55 0 10.35-.2 10.6-.45s-2.95-8.05-7.05-17.35c-4.15-9.3-7.7-17.65-7.9-18.6-.3-1.35.2-2 2.2-2.8 3.4-1.4 7.95-6.55 9.4-10.6.8-2.3 1.15-7.75 1.15-18.7 0-14.6003-.1-15.7003-2-19.4503-1.1-2.2-3.5-5.3-5.35-6.85-6.1-5.2-8.05-5.5-37.45-5.25l-26.3002.2-.25 8.0999-.25 8.1001-9.3499.25-9.35.25v8.7503 8.75l9.8.25 9.8.25v4.55 4.55l-9.8.25-9.8.25v8.75 8.75l9.8.25 9.8.25v18.8 18.8l9.8001.1h9.8zm.2-49.9v-12.5503h13.75c13.75 0 13.75 0 15.45 2.2 1.5 1.9 1.75 3.3499 1.75 10.3503 0 6.95-.25 8.45-1.75 10.35-1.75 2.2-1.75 2.2-15.45 2.2h-13.75z" fill="#fff"/></g></svg>