<svg fill="none" height="250" viewBox="0 0 250 250" width="250" xmlns="http://www.w3.org/2000/svg" xmlns:xlink="http://www.w3.org/1999/xlink"><clipPath id="a"><path d="m0 0h250v250h-250z"/></clipPath><g clip-path="url(#a)"><path d="m249.717.283203h-249.433553v249.432797h249.433553z" fill="#000" stroke="#000" stroke-miterlimit="10"/><path d="m211.791 72.222c-2.947-2.3243-6.462-5.4989-12.868-6.2926-6.009-.7936-12.132 3.2313-16.27 5.8957s-11.961 10.4876-15.193 12.8685c-3.231 2.381-11.508 4.5919-24.83 12.5851-13.322 7.9933-65.5892 41.5533-65.5892 41.5533l13.6054.17-60.6576 31.236h6.0658l-8.7302 6.633s7.7098 2.041 14.1724-2.041v1.871s72.2224-28.458 86.1674-21.089l-8.503 2.494c.737 0 14.456.908 14.456.908.333 2.84 1.288 5.573 2.797 8.003 1.508 2.43 3.534 4.497 5.933 6.055 8.277 5.443 8.447 8.447 8.447 8.447s-4.309 1.758-4.309 3.968c0 0 6.349-1.927 12.245-1.757 3.742.142 7.453.732 11.055 1.757 0 0-.454-2.38-6.18-3.968-5.725-1.587-11.394-7.823-14.172-11.224-1.701-2.165-2.81-4.736-3.218-7.459-.407-2.723-.099-5.506.894-8.074 1.984-5.159 8.9-7.993 23.186-15.363 16.836-8.73 20.691-15.193 23.072-20.238 2.381-5.046 5.896-15.08 7.88-19.7848 2.494-6.0658 5.556-9.2971 8.107-11.2245s13.889-6.1791 13.889-6.1791-8.674-7.5397-11.452-9.7506z" fill="#fff"/></g></svg>