<svg fill="none" height="250" viewBox="0 0 250 250" width="250" xmlns="http://www.w3.org/2000/svg" xmlns:xlink="http://www.w3.org/1999/xlink"><clipPath id="a"><path d="m0 0h250v250h-250z"/></clipPath><g clip-path="url(#a)"><path d="m125 250c69.036 0 125-55.964 125-125 0-69.0356-55.964-125-125-125-69.0356 0-125 55.9644-125 125 0 69.036 55.9644 125 125 125z" fill="#16b9ad"/><path d="m203.125 103.07c0 42.25-35.055 76.618-78.125 76.618-43.0703 0-78.125-34.376-78.125-76.602 0-3.1094.1875-6.2266.5781-9.3204h14.0313c-.4688 3.086-.7031 6.2031-.7031 9.3204 0 34.726 28.8124 62.984 64.2267 62.984 33.797 0 61.578-25.718 64.062-58.242h-99.3825c2.1094 15.188 14.0855 27.25 29.5075 29.742 15.43 2.485 30.703-5.187 37.672-18.906h15.039c-6.836 19.703-25.703 32.953-46.922 32.969-27.3121 0-49.5387-21.789-49.5387-48.563 0-3.1247.3125-6.2497.9141-9.32h126.1876c.391 3.0938.578 6.2031.578 9.32z" fill="#fff"/></g></svg>