<svg fill="none" height="250" viewBox="0 0 250 250" width="250" xmlns="http://www.w3.org/2000/svg" xmlns:xlink="http://www.w3.org/1999/xlink"><clipPath id="a"><path d="m0 0h250v250h-250z"/></clipPath><clipPath id="b"><path d="m41.6667 52.0859h166.667v135.417h-166.667z"/></clipPath><mask id="c" height="136" maskUnits="userSpaceOnUse" width="168" x="41" y="52"><path d="m208.333 52.0859h-166.6663v135.4171h166.6663z" fill="#fff"/></mask><g clip-path="url(#a)"><path clip-rule="evenodd" d="m250 125c0 69.036-55.964 125-125 125-69.0359 0-125-55.964-125-125 0-69.0359 55.9641-125 125-125 69.036 0 125 55.9641 125 125z" fill="#fff" fill-rule="evenodd"/><g clip-path="url(#b)"><g fill="#17b5cb" mask="url(#c)"><path d="m190.468 52.0859h17.506l-70.984 81.0101c-1.798 2.038-1.918 5.153-.119 7.31l40.887 47.576h-18.226l-37.769-44.1-1.919-2.397c-1.798-2.037-1.678-5.273.12-7.31z"/><path d="m151.019 140.406c-1.199-1.318-1.558-3.236-1.199-4.913.36-.959.96-1.918 1.679-2.637l4.676-5.153 52.159 60.279h-16.547s-30.576-35.712-40.768-47.576z"/><path d="m59.8922 187.982h-18.2255l55.8753-64.593c1.7986-2.037 1.7986-5.153 0-7.19l-55.3956-64.1131h17.506l55.7556 64.5921c1.439 1.918 1.678 4.674.12 6.472-14.629 16.897-55.6358 64.832-55.6358 64.832z"/><path d="m90.3478 52.0859h-16.7865l51.6787 59.7991s.12-.12 5.875-6.951c1.559-1.797 1.919-4.074.12-5.8717-10.791-11.025-40.8872-46.9764-40.8872-46.9764z"/><path d="m140.707 93.7895 35.852-41.7036h-17.027l-18.705 21.8105-5.395 6.3514c-1.799 2.0373-1.919 5.153-.12 7.3101 1.319 1.5579 5.395 6.2316 5.395 6.2316z"/><path d="m109.532 146.281-35.8508 41.704h16.9064l18.7054-21.811 5.395-6.351c1.799-2.037 1.919-5.153.12-7.31-1.319-1.558-5.276-6.232-5.276-6.232z"/></g></g></g></svg>