<svg width="24" height="24" fill="none" xmlns="http://www.w3.org/2000/svg"><g clip-path="url(#a)"><path d="M19.693 2.797C17.637 1.04 15.13.065 12.43 0L6.323 16.195l13.37-13.398Zm1.543 1.496-7.713 7.74 7.713 7.674C23.036 17.561 24 14.83 24 12.032c0-2.861-.964-5.528-2.764-7.74ZM9.409 1.82.024 11.252c-.193 3.057.772 5.984 2.7 8.39l6.685-17.82Zm2.635 11.707-7.713 7.675A11.982 11.982 0 0 0 12.044 24c2.829 0 5.528-.976 7.714-2.797l-7.714-7.675Z" fill="#fff"/></g><defs><clipPath id="a"><path fill="#fff" d="M0 0h24v24H0z"/></clipPath></defs></svg>
