<svg fill="none" height="250" viewBox="0 0 250 250" width="250" xmlns="http://www.w3.org/2000/svg" xmlns:xlink="http://www.w3.org/1999/xlink"><linearGradient id="a" gradientUnits="userSpaceOnUse" x1="32.1288" x2="208.234" y1="31.4431" y2="153.548"><stop offset="0" stop-color="#b290d8"/><stop offset="1" stop-color="#26bfe2"/></linearGradient><path d="m237.5 7.72656c-.702 0-1.405.42135-1.685 1.1236l-77.95 159.83184c-6.741 13.764-26.264 13.764-32.865 0l-77.6686-158.98915c-.5618-1.12359-1.8259-1.96629-3.0899-1.96629h-40.44946c-2.52809 0-4.213485 2.66854-3.08989 4.91574l107.44385 218.3987c7.303 14.747 28.371 14.607 35.534-.281l104.775-220.3649c.562-1.26404-.281-2.66854-1.685-2.66854z" fill="url(#a)"/><g fill="#fff"><path d="m98.5953 211.801-93.67977-190.4494 67.27527 77.9494z" opacity=".2"/><path d="m116.011 150.14-43.82-50.8428-17.6966-74.7191z" opacity=".2"/><path d="m72.1909 99.3076-67.27527-77.9495-4.21348-8.5674c-1.123595-2.2472.5618-4.9157 3.08989-4.9157h40.44946c1.264 0 2.5281.70225 3.0899 1.96629l7.3033 14.88761z" opacity=".1"/></g></svg>