<svg width="250" height="250" viewBox="0 0 250 250" fill="none" xmlns="http://www.w3.org/2000/svg">
<g clip-path="url(#clip0_46_11044)">
<path d="M125 250C194.036 250 250 194.036 250 125C250 55.9644 194.036 0 125 0C55.9644 0 0 55.9644 0 125C0 194.036 55.9644 250 125 250Z" fill="white"/>
<path d="M73.7247 116.117L72.3252 118.264C56.5411 142.478 60.0665 174.188 80.8008 194.504C92.9986 206.456 108.985 212.433 124.973 212.434C124.973 212.434 124.973 212.434 73.7247 116.117Z" fill="#00A3FF"/>
<path opacity="0.6" d="M124.958 145.391L73.71 116.117C124.958 212.434 124.958 212.434 124.958 212.434C124.958 191.457 124.958 167.42 124.958 145.391Z" fill="#00A3FF"/>
<path opacity="0.6" d="M176.275 116.117L177.675 118.264C193.459 142.478 189.934 174.188 169.199 194.504C157.001 206.456 141.015 212.433 125.027 212.434C125.027 212.434 125.027 212.434 176.275 116.117Z" fill="#00A3FF"/>
<path opacity="0.2" d="M125.021 145.391L176.27 116.117C125.022 212.434 125.021 212.434 125.021 212.434C125.021 191.457 125.021 167.42 125.021 145.391Z" fill="#00A3FF"/>
<path opacity="0.2" d="M125.041 80V130.488L169.185 105.261L125.041 80Z" fill="#00A3FF"/>
<path opacity="0.6" d="M125.027 80L80.8511 105.26L125.027 130.488V80Z" fill="#00A3FF"/>
<path d="M125.027 37.5391L80.8511 105.275L125.027 79.9448V37.5391Z" fill="#00A3FF"/>
<path opacity="0.6" d="M125.041 79.9308L169.219 105.262L125.041 37.4922V79.9308Z" fill="#00A3FF"/>
</g>
<defs>
<clipPath id="clip0_46_11044">
<rect width="250" height="250" fill="white"/>
</clipPath>
</defs>
</svg>
