<svg fill="none" height="250" viewBox="0 0 250 250" width="250" xmlns="http://www.w3.org/2000/svg" xmlns:xlink="http://www.w3.org/1999/xlink"><clipPath id="a"><path d="m0 0h250v250h-250z"/></clipPath><g clip-path="url(#a)"><path d="m125 113.208c31.261 0 56.604-25.3428 56.604-56.6042s-25.343-56.6038-56.604-56.6038c-31.2614 0-56.6038 25.3424-56.6038 56.6038s25.3424 56.6042 56.6038 56.6042z" fill="#88bdf3"/><path d="m125 249.997c31.261 0 56.604-25.343 56.604-56.604 0-31.262-25.343-56.604-56.604-56.604-31.2614 0-56.6038 25.342-56.6038 56.604 0 31.261 25.3424 56.604 56.6038 56.604z" fill="#3075ee"/><path d="m193.396 181.606c31.262 0 56.604-25.342 56.604-56.604 0-31.2612-25.342-56.6036-56.604-56.6036-31.261 0-56.604 25.3424-56.604 56.6036 0 31.262 25.343 56.604 56.604 56.604z" fill="#5795f1"/><path d="m56.6038 181.606c31.2614 0 56.6042-25.342 56.6042-56.604 0-31.2612-25.3428-56.6036-56.6042-56.6036s-56.6038 25.3424-56.6038 56.6036c0 31.262 25.3424 56.604 56.6038 56.604z" fill="#205fec"/><path d="m111.674 111.674c-10.089-2.453-19.3089-7.634-26.6509-14.976-7.3419-7.342-12.523-16.562-14.9762-26.6511 10.0713 2.4905 19.2713 7.684 26.6073 15.02 7.3358 7.336 12.5298 16.5361 15.0198 26.6071z" fill="#134bef"/><path d="m69.9294 180.073c2.4533-10.089 7.6343-19.309 14.9763-26.651 7.3419-7.342 16.5623-12.523 26.6513-14.977-2.491 10.072-7.684 19.272-15.0203 26.608-7.336 7.336-16.536 12.529-26.6073 15.02z" fill="#0932e8"/><path d="m138.326 138.328c10.089 2.453 19.309 7.634 26.651 14.976s12.523 16.562 14.976 26.651c-10.071-2.49-19.271-7.684-26.607-15.02s-12.53-16.536-15.02-26.607z" fill="#164bea"/><path d="m180.071 69.9297c-2.454 10.0891-7.635 19.3091-14.977 26.651-7.342 7.3423-16.562 12.5233-26.651 14.9763 2.491-10.071 7.684-19.2713 15.02-26.6073s16.536-12.5295 26.608-15.02z" fill="#3170f1"/></g></svg>