<svg width="250" height="250" viewBox="0 0 250 250" fill="none" xmlns="http://www.w3.org/2000/svg">
<g clip-path="url(#clip0_46_11459)">
<path d="M125 113.208C156.261 113.208 181.604 87.8652 181.604 56.6038C181.604 25.3424 156.261 0 125 0C93.7386 0 68.3962 25.3424 68.3962 56.6038C68.3962 87.8652 93.7386 113.208 125 113.208Z" fill="#88BDF3"/>
<path d="M125 249.997C156.261 249.997 181.604 224.654 181.604 193.393C181.604 162.131 156.261 136.789 125 136.789C93.7386 136.789 68.3962 162.131 68.3962 193.393C68.3962 224.654 93.7386 249.997 125 249.997Z" fill="#3075EE"/>
<path d="M193.396 181.606C224.658 181.606 250 156.264 250 125.002C250 93.7408 224.658 68.3984 193.396 68.3984C162.135 68.3984 136.792 93.7408 136.792 125.002C136.792 156.264 162.135 181.606 193.396 181.606Z" fill="#5795F1"/>
<path d="M56.6038 181.606C87.8652 181.606 113.208 156.264 113.208 125.002C113.208 93.7408 87.8652 68.3984 56.6038 68.3984C25.3424 68.3984 0 93.7408 0 125.002C0 156.264 25.3424 181.606 56.6038 181.606Z" fill="#205FEC"/>
<path d="M111.674 111.674C101.585 109.221 92.3651 104.04 85.0231 96.698C77.6812 89.356 72.5001 80.136 70.0469 70.0469C80.1182 72.5374 89.3182 77.7309 96.6542 85.0669C103.99 92.4029 109.184 101.603 111.674 111.674Z" fill="#134BEF"/>
<path d="M69.9294 180.073C72.3827 169.984 77.5637 160.764 84.9057 153.422C92.2476 146.08 101.468 140.899 111.557 138.445C109.066 148.517 103.873 157.717 96.5367 165.053C89.2007 172.389 80.0007 177.582 69.9294 180.073Z" fill="#0932E8"/>
<path d="M138.326 138.328C148.415 140.781 157.635 145.962 164.977 153.304C172.319 160.646 177.5 169.866 179.953 179.955C169.882 177.465 160.682 172.271 153.346 164.935C146.01 157.599 140.816 148.399 138.326 138.328Z" fill="#164BEA"/>
<path d="M180.071 69.9297C177.617 80.0188 172.436 89.2388 165.094 96.5807C157.752 103.923 148.532 109.104 138.443 111.557C140.934 101.486 146.127 92.2857 153.463 84.9497C160.799 77.6137 169.999 72.4202 180.071 69.9297Z" fill="#3170F1"/>
</g>
<defs>
<clipPath id="clip0_46_11459">
<rect width="250" height="250" fill="white"/>
</clipPath>
</defs>
</svg>
