<svg fill="none" height="250" viewBox="0 0 250 250" width="250" xmlns="http://www.w3.org/2000/svg" xmlns:xlink="http://www.w3.org/1999/xlink"><clipPath id="a"><path d="m0 0h250v250h-250z"/></clipPath><clipPath id="b"><path d="m41.6667 41.6641h166.667v166.667h-166.667z"/></clipPath><g clip-path="url(#a)"><circle cx="125" cy="125" fill="#fff" r="125"/><g clip-path="url(#b)"><path d="m183.4 161.967c2.267-3.467 4.2-7.1 5.833-10.934 3.634-8.6 5.5-17.733 5.5-27.133s-1.833-18.533-5.5-27.1333c-1.6-3.8-3.533-7.4334-5.766-10.8667l23.733-23.7333-20.4-20.4-23.7 23.7c-3.433-2.2667-7.1-4.2-10.933-5.8-8.6-3.6334-17.734-5.5-27.134-5.5s-18.533 1.8333-27.1329 5.5c-3.8334 1.6333-7.5 3.5666-10.9334 5.8333l-24.0333-24-20.3667 20.4 24 24c-2.2333 3.4333-4.1667 7.0333-5.7667 10.8333-3.6333 8.5997-5.5 17.7337-5.5 27.1337s1.8334 18.533 5.5 27.133c1.6334 3.833 3.5667 7.467 5.8 10.933l-24.8 24.8 20.4 20.4 24.8001-24.8c3.4333 2.234 7.0666 4.167 10.8666 5.767 8.6003 3.633 17.7333 5.5 27.1333 5.5s18.533-1.833 27.133-5.5c3.8-1.6 7.434-3.533 10.834-5.767l24.533 24.534 20.4-20.4zm-58.4 3.766c-6.267 0-12.2-1.366-17.567-3.833-8.9663-4.167-16.2329-11.4-20.3996-20.367-2.5-5.366-3.9-11.333-3.9-17.633 0-6.267 1.3666-12.2 3.8333-17.533 4.1334-9.0003 11.4-16.2337 20.3663-20.4337 5.367-2.5 11.334-3.9 17.667-3.9 6.3 0 12.267 1.4 17.633 3.9 8.967 4.1667 16.234 11.4334 20.367 20.3997 2.467 5.334 3.833 11.3 3.833 17.567 0 6.3-1.4 12.3-3.9 17.667-4.166 8.966-11.433 16.2-20.433 20.366-5.3 2.434-11.233 3.8-17.5 3.8z" fill="#000"/></g></g></svg>