<svg fill="none" height="250" viewBox="0 0 250 250" width="250" xmlns="http://www.w3.org/2000/svg"><path d="m247.75 125.051c0 33.9-13.8 64.6-36.05 86.8-22.15 22.05-52.7 35.65-86.45 35.65s-64.3-13.65-86.45-35.7c-22.25-22.2-36.05-52.9-36.05-86.75 0-67.6501 54.85-122.50008 122.5-122.50008 67.7-.1 122.5 54.74998 122.5 122.50008z" fill="#ff6766"/><path d="m247.75 125.049c0 67.65-54.85 122.5-122.5 122.5-33.8 0-64.35-13.65-86.5-35.75l173.25-173.3498c22.05 22.15 35.75 52.75 35.75 86.5998z" fill="#d95e59"/><path d="m211.75 211.848c-22.15 22.05-52.7 35.65-86.45 35.65-33.7499 0-64.2999-13.6-86.4499-35.65 22.15-22.05 52.7-35.7 86.4499-35.7 33.75 0 64.2 13.6 86.45 35.7z" fill="#fef4c8"/><path d="m203.5 125c0 21.65-8.8 41.25-23 55.45-14.15 14.1-33.65 22.8-55.2 22.8s-41.05-8.7-55.2-22.8c-14.3-14.15-23.1-33.75-23.1-55.45 0-43.2 35.05-78.25 78.25-78.25s78.25 35.05 78.25 78.25z" fill="#f5f7e2"/><path d="m186.3 125c0 16.9-6.85 32.2-17.95 43.25-11.05 11-26.25 17.8-43.05 17.8s-32.05-6.8-43.05-17.8c-11.1-11.05-18-26.35-18-43.25 0-33.7 27.3-61 61-61s61.05 27.3 61.05 61z" fill="#fff"/><path d="m65.9999 89.4998c2.15-3.05 4.2-6.15 6.65-9 4.45-5.15 9.5-9.6 15.25-13.25 5.2-3.3 10.65-5.9 16.5001-7.7 9.1-2.8 18.4-3.65 27.85-2.6 6.9.8 13.6 2.55 19.9 5.4 3.85 1.75 7.45 3.85 11 6.2 7.15 4.65 12.85 10.7 17.65 17.65 5.1 7.4 8.4 15.6002 10.25 24.4502 1.3 6.2 1.8 12.45 1.25 18.75-.7 7.75-2.4 15.25-5.6 22.4-2.7 6.1-6.1 11.65-10.4 16.7-4.2 4.95-8.95 9.25-14.4 12.8-3.7 2.4-7.6 4.6-11.65 6.2-6.85 2.7-13.95 4.5-21.35 4.8-5.2.2-10.4.15-15.55-.8-4.45-.8-8.75-1.95-13-3.5-4.1001-1.55-8.1001-3.35-11.7501-5.65-5.3-3.35-10.05-7.35-14.3-12-4.7-5.2-8.55-10.95-11.5-17.3-4.15-8.95-6.2-18.4-6.3-28.3-.05-3.7.4-7.4.85-11.05.05-.25 0-.55 0-.8.45-.25.4-.75.45-1.15 1.1-5.75 2.95-11.3 5.45-16.6002.95-1.9 2.15-3.65 2.75-5.65zm79.4001 36.4502c1.85-1 3.6-1.55 4.95-2.75 5.35-4.75 6.75-15.95-1.9-21.35-2.7-1.7-5.55-2.9502-8.65-4.2002.5-4.15 2.15-8.05 2.7-12.3-2.55-.65-4.95-1.45-7.45-1.75-1 4-2 7.8-3 11.8-1.9-.6-3.9-.55-5.65-1.55.65-4.05 2.2-7.85 2.6-11.9-2.65-.4-4.85-1.45-7.4-1.55-1 4-1.95 7.9-3 11.9-5.05-.75-9.7-2.5-14.8-3.45-1.1 2.5-1.6 5.15-2.05 8 1.65.4 3.1.75 4.55 1.05 3.65.85 4.65 2.8502 3.8 6.0502-.6 2.25-1.15 4.55-1.75 6.85-2.05 8.2-4.05 16.45-6.1 24.65-.45 1.85-1.6 2.45-3.5001 2.2-1.85-.25-3.6-1.1-5.65-1.05-.9 2.85-2.65 5.3-3.25 8.45 4.85 1.25 9.55 2.45 14.4501 3.7-.35 4.3-2.15 8.2-2.65 12.5 2.45.6 4.8 1.15 7.2 1.7 1.6-3.95 1.95-8.1 3.45-12.2 1.8.9 3.75.65 5.5 1.8-.95 3.95-1.9 7.85-2.85 11.85 2.55.9 5 1.3 7.55 1.9 1.05-4.1 2-8.1 3-11.95.6-.3 1.05-.25 1.45-.15 4 .85 8 1.05 12 .6 3.5-.4 6.6-1.7 9.05-4.35 2.75-2.9 4.15-6.45 4.8-10.3.55-3.1.4-6.3-1.45-9.05-1.45-2.15-3.4-3.8-5.95-5.15zm-28.75 16.25c4.9 1.2 9.8 2.5 14.95 1.6 2.75-.5 4.8-1.9 5.65-4.65.8-2.6.35-4.95-1.6-7-2-2.15-4.6-3.25-7.25-4.15-3.15-1.1-6.4-2.1-9.85-2.4-1.35 5.4-2.6 10.65-3.95 16 .8.2 1.4.45 2.05.6zm17.3-22.65c2.7-.4 4.95-2.2 5.6-4.6.8-3-.1-5.6-2.5-7.35-2.75-2-5.9-3.05-9.15-3.75-1.2-.25-2.4-.95-3.85-.5-1.15 4.75-2.35 9.5-3.55 14.45 4.65 1.1 8.9 2.4 13.45 1.75z" fill="#f39321"/></svg>