<svg fill="none" height="250" viewBox="0 0 250 250" width="250" xmlns="http://www.w3.org/2000/svg" xmlns:xlink="http://www.w3.org/1999/xlink"><linearGradient id="a" gradientUnits="userSpaceOnUse" x1="147.692" x2="86.3795" y1="186.28" y2="22.4596"><stop offset=".244" stop-color="#fc51a1"/><stop offset="1" stop-color="#1ab0ed"/></linearGradient><path d="m180 48.4999c-51.35-36.9-106.7999-47.550009-123.8499-23.85-9.75 13.6-38.5 53.55-48.25 67.15-17 23.7001 10.8 72.8501 62.15 109.7501 51.3499 36.9 106.7999 47.6 123.8499 23.9 9.75-13.6 38.5-53.55 48.25-67.15 17.05-23.75-10.8-72.9001-62.15-109.8001z" fill="#fff"/><path d="m238.65 123.801c-25.9-8.05-30.55 11.45-39.85 23.1-9.65 12.15-13.4 19.65-25.55 30.85s-27.4 4.7-33.95 0-9.5-10.3-23.55-27.4c-14-17.15-29.3-3.1-36.45 3.1-7.15 6.25-17.3 16.2-24.45 20.25-2.95 1.65-5.95 2.35-8.4 2.55-32.1-31.1-47.69999-65.5-34.65-83.7003 9.3-12.95 36.7-51.05 46-64 16.25-22.59999 70.65-11.65 119.65 23.55 30.75 22.05 52.95 49.0503 61.2 71.7003z" fill="url(#a)"/><path d="m237.5 157.503c-9.3 12.95-36.7 51.1-46 64.05-16.25 22.6-69.9 11.65-118.85-23.55-9.55-6.9-18.35-14.25-26.15-21.8 2.45-.2 5.4-.85 8.4-2.55 7.15-4.05 17.3-14 24.45-20.25s22.45-20.25 36.45-3.1 17 22.75 23.55 27.4c6.55 4.7 21.8 11.2 33.95 0s15.9-18.7 25.55-30.85c9.25-11.65 13.95-31.15 39.85-23.1 4.85 13.45 4.85 25.35-1.2 33.75z" fill="#000"/><g stroke="#fff" stroke-linecap="round" stroke-miterlimit="10" stroke-width="6.2261"><path d="m185.8 167.548c-2.4-.55-4.9-1.15-7.4-1.9"/><path d="m215.6 168.852c-6.9 1.4-15.15 1.3-24.35-.25"/><path d="m53.7 54.6984c-.25-1.55-.4-3.05-.5-4.55"/><path d="m89.4999 111.747c-18-17.7001-30.3-36.1501-34.6-51.7001"/></g><path d="m173.05 58.0477c-46.45-33.1-95.25-44.25-109-24.95s12.7 61.8 59.15 94.9003c46.45 33.1 95.25 44.25 109 24.95 13.8-19.3-12.7-61.8003-59.15-94.9003zm16.85 64.7503c-6.5 9.1-30.45 3.15-53.55-13.35-23.1-16.4503-36.55-37.1503-30.05-46.2503s30.45-3.15 53.55 13.35c23.1 16.45 36.55 37.2003 30.05 46.2503z" fill="#fff"/></svg>