<svg fill="none" height="250" viewBox="0 0 250 250" width="250" xmlns="http://www.w3.org/2000/svg" xmlns:xlink="http://www.w3.org/1999/xlink"><clipPath id="a"><path d="m0 0h250v250h-250z"/></clipPath><g clip-path="url(#a)"><path d="m125.021 0c-69.0471 0-125.021 55.9739-125.021 125.021 0 69.047 55.9739 125.021 125.021 125.021 69.047 0 125.021-55.974 125.021-125.021 0-69.0471-55.974-125.021-125.021-125.021zm-31.2657 168.218-1.1847 1.185c-2.4538 2.453-5.077 4.78-7.7847 6.938l-3.1308 2.454c-.2115.169-.4654.254-.7192.254-.2116 0-.4231-.042-.5924-.169-.423-.254-.6346-.72-.5077-1.227l1.227-5.543c1.3538-6.007 1.0577-12.311-.8462-18.192l-.6769-2.031c-.7616-2.369-1.6924-4.696-2.6654-6.981l-14.4272-34.058-1.5654-4.654c-.4654-1.439-.8039-2.919-.9731-4.442l-.2538-2.3274c-.7193-6.5578 1.5231-12.9887 6.177-17.6426l1.1846-1.1846c2.4539-2.4539 5.077-4.7809 7.7847-6.9386l3.1309-2.4539c.3807-.2961.8884-.3384 1.3115-.0846.4231.2539.6346.7193.5077 1.227l-1.2269 5.5424c-1.3539 6.0077-1.0577 12.3117.8461 18.1925l.677 2.0308c.7615 2.369 1.6923 4.696 2.6654 6.981l14.4695 34.058 1.5654 4.654c.4654 1.439.8038 2.919.9731 4.442l.2538 2.327c.6774 6.516-1.5654 12.989-6.2193 17.643zm48.8237 11.169-1.523 1.523c-3.089 3.089-6.389 6.051-9.816 8.716l-4.061 3.215c-.212.17-.508.254-.762.254-.211 0-.465-.084-.677-.211-.465-.296-.677-.804-.55-1.312l1.608-7.15c1.692-7.615 1.312-15.569-1.1-22.973l-.846-2.581c-.973-3.004-2.116-5.966-3.385-8.843l-18.235-42.943-1.946-5.838c-.592-1.7771-1.015-3.681-1.227-5.5425l-.3382-2.9616c-.9308-8.2078 1.9042-16.2464 7.7002-22.1273l1.523-1.5231c3.088-3.0885 6.389-6.0501 9.816-8.7155l4.061-3.2154c.423-.3385.973-.3808 1.439-.0847.465.2962.677.8039.55 1.3116l-1.608 7.1501c-1.692 7.6155-1.312 15.5695 1.1 22.9734l.846 2.5809c.973 2.9615 2.115 5.9654 3.385 8.8424l18.235 42.9857 1.946 5.838c.592 1.777 1.015 3.681 1.227 5.543l.338 2.961c.931 8.208-1.904 16.289-7.7 22.127zm41.632-11.169-1.185 1.185c-2.454 2.453-5.077 4.78-7.785 6.938l-3.131 2.454c-.211.169-.465.254-.719.254-.211 0-.423-.042-.592-.169-.423-.254-.635-.72-.508-1.227l1.227-5.543c1.354-6.007 1.058-12.311-.846-18.192l-.677-2.031c-.762-2.369-1.692-4.696-2.666-6.981l-14.469-34.058-1.565-4.654c-.466-1.439-.804-2.919-.973-4.442l-.254-2.3274c-.72-6.5578 1.523-12.9887 6.177-17.6426l1.184-1.1846c2.454-2.4539 5.077-4.7809 7.785-6.9386l3.131-2.4539c.381-.2961.888-.3384 1.311-.0846.424.2539.635.7193.508 1.227l-1.227 5.5424c-1.354 6.0077-1.058 12.3117.846 18.1925l.677 2.0308c.762 2.369 1.693 4.696 2.666 6.981l14.469 34.058 1.566 4.654c.465 1.439.803 2.919.973 4.442l.254 2.327c.719 6.516-1.524 12.989-6.177 17.643z" fill="#171fc9"/></g></svg>