<svg fill="none" height="262" viewBox="0 0 262 262" width="262" xmlns="http://www.w3.org/2000/svg" xmlns:xlink="http://www.w3.org/1999/xlink"><linearGradient id="a" gradientUnits="userSpaceOnUse" x1="131" x2="131" y1="73.8885" y2="209.867"><stop offset="0" stop-color="#fff"/><stop offset=".682292" stop-color="#fff" stop-opacity="0"/><stop offset="1" stop-color="#fff" stop-opacity=".5"/></linearGradient><clipPath id="b"><rect height="262" rx="131" width="262"/></clipPath><g clip-path="url(#b)"><rect fill="#343434" height="262" rx="131" width="262"/><path d="m109.269 65.9229-43.0795 65.0771 64.8105 97.905 64.811-97.905-43.08-65.0771 12.743 65.0771h15.168l-42.747 68.947v-68.947h12.41l-19.113-97.6157-.192-.2896-.192.2896-19.113 97.6157h12.41v68.947l-42.7471-68.947h15.1684z" fill="#d7a012"/><path d="m109.269 65.9229-43.0795 65.0771 64.8105 97.905 64.811-97.905-43.08-65.0771 12.743 65.0771h15.168l-42.747 68.947v-68.947h12.41l-19.113-97.6157-.192-.2896-.192.2896-19.113 97.6157h12.41v68.947l-42.7471-68.947h15.1684z" fill="url(#a)" fill-opacity=".3"/></g></svg>