<svg fill="none" height="243" viewBox="0 0 243 243" width="243" xmlns="http://www.w3.org/2000/svg"><circle cx="122.076" cy="120.924" fill="#fff" r="119.773"/><g fill="#262830"><path d="m121.572 64.8415h-5.119v18.158h5.119c9.052 0 17.9 2.684 25.426 7.7128 7.526 5.0287 13.392 12.1757 16.856 20.5387 3.463 8.362 4.37 17.564 2.604 26.442-1.766 8.877-6.125 17.032-12.525 23.432s-14.555 10.759-23.432 12.525c-8.878 1.766-18.08.86-26.442-2.604-8.3626-3.464-15.5101-9.33-20.5388-16.856-5.0288-7.526-7.7128-16.374-7.7128-25.426v-78.9005h-18.158v78.9005c0 12.643 3.749 25.002 10.773 35.514 7.0239 10.512 17.0073 18.705 28.6877 23.544 11.6799 4.838 24.5329 6.104 36.9329 3.637 12.4-2.466 23.79-8.554 32.73-17.494 8.939-8.94 15.028-20.33 17.494-32.73s1.201-25.252-3.638-36.933c-4.838-11.6802-13.031-21.6636-23.543-28.6875-10.512-7.024-22.871-10.773-35.514-10.773z"/><path d="m121.572 164.002c9.346 0 18.309-3.712 24.917-10.321 6.609-6.608 10.321-15.571 10.321-24.917s-3.712-18.309-10.321-24.918c-6.608-6.6081-15.571-10.3208-24.917-10.3208h-5.117v18.1578h5.119c3.378 0 6.68 1.002 9.489 2.879s4.998 4.545 6.291 7.666c1.292 3.121 1.63 6.555.971 9.868-.659 3.314-2.286 6.357-4.674 8.746-2.389 2.388-5.432 4.015-8.746 4.674-3.313.659-6.747.321-9.868-.971-3.121-1.293-5.789-3.482-7.666-6.291s-2.878-6.111-2.879-9.489v-64.1417h-18.1595v64.1417c.0109 9.343 3.7272 18.299 10.3335 24.905 6.606 6.606 15.563 10.322 24.906 10.333"/></g></svg>