<svg fill="none" height="250" viewBox="0 0 250 250" width="250" xmlns="http://www.w3.org/2000/svg" xmlns:xlink="http://www.w3.org/1999/xlink"><clipPath id="a"><path d="m0 0h250v250h-250z"/></clipPath><g clip-path="url(#a)"><path d="m135.067 130.9 43.833 43.833c.838.843 1.487 1.854 1.904 2.968.416 1.113.591 2.302.512 3.487-.079 1.186-.409 2.342-.97 3.39-.56 1.048-1.337 1.964-2.279 2.689-11.698 9.187-25.747 14.895-40.538 16.47-14.791 1.574-29.726-1.049-43.0962-7.568-13.3698-6.52-24.6333-16.673-32.5009-29.296-7.8676-12.624-12.0213-27.208-11.9854-42.082.0359-14.875 4.2599-29.4389 12.1883-42.0244 7.9285-12.5855 19.2409-22.6839 32.6419-29.1389 13.4013-6.4549 28.3493-9.0056 43.1323-7.3598 14.783 1.6457 28.804 7.4213 40.458 16.6654.897.7372 1.63 1.6552 2.149 2.6944.519 1.0391.814 2.176.864 3.3365.05 1.1606-.145 2.3187-.572 3.3989s-1.077 2.0582-1.908 2.8702l-43.867 43.8667c-.771.773-1.382 1.691-1.8 2.7-.424 1.06-.639 2.192-.633 3.333-.013 1.146.214 2.281.667 3.334.409 1.013 1.022 1.932 1.8 2.7zm-10.067-130.9c-24.723 0-48.8901 7.33112-69.4462 21.0663-20.5562 13.7352-36.5777 33.2575-46.03869 56.0983-9.4609492 22.8404-11.93637 47.9744-7.11321 72.2214 4.82315 24.248 16.7282 46.521 34.2098 64.002 17.4816 17.482 39.7544 29.387 64.0023 34.21 24.247 4.823 49.381 2.348 72.221-7.113 22.841-9.461 42.364-25.483 56.099-46.039s21.066-44.723 21.066-69.446c0-33.1521-13.17-64.9463-36.612-88.3883-23.442-23.4421-55.236-36.6117-88.388-36.6117z" fill="#69e2dc"/></g></svg>