<svg fill="none" height="250" viewBox="0 0 250 250" width="250" xmlns="http://www.w3.org/2000/svg" xmlns:xlink="http://www.w3.org/1999/xlink"><linearGradient id="a"><stop offset="0" stop-color="#01e8f7"/><stop offset="1" stop-color="#00c2ff"/></linearGradient><linearGradient id="b" gradientUnits="userSpaceOnUse" x1="202.734" x2="208.281" xlink:href="#a" y1="94.4141" y2="160.703"/><linearGradient id="c" gradientUnits="userSpaceOnUse" x1="93.5547" x2="157.93" y1="58.789" y2="160.976"><stop offset="0" stop-color="#01e8f7"/><stop offset="1" stop-color="#00b3ec"/></linearGradient><linearGradient id="d" gradientUnits="userSpaceOnUse" x1="6433.58" x2="6679.82" xlink:href="#a" y1="7313.29" y2="-596.636"/><clipPath id="e"><path d="m0 0h250v250h-250z"/></clipPath><g clip-path="url(#e)"><path d="m125 250c69.036 0 125-55.964 125-125 0-69.0356-55.964-125-125-125-69.0356 0-125 55.9644-125 125 0 69.036 55.9644 125 125 125z" fill="#fff"/><path d="m222.656 116.719c.86-18.0081-11.718-29.9612-25.937-38.1643l-9.219 54.2573c1.903-.264 3.841-.115 5.682.438 1.84.553 3.539 1.496 4.982 2.766 1.653 1.621 2.641 3.802 2.771 6.114.13 2.311-.607 4.589-2.068 6.386 8.906-1.485 22.774-10.039 23.789-31.797z" fill="url(#b)"/><g clip-rule="evenodd" fill-rule="evenodd"><path d="m101.562 53.6327-10.937-11.0546c16.563-2.0313 60.273.5468 102.578 27.0703.387 2.3671.387 4.7813 0 7.1484l3.555 1.7969c2.842 4.7137 4.713 9.9475 5.505 15.3943.791 5.4468.487 10.997-.896 16.324-3.672 14.688-9.961 21.172-12.773 22.5-5.664 0-15.313 3.282-18.438 17.813s-9.14 17.695-11.718 17.461l-62.5005.742-41.25-24.297-5.9375-50.2733 11.7187-15.625 20.9375-17.1093 14.9219-6.0938zm73.868 20.586c-1.765 1.8707-3.823 3.4408-6.094 4.6484-16.055-3.4375-21.875-11.7187-21.875-11.7187 13.652-.4078 27.157 2.9145 39.062 9.6093-3.625-1.1376-7.334-1.9866-11.093-2.539z" fill="url(#c)"/><path d="m169.609 150.625c-11.89 5.718-24.931 8.644-38.125 8.554-39.4137 0-71.3278-24.765-71.3278-55.273 0-22.5781 17.4219-41.9531 42.3828-50.5469-47.4999 2.7344-85.7031 40.8985-85.7031 88.0079 0 54.375 48.4766 99.297 108.1641 99.297 20.743-.172 41.065-5.868 58.875-16.504 17.81-10.635 32.464-25.824 42.453-44.004-26.758 6.016-58.359-5.43-56.719-29.531z" fill="url(#d)"/></g></g></svg>