<svg fill="none" height="250" viewBox="0 0 250 250" width="250" xmlns="http://www.w3.org/2000/svg" xmlns:xlink="http://www.w3.org/1999/xlink"><linearGradient id="a" gradientUnits="userSpaceOnUse" x1="17.0325" x2="217.646" y1="52.4478" y2="189.71"><stop offset="0" stop-color="#ff3b3b"/><stop offset="1" stop-color="#ff9914"/></linearGradient><clipPath id="b"><path d="m0 0h250v250h-250z"/></clipPath><g clip-path="url(#b)"><path d="m124.998 249.996c69.034 0 124.998-55.964 124.998-124.998 0-69.0345-55.964-124.998-124.998-124.998-69.0345 0-124.998 55.9635-124.998 124.998 0 69.034 55.9635 124.998 124.998 124.998z" fill="url(#a)"/><path clip-rule="evenodd" d="m120.472 45.0931c-7.258.8365-14.006 4.1479-19.108 9.377-3.8309 3.7929-7.4595 7.687-11.3409 11.5178-1.9428 1.9934-3.9067 3.932-5.8706 5.9002-1.9639 1.9681-4.1301 4.0584-6.1698 6.1234-2.0398 2.0651-3.7339 3.8773-5.622 5.7948-2.95 2.95-5.9001 5.9001-8.8501 8.8797-2.2631 2.3389-4.4757 4.7538-6.7135 7.0885-1.3191 1.3945-2.7393 2.6885-3.9826 4.1555-5.1307 6.26-7.9348 14.103-7.9356 22.197 0 .476 0 .965.0295 1.437.1049 4.648 1.3248 9.202 3.5569 13.28 1.2707 2.464 2.7423 4.819 4.3998 7.042 1.0958 1.542 1.8923 1.517 3.3336.324.2753-.229.5331-.478.7712-.746 1.4202-1.496 2.811-2.988 4.2565-4.48 2.0398-2.14 4.1301-4.277 6.1698-6.443 2.0398-2.167 4.2523-4.552 6.3932-6.79 1.0199-1.095 2.1072-2.107 3.1355-3.186 2.1872-2.313 4.3281-4.699 6.5154-6.987 2.1872-2.289 4.404-4.429 6.5449-6.667s4.7749-4.977 7.1855-7.464c2.4106-2.486 4.4543-4.577 6.6923-6.8651 2.912-3.0133 5.748-6.0982 8.631-9.1073 1.791-1.8417 3.633-3.6075 5.424-5.4239 2.486-2.4865 4.8-4.9729 7.24-7.4594s4.253-4.1554 6.343-6.2963c4.672-4.7201 9.337-9.4683 13.996-14.2445.3-.2965.582-.6118.843-.9441 1.146-1.4455 1.243-1.7658-.173-2.7856-2.162-1.7035-4.477-3.2032-6.916-4.4799-4.31-2.0157-9.01-3.0602-13.768-3.0596h-.236c-1.59.0003-3.177.1002-4.754.2992l-.025-.0253zm41.17 30.6216h-.299c-2.042.0007-4.058.4464-5.91 1.3059-1.852.8596-3.494 2.1124-4.812 3.6713-.235.2611-.484.5101-.746.7459l-7.611 7.4637c-2.486 2.4906-5.175 5.2005-7.788 7.8134-2.162 2.162-4.328 4.2771-6.465 6.4441-2.136 2.166-4.429 4.576-6.743 6.84-2.313 2.263-4.774 4.635-7.164 6.966l-8.484 8.555-15.7697 15.774c-6.9677 6.996-13.9256 13.978-20.8737 20.946-1.3402 1.319-1.3654 1.492 0 2.908 3.3336 3.371 6.7177 6.717 9.9501 10.114 1.9999 2.12 4.6393 3.526 7.5142 4.004 2.7124.546 5.5145.452 8.1843-.274 2.0002-.495 3.8464-1.478 5.3733-2.862l8.2605-7.977c1.938-1.863 3.906-3.705 5.82-5.597 3.831-3.793 7.611-7.611 11.442-11.379 3.11-3.059 6.296-6.094 9.452-9.153l12.951-12.622c4.029-3.958 8.083-7.936 12.163-11.893.272-.405.649-.727 1.091-.931.442-.205.932-.284 1.416-.23s.944.24 1.33.538c.385.297.682.695.858 1.149 2.073 3.029 3.182 6.613 3.181 10.283 0 .628-.033 1.256-.096 1.88-.335 3.7-1.861 7.192-4.35 9.95-2.988 3.212-6.169 6.246-9.271 9.331-2.213 2.187-4.476 4.328-6.693 6.54-2.861 2.837-5.672 5.724-8.534 8.56-.421.472-.817.969-1.264 1.416l-2.811 2.912c-2.107 2.107-4.252 4.155-6.322 6.267-2.069 2.111-4.446 4.581-6.658 6.886-.198.223-.422.371-.62.569-2.49 2.314-4.779 4.636-7.143 6.966-1.117 1.096-2.187 2.213-3.283 3.309-1.888 1.917-3.831 3.793-5.647 5.748-1.117 1.167-1.117 1.888.202 2.811 2.166 1.662 4.471 3.135 6.89 4.4 6.019 2.721 12.688 3.67 19.226 2.735 6.49-.77 12.578-3.544 17.418-7.936 3.679-3.232 6.967-6.865 10.397-10.346 2.487-2.491 4.977-5.15 7.637-7.712l7.189-7.241c2.192-2.212 4.354-4.429 6.57-6.616 2.217-2.187 4.973-4.8 7.46-7.266 2.486-2.465 4.977-4.973 7.463-7.611 1.983-2.019 3.814-4.181 5.479-6.469 3.104-4.69 5.042-10.053 5.652-15.644.337-2.777.337-5.584 0-8.361-.74-4.941-2.531-9.666-5.252-13.857-1.956-2.965-4.297-5.657-6.962-8.007-6.89-6.84-13.76-13.7305-20.498-20.7221-1.469-1.6356-3.266-2.9439-5.273-3.8399-2.008-.8959-4.182-1.3595-6.38-1.3607h-.093l-.746.1012z" fill="#fff" fill-rule="evenodd"/></g></svg>