<svg fill="none" height="250" viewBox="0 0 250 250" width="250" xmlns="http://www.w3.org/2000/svg" xmlns:xlink="http://www.w3.org/1999/xlink"><clipPath id="a"><path d="m0 0h250v250h-250z"/></clipPath><g clip-path="url(#a)"><path d="m125 250c69.036 0 125-55.964 125-125 0-69.0356-55.964-125-125-125-69.0356 0-125 55.9644-125 125 0 69.036 55.9644 125 125 125z" fill="#2e3148"/><path d="m125 197.532c40.058 0 72.531-32.474 72.531-72.531 0-40.0581-32.473-72.5313-72.531-72.5313-40.0572 0-72.5303 32.4732-72.5303 72.5313 0 40.057 32.4731 72.531 72.5303 72.531z" fill="#1b1e36"/><g fill="#6f7390"><path d="m125.254 15.9473c-13.493 0-24.434 48.94-24.434 109.3107 0 60.371 10.941 109.311 24.434 109.311s24.434-48.94 24.434-109.311c0-60.3707-10.941-109.3107-24.434-109.3107zm1.687 212.4527c-1.543 2.058-3.086.514-3.086.514-6.214-7.2-9.321-20.576-9.321-20.576-10.869-34.979-8.282-110.0817-8.282-110.0817 5.108-59.624 14.4-73.709 17.562-76.836.323-.3191.748-.5141 1.201-.5507.452-.0366.903.0876 1.273.3507 4.588 3.251 8.436 16.847 8.436 16.847 11.363 42.181 10.334 81.7897 10.334 81.7897 1.029 34.465-5.694 73.045-5.694 73.045-5.175 29.32-12.423 35.498-12.423 35.498z"/><path d="m220.075 70.859c-6.718-11.708-54.609 3.158-107 33.2-52.3914 30.042-89.3474 63.889-82.6344 75.592s54.609-3.158 107.0004-33.2c52.391-30.042 89.347-63.889 82.634-75.592zm-183.4364 107.186c-2.572-.324-1.991-2.438-1.991-2.438 3.155-8.971 13.195-18.323 13.195-18.323 24.943-26.836 91.3794-61.965 91.3794-61.965 54.254-25.242 71.106-24.177 75.381-23 .438.1225.82.3963 1.076.773s.371.8319.324 1.285c-.514 5.6-10.417 15.7-10.417 15.7-30.912 30.859-65.783 49.681-65.783 49.681-29.383 18.05-66.1934 31.409-66.1934 31.409-28.009 10.093-36.97 6.878-36.97 6.878z"/><path d="m219.832 180.04c6.77-11.677-30.093-45.679-82.299-75.946-52.2071-30.2681-100.0918-45.3179-106.8557-33.621-6.764 11.6968 30.0928 45.678 82.3297 75.946 52.236 30.268 100.061 45.319 106.825 33.621zm-184.6688-105.0551c-1-2.371 1.111-2.942 1.111-2.942 9.346-1.7649 22.4739 2.257 22.4739 2.257 35.7147 8.1329 99.3989 48.0241 99.3989 48.0241 49.033 34.311 56.553 49.424 57.68 53.714.115.44.07.906-.126 1.317-.195.41-.53.738-.944.926-5.113 2.341-18.807-1.147-18.807-1.147-42.207-11.317-75.961-32.052-75.961-32.052-30.3291-16.358-60.3189-41.527-60.3189-41.527-22.7879-19.1872-24.4999-28.5441-24.4999-28.5441z"/></g><g fill="#b7b9c8"><path d="m125.002 137.86c7.102 0 12.86-5.758 12.86-12.86s-5.758-12.86-12.86-12.86c-7.103 0-12.86 5.758-12.86 12.86s5.757 12.86 12.86 12.86z"/><path d="m177.727 83.333c4.119 0 7.459-3.4546 7.459-7.716 0-4.2615-3.34-7.716-7.459-7.716-4.12 0-7.459 3.4545-7.459 7.716 0 4.2614 3.339 7.716 7.459 7.716z"/><path d="m55.3008 109.568c4.1195 0 7.459-3.455 7.459-7.716 0-4.2614-3.3395-7.716-7.459-7.716s-7.459 3.4546-7.459 7.716c0 4.261 3.3395 7.716 7.459 7.716z"/><path d="m109.826 204.218c4.119 0 7.459-3.455 7.459-7.716s-3.34-7.716-7.459-7.716c-4.12 0-7.46 3.455-7.46 7.716s3.34 7.716 7.46 7.716z"/></g></g></svg>