<svg width="250" height="250" viewBox="0 0 250 250" fill="none" xmlns="http://www.w3.org/2000/svg">
<g clip-path="url(#clip0_9_667)">
<g clip-path="url(#clip1_9_667)">
<path d="M125 249.867C193.962 249.867 249.867 193.962 249.867 125C249.867 56.0376 193.962 0.132568 125 0.132568C56.0376 0.132568 0.132568 56.0376 0.132568 125C0.132568 193.962 56.0376 249.867 125 249.867Z" fill="#008DE4"/>
<path d="M151.723 55.0637H88.9715L83.7753 84.1199L140.403 84.1995C168.293 84.1995 176.538 94.3267 176.299 111.108C176.167 119.724 172.455 134.279 170.838 138.998C166.543 151.564 157.715 165.933 124.629 165.88L69.5918 165.854L64.3691 194.936H126.962C149.046 194.936 158.431 192.365 168.372 187.778C190.43 177.598 203.553 155.833 208.802 127.439C216.623 85.1539 206.867 55.0637 151.723 55.0637" fill="white"/>
<path d="M61.9034 110.419C45.4665 110.419 43.107 121.129 41.5694 127.598C39.528 136.082 38.8652 139.502 38.8652 139.502H103.102C119.539 139.502 121.898 128.791 123.436 122.322C125.477 113.839 126.14 110.419 126.14 110.419H61.9034Z" fill="white"/>
</g>
</g>
<defs>
<clipPath id="clip0_9_667">
<rect width="250" height="250" fill="white"/>
</clipPath>
<clipPath id="clip1_9_667">
<rect width="250" height="250" fill="white"/>
</clipPath>
</defs>
</svg>
