<svg fill="none" height="250" viewBox="0 0 250 250" width="250" xmlns="http://www.w3.org/2000/svg" xmlns:xlink="http://www.w3.org/1999/xlink"><clipPath id="a"><path d="m0 0h250v250h-250z"/></clipPath><g clip-path="url(#a)"><path d="m125 249.75c66.65 0 120.7-53.6 120.7-119.7s-54.05-119.7-120.7-119.7c-66.65.05-120.69995 53.6-120.69995 119.7s54.04995 119.7 120.69995 119.7z" fill="#ecf3ff"/><path d="m92.3999 57.05-42.25-16.75v6l36.2 32.3-2.4 33.5-10.85 45.5-14.5 20.35 3.6 28.7 18.1 2.4 14.5-2.4 14.5001 2.4 25.35-15.55 4.85-25.15 30.15-28.7 13.25 9.55 13.25 19.15v38.3l18.1-4.8 18.1-39.5 4.85-50.25-65.15-94.55-10.85-2.4z" fill="#fff"/><g fill="#94a6c4"><path d="m28.4499 126.25c.5-4.05.7-8.15 1.95-11.95 3.4-15.8 9.9-30.9 19.55-43.1 1.7-2.15 3.15-4.05 5.05-6l-10.85-10.05c-1.95 2.85-3.85 5.75-5.55 8.6-8.95 15.3-13.75 32.55-14.95 49.55-.5 4.3-.25 8.6-.25 12.7 0 4.3.5 8.4 1.2 12.7 1.2 8.4 3.4 16.5 6.3 24.2-1.95-8.15-2.9-16.3-3.15-24.65-.05-3.9-.05-7.95.7-12z"/><path d="m77.9499 48.7001c-6.05-2.8501-14.4999-6.7-20.4999-9.55 5.55-5.25 15.6999-10.7501 24.1499-14.3501-6.1 4.75-6.1 14.8-3.65 23.9001z"/><path d="m53.55 89.35c-3.4 8.4-5.55 17.25-6.3 25.85-.25 2.15-.5 4.3-.25 6.45 0 2.15 0 4.3.25 6.45l.25 3.4c0 .95.25 2.15.5 3.1l.95 6.45.25-6.45c0-.95 0-2.15.25-3.1l.5-3.1c.25-2.15.7-4.3.95-6.2.25-2.15.95-4.05 1.45-6 2.15-8.15 5.8-15.55 10.15-22.5 2.9-4.55 6.3-8.6 9.9-12.45l-9.4-8.85c-4.15 5.5-7.05 11-9.45 16.95z"/><path d="m193.3 48.45c-12.8-4.55-17.85-3.1-17.85-3.1s-7.95 21.3-38.4 22.75c.25.2 27.55 16 56.25-19.65z"/><path d="m202 90.8c-1.2 26.35-21.7 36.15-37.65 34.25-8.7-1.2-21.5 2.85-21.5 2.85l-16.15 27.75-5.3 1.9 9.15-16.75s-21.7 7.9-23.4 8.6-8.4499 10.55-13.9999 20.8c-1.2-7.2-5.8-12.2-5.8-12.45 0 1.2 2.4 22.75-.25 28.7-2.65 6.2-14.5 10.3-14.5 10.3l17.4 6.45 1.2.5 13.0499-12.2 4.85-18.2 6.05-4.3s14.95-1.7 12.8 11.75c-.95 6.45-8.2 6-16.4 11-4.85 2.85-11.1 7.4-14.2499 10.55l8.6999 6.2s10.4-1.7 25.1-13.15c14.95-11.95 7.5-24.9 7.5-24.9l24.4-28.95 15.95 1.2s27.5 6.95 36.45 32.8c17.75-49.5-11-82.3-13.4-84.7z"/></g><g fill="#1c324f"><path d="m230 70.25c4.35 1.9 7.7 4.8 10.85 7.4-21.7-74.69995-92.2-66.3-93.65-65.85 1.7-2.64995 7.95-6.69996 13.75-8.84996 0 0-29.95-10.55-57.2 8.14996.5-4.29995 5.8-10.749956 5.8-10.749956-37.65 15.999956-40.05 35.149956-32.8 46.649956-6.05-2.85-12.0499-5.5-18.0999-8.4-18.6001-8.85-34.5001-16.3-35.5001-16.5-1.7-.5-2.4.25-2.4.25s-.7499.7.7001 2.15c21.95 21.8 35.9499 34.95 59.3499 56.25-3.8499 8.6-4.3499 12.95-2.4 17.45 2.65 6.2 2.4 9.35 1.45 13.4-1.2 4.05-10.8499 40.2-12.5499 44.3-1.7 4.3-14.5001 18.65-14.7001 23.45-.25 4.8 3.6001 25.85 8.95 28.95 4.1 2.15 14 6.7 21.25 7.65 2.4001.5 4.85.25 6.05-.7 4.85-3.1 6.05-3.6 9.15-3.35l.7.25c1.2.25 2.65.7 4.6.95 4.1.5 9.4.5 13.75-2.4 6.3-4.8 16.9-10.75 20.5-13.9 4.35-4.3 7.25-10.3 7.25-17 0-6 4.1-10.75 8.7-15.55 4.35-4.3 15.2-14.85 19.55-19.4 11.1 3.85 15.2 19.65 15.2 28.25 0 23.95-19.55 58.9-64.45 61.5-1.7 0-3.4.25-5.3.25-58.4 0-106.2-51.2-106.2-111.3 0-47.4 28.7-79.5 28.95-79.75-23.2 21.85-36.94995 52.25-36.94995 86.25 0 66.05 54.04995 119.7 120.69995 119.7s120.7-53.65 120.7-119.7c0-21.55-5.55-42.35-15.7-59.8zm-164.8499-15.35c-3.4001-2.85-6.75-5.75-10.1501-8.6 4.6 2.4 9.1501 4.8 13.25 6.95 12.55 6.45 22.95 12.2001 24.85 13.65 0 0 .25.25.5.5 1.2 1.45 2.4 3.85.25 6.95-1.2 1.7-2.65 1.2-4.85-.25-1.9-1.25-12.2499-9.3999-23.8499-19.2zm70.2499 124.45c0 4.05-1.95 7.65-4.35 10.3-1.2 1.2-6.05 4.3-9.4 6.45-3.4 2.4-7 4.55-9.9 6.7-1.2.7-3.15 1.2-6.3.7l-7.5-.95c4.6-4.55 17.15-14.35 21.25-16.3 4.85-2.4 7.7-5.05 5.55-10.55-1.95-5.75-9.4-5.5-9.4-5.5s4.6-1.2 8.2-.7c-4.6-1.9-10.85-1.45-14 .7-3.4 2.4-4.35 12.2-6.5 18.2-2.15 6.2-7 8.85-14.25 13.9-4.0999 2.65-6.75 3.35-8.7 3.1-4.1-1.2-8.9499-3.35-12.2999-5.05-1.95-3.6-4.35-14.85-4.6-19.4.95-2.4 4.8499-7.2 6.7499-10.05 3.85-5.25 6.05-8.4 7-11.25 1.7-4.05 8.7-29.7 11.35-40.45 2.6501 4.55 6.3 12.2 4.6 16.5 8.7-9.1 4.85-19.85 2.9-24.2-1.6999-4.3-3.5999-12.7.25-20.8 3.6-8.15 16.15-30.15 16.15-30.15s2.15 5.75 6.75 5.25c4.35-.5 46.1-46.9 46.1-46.9s6.5 21.55-5.55 34.7-22.2 14.6-22.2 14.6 13.5 4.3 27.5-2.85c3.6 12.95 6.75 26.35 6.75 28-.95 1.7-14.5 24.2-15.7 25.6-.5.5-4.35.95-6.75.95-4.35.7-7 .95-8.2 1.7-1.95 1.2-13.05 22-18.35 32.05-4.85.7-9.65 2.4-13.5 6.95 1.95-.95 7.5-.95 11.6-.95 3.6.25 13.5 7.4 14.7 18.65.05.85.05.85.05 1.05zm-28.25 10.05c2.65-2.85 3.15-8.4 3.6-10.05.5-1.7 1.45-4.8 3.6-5.05s6.75 1.2 6.3 4.8c-.5 3.35-4.1 3.6-7 5.25-1.9 1.25-6.05 4.6-6.5 5.05zm105 3.15c-2.9-30.65-24.15-45-33.55-49.8 10.85-1.2 38.85-9.55 23.4-51.95.5 1.9001 4.85 23-7.5 34-12.55 11.25-30.9 6.45-33.05 6.45-1.95-.25-11.1 8.6-23.65 25.6-1.2-.7-6.3-2.65-12.55-2.4 6.3-11.75 15.7-28.5 17.15-29.9.5-.5 4.6-.95 7-1.2 4.85-.5 7.25-.95 8.2-1.9.5-.7 3.85-6 7.25-11.75 2.15.25 7.95.7 8.7.5.5-.5 7-11.95 7.25-13.4.25-.9499-4.35-18.9-7.25-30.4 59.6 28 69 89.75 38.6 126.15z"/><path d="m154.7 50.1c6.75-6 5.8-16.3 5.8-16.3l-20.25 22.25c-.3.05 6 1.25 14.45-5.95z"/><path d="m78.8999 176.75 3.4-9.55s-10.4 13.15-11.35 15.1c-.95 2.15-.5 6.2 2.9 6.45s7.95-4.05 8.45-7.4c.7-4.6-3.4-4.6-3.4-4.6z"/><path d="m110.75 118.8c7.25-.7 20.25-6.45 25.85-11 5.55-4.8 4.6-15.3-4.1-18.45 2.9-4.8 7.7-14.85 7.7-14.85s-31.15 36.15-33.55 36.6c-2.4.5-3.4-8.6-3.4-8.6-7.1999 17.5 5.1 21.8 7.5 16.3z"/></g><path d="m113.4 114.25 16.15-20.35s7 4.8 2.4 10.3c-5.75 6.45-18.55 10.05-18.55 10.05z" fill="#ffd925"/><g fill="#d82423"><path d="m156.4 23.55-11.1 11.95c-8.95 2.65-17.6 7.4-25.85 15.3 0-4.5 13.3-24.4 36.95-27.25z"/><path d="m170.4 33.85c.25-3.1 0-6.7-.5-10.05 14.5 1.9 31.6 10.3001 51.15 29.2001-16.15-8.85-33.3-17.0001-50.65-19.1501z"/><path d="m174.75 49.4s53.8 23.45 63.7 89.3c1.45-85.7-59.85-90-63.7-89.3z"/><path d="m96.2999 11.6c-.7 1.9-31.15 34.25 6.7501 46.9-20.7501-18.45-7.0001-46.7-6.7501-46.9z"/><path d="m112.45 53.45s3.15-36.6 25.35-46.45c-1.7.5-46.7999 14.15-25.35 46.45z"/></g></g></svg>