<svg width="24" height="24" fill="none" xmlns="http://www.w3.org/2000/svg"><path d="M11.684 1.488c.058 0 .114.015.166.044l8.8 5.12a.33.33 0 0 1 .163.286l-.032 10.179a.332.332 0 0 1-.167.286l-8.834 5.062a.337.337 0 0 1-.333 0l-8.796-5.12a.33.33 0 0 1-.163-.286l.032-10.18c0-.116.064-.227.166-.285l8.835-5.062a.319.319 0 0 1 .163-.044ZM11.69 0c-.315 0-.627.079-.91.24L1.944 5.3a1.815 1.815 0 0 0-.913 1.573L1 17.053c-.003.65.341 1.251.904 1.578l8.8 5.12a1.817 1.817 0 0 0 1.818.009l8.833-5.062c.563-.324.913-.922.913-1.572l.033-10.18a1.814 1.814 0 0 0-.905-1.578L12.597.248A1.8 1.8 0 0 0 11.69 0Z" fill="#1B4ADD"/><path d="M13.472 5.55h-1.29a.23.23 0 0 0-.215.15L7.818 17.07a.116.116 0 0 0 .108.155h1.29a.23.23 0 0 0 .216-.152l4.148-11.37a.116.116 0 0 0-.108-.154Zm-2.255 0h-1.29a.23.23 0 0 0-.215.15L5.563 17.07a.116.116 0 0 0 .108.155h1.29a.23.23 0 0 0 .215-.152l4.149-11.37a.116.116 0 0 0-.108-.154Zm1.669 4.407c-.038-.102-.181-.102-.216 0l-.671 1.838a.243.243 0 0 0 0 .158l1.867 5.12a.23.23 0 0 0 .216.152h1.29a.116.116 0 0 0 .108-.155l-2.594-7.113Zm4.852 7.113L14.015 6.868c-.038-.102-.18-.102-.216 0l-.67 1.838a.242.242 0 0 0 0 .157l2.995 8.213a.23.23 0 0 0 .216.152h1.29a.119.119 0 0 0 .108-.158Z" fill="#1B4ADD"/></svg>
