<svg fill="none" height="250" viewBox="0 0 250 250" width="250" xmlns="http://www.w3.org/2000/svg" xmlns:xlink="http://www.w3.org/1999/xlink"><clipPath id="a"><path d="m0 0h250v250h-250z"/></clipPath><g clip-path="url(#a)"><circle cx="125" cy="125" fill="#fff" r="125"/><g fill="#21242f"><path d="m207.002 94.6208-59.468-31.7872c-1.274-.6856-2.918-.2805-3.656.9038-.436.6856-.469 1.527-.134 2.2749l24.418 50.5787c.603 1.247 2.18 1.808 3.521 1.247.068-.031.168-.062.235-.125l35.084-18.7916c1.274-.6856 1.71-2.2127.972-3.3969-.234-.374-.57-.6856-.972-.9037z"/><path d="m81.8666 116.57 24.3804-50.5464c.604-1.2457 0-2.7095-1.341-3.3012-.772-.3426-1.711-.2803-2.448.1245l-59.4597 31.7978c-1.2744.7163-1.7103 2.2423-.9726 3.4258.2348.3737.5702.6851.9726.9032l35.1122 18.7483c1.2744.685 2.9177.28 3.6555-.903.0335-.093.067-.156.1006-.249z"/><path d="m123.001 190.607-25.5771-62.219c-.2686-.65-.2686-1.431 0-2.081l25.5771-62.2518c.537-1.3009 1.94-1.9189 3.133-1.3334.537.2601.985.748 1.224 1.3334l25.219 62.4138c.268.651.268 1.431 0 2.082l-25.219 62.023c-.537 1.301-1.94 1.919-3.164 1.334-.537-.26-.955-.716-1.193-1.301z"/></g></g></svg>