<svg width="24" height="24" fill="none" xmlns="http://www.w3.org/2000/svg"><path d="M22.973 11.255c-.412-6.062-5.66-10.64-11.72-10.229a10.972 10.972 0 0 0-7.52 3.719l-.005-.004-.036.05a10.971 10.971 0 0 0-2.572 8.807c0 .014.004.025.006.038a10.836 10.836 0 0 0 .209 1.049c1.27 5.065 6.016 8.653 11.412 8.286 6.06-.412 10.64-5.659 10.228-11.72l-.003.004Zm-2.395.163a8.553 8.553 0 0 1-.13 2.18c0-.003-.003-.007-.003-.011-.799-1.948-2.376-3.357-3.762-4.134.28-3.302-.84-4.695-2.108-4.921a1.835 1.835 0 0 0-2.111 2.287 1.836 1.836 0 0 0 1.8 1.354 6.9 6.9 0 0 1 .01.353 9.852 9.852 0 0 0-3.269-.257c-.376.024-.75.072-1.12.14.125-1.114.544-2.367 1.356-3.282a3.766 3.766 0 0 1 3.224-1.264 3.487 3.487 0 0 1 .763.172c2.948 1.2 5.119 4 5.348 7.383h.002Zm-7.667 1.68-.002.003c-.278.4-.594.772-.942 1.113a8.185 8.185 0 0 1-1.325-1.866c-.017-.036-.036-.068-.053-.103v-.004a7.875 7.875 0 0 1-.493-1.373 8.174 8.174 0 0 1 2.28-.216l.117.006h.003c.46.037.938.122 1.433.258a8.201 8.201 0 0 1-1.017 2.18l-.002.002ZM9.152 3.886l-.006.008c-1.29 1.664-1.719 3.733-1.7 5.321-3 1.409-3.644 3.075-3.208 4.287.011.034.025.066.038.098a1.839 1.839 0 0 0 3.39-1.417 1.92 1.92 0 0 0-.118-.232c.094-.062.196-.124.305-.188a9.851 9.851 0 0 0 1.408 2.963c.21.31.435.61.681.898-1.027.45-2.323.713-3.522.469a3.77 3.77 0 0 1-2.707-2.162 3.493 3.493 0 0 1-.226-.713 8.719 8.719 0 0 1-.07-.634c-.267-3.94 2.177-7.448 5.735-8.698Zm3.43 16.693a8.563 8.563 0 0 1-6.18-2.058c2.085.285 4.092-.378 5.46-1.19 2.72 1.896 4.485 1.621 5.317.637a1.835 1.835 0 0 0-.282-2.659 1.839 1.839 0 0 0-2.576.349c-.052.07-.1.145-.14.22a6.8 6.8 0 0 1-.313-.17 9.826 9.826 0 0 0 1.858-2.703c.165-.338.311-.686.436-1.04.904.666 1.781 1.654 2.17 2.815a3.768 3.768 0 0 1-.518 3.425 3.491 3.491 0 0 1-.505.551l-.007.008a8.545 8.545 0 0 1-4.718 1.813l-.002.002Z" fill="url(#a)"/><path style="mix-blend-mode:overlay" opacity=".9" d="M14.575 4.53a1.786 1.786 0 0 0-.626-.007c1.053.572 1.82 2.166 1.417 5.314a9.413 9.413 0 0 1-.89 2.944 9.803 9.803 0 0 1-1.52 2.33c.291.22.596.42.913.601a9.826 9.826 0 0 0 1.858-2.703c.457-.925.758-1.92.89-2.944.48-3.747-.698-5.294-2.042-5.533V4.53Z" fill="url(#b)"/><path d="M15.365 9.835c.403-3.146-.363-4.742-1.416-5.314-.041.005-.08.015-.122.024 1.03.593 1.771 2.185 1.374 5.29a9.414 9.414 0 0 1-.89 2.945 9.755 9.755 0 0 1-1.455 2.255l.1.075a9.841 9.841 0 0 0 1.519-2.33 9.358 9.358 0 0 0 .89-2.945Z" fill="#fff" style="mix-blend-mode:overlay" opacity=".8"/><path style="mix-blend-mode:overlay" opacity=".5" d="M11.364 16.972c-.1-.075-.193-.155-.29-.234-1.552.648-3.704 1.054-5.843.558.348.446.74.856 1.17 1.225 2.085.284 4.092-.378 5.459-1.19a16.318 16.318 0 0 1-.497-.361l.002.002Z" fill="url(#c)"/><path style="mix-blend-mode:overlay" opacity=".6" d="m11.076 16.738-.14-.118c-1.565.625-3.728 1-5.861.467l.158.209c2.137.496 4.29.09 5.843-.558Z" fill="url(#d)"/><path style="mix-blend-mode:overlay" opacity=".9" d="M4.241 13.504c.011.034.025.066.038.098.07.166.16.314.27.448-.031-1.197.967-2.66 3.892-3.884a9.393 9.393 0 0 1 2.995-.7 9.755 9.755 0 0 1 2.779.15 8.45 8.45 0 0 0 .062-1.09 9.81 9.81 0 0 0-3.27-.257 9.405 9.405 0 0 0-2.995.7c-3.484 1.457-4.236 3.251-3.77 4.537v-.002Z" fill="url(#e)"/><path d="M8.441 10.168c-2.925 1.224-3.923 2.687-3.893 3.884.026.032.055.062.083.092-.002-1.188 1.007-2.626 3.893-3.835a9.394 9.394 0 0 1 2.995-.7 9.796 9.796 0 0 1 2.68.132c.007-.041.012-.083.016-.124a9.825 9.825 0 0 0-2.779-.15 9.406 9.406 0 0 0-2.995.7v.001Z" fill="#fff" style="mix-blend-mode:overlay" opacity=".8"/><path style="mix-blend-mode:overlay" opacity=".4" d="M16.62 10.063c-.014.124-.035.244-.056.367 1.337 1.02 2.766 2.683 3.406 4.781.212-.525.371-1.07.477-1.626-.797-1.948-2.374-3.355-3.76-4.132-.017.198-.038.399-.064.61h-.002Z" fill="url(#f)"/><path style="mix-blend-mode:overlay" opacity=".5" d="M16.564 10.43c-.01.06-.02.122-.032.183 1.324 1.042 2.73 2.728 3.334 4.841.036-.08.07-.162.102-.242-.64-2.1-2.067-3.76-3.406-4.782h.002Z" fill="url(#g)"/><path style="mix-blend-mode:overlay" opacity=".9" d="M17.18 17.966a1.88 1.88 0 0 0 .32-.539c-1.022.625-2.787.492-5.31-1.43a9.36 9.36 0 0 1-2.105-2.245 9.768 9.768 0 0 1-1.26-2.48 8.705 8.705 0 0 0-.977.49 9.851 9.851 0 0 0 1.412 2.962 9.387 9.387 0 0 0 2.105 2.244c3.004 2.29 4.934 2.043 5.813.997h.002Z" fill="url(#h)"/><path d="M12.191 15.997c2.522 1.922 4.288 2.055 5.31 1.43.015-.039.028-.079.04-.116-1.028.597-2.779.44-5.268-1.455a9.36 9.36 0 0 1-2.104-2.244 9.773 9.773 0 0 1-1.226-2.387c-.04.016-.077.031-.114.048a9.769 9.769 0 0 0 1.259 2.482 9.388 9.388 0 0 0 2.105 2.244l-.002-.002Z" fill="#fff" style="mix-blend-mode:overlay" opacity=".8"/><path style="mix-blend-mode:overlay" opacity=".3" d="M8.01 8.965c.115-.047.23-.09.346-.133.215-1.668.94-3.737 2.438-5.34a8.82 8.82 0 0 0-1.647.4c-1.29 1.664-1.72 3.733-1.7 5.322.179-.084.365-.168.561-.248h.002Z" fill="url(#i)"/><path style="mix-blend-mode:overlay" opacity=".4" d="M8.356 8.832c.058-.021.115-.044.173-.064.24-1.669.998-3.728 2.525-5.31-.087.01-.174.021-.26.033C9.295 5.095 8.57 7.16 8.356 8.83v.002Z" fill="url(#j)"/><path style="mix-blend-mode:multiply" opacity=".4" d="M11.254 1.026a10.97 10.97 0 0 0-7.521 3.719l-.041.046c.359.358 1.537 1.062 2.014 1.356a8.591 8.591 0 0 1 3.449-2.26c.092-.121.19-.24.292-.355 1.242-1.402 2.939-2.142 4.908-2.142.218 0 .664.036.673.036a10.925 10.925 0 0 0-3.774-.4Z" fill="url(#k)"/><path style="mix-blend-mode:multiply" opacity=".4" d="M12.583 20.58a8.564 8.564 0 0 1-6.18-2.057 6.592 6.592 0 0 1-.464-.077c-1.835-.375-3.326-1.474-4.309-3.178a6.46 6.46 0 0 1-.296-.58c1.271 5.066 6.017 8.654 11.41 8.287.025-.555-.139-1.844-.163-2.394h.002Z" fill="url(#l)"/><path style="mix-blend-mode:multiply" opacity=".4" d="M22.973 11.255c-.339-.035-1.988.096-2.395.163a8.528 8.528 0 0 1-.13 2.18c.057.14.111.283.16.428.593 1.777.386 3.616-.596 5.322-.11.187-.227.37-.354.546 0 0 .005-.004.007-.008a10.97 10.97 0 0 0 3.308-8.63v-.001Z" fill="url(#m)"/><path style="mix-blend-mode:multiply" opacity=".5" d="M14.467 3.862a3.495 3.495 0 0 1 .763.17A8.647 8.647 0 0 1 17.8 5.66c.362-.412 1.056-.865 1.056-.865s-1.063-1.089-2.691-1.427c-1.14-.238-3.71-.465-5.33 2.292l.015-.014a4.58 4.58 0 0 1 .391-.52 3.765 3.765 0 0 1 3.225-1.263Z" fill="url(#n)"/><path style="mix-blend-mode:multiply" opacity=".5" d="M17.814 18.207a3.5 3.5 0 0 1-.504.551c-.007.008-.017.015-.025.023a8.657 8.657 0 0 1-2.688 1.41l-.006.002c.178.52.223 1.348.223 1.348s1.474-.377 2.581-1.617c.774-.868 2.257-2.98.68-5.763 0 0 .001.01.005.02.098.195.186.394.254.6a3.767 3.767 0 0 1-.518 3.424l-.002.002Z" fill="url(#o)"/><path style="mix-blend-mode:multiply" opacity=".5" d="M3.718 13.935a3.493 3.493 0 0 1-.226-.713l-.007-.034a8.673 8.673 0 0 1 .122-3.033v-.006c-.538-.105-1.278-.481-1.278-.481s-.41 1.466.111 3.044c.365 1.104 1.451 3.445 4.65 3.47l-.021-.007a4.652 4.652 0 0 1-.645-.079 3.773 3.773 0 0 1-2.708-2.16h.002Z" fill="url(#p)"/><path style="mix-blend-mode:multiply" opacity=".6" d="M14.004 8.158c.089.01.175.015.26.013 0 0-.058-1.143-.198-1.73-.14-.586-.348-.976-.574-1.196-.164-.158-.678-.354-1.077.855a1.835 1.835 0 0 0 1.59 2.056v.002Z" fill="url(#q)"/><path style="mix-blend-mode:multiply" opacity=".5" d="M7.67 12.186a1.906 1.906 0 0 0-.119-.231s-.962.621-1.399 1.035c-.436.414-.67.79-.747 1.096-.055.22.032.762 1.278.504a1.838 1.838 0 0 0 .987-2.404Z" fill="url(#r)"/><path style="mix-blend-mode:multiply" opacity=".6" d="M14.324 15.656c-.052.07-.1.145-.14.22 0 0 1.018.522 1.596.693.578.171 1.018.186 1.321.1.219-.062.644-.41-.201-1.36a1.837 1.837 0 0 0-2.576.349v-.002Z" fill="url(#s)"/><path style="mix-blend-mode:multiply" opacity=".3" d="M13.93 10.918A8.176 8.176 0 0 1 12.976 13l-.064.098-.002.003c-.278.4-.593.772-.941 1.113.252.267.523.527.822.774.34.267.7.509 1.077.722a9.826 9.826 0 0 0 1.858-2.703c.166-.338.312-.686.437-1.041a5.892 5.892 0 0 0-1.14-.666 8.372 8.372 0 0 0-1.097-.382h.003Z" fill="url(#t)"/><path style="mix-blend-mode:multiply" opacity=".3" d="M6.403 18.523c2.085.284 4.092-.378 5.46-1.19a16.15 16.15 0 0 1-.498-.361 9.377 9.377 0 0 1-1.423-1.346c-1.028.45-2.323.713-3.522.468a3.772 3.772 0 0 1-2.708-2.16c-.1-.23-.176-.469-.225-.714A8.57 8.57 0 0 0 6.4 18.523h.002Z" fill="url(#u)"/><path style="mix-blend-mode:multiply" opacity=".3" d="M11.97 14.214a8.182 8.182 0 0 1-1.326-1.866c-.017-.036-.036-.068-.053-.103v-.004a7.876 7.876 0 0 1-.493-1.373c-.358.085-.717.19-1.079.326-.401.16-.79.35-1.163.569a9.86 9.86 0 0 0 1.408 2.963c.209.31.435.61.682.898a5.84 5.84 0 0 0 1.148-.655c.309-.233.602-.486.877-.757l-.002.002Z" fill="url(#v)"/><path style="mix-blend-mode:multiply" opacity=".3" d="M9.148 3.893c-1.29 1.665-1.72 3.734-1.7 5.322.186-.087.373-.17.563-.25a9.26 9.26 0 0 1 1.874-.559c.125-1.115.545-2.368 1.356-3.283a3.765 3.765 0 0 1 3.225-1.263 3.495 3.495 0 0 1 .762.171 8.562 8.562 0 0 0-6.077-.145l-.006.007h.003Z" fill="url(#w)"/><path style="mix-blend-mode:multiply" opacity=".3" d="M20.447 13.583c-.798-1.948-2.376-3.357-3.762-4.134-.017.198-.037.401-.066.614a9.322 9.322 0 0 1-.453 1.903c.903.667 1.78 1.655 2.168 2.816a3.768 3.768 0 0 1-.517 3.425 3.49 3.49 0 0 1-.505.551l-.007.008a8.628 8.628 0 0 0 3.15-5.17c0-.003-.004-.007-.004-.01l-.005-.003Z" fill="url(#x)"/><path style="mix-blend-mode:multiply" opacity=".3" d="M9.88 9.731c.046.384.118.764.216 1.137a8.175 8.175 0 0 1 2.28-.216l.117.006h.003c.46.037.938.122 1.433.258.105-.352.194-.718.258-1.098.07-.474.09-.913.088-1.295a9.848 9.848 0 0 0-3.268-.258 9.6 9.6 0 0 0-1.12.141 5.757 5.757 0 0 0-.006 1.324l-.001.001Z" fill="url(#y)"/><defs><linearGradient id="a" x1="4.493" y1="19.508" x2="18.518" y2="5.481" gradientUnits="userSpaceOnUse"><stop stop-color="#E6007A"/><stop offset=".21" stop-color="#703AC2"/><stop offset=".46" stop-color="#0070EB"/><stop offset=".77" stop-color="#0297FB"/><stop offset="1" stop-color="#0AE2FF"/></linearGradient><linearGradient id="d" x1="5.301" y1="17.121" x2="7.647" y2="17.088" gradientUnits="userSpaceOnUse"><stop stop-color="#fff" stop-opacity="0"/><stop offset="1" stop-color="#fff"/></linearGradient><linearGradient id="g" x1="19.784" y1="15.239" x2="18.583" y2="13.224" gradientUnits="userSpaceOnUse"><stop stop-color="#fff" stop-opacity="0"/><stop offset="1" stop-color="#fff"/></linearGradient><linearGradient id="j" x1="10.912" y1="3.638" x2="9.768" y2="5.687" gradientUnits="userSpaceOnUse"><stop stop-color="#fff" stop-opacity="0"/><stop offset="1" stop-color="#fff"/></linearGradient><linearGradient id="k" x1="11.423" y1="2.597" x2="7.839" y2="3.639" gradientUnits="userSpaceOnUse"><stop stop-color="#231F20"/><stop offset="1" stop-color="#fff"/></linearGradient><linearGradient id="l" x1="4.651" y1="16.264" x2="7.649" y2="19.393" gradientUnits="userSpaceOnUse"><stop stop-color="#231F20"/><stop offset="1" stop-color="#fff"/></linearGradient><linearGradient id="m" x1="20.736" y1="15.793" x2="21.779" y2="12.623" gradientUnits="userSpaceOnUse"><stop stop-color="#231F20"/><stop offset="1" stop-color="#fff"/></linearGradient><linearGradient id="n" x1="13.055" y1="4.411" x2="17.86" y2="5.511" gradientUnits="userSpaceOnUse"><stop stop-color="#231F20"/><stop offset="1" stop-color="#fff"/></linearGradient><linearGradient id="o" x1="18.046" y1="16.709" x2="14.689" y2="20.321" gradientUnits="userSpaceOnUse"><stop stop-color="#231F20"/><stop offset="1" stop-color="#fff"/></linearGradient><linearGradient id="p" x1="4.899" y1="14.883" x2="3.451" y2="10.172" gradientUnits="userSpaceOnUse"><stop stop-color="#231F20"/><stop offset="1" stop-color="#fff"/></linearGradient><linearGradient id="q" x1="14.106" y1="6.183" x2="12.587" y2="7.704" gradientUnits="userSpaceOnUse"><stop stop-color="#231F20"/><stop offset="1" stop-color="#fff"/></linearGradient><linearGradient id="r" x1="5.91" y1="13.083" x2="7.986" y2="13.64" gradientUnits="userSpaceOnUse"><stop stop-color="#231F20"/><stop offset="1" stop-color="#fff"/></linearGradient><linearGradient id="s" x1="15.983" y1="16.732" x2="15.427" y2="14.657" gradientUnits="userSpaceOnUse"><stop stop-color="#231F20"/><stop offset="1" stop-color="#fff"/></linearGradient><linearGradient id="t" x1="12.823" y1="14.886" x2="13.736" y2="13.627" gradientUnits="userSpaceOnUse"><stop stop-color="#231F20"/><stop offset="1" stop-color="#fff"/></linearGradient><linearGradient id="u" x1="9.682" y1="14.34" x2="7.858" y2="15.21" gradientUnits="userSpaceOnUse"><stop stop-color="#231F20"/><stop offset="1" stop-color="#fff"/></linearGradient><linearGradient id="v" x1="9.019" y1="11.303" x2="9.584" y2="12.476" gradientUnits="userSpaceOnUse"><stop stop-color="#231F20"/><stop offset="1" stop-color="#fff"/></linearGradient><linearGradient id="w" x1="11.646" y1="7.681" x2="11.256" y2="6.335" gradientUnits="userSpaceOnUse"><stop stop-color="#231F20"/><stop offset="1" stop-color="#fff"/></linearGradient><linearGradient id="x" x1="15.859" y1="13.847" x2="16.988" y2="14.107" gradientUnits="userSpaceOnUse"><stop stop-color="#231F20"/><stop offset="1" stop-color="#fff"/></linearGradient><linearGradient id="y" x1="14.087" y1="10.031" x2="12.655" y2="9.771" gradientUnits="userSpaceOnUse"><stop stop-color="#231F20"/><stop offset="1" stop-color="#fff"/></linearGradient><radialGradient id="b" cx="0" cy="0" r="1" gradientUnits="userSpaceOnUse" gradientTransform="translate(15.136 9.773) scale(4.18306)"><stop stop-color="#fff"/><stop offset="1" stop-color="#fff" stop-opacity="0"/></radialGradient><radialGradient id="c" cx="0" cy="0" r="1" gradientUnits="userSpaceOnUse" gradientTransform="matrix(2.43414 0 0 2.43415 8.953 17.533)"><stop stop-color="#fff"/><stop offset="1" stop-color="#fff" stop-opacity="0"/></radialGradient><radialGradient id="e" cx="0" cy="0" r="1" gradientUnits="userSpaceOnUse" gradientTransform="rotate(-120 7.253 2.744) scale(4.18306)"><stop stop-color="#fff"/><stop offset="1" stop-color="#fff" stop-opacity="0"/></radialGradient><radialGradient id="f" cx="0" cy="0" r="1" gradientUnits="userSpaceOnUse" gradientTransform="rotate(-120 12.585 .649) scale(2.43414)"><stop stop-color="#fff"/><stop offset="1" stop-color="#fff" stop-opacity="0"/></radialGradient><radialGradient id="h" cx="0" cy="0" r="1" gradientUnits="userSpaceOnUse" gradientTransform="rotate(120 1.568 11.328) scale(4.18306)"><stop stop-color="#fff"/><stop offset="1" stop-color="#fff" stop-opacity="0"/></radialGradient><radialGradient id="i" cx="0" cy="0" r="1" gradientUnits="userSpaceOnUse" gradientTransform="rotate(120 2.461 5.818) scale(2.43414)"><stop stop-color="#fff"/><stop offset="1" stop-color="#fff" stop-opacity="0"/></radialGradient></defs></svg>
