<svg fill="none" height="250" viewBox="0 0 251 250" width="251" xmlns="http://www.w3.org/2000/svg"><rect fill="#fff" height="250" rx="125" width="250" x=".207031"/><path d="m183.554 74.3285v16.8523c-14.187 0-27.841 0-41.8 0v18.2102h41.519v29.1c-23.592 0-47.162 0-71.107 0 0-25.45 0-50.9177 0-76.6635h71.389c0 4.1731 0 8.0804-.001 12.501z" fill="#000"/><path d="m95.6709 192.63c-8.7359 0-16.9564 0-25.9042 0 0-10.798-.115-20.874.2111-30.935.0271-.834 3.0316-2.239 4.6626-2.253 18.5551-.163 37.1126-.11 55.6686-.107 11.4.001 11.398.007 11.396 11.426-.001 5.326-.167 10.66.064 15.977.189 4.354-1.315 6.072-5.894 5.986-13.225-.248-26.459-.091-40.2041-.094z" fill="#08e681"/></svg>