<svg fill="none" height="250" viewBox="0 0 250 250" width="250" xmlns="http://www.w3.org/2000/svg" xmlns:xlink="http://www.w3.org/1999/xlink"><clipPath id="a"><path d="m0 0h250v250h-250z"/></clipPath><g clip-path="url(#a)"><path clip-rule="evenodd" d="m125 0c69.097 0 125 55.9028 125 125 0 68.403-54.861 123.958-122.917 125h-2.083v-105.208l-15.972 15.972-2.084 39.583 16.667 49.653c-9.722 0-19.097-1.389-28.4721-3.819l-2.4306-.695-7.9861-23.958-22.5694 11.458c-8.3334-4.861-15.9722-10.417-22.9167-17.014l-1.7361-1.736 42.0139-21.18 1.3889-23.959-23.9584 1.389-21.1805 42.014c-6.5972-6.944-12.5-14.583-17.3611-22.569l-1.3889-2.084 11.4583-22.569-23.95831-7.986c-2.43056-9.375-3.819446-18.75-4.166668-28.125v-2.431l49.999978 16.667 39.5834-2.084 15.9724-15.972-15.9724-15.972-39.5834-2.083-50.3472 16.319c0-9.722 1.38889-19.444 3.47222-28.4721l.69445-2.4306 23.95833-7.9861-11.4583-22.5694c4.8611-8.3334 10.4166-15.9722 17.0139-22.9167l1.7361-1.7361 21.1805 42.0139 23.9584 1.3889-1.3889-23.9584-42.0139-21.1805c6.9444-6.5972 14.5833-12.5 22.5694-17.3611l2.0834-1.3889 22.5694 11.4583 7.9861-23.95831c9.3749-2.43056 18.7499-3.819446 28.1249-4.166668h2.431l-16.667 49.652778 2.083 39.5833 15.973 15.9727c.694-.348.694-105.556.694-105.556zm27.778 31.9444v186.4586c39.93-12.153 69.444-49.306 69.444-93.403 0-43.4028-28.819-80.2083-68.055-92.7083z" fill="#ff00af" fill-rule="evenodd"/></g></svg>