<svg fill="none" height="250" viewBox="0 0 250 250" width="250" xmlns="http://www.w3.org/2000/svg" xmlns:xlink="http://www.w3.org/1999/xlink"><radialGradient id="a" cx="0" cy="0" gradientTransform="matrix(0 -89.1306 116.489 0 125.112 218.794)" gradientUnits="userSpaceOnUse" r="1"><stop offset=".203695" stop-color="#56f2ff"/><stop offset="1" stop-color="#4a8cea"/></radialGradient><radialGradient id="b" cx="0" cy="0" gradientTransform="matrix(.07568031 26.98289387 -51.08479907 .14328016 125.006 103.869)" gradientUnits="userSpaceOnUse" r="1"><stop offset="0" stop-color="#eeff83"/><stop offset=".689596" stop-color="#5699ec"/></radialGradient><radialGradient id="c" cx="0" cy="0" gradientTransform="matrix(.08779079 31.43767742 -59.27726887 .16553379 125.024 115.398)" gradientUnits="userSpaceOnUse" r="1"><stop offset="0" stop-color="#56f2ff"/><stop offset="1" stop-color="#5699ec"/></radialGradient><linearGradient id="d" gradientUnits="userSpaceOnUse" x1="148.663" x2="148.663" y1="31.2891" y2="130.927"><stop offset=".377179" stop-color="#ffe336"/><stop offset="1" stop-color="#13c0b6" stop-opacity=".7"/></linearGradient><linearGradient id="e" gradientUnits="userSpaceOnUse" x1="101.316" x2="101.316" y1="31.25" y2="130.929"><stop offset=".408817" stop-color="#ff7f72"/><stop offset="1" stop-color="#2978ef" stop-opacity=".7"/></linearGradient><clipPath id="f"><path d="m0 0h250v250h-250z"/></clipPath><clipPath id="g"><path d="m0 0h187.5v187.5h-187.5z" transform="matrix(-1 0 0 1 218.75 31.25)"/></clipPath><g clip-path="url(#f)"><path d="m125 250c69.036 0 125-55.964 125-125 0-69.0356-55.964-125-125-125-69.0356 0-125 55.9644-125 125 0 69.036 55.9644 125 125 125z" fill="#fff"/><g clip-path="url(#g)"><path d="m125.059 146.891 54.927-31.375 1.5 2.301c16.917 25.951 13.139 59.939-9.084 81.713-26.15 25.623-68.549 25.623-94.7 0-22.2228-21.774-26.001-55.762-9.0835-81.713l1.5004-2.301z" fill="url(#a)"/><path d="m124.989 76.8125 47.347 27.0735-47.347 27.039-47.3133-27.039z" fill="url(#b)" opacity=".6"/><path d="m124.927 83.875 55.018 31.657-54.895 31.389-54.9465-31.399z" fill="url(#c)"/><path d="m124.989 31.2891 47.347 72.5989-47.347 27.039z" fill="url(#d)"/><path d="m124.992 130.929-47.3516-27.044 47.3496-72.635z" fill="url(#e)"/></g></g></svg>