<svg width="250" height="250" viewBox="0 0 250 250" fill="none" xmlns="http://www.w3.org/2000/svg">
<g clip-path="url(#clip0_46_12024)">
<path d="M125 250C194.036 250 250 194.036 250 125C250 55.9644 194.036 0 125 0C55.9644 0 0 55.9644 0 125C0 194.036 55.9644 250 125 250Z" fill="white"/>
<g clip-path="url(#clip1_46_12024)">
<path d="M125.059 146.891L179.986 115.516L181.486 117.817C198.403 143.768 194.625 177.756 172.402 199.53C146.252 225.153 103.853 225.153 77.702 199.53C55.4792 177.756 51.701 143.768 68.6185 117.817L70.1189 115.516L125.059 146.891Z" fill="url(#paint0_radial_46_12024)"/>
<path opacity="0.6" d="M124.989 76.8125L172.336 103.886L124.989 130.925L77.6757 103.886L124.989 76.8125Z" fill="url(#paint1_radial_46_12024)"/>
<path d="M124.927 83.875L179.945 115.532L125.05 146.921L70.1035 115.522L124.927 83.875Z" fill="url(#paint2_diamond_46_12024)"/>
<path d="M124.989 31.2891L172.336 103.888L124.989 130.927V31.2891Z" fill="url(#paint3_linear_46_12024)"/>
<path d="M124.992 130.929L77.6404 103.885L124.99 31.25L124.992 130.929Z" fill="url(#paint4_linear_46_12024)"/>
</g>
</g>
<defs>
<radialGradient id="paint0_radial_46_12024" cx="0" cy="0" r="1" gradientUnits="userSpaceOnUse" gradientTransform="translate(125.112 218.794) rotate(-90) scale(89.1306 116.489)">
<stop offset="0.203695" stop-color="#56F2FF"/>
<stop offset="1" stop-color="#4A8CEA"/>
</radialGradient>
<radialGradient id="paint1_radial_46_12024" cx="0" cy="0" r="1" gradientUnits="userSpaceOnUse" gradientTransform="translate(125.006 103.869) rotate(89.8393) scale(26.983 51.085)">
<stop stop-color="#EEFF83"/>
<stop offset="0.689596" stop-color="#5699EC"/>
</radialGradient>
<radialGradient id="paint2_diamond_46_12024" cx="0" cy="0" r="1" gradientUnits="userSpaceOnUse" gradientTransform="translate(125.024 115.398) rotate(89.84) scale(31.4378 59.2775)">
<stop stop-color="#56F2FF"/>
<stop offset="1" stop-color="#5699EC"/>
</radialGradient>
<linearGradient id="paint3_linear_46_12024" x1="148.663" y1="31.2891" x2="148.663" y2="130.927" gradientUnits="userSpaceOnUse">
<stop offset="0.377179" stop-color="#FFE336"/>
<stop offset="1" stop-color="#13C0B6" stop-opacity="0.7"/>
</linearGradient>
<linearGradient id="paint4_linear_46_12024" x1="101.316" y1="31.25" x2="101.316" y2="130.929" gradientUnits="userSpaceOnUse">
<stop offset="0.408817" stop-color="#FF7F72"/>
<stop offset="1" stop-color="#2978EF" stop-opacity="0.7"/>
</linearGradient>
<clipPath id="clip0_46_12024">
<rect width="250" height="250" fill="white"/>
</clipPath>
<clipPath id="clip1_46_12024">
<rect width="187.5" height="187.5" fill="white" transform="matrix(-1 0 0 1 218.75 31.25)"/>
</clipPath>
</defs>
</svg>
