<svg width="250" height="250" viewBox="0 0 250 250" fill="none" xmlns="http://www.w3.org/2000/svg">
<path d="M1 125C1 56.5 56.5 1 125 1C193.5 1 249 56.5 249 125C249 193.5 193.5 249 125 249C56.5 249 1 193.5 1 125Z" fill="url(#paint0_linear_36_6062)"/>
<path d="M73.1001 12.3502C81.0001 8.7002 89.3001 5.9002 98.0001 3.9502V55.8002H73.1501V12.3502H73.1001Z" fill="white"/>
<path d="M3.80005 98.7C5.65005 90 8.45005 81.65 12.05 73.75H139.7C158.35 73.75 173.45 88.9 173.45 107.6V140.55C173.45 159.25 158.35 174.4 139.7 174.4H106.85C88.2 174.4 73.1 159.25 73.1 140.55V116.5H98V140.35C98 145.35 101.9 149.25 106.9 149.25H139.75C144.7 149.25 148.65 145.35 148.65 140.35V107.6C148.65 102.6 144.75 98.7 139.75 98.7H3.80005Z" fill="white"/>
<defs>
<linearGradient id="paint0_linear_36_6062" x1="232.88" y1="232.88" x2="34.48" y2="34.48" gradientUnits="userSpaceOnUse">
<stop offset="0.1594" stop-color="#003CDA"/>
<stop offset="1" stop-color="#33DFCC"/>
</linearGradient>
</defs>
</svg>
