<svg fill="none" height="250" viewBox="0 0 250 250" width="250" xmlns="http://www.w3.org/2000/svg" xmlns:xlink="http://www.w3.org/1999/xlink"><linearGradient id="a" gradientUnits="userSpaceOnUse" x1="232.88" x2="34.48" y1="232.88" y2="34.48"><stop offset=".1594" stop-color="#003cda"/><stop offset="1" stop-color="#33dfcc"/></linearGradient><path d="m1 125c0-68.5 55.5-124 124-124s124 55.5 124 124-55.5 124-124 124-124-55.5-124-124z" fill="url(#a)"/><g fill="#fff"><path d="m73.1001 12.3502c7.9-3.65 16.2-6.45 24.9-8.4v51.85h-24.85v-43.45z"/><path d="m3.80005 98.7c1.85-8.7 4.65-17.05 8.24995-24.95h127.65c18.65 0 33.75 15.15 33.75 33.85v32.95c0 18.7-15.1 33.85-33.75 33.85h-32.85c-18.65 0-33.75-15.15-33.75-33.85v-24.05h24.9v23.85c0 5 3.9 8.9 8.9 8.9h32.85c4.95 0 8.9-3.9 8.9-8.9v-32.75c0-5-3.9-8.9-8.9-8.9z"/></g></svg>