<svg fill="none" height="250" viewBox="0 0 250 250" width="250" xmlns="http://www.w3.org/2000/svg" xmlns:xlink="http://www.w3.org/1999/xlink"><linearGradient id="a" gradientUnits="userSpaceOnUse" x1="125" x2="125" y1="0" y2="250"><stop offset="0" stop-color="#4fa89b"/><stop offset="1" stop-color="#6acebb"/></linearGradient><clipPath id="b"><path d="m0 0h250v250h-250z"/></clipPath><g clip-path="url(#b)"><path d="m125 250c69.036 0 125-55.964 125-125 0-69.0356-55.964-125-125-125-69.0356 0-125 55.9644-125 125 0 69.036 55.9644 125 125 125z" fill="url(#a)"/><path d="m63.4749 162.5v-58.833l44.6171 33.579v25.254h11.387v-27.625c-.002-1.026-.242-2.039-.701-2.957s-1.125-1.717-1.945-2.335l-54.1081-40.737c-.9897-.7351-2.1638-1.1813-3.3918-1.2892-1.2281-.1078-2.462.1269-3.5647.6783-1.1026.5513-2.0308 1.3976-2.6814 2.4447-.6505 1.0472-.998 2.2542-1.0037 3.487v68.3332zm123.3921 0v-58.833l-44.617 33.579v25.254h-11.388v-27.625c.003-1.026.243-2.039.702-2.957s1.124-1.717 1.944-2.335l54.109-40.7203c.988-.7343 2.161-1.1804 3.387-1.2889 1.227-.1085 2.46.1248 3.562.6741s2.03 1.3932 2.682 2.4379c.652 1.0448 1.001 2.2496 1.01 3.481v68.3332z" fill="#fff"/></g></svg>