<svg fill="none" height="242" viewBox="0 0 250 242" width="250" xmlns="http://www.w3.org/2000/svg" xmlns:xlink="http://www.w3.org/1999/xlink"><clipPath id="a"><path d="m0 0h250v241.935h-250z"/></clipPath><g clip-path="url(#a)"><path d="m191.532 165.411c-3.399 5.921-8.301 10.84-14.21 14.259-5.909 3.42-12.616 5.219-19.443 5.217h-22.484v-75.79l-32.435 56.33c-3.3999 5.923-8.3026 10.844-14.2131 14.265s-12.6192 5.221-19.4484 5.219h-22.3226v-111.8545h44.9033v75.5965l43.5158-75.5643v-.0322h44.887v75.9115l47.162-81.9277c.945-1.631 1.426-3.4891 1.392-5.3737s-.583-3.7241-1.586-5.3198c-21.75-34.3468-60.306-56.991961-104.121-56.3306706-66.8063 1.0322606-119.43532 54.8064706-119.09661 121.6128706.34677 66.492 54.38711 120.306 120.96761 120.306 66.581 0 120.968-54.153 120.968-120.951 0-10.758-1.419-21.1937-4.073-31.1372-.174-.6655-.541-1.2645-1.056-1.7215-.514-.4569-1.152-.7514-1.833-.8463-.682-.0949-1.376.0141-1.996.3132-.619.2991-1.136.7749-1.486 1.3675l-44.008 76.4353z" fill="#fff"/></g></svg>