<svg width="24" height="24" viewBox="0 0 24 24" fill="none" xmlns="http://www.w3.org/2000/svg">
<path d="M17.5695 2.11274C16.9448 2.73025 16.3726 3.39952 15.8639 4.11317L15.7031 4.0614C14.7755 3.76189 13.8142 3.57701 12.8455 3.51415C12.5537 3.49196 11.4653 3.49196 11.1099 3.51415C10.0365 3.5844 9.21361 3.7434 8.27853 4.0651C8.24113 4.07989 8.20746 4.09098 8.1738 4.10207C7.64641 3.39213 7.05918 2.72655 6.41211 2.11644C9.51657 0.544944 13.1484 0.356364 16.3988 1.59507C16.7466 1.72449 17.087 1.87609 17.4199 2.03879L17.5695 2.11274Z" fill="#F00500"/>
<path d="M23.3594 16.1379C22.8881 17.4654 22.1812 18.6967 21.2648 19.769C20.7674 20.3458 20.2176 20.8746 19.6266 21.3553C18.2427 22.4572 16.6268 23.2448 14.9026 23.6589C12.995 24.1137 11.0051 24.1137 9.09758 23.6589C7.36956 23.2448 5.75748 22.4572 4.37356 21.3553C3.78259 20.8746 3.23277 20.3458 2.7353 19.769C0.098378 16.6888 -0.70205 12.4587 0.640724 8.64648C0.895066 7.94023 1.21299 7.25986 1.59451 6.61277C1.7703 6.31696 1.98724 5.98417 2.09197 5.84736C2.45104 7.37449 2.8924 8.71673 3.05697 9.20112C3.04575 9.22701 3.03079 9.25659 3.01583 9.28247C2.14433 11.0278 1.67305 12.7102 1.56084 14.4998C1.56084 14.522 1.5571 14.5479 1.5571 14.5701C1.52718 15.1063 1.54214 15.3614 1.63191 15.6979C1.91243 16.7517 2.77645 17.9128 4.13044 19.0516C6.34845 20.9153 9.35567 22.2612 11.6335 22.4165C14.0086 22.5755 17.5133 21.2037 19.8473 19.1995C20.2138 18.8779 20.5579 18.5377 20.8796 18.1753C21.1115 17.9091 21.4556 17.4506 21.4294 17.4506C21.4219 17.4506 21.4294 17.4432 21.4444 17.4358C21.4556 17.4284 21.4668 17.4173 21.4593 17.4099C21.4556 17.4062 21.4631 17.3951 21.4743 17.3914C21.4855 17.3877 21.493 17.3803 21.4893 17.3729C21.4855 17.3655 21.4893 17.3581 21.5042 17.3544C21.5154 17.3507 21.5192 17.3396 21.5154 17.3322C21.5117 17.3248 21.5154 17.3174 21.5229 17.3174C21.5304 17.3174 21.5379 17.3064 21.5379 17.299C21.5379 17.2916 21.5454 17.2805 21.5528 17.2805C21.5603 17.2805 21.5678 17.2731 21.5678 17.2657C21.579 17.2361 21.5977 17.2065 21.6164 17.1806C21.6725 17.0956 21.897 16.6999 21.9269 16.6334C22.1401 16.1564 22.2747 15.7312 22.3383 15.3059C22.3682 15.1026 22.3869 14.7291 22.372 14.6404C22.3682 14.6256 22.3682 14.5997 22.3645 14.559C22.357 14.4851 22.3533 14.3741 22.3458 14.2632C22.3383 14.0968 22.3234 13.8638 22.3121 13.7492C22.1513 12.0705 21.7174 10.6987 20.8946 9.24549C20.8609 9.19003 20.831 9.13456 20.8123 9.09019C20.8048 9.0791 20.801 9.06801 20.7973 9.06061C20.9133 8.71673 21.3883 7.27835 21.766 5.6329L21.7735 5.64029L21.8296 5.71425C21.9269 5.84366 22.185 6.22822 22.3009 6.4131C22.8283 7.26356 23.2397 8.17688 23.5315 9.13087C24.2085 11.4271 24.1524 13.8749 23.3594 16.1379Z" fill="#F00500"/>
<path d="M18.5045 11.7192C18.4933 11.7784 18.3175 11.9559 18.1417 12.0853C17.6256 12.4587 16.7017 12.8063 15.7629 12.9727C15.228 13.0689 14.6931 13.0837 14.5323 13.006C14.4276 12.9542 14.4126 12.9136 14.45 12.7804C14.5286 12.5031 14.7829 12.1999 15.1794 11.9152C15.3814 11.771 16.2005 11.2792 16.582 11.0721C17.2104 10.7319 17.7191 10.5286 18.0632 10.4805C18.1717 10.4657 18.3026 10.462 18.3437 10.4805C18.411 10.5064 18.4858 10.7024 18.5158 10.939C18.5307 11.0647 18.5232 11.6194 18.5045 11.7192Z" fill="black"/>
<path d="M9.69228 12.9431C9.66984 12.9875 9.55763 13.0356 9.43046 13.0541C9.30329 13.0726 8.9143 13.0615 8.69362 13.0356C7.90068 12.932 7.05911 12.6917 6.44569 12.3959C6.10159 12.2295 5.85472 12.0631 5.67145 11.8819L5.56672 11.7747L5.5555 11.6342C5.5368 11.3901 5.54054 11.0056 5.57046 10.8688C5.58916 10.7541 5.6303 10.6432 5.68641 10.5434C5.71633 10.5064 5.71633 10.5064 5.85098 10.5064C6.01556 10.5064 6.15395 10.5323 6.37837 10.6025C6.83843 10.743 7.5229 11.0832 8.35699 11.5787C9.04521 11.9854 9.30329 12.1851 9.50153 12.4587C9.63618 12.6288 9.72595 12.8692 9.69228 12.9431Z" fill="black"/>
<path d="M14.9886 18.0903C14.9886 18.1013 14.9437 18.2788 14.8876 18.4896C14.8315 18.7004 14.7866 18.8705 14.7866 18.8778C14.7455 18.8815 14.7081 18.8852 14.6669 18.8815H14.5472L14.3827 19.2661C14.2929 19.4769 14.2106 19.6728 14.1994 19.7024L14.1769 19.7542L14.0984 19.6285L14.0198 19.5027V18.4785L13.9899 18.4859C13.9263 18.5007 13.4738 18.5599 13.2755 18.5783C12.4564 18.6597 11.6335 18.6412 10.8181 18.5266C10.6872 18.5081 10.575 18.4933 10.5713 18.497C10.5675 18.5007 10.5713 18.7373 10.5788 19.0294L10.59 19.5545L10.5264 19.6507C10.4927 19.7024 10.4591 19.7468 10.4591 19.7505C10.4478 19.7616 10.4104 19.7024 10.3244 19.5323C10.2309 19.3548 10.1636 19.1663 10.115 18.9703L10.0888 18.8631L9.97282 18.8705L9.85687 18.8815L9.82694 18.7447C9.81198 18.6708 9.79328 18.5562 9.7858 18.4933L9.77458 18.375L9.67733 18.2899C9.62123 18.2419 9.56512 18.1938 9.5539 18.1864C9.5352 18.1716 9.52772 18.1457 9.52772 18.1235V18.0792L9.99526 18.0829L10.4628 18.0866L10.4778 18.1346L10.4927 18.1827L10.6536 18.1901C10.7433 18.1938 11.0276 18.2012 11.2819 18.2086L11.7495 18.2197L11.8692 18.0348L11.9926 17.8499H12.1497L12.1459 17.4653L12.1422 17.0808L11.9365 16.9921C11.2744 16.7036 10.8855 16.3745 10.7396 15.9752C10.7097 15.8939 10.7097 15.8643 10.7022 15.4945C10.6984 15.1284 10.6984 15.0952 10.7246 15.0138C10.777 14.8289 10.9229 14.6847 11.1099 14.6367C11.1735 14.6182 11.3418 14.6182 12.2245 14.6182L13.2643 14.6219L13.3802 14.6773C13.5186 14.7439 13.5822 14.792 13.6608 14.8955C13.7505 15.0138 13.7767 15.1063 13.7767 15.3318C13.7767 15.6535 13.7543 15.9308 13.7206 16.0418C13.672 16.1934 13.5972 16.3376 13.5037 16.467C13.3167 16.7036 12.9763 16.9403 12.6658 17.0475L12.5761 17.0808L12.5798 17.469L12.5836 17.8573L12.6658 17.8647L12.7481 17.8721L12.8603 18.0385L12.9688 18.2049H13.47C13.7468 18.2049 13.9899 18.2086 14.0124 18.2123C14.0498 18.2197 14.0572 18.216 14.0947 18.1531L14.1395 18.0866H14.5697C14.8913 18.0718 14.9886 18.0792 14.9886 18.0903Z" fill="black"/>
<path d="M13.0136 19.1515C12.9426 19.1921 12.894 19.2106 12.8827 19.2032C12.8715 19.1995 12.8191 19.1552 12.763 19.1145L12.6621 19.0331L12.5573 19.1441C12.3292 19.3881 12.3217 19.3992 12.2544 19.4029C12.1496 19.414 12.1272 19.3955 12 19.2069C11.9327 19.1108 11.8803 19.0294 11.8803 19.0294C11.8803 19.0294 11.8317 19.022 11.7756 19.0183L11.6709 19.0073L11.6222 19.1071L11.5736 19.2069L11.4876 19.181C11.4203 19.1589 11.3529 19.133 11.2894 19.1034L11.1771 19.0479V18.8372L12.1721 18.8409L13.167 18.8446L13.1707 18.9444C13.1745 19.0627 13.1782 19.059 13.0136 19.1515Z" fill="black"/>
<path d="M22.3646 14.6403C22.3608 14.6256 22.3608 14.5997 22.3571 14.559C21.4594 14.4629 18.8973 14.4037 16.5184 16.345C16.5184 16.345 15.7517 12.8692 12.161 12.8692C8.57026 12.8692 7.23871 16.345 7.23871 16.345C5.22642 14.204 2.53339 14.3593 1.56091 14.4998C1.56091 14.522 1.55716 14.5479 1.55716 14.5701C1.52724 15.1062 1.5422 15.3614 1.63197 15.6979C1.91249 16.7517 2.77651 17.9128 4.13051 19.0516C6.34851 20.9152 9.35573 22.2612 11.6336 22.4165C14.0087 22.5755 17.5134 21.2037 19.8473 19.1995C20.2139 18.8778 20.558 18.5377 20.8797 18.1753C21.1115 17.9091 21.4557 17.4506 21.4295 17.4506C21.422 17.4506 21.4295 17.4432 21.4444 17.4358C21.4557 17.4284 21.4669 17.4173 21.4594 17.4099C21.4557 17.4062 21.4631 17.3951 21.4744 17.3914C21.4856 17.3877 21.4931 17.3803 21.4893 17.3729C21.4856 17.3655 21.4893 17.3581 21.5043 17.3544C21.5155 17.3507 21.5192 17.3396 21.5155 17.3322C21.5118 17.3248 21.5155 17.3174 21.523 17.3174C21.5305 17.3174 21.5379 17.3063 21.5379 17.2989C21.5379 17.2916 21.5454 17.2805 21.5529 17.2805C21.5604 17.2805 21.5679 17.2731 21.5679 17.2657C21.5791 17.2361 21.5978 17.2065 21.6165 17.1806C21.6726 17.0956 21.897 16.6999 21.9269 16.6334C22.1401 16.1564 22.2748 15.7311 22.3384 15.3059C22.3608 15.1025 22.3795 14.7291 22.3646 14.6403ZM13.0138 19.1515C12.9427 19.1921 12.8941 19.2106 12.8829 19.2032C12.8716 19.1995 12.8193 19.1552 12.7632 19.1145L12.6622 19.0331L12.5574 19.1441C12.3293 19.3881 12.3218 19.3992 12.2545 19.4029C12.1497 19.414 12.1273 19.3955 12.0001 19.2069C11.9328 19.1108 11.8804 19.0294 11.8804 19.0294C11.8804 19.0294 11.8318 19.022 11.7757 19.0183L11.671 19.0073L11.6224 19.1071L11.5737 19.2069L11.4877 19.181C11.4204 19.1589 11.3531 19.133 11.2895 19.1034L11.1773 19.0479V18.8372L12.1722 18.8409L13.1671 18.8446L13.1709 18.9444C13.1746 19.0627 13.1783 19.059 13.0138 19.1515ZM14.8839 18.4859C14.8278 18.6967 14.7829 18.8667 14.7829 18.8741C14.7418 18.8778 14.7044 18.8815 14.6632 18.8778H14.5436L14.3827 19.2661C14.2929 19.4769 14.2107 19.6728 14.1994 19.7024L14.177 19.7542L14.0985 19.6285L14.0199 19.5027V18.4785L13.99 18.4859C13.9264 18.5007 13.4738 18.5598 13.2756 18.5783C12.4565 18.6597 11.6336 18.6412 10.8182 18.5266C10.6873 18.5081 10.5751 18.4933 10.5713 18.497C10.5676 18.5007 10.5713 18.7373 10.5788 19.0294L10.59 19.5545L10.5265 19.6506C10.4928 19.7024 10.4591 19.7468 10.4591 19.7505C10.4479 19.7616 10.4105 19.7024 10.3245 19.5323C10.231 19.3548 10.1636 19.1663 10.115 18.9703L10.0888 18.863L9.97288 18.8704L9.85693 18.8815L9.82701 18.7447C9.81205 18.6708 9.79335 18.5561 9.78586 18.4933L9.77465 18.375L9.67739 18.2899C9.62129 18.2418 9.56519 18.1938 9.55397 18.1864C9.53527 18.1716 9.52778 18.1457 9.52778 18.1235V18.0791L9.99532 18.0828L10.4629 18.0865L10.4778 18.1346L10.4928 18.1827L10.6536 18.1901C10.7434 18.1938 11.0277 18.2012 11.282 18.2086L11.7495 18.2197L11.8692 18.0348L11.9927 17.8499H12.1497L12.146 17.4653L12.1423 17.0808L11.9365 16.992C11.2745 16.7036 10.8855 16.3745 10.7396 15.9752C10.7097 15.8938 10.7097 15.8643 10.7022 15.4945C10.6985 15.1284 10.6985 15.0952 10.7247 15.0138C10.777 14.8289 10.9229 14.6847 11.1099 14.6366C11.1735 14.6182 11.3418 14.6182 12.2246 14.6182L13.2644 14.6219L13.3803 14.6773C13.5187 14.7439 13.5823 14.7919 13.6608 14.8955C13.7506 15.0138 13.7768 15.1062 13.7768 15.3318C13.7768 15.6535 13.7543 15.9308 13.7207 16.0417C13.6721 16.1934 13.5972 16.3376 13.5037 16.467C13.3167 16.7036 12.9764 16.9403 12.6659 17.0475L12.5761 17.0808L12.5799 17.469L12.5836 17.8573L12.6659 17.8647L12.7482 17.8721L12.8604 18.0385L12.9689 18.2049H13.4701C13.7469 18.2049 13.99 18.2086 14.0124 18.2123C14.0498 18.2197 14.0573 18.216 14.0947 18.1531L14.1396 18.0865H14.5697C14.9026 18.0865 14.9999 18.0902 14.9999 18.1013C14.9886 18.0976 14.94 18.2788 14.8839 18.4859Z" fill="white"/>
<path d="M22.3345 14.2632C22.3271 14.0968 22.3121 13.8638 22.3009 13.7492C22.1401 12.0705 21.7062 10.6987 20.8833 9.24549C20.8496 9.19002 20.8197 9.13456 20.801 9.09019C20.7935 9.07909 20.7898 9.068 20.7861 9.06061C20.902 8.71672 21.377 7.27834 21.7548 5.63289C22.2672 3.39952 22.5926 0.788981 21.5977 0.00508146C21.5977 0.00508146 19.8772 -0.120638 17.5731 2.11274C16.9485 2.73024 16.3762 3.39952 15.8675 4.11316L15.7067 4.06139C14.7791 3.76188 13.8178 3.577 12.8491 3.51414C12.5574 3.49196 11.4689 3.49196 11.1136 3.51414C10.0401 3.5844 9.21725 3.7434 8.28217 4.06509C8.24477 4.07988 8.2111 4.09097 8.17744 4.10207C7.65006 3.39212 7.06283 2.72655 6.41575 2.11644C4.01821 -0.128033 2.23408 0.00138359 2.23408 0.00138359C1.17931 0.811167 1.53838 3.54003 2.08446 5.84735C2.44353 7.37448 2.88489 8.71672 3.04946 9.20112C3.03824 9.227 3.02328 9.25658 3.00832 9.28246C2.13683 11.0278 1.66555 12.7102 1.55334 14.4998C2.52956 14.3593 5.21885 14.2003 7.23488 16.345C7.23488 16.345 8.56643 12.8692 12.1571 12.8692C15.7478 12.8692 16.5146 16.345 16.5146 16.345C18.8935 14.4037 21.4556 14.4666 22.3532 14.559C22.3495 14.485 22.342 14.3741 22.3345 14.2632ZM3.75639 7.80711C3.75639 7.80711 2.3575 4.34981 2.71658 2.37527C2.77642 2.04248 2.88863 1.75037 3.06443 1.52851C3.06443 1.52851 4.65032 1.68381 7.2087 4.49402C7.2087 4.49402 6.72246 4.72697 6.07164 5.22245C6.07164 5.22245 6.0679 5.22615 6.06416 5.22615C5.35724 5.76231 4.45209 6.61277 3.75639 7.80711ZM9.69227 12.9431C9.66983 12.9875 9.55762 13.0356 9.43045 13.0541C9.30328 13.0725 8.91429 13.0615 8.69361 13.0356C7.90066 12.932 7.05909 12.6917 6.44568 12.3959C6.10157 12.2295 5.8547 12.0631 5.67143 11.8819L5.5667 11.7747L5.55548 11.6342C5.53678 11.3901 5.54052 11.0056 5.57044 10.8688C5.58914 10.7541 5.63028 10.6432 5.68639 10.5434C5.71631 10.5064 5.71631 10.5064 5.85096 10.5064C6.01554 10.5064 6.15393 10.5323 6.37835 10.6025C6.83841 10.743 7.52289 11.0832 8.35698 11.5787C9.0452 11.9854 9.30328 12.1851 9.50151 12.4587C9.63617 12.6288 9.72593 12.8692 9.69227 12.9431ZM18.5045 11.7192C18.4932 11.7784 18.3174 11.9559 18.1417 12.0853C17.6255 12.4587 16.7016 12.8063 15.7628 12.9727C15.2279 13.0688 14.6931 13.0836 14.5322 13.006C14.4275 12.9542 14.4126 12.9135 14.45 12.7804C14.5285 12.5031 14.7828 12.1999 15.1793 11.9152C15.3813 11.771 16.2004 11.2792 16.5819 11.0721C17.2103 10.7319 17.719 10.5286 18.0631 10.4805C18.1716 10.4657 18.3025 10.462 18.3436 10.4805C18.411 10.5064 18.4858 10.7024 18.5157 10.939C18.5306 11.0647 18.5232 11.6194 18.5045 11.7192ZM17.8836 5.22245L17.8761 5.21876C17.2477 4.72327 16.7764 4.49032 16.7764 4.49032C19.2488 1.68011 20.7786 1.52481 20.7786 1.52481C20.9469 1.75037 21.0554 2.03878 21.1152 2.37157C21.4631 4.34611 20.1128 7.80711 20.1128 7.80711C19.548 6.81244 18.7887 5.9324 17.8836 5.22245Z" fill="#FFA409"/>
<path d="M21.119 2.37158C20.8272 2.3346 19.447 2.3272 17.8836 5.22246L17.8761 5.21876C17.2477 4.72328 16.7765 4.49032 16.7765 4.49032C19.2488 1.68012 20.7786 1.52482 20.7786 1.52482C20.9507 1.75037 21.0591 2.03879 21.119 2.37158Z" fill="#FF9300"/>
<path d="M20.1166 7.80711C19.548 6.80874 18.7925 5.9324 17.8836 5.22246C19.447 2.3272 20.8235 2.3346 21.119 2.37157C21.4668 4.34981 20.1166 7.80711 20.1166 7.80711Z" fill="#FF8300"/>
<path d="M21.1742 2.38306C21.1558 2.37923 21.1374 2.37541 21.119 2.37158L21.1742 2.38306Z" fill="#FF8300"/>
<path d="M7.20874 4.49032C7.20874 4.49032 6.7225 4.72328 6.07168 5.21876C6.07168 5.21876 6.06794 5.22246 6.0642 5.22246C4.44464 2.32351 3.01958 2.3346 2.71288 2.37158C2.77272 2.03879 2.88493 1.74667 3.06073 1.52482C3.06447 1.52482 4.65036 1.68012 7.20874 4.49032Z" fill="#FF9300"/>
<path d="M6.06788 5.22246C5.35722 5.76231 4.45206 6.60907 3.75637 7.80711C3.75637 7.80711 2.35749 4.34981 2.71656 2.37157C3.01952 2.3346 4.44832 2.3272 6.06788 5.22246Z" fill="#FF8300"/>
<path d="M2.71661 2.37158C2.6979 2.37541 2.67546 2.37923 2.65676 2.38306L2.71661 2.37158Z" fill="#FF8300"/>
<path d="M16.3314 9.72618C16.3314 9.72618 15.1345 9.80014 15.2841 8.87573C15.4337 7.95132 16.3688 7.84039 16.6306 7.87737C16.8924 7.91434 17.9397 8.28411 17.7527 9.06061C17.5657 9.83711 17.3039 9.68921 17.1543 9.72618C17.0046 9.76316 16.3314 9.72618 16.3314 9.72618Z" fill="white"/>
<path d="M7.50424 9.72618C7.50424 9.72618 6.30735 9.80014 6.45696 8.87573C6.60657 7.95132 7.54165 7.84039 7.80347 7.87737C8.06529 7.91434 9.11257 8.28411 8.92556 9.06061C8.73854 9.83711 8.47672 9.68921 8.32711 9.72618C8.1775 9.76316 7.50424 9.72618 7.50424 9.72618Z" fill="white"/>
</svg>
