<svg fill="none" height="250" viewBox="0 0 250 250" width="250" xmlns="http://www.w3.org/2000/svg" xmlns:xlink="http://www.w3.org/1999/xlink"><linearGradient id="a" gradientUnits="userSpaceOnUse" x1="38.1425" x2="211.845" y1="38.242" y2="211.944"><stop offset="0" stop-color="#ff7600"/><stop offset="1" stop-color="#fd2600"/></linearGradient><path d="m125 247.95c67.848 0 122.85-55.002 122.85-122.85 0-67.8482-55.002-122.85-122.85-122.85-67.8483 0-122.8501 55.0018-122.8501 122.85 0 67.848 55.0018 122.85 122.8501 122.85z" fill="url(#a)"/><path d="m142.95 147.899c0-15.15 12.3-27.45 27.45-27.45h77.5c-.6-16.75-4.6-32.5998-11.25-46.9998h-66.25c-7.2 0-14.25 1-21.05 3.05-.45-1.3-.95-2.6-1.5-3.85-3.75-8.85-9.1-16.85-15.95-23.65-6.8-6.8-14.8-12.2-23.65-15.95-9.2-3.9-18.95-5.85-29-5.85h-28.7c-16.0999 12.2-29.05 28.35-37.55 46.95h66.25c15.15 0 27.45 12.3 27.45 27.4498 0 15.15-12.3 27.45-27.45 27.45h-77.19995c.55 16.75 4.4 32.6 10.94995 47h66.25c7.2 0 14.25-1 21.05-3.05.45 1.3.95 2.6 1.5 3.85 3.75 8.85 9.1 16.85 15.95 23.65 6.8 6.8 14.8 12.2 23.65 15.95 9.2 3.9 18.95 5.85 29 5.85h29.85c15.9-12.3 28.7-28.45 37-47h-66.85c-15.15.1-27.45-12.2-27.45-27.4z" fill="#fff"/></svg>