<svg fill="none" height="250" viewBox="0 0 251 250" width="251" xmlns="http://www.w3.org/2000/svg" xmlns:xlink="http://www.w3.org/1999/xlink"><mask id="a" height="250" maskUnits="userSpaceOnUse" width="251" x="0" y="0"><path d="m250.457 0h-249.999969v250h249.999969z" fill="#fff"/></mask><rect fill="#000" height="250" rx="125" width="250" x=".457031"/><g mask="url(#a)"><path d="m125.457 250c69.036 0 125-55.964 125-125 0-69.0356-55.964-125-125-125-69.0356 0-124.999969 55.9644-124.999969 125 0 69.036 55.964369 125 124.999969 125z" fill="#0a0a0a"/><g fill="#fff"><path d="m186.439 60.9667-51.025 50.8743c-2.673 2.665-6.177 3.998-9.679 3.998-3.503 0-7.006-1.334-9.679-3.998l-51.0248-50.8743 19.3573-19.3 41.3465 41.2239 41.346-41.2239z"/><path d="m167.941 124.965 41.347 41.224-19.357 19.301-51.025-50.875c-5.346-5.33-5.346-13.97 0-19.3l51.025-50.8754 19.357 19.3z"/><path d="m167.021 208.333-41.346-41.224-41.347 41.224-19.3573-19.3 51.0253-50.874c5.344-5.329 14.011-5.329 19.357 0l51.025 50.874z"/><path d="m116.514 125.035c0 3.62-1.442 7.091-4.009 9.65l-51.0247 50.875-19.3573-19.3 41.3469-41.225-41.3469-41.2235 19.3573-19.3 51.0247 50.8735c2.567 2.56 4.009 6.032 4.009 9.65z"/></g></g></svg>