<svg fill="none" height="250" viewBox="0 0 250 250" width="250" xmlns="http://www.w3.org/2000/svg"><path d="m124.75 248.197c68.18 0 123.45-55.271 123.45-123.45 0-68.1797-55.27-123.45012-123.45-123.45012-68.1795 0-123.44995 55.27042-123.44995 123.45012 0 68.179 55.27045 123.45 123.44995 123.45z" fill="#d8191e"/><g fill="#fff"><path d="m201.191 52.9579-9.288 21.2399c-.061.1244-.156.2289-.274.3014s-.254.1099-.393.108h-26.585c-.116.0009-.232-.0261-.336-.0789s-.194-.1297-.263-.2244c-.063-.0908-.1-.1977-.105-.3083-.005-.1107.021-.2207.075-.3172l.03-.0492 9.637-21.1338c.059-.1235.152-.2276.268-.3001s.25-.1104.387-.1093h26.183c.115-.0019.229.0236.332.0743.102.0508.192.1254.26.2176.058.0843.095.1812.108.2828.013.1015.002.2047-.032.301"/><path d="m181.319 102.475-82.3818-.121-9.4846-23.3745h48.4734c.303 0 .568-.1896.671-.4777l9.431-24.7008c.044-.1113.06-.2317.047-.3506-.014-.1189-.056-.2328-.123-.3318-.062-.1029-.15-.188-.255-.2471s-.223-.0902-.344-.0903h-94.546c-.1207.0009-.2392.0327-.3441.0925-.1048.0597-.1926.1453-.2549.2487-.0665.0986-.1082.2118-.1214.33-.0132.1181.0024.2378.0456.3486l28.2035 73.917c.1138.273.3791.455.6748.462h63.4045l-17.672 47.825-9.144-24.254c-.048-.139-.138-.26-.259-.346-.12-.085-.264-.131-.412-.131l-26.5656-.031c-.117-.001-.2323.027-.3347.084-.1024.056-.1883.139-.2491.239-.0679.101-.1102.218-.1234.339-.0132.122.0031.244.0476.358l18.8292 49.277c.048.139.138.26.259.346.12.086.264.132.412.131h34.928c.146 0 .288-.044.407-.127.12-.082.212-.199.264-.335l37.184-98.083c.043-.11.059-.229.046-.347-.014-.118-.055-.23-.122-.328-.065-.099-.153-.181-.257-.237-.103-.057-.22-.088-.338-.089"/></g></svg>