<svg width="250" height="250" viewBox="0 0 250 250" fill="none" xmlns="http://www.w3.org/2000/svg">
<g clip-path="url(#clip0_48_13174)">
<path d="M125 250C108.128 250 91.759 246.693 76.3423 240.175C61.4549 233.878 48.0932 224.864 36.6101 213.39C25.1358 201.916 16.1222 188.545 9.82502 173.658C3.30735 158.241 0 141.872 0 125C0 108.128 3.30735 91.759 9.82502 76.3423C16.1222 61.4549 25.1358 48.0932 36.6101 36.6101C48.0932 25.1358 61.4549 16.1222 76.3423 9.82502C91.759 3.30735 108.128 0 125 0C141.872 0 158.241 3.30735 173.658 9.82502C188.545 16.1222 201.907 25.1358 213.39 36.6101C224.864 48.0844 233.878 61.4549 240.175 76.3423C246.693 91.759 250 108.128 250 125C250 141.872 246.693 158.241 240.175 173.658C233.878 188.545 224.864 201.907 213.39 213.39C201.916 224.864 188.545 233.878 173.658 240.175C158.241 246.701 141.872 250 125 250Z" fill="white"/>
<path d="M125 243.378C190.378 243.378 243.377 190.379 243.377 125.001C243.377 59.624 190.378 6.625 125 6.625C59.6225 6.625 6.62354 59.624 6.62354 125.001C6.62354 190.379 59.6225 243.378 125 243.378Z" fill="black"/>
<path d="M127.91 102.766V157.306L181.304 124.947L127.91 102.766Z" fill="white"/>
<path d="M127.91 96.6131L180.819 118.6L168.172 97.9801L195.063 71.0892L178.993 55.0111L155.957 78.0567L127.91 32.3359V96.6131Z" fill="white"/>
<path d="M122.231 157.306V102.766L68.8369 124.947L122.231 157.306Z" fill="white"/>
<path d="M69.322 118.6L122.231 96.6131V32.3359L94.1932 78.0567L71.1477 55.0111L55.0784 71.0892L81.9693 97.9713L69.322 118.6Z" fill="white"/>
<path d="M180.704 141.93L127.91 173.927V216.305L149.633 185.692L172.308 208.368L188.377 192.298L162.977 166.898L180.704 141.93Z" fill="white"/>
<path d="M122.231 173.927L69.4367 141.93L87.1641 166.898L61.7637 192.298L77.833 208.368L100.508 185.701L122.231 216.296V173.927Z" fill="white"/>
</g>
<defs>
<clipPath id="clip0_48_13174">
<rect width="250" height="250" fill="white"/>
</clipPath>
</defs>
</svg>
