<svg fill="none" height="250" viewBox="0 0 250 250" width="250" xmlns="http://www.w3.org/2000/svg" xmlns:xlink="http://www.w3.org/1999/xlink"><clipPath id="a"><path d="m0 0h250v250h-250z"/></clipPath><g clip-path="url(#a)"><path d="m125 250c-16.872 0-33.241-3.307-48.6577-9.825-14.8874-6.297-28.2491-15.311-39.7322-26.785-11.4743-11.474-20.4879-24.845-26.78508-39.732-6.51767-15.417-9.82502-31.786-9.82502-48.658s3.30735-33.241 9.82502-48.6577c6.29718-14.8874 15.31078-28.2491 26.78508-39.7322 11.4831-11.4743 24.8448-20.4879 39.7322-26.78508 15.4167-6.51767 31.7857-9.82502 48.6577-9.82502s33.241 3.30735 48.658 9.82502c14.887 6.29718 28.249 15.31078 39.732 26.78508 11.474 11.4743 20.488 24.8448 26.785 39.7322 6.518 15.4167 9.825 31.7857 9.825 48.6577s-3.307 33.241-9.825 48.658c-6.297 14.887-15.311 28.249-26.785 39.732-11.474 11.474-24.845 20.488-39.732 26.785-15.417 6.526-31.786 9.825-48.658 9.825z" fill="#fff"/><path d="m125 243.378c65.378 0 118.377-52.999 118.377-118.377 0-65.377-52.999-118.376-118.377-118.376-65.3775 0-118.37646 52.999-118.37646 118.376 0 65.378 52.99896 118.377 118.37646 118.377z" fill="#000"/><g fill="#fff"><path d="m127.91 102.766v54.54l53.394-32.359z"/><path d="m127.91 96.6131 52.909 21.9869-12.647-20.6199 26.891-26.8909-16.07-16.0781-23.036 23.0456-28.047-45.7208z"/><path d="m122.231 157.306v-54.54l-53.3941 22.181z"/><path d="m69.322 118.6 52.909-21.9869v-64.2772l-28.0378 45.7208-23.0455-23.0456-16.0693 16.0781 26.8909 26.8821z"/><path d="m180.704 141.93-52.794 31.997v42.378l21.723-30.613 22.675 22.676 16.069-16.07-25.4-25.4z"/><path d="m122.231 173.927-52.7943-31.997 17.7274 24.968-25.4004 25.4 16.0693 16.07 22.675-22.667 21.723 30.595z"/></g></g></svg>