<svg fill="none" height="262" viewBox="0 0 262 262" width="262" xmlns="http://www.w3.org/2000/svg"><rect fill="#fff" height="262" rx="131" width="262"/><g clip-rule="evenodd" fill="#000" fill-rule="evenodd"><path d="m138.934 183.134 33.764-33.677c1.692-1.693.488-4.561-1.893-4.561h-11.647c-.717 0-1.377.286-1.893.774l-4.762 4.733c-1.693 1.693-4.561.488-4.561-1.893v-24.526c0-1.492 1.205-2.668 2.668-2.668h23.58c.717 0 1.376.287 1.893.774l.344.345c1.033 1.032 1.033 2.753 0 3.786l-.488.488c-1.692 1.692-.487 4.561 1.894 4.561h11.79c.717 0 1.376-.287 1.893-.775l4.331-4.331c1.033-1.033 1.033-2.754 0-3.787l-13.912-13.913c-.517-.516-1.176-.774-1.894-.774h-43.028c-1.492 0-2.668 1.205-2.668 2.668v70.854c0 2.381 2.868 3.586 4.561 1.893z"/><path d="m128.207 128.602v-18.244c0-1.492-1.205-2.668-2.668-2.668h-43.1434c-.7172 0-1.377.287-1.8933.774l-13.9987 13.942c-1.0614 1.033-1.0614 2.754 0 3.786 19.0474 18.962 38.0944 37.952 57.1424 56.942 1.692 1.692 4.561.488 4.561-1.893v-33.678c0-1.491-1.205-2.667-2.668-2.667h-8.233c-1.491 0-2.667 1.204-2.667 2.667v.746c0 2.381-2.869 3.586-4.562 1.894l-24.2965-23.982c-1.0614-1.033-1.0614-2.754 0-3.815l.3442-.344c.4877-.488 1.1762-.775 1.8933-.775h23.924c1.492 0 2.668 1.205 2.668 2.668v4.618c0 1.492 1.205 2.668 2.668 2.668h8.233c1.491 0 2.667-1.205 2.667-2.668z"/><path d="m122.097 100.404 6.913-11.9623c1.033-1.7785 3.615-1.7785 4.648 0l6.913 11.9623c.487.832 1.348 1.348 2.323 1.348h9.495c2.066 0 3.357-2.2375 2.324-4.016l-21.055-36.4025c-1.033-1.7785-3.615-1.7785-4.648 0l-21.026 36.4025c-1.033 1.7785.258 4.016 2.323 4.016h9.467c.946 0 1.835-.516 2.323-1.348z"/><path d="m101.213 170.397h-14.9738c-2.0654 0-3.3563-2.237-2.3236-4.016l4.2455-7.343c.6024-1.062.4303-2.381-.4303-3.242l-6.0527-6.024c-1.2335-1.233-3.3276-.975-4.2168.545l-17.0969 29.662c-1.0327 1.778.2582 4.016 2.3236 4.016h46.787c2.381 0 3.586-2.898 1.893-4.561l-8.262-8.233c-.516-.488-1.176-.775-1.893-.775z"/><path d="m159.531 171.172-8.232 8.233c-1.693 1.692-.488 4.561 1.893 4.561h46.787c2.065 0 3.356-2.238 2.323-4.016l-17.125-29.661c-.89-1.521-2.955-1.808-4.217-.545l-6.053 6.024c-.861.86-1.033 2.18-.43 3.241l4.245 7.344c1.033 1.778-.258 4.016-2.323 4.016h-14.974c-.717 0-1.377.287-1.894.774z"/></g></svg>