<svg fill="none" height="250" viewBox="0 0 250 250" width="250" xmlns="http://www.w3.org/2000/svg" xmlns:xlink="http://www.w3.org/1999/xlink"><clipPath id="a"><path d="m-.000244 0h250v250h-250z"/></clipPath><g clip-path="url(#a)"><path d="m125 250c69.035 0 125-55.964 125-125 0-69.0356-55.965-125-125-125-69.0358 0-125.00024414 55.9644-125.00024414 125 0 69.036 55.96444414 125 125.00024414 125z" fill="#e2333d"/><g clip-rule="evenodd" fill="#fff" fill-rule="evenodd"><path d="m134.111 186.025 40.4-40.3c2.025-2.012.6-5.475-2.262-5.475h-13.925c-.85 0-1.663.338-2.263.938l-5.687 5.662c-2.025 2.013-5.463.588-5.463-2.262v-29.35c0-1.775 1.438-3.2 3.2-3.2h28.2c.85 0 1.663.337 2.263.937l.425.425c1.25 1.25 1.25 3.275 0 4.525l-.588.588c-2.012 2.012-.587 5.462 2.263 5.462h14.1c.85 0 1.662-.337 2.262-.937l5.175-5.175c1.25-1.25 1.25-3.275 0-4.525l-16.637-16.6376c-.6-.6-1.413-.9375-2.263-.9375h-51.487c-1.775 0-3.2 1.4375-3.2 3.2v84.7871c0 2.85 3.45 4.288 5.462 2.263z"/><path d="m121.275 120.787v-21.812c0-1.775-1.438-3.2-3.2-3.2h-51.6503c-.85 0-1.6625.3375-2.2625.9375l-16.75 16.6625c-1.2625 1.25-1.2625 3.287 0 4.537 22.8 22.7 45.6 45.425 68.3878 68.125 2.025 2.013 5.462.575 5.462-2.275v-40.3c0-1.775-1.437-3.2-3.2-3.2h-9.862c-1.775 0-3.2 1.438-3.2 3.2v.9c0 2.85-3.425 4.275-5.4503 2.275l-29.0625-28.7c-1.2625-1.25-1.275-3.3 0-4.55l.425-.425c.6-.6 1.4125-.925 2.2625-.925h28.6373c1.775 0 3.2 1.438 3.2 3.2v5.538c0 1.775 1.438 3.2 3.2 3.2h9.863c1.775 0 3.2-1.438 3.2-3.2z"/><path d="m113.936 87.0502 8.275-14.325c1.238-2.1375 4.313-2.1375 5.55 0l8.263 14.325c.575.9875 1.625 1.6 2.775 1.6h11.35c2.462 0 4.012-2.675 2.775-4.8l-25.163-43.575c-1.237-2.1375-4.312-2.1375-5.55 0l-25.1625 43.575c-1.2375 2.1375.3125 4.8 2.775 4.8h11.3375c1.15 0 2.2-.6125 2.775-1.6z"/><path d="m88.962 170.775h-17.925c-2.4625 0-4.0125-2.675-2.775-4.8l5.075-8.8c.725-1.262.5125-2.837-.5125-3.862l-7.2375-7.225c-1.4875-1.488-3.9875-1.163-5.0375.662l-20.4875 35.5c-1.2375 2.138.3125 4.8 2.775 4.8h55.9875c2.8495 0 4.2875-3.45 2.2625-5.475l-9.875-9.862c-.6-.6-1.4125-.938-2.2625-.938z"/><path d="m158.748 171.713-9.862 9.863c-2.013 2.012-.588 5.462 2.262 5.462h56c2.463 0 4.013-2.675 2.775-4.8l-20.512-35.5c-1.05-1.825-3.55-2.15-5.038-.662l-7.237 7.225c-1.025 1.025-1.238 2.612-.513 3.862l5.075 8.8c1.238 2.138-.312 4.8-2.775 4.8h-17.925c-.85 0-1.662.338-2.262.938z"/></g></g></svg>