<svg width="250" height="250" viewBox="0 0 250 250" fill="none" xmlns="http://www.w3.org/2000/svg">
<g clip-path="url(#clip0_37_33588)">
<path d="M250 125C250 194.05 194.05 250 125 250C55.95 250 0 194.05 0 125C0 55.95 55.95 0 125 0C194.05 0 250 55.95 250 125Z" fill="#F8931F"/>
<path d="M184.15 109.299L180.15 95.7992L161.2 100.349L152.15 69.9492L129.65 75.3992L146.8 132.949L146.45 133.149L93.6499 84.0492L70.9499 89.4992L79.9999 119.899L60.8999 124.499L64.8999 137.999L83.9999 133.399L86.6499 142.299L67.5499 146.899L71.5499 160.399L90.6499 155.799L97.8499 179.999L120.5 174.549L103.4 116.999L103.75 116.799L156.55 165.899L179.05 160.449L171.85 136.249L190.8 131.699L186.8 118.199L167.85 122.749L165.2 113.849L184.15 109.299Z" fill="white"/>
</g>
<defs>
<clipPath id="clip0_37_33588">
<rect width="250" height="250" fill="white"/>
</clipPath>
</defs>
</svg>
