<svg fill="none" height="250" viewBox="0 0 250 250" width="250" xmlns="http://www.w3.org/2000/svg" xmlns:xlink="http://www.w3.org/1999/xlink"><clipPath id="a"><path d="m0 0h250v250h-250z"/></clipPath><g clip-path="url(#a)"><path d="m250 125c0 69.05-55.95 125-125 125s-125-55.95-125-125 55.95-125 125-125 125 55.95 125 125z" fill="#f8931f"/><path d="m184.15 109.299-4-13.4998-18.95 4.5498-9.05-30.3998-22.5 5.45 17.15 57.5498-.35.2-52.8001-49.0998-22.7 5.45 9.05 30.3998-19.1 4.6 4 13.5 19.1-4.6 2.65 8.9-19.1 4.6 4 13.5 19.1-4.6 7.2 24.2 22.6501-5.45-17.1-57.55.35-.2 52.8 49.1 22.5-5.45-7.2-24.2 18.95-4.55-4-13.5-18.95 4.55-2.65-8.9z" fill="#fff"/></g></svg>