<svg width="250" height="250" viewBox="0 0 250 250" fill="none" xmlns="http://www.w3.org/2000/svg">
<g clip-path="url(#clip0_50_11121)">
<path d="M125 250C108.128 250 91.759 246.693 76.3423 240.175C61.4549 233.878 48.0932 224.864 36.6101 213.39C25.1358 201.916 16.1222 188.545 9.82502 173.658C3.30735 158.241 0 141.872 0 125C0 108.128 3.30735 91.759 9.82502 76.3423C16.1222 61.4549 25.1358 48.0932 36.6101 36.6101C48.0932 25.1358 61.4549 16.1222 76.3423 9.82502C91.759 3.30735 108.128 0 125 0C141.872 0 158.241 3.30735 173.658 9.82502C188.545 16.1222 201.907 25.1358 213.39 36.6101C224.864 48.0844 233.878 61.4549 240.175 76.3423C246.693 91.759 250 108.128 250 125C250 141.872 246.693 158.241 240.175 173.658C233.878 188.545 224.864 201.907 213.39 213.39C201.916 224.864 188.545 233.878 173.658 240.175C158.241 246.701 141.872 250 125 250Z" fill="white"/>
<path d="M125 243.378C190.378 243.378 243.377 190.379 243.377 125.001C243.377 59.624 190.378 6.625 125 6.625C59.6225 6.625 6.62354 59.624 6.62354 125.001C6.62354 190.379 59.6225 243.378 125 243.378Z" fill="black"/>
<path d="M127.91 77.9156C143.724 79.3267 156.168 92.4238 156.556 108.511L180.819 118.591L168.172 97.9713L195.063 71.0804L178.993 55.0111L155.957 78.0567L127.919 32.3359V77.9156H127.91Z" fill="white"/>
<path d="M156.142 114.5C153.814 128.506 142.242 139.38 127.91 140.668V157.319L181.304 124.96L156.142 114.5Z" fill="white"/>
<path d="M93.9992 114.5L68.8369 124.951L122.231 157.31V140.659C107.899 139.38 96.3276 128.505 93.9992 114.5Z" fill="white"/>
<path d="M180.704 141.93L127.91 173.927V216.305L149.633 185.692L172.308 208.368L188.377 192.298L162.977 166.898L180.704 141.93Z" fill="white"/>
<path d="M122.231 173.927L69.4367 141.93L87.1641 166.898L61.7637 192.298L77.833 208.368L100.508 185.701L122.231 216.296V173.927Z" fill="white"/>
<path d="M69.322 118.6L93.5847 108.52C93.9727 92.4326 106.417 79.3355 122.231 77.9244V32.3359L94.1932 78.0567L71.1477 55.0111L55.0784 71.0892L81.9693 97.9801L69.322 118.6Z" fill="white"/>
<path d="M126.182 105.673C118.394 103.283 118.394 101.96 118.394 100.893C118.394 99.4112 120.634 97.3651 124.841 97.3651C127.328 97.3651 131.509 97.9825 131.509 102.145H139.085C139.085 94.7545 133.361 89.7891 124.841 89.7891C115.731 89.7891 110.818 95.513 110.818 100.893C110.818 108.248 117.274 110.859 123.906 112.905C131.694 115.295 131.738 116.636 131.738 117.703C131.738 119.185 129.498 121.231 125.291 121.231C122.795 121.231 118.623 120.614 118.623 116.451H111.047C111.047 123.841 116.771 128.807 125.291 128.807C134.402 128.807 139.314 123.083 139.314 117.703C139.323 110.339 132.823 107.71 126.182 105.673Z" fill="white"/>
</g>
<defs>
<clipPath id="clip0_50_11121">
<rect width="250" height="250" fill="white"/>
</clipPath>
</defs>
</svg>
