<svg fill="none" height="250" viewBox="0 0 250 250" width="250" xmlns="http://www.w3.org/2000/svg" xmlns:xlink="http://www.w3.org/1999/xlink"><clipPath id="a"><path d="m0 0h250v250h-250z"/></clipPath><g clip-path="url(#a)"><path d="m125 250c-16.872 0-33.241-3.307-48.6577-9.825-14.8874-6.297-28.2491-15.311-39.7322-26.785-11.4743-11.474-20.4879-24.845-26.78508-39.732-6.51767-15.417-9.82502-31.786-9.82502-48.658s3.30735-33.241 9.82502-48.6577c6.29718-14.8874 15.31078-28.2491 26.78508-39.7322 11.4831-11.4743 24.8448-20.4879 39.7322-26.78508 15.4167-6.51767 31.7857-9.82502 48.6577-9.82502s33.241 3.30735 48.658 9.82502c14.887 6.29718 28.249 15.31078 39.732 26.78508 11.474 11.4743 20.488 24.8448 26.785 39.7322 6.518 15.4167 9.825 31.7857 9.825 48.6577s-3.307 33.241-9.825 48.658c-6.297 14.887-15.311 28.249-26.785 39.732-11.474 11.474-24.845 20.488-39.732 26.785-15.417 6.526-31.786 9.825-48.658 9.825z" fill="#fff"/><path d="m125 243.378c65.378 0 118.377-52.999 118.377-118.377 0-65.377-52.999-118.376-118.377-118.376-65.3775 0-118.37646 52.999-118.37646 118.376 0 65.378 52.99896 118.377 118.37646 118.377z" fill="#000"/><g fill="#fff"><path d="m127.91 77.9156c15.814 1.4111 28.258 14.5082 28.646 30.5954l24.263 10.08-12.647-20.6197 26.891-26.8909-16.07-16.0693-23.036 23.0456-28.038-45.7208v45.5797z"/><path d="m156.142 114.5c-2.328 14.006-13.9 24.88-28.232 26.168v16.651l53.394-32.359z"/><path d="m93.9992 114.5-25.1623 10.451 53.3941 32.359v-16.651c-14.332-1.279-25.9034-12.154-28.2318-26.159z"/><path d="m180.704 141.93-52.794 31.997v42.378l21.723-30.613 22.675 22.676 16.069-16.07-25.4-25.4z"/><path d="m122.231 173.927-52.7943-31.997 17.7274 24.968-25.4004 25.4 16.0693 16.07 22.675-22.667 21.723 30.595z"/><path d="m69.322 118.6 24.2627-10.08c.388-16.0874 12.8323-29.1845 28.6463-30.5956v-45.5885l-28.0378 45.7208-23.0455-23.0456-16.0693 16.0781 26.8909 26.8909z"/><path d="m126.182 105.673c-7.788-2.39-7.788-3.713-7.788-4.78 0-1.4818 2.24-3.5279 6.447-3.5279 2.487 0 6.668.6174 6.668 4.7799h7.576c0-7.3905-5.724-12.3559-14.244-12.3559-9.11 0-14.023 5.7239-14.023 11.1039 0 7.355 6.456 9.966 13.088 12.012 7.788 2.39 7.832 3.731 7.832 4.798 0 1.482-2.24 3.528-6.447 3.528-2.496 0-6.668-.617-6.668-4.78h-7.576c0 7.39 5.724 12.356 14.244 12.356 9.111 0 14.023-5.724 14.023-11.104.009-7.364-6.491-9.993-13.132-12.03z"/></g></g></svg>