<svg width="262" height="262" viewBox="0 0 262 262" fill="none" xmlns="http://www.w3.org/2000/svg">
<g clip-path="url(#clip0_112_11078)">
<g clip-path="url(#clip1_112_11078)">
<g clip-path="url(#clip2_112_11078)">
<path d="M131 262C203.35 262 262 203.35 262 131C262 58.6498 203.35 0 131 0C58.6498 0 0 58.6498 0 131C0 203.35 58.6498 262 131 262Z" fill="black"/>
<g clip-path="url(#clip3_112_11078)">
<path d="M139.316 131L207.758 94.1009L196.244 71.8011L133.559 97.3898C131.96 98.0315 130.121 98.0315 128.521 97.3898L65.8359 71.8011L54.3223 94.1009L122.765 131L54.3223 167.899L65.8359 190.199L128.521 164.61C130.121 163.969 131.96 163.969 133.559 164.61L196.244 190.199L207.758 167.899L139.316 131Z" fill="#23F7DD"/>
</g>
</g>
</g>
<ellipse cx="211.001" cy="211" rx="51" ry="51" fill="white"/>
<path d="M196.975 231L186.003 191H190.94L199.326 223.578H199.718L208.26 191H213.746L222.288 223.578H222.68L231.066 191H236.003L225.031 231H220.015L211.16 199.125H210.846L201.99 231H196.975Z" fill="black"/>
</g>
<defs>
<clipPath id="clip0_112_11078">
<rect width="262" height="262" fill="white"/>
</clipPath>
<clipPath id="clip1_112_11078">
<rect width="262" height="262" fill="white"/>
</clipPath>
<clipPath id="clip2_112_11078">
<rect width="262" height="262" fill="white"/>
</clipPath>
<clipPath id="clip3_112_11078">
<rect width="153.516" height="118.719" fill="white" transform="translate(54.2422 71.6406)"/>
</clipPath>
</defs>
</svg>
