<svg fill="none" height="262" viewBox="0 0 262 262" width="262" xmlns="http://www.w3.org/2000/svg" xmlns:xlink="http://www.w3.org/1999/xlink"><clipPath id="a"><path d="m0 0h262v262h-262z"/></clipPath><clipPath id="b"><path d="m0 0h262v262h-262z"/></clipPath><clipPath id="c"><path d="m0 0h262v262h-262z"/></clipPath><clipPath id="d"><path d="m54.2422 71.6406h153.516v118.719h-153.516z"/></clipPath><g clip-path="url(#a)"><g clip-path="url(#b)"><g clip-path="url(#c)"><path d="m131 262c72.35 0 131-58.65 131-131 0-72.3502-58.65-131-131-131-72.3502 0-131 58.6498-131 131 0 72.35 58.6498 131 131 131z" fill="#000"/><g clip-path="url(#d)"><path d="m139.316 131 68.442-36.8991-11.514-22.2998-62.685 25.5887c-1.599.6417-3.438.6417-5.038 0l-62.6851-25.5887-11.5136 22.2998 68.4427 36.8991-68.4427 36.899 11.5136 22.3 62.6851-25.589c1.6-.641 3.439-.641 5.038 0l62.685 25.589 11.514-22.3z" fill="#23f7dd"/></g></g></g><ellipse cx="211.001" cy="211" fill="#fff" rx="51" ry="51"/><path d="m196.975 231-10.972-40h4.937l8.386 32.578h.392l8.542-32.578h5.486l8.542 32.578h.392l8.386-32.578h4.937l-10.972 40h-5.016l-8.855-31.875h-.314l-8.856 31.875z" fill="#000"/></g></svg>