<svg fill="none" height="250" viewBox="0 0 250 250" width="250" xmlns="http://www.w3.org/2000/svg" xmlns:xlink="http://www.w3.org/1999/xlink"><linearGradient id="a" gradientUnits="userSpaceOnUse" x1="157.975" x2="92.0561" y1="157.289" y2="102.514"><stop offset="0" stop-color="#3c3738"/><stop offset=".5" stop-color="#040404"/><stop offset="1" stop-color="#3c3738"/></linearGradient><clipPath id="b"><path d="m0 0h250v250h-250z"/></clipPath><g clip-path="url(#b)"><circle cx="125" cy="125" fill="#fff" r="125"/><path d="m206.888 121.082-44.315-48.164-37.924 40.819-37.1823-40.819-44.3149 48.164c-1.9774 2.118-1.9774 5.402 0 7.592l44.3149 48.411 37.2533-39.972 37.853 39.972 44.315-48.447c1.942-2.189 1.942-5.438 0-7.556zm-142.5498 6.497c-1.589-1.73-1.5184-4.379.0706-6.073l23.1639-24.2942 26.8013 28.0722-26.8013 28.072zm121.2928 0-23.306 25.706-26.8-28.072 26.8-28.0719 23.164 24.2939c1.695 1.73 1.731 4.414.142 6.144z" fill="#3c3738"/><path d="m89.7019 99.4271 64.0891 68.4679 10.593-12.394-63.63-67.9737z" fill="url(#a)"/><path d="m88.6438 151.969 10.9463 11.441 63.7709-67.5142-11.052-11.8997z" fill="#3c3738"/></g></svg>