<svg fill="none" height="250" viewBox="0 0 250 250" width="250" xmlns="http://www.w3.org/2000/svg"><path d="m125.537 0c38.189 52.22 76.025 104.73 114.213 156.971-38.083 30.948-76.113 61.957-114.089 93.029-38.6023-30.969-77.036-62.102-115.661-93.029 38.6433-52.221 77.1558-104.5443 115.537-156.971zm-67.812 150.875c16.8388 13.416 33.4713 27.061 50.352 40.416.042-36.302.166-72.625-.062-108.9472-16.57 22.9862-33.6162 45.6222-50.29 68.5312zm85.314-67.9525c-.084 36.0745-.084 72.1635 0 108.2655 16.301-13.626 32.934-26.834 49.297-40.376-16.467-22.618-32.976-45.187-49.297-67.892z" fill="#3d82f3"/></svg>