<svg width="250" height="250" viewBox="0 0 250 250" fill="none" xmlns="http://www.w3.org/2000/svg">
<path d="M125.537 0C163.726 52.22 201.562 104.73 239.75 156.971C201.667 187.919 163.637 218.928 125.661 250C87.0587 219.031 48.625 187.898 10 156.971C48.6433 104.75 87.1558 52.4267 125.537 0ZM57.725 150.875C74.5638 164.291 91.1963 177.936 108.077 191.291C108.119 154.989 108.243 118.666 108.015 82.3438C91.445 105.33 74.3988 127.966 57.725 150.875ZM143.039 82.9225C142.955 118.997 142.955 155.086 143.039 191.188C159.34 177.562 175.973 164.354 192.336 150.812C175.869 128.194 159.36 105.625 143.039 82.92V82.9225Z" fill="#3D82F3"/>
</svg>
