<svg fill="none" height="250" viewBox="0 0 250 250" width="250" xmlns="http://www.w3.org/2000/svg" xmlns:xlink="http://www.w3.org/1999/xlink"><linearGradient id="a" gradientUnits="userSpaceOnUse" x1="62.5055" x2="187.509" y1="228.423" y2="11.9226"><stop offset="0" stop-color="#ffdc00"/><stop offset=".33" stop-color="#e58e2f"/><stop offset=".67" stop-color="#db2d72"/><stop offset="1" stop-color="#f0f"/></linearGradient><clipPath id="b"><path d="m0 0h250v250h-250z"/></clipPath><g clip-path="url(#b)"><path d="m58.7611 224.937-16.9271-29.32c-.2621-.534-.3984-1.121-.3984-1.717 0-.595.1363-1.182.3984-1.717l18.7956-32.547c.3306-.502.7737-.921 1.2942-1.222s1.104-.477 1.7043-.513h37.5839c.601.036 1.186.212 1.707.513.522.301.967.72 1.299 1.222l18.795 32.547c.266.54.404 1.134.404 1.736s-.138 1.195-.404 1.735l-18.795 32.547c-.331.492-.768.903-1.28 1.202-.511.299-1.084.479-1.674.526h-33.7882c-1.7375-.111-3.4263-.618-4.937-1.484-1.5107-.865-2.803-2.065-3.7777-3.508zm122.0569-66.977-37.443-64.8286c-.455-.6855-1.063-1.2562-1.775-1.6676-.713-.4113-1.511-.6519-2.332-.703h-74.8866c-.8211.0511-1.6192.2917-2.3316.703-.7124.4114-1.3199.9821-1.7747 1.6676l-37.4435 64.8576c-.3679.736-.5594 1.548-.5594 2.371s.1915 1.634.5594 2.371l10.9746 19.024 19.2018-33.234c.5203-.798 1.2213-1.463 2.0463-1.94.825-.478 1.7508-.754 2.7024-.807h49.3343c.951.053 1.877.329 2.702.807.825.477 1.526 1.142 2.046 1.94l24.675 42.732c.429.85.653 1.79.653 2.743s-.224 1.893-.653 2.744l-19.202 33.234h21.934c.822-.051 1.621-.292 2.334-.705.712-.413 1.319-.986 1.772-1.673l37.444-64.851c.379-.74.578-1.559.582-2.39.003-.831-.188-1.652-.56-2.395zm67.945-42.902-57.436-99.524c-.973-1.4874-2.282-2.7254-3.821-3.6144-1.54-.889-3.266-1.404-5.041-1.5036h-114.9227c-1.7748.0996-3.5014.6146-5.0407 1.5036-1.5394.889-2.8484 2.127-3.8217 3.6144l-57.45768 99.524c-.801004 1.586-1.21831375 3.338-1.21831375 5.115 0 1.776.41730975 3.528 1.21831375 5.114l13.16798 22.806 38.1821-66.1429c.6431-.9847 1.5091-1.804 2.5279-2.3917 1.0188-.5876 2.1616-.9271 3.336-.9908h86.7108c1.174.0637 2.317.4032 3.336.9908 1.019.5877 1.885 1.407 2.528 2.3917l43.359 75.1009c.532 1.049.808 2.207.808 3.383 0 1.175-.276 2.334-.808 3.382l-38.175 66.113h26.27c1.775-.099 3.501-.614 5.041-1.503 1.539-.889 2.848-2.127 3.821-3.615l57.458-99.524c.801-1.586 1.218-3.338 1.218-5.114 0-1.777-.417-3.529-1.218-5.115z" fill="url(#a)"/></g></svg>