<svg width="250" height="250" viewBox="0 0 250 250" fill="none" xmlns="http://www.w3.org/2000/svg">
<g clip-path="url(#clip0_47_12370)">
<path d="M250 125C250 55.8998 193.966 0 125 0C55.8998 0 0 55.8998 0 125C0 193.966 55.8998 250 125 250C193.966 250 250 193.966 250 125Z" fill="url(#paint0_radial_47_12370)"/>
<path d="M209.995 85.9345C209.456 89.0326 208.917 90.5143 208.109 92.1307C207.301 94.0164 206.493 96.0369 205.684 100.347C205.415 101.964 205.146 103.311 205.011 104.388V104.523C204.742 106.274 204.607 107.486 203.933 109.507C203.395 111.258 202.452 114.086 200.162 117.05C198.276 119.474 195.178 123.65 191.002 124.189C190.598 124.189 189.925 124.189 189.521 124.054C177.667 117.993 167.565 113.548 164.063 112.605C160.022 111.393 160.56 102.502 160.965 94.6899C161.234 91.1878 161.369 87.8203 161.234 84.9916C160.695 75.024 158.944 64.2481 150.323 58.9949C145.205 55.8968 138.47 54.9539 132.139 54.9539C133.351 54.4151 134.564 53.607 136.045 52.7988C139.817 50.6436 144.397 47.9496 149.111 47.4108C150.593 47.2761 152.075 47.1414 153.556 46.872C162.85 45.7944 170.932 44.8516 179.418 47.8149C183.324 49.1619 191.137 53.4723 193.157 57.6479C194.639 60.4766 197.064 62.7664 201.778 67.2115C204.337 69.5013 205.954 70.8483 207.166 71.9259C208.917 73.2729 209.187 73.677 209.725 74.6199C211.342 77.8526 210.803 81.2201 209.995 85.9345Z" fill="white"/>
<path d="M167.026 126.745C167.565 126.879 167.834 127.553 167.43 128.092C166.218 129.978 164.736 132.671 162.985 135.77C162.177 137.251 161.369 138.733 160.695 139.81C158.405 143.717 158.271 147.084 158.136 149.643C158.001 152.472 157.867 153.684 156.115 154.762C154.768 155.705 153.287 155.974 143.589 157.456C141.837 157.725 141.164 157.995 140.49 158.399C140.356 158.534 140.086 158.534 139.952 158.668C139.413 158.938 138.874 158.399 138.874 157.86C139.009 156.513 139.009 154.762 139.009 152.472V152.068C139.009 150.182 139.009 148.566 138.874 147.354C138.739 144.929 138.739 143.851 139.413 142.774C140.221 141.427 140.895 141.023 141.837 140.349C143.319 139.406 145.34 138.194 148.168 134.153C149.785 131.998 150.054 130.786 150.323 129.843C150.458 129.439 150.458 129.304 151.67 128.361C152.883 127.418 156.789 124.455 161.773 125.263C163.389 125.532 165.14 126.071 167.026 126.745Z" fill="white"/>
<path d="M128.368 171.467C128.098 171.737 127.963 171.871 127.559 171.871C126.482 171.871 125.808 171.602 125.404 171.063C124.461 169.851 124.596 167.426 124.731 165.945L128.906 164.867C129.176 167.157 129.31 170.255 128.368 171.467Z" fill="white"/>
<path d="M128.637 156.651C128.502 157.19 128.502 157.864 128.502 158.672C128.502 158.941 128.502 159.211 128.502 159.48C128.502 160.154 128.502 161.231 128.502 161.77C127.155 162.174 126.078 162.174 124.731 162.174C124.731 161.77 124.731 161.097 124.731 160.692C124.731 160.423 124.731 160.019 124.731 159.75C124.731 159.345 124.731 159.076 124.731 158.672C124.731 157.864 124.731 156.651 124.865 156.247C125.27 156.247 125.674 156.113 126.078 155.978C126.886 155.843 128.098 155.574 128.772 155.709C128.772 155.978 128.772 156.382 128.637 156.651Z" fill="white"/>
<path d="M121.094 170.258C120.959 172.413 120.286 174.972 118.265 175.376C117.322 175.511 116.918 175.242 116.649 174.972C115.302 173.76 115.167 169.988 115.302 167.294C116.245 167.294 117.322 167.16 118.669 166.89C119.478 166.756 120.286 166.486 120.959 166.352C121.094 167.429 121.229 168.776 121.094 170.258Z" fill="white"/>
<path d="M120.151 162.71L115.706 164.326C115.975 162.575 116.245 160.151 116.379 158.534C116.514 157.457 116.783 157.053 116.918 156.918C116.918 156.918 117.053 156.783 117.187 156.783C117.187 156.783 117.187 156.783 117.322 156.783H117.457L120.286 156.648C120.151 157.995 120.151 160.959 120.151 162.71Z" fill="white"/>
<path d="M112.877 161.367C112.608 162.041 112.338 163.927 112.204 165.274L106.681 165.139C106.951 163.388 107.489 161.637 107.893 160.29C108.432 158.943 108.836 157.865 109.375 157.596C109.914 157.326 111.126 157.192 111.934 157.865C113.147 158.673 113.416 159.886 112.877 161.367Z" fill="white"/>
<path d="M110.857 178.475C110.453 179.014 109.914 179.418 109.375 179.418C108.701 179.553 108.297 179.284 107.893 179.014C106.142 177.398 106.277 172.145 106.412 169.585C108.701 169.047 111.261 168.643 112.473 168.508C112.473 170.528 112.608 176.051 110.857 178.475Z" fill="white"/>
<path d="M103.583 164.865C103.314 165.538 103.044 166.212 102.91 166.885C102.236 167.155 100.216 166.885 98.1951 166.481L99.5421 157.726C101.832 157.052 104.526 156.918 105.065 157.591C106.008 158.534 104.256 162.979 103.583 164.865Z" fill="white"/>
<path d="M101.024 179.687C99.9462 181.034 98.3299 181.707 96.04 181.573C94.4236 181.573 93.8848 180.899 93.6154 180.495C92.4031 178.475 93.6154 173.76 94.8277 170.797L102.371 171.201C102.506 171.74 102.506 172.413 102.506 173.087C102.64 175.377 102.371 178.071 101.024 179.687Z" fill="white"/>
<path d="M163.524 115.969C156.654 114.083 157.328 104.116 157.866 94.4173C158.001 91.0498 158.271 87.8171 158.136 85.1231C157.597 76.0983 156.115 66.2654 148.842 61.8203C141.029 57.1059 128.233 58.1835 120.42 59.1264C117.592 59.9345 114.898 60.608 112.742 60.4733C108.163 60.2039 104.526 58.3182 101.293 56.5671C98.8686 55.2201 96.7134 54.0078 94.5582 54.0078C94.4235 54.0078 94.2888 54.0078 94.2888 54.0078C88.2274 54.4119 85.3987 55.8936 82.8395 58.1835C82.166 58.7223 81.3578 60.3386 78.7985 67.747C77.4515 71.5186 77.3168 73.5391 77.0474 75.4248C76.7781 77.1759 76.6434 79.0617 75.7005 81.8904C75.027 83.7761 74.4882 85.3925 74.0841 87.0089C72.8718 91.1845 71.7942 94.552 68.8309 98.5929C68.4268 98.997 68.0227 99.8052 67.4839 100.479C66.8104 101.556 66.0022 102.903 64.7899 104.385C63.9817 105.463 62.2306 109.503 62.3653 110.716C62.5 112.736 63.1735 113.949 63.847 115.296C64.5205 116.643 65.4634 118.259 65.5981 120.549V120.953C65.8675 124.455 65.3287 126.206 58.7285 132.133C54.5528 135.904 51.4548 139.541 49.4343 142.235C49.2996 142.505 49.4343 142.774 49.8384 142.774C49.9731 142.774 49.9731 142.774 49.9731 142.774C50.1078 142.774 50.2425 142.774 50.3772 142.774C50.5119 142.774 50.6466 142.774 50.7813 142.774C50.916 142.774 51.0507 142.774 51.1854 142.774C52.8018 142.909 54.4181 143.582 55.4957 144.794C55.6304 145.064 56.0345 145.064 56.3039 144.929C57.3815 144.525 58.5938 144.525 59.6714 144.66C61.0184 144.794 62.5 145.199 63.4429 146.141C63.7123 146.411 64.1164 146.546 64.5205 146.411C65.5981 146.141 66.8104 146.141 67.888 146.546C68.6962 146.815 69.5043 147.354 70.0431 148.027C70.4472 148.431 71.1207 148.566 71.6595 148.297C71.9289 148.162 72.333 147.893 72.7371 147.758C74.2188 147.219 75.8352 147.488 77.1821 148.027C77.8556 148.297 78.5291 148.431 79.2026 148.97C80.2802 149.778 81.0884 150.856 81.4925 152.068C81.7619 152.742 82.7048 153.011 83.2436 152.472C84.3212 151.664 85.1293 151.529 85.9375 151.799C86.3416 151.933 86.611 152.203 86.8804 152.607C87.2845 153.146 87.958 153.685 88.4968 153.415C90.7867 152.742 93.4806 153.146 95.5011 154.223C96.1746 154.627 96.9828 155.166 97.3869 155.974V155.57C97.3869 155.436 97.5216 155.301 97.6563 155.166L98.0604 155.032C99.138 154.627 104.795 153.011 106.95 155.301C107.085 155.436 107.22 155.436 107.355 155.301C107.624 155.032 107.893 154.762 108.028 154.762C109.51 153.954 111.934 153.819 113.551 155.301C113.82 155.57 114.359 155.436 114.628 155.166C114.763 154.897 114.898 154.762 115.167 154.627C115.706 154.089 116.514 153.954 117.322 153.954L120.42 153.819C121.228 153.819 123.653 153.55 124.327 153.415H124.461C124.731 153.415 125.135 153.28 125.539 153.146C127.021 152.876 128.772 152.472 130.119 153.146C131.466 153.819 131.331 155.301 131.196 156.648C131.196 157.187 131.061 157.725 131.061 158.264C131.061 158.534 131.061 158.803 131.061 159.072C131.061 160.285 131.061 161.362 130.927 162.171L131.061 162.844C131.061 162.844 131.061 162.844 131.061 162.979C131.196 163.518 131.87 163.922 132.274 163.518C133.351 162.844 134.429 162.036 134.833 161.497V161.362C134.833 161.228 134.968 160.958 135.102 160.419C135.237 159.207 135.507 156.917 135.507 152.203C135.507 151.933 135.507 151.799 135.507 151.664C135.507 149.913 135.507 148.431 135.372 147.219C135.237 144.66 135.102 142.639 136.449 140.619C137.662 138.598 138.874 137.925 140.086 137.117C141.433 136.308 142.915 135.366 145.474 131.863C146.686 130.112 146.821 129.439 146.956 128.9C147.225 127.553 147.629 126.745 149.65 125.398C151.266 124.186 155.981 120.549 162.446 121.626C164.601 122.03 167.969 123.108 171.471 124.455C171.606 124.455 171.74 124.59 171.875 124.59H172.01C175.108 125.802 177.936 127.149 179.957 128.227C180.361 128.496 180.9 128.361 181.304 127.957C181.977 127.149 182.651 126.745 183.324 126.206C183.594 126.071 183.863 125.937 183.998 125.802C184.133 125.802 184.133 125.667 184.133 125.667C184.671 125.263 184.671 124.186 183.998 123.916C174.973 119.471 166.352 116.777 163.524 115.969ZM98.5992 117.989C96.444 127.149 82.166 137.386 75.7005 137.386H75.5658C75.4311 137.386 75.2964 137.386 75.2964 137.386C75.1617 137.386 75.027 137.386 74.8923 137.251C74.7576 137.251 74.7576 137.251 74.6229 137.251C73.4106 136.847 71.7942 136.039 70.5819 134.827C69.7737 134.019 69.1002 132.941 68.8309 131.998C68.8309 131.863 68.6962 131.594 68.6962 131.459C68.2921 129.843 67.888 127.957 69.235 124.724C69.3696 124.32 69.639 123.916 69.7737 123.512C69.7737 123.377 69.9084 123.243 69.9084 123.108C70.0431 122.704 70.1778 122.435 70.3125 122.165C70.4472 121.626 70.7166 121.222 70.8513 120.953C70.8513 120.818 70.986 120.683 70.986 120.549C71.3901 119.471 71.3901 119.067 71.5248 118.663C71.5248 118.394 71.6595 117.855 71.7942 117.316C72.1983 115.565 72.4677 114.083 72.6024 112.871C72.8718 110.581 73.2759 108.561 74.4882 106.675C74.7576 106.405 74.8923 106.136 75.1617 105.867C75.2964 105.732 75.2964 105.732 75.4311 105.597C75.5658 105.463 75.5658 105.463 75.7005 105.328C75.9699 105.058 76.374 104.924 76.6434 104.789C76.7781 104.789 76.9128 104.654 77.0474 104.654C77.3168 104.52 77.5862 104.52 77.8556 104.385C79.0679 104.116 80.4149 104.116 82.0313 104.25C83.7824 104.385 85.3987 104.654 86.7457 105.058C87.958 105.328 89.0356 105.732 89.8438 106.136C89.9785 106.136 89.9785 106.271 90.1132 106.271C90.2479 106.405 90.3826 106.405 90.652 106.54C90.9214 106.675 91.0561 106.675 91.3255 106.81C91.5949 106.944 91.8643 107.079 92.1337 107.214L92.403 107.348C93.3459 107.752 94.2888 108.291 94.9623 108.83C95.3664 109.099 95.6358 109.369 95.9052 109.638C96.0399 109.773 96.1746 109.773 96.1746 109.908C96.3093 110.042 96.3093 110.042 96.444 110.177C99.2727 112.602 99.138 115.969 98.5992 117.989ZM105.334 83.1026L105.065 84.719C104.391 88.4906 102.91 93.6091 97.5216 94.9561C92.2684 96.1684 91.0561 96.4378 87.4192 96.7072C87.2845 96.7072 87.2845 96.7072 87.1498 96.7072C84.4558 96.7072 79.2026 94.9561 78.2597 90.7804C77.7209 88.0865 78.9332 86.066 80.819 82.8332C81.0884 82.2945 81.4925 81.7557 81.8966 81.0822C84.5906 76.6371 85.5334 73.4044 86.3416 70.8451C87.1498 68.2858 87.8233 66.2654 89.5744 64.5143C89.9785 64.1102 90.3826 63.7061 90.9214 63.4367C91.1908 63.1673 91.5949 63.0326 91.999 62.7632C92.5378 62.4938 93.0765 62.3591 93.6153 62.0897C94.8276 61.6856 96.1746 61.5509 97.3869 61.5509C99.9462 61.5509 102.505 62.2244 104.257 63.7061C105.065 64.3796 106.277 65.5919 106.95 69.4981C107.22 71.5186 106.681 75.1554 105.334 83.1026ZM143.993 93.8785C142.107 97.1113 141.164 98.8623 139.547 100.209C136.315 102.903 132.678 103.442 129.58 103.442C127.425 103.442 125.539 103.038 124.327 102.903C121.094 102.364 115.302 101.287 113.281 96.5725C112.877 95.6296 112.877 95.0908 112.877 94.2826C112.877 93.6091 112.877 92.2621 112.473 89.4335V89.2988C112.338 87.9518 112.204 86.4701 112.473 84.5843V84.3149C113.551 78.6576 113.955 77.8494 114.089 77.3106C114.628 76.233 115.975 75.6942 117.188 76.3677C118.265 76.9065 118.669 78.2535 118.265 79.3311C118.13 79.6005 117.861 80.8128 116.918 85.2578V85.5272C116.649 86.7395 116.783 87.6824 116.918 88.8947V89.0294C117.322 92.2621 117.322 93.6091 117.322 94.4173C117.322 94.552 117.322 94.6867 117.322 94.8214V94.9561C117.726 95.899 118.535 96.4378 119.477 96.9766C120.151 97.246 120.824 96.7072 120.69 96.0337C119.747 91.0498 119.747 85.2578 121.633 81.621C122.306 80.4087 123.384 78.5229 124.461 76.6371C124.596 76.5024 124.731 76.233 124.731 76.0983C124.865 75.9636 124.865 75.8289 125 75.6942C125.539 74.886 125.943 74.2126 126.347 73.5391C126.347 73.4044 126.482 73.4044 126.482 73.2697L126.616 73.135C126.751 73.0003 126.751 72.8656 126.886 72.7309C126.886 72.7309 126.886 72.5962 127.021 72.5962L127.155 72.4615C127.155 72.3268 127.29 72.3268 127.29 72.1921C127.694 71.6533 128.098 71.1145 128.367 70.5757C128.906 69.9022 128.233 69.094 127.559 69.3634C125.674 70.1716 124.461 71.1145 124.192 71.2492C123.249 72.0574 121.767 71.9227 120.959 70.8451C120.151 69.9022 120.286 68.4205 121.363 67.6123C122.575 66.6695 128.772 62.2244 136.18 64.2449C141.568 65.7266 144.262 69.9022 145.339 71.3839C146.148 72.5962 148.842 76.3677 148.707 81.7557C148.707 85.6619 147.091 88.6253 143.993 93.8785Z" fill="white"/>
<path d="M95.7705 66.2656C95.3664 67.2085 94.9623 68.2861 94.4235 69.4984C93.3459 72.327 91.9989 75.5598 91.3254 76.7721C90.2478 78.7926 89.4397 80.1395 88.7662 81.0824C87.958 82.2947 87.4192 83.2376 86.8804 84.5846C86.0722 86.8745 85.9375 89.4337 86.4763 92.2624C84.9946 92.1277 82.7047 91.1848 82.4353 89.8378C82.3006 88.8949 82.8394 87.952 84.4558 85.1234C84.7252 84.5846 85.1293 83.9111 85.5334 83.3723C88.3621 78.5232 89.5743 74.8863 90.3825 72.1923C91.3254 69.3637 91.7295 68.1514 93.2112 67.0738C94.1541 66.6697 94.9623 66.4003 95.7705 66.2656Z" fill="white"/>
<path d="M92.9418 168.099C91.3254 171.332 89.4396 174.296 88.2273 175.777C87.1498 173.083 85.3987 166.752 85.9375 161.769C85.9375 161.634 85.9375 161.499 85.9375 161.364C86.0722 159.748 86.4763 158.401 87.2845 157.189C87.8233 156.381 89.1702 155.977 90.6519 155.977C91.7295 155.977 92.9418 156.246 94.0194 156.785C94.5582 157.054 95.3664 157.728 95.3664 159.479C95.6358 161.903 94.4235 165.136 92.9418 168.099Z" fill="white"/>
<path d="M179.149 132.137C179.284 132.271 179.284 132.406 179.284 132.541C178.879 133.484 178.206 134.157 177.532 134.965C176.724 135.908 175.781 136.986 174.973 138.737C173.761 141.161 173.357 143.317 173.222 148.974C172.953 155.574 173.222 159.211 173.492 161.905C173.626 164.464 173.761 166.081 173.357 168.64C172.414 173.758 170.259 177.126 167.43 181.436C163.928 186.824 160.426 192.347 154.499 194.098C153.96 194.233 153.96 194.233 152.344 194.233C150.997 194.233 148.707 194.233 144.531 194.367C136.719 194.637 132.813 194.771 129.58 195.445C126.078 196.118 124.327 196.927 122.441 197.6C120.825 198.273 119.343 198.812 116.514 199.486C114.763 199.89 112.204 200.159 103.448 200.294C94.289 200.294 88.7663 200.294 81.6273 199.486C71.6597 198.408 66.6758 197.735 63.3084 195.984C55.4959 191.808 52.1284 184.265 46.7405 171.873C46.7405 171.738 46.8752 171.603 47.0099 171.603C47.2793 171.738 47.5487 171.873 47.8181 172.007C48.0875 172.142 48.3569 172.142 48.4916 172.142C49.0303 172.277 49.5691 172.277 50.1079 172.142C50.2426 172.142 50.2426 172.142 50.3773 172.007C50.512 172.007 50.6467 172.007 50.6467 172.142C51.0508 173.085 51.5896 173.893 52.5325 174.432C53.4754 174.971 54.553 174.971 55.4959 174.971C56.5735 174.971 57.651 174.836 58.7286 174.701C59.2674 174.701 59.8062 174.971 60.0756 175.375C61.0185 177.799 62.2308 179.416 64.1165 179.685C64.2512 179.685 64.386 179.685 64.5206 179.685C64.9247 179.685 65.5982 179.55 66.4064 179.012C67.0799 178.473 68.1575 178.877 68.6963 179.55C69.1004 180.224 69.6392 180.628 70.178 181.032C72.0637 182.918 76.6435 183.861 80.415 183.861C82.4355 183.861 84.3213 183.591 85.3989 183.053C87.0153 182.244 87.0153 181.167 86.8806 180.628C86.7459 179.82 86.6112 178.877 86.4765 178.069C86.4765 177.934 86.6112 177.934 86.6112 178.069C86.8806 178.608 87.1499 179.146 87.8234 179.281C87.9581 179.281 87.9581 179.281 88.0928 179.281C89.1704 179.281 90.7868 179.685 91.0562 180.628C91.1909 181.167 91.4603 181.571 91.7297 182.11C92.4032 183.053 93.6155 184.265 96.1747 184.4H96.3094C99.2728 184.4 101.563 183.457 103.044 181.571C103.179 181.436 103.179 181.302 103.314 181.167C103.853 180.359 105.469 180.359 106.142 181.032C106.951 181.706 107.893 182.11 108.971 182.11C109.106 182.11 109.375 182.11 109.51 182.11C110.857 181.975 111.934 181.302 112.877 180.089C113.416 179.281 113.82 178.338 114.09 177.261C114.224 176.991 114.628 176.856 114.898 177.126C115.437 177.665 116.379 178.203 117.726 178.203C117.996 178.203 118.4 178.203 118.804 178.069C121.363 177.53 122.71 175.375 123.249 173.085C123.249 172.95 123.384 172.95 123.384 173.085C124.057 173.893 125.27 174.836 127.29 174.836C127.425 174.836 127.559 174.836 127.559 174.836C128.637 174.836 129.58 174.297 130.253 173.489C131.062 172.411 131.331 170.795 131.466 169.313C131.466 168.909 131.735 168.505 132.274 168.236C134.429 167.293 137.123 165.272 137.931 163.925C137.931 163.925 137.931 163.791 138.066 163.791C138.201 163.387 138.605 163.117 138.874 163.117C140.625 162.848 141.299 162.444 141.972 162.174C142.511 161.905 142.915 161.77 144.262 161.501C154.095 160.019 155.981 159.615 158.136 158.268C161.369 156.113 161.503 153.15 161.638 150.321C161.773 147.896 161.907 145.202 163.793 141.97C164.467 140.757 165.275 139.41 166.083 137.794C167.565 135.1 169.585 131.328 171.067 129.308C171.336 128.904 171.875 128.769 172.279 129.039C175.647 130.251 178.61 131.598 179.149 132.137Z" fill="white"/>
<path d="M83.513 161.497C83.1089 164.864 82.8396 169.444 83.3783 175.37C83.513 176.987 83.7824 178.738 84.0518 180.489C83.6477 180.758 82.1661 181.162 79.7415 181.028C76.2393 180.893 72.7372 180.085 71.6596 178.873L71.5249 178.738C70.7167 178.064 70.0432 177.526 70.0432 176.313C70.0432 175.909 70.1779 175.505 70.582 174.832C70.8514 174.562 71.1208 174.158 71.3902 173.619C71.929 172.811 72.7372 171.868 73.5454 170.521C75.8352 166.75 76.6434 165.537 77.721 164.056C77.8557 163.921 77.8557 163.786 77.9904 163.652C78.6639 162.843 79.3374 161.766 80.5497 160.015C81.3579 158.803 82.0314 157.725 82.7049 156.917C83.6477 155.57 84.3212 154.896 84.7253 154.492C84.7253 155.031 84.5906 155.839 84.4559 156.647C83.9171 158.264 83.6477 159.745 83.513 161.497Z" fill="white"/>
<path d="M81.762 108.426C81.762 108.56 81.762 108.56 81.762 108.426C81.2232 109.099 80.6844 109.907 80.0109 111.254C78.2598 115.026 78.2598 117.181 78.2598 118.932C78.2598 119.875 78.2598 120.548 77.9904 121.357C77.8557 121.895 77.5863 122.569 77.1823 123.242C76.2394 125.532 74.8924 128.496 75.4312 132.537C74.623 132.133 73.4107 131.19 73.1413 130.786C73.1413 130.516 73.0066 130.381 73.0066 130.112C72.7372 128.9 72.6025 128.092 73.276 126.206C75.4312 121.357 75.7006 120.144 75.8353 118.797C75.8353 118.528 75.97 118.259 75.97 117.855C76.3741 115.969 76.6435 114.352 76.7782 113.005C77.0476 110.985 77.317 109.638 77.9904 108.695C78.2598 108.291 78.9333 108.156 79.8762 108.156C80.2803 108.156 80.6844 108.156 81.2232 108.291H81.3579C81.762 108.426 81.762 108.426 81.762 108.426Z" fill="white"/>
<path d="M79.0678 156.515C78.9331 155.303 78.7984 154.225 78.2597 153.013C78.2597 153.013 78.125 152.743 78.125 152.609C77.9903 152.474 77.9903 152.339 77.8556 152.204L77.7209 152.07C77.5862 151.935 77.5862 151.935 77.4515 151.935L77.3168 151.8C77.1821 151.8 77.1821 151.666 77.0474 151.666H76.9127C76.2392 151.396 75.5657 151.127 74.7575 150.992C74.6228 150.992 74.4881 150.992 74.4881 150.992C74.3534 150.992 74.3534 150.992 74.2187 150.992H74.084C73.9493 150.992 73.8146 151.127 73.5452 151.127C73.4105 151.127 73.4105 151.262 73.2758 151.262L73.1411 151.396C73.0064 151.531 73.0064 151.531 72.8717 151.666L72.737 151.8V151.935C72.4676 152.339 72.1982 152.743 71.9288 153.147C71.2553 154.09 70.5819 155.168 69.9084 156.111C69.2349 157.054 68.6961 157.862 68.0226 158.805C67.6185 159.343 67.3491 159.748 66.945 160.286C66.945 160.421 66.8103 160.421 66.8103 160.556C67.2144 160.69 67.6185 160.69 68.0226 160.825C68.9655 160.96 69.9084 161.095 70.7166 161.229C72.6023 161.499 74.6228 161.633 76.5086 161.499C76.6433 161.499 76.6433 161.499 76.778 161.499C77.1821 160.825 77.8556 160.017 78.5291 158.939C78.9331 158.401 79.3372 157.862 79.6066 157.323C79.2025 157.188 79.0678 156.784 79.0678 156.515Z" fill="white"/>
<path d="M72.1985 164.462C72.0638 165.944 70.4474 169.715 67.8881 173.352C65.7329 176.315 64.386 177.124 64.1166 177.124C63.039 176.989 62.0961 174.43 61.2879 171.87C61.0185 170.793 60.6144 169.85 60.4797 168.907C59.9409 167.021 59.8062 164.327 59.9409 162.711C62.0961 163.923 65.8676 164.193 71.2556 164.193C71.525 164.327 71.9291 164.327 72.1985 164.462Z" fill="white"/>
<path d="M68.4268 152.344C67.4839 153.826 66.541 155.173 65.5981 156.52C65.0593 157.193 64.6552 157.867 64.1164 158.54C63.847 158.945 63.4429 159.349 63.1735 159.753C62.3653 159.618 61.6919 159.349 60.8837 159.214C60.2102 159.079 59.6714 158.81 58.9979 158.54C58.8632 158.54 58.7285 158.406 58.5938 158.406C58.4591 158.271 58.3244 158.002 58.1897 157.867C58.4591 157.463 58.5938 156.924 58.8632 156.52C59.2673 155.712 59.6714 154.904 60.2102 154.095C61.0184 152.748 61.9612 151.267 63.4429 150.324C63.5776 150.324 63.5776 150.189 63.7123 150.189C64.2511 149.92 64.7899 149.65 65.4634 149.516C65.5981 149.516 66.0022 149.516 66.2716 149.516H66.4063C66.4063 149.516 66.4063 149.516 66.541 149.516C66.6757 149.516 66.8104 149.65 67.0798 149.65C67.0798 149.65 67.2145 149.65 67.2145 149.785C67.3492 149.92 67.4839 149.92 67.6186 150.054C67.3492 149.92 67.888 150.459 67.888 150.324C68.1574 151.132 68.2921 151.536 68.4268 152.344Z" fill="white"/>
<path d="M61.153 148.438C59.4019 149.785 58.1896 151.671 57.2467 153.691C56.708 154.769 56.1692 155.846 55.6304 156.924C55.6304 157.059 55.4957 157.193 55.4957 157.193C54.9569 157.059 54.4181 156.924 54.014 156.789C53.4752 156.654 52.9364 156.385 52.3976 156.25C52.1282 156.116 51.9935 155.981 51.7241 155.846C52.2629 154.903 52.8017 153.961 53.4752 153.018C54.2834 151.805 55.2263 150.458 56.1692 149.381C56.5733 148.977 56.9773 148.438 57.3814 148.168C57.9202 147.899 58.459 147.899 59.1325 148.034C59.806 148.034 60.4795 148.034 61.0183 148.303C60.8836 148.303 61.0183 148.438 61.153 148.438Z" fill="white"/>
<path d="M58.4591 171.336C58.3245 171.471 58.3244 171.471 58.1898 171.606H58.055C57.651 171.606 57.2469 171.741 56.8428 171.741C56.0346 171.741 55.2264 171.875 54.4182 171.741C54.0141 171.741 53.61 171.606 53.3406 171.336C53.0712 170.932 52.9365 170.124 52.8018 169.585C52.263 166.622 52.263 163.659 52.5324 160.695C54.0141 161.234 55.6305 161.638 57.2469 161.908C56.8428 164.602 57.5163 168.508 57.7857 169.585C58.1898 170.124 58.3245 170.798 58.4591 171.336Z" fill="white"/>
<path d="M53.6099 147.493C52.2629 149.109 51.0506 150.86 49.9731 152.746C49.569 153.42 49.0302 154.228 48.6261 155.036C48.0873 154.901 47.5485 154.632 47.1444 154.362C46.7403 154.093 46.3362 153.824 46.0668 153.554C45.9321 153.42 45.6627 153.285 45.528 153.15C45.528 153.15 45.3933 153.15 45.3933 153.015C45.528 152.611 45.7974 152.342 45.7974 152.073C46.0668 151.399 46.3362 150.86 46.7403 150.321C47.4138 149.244 48.0873 148.166 48.8955 147.089C49.1649 146.685 49.4343 146.281 49.9731 146.146C50.3771 146.011 50.9159 146.146 51.32 146.146C52.1282 146.281 52.9364 146.819 53.6099 147.493Z" fill="white"/>
<path d="M43.2382 154.632C43.2382 154.498 43.3729 154.498 43.2382 154.632C43.777 155.171 44.1811 155.575 44.7199 155.979C44.9893 156.114 45.124 156.383 45.3934 156.518C45.3934 156.518 45.3934 156.518 45.3934 156.653C44.8546 158.943 44.4505 161.367 44.4505 163.792C44.4505 163.926 44.3158 163.926 44.3158 163.792C43.6423 160.963 42.8341 156.383 43.2382 154.632Z" fill="white"/>
<path d="M49.8384 159.617C49.569 161.637 49.4343 163.658 49.569 165.678C49.569 166.756 49.7037 167.833 49.8384 169.046C49.569 169.046 49.2996 169.046 49.0302 169.046H48.8955H48.7608C48.4914 168.911 48.4914 168.911 48.222 168.776C47.9526 168.641 47.6832 168.237 47.4139 167.833C46.8751 166.89 46.7404 165.813 46.7404 164.735C46.6057 162.715 46.8751 160.56 47.2792 158.539C47.5485 158.674 47.9526 158.808 48.3567 158.943C48.8955 159.213 49.2996 159.482 49.8384 159.617Z" fill="white"/>
<mask id="mask0_47_12370" style="mask-type:luminance" maskUnits="userSpaceOnUse" x="0" y="0" width="250" height="250">
<path d="M250 125C250 55.8998 193.966 0 125 0C55.8998 0 0 55.8998 0 125C0 193.966 55.8998 250 125 250C193.966 250 250 193.966 250 125Z" fill="white"/>
</mask>
<g mask="url(#mask0_47_12370)">
<g opacity="0.8">
<path opacity="0.8" d="M102.909 264.681C93.75 264.681 85.1293 264.142 77.8556 263.603L75.8351 263.468L73.8146 263.199C72.8717 263.064 71.7942 262.93 70.5819 262.795C63.5776 261.987 50.5118 260.64 36.0991 253.905L33.8092 252.827L31.7888 251.615C4.04091 235.99 -6.19616 212.687 -11.8535 200.16C-12.2576 199.352 -12.6617 198.409 -13.0658 197.466C-15.8944 191.674 -17.6455 186.556 -19.1272 181.707L-19.3966 180.629L-19.666 179.551C-23.7069 165.273 -24.6498 153.016 -22.8988 140.758C-21.013 128.501 -16.5679 117.456 -8.62073 105.737L-4.57978 99.1366C-3.77159 97.7896 -3.2328 96.3079 -2.8287 94.8262C0.269356 79.4706 7.27367 68.5601 10.7758 63.3068C11.7187 56.976 13.3351 50.7799 15.4903 44.7185L15.7597 43.7756L16.1638 42.8327C16.1638 42.698 16.2985 42.4286 16.4332 42.0245C18.0495 37.3101 21.6864 26.3995 30.9806 14.8155L34.4827 10.7745L38.1196 7.54176C47.2791 -0.809537 58.3243 -7.00566 70.1778 -10.5078C76.778 -12.5283 83.6476 -13.7406 90.6519 -14.1447H91.3254H92.2683C93.4806 -14.1447 94.6929 -14.2794 95.7704 -14.2794C100.081 -14.2794 104.391 -13.8753 108.701 -13.2018C111.395 -12.7977 114.089 -13.0671 116.649 -14.1447C124.057 -17.2427 131.735 -19.2632 139.682 -20.3408C140.356 -20.4755 140.894 -20.4755 141.433 -20.6102C142.645 -20.7449 144.666 -21.0143 147.09 -21.2837C151.266 -21.6878 157.732 -22.2266 164.601 -22.2266C178.206 -22.2266 189.925 -20.4755 200.431 -16.8386L201.374 -16.5692L202.182 -16.2998C225.35 -7.54445 237.069 4.71309 245.555 15.3543L245.959 15.893L247.171 16.9706C254.849 22.8974 261.315 30.3058 266.433 38.5224L268.05 41.0816L269.397 43.7756C280.711 66.809 277.074 88.226 275.727 96.1732L275.593 96.5773C274.65 102.504 273.033 108.296 271.013 113.953C270.205 119.341 268.992 124.729 267.241 129.848C264.278 139.007 259.833 147.763 254.176 155.575C250.943 160.155 247.171 164.6 243.13 168.506C241.649 169.853 240.706 171.739 240.436 173.759C240.302 174.972 240.032 176.184 239.898 177.396C236.53 195.176 228.852 207.569 225.62 212.553L216.056 226.292C204.472 240.704 190.733 250.133 174.165 255.252L170.124 256.464L165.814 257.272C160.83 258.215 155.846 258.619 150.727 258.619C150.054 258.619 149.38 258.619 148.572 258.619H148.303H147.495H146.552C144.666 258.619 142.78 259.023 140.894 259.562C129.849 263.064 117.726 264.681 102.909 264.681Z" stroke="url(#paint1_linear_47_12370)" stroke-width="1.0554" stroke-miterlimit="10"/>
<path opacity="0.8" d="M102.909 255.116C94.1541 255.116 85.6681 254.577 78.6638 254.038L77.0474 253.904L75.431 253.634C74.3534 253.499 73.1411 253.365 71.9288 253.23C65.0592 252.557 53.7446 251.21 41.0829 245.283L39.1972 244.34L37.4461 243.397C12.7963 229.793 3.77151 209.453 -1.61642 197.33C-2.02051 196.522 -2.42461 195.444 -2.9634 194.502C-5.52267 189.383 -7.13905 184.534 -8.48603 180.224L-8.75543 179.281L-9.02482 178.473C-12.527 165.676 -13.4699 154.9 -11.8535 144.259C-10.2371 133.753 -6.19616 123.92 0.80815 113.683L6.06138 105.197C7.00427 103.715 7.67776 101.964 7.94716 100.213C10.5064 85.6654 17.376 75.4283 20.4741 70.7139L20.8782 70.1751L21.0129 69.9057C21.0129 69.771 21.1476 69.6363 21.1476 69.5016C21.2823 68.8281 21.5517 68.2893 21.6864 67.7505C22.4946 61.8238 23.9763 55.8971 25.9967 50.2398L26.2661 49.4316L26.5355 48.6234C26.6702 48.354 26.6702 48.0846 26.9396 47.2764C28.4213 42.8314 31.5194 33.5372 39.6013 23.5695L42.5646 20.0673L45.528 17.3734C53.4752 10.0997 63.0388 4.71175 73.2758 1.74838C79.2025 -0.00269444 85.1293 -1.08028 91.3254 -1.34968H91.8642H92.6724C93.75 -1.34968 94.6928 -1.48437 95.6357 -1.48437C100.081 -1.48437 104.391 -2.69666 108.701 -1.88847C112.069 -1.21498 115.436 -1.61907 118.534 -2.96606C124.326 -5.52532 132.139 -6.46821 141.029 -7.6805C141.703 -7.81519 142.241 -7.81519 142.645 -7.94989C143.858 -8.08459 145.743 -8.35399 147.899 -8.48869C151.805 -8.89278 157.866 -9.29688 164.467 -9.29688C176.859 -9.29688 187.365 -7.6805 196.659 -4.58244L197.468 -4.31304L198.141 -4.04364C218.615 3.76886 228.718 14.0059 236.665 24.1083C237.069 24.6471 237.608 25.1859 237.742 25.4553L237.877 25.59L239.359 26.937L239.493 27.2064C246.363 32.4596 252.155 38.9251 256.6 46.1988L257.947 48.354L259.025 50.6439C268.723 70.4445 265.76 88.6288 264.413 96.3066L264.278 96.7107C263.335 102.368 261.853 107.756 259.833 113.144C259.159 118.262 257.947 123.381 256.331 128.23C253.637 136.312 249.731 143.99 244.747 150.994C241.379 155.843 237.338 160.288 233.028 164.195C231.007 166.08 229.661 168.505 229.391 171.333C229.122 173.354 228.852 175.24 228.583 177.26C225.62 193.02 218.885 203.796 215.652 208.645L207.839 219.96C197.468 233.295 185.21 241.915 170.393 246.495L167.026 247.573L163.389 248.246C159.079 249.054 154.634 249.459 150.323 249.324C149.65 249.324 148.976 249.324 148.303 249.324H148.168H147.764C147.764 249.324 147.629 249.324 147.36 249.324H146.552H145.743H144.262C142.241 249.459 140.221 249.728 138.2 250.401C128.367 253.634 116.918 255.116 102.909 255.116Z" stroke="url(#paint2_linear_47_12370)" stroke-width="1.0554" stroke-miterlimit="10"/>
<path opacity="0.8" d="M102.91 243.936C94.5582 243.936 86.3416 243.397 79.472 242.858L78.1251 242.723L76.7781 242.589C75.5658 242.454 74.2188 242.319 72.8718 242.185C66.4063 241.511 56.5733 240.433 45.5281 235.18L44.0464 234.507L42.6994 233.699C21.5518 221.845 13.7393 204.334 8.62075 192.75C8.21665 191.807 7.67786 190.595 7.27376 189.652C4.98389 185.072 3.50221 180.762 2.28993 176.721L2.02053 176.048L1.88583 175.374C-1.21223 164.329 -2.02042 154.9 -0.673435 146.01C0.673548 136.985 4.3104 128.499 10.5065 119.474L11.3147 118.397L12.1229 117.319C12.6617 116.646 13.0658 115.972 13.6046 115.433L16.7026 109.641C17.7802 107.756 18.4537 105.735 18.7231 103.58C20.7436 90.649 26.9397 81.3548 29.7684 77.0444C29.9031 76.7751 30.1725 76.5057 30.3072 76.371L30.9807 75.4281C31.2501 74.8893 31.5195 74.2158 31.7888 73.4076C32.0582 72.5994 32.4623 71.3871 32.7317 70.3095C33.4052 64.7869 34.7522 59.399 36.638 54.1457L36.9074 53.4722L37.1768 52.7988C37.3115 52.26 37.5809 51.8559 37.8503 50.913C39.1973 46.7373 41.7565 39.0595 48.6261 30.7082L50.916 27.8796L53.3406 25.7244C60.0755 19.5283 68.1574 15.0832 76.9128 12.3893C82.0313 10.9076 87.1498 9.96471 92.5378 9.69531H92.9419H93.6154C94.4235 9.69531 95.2317 9.69531 96.1746 9.69531C100.754 9.69531 105.199 10.2341 109.644 11.4464C113.416 12.3893 117.457 11.9852 120.959 10.2341C126.616 7.54014 134.16 4.57678 142.915 3.49919C143.454 3.36449 143.993 3.36449 144.397 3.2298C145.474 3.0951 147.225 2.8257 149.38 2.691C153.017 2.28691 158.809 1.88281 164.871 1.88281C175.916 1.88281 185.21 3.2298 193.427 6.05846L193.966 6.32786L194.504 6.59725C213.362 13.7363 221.713 23.0304 228.179 31.247C229.661 32.9981 229.795 33.2675 230.738 34.2104L231.95 35.288L232.355 35.8268C235.453 38.2513 241.783 43.2352 247.306 52.26L248.384 54.011L249.327 55.7621C257.543 72.33 254.984 87.4162 253.772 94.6899L253.637 95.094C252.829 100.347 251.347 105.6 249.192 110.584V110.988C248.653 115.703 247.575 120.417 246.094 124.862C243.804 132.001 240.436 138.602 235.991 144.663C232.355 149.916 227.91 154.631 222.926 158.672C221.713 159.614 220.771 160.827 220.097 162.174C219.424 163.521 219.019 165.002 218.885 166.484C218.75 169.447 218.346 172.411 217.807 175.374C215.248 188.979 209.321 198.408 206.358 203.122L200.296 212.012C191.272 224.135 180.496 231.947 167.43 235.988L164.736 236.797L161.773 237.335C158.136 238.009 154.364 238.278 150.593 238.278C150.054 238.278 149.38 238.278 148.707 238.278H148.572H147.899C147.764 238.278 147.495 238.278 146.821 238.278H146.148H145.609L142.511 238.413C140.356 238.548 138.2 238.817 136.18 239.625C126.886 242.589 116.245 243.936 102.91 243.936Z" stroke="url(#paint3_linear_47_12370)" stroke-width="0.9894" stroke-miterlimit="10"/>
<path opacity="0.8" d="M102.909 232.758C94.9623 232.758 87.0151 232.219 80.4149 231.68L79.472 231.545L78.5291 231.411C77.1821 231.276 75.7004 231.006 74.3535 230.872C68.292 230.198 59.9407 229.255 50.5119 224.945L49.4343 224.406L48.3567 223.867C30.4418 213.765 23.8416 198.948 18.9925 188.172C18.4537 187.095 17.9149 185.883 17.5108 184.805C15.4903 180.629 14.1433 176.723 13.0657 173.356L12.9311 172.817L12.527 172.413C7.27372 153.824 9.2942 140.759 19.5313 125.807L20.0701 124.999L20.6089 124.191C21.2823 123.383 21.9558 122.44 22.6293 121.631C23.5722 120.419 24.5151 119.072 25.5927 117.86C26.2662 117.052 26.805 116.109 27.2091 115.166L28.4214 112.203C28.9601 110.856 29.2295 109.509 29.3642 108.162C30.4418 96.1735 36.2339 87.5528 39.0625 83.2425C39.3319 82.9731 39.6013 82.4343 39.736 82.2996L40.4095 81.222L40.6789 80.9526C41.083 80.2791 41.7565 78.6627 42.2953 77.0463C42.5647 75.9687 43.1035 74.2177 43.6423 72.736V72.6013C44.1811 67.6175 45.3933 62.6336 47.1444 57.9192L47.2791 57.5151L47.4138 57.111C47.6832 56.3028 47.9526 55.6293 48.222 54.6864C49.4343 51.0496 51.4548 44.8534 56.9774 37.9838L58.7285 35.8287L60.4795 34.2123C73.5453 22.3588 88.0927 21.4159 92.9418 21.0119H93.2112H93.75C94.4235 21.0119 95.097 21.0119 95.7705 21.0119C101.563 21.0119 107.22 22.2241 112.608 24.514C113.551 24.9181 114.628 25.0528 115.571 25.0528C116.649 25.0528 117.592 24.7834 118.534 24.2446C123.518 21.4159 132.543 16.1627 144.127 14.8157C144.666 14.681 145.205 14.681 145.609 14.681C146.686 14.5463 148.303 14.4116 150.189 14.1422C153.691 13.8728 158.944 13.4688 164.601 13.4688C174.434 13.4688 182.516 14.681 189.386 16.9709L189.79 17.1056L190.194 17.2403C206.358 23.3017 213.227 30.9795 219.019 38.2532C220.501 40.2737 221.309 41.0819 222.926 42.6983L223.869 43.5065L224.542 44.3147L225.081 44.7188C227.775 46.8739 232.893 50.7802 237.473 58.1886L238.281 59.5356L238.955 60.8825C245.555 74.3524 243.4 86.4752 242.322 92.9407V93.3448C241.514 98.0593 240.167 102.774 238.281 107.219L238.147 107.623C238.147 107.758 238.147 107.758 238.012 108.027C237.877 108.431 237.877 108.835 237.877 109.239L237.742 109.778C237.338 113.819 236.395 117.725 235.048 121.497C233.028 127.558 230.199 133.216 226.428 138.334C222.791 143.587 218.615 147.898 214.036 151.265C212.015 152.747 210.399 154.633 209.186 156.922C207.974 159.212 207.435 161.637 207.435 164.196C207.435 167.294 207.031 170.527 206.492 173.625C204.337 185.209 199.488 193.022 196.39 197.736L191.945 204.336C184.133 215.247 174.838 222.251 163.658 225.753L163.12 225.888C162.177 226.157 161.234 226.427 160.291 226.561L159.617 226.696C156.519 227.235 153.421 227.504 150.323 227.504C149.784 227.504 149.246 227.504 148.707 227.504H148.572C148.303 227.504 148.033 227.504 147.764 227.504C147.495 227.504 146.956 227.504 145.878 227.504H145.474H145.07C143.588 227.504 141.703 227.639 140.086 227.639C137.796 227.774 135.641 228.178 133.486 228.986C125.404 231.411 115.571 232.758 102.909 232.758Z" stroke="url(#paint4_linear_47_12370)" stroke-width="0.9235" stroke-miterlimit="10"/>
<path opacity="0.8" d="M102.909 221.579C95.2315 221.579 87.6884 221.04 81.2229 220.502H80.5494L79.8759 220.367C78.3943 220.098 76.7779 219.963 75.2962 219.828C69.6389 219.155 62.6346 218.481 55.0915 214.844L54.2833 214.44L53.6098 214.036C38.9277 205.819 33.405 193.427 29.0947 183.46C28.5559 182.247 28.0171 181.035 27.4783 179.688C25.7272 176.186 24.5149 172.684 23.5721 169.72L23.4374 169.316L23.3027 168.912C18.9923 153.557 20.474 143.858 28.8253 131.735L29.2294 131.197L29.6335 130.658C30.307 129.715 30.9805 128.907 31.654 127.964C33.8091 125.135 35.9643 122.307 39.0624 118.939C39.7359 118.266 40.1399 117.188 40.2746 116.245L40.4093 113.147L40.2746 111.935V110.723C40.544 100.755 45.5279 93.3464 48.2218 89.3055C48.4912 88.9014 48.8953 88.3626 49.03 88.0932L49.4341 87.4197L49.8382 86.8809C50.377 86.0727 51.5893 83.2441 52.6669 80.6848C53.071 79.6072 53.6098 77.452 54.2833 75.701C54.418 75.1622 54.418 75.0275 54.5527 73.8152C54.9568 69.6395 56.0343 65.4639 57.3813 61.5576L57.516 61.2882L57.6507 61.0189C58.0548 59.9413 58.3242 59.1331 58.7283 58.0555C59.8059 54.8227 61.4223 50.1083 65.5979 44.8551L66.8102 43.3734L68.0225 42.2958C77.182 34.0792 87.0149 32.4628 93.7499 32.0587H94.0193H94.2886C94.8274 32.0587 95.2315 32.0587 95.7703 32.0587C101.428 32.0587 108.297 34.7527 111.934 36.5038C112.742 36.9079 113.685 37.1773 114.628 37.1773C115.571 37.1773 116.514 37.0426 117.457 36.7732C119.747 35.965 121.902 35.0221 123.922 33.9445C128.502 31.2505 136.045 26.9402 145.474 25.8626C146.013 25.7279 146.417 25.7279 146.821 25.7279C147.764 25.5932 149.246 25.4585 151.131 25.1891C154.364 24.9197 159.213 24.5156 164.466 24.5156C172.952 24.5156 179.957 25.4585 185.614 27.479L185.883 27.6137L186.153 27.7484C199.623 32.8669 205.011 38.6589 210.129 45.2592C211.746 47.4143 212.958 48.896 215.382 51.0512L215.921 51.59L216.46 52.1288C216.999 52.6676 217.538 53.0717 218.076 53.4758C220.366 55.2268 224.272 58.3249 227.64 63.9822L228.179 64.7904L228.583 65.7333C233.567 75.8357 231.95 85.3992 231.007 91.0566V91.4607C230.334 95.3669 229.256 99.1385 227.64 102.775C227.236 103.718 226.966 104.661 226.697 105.739C226.562 106.412 226.428 107.086 226.428 107.624L226.293 108.163C225.889 111.396 225.215 114.629 224.138 117.727C222.521 122.711 220.097 127.425 217.133 131.601C212.554 138.066 207.3 142.646 200.97 145.609C199.488 146.283 198.141 147.36 197.198 148.842C196.255 150.189 195.716 151.94 195.582 153.557C195.582 154.23 195.582 154.769 195.582 155.173C195.851 160.022 196.255 165.545 195.178 171.337C193.427 180.766 189.386 187.096 186.422 191.811C186.422 191.811 172.683 210.938 160.156 214.844L158.809 215.248L157.327 215.518C154.903 215.922 152.478 216.191 149.919 216.191C149.515 216.191 148.976 216.191 148.437 216.191C148.168 216.191 147.764 216.191 147.36 216.191C146.821 216.191 146.013 216.191 144.8 216.326H144.531H144.262C139.413 216.461 134.968 216.595 133.621 216.865C132.947 216.999 132.274 217.134 131.6 217.404C125 220.232 115.706 221.579 102.909 221.579Z" stroke="url(#paint5_linear_47_12370)" stroke-width="0.8575" stroke-miterlimit="10"/>
<path opacity="0.8" d="M102.909 210.532C95.6357 210.532 88.362 209.993 82.1659 209.589H81.8965H81.6271C79.876 209.319 78.2596 209.185 76.7779 209.05C71.5247 208.511 66.0021 207.838 60.0753 205.144L59.6713 205.009L59.2672 204.874C47.8178 198.409 43.5075 188.845 39.4665 179.551C38.9277 178.204 38.2542 176.857 37.5807 175.51C36.2338 172.816 35.1562 169.853 34.348 167.024V166.89V166.755C30.8458 154.497 31.7887 148.301 38.2542 138.872L38.3889 138.603L38.5236 138.333C39.3318 137.391 40.0053 136.448 40.6788 135.64C43.7769 131.599 46.4708 128.096 52.5322 122.439C52.9363 122.035 53.3404 121.496 53.4751 120.823C53.6098 120.284 53.6098 119.61 53.3404 119.072L52.2628 115.974C51.9935 115.031 51.8588 113.953 51.8588 113.01V112.202V111.529C52.1282 104.794 55.6303 99.5404 57.9202 96.0383C58.3243 95.4995 58.5937 94.9607 58.8631 94.5566L59.1325 94.1525L59.4019 93.7484C60.6141 92.132 62.6346 87.4176 63.7122 84.5889C63.9816 83.646 64.6551 81.3561 65.3286 79.6051C65.7327 78.2581 66.0021 76.9111 66.1368 75.5641C66.5409 72.1967 67.2144 68.8292 68.4266 65.7311V65.5964V65.4617C68.9654 64.1148 69.3695 63.0372 69.6389 61.9596C70.5818 59.1309 71.6594 55.8982 74.6228 52.2613L75.1616 51.5878L75.7004 51.049C82.1659 45.1223 89.3049 44.0447 94.6928 43.6406H94.8275H94.9622C95.2316 43.6406 95.6357 43.6406 95.9051 43.6406C101.293 43.6406 105.334 45.7958 108.028 47.2775L108.701 47.5469H108.836C109.644 47.951 110.183 48.3551 110.857 48.6245C112.473 49.4326 114.493 49.702 116.245 49.1633C120.016 48.2204 125.808 45.9305 129.58 43.7753H129.714C133.755 41.3508 139.951 37.8486 147.225 37.0404C147.629 36.9057 148.168 36.9057 148.572 36.9057C149.38 36.771 150.862 36.6363 152.478 36.5016C155.442 36.2322 160.021 35.8281 164.736 35.8281C172.01 35.8281 177.802 36.6363 182.247 38.118H182.381H182.516C193.292 42.1589 197.333 46.4693 201.643 52.1266C203.394 54.4165 205.145 56.5717 208.378 59.4003L208.648 59.6697L208.917 59.9391C209.725 60.7473 210.668 61.5555 211.746 62.3637C213.631 63.8454 216.325 65.8658 218.615 69.7721L218.885 70.1762L219.154 70.5803C222.521 77.5846 221.444 84.1848 220.636 89.1686V89.5727C220.097 92.6708 219.289 95.6342 217.942 98.5975C217.268 100.214 216.729 101.965 216.46 103.716C216.325 104.794 216.191 105.602 216.056 106.275L215.921 106.814C215.652 109.373 215.113 111.798 214.305 114.223C213.093 118.129 211.207 121.766 208.782 125.133C204.741 131.06 200.162 134.697 194.1 136.582C191.137 137.525 188.712 139.411 187.096 141.97L186.557 142.644L186.018 143.317C184.537 145.068 184.941 151.803 185.21 155.844C185.479 160.289 185.749 164.869 184.941 169.179C183.594 176.588 180.361 181.572 177.532 185.882C177.532 185.882 167.026 201.103 157.462 203.932L156.789 204.201L156.115 204.336C154.364 204.605 152.478 204.874 150.593 204.874C150.189 204.874 149.784 204.874 149.246 204.874C148.842 204.874 148.437 204.874 147.899 204.874C147.225 204.874 146.282 204.874 144.666 205.009H144.531H144.396C138.066 205.279 134.159 205.413 132.004 205.817C130.523 206.087 129.176 206.491 127.829 207.03C122.037 209.319 114.224 210.532 102.909 210.532Z" stroke="url(#paint6_linear_47_12370)" stroke-width="0.8575" stroke-miterlimit="10"/>
</g>
</g>
</g>
<defs>
<radialGradient id="paint0_radial_47_12370" cx="0" cy="0" r="1" gradientUnits="userSpaceOnUse" gradientTransform="translate(125.005 138.059) rotate(90) scale(140.417)">
<stop offset="0.1667" stop-color="#073183"/>
<stop offset="1" stop-color="#0054F9"/>
</radialGradient>
<linearGradient id="paint1_linear_47_12370" x1="-17.5057" y1="-28.106" x2="268.9" y2="272.494" gradientUnits="userSpaceOnUse">
<stop offset="0.2057" stop-color="#89D0FF"/>
<stop offset="0.3984" stop-color="#EBBF9A"/>
<stop offset="0.6015" stop-color="#EB8280"/>
<stop offset="0.8411" stop-color="#A281FF"/>
</linearGradient>
<linearGradient id="paint2_linear_47_12370" x1="-6.39955" y1="-15.1734" x2="257.635" y2="263.08" gradientUnits="userSpaceOnUse">
<stop offset="0.2057" stop-color="#89D0FF"/>
<stop offset="0.3984" stop-color="#EBBF9A"/>
<stop offset="0.6015" stop-color="#EB80DA"/>
<stop offset="0.8411" stop-color="#A281FF"/>
</linearGradient>
<linearGradient id="paint3_linear_47_12370" x1="4.81755" y1="-3.99058" x2="246.477" y2="251.911" gradientUnits="userSpaceOnUse">
<stop offset="0.2057" stop-color="#89D0FF"/>
<stop offset="0.3984" stop-color="#EBBF9A"/>
<stop offset="0.6015" stop-color="#EB8280"/>
<stop offset="0.8411" stop-color="#A281FF"/>
</linearGradient>
<linearGradient id="paint4_linear_47_12370" x1="16.0191" y1="7.23317" x2="235.253" y2="240.714" gradientUnits="userSpaceOnUse">
<stop offset="0.2057" stop-color="#89D0FF"/>
<stop offset="0.3984" stop-color="#EBBF9A"/>
<stop offset="0.6015" stop-color="#EB80E7"/>
<stop offset="0.8411" stop-color="#A281FF"/>
</linearGradient>
<linearGradient id="paint5_linear_47_12370" x1="27.1553" y1="18.4782" x2="224.005" y2="229.521" gradientUnits="userSpaceOnUse">
<stop offset="0.2057" stop-color="#89D0FF"/>
<stop offset="0.3984" stop-color="#EBBF9A"/>
<stop offset="0.6015" stop-color="#EB80D3"/>
<stop offset="0.8411" stop-color="#A281FF"/>
</linearGradient>
<linearGradient id="paint6_linear_47_12370" x1="38.4363" y1="29.5842" x2="212.884" y2="218.274" gradientUnits="userSpaceOnUse">
<stop offset="0.2057" stop-color="#89D0FF"/>
<stop offset="0.3984" stop-color="#EBBF9A"/>
<stop offset="0.6015" stop-color="#A280EB"/>
<stop offset="0.8411" stop-color="#A281FF"/>
</linearGradient>
<clipPath id="clip0_47_12370">
<rect width="250" height="250" fill="white"/>
</clipPath>
</defs>
</svg>
