<svg fill="none" height="250" viewBox="0 0 250 250" width="250" xmlns="http://www.w3.org/2000/svg" xmlns:xlink="http://www.w3.org/1999/xlink"><radialGradient id="a" cx="0" cy="0" gradientTransform="matrix(0 140.417 -140.417 0 125.005 138.059)" gradientUnits="userSpaceOnUse" r="1"><stop offset=".1667" stop-color="#073183"/><stop offset="1" stop-color="#0054f9"/></radialGradient><linearGradient id="b"><stop offset=".2057" stop-color="#89d0ff"/><stop offset=".3984" stop-color="#ebbf9a"/><stop offset=".6015" stop-color="#eb8280"/><stop offset=".8411" stop-color="#a281ff"/></linearGradient><linearGradient id="c" gradientUnits="userSpaceOnUse" x1="-17.5057" x2="268.9" xlink:href="#b" y1="-28.106" y2="272.494"/><linearGradient id="d" gradientUnits="userSpaceOnUse" x1="-6.39955" x2="257.635" y1="-15.1734" y2="263.08"><stop offset=".2057" stop-color="#89d0ff"/><stop offset=".3984" stop-color="#ebbf9a"/><stop offset=".6015" stop-color="#eb80da"/><stop offset=".8411" stop-color="#a281ff"/></linearGradient><linearGradient id="e" gradientUnits="userSpaceOnUse" x1="4.81755" x2="246.477" xlink:href="#b" y1="-3.99058" y2="251.911"/><linearGradient id="f" gradientUnits="userSpaceOnUse" x1="16.0191" x2="235.253" y1="7.23317" y2="240.714"><stop offset=".2057" stop-color="#89d0ff"/><stop offset=".3984" stop-color="#ebbf9a"/><stop offset=".6015" stop-color="#eb80e7"/><stop offset=".8411" stop-color="#a281ff"/></linearGradient><linearGradient id="g" gradientUnits="userSpaceOnUse" x1="27.1553" x2="224.005" y1="18.4782" y2="229.521"><stop offset=".2057" stop-color="#89d0ff"/><stop offset=".3984" stop-color="#ebbf9a"/><stop offset=".6015" stop-color="#eb80d3"/><stop offset=".8411" stop-color="#a281ff"/></linearGradient><linearGradient id="h" gradientUnits="userSpaceOnUse" x1="38.4363" x2="212.884" y1="29.5842" y2="218.274"><stop offset=".2057" stop-color="#89d0ff"/><stop offset=".3984" stop-color="#ebbf9a"/><stop offset=".6015" stop-color="#a280eb"/><stop offset=".8411" stop-color="#a281ff"/></linearGradient><clipPath id="i"><path d="m0 0h250v250h-250z"/></clipPath><mask id="j" height="250" maskUnits="userSpaceOnUse" width="250" x="0" y="0"><path d="m250 125c0-69.1002-56.034-125-125-125-69.1002 0-125 55.8998-125 125 0 68.966 55.8998 125 125 125 68.966 0 125-56.034 125-125z" fill="#fff"/></mask><g clip-path="url(#i)"><path d="m250 125c0-69.1002-56.034-125-125-125-69.1002 0-125 55.8998-125 125 0 68.966 55.8998 125 125 125 68.966 0 125-56.034 125-125z" fill="url(#a)"/><g fill="#fff"><path d="m209.995 85.9345c-.539 3.0981-1.078 4.5798-1.886 6.1962-.808 1.8857-1.616 3.9062-2.425 8.2163-.269 1.617-.538 2.964-.673 4.041v.135c-.269 1.751-.404 2.963-1.078 4.984-.538 1.751-1.481 4.579-3.771 7.543-1.886 2.424-4.984 6.6-9.16 7.139-.404 0-1.077 0-1.481-.135-11.854-6.061-21.956-10.506-25.458-11.449-4.041-1.212-3.503-10.103-3.098-17.9151.269-3.5021.404-6.8696.269-9.6983-.539-9.9676-2.29-20.7435-10.911-25.9967-5.118-3.0981-11.853-4.041-18.184-4.041 1.212-.5388 2.425-1.3469 3.906-2.1551 3.772-2.1552 8.352-4.8492 13.066-5.388 1.482-.1347 2.964-.2694 4.445-.5388 9.294-1.0776 17.376-2.0204 25.862.9429 3.906 1.347 11.719 5.6574 13.739 9.833 1.482 2.8287 3.907 5.1185 8.621 9.5636 2.559 2.2898 4.176 3.6368 5.388 4.7144 1.751 1.347 2.021 1.7511 2.559 2.694 1.617 3.2327 1.078 6.6002.27 11.3146z"/><path d="m167.026 126.745c.539.134.808.808.404 1.347-1.212 1.886-2.694 4.579-4.445 7.678-.808 1.481-1.616 2.963-2.29 4.04-2.29 3.907-2.424 7.274-2.559 9.833-.135 2.829-.269 4.041-2.021 5.119-1.347.943-2.828 1.212-12.526 2.694-1.752.269-2.425.539-3.099.943-.134.135-.404.135-.538.269-.539.27-1.078-.269-1.078-.808.135-1.347.135-3.098.135-5.388v-.404c0-1.886 0-3.502-.135-4.714-.135-2.425-.135-3.503.539-4.58.808-1.347 1.482-1.751 2.424-2.425 1.482-.943 3.503-2.155 6.331-6.196 1.617-2.155 1.886-3.367 2.155-4.31.135-.404.135-.539 1.347-1.482 1.213-.943 5.119-3.906 10.103-3.098 1.616.269 3.367.808 5.253 1.482z"/><path d="m128.368 171.467c-.27.27-.405.404-.809.404-1.077 0-1.751-.269-2.155-.808-.943-1.212-.808-3.637-.673-5.118l4.175-1.078c.27 2.29.404 5.388-.538 6.6z"/><path d="m128.637 156.651c-.135.539-.135 1.213-.135 2.021v.808 2.29c-1.347.404-2.424.404-3.771.404 0-.404 0-1.077 0-1.482 0-.269 0-.673 0-.942 0-.405 0-.674 0-1.078 0-.808 0-2.021.134-2.425.405 0 .809-.134 1.213-.269.808-.135 2.02-.404 2.694-.269 0 .269 0 .673-.135.942z"/><path d="m121.094 170.258c-.135 2.155-.808 4.714-2.829 5.118-.943.135-1.347-.134-1.616-.404-1.347-1.212-1.482-4.984-1.347-7.678.943 0 2.02-.134 3.367-.404.809-.134 1.617-.404 2.29-.538.135 1.077.27 2.424.135 3.906z"/><path d="m120.151 162.71-4.445 1.616c.269-1.751.539-4.175.673-5.792.135-1.077.404-1.481.539-1.616 0 0 .135-.135.269-.135h.135.135l2.829-.135c-.135 1.347-.135 4.311-.135 6.062z"/><path d="m112.877 161.367c-.269.674-.539 2.56-.673 3.907l-5.523-.135c.27-1.751.808-3.502 1.212-4.849.539-1.347.943-2.425 1.482-2.694.539-.27 1.751-.404 2.559.269 1.213.808 1.482 2.021.943 3.502z"/><path d="m110.857 178.475c-.404.539-.943.943-1.482.943-.674.135-1.078-.134-1.482-.404-1.751-1.616-1.616-6.869-1.481-9.429 2.289-.538 4.849-.942 6.061-1.077 0 2.02.135 7.543-1.616 9.967z"/><path d="m103.583 164.865c-.269.673-.539 1.347-.673 2.02-.674.27-2.694 0-4.7149-.404l1.347-8.755c2.2899-.674 4.9839-.808 5.5229-.135.943.943-.809 5.388-1.482 7.274z"/><path d="m101.024 179.687c-1.0778 1.347-2.6941 2.02-4.984 1.886-1.6164 0-2.1552-.674-2.4246-1.078-1.2123-2.02 0-6.735 1.2123-9.698l7.5433.404c.135.539.135 1.212.135 1.886.134 2.29-.135 4.984-1.482 6.6z"/><path d="m163.524 115.969c-6.87-1.886-6.196-11.853-5.658-21.5517.135-3.3675.405-6.6002.27-9.2942-.539-9.0248-2.021-18.8577-9.294-23.3028-7.813-4.7144-20.609-3.6368-28.422-2.6939-2.828.8081-5.522 1.4816-7.678 1.3469-4.579-.2694-8.216-2.1551-11.449-3.9062-2.4244-1.347-4.5796-2.5593-6.7348-2.5593-.1347 0-.2694 0-.2694 0-6.0614.4041-8.8901 1.8858-11.4493 4.1757-.6735.5388-1.4817 2.1551-4.041 9.5635-1.347 3.7716-1.4817 5.7921-1.7511 7.6778-.2693 1.7511-.404 3.6369-1.3469 6.4656-.6735 1.8857-1.2123 3.5021-1.6164 5.1185-1.2123 4.1756-2.2899 7.5431-5.2532 11.584-.4041.4041-.8082 1.2123-1.347 1.8861-.6735 1.077-1.4817 2.424-2.694 3.906-.8082 1.078-2.5593 5.118-2.4246 6.331.1347 2.02.8082 3.233 1.4817 4.58s1.6164 2.963 1.7511 5.253v.404c.2694 3.502-.2694 5.253-6.8696 11.18-4.1757 3.771-7.2737 7.408-9.2942 10.102-.1347.27 0 .539.4041.539h.1347.4041.4041.4041c1.6164.135 3.2327.808 4.3103 2.02.1347.27.5388.27.8082.135 1.0776-.404 2.2899-.404 3.3675-.269 1.347.134 2.8286.539 3.7715 1.481.2694.27.6735.405 1.0776.27 1.0776-.27 2.2899-.27 3.3675.135.8082.269 1.6163.808 2.1551 1.481.4041.404 1.0776.539 1.6164.27.2694-.135.6735-.404 1.0776-.539 1.4817-.539 3.0981-.27 4.445.269.6735.27 1.347.404 2.0205.943 1.0776.808 1.8858 1.886 2.2899 3.098.2694.674 1.2123.943 1.7511.404 1.0776-.808 1.8857-.943 2.6939-.673.4041.134.6735.404.9429.808.4041.539 1.0776 1.078 1.6164.808 2.2899-.673 4.9838-.269 7.0043.808.6735.404 1.4817.943 1.8858 1.751v-.404c0-.134.1347-.269.2694-.404l.4041-.134c1.0776-.405 6.7346-2.021 8.8896.269.135.135.27.135.405 0 .269-.269.538-.539.673-.539 1.482-.808 3.906-.943 5.523.539.269.269.808.135 1.077-.135.135-.269.27-.404.539-.539.539-.538 1.347-.673 2.155-.673l3.098-.135c.808 0 3.233-.269 3.907-.404h.134c.27 0 .674-.135 1.078-.269 1.482-.27 3.233-.674 4.58 0 1.347.673 1.212 2.155 1.077 3.502 0 .539-.135 1.077-.135 1.616v.808c0 1.213 0 2.29-.134 3.099l.134.673v.135c.135.539.809.943 1.213.539 1.077-.674 2.155-1.482 2.559-2.021v-.135c0-.134.135-.404.269-.943.135-1.212.405-3.502.405-8.216 0-.27 0-.404 0-.539 0-1.751 0-3.233-.135-4.445-.135-2.559-.27-4.58 1.077-6.6 1.213-2.021 2.425-2.694 3.637-3.502 1.347-.809 2.829-1.751 5.388-5.254 1.212-1.751 1.347-2.424 1.482-2.963.269-1.347.673-2.155 2.694-3.502 1.616-1.212 6.331-4.849 12.796-3.772 2.155.404 5.523 1.482 9.025 2.829.135 0 .269.135.404.135h.135c3.098 1.212 5.926 2.559 7.947 3.637.404.269.943.134 1.347-.27.673-.808 1.347-1.212 2.02-1.751.27-.135.539-.269.674-.404.135 0 .135-.135.135-.135.538-.404.538-1.481-.135-1.751-9.025-4.445-17.646-7.139-20.474-7.947zm-64.9248 2.02c-2.1552 9.16-16.4332 19.397-22.8987 19.397h-.1347c-.1347 0-.2694 0-.2694 0-.1347 0-.2694 0-.4041-.135-.1347 0-.1347 0-.2694 0-1.2123-.404-2.8287-1.212-4.041-2.424-.8082-.808-1.4817-1.886-1.751-2.829 0-.135-.1347-.404-.1347-.539-.4041-1.616-.8082-3.502.5388-6.735.1346-.404.404-.808.5387-1.212 0-.135.1347-.269.1347-.404.1347-.404.2694-.673.4041-.943.1347-.539.4041-.943.5388-1.212 0-.135.1347-.27.1347-.404.4041-1.078.4041-1.482.5388-1.886 0-.269.1347-.808.2694-1.347.4041-1.751.6735-3.233.8082-4.445.2694-2.29.6735-4.31 1.8858-6.196.2694-.27.4041-.539.6735-.808l.2694-.27c.1347-.134.1347-.134.2694-.269.2694-.27.6735-.404.9429-.539.1347 0 .2694-.135.404-.135.2694-.134.5388-.134.8082-.269 1.2123-.269 2.5593-.269 4.1757-.135 1.7511.135 3.3674.404 4.7144.808 1.2123.27 2.2899.674 3.0981 1.078.1347 0 .1347.135.2694.135.1347.134.2694.134.5388.269s.4041.135.6735.27c.2694.134.5388.269.8082.404l.2693.134c.9429.404 1.8858.943 2.5593 1.482.4041.269.6735.539.9429.808.1347.135.2694.135.2694.27.1347.134.1347.134.2694.269 2.8287 2.425 2.694 5.792 2.1552 7.812zm6.7348-34.8864-.269 1.6164c-.674 3.7716-2.155 8.8901-7.5434 10.2371-5.2532 1.2123-6.4655 1.4817-10.1024 1.7511-.1347 0-.1347 0-.2694 0-2.694 0-7.9472-1.7511-8.8901-5.9268-.5388-2.6939.6735-4.7144 2.5593-7.9472.2694-.5387.6735-1.0775 1.0776-1.751 2.694-4.4451 3.6368-7.6778 4.445-10.2371s1.4817-4.5797 3.2328-6.3308c.4041-.4041.8082-.8082 1.347-1.0776.2694-.2694.6735-.4041 1.0776-.6735.5388-.2694 1.0775-.4041 1.6163-.6735 1.2123-.4041 2.5593-.5388 3.7716-.5388 2.5593 0 5.1181.6735 6.8701 2.1552.808.6735 2.02 1.8858 2.693 5.792.27 2.0205-.269 5.6573-1.616 13.6045zm38.659 10.7759c-1.886 3.2328-2.829 4.9838-4.446 6.3305-3.232 2.694-6.869 3.233-9.967 3.233-2.155 0-4.041-.404-5.253-.539-3.233-.539-9.025-1.616-11.046-6.3305-.404-.9429-.404-1.4817-.404-2.2899 0-.6735 0-2.0205-.404-4.8491v-.1347c-.135-1.347-.269-2.8287 0-4.7145v-.2694c1.078-5.6573 1.482-6.4655 1.616-7.0043.539-1.0776 1.886-1.6164 3.099-.9429 1.077.5388 1.481 1.8858 1.077 2.9634-.135.2694-.404 1.4817-1.347 5.9267v.2694c-.269 1.2123-.135 2.1552 0 3.3675v.1347c.404 3.2327.404 4.5797.404 5.3879v.4041.1347c.404.9429 1.213 1.4817 2.155 2.0205.674.2694 1.347-.2694 1.213-.9429-.943-4.9839-.943-10.7759.943-14.4127.673-1.2123 1.751-3.0981 2.828-4.9839.135-.1347.27-.4041.27-.5388.134-.1347.134-.2694.269-.4041.539-.8082.943-1.4816 1.347-2.1551 0-.1347.135-.1347.135-.2694l.134-.1347c.135-.1347.135-.2694.27-.4041 0 0 0-.1347.135-.1347l.134-.1347c0-.1347.135-.1347.135-.2694.404-.5388.808-1.0776 1.077-1.6164.539-.6735-.134-1.4817-.808-1.2123-1.885.8082-3.098 1.7511-3.367 1.8858-.943.8082-2.425.6735-3.233-.4041-.808-.9429-.673-2.4246.404-3.2328 1.212-.9428 7.409-5.3879 14.817-3.3674 5.388 1.4817 8.082 5.6573 9.159 7.139.809 1.2123 3.503 4.9838 3.368 10.3718 0 3.9062-1.616 6.8696-4.714 12.1228z"/><path d="m95.7705 66.2656c-.4041.9429-.8082 2.0205-1.347 3.2328-1.0776 2.8286-2.4246 6.0614-3.0981 7.2737-1.0776 2.0205-1.8857 3.3674-2.5592 4.3103-.8082 1.2123-1.347 2.1552-1.8858 3.5022-.8082 2.2899-.9429 4.8491-.4041 7.6778-1.4817-.1347-3.7716-1.0776-4.041-2.4246-.1347-.9429.4041-1.8858 2.0205-4.7144.2694-.5388.6735-1.2123 1.0776-1.7511 2.8287-4.8491 4.0409-8.486 4.8491-11.18.9429-2.8286 1.347-4.0409 2.8287-5.1185.9429-.4041 1.7511-.6735 2.5593-.8082z"/><path d="m92.9418 168.099c-1.6164 3.233-3.5022 6.197-4.7145 7.678-1.0775-2.694-2.8286-9.025-2.2898-14.008 0-.135 0-.27 0-.405.1347-1.616.5388-2.963 1.347-4.175.5388-.808 1.8857-1.212 3.3674-1.212 1.0776 0 2.2899.269 3.3675.808.5388.269 1.347.943 1.347 2.694.2694 2.424-.9429 5.657-2.4246 8.62z"/><path d="m179.149 132.137c.135.134.135.269.135.404-.405.943-1.078 1.616-1.752 2.424-.808.943-1.751 2.021-2.559 3.772-1.212 2.424-1.616 4.58-1.751 10.237-.269 6.6 0 10.237.27 12.931.134 2.559.269 4.176-.135 6.735-.943 5.118-3.098 8.486-5.927 12.796-3.502 5.388-7.004 10.911-12.931 12.662-.539.135-.539.135-2.155.135-1.347 0-3.637 0-7.813.134-7.812.27-11.718.404-14.951 1.078-3.502.673-5.253 1.482-7.139 2.155-1.616.673-3.098 1.212-5.927 1.886-1.751.404-4.31.673-13.066.808-9.159 0-14.6817 0-21.8207-.808-9.9676-1.078-14.9515-1.751-18.3189-3.502-7.8125-4.176-11.18-11.719-16.5679-24.111 0-.135.1347-.27.2694-.27.2694.135.5388.27.8082.404.2694.135.5388.135.6735.135.5387.135 1.0775.135 1.6163 0 .1347 0 .1347 0 .2694-.135.1347 0 .2694 0 .2694.135.4041.943.9429 1.751 1.8858 2.29s2.0205.539 2.9634.539c1.0776 0 2.1551-.135 3.2327-.27.5388 0 1.0776.27 1.347.674.9429 2.424 2.1552 4.041 4.0409 4.31h.4041c.4041 0 1.0776-.135 1.8858-.673.6735-.539 1.7511-.135 2.2899.538.4041.674.9429 1.078 1.4817 1.482 1.8857 1.886 6.4655 2.829 10.237 2.829 2.0205 0 3.9063-.27 4.9839-.808 1.6164-.809 1.6164-1.886 1.4817-2.425-.1347-.808-.2694-1.751-.4041-2.559 0-.135.1347-.135.1347 0 .2694.539.5387 1.077 1.2122 1.212h.2694c1.0776 0 2.694.404 2.9634 1.347.1347.539.4041.943.6735 1.482.6735.943 1.8858 2.155 4.445 2.29h.1347c2.9634 0 5.2536-.943 6.7346-2.829.135-.135.135-.269.27-.404.539-.808 2.155-.808 2.828-.135.809.674 1.751 1.078 2.829 1.078h.539c1.347-.135 2.424-.808 3.367-2.021.539-.808.943-1.751 1.213-2.828.134-.27.538-.405.808-.135.539.539 1.481 1.077 2.828 1.077.27 0 .674 0 1.078-.134 2.559-.539 3.906-2.694 4.445-4.984 0-.135.135-.135.135 0 .673.808 1.886 1.751 3.906 1.751h.269c1.078 0 2.021-.539 2.694-1.347.809-1.078 1.078-2.694 1.213-4.176 0-.404.269-.808.808-1.077 2.155-.943 4.849-2.964 5.657-4.311 0 0 0-.134.135-.134.135-.404.539-.674.808-.674 1.751-.269 2.425-.673 3.098-.943.539-.269.943-.404 2.29-.673 9.833-1.482 11.719-1.886 13.874-3.233 3.233-2.155 3.367-5.118 3.502-7.947.135-2.425.269-5.119 2.155-8.351.674-1.213 1.482-2.56 2.29-4.176 1.482-2.694 3.502-6.466 4.984-8.486.269-.404.808-.539 1.212-.269 3.368 1.212 6.331 2.559 6.87 3.098z"/><path d="m83.513 161.497c-.4041 3.367-.6734 7.947-.1347 13.873.1347 1.617.4041 3.368.6735 5.119-.4041.269-1.8857.673-4.3103.539-3.5022-.135-7.0043-.943-8.0819-2.155l-.1347-.135c-.8082-.674-1.4817-1.212-1.4817-2.425 0-.404.1347-.808.5388-1.481.2694-.27.5388-.674.8082-1.213.5388-.808 1.347-1.751 2.1552-3.098 2.2898-3.771 3.098-4.984 4.1756-6.465.1347-.135.1347-.27.2694-.404.6735-.809 1.347-1.886 2.5593-3.637.8082-1.212 1.4817-2.29 2.1552-3.098.9428-1.347 1.6163-2.021 2.0204-2.425 0 .539-.1347 1.347-.2694 2.155-.5388 1.617-.8082 3.098-.9429 4.85z"/><path d="m81.762 108.426c0 .134 0 .134 0 0-.5388.673-1.0776 1.481-1.7511 2.828-1.7511 3.772-1.7511 5.927-1.7511 7.678 0 .943 0 1.616-.2694 2.425-.1347.538-.4041 1.212-.8081 1.885-.9429 2.29-2.2899 5.254-1.7511 9.295-.8082-.404-2.0205-1.347-2.2899-1.751 0-.27-.1347-.405-.1347-.674-.2694-1.212-.4041-2.02.2694-3.906 2.1552-4.849 2.4246-6.062 2.5593-7.409 0-.269.1347-.538.1347-.942.4041-1.886.6735-3.503.8082-4.85.2694-2.02.5388-3.367 1.2122-4.31.2694-.404.9429-.539 1.8858-.539.4041 0 .8082 0 1.347.135h.1347c.4041.135.4041.135.4041.135z"/><path d="m79.0678 156.515c-.1347-1.212-.2694-2.29-.8081-3.502 0 0-.1347-.27-.1347-.404-.1347-.135-.1347-.27-.2694-.405l-.1347-.134c-.1347-.135-.1347-.135-.2694-.135l-.1347-.135c-.1347 0-.1347-.134-.2694-.134h-.1347c-.6735-.27-1.347-.539-2.1552-.674-.1347 0-.2694 0-.2694 0-.1347 0-.1347 0-.2694 0h-.1347c-.1347 0-.2694.135-.5388.135-.1347 0-.1347.135-.2694.135l-.1347.134c-.1347.135-.1347.135-.2694.27l-.1347.134v.135c-.2694.404-.5388.808-.8082 1.212-.6735.943-1.3469 2.021-2.0204 2.964s-1.2123 1.751-1.8858 2.694c-.4041.538-.6735.943-1.0776 1.481 0 .135-.1347.135-.1347.27.4041.134.8082.134 1.2123.269.9429.135 1.8858.27 2.694.404 1.8857.27 3.9062.404 5.792.27h.2694c.4041-.674 1.0776-1.482 1.7511-2.56.404-.538.8081-1.077 1.0775-1.616-.4041-.135-.5388-.539-.5388-.808z"/><path d="m72.1985 164.462c-.1347 1.482-1.7511 5.253-4.3104 8.89-2.1552 2.963-3.5021 3.772-3.7715 3.772-1.0776-.135-2.0205-2.694-2.8287-5.254-.2694-1.077-.6735-2.02-.8082-2.963-.5388-1.886-.6735-4.58-.5388-6.196 2.1552 1.212 5.9267 1.482 11.3147 1.482.2694.134.6735.134.9429.269z"/><path d="m68.4268 152.344c-.9429 1.482-1.8858 2.829-2.8287 4.176-.5388.673-.9429 1.347-1.4817 2.02-.2694.405-.6735.809-.9429 1.213-.8082-.135-1.4816-.404-2.2898-.539-.6735-.135-1.2123-.404-1.8858-.674-.1347 0-.2694-.134-.4041-.134-.1347-.135-.2694-.404-.4041-.539.2694-.404.4041-.943.6735-1.347.4041-.808.8082-1.616 1.347-2.425.8082-1.347 1.751-2.828 3.2327-3.771.1347 0 .1347-.135.2694-.135.5388-.269 1.0776-.539 1.7511-.673h.8082.1347.1347c.1347 0 .2694.134.5388.134 0 0 .1347 0 .1347.135.1347.135.2694.135.4041.269-.2694-.134.2694.405.2694.27.2694.808.4041 1.212.5388 2.02z"/><path d="m61.153 148.438c-1.7511 1.347-2.9634 3.233-3.9063 5.253-.5387 1.078-1.0775 2.155-1.6163 3.233 0 .135-.1347.269-.1347.269-.5388-.134-1.0776-.269-1.4817-.404-.5388-.135-1.0776-.404-1.6164-.539-.2694-.134-.4041-.269-.6735-.404.5388-.943 1.0776-1.885 1.7511-2.828.8082-1.213 1.7511-2.56 2.694-3.637.4041-.404.8081-.943 1.2122-1.213.5388-.269 1.0776-.269 1.7511-.134.6735 0 1.347 0 1.8858.269-.1347 0 0 .135.1347.135z"/><path d="m58.4591 171.336c-.1346.135-.1347.135-.2693.27h-.1348c-.404 0-.8081.135-1.2122.135-.8082 0-1.6164.134-2.4246 0-.4041 0-.8082-.135-1.0776-.405-.2694-.404-.4041-1.212-.5388-1.751-.5388-2.963-.5388-5.926-.2694-8.89 1.4817.539 3.0981.943 4.7145 1.213-.4041 2.694.2694 6.6.5388 7.677.4041.539.5388 1.213.6734 1.751z"/><path d="m53.6099 147.493c-1.347 1.616-2.5593 3.367-3.6368 5.253-.4041.674-.9429 1.482-1.347 2.29-.5388-.135-1.0776-.404-1.4817-.674-.4041-.269-.8082-.538-1.0776-.808-.1347-.134-.4041-.269-.5388-.404 0 0-.1347 0-.1347-.135.1347-.404.4041-.673.4041-.942.2694-.674.5388-1.213.9429-1.752.6735-1.077 1.347-2.155 2.1552-3.232.2694-.404.5388-.808 1.0776-.943.404-.135.9428 0 1.3469 0 .8082.135 1.6164.673 2.2899 1.347z"/><path d="m43.2382 154.632c0-.134.1347-.134 0 0 .5388.539.9429.943 1.4817 1.347.2694.135.4041.404.6735.539v.135c-.5388 2.29-.9429 4.714-.9429 7.139 0 .134-.1347.134-.1347 0-.6735-2.829-1.4817-7.409-1.0776-9.16z"/><path d="m49.8384 159.617c-.2694 2.02-.4041 4.041-.2694 6.061 0 1.078.1347 2.155.2694 3.368-.2694 0-.5388 0-.8082 0h-.1347-.1347c-.2694-.135-.2694-.135-.5388-.27s-.5388-.539-.8081-.943c-.5388-.943-.6735-2.02-.6735-3.098-.1347-2.02.1347-4.175.5388-6.196.2693.135.6734.269 1.0775.404.5388.27.9429.539 1.4817.674z"/></g><g mask="url(#j)"><g opacity=".8" stroke-miterlimit="10"><path d="m102.909 264.681c-9.159 0-17.7797-.539-25.0534-1.078l-2.0205-.135-2.0205-.269c-.9429-.135-2.0204-.269-3.2327-.404-7.0043-.808-20.0701-2.155-34.4828-8.89l-2.2899-1.078-2.0204-1.212c-27.74789-15.625-37.98496-38.928-43.6423-51.455-.4041-.808-.8082-1.751-1.2123-2.694-2.8286-5.792-4.5797-10.91-6.0614-15.759l-.2694-1.078-.2694-1.078c-4.0409-14.278-4.9838-26.535-3.2328-38.793 1.8858-12.257 6.3309-23.302 14.27807-35.021l4.04095-6.6004c.80819-1.347 1.34698-2.8287 1.75108-4.3104 3.098056-15.3556 10.10237-26.2661 13.6045-31.5194.9429-6.3308 2.5593-12.5269 4.7145-18.5883l.2694-.9429.4041-.9429c0-.1347.1347-.4041.2694-.8082 1.6163-4.7144 5.2532-15.625 14.5474-27.209l3.5021-4.041 3.6369-3.23274c9.1595-8.351297 20.2047-14.54742 32.0582-18.04956 6.6002-2.0205 13.4698-3.2328 20.4741-3.6369h.6735.9429c1.2123 0 2.4246-.1347 3.5021-.1347 4.3106 0 8.6206.4041 12.9306 1.0776 2.694.4041 5.388.1347 7.948-.9429 7.408-3.098 15.086-5.1185 23.033-6.1961.674-.1347 1.212-.1347 1.751-.2694 1.212-.1347 3.233-.4041 5.657-.6735 4.176-.4041 10.642-.9429 17.511-.9429 13.605 0 25.324 1.7511 35.83 5.388l.943.2694.808.2694c23.168 8.75535 34.887 21.01289 43.373 31.6541l.404.5387 1.212 1.0776c7.678 5.9268 14.144 13.3352 19.262 21.5518l1.617 2.5592 1.347 2.694c11.314 23.0334 7.677 44.4504 6.33 52.3976l-.134.4041c-.943 5.9267-2.56 11.7187-4.58 17.3757-.808 5.388-2.021 10.776-3.772 15.895-2.963 9.159-7.408 17.915-13.065 25.727-3.233 4.58-7.005 9.025-11.046 12.931-1.481 1.347-2.424 3.233-2.694 5.253-.134 1.213-.404 2.425-.538 3.637-3.368 17.78-11.046 30.173-14.278 35.157l-9.564 13.739c-11.584 14.412-25.323 23.841-41.891 28.96l-4.041 1.212-4.31.808c-4.984.943-9.968 1.347-15.087 1.347-.673 0-1.347 0-2.155 0h-.269-.808-.943c-1.886 0-3.772.404-5.658.943-11.045 3.502-23.168 5.119-37.985 5.119z" opacity=".8" stroke="url(#c)" stroke-width="1.0554"/><path d="m102.909 255.116c-8.7549 0-17.2409-.539-24.2452-1.078l-1.6164-.134-1.6164-.27c-1.0776-.135-2.2899-.269-3.5022-.404-6.8696-.673-18.1842-2.02-30.8459-7.947l-1.8857-.943-1.7511-.943c-24.6498-13.604-33.67459-33.944-39.06252-46.067-.40409-.808-.80819-1.886-1.34698-2.828-2.55927-5.119-4.17565-9.968-5.52263-14.278l-.2694-.943-.26939-.808c-3.50218-12.797-4.44508-23.573-2.82868-34.214 1.6164-10.506 5.65734-20.339 12.66165-30.576l5.25323-8.486c.94289-1.482 1.61638-3.233 1.88578-4.984 2.55924-14.5476 9.42884-24.7847 12.52694-29.4991l.4041-.5388.1347-.2694c0-.1347.1347-.2694.1347-.4041.1347-.6735.4041-1.2123.5388-1.7511.8082-5.9267 2.2899-11.8534 4.3103-17.5107l.2694-.8082.2694-.8082c.1347-.2694.1347-.5388.4041-1.347 1.4817-4.445 4.5798-13.7392 12.6617-23.7069l2.9633-3.5022 2.9634-2.6939c7.9472-7.2737 17.5108-12.66165 27.7478-15.62502 5.9267-1.75107444 11.8535-2.82866 18.0496-3.09806h.5388.8082c1.0776 0 2.0204-.13469 2.9633-.13469 4.4453 0 8.7553-1.21229 13.0653-.4041 3.368.67349 6.735.2694 9.833-1.07759 5.792-2.55926 13.605-3.50215 22.495-4.71444.674-.13469 1.212-.13469 1.616-.26939 1.213-.1347 3.098-.4041 5.254-.5388 3.906-.40409 9.967-.80819 16.568-.80819 12.392 0 22.898 1.61638 32.192 4.71444l.809.2694.673.2694c20.474 7.8125 30.577 18.04954 38.524 28.15194.404.5388.943 1.0776 1.077 1.347l.135.1347 1.482 1.347.134.2694c6.87 5.2532 12.662 11.7187 17.107 18.9924l1.347 2.1552 1.078 2.2899c9.698 19.8006 6.735 37.9849 5.388 45.6627l-.135.4041c-.943 5.6573-2.425 11.0453-4.445 16.4333-.674 5.118-1.886 10.237-3.502 15.086-2.694 8.082-6.6 15.76-11.584 22.764-3.368 4.849-7.409 9.294-11.719 13.201-2.021 1.885-3.367 4.31-3.637 7.138-.269 2.021-.539 3.907-.808 5.927-2.963 15.76-9.698 26.536-12.931 31.385l-7.813 11.315c-10.371 13.335-22.629 21.955-37.446 26.535l-3.367 1.078-3.637.673c-4.31.808-8.755 1.213-13.066 1.078-.673 0-1.347 0-2.02 0h-.135-.404s-.135 0-.404 0h-.808-.809-1.481c-2.021.135-4.041.404-6.062 1.077-9.833 3.233-21.282 4.715-35.291 4.715z" opacity=".8" stroke="url(#d)" stroke-width="1.0554"/><path d="m102.91 243.936c-8.3518 0-16.5684-.539-23.438-1.078l-1.3469-.135-1.347-.134c-1.2123-.135-2.5593-.27-3.9063-.404-6.4655-.674-16.2985-1.752-27.3437-7.005l-1.4817-.673-1.347-.808c-21.1476-11.854-28.9601-29.365-34.07865-40.949-.4041-.943-.94289-2.155-1.34699-3.098-2.28987-4.58-3.77155-8.89-4.98383-12.931l-.2694-.673-.1347-.674c-3.09806-11.045-3.90625-20.474-2.559265-29.364 1.346983-9.025 4.983835-17.511 11.179935-26.536l.8082-1.077.8082-1.078c.5388-.673.9429-1.347 1.4817-1.886l3.098-5.792c1.0776-1.885 1.7511-3.906 2.0205-6.061 2.0205-12.931 8.2166-22.2252 11.0453-26.5356.1347-.2693.4041-.5387.5388-.6734l.6735-.9429c.2694-.5388.5388-1.2123.8081-2.0205.2694-.8082.6735-2.0205.9429-3.0981.6735-5.5226 2.0205-10.9105 3.9063-16.1638l.2694-.6735.2694-.6734c.1347-.5388.4041-.9429.6735-1.8858 1.347-4.1757 3.9062-11.8535 10.7758-20.2048l2.2899-2.8286 2.4246-2.1552c6.7349-6.1961 14.8168-10.6412 23.5722-13.3351 5.1185-1.4817 10.237-2.42459 15.625-2.69399h.4041.6735 2.5592c4.5794 0 9.0244.53879 13.4694 1.75109 3.772.9429 7.813.5388 11.315-1.2123 5.657-2.69396 13.201-5.65732 21.956-6.73491.539-.1347 1.078-.1347 1.482-.26939 1.077-.1347 2.828-.4041 4.983-.5388 3.637-.40409 9.429-.80819 15.491-.80819 11.045 0 20.339 1.34699 28.556 4.17565l.539.2694.538.26939c18.858 7.13905 27.209 16.43315 33.675 24.64975 1.482 1.7511 1.616 2.0205 2.559 2.9634l1.212 1.0776.405.5388c3.098 2.4245 9.428 7.4084 14.951 16.4332l1.078 1.751.943 1.7511c8.216 16.5679 5.657 31.6541 4.445 38.9278l-.135.4041c-.808 5.253-2.29 10.506-4.445 15.49v.404c-.539 4.715-1.617 9.429-3.098 13.874-2.29 7.139-5.658 13.74-10.103 19.801-3.636 5.253-8.081 9.968-13.065 14.009-1.213.942-2.155 2.155-2.829 3.502-.673 1.347-1.078 2.828-1.212 4.31-.135 2.963-.539 5.927-1.078 8.89-2.559 13.605-8.486 23.034-11.449 27.748l-6.062 8.89c-9.024 12.123-19.8 19.935-32.866 23.976l-2.694.809-2.963.538c-3.637.674-7.409.943-11.18.943-.539 0-1.213 0-1.886 0h-.135-.673c-.135 0-.404 0-1.078 0h-.673-.539l-3.098.135c-2.155.135-4.311.404-6.331 1.212-9.294 2.964-19.935 4.311-33.27 4.311z" opacity=".8" stroke="url(#e)" stroke-width=".9894"/><path d="m102.909 232.758c-7.9467 0-15.8939-.539-22.4941-1.078l-.9429-.135-.9429-.134c-1.347-.135-2.8287-.405-4.1756-.539-6.0615-.674-14.4128-1.617-23.8416-5.927l-1.0776-.539-1.0776-.539c-17.9149-10.102-24.5151-24.919-29.3642-35.695-.5388-1.077-1.0776-2.289-1.4817-3.367-2.0205-4.176-3.3675-8.082-4.4451-11.449l-.1346-.539-.4041-.404c-5.25328-18.589-3.2328-31.654 7.0043-46.606l.5388-.808.5388-.808c.6734-.808 1.3469-1.751 2.0204-2.56.9429-1.212 1.8858-2.559 2.9634-3.771.6735-.808 1.2123-1.751 1.6164-2.694l1.2123-2.963c.5387-1.347.8081-2.694.9428-4.041 1.0776-11.9885 6.8697-20.6092 9.6983-24.9195.2694-.2694.5388-.8082.6735-.9429l.6735-1.0776.2694-.2694c.4041-.6735 1.0776-2.2899 1.6164-3.9063.2694-1.0776.8082-2.8286 1.347-4.3103v-.1347c.5388-4.9838 1.751-9.9677 3.5021-14.6821l.1347-.4041.1347-.4041c.2694-.8082.5388-1.4817.8082-2.4246 1.2123-3.6368 3.2328-9.833 8.7554-16.7026l1.7511-2.1551 1.751-1.6164c13.0658-11.8535 27.6132-12.7964 32.4623-13.2004h.2694.5388 2.0205c5.7925 0 11.4495 1.2122 16.8375 3.5021.943.4041 2.02.5388 2.963.5388 1.078 0 2.021-.2694 2.963-.8082 4.984-2.8287 14.009-8.0819 25.593-9.4289.539-.1347 1.078-.1347 1.482-.1347 1.077-.1347 2.694-.2694 4.58-.5388 3.502-.2694 8.755-.6734 14.412-.6734 9.833 0 17.915 1.2122 24.785 3.5021l.404.1347.404.1347c16.164 6.0614 23.033 13.7392 28.825 21.0129 1.482 2.0205 2.29 2.8287 3.907 4.4451l.943.8082.673.8082.539.4041c2.694 2.1551 7.812 6.0614 12.392 13.4698l.808 1.347.674 1.3469c6.6 13.4699 4.445 25.5927 3.367 32.0582v.4041c-.808 4.7145-2.155 9.4292-4.041 13.8742l-.134.404c0 .135 0 .135-.135.404-.135.404-.135.808-.135 1.212l-.135.539c-.404 4.041-1.347 7.947-2.694 11.719-2.02 6.061-4.849 11.719-8.62 16.837-3.637 5.253-7.813 9.564-12.392 12.931-2.021 1.482-3.637 3.368-4.85 5.657-1.212 2.29-1.751 4.715-1.751 7.274 0 3.098-.404 6.331-.943 9.429-2.155 11.584-7.004 19.397-10.102 24.111l-4.445 6.6c-7.812 10.911-17.107 17.915-28.287 21.417l-.538.135c-.943.269-1.886.539-2.829.673l-.674.135c-3.098.539-6.196.808-9.294.808-.539 0-1.077 0-1.616 0h-.135c-.269 0-.539 0-.808 0s-.808 0-1.886 0h-.404-.404c-1.482 0-3.367.135-4.984.135-2.29.135-4.445.539-6.6 1.347-8.082 2.425-17.915 3.772-30.577 3.772z" opacity=".8" stroke="url(#f)" stroke-width=".9235"/><g stroke-width=".8575"><path d="m102.909 221.579c-7.6775 0-15.2206-.539-21.6861-1.077h-.6735l-.6735-.135c-1.4816-.269-3.098-.404-4.5797-.539-5.6573-.673-12.6616-1.347-20.2047-4.984l-.8082-.404-.6735-.404c-14.6821-8.217-20.2048-20.609-24.5151-30.576-.5388-1.213-1.0776-2.425-1.6164-3.772-1.7511-3.502-2.9634-7.004-3.9062-9.968l-.1347-.404-.1347-.404c-4.3104-15.355-2.8287-25.054 5.5226-37.177l.4041-.538.4041-.539c.6735-.943 1.347-1.751 2.0205-2.694 2.1551-2.829 4.3103-5.657 7.4084-9.025.6735-.673 1.0775-1.751 1.2122-2.694l.1347-3.098-.1347-1.212v-1.212c.2694-9.968 5.2533-17.3766 7.9472-21.4175.2694-.4041.6735-.9429.8082-1.2123l.4041-.6735.4041-.5388c.5388-.8082 1.7511-3.6368 2.8287-6.1961.4041-1.0776.9429-3.2328 1.6164-4.9838.1347-.5388.1347-.6735.2694-1.8858.4041-4.1757 1.4816-8.3513 2.8286-12.2576l.1347-.2694.1347-.2693c.4041-1.0776.6735-1.8858 1.0776-2.9634 1.0776-3.2328 2.694-7.9472 6.8696-13.2004l1.2123-1.4817 1.2123-1.0776c9.1595-8.2166 18.9924-9.833 25.7274-10.2371h.2694.2693 1.4817c5.6577 0 12.5267 2.694 16.1637 4.4451.808.4041 1.751.6735 2.694.6735s1.886-.1347 2.829-.4041c2.29-.8082 4.445-1.7511 6.465-2.8287 4.58-2.694 12.123-7.0043 21.552-8.0819.539-.1347.943-.1347 1.347-.1347.943-.1347 2.425-.2694 4.31-.5388 3.233-.2694 8.082-.6735 13.335-.6735 8.486 0 15.491.9429 21.148 2.9634l.269.1347.27.1347c13.47 5.1185 18.858 10.9105 23.976 17.5108 1.617 2.1551 2.829 3.6368 5.253 5.792l.539.5388.539.5388c.539.5388 1.078.9429 1.616 1.347 2.29 1.751 6.196 4.8491 9.564 10.5064l.539.8082.404.9429c4.984 10.1024 3.367 19.6659 2.424 25.3233v.4041c-.673 3.9062-1.751 7.6778-3.367 11.3143-.404.943-.674 1.886-.943 2.964-.135.673-.269 1.347-.269 1.885l-.135.539c-.404 3.233-1.078 6.466-2.155 9.564-1.617 4.984-4.041 9.698-7.005 13.874-4.579 6.465-9.833 11.045-16.163 14.008-1.482.674-2.829 1.751-3.772 3.233-.943 1.347-1.482 3.098-1.616 4.715v1.616c.269 4.849.673 10.372-.404 16.164-1.751 9.429-5.792 15.759-8.756 20.474 0 0-13.739 19.127-26.266 23.033l-1.347.404-1.482.27c-2.424.404-4.849.673-7.408.673-.404 0-.943 0-1.482 0-.269 0-.673 0-1.077 0-.539 0-1.347 0-2.56.135h-.269-.269c-4.849.135-9.294.269-10.641.539-.674.134-1.347.269-2.021.539-6.6 2.828-15.894 4.175-28.691 4.175z" opacity=".8" stroke="url(#g)"/><path d="m102.909 210.532c-7.2733 0-14.547-.539-20.7431-.943h-.2694-.2694c-1.7511-.27-3.3675-.404-4.8492-.539-5.2532-.539-10.7758-1.212-16.7026-3.906l-.404-.135-.4041-.135c-11.4494-6.465-15.7597-16.029-19.8007-25.323-.5388-1.347-1.2123-2.694-1.8858-4.041-1.3469-2.694-2.4245-5.657-3.2327-8.486v-.134-.135c-3.5022-12.258-2.5593-18.454 3.9062-27.883l.1347-.269.1347-.27c.8082-.942 1.4817-1.885 2.1552-2.693 3.0981-4.041 5.792-7.544 11.8534-13.201.4041-.404.8082-.943.9429-1.616.1347-.539.1347-1.213-.1347-1.751l-1.0776-3.098c-.2693-.943-.404-2.021-.404-2.964v-.808-.673c.2694-6.735 3.7715-11.9886 6.0614-15.4907.4041-.5388.6735-1.0776.9429-1.4817l.2694-.4041.2694-.4041c1.2122-1.6164 3.2327-6.3308 4.3103-9.1595.2694-.9429.9429-3.2328 1.6164-4.9838.4041-1.347.6735-2.694.8082-4.041.4041-3.3674 1.0776-6.7349 2.2898-9.833v-.1347-.1347c.5388-1.3469.9429-2.4245 1.2123-3.5021.9429-2.8287 2.0205-6.0614 4.9839-9.6983l.5388-.6735.5388-.5388c6.4655-5.9267 13.6045-7.0043 18.9924-7.4084h.1347.1347.9429c5.3879 0 9.4289 2.1552 12.1229 3.6369l.673.2694h.135c.808.4041 1.347.8082 2.021 1.0776 1.616.8081 3.636 1.0775 5.388.5388 3.771-.9429 9.563-3.2328 13.335-5.388h.134c4.041-2.4245 10.237-5.9267 17.511-6.7349.404-.1347.943-.1347 1.347-.1347.808-.1347 2.29-.2694 3.906-.4041 2.964-.2694 7.543-.6735 12.258-.6735 7.274 0 13.066.8082 17.511 2.2899h.134.135c10.776 4.0409 14.817 8.3513 19.127 14.0086 1.751 2.2899 3.502 4.4451 6.735 7.2737l.27.2694.269.2694c.808.8082 1.751 1.6164 2.829 2.4246 1.885 1.4817 4.579 3.5021 6.869 7.4084l.27.4041.269.4041c3.367 7.0043 2.29 13.6045 1.482 18.5883v.4041c-.539 3.0981-1.347 6.0615-2.694 9.0248-.674 1.6165-1.213 3.3675-1.482 5.1185-.135 1.078-.269 1.886-.404 2.559l-.135.539c-.269 2.559-.808 4.984-1.616 7.409-1.212 3.906-3.098 7.543-5.523 10.91-4.041 5.927-8.62 9.564-14.682 11.449-2.963.943-5.388 2.829-7.004 5.388l-.539.674-.539.673c-1.481 1.751-1.077 8.486-.808 12.527.269 4.445.539 9.025-.269 13.335-1.347 7.409-4.58 12.393-7.409 16.703 0 0-10.506 15.221-20.07 18.05l-.673.269-.674.135c-1.751.269-3.637.538-5.522.538-.404 0-.809 0-1.347 0-.404 0-.809 0-1.347 0-.674 0-1.617 0-3.233.135h-.135-.135c-6.33.27-10.237.404-12.392.808-1.481.27-2.828.674-4.175 1.213-5.792 2.289-13.605 3.502-24.92 3.502z" opacity=".8" stroke="url(#h)"/></g></g></g></g></svg>