<svg fill="none" height="250" viewBox="0 0 250 250" width="250" xmlns="http://www.w3.org/2000/svg" xmlns:xlink="http://www.w3.org/1999/xlink"><linearGradient id="a" gradientUnits="userSpaceOnUse" x1="52.0833" x2="197.917" y1="125" y2="125"><stop offset="0" stop-color="#9d4abe"/><stop offset=".03" stop-color="#9055c4"/><stop offset=".15" stop-color="#6b74d6"/><stop offset=".26" stop-color="#4c8fe5"/><stop offset=".39" stop-color="#34a3f0"/><stop offset=".52" stop-color="#22b2f9"/><stop offset=".66" stop-color="#18bafd"/><stop offset=".83" stop-color="#15bdff"/><stop offset="1" stop-color="#28bad5"/></linearGradient><clipPath id="b"><path d="m0 0h250v250h-250z"/></clipPath><clipPath id="c"><path d="m52.0833 52.083h145.833v145.833h-145.833z"/></clipPath><g clip-path="url(#b)"><path d="m125 250c69.036 0 125-55.964 125-125 0-69.0356-55.964-125-125-125-69.0356 0-125 55.9644-125 125 0 69.036 55.9644 125 125 125z" fill="#fff"/><g clip-path="url(#c)"><path d="m114.775 191.353-62.3716-134.5813c-1.0135-2.1474.5104-4.6887 2.7562-4.6887h21.6121c1.1593 0 2.2457.6952 2.7562 1.7689l45.5501 97.6361c4.061 8.759 15.808 8.759 19.869 0l45.405-97.5589c.51-1.0737 1.597-1.7688 2.756-1.7688h2.683c1.597 0 2.611 1.7688 1.889 3.2287l-63.028 135.964c-4.062 8.752-15.816 8.752-19.877 0z" fill="url(#a)"/><g fill="#fff"><path d="m114.775 191.353-35.2472-137.424c-.5104-1.1509-1.6698-1.7688-2.6104-1.7688h-21.6849c-2.3917 0-3.7698 2.5335-2.8292 4.6886z" opacity=".1"/><path d="m125.078 151.557-72.6746-94.7853c-.8677-2.2246.4375-4.457 2.4645-4.6887h21.9767c1.2322.0773 2.1728.9192 2.6103 1.7689z" opacity=".1"/></g></g></g></svg>