<svg fill="none" height="250" viewBox="0 0 250 250" width="250" xmlns="http://www.w3.org/2000/svg" xmlns:xlink="http://www.w3.org/1999/xlink"><linearGradient id="a" gradientUnits="userSpaceOnUse" x1="107.12" x2="205.342" y1="124.975" y2="124.975"><stop offset="0" stop-color="#67f9a5"/><stop offset="1" stop-color="#029176"/></linearGradient><clipPath id="b"><path d="m31.25 62.5h187.5v125h-187.5z"/></clipPath><rect fill="#fff" height="250" rx="125" width="250"/><g clip-path="url(#b)"><path d="m198.902 187.5h-89.663c-15.1776 0-24.7511-17.396-17.2791-31.561l44.1311-82.2561c7.939-14.9105 28.02-14.9105 35.959 0l44.131 82.2561c7.472 13.917-2.101 31.561-17.279 31.561z" fill="#008477"/><path d="m140.763 187.5h-89.6639c-15.1774 0-24.7509-17.396-17.2789-31.561l44.1313-82.2561c7.939-14.9105 28.0195-14.9105 35.9585 0l44.132 82.2561c10.507 17.893 19.847 31.561 39.228 31.561" fill="url(#a)" opacity=".95"/></g></svg>