<svg fill="none" height="250" viewBox="0 0 250 250" width="250" xmlns="http://www.w3.org/2000/svg" xmlns:xlink="http://www.w3.org/1999/xlink"><clipPath id="a"><path d="m0 0h250v250h-250z"/></clipPath><g clip-path="url(#a)"><path d="m125 250c69.036 0 125-55.964 125-125 0-69.0356-55.964-125-125-125-69.0356 0-125 55.9644-125 125 0 69.036 55.9644 125 125 125z" fill="#8247e5"/><path d="m168.622 95.4692c-2.989-1.708-6.832-1.708-10.248 0l-23.912 14.0908-16.226 8.967-23.4849 14.091c-2.989 1.708-6.832 1.708-10.248 0l-18.3609-11.102c-2.989-1.708-5.124-5.124-5.124-8.967v-21.3498c0-3.416 1.708-6.832 5.124-8.967l18.3609-10.675c2.989-1.708 6.832-1.708 10.248 0l18.3609 11.102c2.989 1.708 5.124 5.124 5.124 8.967v14.0908l16.226-9.3938v-14.518c0-3.416-1.708-6.832-5.124-8.967l-34.1599-20.0689c-2.989-1.708-6.832-1.708-10.248 0l-35.0139 20.4959c-3.416 1.708-5.124 5.124-5.124 8.54v40.1378c0 3.416 1.708 6.832 5.124 8.967l34.5869 20.069c2.989 1.708 6.832 1.708 10.248 0l23.4849-13.664 16.226-9.394 23.485-13.664c2.989-1.708 6.832-1.708 10.248 0l18.361 10.675c2.989 1.708 5.124 5.124 5.124 8.967v21.35c0 3.416-1.708 6.832-5.124 8.967l-17.934 10.675c-2.989 1.708-6.832 1.708-10.248 0l-18.361-10.675c-2.989-1.708-5.124-5.124-5.124-8.967v-13.664l-16.226 9.394v14.091c0 3.416 1.708 6.832 5.124 8.967l34.587 20.069c2.989 1.708 6.832 1.708 10.248 0l34.587-20.069c2.989-1.708 5.124-5.124 5.124-8.967v-40.565c0-3.416-1.708-6.832-5.124-8.967z" fill="#fff"/></g></svg>