<svg fill="none" height="250" viewBox="0 0 250 250" width="250" xmlns="http://www.w3.org/2000/svg" xmlns:xlink="http://www.w3.org/1999/xlink"><linearGradient id="a" gradientUnits="userSpaceOnUse" x1="6.48685" x2="153.471" y1="191.657" y2="115.817"><stop offset="0" stop-color="#35e0f4"/><stop offset=".0772" stop-color="#33d7f0"/><stop offset=".2056" stop-color="#2ebde4"/><stop offset=".3693" stop-color="#2594d0"/><stop offset=".5601" stop-color="#195bb6"/><stop offset=".6836" stop-color="#1132a3"/></linearGradient><linearGradient id="b" gradientUnits="userSpaceOnUse" x1="52.0833" x2="173.864" y1="94.2744" y2="94.2744"><stop offset="0" stop-color="#35e0f4"/><stop offset=".0696" stop-color="#33d7f0"/><stop offset=".1854" stop-color="#2ebde4"/><stop offset=".333" stop-color="#2594d0"/><stop offset=".505" stop-color="#195bb6"/><stop offset=".6164" stop-color="#1132a3"/><stop offset="1" stop-color="#1132a3"/></linearGradient><clipPath id="c"><path d="m52.0833 62.5h145.833v114.583h-145.833z"/></clipPath><path d="m125.4 248.951c68.456 0 123.95-55.495 123.95-123.95 0-68.4559-55.494-123.95022-123.95-123.95022-68.4557 0-123.95005 55.49432-123.95005 123.95022 0 68.455 55.49435 123.95 123.95005 123.95z" fill="#fff"/><g clip-path="url(#c)"><path d="m186.008 158.003h-96.9854l19.0244-32.248 29.461.14v-20.047h-17.721l13.185-22.3499h4.536v-20.9844h-10.554c-3.037 0-5.871 1.5426-7.393 4.0374l-23.981 39.2969h-30.671l-12.8257 19.634 31.4203.155-23.9107 39.171c-1.5222 2.487-1.5222 5.58 0 8.068 1.5222 2.487 4.3481 4.029 7.3848 4.029h130.6383z" fill="url(#a)"/><path d="m172.94 115.724-28.899-49.0696c-1.499-2.5538-4.356-4.1407-7.447-4.1407h-10.577v20.9844h3.989l13.832 22.3499h-78.929l-12.8257 19.634 114.4087.553h.04c2.583 0 5.003-1.306 6.315-3.41 1.319-2.111 1.358-4.753.093-6.901z" fill="url(#b)"/></g></svg>