<svg width="250" height="250" viewBox="0 0 250 250" fill="none" xmlns="http://www.w3.org/2000/svg">
<path d="M125.4 248.951C193.856 248.951 249.35 193.456 249.35 125.001C249.35 56.5451 193.856 1.05078 125.4 1.05078C56.9443 1.05078 1.44995 56.5451 1.44995 125.001C1.44995 193.456 56.9443 248.951 125.4 248.951Z" fill="white"/>
<g clip-path="url(#clip0_44_10540)">
<path d="M186.008 158.003H89.0226L108.047 125.755L137.508 125.895V105.848H119.787L132.972 83.4981H137.508V62.5137H126.954C123.917 62.5137 121.083 64.0563 119.561 66.5511L95.58 105.848H64.909L52.0833 125.482L83.5036 125.637L59.5929 164.808C58.0707 167.295 58.0707 170.388 59.5929 172.876C61.1151 175.363 63.941 176.905 66.9777 176.905H197.616L186.008 158.003Z" fill="url(#paint0_linear_44_10540)"/>
<path d="M172.94 115.724L144.041 66.6544C142.542 64.1006 139.685 62.5137 136.594 62.5137H126.017V83.4981H130.006L143.838 105.848H64.909L52.0833 125.482L166.492 126.035C166.508 126.035 166.516 126.035 166.532 126.035C169.115 126.035 171.535 124.729 172.847 122.625C174.166 120.514 174.205 117.872 172.94 115.724Z" fill="url(#paint1_linear_44_10540)"/>
</g>
<defs>
<linearGradient id="paint0_linear_44_10540" x1="6.48685" y1="191.657" x2="153.471" y2="115.817" gradientUnits="userSpaceOnUse">
<stop stop-color="#35E0F4"/>
<stop offset="0.0772" stop-color="#33D7F0"/>
<stop offset="0.2056" stop-color="#2EBDE4"/>
<stop offset="0.3693" stop-color="#2594D0"/>
<stop offset="0.5601" stop-color="#195BB6"/>
<stop offset="0.6836" stop-color="#1132A3"/>
</linearGradient>
<linearGradient id="paint1_linear_44_10540" x1="52.0833" y1="94.2744" x2="173.864" y2="94.2744" gradientUnits="userSpaceOnUse">
<stop stop-color="#35E0F4"/>
<stop offset="0.0696" stop-color="#33D7F0"/>
<stop offset="0.1854" stop-color="#2EBDE4"/>
<stop offset="0.333" stop-color="#2594D0"/>
<stop offset="0.505" stop-color="#195BB6"/>
<stop offset="0.6164" stop-color="#1132A3"/>
<stop offset="1" stop-color="#1132A3"/>
</linearGradient>
<clipPath id="clip0_44_10540">
<rect width="145.833" height="114.583" fill="white" transform="translate(52.0833 62.5)"/>
</clipPath>
</defs>
</svg>
