<svg fill="none" height="250" viewBox="0 0 250 250" width="250" xmlns="http://www.w3.org/2000/svg" xmlns:xlink="http://www.w3.org/1999/xlink"><clipPath id="a"><path d="m0 0h250v250h-250z"/></clipPath><g clip-path="url(#a)"><path d="m249.581 125.29c0 68.694-55.685 124.378-124.378 124.378-68.6942 0-124.378293-55.684-124.378293-124.378 0-68.6926 55.684093-124.377891 124.378293-124.377891 68.693 0 124.378 55.685291 124.378 124.377891z" fill="#020100"/><path d="m203.105 92.9015c-7.026-4.9144-14.54-10.1537-21.891-15.3524-.163-.1218-.325-.2437-.528-.3655-.813-.6092-1.747-1.2591-2.884-1.6246l-.081-.0406c-19.658-4.752-39.64-9.6257-58.973-14.3371-17.546-4.2645-35.0507-8.5291-52.5963-12.7936-.4468-.1219-.8935-.2437-1.3809-.3656-1.584-.4467-3.4117-.9341-5.3612-.6904-.5686.0812-1.056.2843-1.5027.5686l-.4874.4061c-.7717.7311-1.1778 1.6652-1.3809 2.1932l-.1219.325v1.8682l.0813.2843c11.0878 31.0704 22.46 62.5879 33.426 93.0889 8.4479 23.476 17.221 47.804 25.79 71.686.528 1.624 2.031 2.68 3.899 2.843h.407c1.746 0 3.289-.853 4.061-2.234l32.167-46.91c7.839-11.413 15.677-22.867 23.516-34.279 3.209-4.671 6.417-9.382 9.626-14.053 5.28-7.717 10.722-15.677 16.124-23.4348l.284-.4061v-.4874c.122-1.4215.163-4.3458-2.193-5.8892zm-37.691 17.0985c-7.554 3.94-15.271 8.002-23.028 12.022 4.508-4.833 9.057-9.707 13.565-14.54 5.646-6.092 11.535-12.3873 17.302-18.5607l.122-.1219c.487-.6498 1.096-1.259 1.746-1.9089.447-.4467.934-.8935 1.381-1.4215 3.006 2.0714 6.052 4.1833 8.976 6.2547 2.112 1.5028 4.265 3.0055 6.458 4.5083-8.935 4.549-17.871 9.22-26.522 13.768zm-19.414-1.949c-5.807 6.295-11.818 12.753-17.789 19.129-11.575-14.052-23.394-28.3081-34.8474-42.0765-5.1987-6.2547-10.438-12.55-15.6367-18.8047l-.0406-.0406c-1.1778-1.3403-2.315-2.8024-3.4523-4.1833-.731-.9342-1.5027-1.8277-2.2744-2.7618 4.7113 1.2184 9.4633 2.3556 14.134 3.4522 4.1021.9748 8.3666 1.9901 12.55 3.0461 23.5564 5.7267 47.1534 11.4534 70.7104 17.1801-7.839 8.3667-15.718 16.8552-23.354 25.0595zm-20.429 79.158c.447-4.264.934-8.651 1.34-12.956.366-3.452.732-6.986 1.097-10.357.569-5.401 1.178-11.006 1.665-16.489l.122-.975c.406-3.493.812-7.108 1.056-10.722.447-.244.934-.488 1.462-.691.609-.284 1.219-.528 1.828-.893 9.382-4.915 18.764-9.829 28.187-14.703 9.382-4.874 19.007-9.91 28.552-14.906-8.692 12.591-17.424 25.303-25.872 37.691-7.27 10.6-14.743 21.526-22.175 32.289-2.925 4.305-5.971 8.691-8.855 12.915-3.249 4.712-6.579 9.545-9.828 14.378.406-4.874.893-9.788 1.421-14.581zm-56.6169-118.3108c-.528-1.4622-1.0966-2.9649-1.584-4.3864 10.966 13.2404 22.0133 26.5621 32.7759 39.4772 5.565 6.702 11.129 13.363 16.693 20.105 1.097 1.259 2.193 2.599 3.249 3.899 1.381 1.665 2.762 3.411 4.265 5.077-.488 4.183-.894 8.407-1.341 12.468-.284 2.843-.568 5.686-.893 8.57v.041c-.122 1.827-.366 3.655-.569 5.442-.284 2.478-.934 8.082-.934 8.082l-.04.285c-.731 8.204-1.625 16.489-2.478 24.531-.365 3.331-.69 6.742-1.056 10.154-.203-.609-.447-1.219-.65-1.787-.609-1.625-1.218-3.331-1.787-4.996l-4.346-12.062c-13.768-38.3-27.5365-76.559-41.3049-114.8998z" fill="#fff"/></g></svg>