<svg fill="none" height="250" viewBox="0 0 250 250" width="250" xmlns="http://www.w3.org/2000/svg" xmlns:xlink="http://www.w3.org/1999/xlink"><clipPath id="a"><path d="m0 0h250v250h-250z"/></clipPath><g clip-path="url(#a)"><path d="m125 250c69.036 0 125-55.964 125-125 0-69.0365-55.964-125-125-125-69.0365 0-125 55.9635-125 125 0 69.036 55.9635 125 125 125z" fill="#f9f9f9"/><g clip-rule="evenodd" fill-rule="evenodd"><path d="m122.776 41c34.667.3062 60.928 23.4454 66.013 54.2001 5.75 34.7719-17.846 67.9229-52.577 73.9109-4.688.809-9.479 1.126-14.239 1.398-9.647.549-19.405 7.081-21.669 19.892-.6497 3.675-1.5181 7.313-2.3016 10.964-1.1386 5.304-5.6329 8.454-10.6066 7.449-5.1407-1.039-8.1115-5.641-6.9997-11.042 1.4209-6.904 2.9439-13.788 4.4225-20.68 5.1683-24.09 10.3493-48.178 15.4944-72.273 1.184-5.5467 4.459-8.5765 9.378-8.481 5.452.106 9.641 5.136 8.516 10.476-2.694 12.792-5.505 25.56-8.263 38.339-.533 2.472-1.024 4.953-1.565 7.423-.218.995-.045 1.494 1.142 1.361 7.316-.826 14.651-1.51 21.954-2.436 19.443-2.467 35.727-17.944 39.243-37.169 4.696-25.6722-11.889-49.6952-37.592-54.4533-25.648-4.7484-50.8886 13.6106-54.3209 39.4726-.9445 7.1177-.3035 14.0617 1.9412 20.8697 1.7375 5.269-.6556 10.498-5.5213 12.044-5.0846 1.616-10.0098-1.117-11.7115-6.498-11.6265-36.7665 9.7989-74.3899 47.4445-83.0969 4.562-1.0548 9.305-1.3274 11.818-1.6701z" fill="#000"/><path d="m116.608 198.176c.019-6.031 4.626-10.621 10.661-10.622 6.102-.002 10.831 4.738 10.746 10.768-.085 6.012-4.746 10.636-10.725 10.639-6.111.003-10.702-4.632-10.682-10.785z" fill="#e6027a"/></g></g></svg>