<svg fill="none" height="250" viewBox="0 0 250 250" width="250" xmlns="http://www.w3.org/2000/svg" xmlns:xlink="http://www.w3.org/1999/xlink"><clipPath id="a"><path d="m0 0h250v250h-250z"/></clipPath><g clip-path="url(#a)"><path d="m125.275 250c69.23 0 125.274-56.044 125.274-125.275-.549-68.681-56.593-124.725-125.274-124.725-68.6816 0-125.275 56.0439-125.275 125.275 0 68.681 56.0439 124.725 125.275 124.725z" fill="#1c68f3"/><path clip-rule="evenodd" d="m200.549 94.5054v41.7586h-126.3733-5.4945c5.4945 25.274 28.5715 43.956 56.0438 43.956 22.528 0 42.308-12.638 51.649-31.319h24.725v34.615c0 8.242-6.594 14.836-15.385 14.836h-121.9778c-8.2418 0-15.3846-6.594-15.3846-14.836v-89.0106zm-39.011 53.8466c-8.241 11.538-21.428 19.23-36.813 19.23-15.384 0-29.1207-7.692-36.813-19.23zm-69.2304-43.956c-12.0879 0-21.978 8.791-23.6264 19.78h13.1868c1.6484-4.396 5.4945-7.693 10.4396-7.693s8.7914 3.297 10.4394 7.693h12.638c-1.649-11.539-11.539-19.78-23.0774-19.78zm64.8354 0c-12.088 0-21.978 8.791-23.627 19.78h13.187c1.649-4.396 5.495-7.693 10.44-7.693s8.791 3.297 10.439 7.693h13.187c-2.198-11.539-12.088-19.78-23.626-19.78zm28.022-56.0444c8.241 0 15.384 6.5934 15.384 14.8351v18.1319h-152.1974v-18.1319c0-8.2417 6.5934-14.8351 15.3846-14.8351z" fill="#fff" fill-rule="evenodd"/></g></svg>