<svg width="250" height="250" viewBox="0 0 250 250" fill="none" xmlns="http://www.w3.org/2000/svg">
<g clip-path="url(#clip0_48_12988)">
<path d="M125 250C194.036 250 250 194.036 250 125C250 55.9644 194.036 0 125 0C55.9644 0 0 55.9644 0 125C0 194.036 55.9644 250 125 250Z" fill="#00DCFA"/>
<path d="M151.391 39.0625C121.156 39.0625 95.4766 62.3125 92.25 92.2422C62.3047 95.4766 39.0625 121.156 39.0625 151.383C39.0708 167.174 45.3469 182.316 56.512 193.482C67.6772 204.649 82.8184 210.927 98.6094 210.938C128.844 210.938 154.625 187.688 157.75 157.758C187.688 154.523 210.938 128.844 210.938 98.6172C210.929 82.8262 204.653 67.6842 193.488 56.5176C182.323 45.3509 167.182 39.0728 151.391 39.0625ZM196.984 105.281C195.498 115.047 190.928 124.083 183.943 131.068C176.958 138.053 167.922 142.623 158.156 144.109V105.281H196.984ZM53.0156 144.719C54.4824 134.934 59.0432 125.876 66.0301 118.871C73.017 111.866 82.063 107.281 91.8437 105.789V144.617H53.0156V144.719ZM144.211 158.156C142.598 169.095 137.103 179.088 128.731 186.311C120.358 193.533 109.666 197.502 98.6094 197.492C87.5543 197.502 76.8648 193.534 68.4937 186.313C60.1226 179.092 54.6287 169.101 53.0156 158.164H144.211V158.156ZM144.719 105.281V144.617H105.281V105.281H144.719ZM196.984 91.8437H105.789C107.402 80.9049 112.897 70.9116 121.269 63.6894C129.642 56.4672 140.334 52.4983 151.391 52.5078C162.446 52.4983 173.135 56.4663 181.506 63.6871C189.877 70.9078 195.371 80.8992 196.984 91.8359V91.8437Z" fill="white"/>
</g>
<defs>
<clipPath id="clip0_48_12988">
<rect width="250" height="250" fill="white"/>
</clipPath>
</defs>
</svg>
