<svg fill="none" height="250" viewBox="0 0 250 250" width="250" xmlns="http://www.w3.org/2000/svg" xmlns:xlink="http://www.w3.org/1999/xlink"><clipPath id="a"><path d="m0 0h250v250h-250z"/></clipPath><g clip-path="url(#a)"><path d="m125 250c69.036 0 125-55.964 125-125 0-69.0356-55.964-125-125-125-69.0356 0-125 55.9644-125 125 0 69.036 55.9644 125 125 125z" fill="#00dcfa"/><path d="m151.391 39.0625c-30.235 0-55.9144 23.25-59.141 53.1797-29.9453 3.2344-53.1875 28.9138-53.1875 59.1408.0083 15.791 6.2844 30.933 17.4495 42.099 11.1652 11.167 26.3064 17.445 42.0974 17.456 30.2346 0 56.0156-23.25 59.1406-53.18 29.938-3.235 53.188-28.914 53.188-59.1408-.009-15.791-6.285-30.933-17.45-42.0996-11.165-11.1667-26.306-17.4448-42.097-17.4551zm45.593 66.2185c-1.486 9.766-6.056 18.802-13.041 25.787s-16.021 11.555-25.787 13.041v-38.828zm-143.9684 39.438c1.4668-9.785 6.0276-18.843 13.0145-25.848s16.0329-11.59 25.8136-13.082v38.828h-38.8281zm91.1954 13.437c-1.613 10.939-7.108 20.932-15.48 28.155-8.373 7.222-19.065 11.191-30.1216 11.181-11.0551.01-21.7446-3.958-30.1157-11.179s-13.865-17.212-15.4781-28.149h91.1954zm.508-52.875v39.336h-39.438v-39.336zm52.265-13.4373h-91.195c1.613-10.9388 7.108-20.9321 15.48-28.1543 8.373-7.2222 19.065-11.1911 30.122-11.1816 11.055-.0095 21.744 3.9585 30.115 11.1793 8.371 7.2207 13.865 17.2121 15.478 28.1488z" fill="#fff"/></g></svg>