<svg fill="none" height="250" viewBox="0 0 250 250" width="250" xmlns="http://www.w3.org/2000/svg" xmlns:xlink="http://www.w3.org/1999/xlink"><linearGradient id="a"><stop offset="0" stop-color="#f6e93d"/><stop offset=".13" stop-color="#f8e330"/><stop offset=".35" stop-color="#f7c730"/><stop offset=".64" stop-color="#f59c2e"/><stop offset=".98" stop-color="#eb5e2c"/><stop offset="1" stop-color="#eb5c2c"/></linearGradient><linearGradient id="b" gradientUnits="userSpaceOnUse" x1="77.2438" x2="77.2438" xlink:href="#a" y1="100.091" y2="191.44"/><linearGradient id="c" gradientUnits="userSpaceOnUse" x1="113.144" x2="113.144" xlink:href="#a" y1="153.264" y2="229.162"/><linearGradient id="d" gradientUnits="userSpaceOnUse" x1="155.458" x2="155.458" xlink:href="#a" y1="131.084" y2="215.88"/><linearGradient id="e" gradientUnits="userSpaceOnUse" x1="87.0135" x2="87.0135" xlink:href="#a" y1="37.6453" y2="103.633"/><linearGradient id="f" gradientUnits="userSpaceOnUse" x1="200.13" x2="200.13" xlink:href="#a" y1="60.0047" y2="160.262"/><linearGradient id="g" gradientUnits="userSpaceOnUse" x1="144.999" x2="144.999" xlink:href="#a" y1="20.8359" y2="123.999"/><linearGradient id="h" gradientUnits="userSpaceOnUse" x1="165.27" x2="165.27" xlink:href="#a" y1="99.9406" y2="124.027"/><linearGradient id="i" gradientUnits="userSpaceOnUse" x1="98.5343" x2="106.185" xlink:href="#a" y1="118.015" y2="96.9941"/><clipPath id="j"><path d="m0 0h250v250h-250z"/></clipPath><g clip-path="url(#j)"><path d="m125 250c69.036 0 125-55.964 125-125 0-69.0356-55.964-125-125-125-69.0356 0-125 55.9644-125 125 0 69.036 55.9644 125 125 125z" fill="#fff"/><path d="m82.6115 110.095h.0938l1.5939.562 1.5001.563 1.5939.469 1.5002.656 1.5939.563 1.5001.562 1.5939.563 1.5002.562 1.5001.563 1.5002.562 1.5939.563 1.5003.656 1.594.469 1.5.563 1.594.562 1.5.656 1.594.563 1.5.469 1.5.562 1.594.657 1.594.562v-2.438-.375-1.969-1.406-1.031-2.438-2.344-2.438-2.344-2.531-2.344-.282h-1.875-1.782-.187-1.969-1.5-.563-1.969-1.031-1.031-2.063-.563-1.4061-1.9689-.0938-.0938-1.8751-1.6877-.2813-2.0627-1.3126-3.5629-3.5628-.0938-2.0627l-1.5002.751-3.5628 1.875-3.6566 1.969-3.6566 1.781-3.4691 1.875-3.6567 1.969-3.6566 1.782-3.5628 1.969-3.6566 1.875-3.5629 1.781-3.5629 1.969-3.2815 1.688-.3751 53.724 3.6566 2.531 3.5629 2.532 3.5629 2.438 3.6566 2.625 3.5628 2.532 3.6566 2.531 1.5939 1.219 2.0628-2.625 3.4691-4.688.375-.469-.375-.281-3.4691-2.532-3.6567-2.531-3.6566-2.532-3.5628-2.531-3.6566-2.626-.9376-.562.2812-43.505.6564-.375 3.6566-1.781 3.5628-1.781 3.6566-1.782 3.6567-1.781 3.4691-1.876 3.6566-1.781 3.6566-1.688 3.5628-1.875z" fill="url(#b)"/><path d="m144.68 212.576-3 1.219-3.375 1.406-3.376 1.313-3.375 1.406-1.5.563-1.782-.844-3.375-1.781-3.375-1.594-3.282-1.782-3.375-1.687-3.376-1.594-3.375-1.782-3.375-1.687-3.376-1.688-3.3749-1.688-3.3754-1.781-3.1878-1.594-3.3753-1.688-.3751-.187v-43.879h-3.0002-3.3754-3.3753v49.879l3.3753 1.594 3.3754 1.688 3.3753 1.781 3.3753 1.594 3.1878 1.782 3.3754 1.687 3.3749 1.688 3.376 1.688 3.375 1.687 3.375 1.688 3.376 1.688 3.375 1.781 3.282 1.594 3.375 1.782 3.375 1.593 1.313.751 1.969-.938 3.375-1.219 3.376-1.406 3.375-1.407 3.281-1.312 3.376-1.313-3.376-8.438z" fill="url(#c)"/><path d="m204.592 151.627.188 20.627-.844.75-5.719 3.938-5.72 4.126-5.719 4.125-5.719 4.032-5.72 4.031-5.625 4.126-5.719 4.031-3.376 2.438-2.344-1.781-5.625-4.407-5.72-4.313-5.719-4.407-5.625-4.313-1.032-.75v-22.221l1.032-.937 5.625-6.001 5.719-5.907 5.72-6 5.625-5.907 5.532-5.813h-5.532-5.625-5.72-5.719-5.625-5.814-5.719-5.625-5.72-5.719-5.626-5.719l5.719 6 5.626 5.907 5.719 5.907 5.72 6.001 5.625 5.906.844.844v26.909l4.875 3.844 5.814 4.407 5.625 4.313 5.719 4.407 5.72 4.313 5.625 4.406 2.063 1.594 3.657-2.625 5.719-3.938 5.625-4.125 5.72-4.126 5.719-3.938 5.719-4.125 5.72-4.125 5.719-3.938 5.719-4.126 4.688-3.469.938-25.315-5.626-.187z" fill="url(#d)"/><path d="m48.6706 103.624h.6563l.0938-27.5655 3.6566-2.344 4.5942-2.719 4.5004-2.719 4.5005-2.8128 4.5004-2.719 4.5943-2.8128 4.4066-2.719 4.5943-2.719 4.5004-2.8128 4.5942-2.8128h.0938l4.3129 2.5315 4.5947 2.5315 4.5 2.6253 4.5 2.5315 4.501 2.5315 4.5 2.5315 4.501 2.6252 4.406 2.5316.188-.3751 4.5-8.1571-4.5-2.6252-4.594-2.5315-4.501-2.5315-4.5-2.5315-4.501-2.6253-4.5-2.5315-4.5-2.5315-4.5947-2.6252-4.4067-2.5316-.1875-.0937-4.4067 2.6253-4.5004 2.8127-4.5943 2.8128-4.4066 2.8128-4.5943 2.719-4.5004 2.719-4.5005 2.8128-4.5004 2.719-4.5942 2.8128-4.4067 2.719-4.5942 2.7191-4.313 2.719-.1875 32.9095h4.5005z" fill="url(#e)"/><path d="m224.938 78.4003-2.344-1.8752-2.344-1.8752-2.344-1.9689-2.344-1.8752-2.344-1.8752-2.437-1.8752-2.344-1.8752-2.344-1.8752-2.438-1.9689-1.781-1.3127-.657.7501-2.344 2.9066-2.344 3.0003-.656.75.656.6563 2.344 1.969 2.344 1.9689 2.438 1.969 2.438 1.9689 2.344 2.0627 2.344 1.969 2.437 1.9689 1.126.9376.093 44.3483-1.219.844-2.437 1.5-2.344 1.5-2.344 1.5-2.438 1.5-2.438 1.5-2.344 1.501-2.344 1.5-2.344 1.5-2.344 1.5-2.344 1.5-2.437 1.5-2.344 1.501-2.344 1.5-2.344 1.5-2.438 1.5-2.344 1.5 2.344 3.75 2.438 3.751.375.656 1.969-1.219 2.344-1.406 2.344-1.5 2.437-1.407 2.344-1.594 2.344-1.406 2.344-1.5 2.344-1.406 2.344-1.501 2.438-1.406 2.438-1.594 2.344-1.406 2.344-1.5 2.437-1.407 2.344-1.5 2.344-1.406 2.344-1.594 2.344-1.407 2.344-1.5z" fill="url(#f)"/><path d="m147.587 104.844v2.438 2.438 2.438 2.531 2.532 2.437 2.438 1.875l.75-.281 3.187-1.219 3.188-1.313 3.094-1.218 3.188-1.313 3.188-1.313 3.094-1.219 3.188-1.312 3.188-1.219 3.094-1.313 3.188-1.219 3.094-1.312v-2.438-.938-6.4689-48.1923l-3.563-2.2503-3.657-2.0627-3.656-2.0627-3.563-2.2502-3.657-2.0627-3.657-2.0627-3.562-2.1565-3.657-2.1564-3.563-2.1565-3.656-2.0627-3.657-2.1565-3.563-2.1564-3.563-2.0627-3.656-2.0628-1.969-1.1251-1.688.9376-3.657 1.969-3.656 1.8752-3.469 2.0627-3.657 1.9689-3.657 1.8752-3.656 2.0627 3.656 2.0627 3.657 2.0627 2.25 1.4064 1.407-.7501 3.469-1.8752 3.656-1.9689 3.657-1.8752 1.406-.7501 2.251 1.3127 3.656 2.0627 3.563 2.0627 3.563 2.1564 3.657 2.1565 3.656 2.0627 3.563 2.1565 3.657 2.1564 3.562 2.0628 3.657 2.0627 3.657 2.2502 3.563 2.0627 1.218.6563v42.7543h-.843-.375-1.688-1.875-.188-2.156-1.313-.75-2.063-.844-1.218-2.063-.281-1.782-1.875-.188-2.156-1.219-.844-1.594-.281" fill="url(#g)"/><path d="m147.587 123.971 35.441-14.251-35.441-9.845" fill="url(#h)"/><path d="m115.146 123.971v-23.721l-32.4409 9.657 32.4409 13.97" fill="url(#i)"/></g></svg>