<svg fill="none" height="250" viewBox="0 0 250 250" width="250" xmlns="http://www.w3.org/2000/svg" xmlns:xlink="http://www.w3.org/1999/xlink"><clipPath id="a"><path d="m0 0h250v250h-250z"/></clipPath><g clip-path="url(#a)"><path d="m124.911.714355c-68.5716 0-124.196645 55.714245-124.196645 124.285645 0 68.571 55.714245 124.286 124.285645 124.286 68.571 0 124.286-55.625 124.286-124.286 0-68.6606-55.715-124.285645-124.375-124.285645z" fill="#06c"/><path d="m124.911 225.982c55.771 0 100.982-45.211 100.982-100.982 0-55.7709-45.211-100.9822-100.982-100.9822s-100.9823 45.2113-100.9823 100.9822c0 55.771 45.2113 100.982 100.9823 100.982z" fill="#002352"/><path d="m156.071 74.375 3.572-9.2857c.357-.9822-.357-1.9643-1.339-1.9643h-13.304l-4.286 10.9821h-5.893l3.393-9.0178c.357-.9822-.357-1.9643-1.339-1.9643h-13.304l-4.107 10.9821h-41.6962c-1.875 0-3.6607 1.0715-4.6428 2.6786l-10.3572 18.3036h77.7682c2.589 0 5.089.4464 7.5 1.4286 4.643 1.875 10.089 6.1611 8.66 15.8031-2.232 16.161-18.75 44.733-54.464 45.179l18.482-48.036c.715-1.964-.714-4.018-2.857-4.018h-24.732l-29.9107 73.393s5.9821.715 15.4464.715l-3.0357 7.678h13.6607c1.0714 0 2.0535-.625 2.4107-1.696l2.5893-6.607c2.0536-.179 4.0178-.447 6.1603-.625l-3.3925 8.928h13.6605c1.072 0 2.054-.625 2.411-1.696l3.929-10.09c22.41-5.089 46.339-16.25 60.714-39.642 28.839-47.1433-1.072-59.2861-21.697-61.429z" fill="#fff"/></g></svg>