<svg fill="none" height="250" viewBox="0 0 250 250" width="250" xmlns="http://www.w3.org/2000/svg" xmlns:xlink="http://www.w3.org/1999/xlink"><clipPath id="a"><path d="m0 0h250v250h-250z"/></clipPath><g clip-path="url(#a)"><path d="m125 250c69.036 0 125-55.964 125-125 0-69.0356-55.964-125-125-125-69.0356 0-125 55.9644-125 125 0 69.036 55.9644 125 125 125z" fill="#34445b"/><g fill="#fff"><path d="m124.508 79.8593 15.703-24.5c4.029.6535 8.155-.2716 11.52-2.5829 3.364-2.3114 5.708-5.8309 6.543-9.8264.835-3.9954.098-8.1591-2.059-11.6247-2.156-3.4656-5.566-5.9662-9.52-6.9816-3.149-.6522-6.422-.3315-9.385.9195s-5.475 3.3732-7.204 6.085c-1.729 2.7119-2.592 5.8853-2.476 9.0992.117 3.2139 1.207 6.3165 3.128 8.8963l-19.485 30.3984c-8.131.7998-16.025 3.1941-23.2305 7.0461-7.2056 3.852-13.5815 9.0862-18.7632 15.4038-5.1818 6.317-9.0679 13.593-11.4363 21.413-2.3683 7.82-3.1725 16.03-2.3665 24.161 1.6254 16.416 9.7029 31.515 22.4571 41.978s29.1414 15.433 45.5584 13.818c16.418-1.623 31.519-9.7 41.984-22.454 10.464-12.754 15.436-29.142 13.821-45.561-1.403-14.143-7.603-27.379-17.57-37.51-9.967-10.1307-23.101-16.5453-37.219-18.1777zm-7.149 94.7027c-4.334.005-8.626-.846-12.631-2.502-4.005-1.657-7.6445-4.087-10.7096-7.151-3.065-3.064-5.4958-6.703-7.1532-10.708-1.6574-4.004-2.5089-8.297-2.5058-12.631-.0042-4.335.8466-8.628 2.5036-12.633 1.6569-4.006 4.0875-7.645 7.1527-10.71 3.0651-3.066 6.7043-5.496 10.7103-7.153s8.299-2.508 12.633-2.504c6.704-.001 13.249 2.041 18.763 5.854 5.513 3.813 9.733 9.217 12.097 15.49-3.101-3.993-7.66-6.592-12.675-7.226-5.016-.635-10.078.748-14.075 3.843-3.995 3.1-6.596 7.659-7.23 12.675s.749 10.079 3.847 14.075c1.779 2.289 4.057 4.142 6.66 5.419 2.603 1.276 5.463 1.942 8.362 1.948 2.899.005 5.761-.651 8.369-1.918 2.607-1.267 4.892-3.112 6.679-5.394-2.373 6.245-6.59 11.62-12.091 15.411-5.501 3.792-12.025 5.82-18.706 5.815z"/><path d="m124.508 79.8593 15.703-24.5c4.029.6535 8.155-.2716 11.52-2.5829 3.364-2.3114 5.708-5.8309 6.543-9.8264.835-3.9954.098-8.1591-2.059-11.6247-2.156-3.4656-5.566-5.9662-9.52-6.9816-3.149-.6522-6.422-.3315-9.385.9195s-5.475 3.3732-7.204 6.085c-1.729 2.7119-2.592 5.8853-2.476 9.0992.117 3.2139 1.207 6.3165 3.128 8.8963l-19.485 30.3984c-8.131.7998-16.025 3.1941-23.2305 7.0461-7.2056 3.852-13.5815 9.0862-18.7632 15.4038-5.1818 6.317-9.0679 13.593-11.4363 21.413-2.3683 7.82-3.1725 16.03-2.3665 24.161 1.6254 16.416 9.7029 31.515 22.4571 41.978s29.1414 15.433 45.5584 13.818c16.418-1.623 31.519-9.7 41.984-22.454 10.464-12.754 15.436-29.142 13.821-45.561-1.403-14.143-7.603-27.379-17.57-37.51-9.967-10.1307-23.101-16.5453-37.219-18.1777zm-7.149 94.7027c-4.334.005-8.626-.846-12.631-2.502-4.005-1.657-7.6445-4.087-10.7096-7.151-3.065-3.064-5.4958-6.703-7.1532-10.708-1.6574-4.004-2.5089-8.297-2.5058-12.631-.0042-4.335.8466-8.628 2.5036-12.633 1.6569-4.006 4.0875-7.645 7.1527-10.71 3.0651-3.066 6.7043-5.496 10.7103-7.153s8.299-2.508 12.633-2.504c6.704-.001 13.249 2.041 18.763 5.854 5.513 3.813 9.733 9.217 12.097 15.49-3.101-3.993-7.66-6.592-12.675-7.226-5.016-.635-10.078.748-14.075 3.843-3.995 3.1-6.596 7.659-7.23 12.675s.749 10.079 3.847 14.075c1.779 2.289 4.057 4.142 6.66 5.419 2.603 1.276 5.463 1.942 8.362 1.948 2.899.005 5.761-.651 8.369-1.918 2.607-1.267 4.892-3.112 6.679-5.394-2.373 6.245-6.59 11.62-12.091 15.411-5.501 3.792-12.025 5.82-18.706 5.815z"/></g></g></svg>