<svg width="250" height="250" viewBox="0 0 250 250" fill="none" xmlns="http://www.w3.org/2000/svg">
<g clip-path="url(#clip0_50_10720)">
<path fill-rule="evenodd" clip-rule="evenodd" d="M250 125C250 194.036 194.036 250 125 250C55.9641 250 0 194.036 0 125C0 55.9641 55.9641 0 125 0C194.036 0 250 55.9641 250 125Z" fill="url(#paint0_linear_50_10720)"/>
<path d="M158.988 51.9141L56.011 199.443H87.627L191.137 51.9141H158.988Z" fill="white"/>
<path d="M90.9203 51.9141L121.219 95.3859L105.411 119.098L58.6458 51.9141H90.9203Z" fill="url(#paint1_linear_50_10720)"/>
<path d="M162.056 199.456L128.464 151.374L144.272 128.32L193.672 199.456H162.056Z" fill="url(#paint2_linear_50_10720)"/>
</g>
<defs>
<linearGradient id="paint0_linear_50_10720" x1="125" y1="0" x2="125" y2="250" gradientUnits="userSpaceOnUse">
<stop stop-color="#201A6D"/>
<stop offset="1" stop-color="#091739"/>
</linearGradient>
<linearGradient id="paint1_linear_50_10720" x1="83.675" y1="61.1354" x2="127.049" y2="113.497" gradientUnits="userSpaceOnUse">
<stop stop-color="white"/>
<stop offset="1" stop-color="white" stop-opacity="0.55"/>
</linearGradient>
<linearGradient id="paint2_linear_50_10720" x1="169.302" y1="188.259" x2="116.012" y2="116.418" gradientUnits="userSpaceOnUse">
<stop stop-color="#6966FF"/>
<stop offset="1" stop-color="#6966FF" stop-opacity="0.36"/>
</linearGradient>
<clipPath id="clip0_50_10720">
<rect width="250" height="250" fill="white"/>
</clipPath>
</defs>
</svg>
