<svg fill="none" height="250" viewBox="0 0 250 250" width="250" xmlns="http://www.w3.org/2000/svg"><path d="m124.938 250c68.192 0 123.473-55.964 123.473-125 0-69.0356-55.281-125-123.473-125-68.1922 0-123.47297 55.9644-123.47297 125 0 69.036 55.28077 125 123.47297 125z" fill="#fff"/><path d="m124.938 0c-24.42 0-48.293 7.33113-68.5979 21.0663-20.3051 13.7351-36.131 33.2575-45.4763 56.0981-9.34545 22.8406-11.790643 47.9746-7.0264 72.2216 4.76423 24.248 16.5239 46.521 33.792 64.002 17.268 17.482 39.2687 29.387 63.2206 34.21 23.951 4.823 48.778 2.348 71.339-7.113 22.562-9.461 41.846-25.482 55.414-46.039 13.567-20.556 20.808-44.723 20.808-69.446-.008-33.1494-13.02-64.9387-36.173-88.3788-23.154-23.4402-54.555-36.61250737-87.3-36.6212zm-5.555 186.598c-6.713 4.867-14.741 7.528-22.9974 7.624-14.2681 0-27.3375-7.821-37.2491-22.265-8.9146-13.811-13.8602-29.858-14.2843-46.35.0032-.311.1015-.615.2812-.866.1798-.253.4323-.443.7229-.544l9.7172-4.411c.1817-.088.3795-.137.5809-.144s.402.028.5892.104c.1871.075.3568.189.4983.335.1415.145.2517.318.3237.508 0 .197.1943.394.1943.591 0 16.396 4.3565 31.906 12.0982 43.349 7.32 10.838 16.8432 16.658 26.7544 16.658 5.3635.012 10.6085-1.598 15.0615-4.623.327-.168.7-.219 1.059-.145.359.075.682.27.917.555 1.976 2.607 3.967 5.017 6.138 7.411.133.372.165.773.094 1.162s-.243.752-.499 1.051zm71.551-14.641c-9.717 14.248-22.997 22.265-37.249 22.265s-27.354-8.017-37.249-22.265c-9.313-13.641-14.463-31.709-14.463-50.826 0-17.642 10.106-31.4966 22.787-31.4966s22.803 13.8546 22.803 31.4966c.224 15.378-3.392 30.565-10.51 44.153-.085.176-.206.333-.353.46-.148.127-.319.222-.505.279s-.381.075-.573.052c-.193-.023-.378-.086-.546-.184-.194 0-.194-.213-.404-.41-1.183-1.41-2.381-2.804-3.369-4.214-1.188-1.735-2.269-3.542-3.239-5.411-.096-.222-.146-.462-.146-.705 0-.242.05-.482.146-.705 4.497-10.584 6.796-21.991 6.754-33.512 0-8.624-4.374-18.462-10.123-18.462s-10.106 9.838-10.106 18.462c0 16.395 4.357 31.905 12.099 43.35 7.336 10.821 16.843 16.641 26.754 16.641 9.912 0 19.434-6.017 26.755-16.641 7.725-11.477 12.097-26.889 12.097-43.35 0-16.462-4.34-31.824-12.097-43.3009-2.214-3.3731-4.885-6.4144-7.936-9.0337-.263-.2957-.424-.67-.459-1.0663-.035-.3956.057-.7931.265-1.1312.194-.2131.404-.4094.599-.4094l9.717-4.4107c.27-.148.585-.1897.884-.117.299.0726.561.2544.735.5105 2.472 2.5391 4.73 5.281 6.754 8.1978 9.312 13.6413 14.462 31.7089 14.462 50.8259 0 19.118-4.972 37.317-14.284 50.958z" fill="#a466ff"/></svg>