<svg fill="none" height="250" viewBox="0 0 250 250" width="250" xmlns="http://www.w3.org/2000/svg" xmlns:xlink="http://www.w3.org/1999/xlink"><clipPath id="a"><path d="m0 0h250v250h-250z"/></clipPath><clipPath id="b"><path d="m0 0h250v250h-250z"/></clipPath><g clip-path="url(#a)"><g clip-path="url(#b)"><path d="m125 0c69.048 0 125 55.9524 125 125 0 69.048-55.952 125-125 125-69.0476 0-125-55.952-125-125 0-69.0476 55.9524-125 125-125z" fill="#fff"/><g fill="#216c58"><path d="m125 241.669c64.433 0 116.667-52.233 116.667-116.666 0-64.4336-52.234-116.66706-116.667-116.66706-64.4333 0-116.66675 52.23346-116.66675 116.66706 0 64.433 52.23345 116.666 116.66675 116.666z" stroke="#216c58" stroke-width=".7"/><path d="m233.333 124.997c0 60.119-48.214 108.334-108.333 108.334s-108.3333-48.215-108.3333-108.334c0-60.1187 48.2143-108.3329 108.3333-108.3329s108.333 48.2142 108.333 108.3329z"/><path d="m122.619 177.383h-12.5v12.5h12.5z"/><path d="m143.452 177.383h-12.5v12.5h12.5z"/></g><g fill="#fff"><path d="m89.2858 47.6172h79.1662c2.381 0 4.167 2.3809 4.167 4.1667v2.3809c0 2.381-1.786 4.1667-4.167 4.1667h-79.1662c-2.3809 0-4.1667-1.7857-4.1667-4.1667v-2.3809c0-1.7858 2.381-4.1667 4.1667-4.1667z"/><path d="m125 62.5v141.667c0 2.381-1.786 4.166-4.167 4.166h-2.381c-2.381 0-4.166-1.785-4.166-4.166v-141.667z"/><path d="m141.667 62.5v141.667c0 2.381-1.786 4.166-4.167 4.166h-2.381c-2.381 0-4.167-1.785-4.167-4.166v-141.667z"/><path d="m116.071 97.6217c2.977-1.1905 6.548-1.7858 11.31-1.7858 6.548 0 11.309 1.1905 14.881 3.5715 2.381 1.7856 4.167 3.5716 5.357 6.5476 1.19 2.381 2.976 4.762 6.548 4.762h19.047c3.572 0 6.548-2.976 5.953-6.548-.596-5.9521-2.977-10.714-6.548-15.4759-4.167-5.9524-10.714-10.1191-18.452-13.0953-7.738-2.9761-16.667-4.7619-26.786-4.7619s-19.048 1.7858-26.786 4.7619c-7.7379 2.9762-14.2855 7.7381-19.0474 13.0953-4.7619 5.9524-7.1429 12.4999-7.1429 20.2379 0 9.524 3.5714 17.262 10.7143 22.619s16.071 9.524 27.381 11.905l14.881 2.976c4.762 1.191 8.928 2.381 11.905 3.572 2.976 1.19 5.357 2.381 7.143 4.166 1.19 1.191 2.38 2.976 2.38 5.357s-.595 4.167-2.38 6.548c-1.786 1.786-4.167 3.571-7.739 4.762-2.976 1.19-7.142 1.786-11.904 1.786s-8.929-.596-12.5-1.786c-3.572-1.191-6.548-2.976-8.334-5.357-1.19-1.786-2.381-3.572-2.976-5.357-.595-2.977-2.976-5.357-6.5475-5.357h-19.0476c-3.5714 0-6.5476 2.976-5.9524 6.547.5953 7.143 2.9762 13.095 7.1429 18.453 4.7619 5.952 11.3095 10.714 19.6428 13.69 8.3338 2.976 17.8568 4.762 29.1668 4.762 11.309 0 20.833-1.191 28.571-4.762 8.334-2.976 14.286-7.143 18.453-13.095 4.166-5.953 6.547-12.5 6.547-20.238 0-5.357-1.19-10.119-3.571-14.286s-5.357-7.738-8.929-10.714c-3.571-2.977-8.333-5.357-13.095-7.738-4.762-1.786-10.714-3.572-16.667-4.762l-11.904-2.381c-2.977-.596-5.357-1.191-7.738-1.786s-4.762-1.786-6.548-2.976c-1.786-1.191-2.976-2.381-4.167-3.572-.595-1.19-1.19-2.381-1.19-4.166 0-1.786.595-4.167 1.786-5.357 2.38-2.381 4.166-3.5719 7.142-4.7623z" stroke="#216c58" stroke-width=".7"/><path d="m125 89.8828h-10.714v14.2862h10.714z"/><path d="m125 141.664h-10.714v14.881h10.714z"/><path d="m125 185.117h-10.714v14.286h10.714z"/><path d="m142.262 89.8828h-10.714v14.2862h10.714z"/><path d="m142.262 141.664h-10.714v14.881h10.714z"/><path d="m142.262 185.117h-10.714v14.286h10.714z"/><path clip-rule="evenodd" d="m229.762 130.95c-1.786 0-2.976 1.19-2.976 2.976-4.762 52.381-48.214 93.452-101.786 93.452-53.5713 0-97.0237-41.071-101.7856-93.452 0-1.786-1.7857-2.976-2.9762-2.976-1.7857 0-2.9762 1.785-2.9762 3.571 4.7619 55.357 51.1905 98.81 107.738 98.81 56.548 0 102.976-43.453 107.738-98.81.595-1.786-1.19-3.571-2.976-3.571zm-209.5238-11.905c1.7857 0 2.9762-1.19 2.9762-2.976 4.7619-52.3811 48.2143-92.8573 101.7856-92.8573 53.572 0 97.024 41.0714 101.786 92.8573 0 1.786 1.786 2.976 2.976 2.976 1.786 0 2.976-1.786 2.976-3.571-4.762-55.3576-51.19-98.8099-107.738-98.8099-56.5475 0-102.9761 43.4523-107.738 98.8099-.5952 1.785 1.1905 3.571 2.9762 3.571z" fill-rule="evenodd"/></g></g></g></svg>