<svg fill="none" height="250" viewBox="0 0 251 250" width="251" xmlns="http://www.w3.org/2000/svg" xmlns:xlink="http://www.w3.org/1999/xlink"><linearGradient id="a" gradientUnits="userSpaceOnUse" x1="-2.99925" x2="239.484" y1="126.37" y2="126.37"><stop offset="0" stop-color="#d8b35d"/><stop offset="1" stop-color="#f5e7bf"/></linearGradient><clipPath id="b"><path d="m.957031 0h250v250h-250z"/></clipPath><g clip-path="url(#b)" clip-rule="evenodd" fill-rule="evenodd"><path d="m46.7654 21.9469-45.60388 96.3081c-.182356.349-.245162.748-.178683 1.137.066483.388.258533.744.546393 1.012l123.10477 118.682c.354.321.814.499 1.291.499.476 0 .936-.178 1.291-.499l123.177-118.682c.285-.27.475-.625.542-1.013.066-.388.005-.786-.174-1.136l-45.604-96.3081c-.121-.335-.344-.6229-.637-.8229-.294-.1999-.643-.3016-.997-.2905h-155.1397c-.3496.0096-.6892.1196-.9788.3168-.2895.1973-.5169.4737-.6555.7966z" fill="url(#a)"/><path d="m141.803 128.107c-.883.074-5.451.37-15.62.37-8.102 0-13.85-.222-15.913-.37-31.3086-1.405-54.6621-6.89-54.6621-13.41 0-6.521 23.3535-12.075 54.6621-13.48v21.409c2.042.148 7.885.518 15.987.518 9.724 0 14.585-.444 15.472-.518v-21.409c31.235 1.405 54.588 6.89 54.588 13.406s-23.288 12.079-54.514 13.484zm0-29.0391v-19.1909h43.614v-29.2609h-118.7574v29.2609h43.6104v19.1909c-35.4351 1.6431-62.102 8.6651-62.102 17.1861s26.6669 15.485 62.102 17.186v61.418h31.533v-61.418c35.361-1.644 61.958-8.669 61.958-17.112s-26.597-15.633-61.958-17.256z" fill="#fff"/></g></svg>