<svg width="250" height="250" viewBox="0 0 250 250" fill="none" xmlns="http://www.w3.org/2000/svg">
<g clip-path="url(#clip0_50_11865)">
<path d="M125 250C194.036 250 250 194.036 250 125C250 55.9644 194.036 0 125 0C55.9644 0 0 55.9644 0 125C0 194.036 55.9644 250 125 250Z" fill="#F89022"/>
<path d="M218.75 148.141H200.281L187.18 136.922L174.125 148.094H158.516L151.055 139.031H125.336L131.844 130.992H144.492L134.859 119.211L101.227 160.156H85.625L95.3594 148.266H79.1016L70.3125 123.625L61.5938 148.078H45.1016L31.25 109.695H43.9062L53.2188 135.836L62.5 109.812H78.125L87.3828 135.781L96.6328 109.805H109.328L95.3594 148.266L98.4688 144.469L127 109.742H142.703L166.445 138.711L177.867 128.891L141.719 97.6562H160.273L218.75 148.141ZM200.43 124.922L191.719 117.453L200.414 110.047L217.992 110.063L200.43 124.922Z" fill="white"/>
</g>
<defs>
<clipPath id="clip0_50_11865">
<rect width="250" height="250" fill="white"/>
</clipPath>
</defs>
</svg>
