<svg fill="none" height="250" viewBox="0 0 250 250" width="250" xmlns="http://www.w3.org/2000/svg" xmlns:xlink="http://www.w3.org/1999/xlink"><clipPath id="a"><path d="m0 0h250v250h-250z"/></clipPath><g clip-path="url(#a)"><path d="m125 250c69.036 0 125-55.964 125-125 0-69.0356-55.964-125-125-125-69.0356 0-125 55.9644-125 125 0 69.036 55.9644 125 125 125z" fill="#f89022"/><path d="m218.75 148.141h-18.469l-13.101-11.219-13.055 11.172h-15.609l-7.461-9.063h-25.719l6.508-8.039h12.648l-9.633-11.781-33.632 40.945h-15.602l9.7344-11.89h-16.2578l-8.7891-24.641-8.7187 24.453h-16.4922l-13.8516-38.383h12.6562l9.3126 26.141 9.2812-26.024h15.625l9.2578 25.969 9.25-25.976h12.6952l-13.9686 38.461 3.1094-3.797 28.5312-34.727h15.703l23.742 28.969 11.422-9.82-36.148-31.2348h18.554zm-18.32-23.219-8.711-7.469 8.695-7.406 17.578.016z" fill="#fff"/></g></svg>