<svg fill="none" height="250" viewBox="0 0 250 250" width="250" xmlns="http://www.w3.org/2000/svg"><g clip-rule="evenodd" fill="#21a0b4" fill-rule="evenodd"><path d="m212.9 134.698-33.55 58.1c1.3 2.8 1.55 5.75.6 8.75-1.25 4-4.45 7.3-8.5 8.4-5.35 1.45-10.65-.6-13.6-4.85h-65.4999c-3.1 4.4-8.6 6.4-14.1 4.7-4-1.25-7.1-4.65-8.15-8.65-.75-2.75-.55-5.4.55-7.95l-33.8-58.4c-6.15-.85-10.85-6.1-10.85-12.35 0-6.65 5.2-12.15 11.8-12.5l32.7-56.6496c-.55-1.5-.9-3.05-.9-4.55 0-6.9 5.6-12.5 12.55-12.5 3.95 0 7.6 1.85 9.95 4.95h65.8999c2.35-3.1 6-4.95 9.95-4.95 6.9 0 12.5 5.65 12.5 12.5 0 1.65-.4 3.35-1.05 4.9l32.5 56.2996c6.4.55 11.45 6 11.45 12.45.05 6.2-4.45 11.35-10.45 12.3zm32.2-22.8-50.3-87.0496c-4.1-7.1-11.65-11.45-19.8-11.45h-100.5999c-8.15 0-15.75 4.35-19.85 11.45l-50.25 87.0496c-4.100002 7.1-4.100002 15.8 0 22.9l50.3 87.05c4.1 7.1 11.65 11.45 19.85 11.45h100.5499c8.2 0 15.75-4.35 19.8-11.45l50.3-87.05c4.1-7.1 4.1-15.8 0-22.9z"/><path d="m201.95 113.753-21.15-36.5999-78.8 44.1499v.25c0 6.9-5.6001 12.55-12.5001 12.55s-12.5-5.6-12.5-12.55c0-6.9 5.6-12.5 12.5-12.5 2.9 0 5.65 1 7.85 2.8l78.1501-43.8999-4.15-7.2c-1.1.3-2.25.5-3.4.5-5.8 0-10.75-4-12.1-9.55h-61.6001c-1.35 5.55-6.35 9.55-12.1 9.55-1.25 0-2.55-.2-3.75-.6l-30.75 53.2499c2.2 2.35 3.4 5.35 3.4 8.5 0 3.45-1.4 6.65-3.9 9l23.5 40.7 80.5501-46.6c-.05-.35-.05-.75-.05-1.1 0-6.9 5.65-12.5 12.5-12.5 6.9 0 12.5 5.6 12.5 12.5s-5.6 12.5-12.5 12.5c-2.6 0-5.05-.8-7.15-2.3l-80.6501 46.65 2.7 4.7c1.15-.35 2.35-.5 3.6-.5 5.7 0 10.55 3.8 12.05 9.15h61.7501c1.75-6.4 8.55-10.6 15.25-8.75l31.3-54.2c-2.6-2.35-4.1-5.7-4.1-9.2-.05-3.3 1.25-6.4 3.55-8.7z"/></g></svg>