<svg fill="none" height="250" viewBox="0 0 250 250" width="250" xmlns="http://www.w3.org/2000/svg"><path d="m250 126.221c-.045 29.492-10.355 58.033-29.133 80.651-18.777 22.619-44.833 37.881-73.628 43.128-7.758-11.929-11.87-25.893-11.823-40.157 0-.788 0-106.929 0-106.929s.573-.682.938-.315c7.854 9.465 17.437 17.324 28.229 23.15.088.043.162.11.214.193.052.084.08.181.08.279 0 .099-.028.195-.08.279s-.126.151-.214.194c-6.128 3.232-11.846 7.198-17.031 11.811-.546.496-.982 1.104-1.278 1.783-.296.678-.446 1.412-.441 2.154v28.346c.043.089.109.163.192.216.083.052.179.08.277.08s.194-.028.277-.08c.082-.053.149-.127.192-.216 6.517-10.389 15.525-18.955 26.194-24.909 10.668-5.954 22.653-9.104 34.847-9.159.073 0 .146-.015.212-.044.067-.03.127-.074.176-.128s.087-.119.11-.189c.022-.069.03-.143.023-.217v-19.947c0-.315 0-.472-.521-.472-19.107-.245-37.365-7.996-50.887-21.6047-13.521-13.6084-21.239-31.9989-21.509-51.2561v-.63h-20.833v.63c-.27 19.2572-7.987 37.6477-21.5087 51.2561-13.5217 13.6087-31.7797 21.3597-50.887 21.6047-.3125 0-.5208 0-.5208.472v19.947c-.0073.074.0007.148.0236.217.0229.07.0601.135.1092.189s.109.098.1759.128c.0668.029.1391.044.2121.044 12.2142.077 24.2115 3.259 34.8815 9.251s19.6677 14.6 26.1602 25.027c.043.089.109.163.192.216.083.052.179.08.277.08s.193-.028.276-.08c.083-.053.15-.127.192-.216v-28.609c.006-.741-.144-1.475-.44-2.154-.297-.679-.732-1.286-1.278-1.783-5.1854-4.613-10.9038-8.578-17.0315-11.811-.0881-.043-.1623-.11-.2143-.193-.052-.084-.0795-.181-.0795-.279 0-.099.0275-.196.0795-.279.052-.084.1262-.151.2143-.194 10.7918-5.826 20.3745-13.684 28.2295-23.149.364-.368.937 0 .937.315v106.928c.032 14.27-4.098 28.234-11.875 40.157-23.3978-4.274-45.1007-15.185-62.5616-31.454s-29.9553-37.22-36.01689-60.395c-6.06158-23.174-5.43884-47.61 1.79516-70.4407 7.23403-22.8303 20.77913-43.1073 39.04563-58.4513 18.2666-15.3441 40.4967-25.11856 64.0817-28.17632 23.584-3.05776 47.545.72806 69.07 10.91312 21.525 10.1851 39.721 26.3469 52.453 46.5887 12.731 20.2417 19.47 43.7235 19.425 67.6895z" fill="#ca4226"/></svg>