<svg fill="none" height="250" viewBox="0 0 250 250" width="250" xmlns="http://www.w3.org/2000/svg" xmlns:xlink="http://www.w3.org/1999/xlink"><filter id="a" color-interpolation-filters="sRGB" filterUnits="userSpaceOnUse" height="183.167" width="187.661" x="31.1686" y="62"><feFlood flood-opacity="0" result="BackgroundImageFix"/><feColorMatrix in="SourceAlpha" result="hardAlpha" type="matrix" values="0 0 0 0 0 0 0 0 0 0 0 0 0 0 0 0 0 0 127 0"/><feOffset dy="33.3333"/><feGaussianBlur stdDeviation="16.6667"/><feComposite in2="hardAlpha" operator="out"/><feColorMatrix type="matrix" values="0 0 0 0 0 0 0 0 0 0 0 0 0 0 0 0 0 0 0.25 0"/><feBlend in2="BackgroundImageFix" mode="normal" result="effect1_dropShadow_416_11508"/><feBlend in="SourceGraphic" in2="effect1_dropShadow_416_11508" mode="normal" result="shape"/></filter><radialGradient id="b" cx="0" cy="0" gradientTransform="matrix(249.99972381 249.99972381 -168.09413113 168.09413113 0 0)" gradientUnits="userSpaceOnUse" r="1"><stop offset="0" stop-color="#bfffb5"/><stop offset=".616783" stop-color="#1a715c"/></radialGradient><clipPath id="c"><path d="m0 0h250v250h-250z"/></clipPath><g clip-path="url(#c)"><path d="m125 250c69.036 0 125-55.964 125-125 0-69.0356-55.964-125-125-125-69.0356 0-125 55.9644-125 125 0 69.036 55.9644 125 125 125z" fill="url(#b)"/><g filter="url(#a)"><path d="m116.871 65.3725c-1.303 1.31-2.26 2.903-2.811 4.6355l-35.3145 94.065h-14.2435v14.427h26.9759l10.3941-28.689 4.948-14.423 17.983-51.0696 33.166 94.1816h27.527v-14.427h-14.299l-35.311-94.068c-.551-1.731-1.508-3.3235-2.811-4.6325-2.149-2.1595-5.063-3.3725-8.101-3.3725-3.039 0-5.954 1.213-8.103 3.3725z" fill="#fff"/></g></g></svg>