<svg fill="none" height="250" viewBox="0 0 250 250" width="250" xmlns="http://www.w3.org/2000/svg" xmlns:xlink="http://www.w3.org/1999/xlink"><clipPath id="a"><path d="m0 0h250v250h-250z"/></clipPath><clipPath id="b"><path d="m0 0h250v250h-250z"/></clipPath><g clip-path="url(#a)"><g clip-path="url(#b)" fill="#00cdd7"><path d="m83.3501 41.6492 41.6999-41.6999812 41.7 41.6999812-41.7 41.7z" opacity=".73"/><path d="m83.3501 208.302 41.6999-41.7 41.7 41.7-41.7 41.7z" opacity=".43"/><path d="m47.2 176.301 56.95-15.25 15.25 56.95-56.95 15.25z" opacity=".48"/><path d="m130.5 32 57-15.25 15.25 56.95-56.95 15.25z" opacity=".18"/><path d="m16.7 187.501 15.25-56.95 56.9499 15.25-15.2499 56.95z" opacity=".53"/><path d="m161 104.098 15.25-56.9496 56.95 15.25-15.25 56.9496z" opacity=".23"/><path d="m0 125.001 41.7-41.7002 41.7 41.7002-41.7 41.7z" opacity=".58"/><path d="m166.6 124.899 41.7-41.6998 41.7 41.6998-41.7 41.7z" opacity=".28"/><path d="m16.6499 62.4492 56.95-15.25 15.25 56.9498-56.95 15.25z" opacity=".63"/><path d="m160.95 145.801 56.95-15.25 15.25 56.95-56.95 15.25z" opacity=".33"/><path d="m47.2 73.7 15.25-56.95 56.95 15.25-15.25 56.95z" opacity=".68"/><path d="m130.55 218.001 15.25-56.95 56.95 15.25-15.25 56.95z" opacity=".38"/></g></g></svg>