<svg width="250" height="250" viewBox="0 0 250 250" fill="none" xmlns="http://www.w3.org/2000/svg">
<g clip-path="url(#clip0_31_1004)">
<g clip-path="url(#clip1_31_1004)">
<path opacity="0.73" d="M83.3501 41.6492L125.05 -0.0507812L166.75 41.6492L125.05 83.3492L83.3501 41.6492Z" fill="#00CDD7"/>
<path opacity="0.43" d="M83.3501 208.302L125.05 166.602L166.75 208.302L125.05 250.002L83.3501 208.302Z" fill="#00CDD7"/>
<path opacity="0.48" d="M47.2 176.301L104.15 161.051L119.4 218.001L62.45 233.251L47.2 176.301Z" fill="#00CDD7"/>
<path opacity="0.18" d="M130.5 32L187.5 16.75L202.75 73.7L145.8 88.95L130.5 32Z" fill="#00CDD7"/>
<path opacity="0.53" d="M16.7 187.501L31.95 130.551L88.8999 145.801L73.65 202.751L16.7 187.501Z" fill="#00CDD7"/>
<path opacity="0.23" d="M161 104.098L176.25 47.1484L233.2 62.3984L217.95 119.348L161 104.098Z" fill="#00CDD7"/>
<path opacity="0.58" d="M0 125.001L41.7 83.3008L83.4 125.001L41.7 166.701L0 125.001Z" fill="#00CDD7"/>
<path opacity="0.28" d="M166.6 124.899L208.3 83.1992L250 124.899L208.3 166.599L166.6 124.899Z" fill="#00CDD7"/>
<path opacity="0.63" d="M16.6499 62.4492L73.5999 47.1992L88.8499 104.149L31.8999 119.399L16.6499 62.4492Z" fill="#00CDD7"/>
<path opacity="0.33" d="M160.95 145.801L217.9 130.551L233.15 187.501L176.2 202.751L160.95 145.801Z" fill="#00CDD7"/>
<path opacity="0.68" d="M47.2 73.7L62.45 16.75L119.4 32L104.15 88.95L47.2 73.7Z" fill="#00CDD7"/>
<path opacity="0.38" d="M130.55 218.001L145.8 161.051L202.75 176.301L187.5 233.251L130.55 218.001Z" fill="#00CDD7"/>
</g>
</g>
<defs>
<clipPath id="clip0_31_1004">
<rect width="250" height="250" fill="white"/>
</clipPath>
<clipPath id="clip1_31_1004">
<rect width="250" height="250" fill="white"/>
</clipPath>
</defs>
</svg>
