<svg fill="none" height="250" viewBox="0 0 250 250" width="250" xmlns="http://www.w3.org/2000/svg" xmlns:xlink="http://www.w3.org/1999/xlink"><clipPath id="a"><path d="m0 0h250v250h-250z"/></clipPath><g clip-path="url(#a)"><g fill="#f49e3a"><path d="m76.6799 9.56565c15.045-5.92422 31.1851-9.942667 47.4351-9.5375817 4.375 1.3212017 8.702 2.8318617 13.037 4.2939017 19.824 6.92513 37.598 19.21603 51.712 34.65783-2.7 2.9329-5.48 5.7747-8.28 8.6078-15.96-11.3424-35.482-17.7752-55.114-17.5845-3.614-.0498-7.226.3104-10.85.2094-11.423-.9709-23.1863-1.7611-34.3376 1.5119-.24 3.1024-.5 6.2047-.75 9.317-16.2925 8.7474-30.0325 22.1987-38.835 38.442-10.5087.0698-21.0287.0598-31.53749.0299.03125-.4001.09125-1.2202.125-1.6316l.375-.3502c4.86749-4.2378 8.12499-9.9177 12.61629-14.512 10.1475-10.6482 22.5-19.1948 35.9425-25.1702 5.4525-2.5788 11.7812-3.0624 16.935-6.3181 1.235-7.2528-.26-14.7388 1.5262-21.96555z"/><path d="m171.57 62.0721c7.875-3.6333 15.306-8.4171 23.868-10.369.191 7.7764-.01 15.5628.375 23.3392-16.663 16.6928-33.33 33.3797-50 50.0607 15.687 15.873 31.566 31.557 47.295 47.38-.75 8.217-.363 16.463-.653 24.691-7.809-2.273-14.815-6.446-21.931-10.27-.773 1.112-1.546 2.233-2.319 3.343-14.637-14.51-29.247-29.052-43.83-43.624-8.191 7.806-16 15.983-24.1 23.88-7.2162-7.006-14.4025-14.062-21.3275-21.359 7.9588-8.015 16.1088-15.853 23.8975-24.029-7.9383-7.926-15.8775-15.849-23.8175-23.77 6.825-7.4457 14.2325-14.3521 21.3385-21.5476 8.019 7.977 15.969 16.0339 23.989 24.0096 15.055-14.9719 30.094-29.9609 45.116-44.9669.704 1.0707 1.397 2.1513 2.099 3.232z"/><path d="m.658691 109.737c10.840009-.101 21.680009-.04 32.520009-.03-1.8363 10.008-3.0613 20.207-2.1575 30.385.4812 9.548 3.6837 18.685 7.875 27.202-2.0375 1.932-4.1117 3.83-6.2225 5.695-16.9588-16.624-27.98001-38.942-31.823759-62.271z"/><path d="m131.794 220.168c17.363-1.571 34.326-7.547 48.518-17.715 1.826 1.842 3.65 3.687 5.47 5.535-15.778 16.194-35.772 28.934-57.983 34.028-1.225-6.856-2.47-13.701-3.413-20.597 2.469-.42 4.928-.86 7.408-1.251z"/></g><g fill="#f27748"><path d="m124.116.0313891c27.521-.6543691 55.022 8.9567509 76.794 25.6213109 21.66 16.4939 37.678 40.1932 44.725 66.4453 7.447 27.152 5.308 56.787-5.963 82.588-11.954 27.702-34.366 50.701-61.757 63.472-23.488 10.99-50.487 14.662-75.982 9.619-31.3646-5.746-60.0508-24.221-78.5083-50.113-17.93627-24.881-26.23752-56.506-22.573773-86.941 3.843753 23.329 14.864973 45.648 31.827473 62.271 2.1075-1.871 4.1817-3.769 6.2225-5.695 10.2888 20.468 28 37.171 49.3125 45.779 13.7296 5.714 28.7666 7.836 43.5816 7.095-2.48.391-4.939.831-7.408 1.247.943 6.896 2.188 13.742 3.413 20.597 22.211-5.094 42.205-17.834 57.983-34.027-1.825-1.842-3.649-3.688-5.47-5.536-4.025-4.083-8.125-8.086-12.115-12.214.773-1.111 1.547-2.232 2.319-3.343 7.116 3.824 14.125 7.997 21.931 10.269.29-8.226-.091-16.474.653-24.69 2.94 2.901 5.884 5.8 8.832 8.696 11.984-16.142 18.589-36.18 18.518-56.266.071-19.986-6.474-39.9126-18.338-56.0263-2.107 2.0516-4.208 4.1032-6.302 6.1548-.383-7.7764-.181-15.5627-.375-23.3391-8.561 1.9518-15.989 6.7306-23.868 10.3689-.702-1.0819-1.395-2.1625-2.097-3.2332 3.724-3.7231 7.407-7.486 11.111-11.2489 2.8-2.8331 5.58-5.675 8.28-8.6078-14.111-15.4331-31.885-27.724-51.709-34.64911-4.335-1.4583-8.661-2.9727-13.037-4.2939009z"/><path d="m9.65259 77.5362c11.77371-30.5148 37.00001-55.1851 67.02751-67.96589-1.7863 7.22919-.2913 14.70769-1.5263 21.96809-5.1487 3.2531-11.4825 3.7393-16.9425 6.3156-13.4487 5.9753-25.795 14.522-35.9425 25.1701-4.4962 4.5943-7.7487 10.2668-12.61621 14.5121z"/><path d="m80.2825 31.7265c11.1513-3.2731 22.9155-2.4829 34.3375-1.5119-12.185 1.7213-24.17 5.0741-35.09 10.8288.2513-3.1123.5125-6.2146.7525-9.3169z"/><path d="m33.1787 109.71c9.285-.01 18.5587-.06 27.8437.03.02 10.119.02 20.234 0 30.345-10 .08-20 .06-30 .01-.905-10.178.32-20.377 2.1563-30.385z"/></g></g></svg>