<svg fill="none" height="250" viewBox="0 0 250 250" width="250" xmlns="http://www.w3.org/2000/svg" xmlns:xlink="http://www.w3.org/1999/xlink"><clipPath id="a"><path d="m0 0h250v250h-250z"/></clipPath><g clip-path="url(#a)"><path d="m98.6842 223.685c39.9738 0 72.3688-32.394 72.3688-72.368s-32.395-72.3684-72.3688-72.3684c-39.9737 0-72.3684 32.3944-72.3684 72.3684s32.3947 72.368 72.3684 72.368zm0 26.316c-54.5 0-98.6842-44.184-98.6842-98.684s44.1842-98.6842 98.6842-98.6842c54.4998 0 98.6838 44.1842 98.6838 98.6842s-44.184 98.684-98.6838 98.684z" fill="#fbcc5c"/><path d="m151.316 171.053c39.973 0 72.368-32.395 72.368-72.3688 0-39.9737-32.395-72.3684-72.368-72.3684-39.974 0-72.3686 32.3947-72.3686 72.3684 0 39.9738 32.3946 72.3688 72.3686 72.3688zm0 26.315c-54.5002 0-98.6844-44.184-98.6844-98.6838 0-54.5 44.1842-98.6842 98.6844-98.6842 54.5 0 98.684 44.1842 98.684 98.6842 0 54.4998-44.184 98.6838-98.684 98.6838z" fill="#35d07f"/><path d="m154.579 197.37c6.842-8.29 11.737-18 14.342-28.448 10.421-2.605 20.132-7.5 28.447-14.342-.368 12.079-2.973 23.974-7.684 35.132-11.131 4.684-23.026 7.289-35.105 7.658zm-73.5-116.2898c-10.4211 2.6052-20.1316 7.5-28.4474 14.3421.3684-12.079 2.9737-23.9737 7.6842-35.1053 11.1316-4.6842 23.0526-7.2895 35.1053-7.6842-6.8421 8.2895-11.7369 18-14.3421 28.4474z" fill="#5ea33b"/></g></svg>