<svg width="24" height="24" fill="none" xmlns="http://www.w3.org/2000/svg"><g clip-path="url(#a)"><path d="M12 24c6.627 0 12-5.373 12-12S18.627 0 12 0 0 5.373 0 12s5.373 12 12 12Z" fill="#fff"/><g clip-path="url(#b)"><path d="M12 24c6.627 0 12-5.373 12-12S18.627 0 12 0 0 5.373 0 12s5.373 12 12 12Z" fill="#003371"/><path d="M12.158 15.067c-.103.091-.21.177-.307.274-1.09 1.087-2.173 2.18-3.268 3.262-.648.64-1.535.807-2.32.463a2.07 2.07 0 0 1-1.254-1.968c.02-.551.235-1.022.627-1.412.976-.973 1.953-1.945 2.928-2.919.477-.477.478-.812.002-1.287-.983-.982-1.974-1.956-2.95-2.945-.561-.569-.748-1.262-.523-2.03.223-.766.746-1.262 1.524-1.44.76-.173 1.43.038 1.985.593l3.192 3.191c.106.105.217.205.358.337.602.611 1.172 1.193 1.75 1.787a.18.18 0 0 0 .06.05c0-.002-.003 0 .002.019.028.052.05.084.07.116-.001-.001.001-.005.004.022.388 1.062.138 1.928-.67 2.668-.421.386-.808.811-1.21 1.219Z" fill="#0AE23A"/><path d="M12.174 15.085a18.48 18.48 0 0 1 1.195-1.237c.807-.74 1.057-1.606.692-2.663.114.06.21.137.301.22.33.306.658.615.986.922l.004.016a.355.355 0 0 0 .055.063c1.067 1.075 2.134 2.152 3.204 3.225.542.544.778 1.19.625 1.945-.159.786-.646 1.322-1.404 1.558-.769.238-1.483.088-2.07-.489-1.194-1.176-2.381-2.36-3.588-3.56Z" fill="#0DB40B"/><path d="M15.353 12.3c-.333-.28-.661-.589-.99-.895a3.35 3.35 0 0 0-.305-.246c-.023-.006-.025-.002-.026-.021a.633.633 0 0 0-.073-.115s.002-.002-.008-.013a.215.215 0 0 0-.058-.05c-.57-.581-1.139-1.163-1.72-1.763.897-.924 1.805-1.83 2.716-2.732.112-.111.245-.202.389-.278-.002.1-.026.177-.049.253-.38 1.28.412 2.541 1.738 2.682.392.042.804-.102 1.207-.16-.098.124-.184.26-.295.371a219.84 219.84 0 0 1-2.164 2.155c-.224.22-.369.463-.362.812Z" fill="#04795B"/><path d="M18.19 8.946c-.42.074-.831.218-1.223.176-1.326-.14-2.118-1.401-1.738-2.682.023-.076.047-.153.073-.255.729-1.175 2.02-1.52 3.04-.837a2.063 2.063 0 0 1 .339 3.187c-.143.147-.315.264-.49.41Z" fill="#0AE23A"/></g></g><defs><clipPath id="a"><path fill="#fff" d="M0 0h24v24H0z"/></clipPath><clipPath id="b"><path fill="#fff" d="M0 0h24v24H0z"/></clipPath></defs></svg>