<svg fill="none" height="250" viewBox="0 0 250 250" width="250" xmlns="http://www.w3.org/2000/svg"><path d="m123.473 250c68.192 0 123.473-55.964 123.473-125 0-69.0356-55.281-125-123.473-125-68.1922 0-123.473 55.9644-123.473 125 0 69.036 55.2808 125 123.473 125z" fill="#29355a"/><path clip-rule="evenodd" d="m181.62 65.1122-6.408 38.4348-22.78-26.8245zm-6.269 54.9648 5.702 21.065-43.603 12.015zm-94.919-10.586 23.378-30.5576h40.597l25.949 30.5576zm86.919 7.55-42.271 36.891-43.0536-36.891zm-71.3696-40.2964-20.8895 27.3044-6.4151-38.7887zm16.5796 76.4004-44.019-11.993 6.0317-20.555zm8.127 10.04-8.31 9.147c-7.041-6.691-14.7834-12.633-23.0482-17.691zm40.305-8.683c-8.264 5.14-15.988 11.159-22.985 17.914l-8.486-9.243zm30.273-101.3528-45.836 18.2341h-42.722l-43.708-18.3833 9.9287 60.03-9.5342 32.494 24.8748 14.878c11.7773 7.045 22.3267 15.86 31.3557 26.198l9.685 11.091 10.165-11.664c8.723-10.008 18.88-18.6 30.19-25.536l24.394-14.967-8.785-32.449z" fill="#fffffe" fill-rule="evenodd"/></svg>