<svg fill="none" height="250" viewBox="0 0 250 250" width="250" xmlns="http://www.w3.org/2000/svg" xmlns:xlink="http://www.w3.org/1999/xlink"><clipPath id="a"><path d="m0 0h250v250h-250z"/></clipPath><g clip-path="url(#a)"><path d="m125 250c69.036 0 125-55.964 125-125 0-69.0356-55.964-125-125-125-69.0356 0-125 55.9644-125 125 0 69.036 55.9644 125 125 125z" fill="#5f2652"/><path d="m196.075 157.376-65.4-117.2997c-1.131-2.0948-3.32-3.4005-5.7-3.4005-2.381 0-4.569 1.3057-5.7 3.4005l-65.375 117.2997c-1.7 3.025-.725 6.95 2.325 8.75l65.475 39.15c2.108 1.2 4.692 1.2 6.8 0l65.375-39.075c2.9-1.875 3.975-5.8 2.2-8.825zm-49.425-47.275-1.6-1.35-.1-.1c-.509-.416-1.043-.8-1.6-1.15l-.1-.1c-.525-.35-1.075-.725-1.7-1.075-.1 0-.1-.1-.175-.1-.525-.35-1.15-.625-1.7-.9-.1 0-.1-.1-.175-.1-.525-.275-1.15-.525-1.775-.8-.1 0-.1-.1-.175-.1-.525-.175-1.075-.45-1.6-.625-1.445-.541-2.934-.959-4.45-1.25-1.15 2.225-2.775 4.2-4.55 5.875 2.775.175 5.45.9 7.85 1.875 1.419.611 2.79 1.33 4.1 2.15.07.008.133.044.175.1.35.175.625.45.975.725.167.093.319.211.45.35.324.211.625.454.9.725.175.175.35.275.525.45.275.275.525.45.8.725l.525.525.725.725.525.525c.189.258.398.5.625.725.175.2.35.45.525.625l.525.8c.175.275.35.45.45.725l.525.8c.175.275.275.525.45.725.175.275.275.525.45.8s.275.525.45.8c.1.275.275.525.35.8.175.35.275.725.45.975.751 1.827 1.263 3.743 1.525 5.7l.8 3.125c.35 1.35 3.575 12.75 11.05 16.6 8.575 4.45 19.9 10 24.35 12.125l-58.75 35.15v-24.075c0-3.825 7.575-8.3 11.05-9.8l.175-.1c.725-.35 1.425-.725 2.15-1.15l.275-.175c1.522-.902 2.954-1.948 4.275-3.125.1-.1.275-.175.35-.35.175-.1.275-.275.45-.35.45-.35.8-.8 1.25-1.15l.175-.175c.462-.432.881-.91 1.25-1.425.1-.175.275-.275.35-.45.35-.35.625-.8.975-1.25.1-.1.175-.275.275-.35l1.075-1.6c0-.1.1-.1.1-.175.45-.725.9-1.525 1.35-2.225-1.775-2.15-3.125-4.45-4.2-6.6-.455 1.322-1.024 2.602-1.7 3.825-.275.525-.625 1.075-.9 1.6-.1.1-.1.175-.175.175-.276.434-.577.851-.9 1.25-.1.1-.175.275-.275.35-.277.422-.605.808-.975 1.15-.1.1-.1.175-.175.175-2.15 2.4-4.725 4.45-7.675 5.875l-.525.275c-1.525.625-14.625 6.6-14.625 15.6v24.075l-58.875-35.05c3.825-2.325 14.9-8.925 24-11.775 3.575-1.15 11.15 3.65 15.425 7.125l.275.275c.551.554 1.144 1.064 1.775 1.525l.175.175c1.35 1.075 2.775 2.15 4.375 2.95l1.075.525c.07.008.133.044.175.1.975.525 1.95.975 3.025 1.425.146.069.296.128.45.175.1 0 .175.1.35.1 1.525.525 3.025.975 4.55 1.35 1.15-2.225 2.85-4.2 4.65-5.875-2.507-.17-4.975-.709-7.325-1.6-.1-.1-.275-.1-.35-.175-.28-.084-.548-.202-.8-.35-.1-.1-.275-.1-.35-.175-.275-.1-.525-.275-.725-.35-1.775-.9-3.4-1.875-4.9-3.125l-2.325-2.15c-2.149-1.888-4.476-3.563-6.95-5-5.8-3.3-10.7-4.375-14.45-3.2-7.75 2.5-16.6 7.225-21.95 10.35l58.775-105.5997v46.3c0 1.6-2.4 5.8747-10.525 9.5497l-.525.275c-.8.35-1.525.8-2.325 1.25l-.175.1c-1.538.926-3.001 1.971-4.375 3.125-.866.704-1.669 1.482-2.4 2.325l-.1.1c-.79.767-1.5098 1.604-2.15 2.5l-.1.1c-.35.45-.625.9-.975 1.35 0 .1-.1.1-.1.175-.275.45-.525.8-.8 1.25 0 .1-.1.1-.1.175l-.8 1.35c-.1.1-.1.175-.175.35-.275.45-.45.9-.625 1.25-.0073.07-.0436.134-.1.175-.175.45-.35.8-.525 1.25-.0691.146-.1276.296-.175.45l-.525 1.35c-.0691.146-.1276.296-.175.45-.0832.336-.2004.663-.35.975-.1.175-.1.35-.175.525-.1.45-.275.9-.35 1.25-.1.175-.1.45-.175.625-.1.275-.1.625-.175.9-.1.275-.1.525-.175.8-.1.35-.1.725-.175 1.075 0 .275-.1.45-.1.725 0 .35-.1.625-.1.975.0163.328-.0174.657-.1.975v1.35c-.0106 1.615.1064 3.229.35 4.825 2.325.525 4.725 1.525 7.325 2.775-.725-2.325-1.075-4.725-1.15-7.225v-.45c-.0166-.593.0169-1.187.1-1.775v-.45c0-.525.1-.975.175-1.525v-.175c.1-.525.175-1.075.275-1.7 0-.175.1-.275.1-.45.1-.45.275-.9.35-1.35 0-.1.1-.175.1-.275l.525-1.6c.1-.1.1-.275.175-.35.175-.45.35-.9.525-1.25.1-.1.1-.175.175-.35.275-.525.45-.975.8-1.425.067-.086.126-.178.175-.275.275-.45.45-.8.725-1.25.067-.086.126-.178.175-.275.3-.467.626-.918.975-1.35-.001-.026.01-.052.028-.071.019-.019.045-.029.072-.029.35-.45.625-.8.975-1.25.067-.086.126-.178.175-.275 1.609-1.777 3.441-3.34 5.45-4.65l2.775-1.35c1.525-.625 14.55-6.775 14.55-15.7997v-46.125l59.325 106.4997c-5.275-2.575-14.625-7.225-21.85-10.975-4.2-2.15-6.95-9.725-7.75-12.5l-.8-3.2c0-1.7-.45-3.4-.975-5.075-1.884-5.297-5.094-10.022-9.325-13.725z" fill="#fff"/></g></svg>