<svg fill="none" height="250" viewBox="0 0 250 250" width="250" xmlns="http://www.w3.org/2000/svg" xmlns:xlink="http://www.w3.org/1999/xlink"><clipPath id="a"><path d="m0 0h250v250h-250z"/></clipPath><g clip-path="url(#a)"><path d="m60.4 77.9484c-1.75-2-3.9-3-6.45-3h-52.40005c-.45 0-.849999-.15-1.149999-.45-.2999998-.3-.4499998-.6-.4499998-.95v-35.25c0-.35.15-.65.4499998-.95.3-.3.649999-.45 1.149999-.45h55.35005c13.95 0 26 5.7 36.15 17.1l13.45 16.4-26.2 31.8996zm96.7-24.15c10.15-11.3 22.25-16.9 36.3-16.9h55.15c.45 0 .8.1 1.05.35s.35.6.35 1.05v35.25c0 .35-.1.7-.35.95-.25.3-.6.45-1.05.45h-52.3c-2.55 0-4.7 1-6.45 3l-38.6 46.8996 38.75 47.25c1.75 1.9 3.85 2.8 6.3 2.8h52.35c.45 0 .8.15 1.05.45s.35.7.35 1.15v35.25c0 .35-.1.7-.35.95-.25.3-.6.45-1.05.45h-55.15c-14.1 0-26.15-5.7-36.15-17.1l-32.1-39.1-32.15 39.05c-10.15 11.4-22.25 17.1-36.3 17.1h-55.20005c-.45 0-.799999-.15-1.049999-.45s-.35-.65-.35-1.15v-35.25c0-.35.1-.65.35-.95s.599999-.45 1.049999-.45h52.35005c2.45 0 4.6-1 6.45-3l37.9-46.15z" fill="#00d1ff"/></g></svg>