<svg width="24" height="24" viewBox="0 0 24 24" fill="none" xmlns="http://www.w3.org/2000/svg">
<g clip-path="url(#clip0_524_3367)">
<path d="M12 24C18.6274 24 24 18.6274 24 12C24 5.37258 18.6274 0 12 0C5.37258 0 0 5.37258 0 12C0 18.6274 5.37258 24 12 24Z" fill="white"/>
<path d="M12.0057 14.1018L17.2786 11.0898L17.4226 11.3107C19.0467 13.802 18.684 17.0648 16.5506 19.1551C14.0402 21.615 9.96987 21.615 7.4594 19.1551C5.32601 17.0648 4.9633 13.802 6.58738 11.3107L6.73141 11.0898L12.0057 14.1018Z" fill="url(#paint0_radial_524_3367)"/>
<path opacity="0.6" d="M11.9989 7.37386L16.5443 9.97289L11.9989 12.5687L7.45686 9.97293L11.9989 7.37386Z" fill="url(#paint1_radial_524_3367)"/>
<g clip-path="url(#paint2_diamond_524_3367_clip_path)" data-figma-skip-parse="true"><g transform="matrix(8.42791e-06 0.00301802 0.00569062 -1.58912e-05 12.0023 11.0781)"><rect x="0" y="0" width="1339.85" height="1104.2" fill="url(#paint2_diamond_524_3367)" opacity="1" shape-rendering="crispEdges"/><rect x="0" y="0" width="1339.85" height="1104.2" transform="scale(1 -1)" fill="url(#paint2_diamond_524_3367)" opacity="1" shape-rendering="crispEdges"/><rect x="0" y="0" width="1339.85" height="1104.2" transform="scale(-1 1)" fill="url(#paint2_diamond_524_3367)" opacity="1" shape-rendering="crispEdges"/><rect x="0" y="0" width="1339.85" height="1104.2" transform="scale(-1)" fill="url(#paint2_diamond_524_3367)" opacity="1" shape-rendering="crispEdges"/></g></g><path d="M11.993 8.05188L17.2747 11.091L12.0048 14.1043L6.72994 11.09L11.993 8.05188Z" data-figma-gradient-fill="{&#34;type&#34;:&#34;GRADIENT_DIAMOND&#34;,&#34;stops&#34;:[{&#34;color&#34;:{&#34;r&#34;:0.33725491166114807,&#34;g&#34;:0.94901961088180542,&#34;b&#34;:1.0,&#34;a&#34;:1.0},&#34;position&#34;:0.0},{&#34;color&#34;:{&#34;r&#34;:0.33725491166114807,&#34;g&#34;:0.60000002384185791,&#34;b&#34;:0.92549020051956177,&#34;a&#34;:1.0},&#34;position&#34;:1.0}],&#34;stopsVar&#34;:[],&#34;transform&#34;:{&#34;m00&#34;:0.016855822876095772,&#34;m01&#34;:11.381230354309082,&#34;m02&#34;:6.3032774925231934,&#34;m10&#34;:6.0360307693481445,&#34;m11&#34;:-0.031782470643520355,&#34;m12&#34;:8.0759735107421875},&#34;opacity&#34;:1.0,&#34;blendMode&#34;:&#34;NORMAL&#34;,&#34;visible&#34;:true}"/>
<path d="M11.9989 3.00343L16.5443 9.97293L11.9989 12.5687V3.00343Z" fill="url(#paint3_linear_524_3367)"/>
<path d="M11.9993 12.5691L7.45349 9.97296L11.999 3L11.9993 12.5691Z" fill="url(#paint4_linear_524_3367)"/>
</g>
<defs>
<clipPath id="paint2_diamond_524_3367_clip_path"><path d="M11.993 8.05188L17.2747 11.091L12.0048 14.1043L6.72994 11.09L11.993 8.05188Z"/></clipPath><radialGradient id="paint0_radial_524_3367" cx="0" cy="0" r="1" gradientUnits="userSpaceOnUse" gradientTransform="translate(12.0108 21.0045) rotate(-90) scale(8.55654 11.1829)">
<stop offset="0.203695" stop-color="#56F2FF"/>
<stop offset="1" stop-color="#4A8CEA"/>
</radialGradient>
<radialGradient id="paint1_radial_524_3367" cx="0" cy="0" r="1" gradientUnits="userSpaceOnUse" gradientTransform="translate(12.0006 9.97124) rotate(89.8393) scale(2.59037 4.90416)">
<stop stop-color="#EEFF83"/>
<stop offset="0.689596" stop-color="#5699EC"/>
</radialGradient>
<linearGradient id="paint2_diamond_524_3367" x1="0" y1="0" x2="500" y2="500" gradientUnits="userSpaceOnUse">
<stop stop-color="#56F2FF"/>
<stop offset="1" stop-color="#5699EC"/>
</linearGradient>
<linearGradient id="paint3_linear_524_3367" x1="14.2716" y1="3.00343" x2="14.2716" y2="12.5687" gradientUnits="userSpaceOnUse">
<stop offset="0.377179" stop-color="#FFE336"/>
<stop offset="1" stop-color="#13C0B6" stop-opacity="0.7"/>
</linearGradient>
<linearGradient id="paint4_linear_524_3367" x1="9.72637" y1="3" x2="9.72637" y2="12.5691" gradientUnits="userSpaceOnUse">
<stop offset="0.408817" stop-color="#FF7F72"/>
<stop offset="1" stop-color="#2978EF" stop-opacity="0.7"/>
</linearGradient>
<clipPath id="clip0_524_3367">
<rect width="24" height="24" fill="white"/>
</clipPath>
</defs>
</svg>
