<svg fill="none" height="250" viewBox="0 0 250 250" width="250" xmlns="http://www.w3.org/2000/svg" xmlns:xlink="http://www.w3.org/1999/xlink"><linearGradient id="a" gradientUnits="userSpaceOnUse" x1="125" x2="125" y1="197.879" y2="30.6471"><stop offset="0" stop-color="#1d2787"/><stop offset=".28" stop-color="#00609b"/><stop offset=".5" stop-color="#2198d5"/><stop offset=".58" stop-color="#1fa8db"/><stop offset=".71" stop-color="#21b8df"/><stop offset="1" stop-color="#d2ecf8"/></linearGradient><clipPath id="b"><path d="m0 0h250v250h-250z"/></clipPath><clipPath id="c"><path d="m0 0h250v250h-250z"/></clipPath><clipPath id="d"><path d="m0 0h250v250h-250z"/></clipPath><clipPath id="e"><path d="m41.6665 52.0833h166.667v145.833h-166.667z"/></clipPath><mask id="f" height="146" maskUnits="userSpaceOnUse" width="168" x="41" y="52"><path d="m137.394 192.725-.001-13.656 6.042 6.118zm-6.3-14.798-.038-4.368 3.845 3.1v2.621zm-40.9507-18.484h-20.5607l2.1602 3.836h40.8972l-.72-3.836zm-14.8446 7.659c1.0343 0 1.8734.858 1.8734 1.922s-.8391 1.922-1.8734 1.922c-1.0344 0-1.8735-.863-1.8735-1.922s.8391-1.922 1.8735-1.922zm-9.5177-15.378c1.0343 0 1.8734.859 1.8734 1.922s-.8391 1.923-1.8734 1.923c-1.0344 0-1.8735-.861-1.8735-1.923s.8391-1.922 1.8735-1.922zm-7.1721-68.378 11.988 8.2315-.2804-6.5704zm29.5736 17.208-.6127 2.674 1.5502 1.065-.9382-3.739zm-17.5413-7.9478-7.0709-.6557 7.1187 9.8795.3573.295-.4051-9.5181zm-7.6836-1.5097 6.427.5975-11.8647-8.1448zm24.4163 3.0649.7733 3.0806.6758-2.9484-1.4484-.1322zm-15.0468-1.3989 14.558 9.9965.8827-3.8602-1.2067-4.8148-14.2333-1.3222zm39.9799.7304-.824 2.1158 6.361.5882zm-7.973 1.4508 2.715-4.0199-13.4426-6.5739-1.7053-.0341-2.1241 9.2758 14.556 1.3521zm-9.1262 13.5263 8.6232-12.7782-14.2319-1.3243-1.0358 4.5278 1.519 6.0567zm9.5042-12.6979-8.8638 13.1359 7.5858 5.212 6.947-17.8208zm3.042-4.5058-2.537 3.7612 5.462.5051.929-2.3814zm-12.9865 17.8537-4.3978-3.018 1.7454 6.953zm-37.67-18.5649 4.8319.4497-5.7651-8.0027-2.1075-.2962 1.9136 6.9128 1.1271.9371zm-2.1691-1.7996-1.7066-6.1697-6.9117-.979zm13.3748 11.0932-5.761-7.9942-4.3681-.407 10.1284 8.4012zm16.1739 13.4153 2.2169-9.685-15.26-10.474.4112 9.686zm7.0696.699-2.1387-8.52-2.0265-1.392-2.1795 9.515zm11.3053.706-7.4448-5.107-3.0062 4.454zm15.247-17.6508-6.917-.6415-6.774 17.3743zm-2.483-12.0204-3.024 7.7562 6.426 3.1417 4.368-5.3406c-.044-.0497-.083-.108-.119-.1662-.141-.2409-.195-.5116-.172-.7702l-7.478-4.6202zm-3.451-.2707-3.967 5.8806 3.697 1.8081 2.977-7.6339zm-16.6844-.3396 12.0124 5.8749 3.747-5.5537zm-9.6707 5.1317.3738-.098.9846 3.9296 1.8298.1662 1.9891-8.6833-5.1766 4.6848zm-14.7304-4.7125.3019 7.0756 14.9733 1.3889-.8827-3.5111c-.1466.0722-.3059.1134-.4684.1212-.1624.0078-.3248-.0179-.4773-.0757zm-13.9709-9.6915-4.4532 2.5286 1.1708 4.2294 15.125 2.1413-12.1036-4.5015c-.6411-.2401-.9679-.9705-.7339-1.6262l.9949-2.7723zm2.0701-10.6435-1.2053 8.2351 4.3569-12.1377-3.1523 3.9033zm-7.8713 9.7434.3704-.1045.7609 2.7474 4.5197-2.5619 1.2656-8.6443zm.4383 3.0386-.7387-2.6685-4.6048 5.7029 5.3435-3.0336zm-4.8167 3.6398 6.0608.8603-1.0281-3.7185zm144.695 2.7296-11.988 8.2251.28-6.5676zm-29.571 17.2009.612 2.674-1.552 1.066zm17.539-7.9435 7.071-.6558-6.278 8.7113-1.177.973zm7.686-1.5098-6.428.5975 11.865-8.1448zm-24.418 3.065-.773 3.0806-.676-2.9449zm15.049-1.3989-14.558 9.9932-.884-3.8562 1.208-4.8149 14.233-1.3221zm-39.98.7268.824 2.1193-6.363.5918zm7.972 1.4543-2.716-4.0227 14.036-6.8602 1.051-.0213 2.185 9.5493-14.556 1.3556zm9.127 13.5231-8.623-12.7785 14.23-1.3243 1.037 4.5278-1.519 6.057zm-9.505-12.6954 8.865 13.1354-7.588 5.209-6.946-17.8172zm-3.041-4.5058 2.537 3.7577-5.464.5087-.927-2.3815zm12.986 17.8542 4.397-3.018-1.744 6.949zm37.032-18.5078-4.195.3886 5.765-7.9991 2.108-.2999-1.744 6.309-1.933 1.6021zm2.975-2.4668 1.538-5.5608 6.231-.8845zm-12.704 10.5384 4.92-6.8326 3.731-.3452-8.652 7.1778zm-17.105 14.1852-2.127-9.291 15.261-10.4756-.391 9.1966-12.744 10.57zm-6.906.801 2.065-8.228 2.028-1.391 2.115 9.228-6.208.392zm-10.917.681 6.983-4.793 2.822 4.183zm-15.719-17.334 6.929-.6429 6.783 17.4039zm5.759-12.5639 4.153 6.1541-3.697 1.8053-3.03-7.7682-.716.292 3.048 7.8187-6.433 3.1452-4.596-5.6184c.044-.0497.082-.108.118-.1662.142-.2409.196-.5116.173-.7702l7.812-4.8297 3.167-.0611zm17.463-.3516-12.604 6.1611-3.934-5.8279zm23.823.3389-.318 7.4435-14.972 1.389.917-3.6532-.745-.194-.986 3.9253-1.83.1691-2.005-8.7607 4.958 4.488c.329.3296.824.4596 1.285.2863l13.697-5.0919zm13.782-9.4223 4.627 2.6273-1.17 4.2259-16.694 2.3659 13.435-4.9968c.639-.2401.97-.9705.734-1.6262l-.932-2.5968zm-1.893-10.5227 1.297 8.8617-4.689-13.0613zm7.847 9.7192-.351-.1051-.759 2.7544-4.521-2.569-1.261-8.6187 6.892 8.5391zm-.417 3.0394.734-2.6522 4.579 5.6681zm4.817 3.639-6.063.8625 1.029-3.7186zm-91.011 47.589 1.678-4.944-8.295 2.147.034.182zm13.378 6.164-3.901 1.497 3.79 9.199 14.845-4.843zm-4.201.767 3.12-1.198-4.321-1.717zm-6.254-13.144-.046.141.095-.024-.048-.117zm2.14-8.705.002-.04-6.075-2.825 3.862 9.373zm-.432 8.391.287-5.557-1.617 4.762.425 1.028zm-.421 8.2.217-4.235-1.153-2.795-.702.179-1.856 5.465 3.493 1.386zm-.377 7.31.333-6.478-3.701-1.472-3.609 10.627zm-.989 19.172.372-7.214-6.135 2.002h1.143l.322 1.719zm1.157-7.444-.416 8.07 19.528 15.871.241-1.285-10.523-25.537zm.921-17.904-.302 5.872 3.832-1.47-1.478-3.59zm.191-3.703-.147 2.871 1.591.628zm.706-13.71-.405 7.876 11.139-2.883zm.153-2.994 2.894-8.522-2.382-1.407zm-1.928 37.471 8.484-2.77-3.774-9.161-4.179 1.602zm.544-25.568-.558.144.49 1.19.069-1.334zm4.958-20.02-3.512 10.341 11.719 5.453 12.853-3.327zm-3.162-2.785 2.741 1.621 2.883-8.4937zm-7.876 9.624 6.6 3.074.612-11.887zm-2.452 30.49 3.689-10.861-6.158-2.449zm22.469 30.321-14.99-12.18-.768 14.928 3.08-2.483c.253-.203.562-.289.86-.284h5.998zm10.629-29.427-15.587 5.086 10.048 24.381 5.539-29.468zm-16.161-48.3815-3.19 9.3985 21.096 12.485-17.906-21.8842zm-42.4383 25.1235-2.095 1.839 13.6946 6.174-8.6308-8.137-2.9688.123zm1.6062-1.407-.6591.576 1.2172-.049zm-4.4864 2.893 1.6333-1.433-4.3092.178-.0616.022 2.7375 1.232zm12.9892 6.726-12.8569-5.799-3.1052 2.724 6.8743.055c.144 0 .2839.031.414.078l7.8817 2.959.7928-.017zm5.3885 2.397.0478.047-.1004-.047-6.5531.155-3.2748-1.23 8.8648 9.442 8.3485 2.528-2.046-11.018-5.2861.123zm1.2788-2.559-1.2684-8.69-11.4466.475 8.8136 8.305 3.9007-.09zm14.778-3.515-9.128-5.153-4.161 8.634 2.029-.05-.259-.104 11.39-2.948zm-9.042-6.01 9.298 5.252.11-.32-4.503-10.927-4.906 5.995zm-6.2802.448 1.2852 8.809 4.114-8.535c-.14.037-.287.052-.431.037zm-13.9785-.845 1.0025.949 8.7804-.366-9.7836-.583zm-4.7744 1.189 2.221-.096 1.0074-.883zm-4.5086 5.792 3.497-3.065-3.2346-1.46-14.5878 4.411zm74.9577 42.953 1.06-9.411-4.081 3.023zm2.767-17.457-.716 6.355 9.835-7.282v-.006l-9.119.932zm-7.396 9.482-1.194 2.686 1.825-1.352-.632-1.334zm4.063-9.143-3.647 8.206.851 1.802 4.542-3.363.777-6.904-2.523.26zm3.343-7.523-2.972 6.691 2.243-.231.73-6.46zm-7.427 14.808 3.197-7.192-6.292.643zm-5.364 12.076 2.286-5.145-3.159 2.338.874 2.807zm21.786-19.586-9.863 7.304-1.217 10.795 10.816-15.054.264-3.044zm2.686-2.111.216-.024-.23.169-.516 5.947-12.195 16.973-.364 8.462-5.362 6.877.011.012-10.33 12.892-11.468-6.733-11.468 6.733-10.329-12.892.012-.012-5.3636-6.877-.3095-7.183h-18.6927c-.6715 1.309-1.6713 2.199-3.5503 2.199s-4.0136-1.843-4.0136-4.115c0-2.273 2.1352-4.121 4.0136-4.121 1.8783 0 2.8788.892 3.5503 2.2h34.5438l.946 5.035.731-14.215-4.018-3.265.177.935h-41.8898c-.6737 1.331-1.6748 2.235-3.5559 2.235s-4.0184-1.875-4.0184-4.189 2.1373-4.192 4.0184-4.192 2.8815.907 3.5559 2.238h38.1328l-.187-.15 8.237-2.689.527-10.256-7.474 2.87 1.201 6.389h-46.679l-2.1567-3.837h23.6014l-.5407-6.223-31.2851-12.419c-.3649-.13-.6653-.432-.7823-.842-.1925-.672.1834-1.376.8363-1.572l25.1184-7.592-11.2528-1.138c-8.3206-7.352-16.6447-14.6917-24.966-22.0343l1.0274-11.0769.0374-.3943 23.1445-28.6532 1.8237.6877-8.8829 24.7414 25.8377 9.6112 5.6164-5.087c.2416-.2224.5435-.3268.8412-.3197l24.5501.4987c.224.0036.433.0675.613.1791l8.725 5.391 8.725-5.391c.18-.1109.389-.1755.614-.1791l24.549-.4987c.299-.0064.599.098.841.3197l5.616 5.087 25.838-9.6112-8.883-24.7414 1.825-.6877 1.017 1.2611 21.109 26.131 1.017 1.2611.037.3943 1.029 11.0769c-8.323 7.3426-16.647 14.6823-24.966 22.0313l-11.253 1.137 25.118 7.593c.654.197 1.029.9.837 1.571-.117.41-.418.712-.783.842l-31.285 12.42-.764 8.807zm-22.715 2.33 7.173-.736 3.948-8.881-9.842 2.986-.14.748-.033-.007-1.107 5.891zm-2.978 15.843 4.152-3.074 2.018-4.544-3.39-7.171zm-1.816 10.357 2.563-5.763-1.004-3.22-1.647 8.765.089.219zm4.503.462-3.689 1.062 5.874 5.949-2.185-7.012zm7.631-2.199-6.888 1.987 2.324 7.451 4.402-5.649zm-7.123 1.232 7.037-2.031.106.382.18-4.205.69-.96-3.629-7.675-2.812 2.08-3.197 7.199 1.624 5.21zm-4.618 1.328 3.874-1.116-1.357-4.353-2.355 5.302-.351-.164.293.712-.104-.382zm29.392-45.65-.149.906 11.834-1.364.848-.336-4.577-1.633-7.956 2.428zm.757-4.606-.614 3.738 6.565-2.004-4.891-1.745-1.06.01zm-1.702 5.601.122-.742-3.821 1.17 3.7-.428zm-2.993 5.636-9.001 2.345-.959 8.514 9.099-.93zm12.796-5.966-9.139 1.051-.452 2.757 9.591-3.807zm6.63-5.365-6.267 1.914 4.424 1.576 8.937-3.548zm-11.376.084 3.86 1.377 4.733-1.448zm-10.261 5.656 5.468-1.669.655-3.987-.817.006zm-5.252 1.957.446-.477 4.976-5.295-3.274 1.229-11.893-.278-2.045 11.019 8.347-2.529zm-1.383 5.124 8.919-2.324.008-.085 2.286-.906.492-2.997-6.478.744zm11.342-22.214-4.065 6.026 9.566.893 4.09-.034-7.014-6.105zm-10.063 6.269 2.22 3.591.352-.136 2.04-3.025zm-5.442-5.49-2.249 3.98 6.199.58-2.863-4.627-1.087.068zm-6.099 4.417-.08 4.091-.005.27-.002.136.249.006 2.407-4.264-2.57-.24zm-13.218-2.027 12.471 1.161.087-4.464-12.629 3.272zm12.382 5.76.074-3.807-10.323-.961zm-.04 2.046.024-1.183-12.57-5.847-1.102-.105.035-.394-12.311 3.191-.163 3.197 2.349 5.705 5.826 2.314 17.913-6.878zm.154 1.879-.171-1.028-16.816 6.457 14.882 5.914 2.106-11.343zm13.653-2.858-2.361-3.817-7.146-.665-2.375 4.205zm8.04-2.846-3.935-.367-1.666 2.471 5.602-2.104zm5.035-5.775 6.369 5.545 11.661-.093-18.03-5.451zm-17.94-.718 2.954 4.771 5.638.527 4.094-6.076-3.545.358.203-.166-9.344.585zm-7.963-.432-.081 4.177 2.979.278 2.172-3.844-3.691.231c-.199.018-.399-.012-.583-.09-.185-.078-.348-.201-.476-.358zm-25.7 61.496-3.84 1.364v-2.642l3.877-3.126z" fill="#fff"/></mask><g clip-path="url(#b)"><g clip-path="url(#c)"><g clip-path="url(#d)"><path d="m125 250c69.036 0 125-55.964 125-125 0-69.0365-55.964-125-125-125-69.0366 0-125.00012207 55.9635-125.00012207 125 0 69.036 55.96352207 125 125.00012207 125z" fill="#0b181e"/></g></g><g clip-path="url(#e)"><g mask="url(#f)"><path d="m41.7111 52.1622h166.5789v145.7168h-166.5789z" fill="url(#a)"/></g></g></g></svg>