<svg fill="none" height="250" viewBox="0 0 251 250" width="251" xmlns="http://www.w3.org/2000/svg" xmlns:xlink="http://www.w3.org/1999/xlink"><radialGradient id="a" cx="0" cy="0" gradientTransform="matrix(0 140.417 -140.417 0 125.212 138.059)" gradientUnits="userSpaceOnUse" r="1"><stop offset=".1667" stop-color="#073183"/><stop offset="1" stop-color="#0054f9"/></radialGradient><linearGradient id="b"><stop offset=".2057" stop-color="#89d0ff"/><stop offset=".3984" stop-color="#ebbf9a"/><stop offset=".6015" stop-color="#eb8280"/><stop offset=".8411" stop-color="#a281ff"/></linearGradient><linearGradient id="c" gradientUnits="userSpaceOnUse" x1="-17.3018" x2="269.104" xlink:href="#b" y1="-28.1047" y2="272.495"/><linearGradient id="d" gradientUnits="userSpaceOnUse" x1="-6.19741" x2="257.837" y1="-15.1707" y2="263.083"><stop offset=".2057" stop-color="#89d0ff"/><stop offset=".3984" stop-color="#ebbf9a"/><stop offset=".6015" stop-color="#eb80da"/><stop offset=".8411" stop-color="#a281ff"/></linearGradient><linearGradient id="e" gradientUnits="userSpaceOnUse" x1="5.0236" x2="246.683" xlink:href="#b" y1="-3.98765" y2="251.914"/><linearGradient id="f" gradientUnits="userSpaceOnUse" x1="16.2274" x2="235.461" y1="7.23428" y2="240.715"><stop offset=".2057" stop-color="#89d0ff"/><stop offset=".3984" stop-color="#ebbf9a"/><stop offset=".6015" stop-color="#eb80e7"/><stop offset=".8411" stop-color="#a281ff"/></linearGradient><linearGradient id="g" gradientUnits="userSpaceOnUse" x1="27.3579" x2="224.208" y1="18.4777" y2="229.521"><stop offset=".2057" stop-color="#89d0ff"/><stop offset=".3984" stop-color="#ebbf9a"/><stop offset=".6015" stop-color="#eb80d3"/><stop offset=".8411" stop-color="#a281ff"/></linearGradient><linearGradient id="h" gradientUnits="userSpaceOnUse" x1="38.6421" x2="213.09" y1="29.5858" y2="218.276"><stop offset=".2057" stop-color="#89d0ff"/><stop offset=".3984" stop-color="#ebbf9a"/><stop offset=".6015" stop-color="#a280eb"/><stop offset=".8411" stop-color="#a281ff"/></linearGradient><clipPath id="i"><path d="m.207031 0h250v250h-250z"/></clipPath><mask id="j" height="250" maskUnits="userSpaceOnUse" width="251" x="0" y="0"><path d="m250.207 125c0-69.1002-56.034-125-125-125-69.1002 0-124.999969 55.8998-124.999969 125 0 68.966 55.899769 125 124.999969 125 68.966 0 125-56.034 125-125z" fill="#fff"/></mask><g clip-path="url(#i)"><path d="m250.207 125c0-69.1002-56.034-125-125-125-69.1002 0-124.999969 55.8998-124.999969 125 0 68.966 55.899769 125 124.999969 125 68.966 0 125-56.034 125-125z" fill="url(#a)"/><g fill="#fff"><path d="m210.203 85.9374c-.539 3.0981-1.077 4.5798-1.886 6.1962-.808 1.8858-1.616 3.9062-2.424 8.2164-.269 1.617-.539 2.964-.674 4.041v.135c-.269 1.751-.404 2.963-1.077 4.984-.539 1.751-1.482 4.579-3.772 7.543-1.885 2.424-4.984 6.6-9.159 7.139-.404 0-1.078 0-1.482-.135-11.853-6.061-21.956-10.506-25.458-11.449-4.041-1.213-3.502-10.103-3.098-17.9152.269-3.5021.404-6.8696.269-9.6982-.538-9.9677-2.289-20.7436-10.91-25.9968-5.119-3.0981-11.854-4.041-18.184-4.041 1.212-.5387 2.424-1.3469 3.906-2.1551 3.771-2.1552 8.351-4.8492 13.066-5.388 1.481-.1347 2.963-.2694 4.445-.5387 9.294-1.0776 17.376-2.0205 25.862.9428 3.906 1.347 11.718 5.6574 13.739 9.833 1.482 2.8287 3.906 5.1185 8.621 9.5636 2.559 2.2899 4.175 3.6368 5.388 4.7144 1.751 1.347 2.02 1.7511 2.559 2.694 1.616 3.2328 1.077 6.6002.269 11.3146z"/><path d="m167.233 126.751c.539.135.808.808.404 1.347-1.212 1.886-2.694 4.58-4.445 7.678-.808 1.482-1.616 2.963-2.29 4.041-2.29 3.906-2.424 7.273-2.559 9.833-.135 2.828-.269 4.041-2.02 5.118-1.347.943-2.829 1.213-12.527 2.694-1.752.27-2.425.539-3.098.943-.135.135-.405.135-.539.27-.539.269-1.078-.27-1.078-.809.135-1.347.135-3.098.135-5.388v-.404c0-1.885 0-3.502-.135-4.714-.135-2.425-.135-3.502.539-4.58.808-1.347 1.482-1.751 2.424-2.424 1.482-.943 3.503-2.156 6.331-6.197 1.617-2.155 1.886-3.367 2.155-4.31.135-.404.135-.539 1.347-1.482 1.213-.942 5.119-3.906 10.103-3.098 1.616.27 3.367.809 5.253 1.482z"/><path d="m128.572 171.471c-.269.269-.404.404-.808.404-1.078 0-1.751-.27-2.155-.808-.943-1.213-.809-3.637-.674-5.119l4.176-1.077c.269 2.289.404 5.388-.539 6.6z"/><path d="m128.848 156.654c-.135.539-.135 1.212-.135 2.021v.808 2.29c-1.347.404-2.425.404-3.772.404 0-.404 0-1.078 0-1.482 0-.269 0-.673 0-.943 0-.404 0-.673 0-1.077 0-.809 0-2.021.135-2.425.404 0 .808-.135 1.212-.269.809-.135 2.021-.405 2.694-.27 0 .27 0 .674-.134.943z"/><path d="m121.305 170.259c-.135 2.155-.808 4.714-2.829 5.118-.943.135-1.347-.135-1.616-.404-1.347-1.212-1.482-4.984-1.347-7.678.943 0 2.02-.135 3.367-.404.808-.135 1.617-.404 2.29-.539.135 1.078.27 2.425.135 3.907z"/><path d="m120.364 162.715-4.445 1.617c.269-1.751.539-4.176.673-5.792.135-1.078.405-1.482.539-1.617 0 0 .135-.134.27-.134h.134.135l2.829-.135c-.135 1.347-.135 4.31-.135 6.061z"/><path d="m113.082 161.369c-.27.673-.539 2.559-.674 3.906l-5.522-.135c.269-1.751.808-3.502 1.212-4.849.539-1.347.943-2.425 1.482-2.694s1.751-.404 2.559.269c1.212.809 1.482 2.021.943 3.503z"/><path d="m111.067 178.475c-.404.539-.943.943-1.482.943-.673.135-1.077-.135-1.482-.404-1.751-1.617-1.616-6.87-1.481-9.429 2.29-.539 4.849-.943 6.061-1.078 0 2.021.135 7.544-1.616 9.968z"/><path d="m103.789 164.871c-.269.673-.538 1.347-.673 2.02-.674.269-2.694 0-4.7146-.404l1.3469-8.755c2.2897-.674 4.9837-.809 5.5227-.135.943.943-.808 5.388-1.482 7.274z"/><path d="m101.237 179.687c-1.078 1.347-2.6942 2.021-4.9841 1.886-1.6164 0-2.1552-.673-2.4246-1.077-1.2123-2.021 0-6.735 1.2123-9.699l7.5434.404c.134.539.134 1.213.134 1.886.135 2.29-.134 4.984-1.481 6.6z"/><path d="m163.734 115.975c-6.87-1.886-6.196-11.853-5.658-21.5516.135-3.3675.404-6.6002.27-9.2942-.539-9.0248-2.021-18.8578-9.294-23.3028-7.813-4.7145-20.609-3.6369-28.422-2.694-2.828.8082-5.522 1.4817-7.678 1.347-4.579-.2694-8.216-2.1552-11.449-3.9062-2.4245-1.347-4.5796-2.5593-6.7348-2.5593-.1347 0-.2694 0-.2694 0-6.0614.4041-8.8901 1.8858-11.4494 4.1756-.6735.5388-1.4816 2.1552-4.0409 9.5636-1.347 3.7716-1.4817 5.792-1.7511 7.6778-.2694 1.7511-.4041 3.6369-1.347 6.4655-.6735 1.8858-1.2123 3.5022-1.6164 5.1186-1.2122 4.1756-2.2898 7.5431-5.2532 11.584-.4041.4041-.8082 1.2123-1.347 1.886-.6735 1.077-1.4817 2.424-2.6939 3.906-.8082 1.078-2.5593 5.119-2.4246 6.331.1347 2.02.8082 3.233 1.4817 4.58s1.6164 2.963 1.7511 5.253v.404c.2694 3.502-.2694 5.253-6.8697 11.18-4.1756 3.771-7.2737 7.408-9.2941 10.102-.1347.27 0 .539.4041.539h.1347.4041.404.4041c1.6164.135 3.2328.808 4.3104 2.021.1347.269.5388.269.8082.134 1.0776-.404 2.2898-.404 3.3674-.269 1.347.135 2.8287.539 3.7716 1.482.2694.269.6735.404 1.0776.269 1.0776-.269 2.2898-.269 3.3674.135.8082.269 1.6164.808 2.1552 1.481.4041.404 1.0776.539 1.6164.27.2694-.135.6735-.404 1.0776-.539 1.4816-.539 3.098-.27 4.445.269.6735.27 1.347.404 2.0205.943 1.0776.808 1.8858 1.886 2.2899 3.098.2693.674 1.2122.943 1.751.404 1.0776-.808 1.8858-.943 2.694-.673.4041.135.6735.404.9429.808.4041.539 1.0776 1.078 1.6164.808 2.2898-.673 4.9838-.269 7.0043.808.6735.404 1.4817.943 1.8858 1.751v-.404c0-.134.1346-.269.2693-.404l.4041-.134c1.0776-.405 6.7347-2.021 8.8897.269.135.135.27.135.405 0 .269-.269.538-.539.673-.539 1.482-.808 3.906-.943 5.523.539.269.269.808.135 1.077-.135.135-.269.27-.404.539-.538.539-.539 1.347-.674 2.155-.674l3.098-.135c.808 0 3.233-.269 3.907-.404h.134c.27 0 .674-.134 1.078-.269 1.481-.27 3.233-.674 4.58 0 1.347.673 1.212 2.155 1.077 3.502 0 .539-.135 1.078-.135 1.616v.809c0 1.212 0 2.289-.134 3.098l.134.673v.135c.135.539.809.943 1.213.539 1.077-.674 2.155-1.482 2.559-2.021v-.135c0-.134.135-.404.269-.942.135-1.213.404-3.503.404-8.217 0-.269 0-.404 0-.539 0-1.751 0-3.233-.134-4.445-.135-2.559-.27-4.58 1.077-6.6 1.213-2.021 2.425-2.694 3.637-3.502 1.347-.808 2.829-1.751 5.388-5.254 1.212-1.751 1.347-2.424 1.482-2.963.269-1.347.673-2.155 2.694-3.502 1.616-1.212 6.331-4.849 12.796-3.772 2.155.405 5.523 1.482 9.025 2.829.135 0 .269.135.404.135h.135c3.098 1.212 5.926 2.559 7.947 3.637.404.269.943.134 1.347-.27.673-.808 1.347-1.212 2.02-1.751.27-.135.539-.269.674-.404.135 0 .135-.135.135-.135.538-.404.538-1.481-.135-1.751-9.025-4.445-17.646-7.139-20.474-7.947zm-64.9249 2.021c-2.1551 9.159-16.4332 19.396-22.8987 19.396h-.1347c-.1347 0-.2694 0-.2694 0-.1347 0-.2694 0-.4041-.135-.1347 0-.1347 0-.2694 0-1.2122-.404-2.8286-1.212-4.0409-2.424-.8082-.808-1.4817-1.886-1.7511-2.829 0-.135-.1347-.404-.1347-.539-.4041-1.616-.8082-3.502.5388-6.735.1347-.404.4041-.808.5388-1.212 0-.135.1347-.269.1347-.404.1347-.404.2694-.673.4041-.943.1347-.539.4041-.943.5388-1.212 0-.135.1347-.269.1347-.404.4041-1.078.4041-1.482.5388-1.886 0-.269.1347-.808.2694-1.347.4041-1.751.6735-3.233.8082-4.445.2694-2.29.6735-4.31 1.8857-6.196.2694-.269.4041-.539.6735-.808.1347-.135.1347-.135.2694-.27.1347-.134.1347-.134.2694-.269.2694-.269.6735-.404.9429-.539.1347 0 .2694-.135.4041-.135.2694-.134.5388-.134.8082-.269 1.2123-.269 2.5593-.269 4.1756-.135 1.7511.135 3.3675.404 4.7145.809 1.2123.269 2.2899.673 3.098 1.077.1347 0 .1347.135.2694.135.1347.135.2694.135.5388.269.2694.135.4041.135.6735.27.2694.134.5388.269.8082.404l.2694.134c.9429.404 1.8858.943 2.5593 1.482.4041.269.6735.539.9429.808.1347.135.2694.135.2694.27.1347.134.1347.134.2694.269 2.8286 2.425 2.6939 5.792 2.1551 7.813zm6.7349-34.8873-.269 1.6164c-.674 3.7715-2.156 8.8901-7.5435 10.2371-5.2532 1.2122-6.4655 1.4816-10.1023 1.751-.1347 0-.1347 0-.2694 0-2.694 0-7.9472-1.751-8.8901-5.9267-.5388-2.6939.6735-4.7144 2.5593-7.9472.2694-.5388.6735-1.0776 1.0775-1.7511 2.694-4.445 3.6369-7.6778 4.4451-10.237.8082-2.5593 1.4817-4.5798 3.2327-6.3308.4041-.4041.8082-.8082 1.347-1.0776.2694-.2694.6735-.4041 1.0776-.6735.5388-.2694 1.0776-.4041 1.6164-.6735 1.2123-.4041 2.5593-.5388 3.7716-.5388 2.5591 0 5.1181.6735 6.8691 2.1552.809.6735 2.021 1.8857 2.694 5.792.27 2.0205-.269 5.6573-1.616 13.6045zm38.658 10.7759c-1.885 3.2327-2.828 4.9838-4.445 6.3304-3.232 2.694-6.869 3.233-9.967 3.233-2.155 0-4.041-.404-5.253-.539-3.233-.538-9.025-1.616-11.046-6.3305-.404-.9429-.404-1.4816-.404-2.2898 0-.6735 0-2.0205-.404-4.8492v-.1347c-.135-1.3469-.269-2.8286 0-4.7144v-.2694c1.078-5.6573 1.482-6.4655 1.616-7.0043.539-1.0776 1.886-1.6164 3.098-.9429 1.078.5388 1.482 1.8858 1.078 2.9634-.135.2694-.404 1.4816-1.347 5.9267v.2694c-.269 1.2123-.135 2.1552 0 3.3674v.1347c.404 3.2328.404 4.5798.404 5.388v.4041.1347c.404.9429 1.212 1.4816 2.155 2.0204.674.2694 1.347-.2694 1.213-.9428-.943-4.9839-.943-10.7759.943-14.4128.673-1.2123 1.751-3.098 2.828-4.9838.135-.1347.27-.4041.27-.5388.134-.1347.134-.2694.269-.4041.539-.8082.943-1.4817 1.347-2.1552 0-.1347.135-.1347.135-.2694l.134-.1347c.135-.1347.135-.2694.27-.4041 0 0 0-.1346.134-.1346l.135-.1348c0-.1346.135-.1346.135-.2693.404-.5388.808-1.0776 1.077-1.6164.539-.6735-.134-1.4817-.808-1.2123-1.886.8082-3.098 1.7511-3.367 1.8858-.943.8082-2.425.6735-3.233-.4041-.808-.9429-.673-2.4246.404-3.2328 1.212-.9429 7.409-5.3879 14.817-3.3674 5.388 1.4816 8.082 5.6573 9.159 7.139.809 1.2122 3.503 4.9838 3.368 10.3717 0 3.9063-1.616 6.8696-4.715 12.1229z"/><path d="m95.979 66.2715c-.4041.9428-.8082 2.0204-1.347 3.2327-1.0776 2.8287-2.4246 6.0614-3.0981 7.2737-1.0776 2.0205-1.8857 3.3675-2.5592 4.3104-.8082 1.2122-1.347 2.1551-1.8858 3.5021-.8082 2.2899-.9429 4.8492-.4041 7.6778-1.4817-.1347-3.7716-1.0776-4.041-2.4246-.1347-.9428.4041-1.8857 2.0205-4.7144.2694-.5388.6735-1.2123 1.0776-1.7511 2.8287-4.8491 4.0409-8.486 4.8491-11.1799.9429-2.8287 1.347-4.041 2.8287-5.1186.9429-.4041 1.7511-.6734 2.5593-.8081z"/><path d="m93.1469 168.103c-1.6164 3.233-3.5022 6.197-4.7145 7.678-1.0776-2.694-2.8286-9.025-2.2898-14.008 0-.135 0-.27 0-.404.1347-1.617.5388-2.964 1.3469-4.176.5388-.808 1.8858-1.212 3.3675-1.212 1.0776 0 2.2899.269 3.3675.808.5387.269 1.3469.943 1.3469 2.694.2694 2.424-.9429 5.657-2.4245 8.62z"/><path d="m179.358 132.139c.134.135.134.269.134.404-.404.943-1.077 1.616-1.751 2.425-.808.942-1.751 2.02-2.559 3.771-1.212 2.425-1.616 4.58-1.751 10.237-.269 6.6 0 10.237.269 12.931.135 2.559.27 4.176-.134 6.735-.943 5.119-3.098 8.486-5.927 12.796-3.502 5.388-7.004 10.911-12.931 12.662-.539.135-.539.135-2.155.135-1.347 0-3.637 0-7.813.135-7.812.269-11.719.404-14.951 1.077-3.503.674-5.254 1.482-7.139 2.155-1.617.674-3.098 1.213-5.927 1.886-1.751.404-4.31.674-13.066.808-9.1593 0-14.6819 0-21.8209-.808-9.9677-1.078-14.9515-1.751-18.319-3.502-7.8125-4.176-11.18-11.719-16.5679-24.111 0-.135.1347-.27.2694-.27l.8082.405c.2694.134.5388.134.6735.134.5388.135 1.0776.135 1.6164 0 .1347 0 .1347 0 .2694-.134.1347 0 .2694 0 .2694.134.4041.943.9429 1.751 1.8857 2.29.9429.539 2.0205.539 2.9634.539 1.0776 0 2.1552-.135 3.2328-.269.5388 0 1.0775.269 1.3469.673.9429 2.425 2.1552 4.041 4.041 4.31h.4041c.4041 0 1.0776-.134 1.8858-.673.6735-.539 1.751-.135 2.2898.539.4041.673.9429 1.077 1.4817 1.481 1.8858 1.886 6.4655 2.829 10.2371 2.829 2.0205 0 3.9062-.269 4.9838-.808 1.6164-.808 1.6164-1.886 1.4817-2.425-.1347-.808-.2694-1.751-.4041-2.559 0-.135.1347-.135.1347 0 .2694.539.5388 1.078 1.2123 1.212h.2694c1.0776 0 2.694.404 2.9633 1.347.1347.539.4041.943.6735 1.482.6735.943 1.8858 2.155 4.4451 2.29h.1347c2.9633 0 5.2528-.943 6.7348-2.829.135-.135.135-.269.269-.404.539-.808 2.156-.808 2.829-.135.808.674 1.751 1.078 2.829 1.078h.539c1.347-.135 2.424-.808 3.367-2.021.539-.808.943-1.751 1.212-2.828.135-.27.539-.404.809-.135.538.539 1.481 1.078 2.828 1.078.27 0 .674 0 1.078-.135 2.559-.539 3.906-2.694 4.445-4.984 0-.135.135-.135.135 0 .673.808 1.885 1.751 3.906 1.751h.269c1.078 0 2.021-.539 2.694-1.347.808-1.077 1.078-2.694 1.212-4.175 0-.404.27-.809.809-1.078 2.155-.943 4.849-2.963 5.657-4.31 0 0 0-.135.135-.135.134-.404.538-.674.808-.674 1.751-.269 2.424-.673 3.098-.942.539-.27.943-.404 2.29-.674 9.833-1.482 11.719-1.886 13.874-3.233 3.232-2.155 3.367-5.118 3.502-7.947.135-2.424.269-5.118 2.155-8.351.674-1.212 1.482-2.559 2.29-4.176 1.482-2.694 3.502-6.465 4.984-8.486.269-.404.808-.539 1.212-.269 3.367 1.212 6.331 2.559 6.87 3.098z"/><path d="m83.7237 161.503c-.4041 3.368-.6735 7.947-.1347 13.874.1347 1.617.4041 3.368.6735 5.119-.4041.269-1.8857.673-4.3103.538-3.5022-.134-7.0043-.942-8.0819-2.155l-.1347-.134c-.8082-.674-1.4817-1.213-1.4817-2.425 0-.404.1347-.808.5388-1.482.2694-.269.5388-.673.8082-1.212.5388-.808 1.347-1.751 2.1552-3.098 2.2898-3.772 3.098-4.984 4.1756-6.466.1347-.134.1347-.269.2694-.404.6735-.808 1.347-1.885 2.5593-3.636.8082-1.213 1.4817-2.29 2.1551-3.099.9429-1.347 1.6164-2.02 2.0205-2.424 0 .539-.1347 1.347-.2694 2.155-.5388 1.616-.8082 3.098-.9429 4.849z"/><path d="m81.9673 108.432c0 .135 0 .135 0 0-.5388.674-1.0776 1.482-1.7511 2.829-1.751 3.771-1.751 5.927-1.751 7.678 0 .942 0 1.616-.2694 2.424-.1347.539-.4041 1.212-.8082 1.886-.9429 2.29-2.2899 5.253-1.7511 9.294-.8082-.404-2.0205-1.347-2.2899-1.751 0-.269-.1347-.404-.1347-.673-.2694-1.213-.4041-2.021.2694-3.907 2.1552-4.849 2.4246-6.061 2.5593-7.408 0-.27.1347-.539.1347-.943.4041-1.886.6735-3.502.8082-4.849.2694-2.021.5388-3.368 1.2123-4.31.2694-.405.9429-.539 1.8857-.539.4041 0 .8082 0 1.347.134h.1347c.4041.135.4041.135.4041.135z"/><path d="m79.2771 156.519c-.1347-1.212-.2694-2.29-.8082-3.502 0 0-.1347-.269-.1347-.404-.1347-.135-.1347-.269-.2694-.404l-.1347-.135c-.1347-.134-.1347-.134-.2694-.134l-.1347-.135c-.1347 0-.1347-.135-.2694-.135h-.1347c-.6735-.269-1.347-.539-2.1552-.673-.1347 0-.2694 0-.2694 0-.1347 0-.1347 0-.2694 0h-.1347c-.1347 0-.2694.134-.5388.134-.1347 0-.1346.135-.2693.135l-.1347.135c-.1347.134-.1347.134-.2694.269l-.1347.135v.135c-.2694.404-.5388.808-.8082 1.212-.6735.943-1.347 2.02-2.0205 2.963s-1.2123 1.751-1.8858 2.694c-.4041.539-.6735.943-1.0776 1.482 0 .135-.1347.135-.1347.269.4041.135.8082.135 1.2123.27.9429.134 1.8858.269 2.694.404 1.8858.269 3.9062.404 5.792.269h.2694c.4041-.673 1.0776-1.482 1.7511-2.559.4041-.539.8082-1.078 1.0776-1.616-.4041-.135-.5388-.539-.5388-.809z"/><path d="m72.4087 164.467c-.1347 1.481-1.7511 5.253-4.3104 8.89-2.1551 2.963-3.5021 3.771-3.7715 3.771-1.0776-.135-2.0205-2.694-2.8287-5.253-.2694-1.078-.6735-2.021-.8082-2.963-.5388-1.886-.6735-4.58-.5388-6.197 2.1552 1.213 5.9267 1.482 11.3147 1.482.2694.135.6735.135.9429.27z"/><path d="m68.6306 152.344c-.9429 1.481-1.8858 2.828-2.8286 4.175-.5388.674-.9429 1.347-1.4817 2.021-.2694.404-.6735.808-.9429 1.212-.8082-.135-1.4817-.404-2.2899-.539-.6735-.134-1.2123-.404-1.8858-.673-.1347 0-.2694-.135-.4041-.135-.1346-.135-.2693-.404-.404-.539.2694-.404.404-.943.6734-1.347.4041-.808.8082-1.616 1.347-2.424.8082-1.347 1.7511-2.829 3.2328-3.772.1347 0 .1347-.135.2694-.135.5388-.269 1.0776-.538 1.7511-.673h.8082.1346.1347c.1347 0 .2694.135.5388.135 0 0 .1347 0 .1347.134.1347.135.2694.135.4041.27-.2694-.135.2694.404.2694.269.2694.808.4041 1.212.5388 2.021z"/><path d="m61.3625 148.437c-1.7511 1.347-2.9634 3.233-3.9063 5.254-.5388 1.077-1.0776 2.155-1.6164 3.232 0 .135-.1347.27-.1347.27-.5387-.135-1.0775-.27-1.4816-.404-.5388-.135-1.0776-.404-1.6164-.539-.2694-.135-.4041-.269-.6735-.404.5388-.943 1.0776-1.886 1.7511-2.829.8082-1.212 1.751-2.559 2.6939-3.637.4041-.404.8082-.943 1.2123-1.212.5388-.269 1.0776-.269 1.7511-.135.6735 0 1.347 0 1.8858.27-.1347 0 0 .134.1347.134z"/><path d="m58.6681 171.336c-.1347.135-.1347.135-.2694.27h-.1347c-.4041 0-.8082.134-1.2122.134-.8082 0-1.6164.135-2.4246 0-.4041 0-.8082-.134-1.0776-.404-.2694-.404-.4041-1.212-.5388-1.751-.5388-2.963-.5388-5.927-.2694-8.89 1.4817.539 3.0981.943 4.7144 1.212-.404 2.694.2694 6.601.5388 7.678.4041.539.5388 1.212.6735 1.751z"/><path d="m53.823 147.494c-1.3469 1.617-2.5592 3.368-3.6368 5.254-.4041.673-.9429 1.481-1.347 2.29-.5388-.135-1.0776-.404-1.4817-.674-.4041-.269-.8082-.539-1.0776-.808-.1347-.135-.4041-.269-.5388-.404 0 0-.1347 0-.1347-.135.1347-.404.4041-.673.4041-.943.2694-.673.5388-1.212.9429-1.751.6735-1.077 1.347-2.155 2.1552-3.233.2694-.404.5388-.808 1.0776-.942.4041-.135.9429 0 1.347 0 .8082.134 1.6163.673 2.2898 1.346z"/><path d="m43.4462 154.634c.1347-.135 0-.135 0 0 .5388.538.9429.942 1.4817 1.347.2694.134.4041.404.6735.538v.135c-.5388 2.29-.9429 4.715-.9429 7.139 0 .135-.1347.135-.1347 0-.6735-2.829-1.4817-7.408-1.0776-9.159z"/><path d="m50.0413 159.617c-.2694 2.021-.4041 4.041-.2694 6.062 0 1.077.1347 2.155.2694 3.367-.2694 0-.5388 0-.8082 0h-.1347-.1347c-.2694-.134-.2694-.134-.5388-.269s-.5388-.539-.8082-.943c-.5388-.943-.6735-2.021-.6735-3.098-.1347-2.021.1347-4.176.5388-6.196.2694.134.6735.269 1.0776.404.5388.269.9429.539 1.4817.673z"/></g><g mask="url(#j)"><g opacity=".8" stroke-miterlimit="10"><path d="m103.113 264.682c-9.1592 0-17.7799-.539-25.0536-1.077l-2.0205-.135-2.0204-.27c-.9429-.134-2.0205-.269-3.2328-.404-7.0043-.808-20.07-2.155-34.4828-8.89l-2.2898-1.077-2.0205-1.213c-27.74784-15.625-37.98491-38.927-43.6422-51.454-.4041-.809-.8082-1.751-1.2123-2.694-2.8287-5.792-4.5798-10.911-6.0614-15.76l-.2694-1.078-.2694-1.077c-4.041-14.278-4.9839-26.536-3.2328-38.793 1.8858-12.258 6.3308-23.303 14.27802-35.022l4.04095-6.6001c.80819-1.347 1.34698-2.8286 1.75108-4.3103 3.09806-15.3556 10.10237-26.2662 13.60455-31.5194.9429-6.3308 2.5592-12.527 4.7144-18.5884l.2694-.9429.4041-.9429c0-.1347.1347-.404.2694-.8081 1.6164-4.7145 5.2532-15.625 14.5474-27.2091l3.5022-4.0409 3.6368-3.2328c9.1595-8.351294 20.2048-14.54742 32.0582-18.0496 6.6002-2.0204 13.4698-3.2327 20.4742-3.6368h.6734.9429c1.2123 0 2.4246-.1347 3.5022-.1347 4.3107 0 8.6207.4041 12.9307 1.0776 2.694.4041 5.388.1347 7.948-.9429 7.408-3.0981 15.086-5.1186 23.033-6.1961.673-.1347 1.212-.1347 1.751-.2694 1.212-.1347 3.233-.4041 5.657-.6735 4.176-.4041 10.641-.9429 17.511-.9429 13.605 0 25.323 1.7511 35.83 5.3879l.943.2694.808.2694c23.168 8.75539 34.887 21.01293 43.373 31.6541l.404.5388 1.212 1.0776c7.678 5.9267 14.143 13.3351 19.262 21.5517l1.616 2.5593 1.347 2.6939c11.315 23.0334 7.678 44.4505 6.331 52.3977l-.135.4041c-.942 5.9263-2.559 11.7183-4.579 17.3763-.808 5.388-2.021 10.776-3.772 15.894-2.963 9.16-7.408 17.915-13.066 25.727-3.232 4.58-7.004 9.025-11.045 12.932-1.481 1.347-2.424 3.232-2.694 5.253-.134 1.212-.404 2.424-.539 3.637-3.367 17.78-11.045 30.172-14.278 35.156l-9.563 13.739c-11.584 14.413-25.323 23.842-41.891 28.96l-4.041 1.212-4.311.809c-4.983.943-9.967 1.347-15.086 1.347-.673 0-1.347 0-2.155 0h-.269-.809-.942c-1.886 0-3.772.404-5.658.943-11.045 3.502-23.168 5.118-37.985 5.118z" opacity=".8" stroke="url(#c)" stroke-width="10.9938"/><path d="m103.112 255.119c-8.7558 0-17.2418-.539-24.2461-1.078l-1.6164-.135-1.6164-.269c-1.0775-.135-2.2898-.27-3.5021-.404-6.8696-.674-18.1843-2.021-30.8459-7.947l-1.8858-.943-1.7511-.943c-24.6498-13.605-33.67454-33.944-39.06247-46.067-.4041-.808-.80819-1.886-1.34698-2.829-2.55927-5.118-4.17565-9.967-5.52263-14.278l-.2694-.943-.26939-.808c-3.50213-12.796-4.44503-23.572-2.82863-34.213 1.6163-10.507 5.65729-20.34 12.6616-30.577l5.25323-8.486c.94289-1.481 1.61638-3.232 1.88578-4.983 2.55929-14.5479 9.42889-24.785 12.52689-29.4994l.4041-.5388.1347-.2694c0-.1347.1347-.2694.1347-.4041.1347-.6735.4041-1.2123.5388-1.7511.8082-5.9267 2.2899-11.8534 4.3104-17.5108l.2694-.8081.2694-.8082c.1347-.2694.1347-.5388.4041-1.347 1.4816-4.4451 4.5797-13.7392 12.6616-23.7069l2.9634-3.5022 2.9633-2.6939c7.9472-7.2737 17.5108-12.66167 27.7479-15.62503 5.9267-1.75107889 11.8534-2.82866 18.0495-3.09806h.5388.8082c1.0776 0 2.0205-.1347 2.9634-.1347 4.4451 0 8.7551-1.21228 13.0661-.40409 3.367.67349 6.735.26939 9.833-1.07759 5.792-2.55927 13.604-3.50216 22.494-4.71444.674-.1347 1.212-.1347 1.617-.2694 1.212-.1347 3.098-.40409 5.253-.53879 3.906-.40409 9.967-.80819 16.568-.80819 12.392 0 22.898 1.61638 32.193 4.71444l.808.2694.673.26939c20.474 7.8125 30.577 18.04956 38.524 28.15196.404.5388.943 1.0776 1.078 1.347l.134.1347 1.482 1.3469.135.2694c6.869 5.2533 12.661 11.7188 17.106 18.9925l1.347 2.1552 1.078 2.2898c9.698 19.8007 6.735 37.985 5.388 45.6628l-.135.4041c-.943 5.6576-2.424 11.0456-4.445 16.4336-.673 5.118-1.886 10.237-3.502 15.086-2.694 8.082-6.6 15.759-11.584 22.764-3.368 4.849-7.409 9.294-11.719 13.2-2.02 1.886-3.367 4.311-3.637 7.139-.269 2.021-.539 3.906-.808 5.927-2.963 15.76-9.698 26.535-12.931 31.385l-7.812 11.314c-10.372 13.335-22.63 21.956-37.447 26.536l-3.367 1.077-3.637.674c-4.31.808-8.755 1.212-13.066 1.077-.673 0-1.347 0-2.02 0h-.135-.404s-.135 0-.404 0h-.808-.808-1.482c-2.021.135-4.041.405-6.061 1.078-9.833 3.233-21.283 4.715-35.291 4.715z" opacity=".8" stroke="url(#d)" stroke-width="10.9938"/><path d="m103.116 243.939c-8.3517 0-16.5683-.539-23.4379-1.078l-1.347-.135-1.347-.134c-1.2123-.135-2.5592-.27-3.9062-.405-6.4655-.673-16.2985-1.751-27.3438-7.004l-1.4817-.673-1.3469-.809c-21.1477-11.853-28.9602-29.364-34.0787-40.948-.40409-.943-.94289-2.155-1.34698-3.098-2.28987-4.58-3.77155-8.89-4.98384-12.931l-.26939-.673-.1347-.674c-3.09806-11.045-3.90625-20.474-2.55927-29.364 1.346983-9.025 4.98384-17.511 11.17998-26.536l.8082-1.077.8082-1.078c.5388-.673.9428-1.347 1.4816-1.886l3.0981-5.792c1.0776-1.885 1.7511-3.906 2.0205-6.061 2.0204-12.9311 8.2166-22.2253 11.0452-26.5356.1347-.2694.4041-.5388.5388-.6735l.6735-.9429c.2694-.5388.5388-1.2123.8082-2.0205s.6735-2.0204.9429-3.098c.6735-5.5227 2.0205-10.9106 3.9062-16.1638l.2694-.6735.2694-.6735c.1347-.5388.4041-.9429.6735-1.8858 1.347-4.1756 3.9063-11.8534 10.7759-20.2047l2.2899-2.8287 2.4245-2.1552c6.7349-6.1961 14.8168-10.6411 23.5722-13.3351 5.1186-1.4817 10.2371-2.42456 15.625-2.69396h.4041.6735 2.5593c4.5793 0 9.0243.53876 13.4703 1.75106 3.771.9429 7.812.5388 11.314-1.2123 5.658-2.69393 13.201-5.65729 21.956-6.73488.539-.1347 1.078-.1347 1.482-.26939 1.077-.1347 2.828-.4041 4.984-.5388 3.636-.40409 9.428-.80819 15.49-.80819 11.045 0 20.339 1.34699 28.556 4.17565l.539.2694.538.26939c18.858 7.13902 27.209 16.43322 33.675 24.64982 1.482 1.751 1.616 2.0204 2.559 2.9633l1.213 1.0776.404.5388c3.098 2.4246 9.429 7.4084 14.951 16.4332l1.078 1.7511.943 1.7511c8.216 16.5678 5.657 31.6541 4.445 38.9278l-.135.4041c-.808 5.253-2.29 10.506-4.445 15.49v.404c-.539 4.715-1.616 9.429-3.098 13.874-2.29 7.139-5.657 13.74-10.102 19.801-3.637 5.253-8.082 9.968-13.066 14.009-1.213.942-2.155 2.155-2.829 3.502-.673 1.347-1.077 2.828-1.212 4.31-.135 2.963-.539 5.927-1.078 8.89-2.559 13.605-8.486 23.034-11.449 27.748l-6.062 8.89c-9.024 12.123-19.8 19.935-32.866 23.976l-2.694.809-2.963.538c-3.637.674-7.409.943-11.18.943-.539 0-1.212 0-1.886 0h-.135-.673c-.135 0-.404 0-1.078 0h-.673-.539l-3.098.135c-2.155.135-4.31.404-6.331 1.212-9.294 2.964-19.935 4.311-33.27 4.311z" opacity=".8" stroke="url(#e)" stroke-width="10.3063"/><path d="m103.118 232.759c-7.9474 0-15.8946-.539-22.4949-1.078l-.9428-.135-.9429-.134c-1.347-.135-2.8287-.404-4.1757-.539-6.0614-.674-14.4127-1.617-23.8416-5.927l-1.0776-.539-1.0775-.538c-17.9149-10.103-24.5151-24.92-29.3643-35.695-.5388-1.078-1.0776-2.29-1.4817-3.368-2.0204-4.176-3.3674-8.082-4.445-11.449l-.1347-.539-.4041-.404c-5.25323-18.589-3.23275-31.654 7.0043-46.606l.5388-.808.5388-.808c.6735-.808 1.347-1.751 2.0205-2.559.9429-1.213 1.8858-2.56 2.9633-3.772.6735-.808 1.2123-1.751 1.6164-2.694l1.2123-2.963c.5388-1.347.8082-2.694.9429-4.041 1.0776-11.9884 6.8696-20.6091 9.6983-24.9194.2694-.2694.5388-.8082.6735-.9429l.6735-1.0776.2694-.2694c.404-.6735 1.0775-2.2899 1.6163-3.9063.2694-1.0775.8082-2.8286 1.347-4.3103v-.1347c.5388-4.9838 1.7511-9.9677 3.5022-14.6821l.1347-.4041.1347-.4041c.2694-.8082.5388-1.4817.8082-2.4246 1.2122-3.6368 3.2327-9.8329 8.7553-16.7025l1.7511-2.1552 1.7511-1.6164c13.0657-11.8535 27.6131-12.7963 32.4623-13.2004h.2694.5388 2.0204c5.7923 0 11.4493 1.2123 16.8373 3.5021.943.4041 2.021.5388 2.963.5388 1.078 0 2.021-.2694 2.964-.8082 4.984-2.8286 14.008-8.0819 25.592-9.4289.539-.1347 1.078-.1347 1.482-.1347 1.078-.1347 2.694-.2693 4.58-.5387 3.502-.2694 8.755-.6735 14.413-.6735 9.833 0 17.914 1.2122 24.784 3.5021l.404.1347.404.1347c16.164 6.0614 23.034 13.7392 28.826 21.0129 1.481 2.0205 2.29 2.8287 3.906 4.4451l.943.8082.673.8082.539.4041c2.694 2.1551 7.813 6.0614 12.392 13.4698l.809 1.347.673 1.347c6.6 13.4698 4.445 25.5926 3.367 32.0581v.4041c-.808 4.7145-2.155 9.4291-4.04 13.8741l-.135.404c0 .135 0 .135-.135.404-.135.404-.135.808-.135 1.212l-.134.539c-.404 4.041-1.347 7.947-2.694 11.719-2.021 6.061-4.849 11.719-8.621 16.837-3.637 5.253-7.812 9.564-12.392 12.931-2.021 1.482-3.637 3.368-4.849 5.658-1.213 2.289-1.751 4.714-1.751 7.273 0 3.098-.404 6.331-.943 9.429-2.155 11.584-7.005 19.397-10.103 24.111l-4.445 6.6c-7.812 10.911-17.106 17.915-28.286 21.417l-.539.135c-.943.269-1.886.539-2.829.674l-.673.134c-3.098.539-6.196.808-9.294.808-.539 0-1.078 0-1.617 0h-.135c-.269 0-.538 0-.808 0-.269 0-.808 0-1.885 0h-.405-.404c-1.481 0-3.367.135-4.984.135-2.289.135-4.445.539-6.6 1.347-8.082 2.425-17.915 3.772-30.576 3.772z" opacity=".8" stroke="url(#f)" stroke-width="9.61979"/><g stroke-width="8.93229"><path d="m103.112 221.579c-7.6778 0-15.2209-.539-21.6864-1.078h-.6735l-.6735-.135c-1.4817-.269-3.0981-.404-4.5798-.538-5.6573-.674-12.6616-1.347-20.2047-4.984l-.8082-.404-.6735-.404c-14.6821-8.217-20.2047-20.609-24.5151-30.577-.5388-1.212-1.0776-2.424-1.6164-3.771-1.751-3.503-2.9633-7.005-3.9062-9.968l-.1347-.404-.1347-.404c-4.3103-15.356-2.8287-25.054 5.5226-37.177l.4041-.539.4041-.539c.6735-.942 1.347-1.751 2.0205-2.694 2.1552-2.828 4.3103-5.657 7.4084-9.024.6735-.674 1.0776-1.751 1.2123-2.694l.1347-3.098-.1347-1.213v-1.212c.2694-9.968 5.2532-17.376 7.9472-21.417.2694-.4041.6735-.9429.8082-1.2123l.4041-.6735.4041-.5387c.5388-.8082 1.751-3.6369 2.8286-6.1962.4041-1.0776.9429-3.2327 1.6164-4.9838.1347-.5388.1347-.6735.2694-1.8858.4041-4.1756 1.4817-8.3513 2.8287-12.2575l.1347-.2694.1347-.2694c.4041-1.0776.6735-1.8858 1.0775-2.9634 1.0776-3.2327 2.694-7.9472 6.8697-13.2004l1.2122-1.4817 1.2123-1.0776c9.1595-8.2166 18.9925-9.833 25.7274-10.237h.2694.2694 1.4817c5.657 0 12.527 2.6939 16.164 4.445.808.4041 1.751.6735 2.694.6735s1.886-.1347 2.828-.4041c2.29-.8082 4.445-1.7511 6.466-2.8287 4.58-2.6939 12.123-7.0043 21.552-8.0819.538-.1347.943-.1347 1.347-.1347.943-.1347 2.424-.2694 4.31-.5388 3.233-.2694 8.082-.6734 13.335-.6734 8.486 0 15.49.9428 21.148 2.9633l.269.1347.27.1347c13.469 5.1185 18.857 10.9106 23.976 17.5108 1.616 2.1552 2.828 3.6368 5.253 5.792l.539.5388.539.5388c.538.5388 1.077.9429 1.616 1.347 2.29 1.7511 6.196 4.8491 9.564 10.5064l.538.8082.404.9429c4.984 10.1024 3.368 19.666 2.425 25.3233v.4041c-.673 3.9062-1.751 7.6778-3.367 11.3148-.405.943-.674 1.886-.943 2.963-.135.674-.27 1.347-.27 1.886l-.134.539c-.404 3.233-1.078 6.465-2.156 9.563-1.616 4.984-4.041 9.699-7.004 13.874-4.58 6.466-9.833 11.046-16.164 14.009-1.481.673-2.828 1.751-3.771 3.233-.943 1.347-1.482 3.098-1.617 4.714v1.616c.27 4.85.674 10.372-.404 16.164-1.751 9.429-5.792 15.76-8.755 20.474 0 0-13.739 19.128-26.266 23.034l-1.347.404-1.482.269c-2.424.404-4.849.674-7.408.674-.404 0-.943 0-1.482 0-.269 0-.673 0-1.078 0-.538 0-1.347 0-2.559.135h-.269-.27c-4.849.134-9.294.269-10.641.538-.673.135-1.347.27-2.02.539-6.601 2.829-15.895 4.176-28.691 4.176z" opacity=".8" stroke="url(#g)"/><path d="m103.115 210.533c-7.2735 0-14.5472-.538-20.7433-.943h-.2694-.2694c-1.7511-.269-3.3675-.404-4.8492-.538-5.2532-.539-10.7758-1.213-16.7025-3.907l-.4041-.134-.4041-.135c-11.4494-6.465-15.7597-16.029-19.8007-25.323-.5388-1.347-1.2123-2.694-1.8858-4.041-1.3469-2.694-2.4245-5.658-3.2327-8.486v-.135-.135c-3.5022-12.257-2.5593-18.453 3.9062-27.882l.1347-.27.1347-.269c.8082-.943 1.4817-1.886 2.1552-2.694 3.0981-4.041 5.792-7.543 11.8535-13.2.4041-.404.8081-.943.9428-1.617.1347-.538.1347-1.212-.1347-1.751l-1.0775-3.098c-.2694-.943-.4041-2.02-.4041-2.963v-.808-.674c.2694-6.735 3.7715-11.988 6.0614-15.4902.4041-.5387.6735-1.0775.9429-1.4816l.2694-.4041.2694-.4041c1.2123-1.6164 3.2327-6.3309 4.3103-9.1595.2694-.9429.9429-3.2328 1.6164-4.9838.4041-1.347.6735-2.694.8082-4.041.4041-3.3675 1.0776-6.7349 2.2899-9.833v-.1347-.1347c.5387-1.347.9428-2.4245 1.2122-3.5021.9429-2.8287 2.0205-6.0614 4.9839-9.6983l.5388-.6735.5388-.5388c6.4655-5.9267 13.6045-7.0043 18.9924-7.4084h.1347.1347.9429c5.3881 0 9.4291 2.1552 12.1231 3.6369l.673.2694h.135c.808.4041 1.347.8081 2.02 1.0775 1.617.8082 3.637 1.0776 5.388.5388 3.772-.9428 9.564-3.2327 13.335-5.3879h.135c4.041-2.4246 10.237-5.9267 17.511-6.7349.404-.1347.943-.1347 1.347-.1347.808-.1347 2.29-.2694 3.906-.4041 2.964-.2694 7.543-.6735 12.258-.6735 7.273 0 13.065.8082 17.511 2.2899h.134.135c10.776 4.0409 14.817 8.3513 19.127 14.0086 1.751 2.2899 3.502 4.445 6.735 7.2737l.269.2694.27.2694c.808.8082 1.751 1.6164 2.828 2.4246 1.886 1.4817 4.58 3.5021 6.87 7.4084l.269.4041.27.4041c3.367 7.0043 2.29 13.6045 1.482 18.5883v.4041c-.539 3.0981-1.347 6.0614-2.694 9.0248-.674 1.6159-1.213 3.3679-1.482 5.1189-.135 1.077-.27 1.885-.404 2.559l-.135.539c-.269 2.559-.808 4.984-1.616 7.408-1.213 3.906-3.098 7.543-5.523 10.911-4.041 5.926-8.621 9.563-14.682 11.449-2.963.943-5.388 2.829-7.004 5.388l-.539.673-.539.674c-1.482 1.751-1.078 8.486-.808 12.527.269 4.445.539 9.025-.27 13.335-1.347 7.408-4.579 12.392-7.408 16.703 0 0-10.506 15.22-20.07 18.049l-.673.27-.674.134c-1.751.27-3.637.539-5.523.539-.404 0-.808 0-1.347 0-.404 0-.808 0-1.347 0-.673 0-1.616 0-3.232.135h-.135-.135c-6.331.269-10.237.404-12.392.808-1.482.269-2.829.673-4.176 1.212-5.792 2.29-13.604 3.502-24.919 3.502z" opacity=".8" stroke="url(#h)"/></g></g></g></g></svg>