<svg fill="none" height="262" viewBox="0 0 262 262" width="262" xmlns="http://www.w3.org/2000/svg"><circle cx="131.621" cy="130.379" fill="#fff" r="129.137"/><path d="m168.945 169.286c.645-.728 1.428-1.322 2.302-1.746.875-.425 1.825-.672 2.795-.728l4.327-24.42c-.469-.209-.914-.468-1.328-.771l-18.886 16.732c.577 1.07.878 2.268.876 3.485 0 .656-.089 1.309-.265 1.942zm43.599 18.847-26.876-46.645c-1.15.881-2.536 1.4-3.981 1.49l-4.394 24.419c1.217.522 2.271 1.364 3.048 2.437.778 1.073 1.251 2.337 1.369 3.659.118 1.321-.123 2.649-.697 3.844-.575 1.194-1.462 2.211-2.567 2.941s-2.386 1.146-3.709 1.205c-1.322.058-2.635-.243-3.8-.872-1.165-.63-2.138-1.564-2.816-2.703s-1.035-2.441-1.034-3.767c.001-.652.09-1.301.266-1.929l-10.207-5.52c-1.227 1.408-2.947 2.288-4.804 2.461l-2.774 20.736c1.581.579 2.911 1.693 3.759 3.15s1.162 3.166.886 4.83h52.717c1.134-.003 2.248-.304 3.23-.874.981-.569 1.796-1.387 2.363-2.372.567-.984.867-2.101.868-3.237.001-1.137-.295-2.254-.86-3.24zm-81.278-54.533c-.758-1.191-1.159-2.576-1.155-3.99.003-1.332.37-2.639 1.062-3.777l-25.35-24.593c-.774.5-1.633.851-2.535 1.038l-1.871 58.961c.675.186 1.323.464 1.924.825zm-22.085-38.5713c.001 1.3316-.361 2.6382-1.049 3.7776l25.35 24.5927c1.184-.775 2.568-1.186 3.982-1.184 1.823.005 3.579.688 4.928 1.917 1.349 1.228 2.194 2.915 2.371 4.734l29.65 4.07c.356-.921.891-1.761 1.575-2.471.683-.711 1.502-1.277 2.407-1.666l-41.9-72.7143c-.567-.9862-1.383-1.8054-2.366-2.3749-.984-.5696-2.099-.8695-3.235-.8695s-2.251.2999-3.234.8695c-.984.5695-1.8 1.3887-2.367 2.3749l-19.045 33.0652c.911.6842 1.65 1.5717 2.159 2.5921.509 1.0207.774 2.146.774 3.2867zm35.609 69.2963-37.972 4.735c-.054.501-.156.995-.305 1.476l35.198 21.068c1.21-1.267 2.836-2.056 4.579-2.221l2.787-20.735c-.978-.363-1.867-.932-2.606-1.669-.74-.736-1.313-1.623-1.681-2.601zm-7.313-27.359c-1.344-.002-2.662-.374-3.809-1.078l-27.871 28.517c.282.442.514.915.69 1.409l37.971-4.734c.109-1.003.422-1.972.92-2.848.497-.876 1.169-1.641 1.974-2.246l-8.441-19.153c-.473.089-.953.133-1.434.133zm-32.676 36.536c-.799.828-1.78 1.456-2.866 1.833-1.085.378-2.244.494-3.3826.339-1.1387-.154-2.2248-.574-3.1714-1.227-.9464-.653-1.7266-1.519-2.277-2.53-.5505-1.011-.8561-2.137-.8922-3.288s.1983-2.294.6844-3.337 1.2105-1.957 2.1142-2.668c.9036-.711 1.9615-1.199 3.0884-1.425l1.8712-58.961c-.3275-.083-.6472-.194-.9555-.333l-49.7175 86.228c-.5646.986-.8613 2.103-.86 3.239.0013 1.137.3004 2.254.8676 3.238.5671.984 1.3822 1.803 2.3639 2.372.9815.57 2.0952.871 3.2296.874h84.8489c-.058-.361-.089-.726-.093-1.091-.003-.764.118-1.523.358-2.248zm46.864-18.94c1.52-.012 3.005.453 4.247 1.33l18.886-16.732c-.472-.872-.761-1.831-.849-2.819l-29.65-4.07c-.505 1.287-1.354 2.41-2.455 3.245l8.454 19.139c.45-.094.907-.147 1.367-.159z" fill="#000"/></svg>