<svg fill="none" height="250" viewBox="0 0 251 250" width="251" xmlns="http://www.w3.org/2000/svg"><rect fill="#00d2ff" height="250" rx="125" width="250" x=".707031"/><path d="m210.063 118.762c0-.292-5.413-3.75-8.253-5.559-1.238-.777-2.367-1.675-3.399-2.695-2.137-2.111-5.68-5.789-6.845-8.059-.74-1.444-.437-4.0533.146-6.5414 1.007-4.3579.242-8.9455-2.112-12.7678l-3.702-6.0332c-1.699-2.7547-3.083-5.692-4.078-8.7749-.887-2.7547-2.731-6.7607-6.481-10.4254-6.021-5.8744-22.697-8.7748-36.545-9.2369-.838-.2429-1.7-.4609-2.61-.6185-6.166-1.0438-12.744-2.7429-18.642-1.6505-8.763 1.6386-17.6241 4.3815-24.2382 11.154-1.3354 1.3709-3.4233 2.0143-4.8549 3.3129-2.8524 2.5734-6.6877 2.5734-9.2125 5.4253-1.4802 1.6635-2.1603 7.1007-6.0443 9.1754-6.4206 3.4478-11.1782 7.2345-12.732 9.1635-1.1763 1.4573-2.0868 3.1564-3.2406 4.6493-1.1645 1.5296-6.6995 4.1019-8.3139 5.7168-1.6013 1.6137-3.7616 5.5464-2.7907 10.1824.0843.425.1698.777.2184 1.056.6304 2.367 2.3539 6.64 1.9539 8.605-.4618 2.319-6.4325 19.626 6.9061 24.238 2.7788.959 3.9563 2.84 4.2602 5.68.2303 2.124.8618 4.308 1.9776 6.664 1.2143 2.56 3.605 3.956 3.7997 4.127.8012.704 4.551 4.623 4.8549 5.182 4.7326 8.75 3.3984 13.12 12.4649 16.094 2.3301.764 4.5629 1.796 6.6627 3.058 3.1919 1.905 6.0812 2.997 8.168 3.617.0854.024.2065.072.3525.121 2.0144-4.867 4.0532-9.479 6.0932-13.823-16.3123-16.726-12.0283-35.478-10.4626-40.49.2065-.643 1.0078-.874 1.517-.425 3.4222 2.997 13.8356 13.824 12.6106 33.353 3.604-7.198 7.1-13.508 10.305-18.91-11.773-19.954-2.999-37.443-.232-42.055.353-.594 1.203-.619 1.591-.036 2.403 3.555 8.92 15.244 4.879 32.078 2.925-4.479 5.303-7.792 6.857-9.867 4.212-27.8191 25.221-36.9458 30.744-38.8878.643-.231 1.31.2796 1.25.9715-.511 5.7524-4.054 27.9033-28.426 39.2873-2.925 3.86-5.752 7.913-8.447 12.088 9.322-7.282 22.381-10.716 33.231-8.083.668.158.959.935.547 1.481-3.119 4.126-15.524 18.06-38.9 14.868-3.956 6.663-7.573 13.399-10.79 19.856 10.098-7.633 24.845-10.559 36.29-6.712.655.218.887 1.044.413 1.554-3.556 3.823-17.234 16.373-39.737 11.397-2.111 4.455-5.256 11.785-6.785 15.401-.5219 1.25-1.0193 2.501-1.4443 3.787-.9947 2.95-2.3419 6.627-3.9314 10.317-.9591 2.221.1816 4.758 2.4512 5.57 9.6245 3.46 20.0025 5.342 30.8165 5.342 8.447 0 16.616-1.141 24.371-3.289 1.214-.341 2.209-1.227 2.694-2.391.376-.899.753-1.748.753-1.748s7.84-18.231 9.006-26.168c.461-3.12 1.359-5.462 2.294-7.162 1.25-2.268 3.568-3.726 6.154-3.859 5.982-.316 18.714-1.152 23.339-2.622 6.153-1.953 3.483-13.168 3.155-14.382-.328-1.213 2.962-4.017 3.642-5.655.679-1.639-1.663-2.197-2.622-4.006-.946-1.808 2.378-3.095 2.852-4.734.474-1.638-1.08-3.435-1.712-4.636-.643-1.201-.873-2.718-.873-2.718s4.503-3.302 6.894-5.377c2.391-2.076 1.954-3.8 1.942-4.2" fill="#000"/></svg>