<svg fill="none" height="250" viewBox="0 0 251 250" width="251" xmlns="http://www.w3.org/2000/svg"><rect fill="#c4541e" height="250" rx="125" width="250" x=".957031"/><g fill="#000"><path d="m185.712 168.308c-9.957-.069-19.913-.138-30.973-.193-7.015-.194-12.927-.403-18.839-.611-.013-1.202-.027-2.404.432-4.17 18.539-.673 36.605-.821 54.671-.848 2.944-.004 5.888.527 8.832.81 1.025 1.533 2.05 3.066 2.3 4.716-5.992.176-11.207.236-16.423.296z"/><path d="m123.421 92.5073c-21.378.4307-42.8225.5318-64.8236.692-1.3542-1.4217-2.1514-2.9025-2.322-4.8998 8.7483-.5857 16.8708-.7591 24.9915-.7002 12.8664.0935 25.7321.3424 38.5971.5255 1.164 1.351 2.327 2.7019 3.557 4.3825z"/><path d="m74.8141 108.864c9.5443.07 19.0885.139 29.7359.188 6.582-.039 12.061-.057 17.541-.075-1.969 1.898-3.937 3.797-6.878 5.673-20.1015.007-39.2302.036-58.3589.065-.4036-1.297-.8071-2.594-.7054-4.502 6.5587-.857 12.6121-1.103 18.6654-1.349z"/><path d="m196.495 133.847c1.978 1.375 3.956 2.75 7.33 5.094-2.934.32-4.018.541-5.103.542-19.164.02-38.328.035-57.492-.013-2.654-.006-6.026.627-4.897-4.549 20.416-.744 40.289-.909 60.162-1.074z"/><path d="m135.906 160.342c.011-1.186.022-2.372.885-3.746 5.319-.513 9.785-.838 14.251-1.163 11.627.003 23.255.005 35.819.343 5.889.466 10.841.596 15.794.726-.828 1.079-1.657 2.158-3.2 3.631-11.191.533-21.667.804-32.143.773-10.469-.031-20.937-.364-31.406-.564z"/><path d="m160.73 108.865c10.861.153 21.722.326 32.583.446 3.47.038 6.364.376 2.918 5.116-17.601.236-34.336.318-51.072.4-2.228-1.65-4.456-3.3-6.12-5.321 7.607-.461 14.649-.551 21.691-.641z"/><path d="m135.831 131.753c-.341-3.403.79-5.025 4.615-4.986 15.648.16 31.306-.174 46.943.275 2.729.078 5.375 3.047 7.426 5.075-13.554.382-26.477.445-39.398.326-6.531-.06-13.058-.45-19.586-.69z"/><path d="m115.26 116.057c-1.158 4.41-4.502 5.639-8.511 5.647-15.4062.031-30.8128.003-46.2193-.033-3.2735-.007-6.3481-.309-3.4064-5.287 19.9557-.319 39.0464-.323 58.1367-.327z"/><path d="m73.4896 57.7058c-4.5504-.0536-9.1215.1196-13.6394-.2917-1.4569-.1326-2.7739-1.803-4.1549-2.7699 1.2993-.8262 2.5906-2.3566 3.8991-2.3714 15.8383-.1791 31.684-.3367 47.5146.0474 2.691.0653 5.319 2.7049 7.506 4.579-14.022.5513-27.5737.679-41.1254.8066z"/><path d="m55.7926 85.5785c-.0473-1.094-.0946-2.188.4862-3.7572 5.4713-.7168 10.3145-.9584 15.5772-1.1466 1.2433-.0772 2.067-.208 2.8907-.3388 9.5034.1501 19.0069.3001 29.5993.5792 6.875-.0013 12.661-.1317 18.448-.262-.794 1.3251-1.589 2.6502-3.151 4.4778-21.795.4842-42.8227.4659-63.8504.4476z"/><path d="m55.7757 64.1509c-.6537-3.3629.6691-4.6523 4.1221-4.4664 4.1581.224 8.3386.0322 13.6163.0135 14.6985-.0678 28.2899-.1287 41.8819-.1897 2.239 1.3515 4.478 2.703 6.308 4.4917-22.2485.3418-44.0884.2464-65.9283.1509z"/><path d="m196.476 115.994c3.308 3.255 2.437 5.57-1.948 5.637-14.034.214-28.08.252-42.103-.199-2.391-.077-4.694-2.894-6.54-4.884 17.196-.477 33.893-.515 50.591-.554z"/><path d="m107.87 163.533c.077-5.593.154-11.186.755-17.287 5.448-.488 10.37-.468 15.293-.447.116 5.679.233 11.359-.059 17.43-5.602.363-10.795.334-15.989.304z"/><path d="m79.519 183.833c6.4033.066 12.8067.133 20.3133.185 7.9087-.055 14.7147-.096 21.5207-.136-.653 4.893-4.21 5.385-8.12 5.385-15.1805.002-30.3609.017-46.481-.005-1.2133.047-1.4868.126-1.7604.205-2.4131-1.469-4.8262-2.937-7.058-4.765 7.316-.531 14.4507-.7 21.5854-.869z"/><path d="m66.4057 191.068h47.8963c.191.729.382 1.459.573 2.188-2.799 1.053-5.571 2.926-8.399 3.013-10.8962.338-21.8226.39-32.7077-.107-2.855-.13-5.6025-2.619-8.1238-4.456.2756-.432.7612-.638.7612-.638z"/><path d="m202.925 156.171c-5.223.201-10.175.071-15.498-.36-.114-4.63.143-8.959.477-14.571 4.442 0 10.001-.094 15.55.117.7.026 1.997 1.734 1.896 2.519-.516 4.013-1.4 7.98-2.425 12.295z"/><path d="m108.077 142.113c-.2-2.492-.66-4.997-.53-7.472.134-2.524.597-7.096 1.348-7.187 4.804-.578 10.042-1.079 14.429.44 1.411.489.717 7.157.901 11.002.036.744-.321 1.506-.976 2.735-5.377.478-10.275.48-15.172.482z"/><path d="m55.8546 142.154c.0034-3.066.6416-6.303-.1246-9.163-1.5008-5.604 1.0412-6.335 5.6854-6.281 12.1707.141 13.0861 1.178 10.1179 14.108-5.4915.897-10.5851 1.117-15.6787 1.336z"/><path d="m136.799 107.496c-.19-3.881-1.204-10.9307-.436-11.1306 5.155-1.3417 10.688-1.2267 14.224-1.4602 3.334 4.9675 5.626 8.3838 7.323 12.2288-7.434.406-14.273.384-21.111.362z"/><path d="m151.134 155.002c-4.561.756-9.027 1.081-14.059 1.37-.636-3.405-.091-6.937-.926-10.105-1.136-4.314.41-5.391 4.226-5.291 2.952.077 5.956-.305 8.84.14 1.428.22 2.64 1.844 3.306 3.019-4.966-.188-9.29-.561-13.614-.935-.03.842-.06 1.684-.089 2.527h13.549c-.379 2.948-.759 5.896-1.233 9.275z"/><path d="m188.396 185.144c.385-3.265.77-6.529 1.574-10.302 4.883-.482 9.346-.454 13.809-.427.359 3.268.717 6.536.493 10.242-5.68.455-10.778.471-15.876.487z"/><path d="m72.1303 152.832c-.0574 2.929-.1148 5.858-.8302 9.202-5.4419.415-10.2258.414-15.0098.414-.0961-2.901-.1923-5.802.19-9.145 5.5357-.451 10.5928-.461 15.65-.471z"/><path d="m71.2298 174.38c2.453 2.37 4.906 4.739 7.1571 7.471-7.3154.519-14.4288.675-21.5422.832.048-2.461.096-4.922.549-7.849 4.8821-.462 9.3591-.458 13.8361-.454z"/><path d="m152.588 63.4239c1.506 6.31-.778 8.6115-7.437 9.3954-8.673 1.0211-9.768.7564-8.728-8.9295 5.791-.5022 10.978-.4841 16.165-.4659z"/><path d="m152.755 82.297c.143 2.7839 1.362 6.1588.22 8.2373-3.024 5.507-8.712 1.7184-13.173 2.4139-1.197.1865-3.526-1.792-3.991-3.2156-.684-2.0939-.16-4.5821.448-7.0134 5.248 3.223 11.93 3.0922 16.496-.4222z"/><path d="m105.968 107.429c.786-2.459 1.572-4.919 2.916-7.8167 5.606-.4402 10.656-.4419 15.705-.4437-.08 2.6484-.16 5.2974-1.137 8.1564-6.427.175-11.956.139-17.484.104z"/><path d="m72.4423 99.2032c.1759 2.3388.3519 4.6778.0097 7.5988-5.8396.569-11.1609.556-16.4823.544.0364-2.383.0728-4.765.6251-7.6638 5.6265-.504 10.737-.4915 15.8475-.479z"/><path d="m56.0479 162.792c5.0347-.343 9.8186-.343 15.0909-.344.6446 2.49.8008 4.983.4018 7.92-5.6058.443-10.6565.443-15.7072.442-.012-2.558-.0241-5.116.2145-8.018z"/><path d="m136.221 185.143c.382-8.332.382-8.332 9.672-8.319 7.649.011 7.649.011 6.051 7.755-5.597.509-10.66.537-15.723.564z"/><path d="m101.584 182.345c1.284-1.587 2.569-3.174 4.614-5.101 6.337-.355 11.914-.37 17.49-.385-.166 1.821-.332 3.643-1.402 5.582-7.503.046-14.103-.025-20.702-.096z"/><path d="m72.3776 152.534c-5.3009.308-10.3581.318-15.9524.313-.5441-2.099-.551-4.184-.0293-6.7 5.5421-.433 10.5556-.435 15.5691-.437.2188 2.176.4376 4.351.4126 6.824z"/><path d="m107.598 163.844c5.47-.281 10.664-.252 16.387-.219.318 2.051.105 4.098-.594 6.623-5.494.467-10.502.455-15.51.443-.186-2.179-.372-4.358-.283-6.847z"/><path d="m55.8745 66.9971c5.5667-.43 10.9994-.4098 16.809-.1184.327 1.493.277 2.7149.26 4.3804.0329.4437.0845.4373.0845.4373-4.0071.4613-8.0202.8768-12.0197 1.3963-4.4458.5774-6.1133-1.3361-5.1338-6.0956z"/><path d="m105.979 67.347c5.001-.6889 10.211-.9894 15.969-1.3782 1.531 1.4076 2.514 2.9034 3.498 4.3992-.417.4953-.834.9906-1.251 1.4859-5.862-2.1338-13.238 3.9501-18.216-4.5069z"/><path d="m152.848 170.009c1.184 4.627-.949 6.021-5.263 5.627-3.695-.338-7.415-.4-11.474-.601-.102-1.234-.209-2.524.198-4.445 5.855-.615 11.197-.598 16.539-.581z"/><path d="m204.631 191.346c.895 2.609.768 4.773-2.666 4.914-3.685.151-7.416.37-11.045-.091-1.064-.135-1.847-2.487-2.107-4.324 5.708-.501 10.763-.5 15.818-.499z"/><path d="m73.1624 72.291c-.1274-.5945-.179-.5881-.1959-.5702.0244 1.6173.0658 3.2167-.0628 5.5069-.6915 1.0123-1.2131 1.3338-2.2354 1.5675-4.9034-.0615-9.3062-.0351-13.7089-.0088-2.5626-3.3488-1.5585-4.7591 2.4785-4.923 4.6229-.1877 9.2351-.6403 13.7245-1.5724z"/><path d="m152.186 191.269c1.816 3.072 1.159 4.964-2.609 5.061-3.556.092-7.17.296-10.646-.258-1.029-.165-1.674-2.733-1.713-4.501 5.511-.302 10.239-.302 14.968-.302z"/><path d="m204.113 174.298c-4.806.089-9.27.062-14.287.057-1.242-1.236-1.931-2.494-2.041-4.137 5.27-.49 9.96-.596 14.651-.701.673 1.554 1.347 3.109 1.677 4.781z"/><path d="m106.365 78.2431c.992-3.2294 2.899-4.8247 6.537-4.3985 2.919.3419 5.924-.1023 8.865.1283 3.733.2927 4.615 1.8934.643 4.7038-5.718.0104-10.436.0068-15.349-.123-.195-.1264-.656-.1859-.667-.2169-.01-.0309-.029-.0937-.029-.0937z"/><path d="m136.861 78.8009c-2.028-2.8119-2.116-4.8197 2.115-4.8811 3.549-.0516 7.099-.0455 10.648 0 3.773.0484 4.671 1.5946 1.393 4.7689-5.344.0782-9.75.0952-14.156.1122z"/><path d="m149.365 52.3724c1.556 1.1355 2.585 2.2529 3.613 3.3703-1.092.5919-2.157 1.6237-3.282 1.6941-3.518.2204-7.077.2738-10.582-.0333-1.181-.1034-2.251-1.4792-3.371-2.2734 1.225-.9179 2.369-2.4582 3.691-2.6287 3.089-.3985 6.263-.1397 9.931-.129z"/><path d="m107.626 170.967c5.257-.264 10.265-.252 15.858-.274.613 1.319.641 2.671-.11 4.291-5.887-.079-10.995-.427-16.103-.774.035-.989.07-1.978.355-3.243z"/><path d="m107.792 142.322c5.187-.211 10.084-.213 15.552-.237.759 1.067.948 2.156.857 3.48-5.202.213-10.125.193-15.613.188-.739-1.064-.912-2.143-.796-3.431z"/><path d="m136.059 185.526c5.227-.41 10.29-.438 15.922-.485.667 1.08.765 2.18.083 3.561-5.645.313-10.51.344-15.374.376-.265-1.023-.531-2.046-.631-3.452z"/><path d="m72.6451 98.8461c-5.3154.3446-10.4259.3321-16.0624.3165-.655-.8255-.784-1.6477-.8669-2.8948 4.7226-.6095 9.4061-.9929 14.0701-.8274 1.0561.0374 2.0446 1.9819 2.8592 3.4057z"/><path d="m124.741 98.7365c-5.193.4338-10.242.4355-15.83.4338-.966-1.0231-1.392-2.0426-2.2-3.9745 5.793 0 10.84 0 16.44-.0452.947 1.0212 1.34 2.0876 1.59 3.5859z"/><path d="m72.1843 145.275c-5.2324.437-10.2459.439-15.7985.44-.6659-.906-.7929-1.811-.725-3.138 5.2884-.642 10.382-.862 15.8888-1.298.5599 1.043.7068 2.302.6347 3.996z"/><path d="m55.665 171.206c5.2122-.395 10.2629-.395 15.8429-.386.5197 1.081.5101 2.153.1128 3.393-4.8647.163-9.3417.159-14.383.181-.9542-.913-1.3442-1.853-1.5727-3.188z"/><path d="m152.722 62.8959c-5.327.5098-10.514.4916-16.232.4618-.569-.7763-.942-1.7931-.588-2.2638 2.045-2.7231 14.689-1.7064 16.82 1.802z"/><path d="m188.248 185.554c5.242-.426 10.339-.442 15.987-.45.631.895.712 1.781.137 3.188-5.827.437-10.997.354-16.168.271-.033-.866-.067-1.732.044-3.009z"/><path d="m152.717 82.0042c-4.521 3.8072-11.203 3.9379-16.314.3267-.387-.4944-.312-.7116.568-1.1182 5.668-.1287 10.53-.068 15.392-.0073 0 0 .308.5061.354.7988z"/><path d="m107.253 78.68c4.718.0036 9.436.0071 14.696.111.599.4947.655.8891.782 1.5727-5.717.4197-11.504.5501-17.841.4939-.55-.1864-.456-.5838-.08-.751.375-.1671.962-.2388 1.284-.3228.601-.4239.88-.7638 1.159-1.1038z"/><path d="m188.213 189.043c5.162-.397 10.333-.314 16.052-.311.51.518.472 1.117.4 2.165-5.089.448-10.144.448-15.73.494-.592-.591-.653-1.229-.722-2.348z"/><path d="m136.729 189.353c4.83-.407 9.695-.438 15.119-.477.501.525.441 1.057.362 1.991-4.749.402-9.477.402-14.75.38-.594-.521-.645-1.02-.731-1.894z"/><path d="m152.229 80.9105c-4.737.2344-9.599.1737-15.024.0583-.494-.5225-.426-.9903-.354-1.8129 4.411-.3718 8.817-.3888 13.767-.3058.859.6551 1.172 1.2102 1.611 2.0604z"/><path d="m152.562 145.519c-4.713.207-9.23.207-13.747.207.03-.842.06-1.684.09-2.526 4.324.373 8.648.747 13.465 1.335.494.215.389.777.192.984z"/><path d="m56.8648 79.143c4.5001-.383 8.9028-.4093 13.7977-.0516.6288.7559.7258 1.1379.783 1.5299-4.8431.2416-9.6863.4832-15.0713.7975-.2302-.5913.0815-1.2553.4906-2.2758z"/></g><path d="m228.75 56.5534c.749.5498 1.493 1.5264 2.281 2.8743-.733-.5683-1.509-1.5079-2.281-2.8743z" fill="#060607"/><path d="m226.35 52.9742c.778.53 1.56 1.4928 2.386 2.8285-.765-.5499-1.574-1.4728-2.386-2.8285z" fill="#060607"/><g fill="#000"><path d="m66.412 190.801c-.0063.267-.4919.473-.7549.494-.3437-.392-.4243-.805-.5829-1.524.1957-.384.4692-.463 1.1496-.41.3481.481.2773.829.1882 1.44z"/><path d="m105.771 79.8677s-.587.0717-.881.0513c.073-.412.441-.8038 1.14-1.4358.331-.2402.35-.1774.163.2138-.266.651-.344.9108-.422 1.1707z"/><path d="m106.093 79.7838c-.243-.1759-.165-.4358.111-1.0558.197-.3602.658-.3006.854-.1743-.084.4663-.364.8062-.965 1.2301z"/></g></svg>