<svg fill="none" height="250" viewBox="0 0 251 250" width="251" xmlns="http://www.w3.org/2000/svg" xmlns:xlink="http://www.w3.org/1999/xlink"><clipPath id="a"><path d="m.957031 0h250v250h-250z"/></clipPath><clipPath id="b"><path d="m73.873 20.8333h104.167v197.917h-104.167z"/></clipPath><g clip-path="url(#a)"><path clip-rule="evenodd" d="m125.957 0c68.945 0 125 55.957 125 124.902 0 68.946-56.055 124.903-125 124.903-68.9453 0-124.999969-55.957-124.999969-124.903 0-68.945 56.054669-124.902 124.999969-124.902z" fill="#1b1b1b" fill-rule="evenodd"/><g clip-path="url(#b)"><path d="m108.417 151.111c0-2.529-1.796-4.19-4.015-3.703l-26.5149 5.822c-2.2184.487-4.0141 2.937-4.0141 5.466v55.812c0 2.535 1.7957 4.197 4.0141 3.71l26.5149-5.822c2.219-.487 4.015-2.938 4.015-5.473z" fill="#fff"/><path d="m177.509 24.7332c0-2.5293-1.797-4.1905-4.015-3.7034l-26.515 5.8221c-2.218.4871-4.014 2.9372-4.014 5.4665v55.8119c0 2.535 1.796 4.1966 4.014 3.7095l26.515-5.8221c2.218-.4871 4.015-2.9375 4.015-5.4726z" fill="#5a5a5a"/><path d="m114.975 37.9303c-.988-2.5281-3.834-4.1552-6.36-3.6385l-30.1943 6.176c-2.5263.5168-3.7713 2.9807-2.783 5.5087l60.7123 155.2935c.989 2.528 3.839 4.17 6.365 3.653l30.195-6.176c2.526-.517 3.766-2.996 2.778-5.524z" fill="#fff"/></g></g></svg>