<svg fill="none" height="250" viewBox="0 0 250 250" width="250" xmlns="http://www.w3.org/2000/svg" xmlns:xlink="http://www.w3.org/1999/xlink"><clipPath id="a"><path d="m0 0h250v250h-250z"/></clipPath><g clip-path="url(#a)"><circle cx="125" cy="125" fill="#fff" r="125"/><g clip-rule="evenodd" fill="#046" fill-rule="evenodd"><path d="m93.0308 176.029c-9.3247 7.109-18.6464 14.215-27.9678 21.322-20.6643-17.228-33.8142-43.165-33.8142-72.173 0-17.079 4.5571-33.0918 12.5249-46.8928l42.7795 55.9618-15.8709 16.518c1.8431 3.741 4.6156 8.444 8.7453 13.28 4.8129 5.635 9.7846 9.48 13.6032 11.984z"/><path d="m176.027 157.324c7.11 9.325 14.216 18.647 21.322 27.968-17.227 20.665-43.165 33.815-72.172 33.815-17.079 0-33.0923-4.558-46.8931-12.525l55.9621-42.78 16.518 15.871c3.741-1.843 8.444-4.615 13.279-8.745 5.636-4.813 9.481-9.785 11.984-13.604z"/><path d="m157.324 74.3273c9.325-7.1093 18.646-14.2154 27.968-21.3214 20.664 17.2275 33.814 43.1646 33.814 72.1721 0 17.079-4.557 33.092-12.525 46.893l-42.779-55.962 15.87-16.5182c-1.843-3.7407-4.615-8.4436-8.745-13.2793-4.813-5.6357-9.784-9.4803-13.603-11.9842z"/><path d="m74.3256 93.0323c-7.1093-9.3249-14.2156-18.6464-21.3217-27.9681 17.2278-20.6642 43.1649-33.8142 72.1731-33.8142 17.078 0 33.092 4.5571 46.892 12.5249l-55.961 42.7796-16.5189-15.8707c-3.741 1.8429-8.4439 4.6154-13.2796 8.745-5.6357 4.8131-9.48 9.7849-11.9839 13.6035z"/></g></g></svg>