<svg width="250" height="250" viewBox="0 0 250 250" fill="none" xmlns="http://www.w3.org/2000/svg">
<g clip-path="url(#clip0_7_351)">
<circle cx="125" cy="125" r="125" fill="white"/>
<path fill-rule="evenodd" clip-rule="evenodd" d="M93.0308 176.029C83.7061 183.138 74.3844 190.244 65.063 197.351C44.3987 180.123 31.2488 154.186 31.2488 125.178C31.2488 108.099 35.8059 92.0862 43.7737 78.2852L86.5532 134.247L70.6823 150.765C72.5254 154.506 75.2979 159.209 79.4276 164.045C84.2405 169.68 89.2122 173.525 93.0308 176.029Z" fill="#004466"/>
<path fill-rule="evenodd" clip-rule="evenodd" d="M176.027 157.324C183.137 166.649 190.243 175.971 197.349 185.292C180.122 205.957 154.184 219.107 125.177 219.107C108.098 219.107 92.0847 214.549 78.2839 206.582L134.246 163.802L150.764 179.673C154.505 177.83 159.208 175.058 164.043 170.928C169.679 166.115 173.524 161.143 176.027 157.324Z" fill="#004466"/>
<path fill-rule="evenodd" clip-rule="evenodd" d="M157.324 74.3273C166.649 67.218 175.97 60.1119 185.292 53.0059C205.956 70.2334 219.106 96.1705 219.106 125.178C219.106 142.257 214.549 158.27 206.581 172.071L163.802 116.109L179.672 99.5908C177.829 95.8501 175.057 91.1472 170.927 86.3115C166.114 80.6758 161.143 76.8312 157.324 74.3273Z" fill="#004466"/>
<path fill-rule="evenodd" clip-rule="evenodd" d="M74.3256 93.0323C67.2163 83.7074 60.11 74.3859 53.0039 65.0642C70.2317 44.4 96.1688 31.25 125.177 31.25C142.255 31.25 158.269 35.8071 172.069 43.7749L116.108 86.5545L99.5891 70.6838C95.8481 72.5267 91.1452 75.2992 86.3095 79.4288C80.6738 84.2419 76.8295 89.2137 74.3256 93.0323Z" fill="#004466"/>
</g>
<defs>
<clipPath id="clip0_7_351">
<rect width="250" height="250" fill="white"/>
</clipPath>
</defs>
</svg>
