<svg fill="none" height="250" viewBox="0 0 250 250" width="250" xmlns="http://www.w3.org/2000/svg" xmlns:xlink="http://www.w3.org/1999/xlink"><clipPath id="a"><path d="m0 0h250v250h-250z"/></clipPath><g clip-path="url(#a)"><path d="m124.95 250.1c69.05 0 125.05-56 125.05-125.05 0-69.0502-56-125.0001953-125.05-125.0001953-69.0501 0-125.050098 55.9499953-125.050098 125.0501953 0 69.05 55.999998 125 125.050098 125z" fill="#111821"/><path clip-rule="evenodd" d="m72.1501 167c-3.75-2.3-6.05-6.35-6.05-10.75v-24.45c0-.95.25-1.85.7-2.65 1.45-2.5 4.7-3.35 7.2-1.9l55.1499 32.15c3.2 1.9 5.2 5.35 5.2 9.05v25.3c0 1.15-.3 2.3-.9 3.3-1.8 2.95-5.7 3.9-8.65 2.1zm82.1999-46.4c3.2 1.9 5.2 5.35 5.2 9.05v51.35c0 1.5-.8 2.9-2.15 3.65l-12.05 6.85c-.15.1-.3.15-.5.2v-28.5c0-3.7-1.95-7.1-5.1-9l-48.3999-28.95v-32.2502c0-.95.25-1.85.7-2.65 1.45-2.5 4.7-3.35 7.2-1.9zm24.1-37.9002c3.25 1.85 5.25 5.35 5.25 9.1v75.0002c0 1.55-.85 2.95-2.2 3.7l-11.45 6.2v-52.25c0-3.7-1.95-7.1-5.1-9l-49.5-29.7002v-30.55c0-.95.25-1.85.7-2.65 1.45-2.5 4.7-3.35 7.2-1.9z" fill="#00d395" fill-rule="evenodd"/></g></svg>