<svg width="250" height="250" viewBox="0 0 250 250" fill="none" xmlns="http://www.w3.org/2000/svg">
<g clip-path="url(#clip0_50_11673)">
<path d="M125 250C194.036 250 250 194.036 250 125C250 55.9644 194.036 0 125 0C55.9644 0 0 55.9644 0 125C0 194.036 55.9644 250 125 250Z" fill="#6C8791"/>
<path fill-rule="evenodd" clip-rule="evenodd" d="M130.208 64.0599C98.5093 64.0599 74.4793 87.5636 74.4793 114.581C74.4793 141.598 98.5093 165.102 130.208 165.102C161.908 165.102 185.938 141.598 185.938 114.581C185.938 87.5636 161.908 64.0599 130.208 64.0599ZM50.521 114.581C50.521 72.5623 87.1192 40.1016 130.208 40.1016C173.298 40.1016 209.896 72.5623 209.896 114.581C209.896 156.599 173.298 189.06 130.208 189.06C87.1192 189.06 50.521 156.599 50.521 114.581Z" fill="white"/>
<path d="M62.5 166.664H114.583V187.497H62.5V166.664Z" fill="white"/>
<path d="M145.833 166.664H197.917V187.497H145.833V166.664Z" fill="white"/>
<rect x="114.583" y="156.25" width="31.25" height="41.6667" fill="#6C8791"/>
</g>
<defs>
<clipPath id="clip0_50_11673">
<rect width="250" height="250" fill="white"/>
</clipPath>
</defs>
</svg>
