<svg fill="none" height="250" viewBox="0 0 250 250" width="250" xmlns="http://www.w3.org/2000/svg" xmlns:xlink="http://www.w3.org/1999/xlink"><clipPath id="a"><path d="m0 0h250v250h-250z"/></clipPath><g clip-path="url(#a)"><path d="m125 250c69.036 0 125-55.964 125-125 0-69.0356-55.964-125-125-125-69.0356 0-125 55.9644-125 125 0 69.036 55.9644 125 125 125z" fill="#6c8791"/><g fill="#fff"><path clip-rule="evenodd" d="m130.208 64.0599c-31.6987 0-55.7287 23.5037-55.7287 50.5211 0 27.017 24.03 50.521 55.7287 50.521 31.7 0 55.73-23.504 55.73-50.521 0-27.0174-24.03-50.5211-55.73-50.5211zm-79.687 50.5211c0-42.0187 36.5982-74.4794 79.687-74.4794 43.09 0 79.688 32.4607 79.688 74.4794 0 42.018-36.598 74.479-79.688 74.479-43.0888 0-79.687-32.461-79.687-74.479z" fill-rule="evenodd"/><path d="m62.5 166.664h52.083v20.833h-52.083z"/><path d="m145.833 166.664h52.084v20.833h-52.084z"/></g><path d="m114.583 156.25h31.25v41.6667h-31.25z" fill="#6c8791"/></g></svg>