<svg fill="none" height="250" viewBox="0 0 250 250" width="250" xmlns="http://www.w3.org/2000/svg" xmlns:xlink="http://www.w3.org/1999/xlink"><linearGradient id="a" gradientUnits="userSpaceOnUse" x1="171.414" x2="171.414" y1="219.962" y2="36.0218"><stop offset="0" stop-color="#002d72"/><stop offset="1" stop-color="#002d72" stop-opacity="0"/></linearGradient><linearGradient id="b" gradientUnits="userSpaceOnUse" x1="70.4717" x2="70.4717" y1="219.962" y2="36.0217"><stop offset="0" stop-color="#002d72" stop-opacity="0"/><stop offset="1" stop-color="#002d72"/></linearGradient><path d="m120.943 11.375-100.9418 58.4492v116.9068l100.9418 58.454 100.941-58.454v-116.9068z" fill="#fff"/><path d="m160.705 199.432h-14.315l-17.144-15.831v-8.047l17.782-17.108v-26.997l23.26-15.184 26.542 20.035zm-59.372-42.639 2.644-25.436-8.6625-22.686h51.4395l-8.48 22.686 2.462 25.346-19.793.09zm11.672 26.808-17.1436 16.015h-14.5054l-36.2944-63.316 26.6273-19.851 23.5338 15v26.997l17.7823 17.108zm-31.9163-121.687h79.4393l9.578 40.622h-98.2348zm39.8543-50.539-100.942 58.4492v116.9068l100.942 58.454 100.943-58.454v-116.9068z" fill="#002d72"/><path d="m160.705 199.432h-14.316l-17.144-15.831v-8.048l17.784-17.109v-26.996l23.26-15.183 26.542 20.035zm-39.762-188.057v50.5376h39.585l9.578 40.6214h-49.163v6.136h25.812l-8.482 22.687 2.462 25.346-19.792.09v88.392l100.942-58.456v-116.9062z" fill="url(#a)"/><path d="m113.006 183.601-17.1442 16.014h-14.5054l-36.2944-63.315 26.6259-19.852 23.5338 15v26.996l17.7843 17.109zm-11.674-26.808 2.644-25.436-8.6611-22.687h25.6281v-6.136h-49.0714l9.2175-40.6214h39.8539v-50.5376l-100.943 58.4478v116.9062l100.943 58.456v-88.392z" fill="url(#b)"/></svg>