<svg width="250" height="250" viewBox="0 0 250 250" fill="none" xmlns="http://www.w3.org/2000/svg">
<path d="M120.943 11.375L20.0012 69.8242V186.731L120.943 245.185L221.884 186.731V69.8242L120.943 11.375Z" fill="white"/>
<path d="M160.705 199.432H146.39L129.246 183.601V175.554L147.028 158.446V131.449L170.288 116.265L196.83 136.3L160.705 199.432ZM101.333 156.793L103.977 131.357L95.3145 108.671H146.754L138.274 131.357L140.736 156.703L120.943 156.793H101.333ZM113.005 183.601L95.8614 199.616H81.356L45.0616 136.3L71.6889 116.449L95.2227 131.449V158.446L113.005 175.554V183.601ZM81.0887 61.914H160.528L170.106 102.536H71.8712L81.0887 61.914ZM120.943 11.375L20.001 69.8242V186.731L120.943 245.185L221.886 186.731V69.8242L120.943 11.375Z" fill="#002D72"/>
<path style="mix-blend-mode:multiply" d="M160.705 199.432H146.389L129.245 183.601V175.553L147.029 158.444V131.448L170.289 116.265L196.831 136.3L160.705 199.432ZM120.943 11.375V61.9126H160.528L170.106 102.534H120.943V108.67H146.755L138.273 131.357L140.735 156.703L120.943 156.793V245.185L221.885 186.729V69.8228L120.943 11.375Z" fill="url(#paint0_linear_30_622)"/>
<path style="mix-blend-mode:multiply" d="M113.006 183.601L95.8618 199.615H81.3564L45.062 136.3L71.6879 116.448L95.2217 131.448V158.444L113.006 175.553V183.601ZM101.332 156.793L103.976 131.357L95.3149 108.67H120.943V102.534H71.8716L81.0891 61.9126H120.943V11.375L20 69.8228V186.729L120.943 245.185V156.793H101.332Z" fill="url(#paint1_linear_30_622)"/>
<defs>
<linearGradient id="paint0_linear_30_622" x1="171.414" y1="219.962" x2="171.414" y2="36.0218" gradientUnits="userSpaceOnUse">
<stop stop-color="#002D72"/>
<stop offset="1" stop-color="#002D72" stop-opacity="0"/>
</linearGradient>
<linearGradient id="paint1_linear_30_622" x1="70.4717" y1="219.962" x2="70.4717" y2="36.0217" gradientUnits="userSpaceOnUse">
<stop stop-color="#002D72" stop-opacity="0"/>
<stop offset="1" stop-color="#002D72"/>
</linearGradient>
</defs>
</svg>
