<svg fill="none" height="250" viewBox="0 0 250 250" width="250" xmlns="http://www.w3.org/2000/svg" xmlns:xlink="http://www.w3.org/1999/xlink"><clipPath id="a"><path d="m0 0h250v249.999h-250z"/></clipPath><g clip-path="url(#a)"><path d="m125 249.999c69.036 0 125-55.964 125-124.999 0-69.0358-55.964-125-125-125-69.0356 0-125 55.9642-125 125 0 69.035 55.9644 124.999 125 124.999z" fill="#f0b90b"/><g fill="#fff"><path d="m117.362 31.2499 22.441 22.8248-56.507 56.1223-22.4405-22.2878z"/><path d="m155.762 60.855 23.515 23.9661-94.9073 94.4549-23.5142-23.403z"/><path d="m195.236 100.329 23.514 23.966-94.907 94.454-23.514-23.402z"/><path d="m50.9868 100.329 19.7369 19.971-19.7369 19.502-19.7368-19.502z"/></g></g></svg>