<svg fill="none" height="250" viewBox="0 0 251 250" width="251" xmlns="http://www.w3.org/2000/svg" xmlns:xlink="http://www.w3.org/1999/xlink"><clipPath id="a"><path d="m42.625 41.6667h166.667v166.667h-166.667z"/></clipPath><rect fill="#39d0de" height="250" rx="125" width="250" x=".958008"/><g clip-path="url(#a)"><path clip-rule="evenodd" d="m72.5935 67.7083c-2.6289-13.5416 7.8864-26.0416 21.5562-26.0416 12.0923 0 22.0823 9.8958 22.0823 21.875v27.0833c3.154 0 6.309-.5208 9.463-.5208 3.155 0 5.784 0 8.938.5208v-27.0833c0-11.9792 9.99-21.875 22.082-21.875 13.67 0 24.186 12.5 22.082 26.0416l-5.783 31.7709c20.505 8.8538 36.278 24.4788 36.278 43.7498v11.979c0 16.146-10.516 29.688-25.763 38.542-15.247 9.375-35.226 14.583-57.834 14.583-22.607 0-42.5863-5.208-57.8334-14.583-14.7214-8.854-25.2366-22.396-25.2366-38.542v-11.979c0-19.271 15.2471-34.896 35.7518-43.7498zm92.5345 35.9377 6.835-37.5002c1.577-9.375-5.258-18.2291-15.248-18.2291-8.412 0-15.247 6.7708-15.247 15.1041v34.375c-2.103-.5208-4.732-.5208-6.835-.5208-3.154 0-5.783-.5208-8.938-.5208-3.154 0-6.309 0-9.463.5208-2.103 0-4.732.5208-6.835.5208v-33.8541c0-8.3334-6.835-15.1042-15.2473-15.1042-9.4637 0-16.8244 8.8542-14.7213 18.2292l6.8349 37.5003c-22.082 8.333-36.8034 22.916-36.8034 39.583v11.979c0 25.521 34.1746 46.354 76.2351 46.354 42.061 0 76.236-20.833 76.236-46.354v-11.979c.526-17.187-14.196-31.771-36.803-40.104z" fill="#633001" fill-rule="evenodd"/><path d="m202.46 155.208c0 25.521-34.174 46.355-76.235 46.355-42.0612 0-76.2357-20.834-76.2357-46.355v-11.979h152.9967v11.979z" fill="#fedc90"/><path clip-rule="evenodd" d="m79.4319 66.6666c-2.103-9.375 5.2577-18.2292 14.7214-18.2292 8.4117 0 15.2467 6.7709 15.2467 15.1042v34.375c5.258-.5208 10.516-1.0417 16.299-1.0417 5.258 0 10.515.5209 15.773 1.0417v-34.375c0-8.3333 6.835-15.1042 15.247-15.1042 9.464 0 16.824 8.8542 15.247 18.2292l-6.835 37.5004c22.082 8.333 37.329 22.916 37.329 39.583 0 25.521-34.174 46.354-76.235 46.354-42.0612 0-76.2357-20.833-76.2357-46.354 0-16.667 14.7213-31.25 36.8033-39.583z" fill="#d1884f" fill-rule="evenodd"/><g fill="#633001"><path d="m104.666 140.104c0 6.771-3.68 12.5-8.412 12.5-4.7319 0-8.4122-5.729-8.4122-12.5s3.6803-12.5 8.4122-12.5c4.732 0 8.412 5.729 8.412 12.5z"/><path d="m163.026 140.104c0 6.771-3.681 12.5-8.413 12.5-4.731 0-8.412-5.729-8.412-12.5s3.681-12.5 8.412-12.5c4.732 0 8.413 5.729 8.413 12.5z"/></g></g></svg>