<svg width="24" height="24" fill="none" xmlns="http://www.w3.org/2000/svg"><g clip-path="url(#a)"><g clip-path="url(#b)"><mask id="c" style="mask-type:luminance" maskUnits="userSpaceOnUse" x="0" y="0" width="24" height="24"><path d="M12 24C5.372 24 0 18.628 0 12S5.372 0 12 0s12 5.372 12 12-5.372 12-12 12Z" fill="#fff"/></mask><g mask="url(#c)" fill-rule="evenodd" clip-rule="evenodd"><path d="m12 12-16.973-.105.016-.624L12 12Z" fill="#FEFEFF"/><path d="m12 12-16.96-.625.026-.52L12 12Z" fill="#FDFEFF"/><path d="m12 12-16.94-1.04.038-.52L12 12Z" fill="#FCFDFF"/><path d="m12 12-16.91-1.456.051-.519L12 12Z" fill="#FBFCFF"/><path d="m12 12-16.868-1.871.063-.517L12 12Z" fill="#FAFCFF"/><path d="M12 12-4.817 9.716l.076-.515L12 12Z" fill="#F9FBFF"/><path d="M12 12-4.756 9.303l.088-.512L12 12Z" fill="#F8FAFF"/><path d="M12 12-4.685 8.893l.101-.51L12 12Z" fill="#F7FAFF"/><path d="M12 12-4.604 8.485l.114-.508L12 12Z" fill="#F6F9FF"/><path d="M12 12-4.513 8.078l.127-.505L12 12Z" fill="#F5F8FF"/><path d="M12 12-4.411 7.674l.138-.502L12 12Z" fill="#F4F8FF"/><path d="M12 12-4.3 7.273l.15-.498L12 12Z" fill="#F3F7FF"/><path d="M12 12-4.18 6.875l.164-.495L12 12Z" fill="#F2F6FF"/><path d="M12 12-4.05 6.479l.176-.49L12 12Z" fill="#F1F6FF"/><path d="M12 12-3.908 6.086l.187-.485L12 12Z" fill="#F0F5FF"/><path d="M12 12-3.758 5.698l.198-.481L12 12Z" fill="#EFF4FF"/><path d="M12 12-3.6 5.313l.212-.476L12 12Z" fill="#EEF3FF"/><path d="M12 12-3.43 4.932l.223-.47L12 12Z" fill="#EDF3FF"/><path d="M12 12-3.252 4.556l.234-.465L12 12Z" fill="#ECF2FF"/><path d="M12 12-3.065 4.184l.245-.46L12 12Z" fill="#EBF1FF"/><path d="M12 12-2.869 3.817l.257-.454L12 12Z" fill="#EAF1FF"/><path d="M12 12-2.663 3.454l.268-.446L12 12Z" fill="#E9F0FF"/><path d="M12 12-2.449 3.097l.278-.44L12 12Z" fill="#E8EFFF"/><path d="M12 12-2.226 2.745l.29-.433L12 12Z" fill="#E7EFFF"/><path d="M12 12-1.995 2.398l.3-.425L12 12Z" fill="#E6EEFF"/><path d="M12 12-1.755 2.058l.31-.418L12 12Z" fill="#E5EDFF"/><path d="M12 12-1.507 1.723l.32-.41L12 12Z" fill="#E4EDFF"/><path d="M12 12-1.25 1.395l.33-.402L12 12Z" fill="#E3ECFF"/><path d="M12 12-.986 1.073l.34-.394L12 12Z" fill="#E2EBFF"/><path d="M12 12-.714.757l.35-.385L12 12Z" fill="#E1EBFF"/><path d="M12 12-.435.45l.36-.378L12 12Z" fill="#E0EAFF"/><path d="M12 12-.148.148l.369-.369L12 12Z" fill="#DFE9FF"/><path d="M12 12 .148-.148l.376-.358L12 12Z" fill="#DEE9FF"/><path d="M12 12 .45-.435l.385-.35L12 12Z" fill="#DDE8FF"/><path d="M12 12 .757-.714l.395-.34L12 12Z" fill="#DCE7FF"/><path d="M12 12 1.073-.986l.403-.33L12 12Z" fill="#DBE7FF"/><path d="M12 12 1.395-1.25l.41-.32L12 12Z" fill="#DAE6FF"/><path d="M12 12 1.723-1.507l.419-.31L12 12Z" fill="#D9E5FF"/><path d="M12 12 2.058-1.755l.426-.3L12 12Z" fill="#D8E5FF"/><path d="M12 12 2.398-1.995l.433-.289L12 12Z" fill="#D7E4FF"/><path d="M12 12 2.745-2.226l.44-.279L12 12Z" fill="#D6E3FF"/><path d="M12 12 3.097-2.449l.446-.268L12 12Z" fill="#D5E3FF"/><path d="M12 12 3.454-2.663l.453-.256L12 12Z" fill="#D4E2FF"/><path d="M12 12 3.817-2.869l.459-.245L12 12Z" fill="#D3E1FF"/><path d="M12 12 4.184-3.065l.465-.234L12 12Z" fill="#D2E0FF"/><path d="M12 12 4.556-3.252l.47-.222L12 12Z" fill="#D1E0FF"/><path d="M12 12 4.932-3.43l.477-.211L12 12Z" fill="#D0DFFF"/><path d="M12 12 5.313-3.6l.482-.199L12 12Z" fill="#CFDEFF"/><path d="M12 12 5.698-3.758l.486-.188L12 12Z" fill="#CEDEFF"/><path d="M12 12 6.086-3.908l.49-.176L12 12Z" fill="#CDDDFF"/><path d="M12 12 6.479-4.05l.494-.162L12 12Z" fill="#CCDCFF"/><path d="M12 12 6.875-4.18l.498-.15L12 12Z" fill="#CBDCFF"/><path d="M12 12 7.273-4.3l.502-.14L12 12Z" fill="#CADBFF"/><path d="M12 12 7.674-4.411l.505-.127L12 12Z" fill="#C9DAFF"/><path d="M12 12 8.078-4.513l.508-.113L12 12Z" fill="#C8DAFF"/><path d="M12 12 8.485-4.604l.51-.101L12 12Z" fill="#C7D9FF"/><path d="M12 12 8.893-4.685l.513-.09L12 12Z" fill="#C6D8FF"/><path d="M12 12 9.303-4.756l.516-.077L12 12Z" fill="#C5D8FF"/><path d="M12 12 9.716-4.817l.517-.064L12 12Z" fill="#C4D7FF"/><path d="M12 12 10.129-4.868l.518-.051L12 12Z" fill="#C3D6FF"/><path d="M12 12 10.544-4.91l.519-.038L12 12Z" fill="#C2D6FF"/><path d="M12 12 10.96-4.94l.52-.025L12 12Z" fill="#C1D5FF"/><path d="m12 12-.625-16.96.52-.013L12 12Z" fill="#C0D4FF"/><path d="m12 12-.208-16.97h.52L12 12Z" fill="#BFD4FF"/><path d="m12 12 .208-16.97.52.013L12 12Z" fill="#BED3FF"/><path d="m12 12 .625-16.96.52.026L12 12Z" fill="#BDD2FF"/><path d="m12 12 1.04-16.94.52.038L12 12Z" fill="#BCD2FF"/><path d="m12 12 1.456-16.91.519.051L12 12Z" fill="#BBD1FF"/><path d="m12 12 1.87-16.868.518.063L12 12Z" fill="#BAD0FF"/><path d="m12 12 2.284-16.817.515.076L12 12Z" fill="#B9D0FF"/><path d="m12 12 2.696-16.756.513.088L12 12Z" fill="#B8CFFF"/><path d="m12 12 3.107-16.685.51.101L12 12Z" fill="#B7CEFF"/><path d="m12 12 3.515-16.604.508.114L12 12Z" fill="#B6CDFF"/><path d="m12 12 3.922-16.513.505.127L12 12Z" fill="#B5CDFF"/><path d="m12 12 4.326-16.411.5.138L12 12Z" fill="#B4CCFF"/><path d="m12 12 4.727-16.3.498.15L12 12Z" fill="#B3CBFF"/><path d="m12 12 5.125-16.18.495.164L12 12Z" fill="#B2CBFF"/><path d="m12 12 5.521-16.05.49.176L12 12Z" fill="#B1CAFF"/><path d="m12 12 5.914-15.908.485.187L12 12Z" fill="#B0C9FF"/><path d="m12 12 6.301-15.758.482.198L12 12Z" fill="#AFC9FF"/><path d="m12 12 6.686-15.6.477.212L12 12Z" fill="#AEC8FF"/><path d="m12 12 7.067-15.43.47.223L12 12Z" fill="#ADC7FF"/><path d="m12 12 7.444-15.252.465.234L12 12Z" fill="#ACC7FF"/><path d="m12 12 7.816-15.065.46.245L12 12Z" fill="#ABC6FF"/><path d="m12 12 8.183-14.869.454.257L12 12Z" fill="#AAC5FF"/><path d="m12 12 8.546-14.663.446.268L12 12Z" fill="#A9C5FF"/><path d="m12 12 8.903-14.449.44.278L12 12Z" fill="#A8C4FF"/><path d="m12 12 9.255-14.226.433.29L12 12Z" fill="#A7C3FF"/><path d="m12 12 9.602-13.995.425.3L12 12Z" fill="#A6C3FF"/><path d="m12 12 9.942-13.755.418.31L12 12Z" fill="#A5C2FF"/><path d="M12 12 22.277-1.507l.41.32L12 12Z" fill="#A4C1FF"/><path d="M12 12 22.605-1.25l.402.33L12 12Z" fill="#A3C1FF"/><path d="M12 12 22.927-.986l.394.34L12 12Z" fill="#A2C0FF"/><path d="M12 12 23.243-.714l.386.35L12 12Z" fill="#A1BFFF"/><path d="M12 12 23.55-.435l.378.36L12 12Z" fill="#A0BFFF"/><path d="M12 12 23.852-.148l.369.369L12 12Z" fill="#9FBEFF"/><path d="M12 12 24.147.148l.359.376L12 12Z" fill="#9EBDFF"/><path d="M12 12 24.435.45l.35.385L12 12Z" fill="#9DBDFF"/><path d="M12 12 24.714.757l.34.395L12 12Z" fill="#9CBCFF"/><path d="M12 12 24.986 1.073l.33.403L12 12Z" fill="#9BBBFF"/><path d="M12 12 25.25 1.395l.32.41L12 12Z" fill="#9ABAFF"/><path d="M12 12 25.507 1.723l.31.419L12 12Z" fill="#99BAFF"/><path d="m12 12 13.755-9.942.3.426L12 12Z" fill="#98B9FF"/><path d="m12 12 13.995-9.602.289.433L12 12Z" fill="#97B8FF"/><path d="m12 12 14.226-9.255.279.44L12 12Z" fill="#96B8FF"/><path d="m12 12 14.449-8.903.268.446L12 12Z" fill="#95B7FF"/><path d="m12 12 14.663-8.546.256.453L12 12Z" fill="#94B6FF"/><path d="m12 12 14.869-8.183.244.459L12 12Z" fill="#93B6FF"/><path d="m12 12 15.064-7.816.235.465L12 12Z" fill="#92B5FF"/><path d="m12 12 15.253-7.444.221.47L12 12Z" fill="#91B4FF"/><path d="m12 12 15.43-7.068.211.477L12 12Z" fill="#90B4FF"/><path d="m12 12 15.599-6.687.199.482L12 12Z" fill="#8FB3FF"/><path d="m12 12 15.758-6.302.188.486L12 12Z" fill="#8EB2FF"/><path d="m12 12 15.908-5.914.176.49L12 12Z" fill="#8DB2FF"/><path d="m12 12 16.048-5.521.164.494L12 12Z" fill="#8CB1FF"/><path d="m12 12 16.179-5.125.152.498L12 12Z" fill="#8BB0FF"/><path d="m12 12 16.3-4.727.139.502L12 12Z" fill="#8AB0FF"/><path d="m12 12 16.411-4.326.127.505L12 12Z" fill="#89AFFF"/><path d="m12 12 16.513-3.922.113.508L12 12Z" fill="#88AEFF"/><path d="m12 12 16.603-3.515.102.51L12 12Z" fill="#87AEFF"/><path d="m12 12 16.685-3.107.09.513L12 12Z" fill="#86ADFF"/><path d="m12 12 16.756-2.697.077.516L12 12Z" fill="#85ACFF"/><path d="m12 12 16.817-2.284.064.517L12 12Z" fill="#84ACFF"/><path d="m12 12 16.868-1.871.051.518L12 12Z" fill="#83ABFF"/><path d="m12 12 16.91-1.456.038.519L12 12Z" fill="#82AAFF"/><path d="m12 12 16.94-1.04.025.52L12 12Z" fill="#81AAFF"/><path d="m12 12 16.96-.625.013.52L12 12Z" fill="#80A9FF"/><path d="m12 12 16.97-.208v.52L12 12Z" fill="#7FA8FF"/><path d="m12 12 16.97.208-.013.52L12 12Z" fill="#7EA7FF"/><path d="m12 12 16.96.625-.026.52L12 12Z" fill="#7DA7FF"/><path d="m12 12 16.94 1.04-.038.52L12 12Z" fill="#7CA6FF"/><path d="m12 12 16.91 1.456-.051.519L12 12Z" fill="#7BA5FF"/><path d="m12 12 16.868 1.87-.063.518L12 12Z" fill="#7AA5FF"/><path d="m12 12 16.817 2.284-.076.515L12 12Z" fill="#79A4FF"/><path d="m12 12 16.756 2.696-.088.513L12 12Z" fill="#78A3FF"/><path d="m12 12 16.685 3.107-.102.51L12 12Z" fill="#77A3FF"/><path d="m12 12 16.603 3.514-.113.51L12 12Z" fill="#76A2FF"/><path d="m12 12 16.513 3.922-.127.505L12 12Z" fill="#75A1FF"/><path d="m12 12 16.411 4.326-.138.5L12 12Z" fill="#74A1FF"/><path d="m12 12 16.3 4.727-.15.498L12 12Z" fill="#73A0FF"/><path d="m12 12 16.179 5.125-.163.495L12 12Z" fill="#729FFF"/><path d="m12 12 16.048 5.52-.174.492L12 12Z" fill="#719FFF"/><path d="m12 12 15.908 5.914-.187.485L12 12Z" fill="#709EFF"/><path d="m12 12 15.758 6.301-.2.482L12 12Z" fill="#6F9DFF"/><path d="m12 12 15.599 6.686-.211.477L12 12Z" fill="#6E9DFF"/><path d="m12 12 15.43 7.067-.223.47L12 12Z" fill="#6D9CFF"/><path d="m12 12 15.253 7.444-.235.465L12 12Z" fill="#6C9BFF"/><path d="m12 12 15.064 7.816-.244.46L12 12Z" fill="#6B9BFF"/><path d="m12 12 14.869 8.183-.257.454L12 12Z" fill="#6A9AFF"/><path d="m12 12 14.663 8.546-.268.446L12 12Z" fill="#6999FF"/><path d="m12 12 14.449 8.903-.278.44L12 12Z" fill="#6899FF"/><path d="m12 12 14.226 9.255-.29.433L12 12Z" fill="#6798FF"/><path d="m12 12 13.995 9.602-.3.425L12 12Z" fill="#6697FF"/><path d="m12 12 13.755 9.942-.31.418L12 12Z" fill="#6597FF"/><path d="m12 12 13.507 10.277-.32.41L12 12Z" fill="#6496FF"/><path d="m12 12 13.25 10.605-.33.402L12 12Z" fill="#6395FF"/><path d="m12 12 12.986 10.927-.34.394L12 12Z" fill="#6294FF"/><path d="m12 12 12.714 11.242-.35.386L12 12Z" fill="#6194FF"/><path d="m12 12 12.435 11.55-.36.378L12 12Z" fill="#6093FF"/><path d="m12 12 12.147 11.852-.368.369L12 12Z" fill="#5F92FF"/><path d="m12 12 11.852 12.147-.376.359L12 12Z" fill="#5E92FF"/><path d="m12 12 11.55 12.435-.385.35L12 12Z" fill="#5D91FF"/><path d="m12 12 11.243 12.714-.395.34L12 12Z" fill="#5C90FF"/><path d="m12 12 10.927 12.986-.402.33L12 12Z" fill="#5B90FF"/><path d="m12 12 10.605 13.25-.41.32L12 12Z" fill="#5A8FFF"/><path d="m12 12 10.277 13.507-.419.31L12 12Z" fill="#598EFF"/><path d="m12 12 9.942 13.755-.425.3L12 12Z" fill="#588EFF"/><path d="m12 12 9.602 13.995-.434.289L12 12Z" fill="#578DFF"/><path d="m12 12 9.255 14.226-.44.279L12 12Z" fill="#568CFF"/><path d="m12 12 8.903 14.449-.446.268L12 12Z" fill="#558CFF"/><path d="m12 12 8.546 14.663-.453.256L12 12Z" fill="#548BFF"/><path d="m12 12 8.183 14.869-.459.244L12 12Z" fill="#538AFF"/><path d="m12 12 7.816 15.064-.465.235L12 12Z" fill="#528AFF"/><path d="m12 12 7.444 15.253-.47.221L12 12Z" fill="#5189FF"/><path d="m12 12 7.067 15.43-.476.211L12 12Z" fill="#5088FF"/><path d="m12 12 6.686 15.599-.48.199L12 12Z" fill="#4F88FF"/><path d="m12 12 6.301 15.758-.485.188L12 12Z" fill="#4E87FF"/><path d="m12 12 5.914 15.908-.491.176L12 12Z" fill="#4D86FF"/><path d="m12 12 5.521 16.048-.494.164L12 12Z" fill="#4C86FF"/><path d="m12 12 5.125 16.179-.498.152L12 12Z" fill="#4B85FF"/><path d="m12 12 4.727 16.3-.502.139L12 12Z" fill="#4A84FF"/><path d="m12 12 4.326 16.411-.506.127L12 12Z" fill="#4984FF"/><path d="m12 12 3.922 16.513-.508.113L12 12Z" fill="#4883FF"/><path d="m12 12 3.515 16.603-.511.102L12 12Z" fill="#4782FF"/><path d="m12 12 3.107 16.685-.513.09L12 12Z" fill="#4681FF"/><path d="m12 12 2.696 16.756-.515.077L12 12Z" fill="#4581FF"/><path d="m12 12 2.284 16.817-.517.064L12 12Z" fill="#4480FF"/><path d="m12 12 1.87 16.868-.517.051L12 12Z" fill="#437FFF"/><path d="m12 12 1.456 16.91-.519.038L12 12Z" fill="#427FFF"/><path d="m12 12 1.04 16.94-.52.025L12 12Z" fill="#417EFF"/><path d="m12 12 .625 16.96-.521.013L12 12Z" fill="#407DFF"/><path d="m12 12 .208 16.97h-.521L12 12Z" fill="#3F7DFF"/><path d="m12 12-.208 16.97-.52-.013L12 12Z" fill="#3E7CFF"/><path d="m12 12-.625 16.96-.52-.026L12 12Z" fill="#3D7BFF"/><path d="m12 12-1.04 16.94-.52-.038L12 12Z" fill="#3C7BFF"/><path d="m12 12-1.456 16.91-.519-.052L12 12Z" fill="#3B7AFF"/><path d="m12 12-1.871 16.868-.517-.063L12 12Z" fill="#3A79FF"/><path d="M12 12 9.716 28.817l-.515-.076L12 12Z" fill="#3979FF"/><path d="M12 12 9.303 28.756l-.512-.088L12 12Z" fill="#3878FF"/><path d="M12 12 8.893 28.685l-.51-.102L12 12Z" fill="#3777FF"/><path d="M12 12 8.485 28.603l-.508-.113L12 12Z" fill="#3677FF"/><path d="M12 12 8.078 28.513l-.505-.127L12 12Z" fill="#3576FF"/><path d="M12 12 7.674 28.411l-.502-.138L12 12Z" fill="#3475FF"/><path d="M12 12 7.273 28.3l-.498-.15L12 12Z" fill="#3375FF"/><path d="M12 12 6.875 28.179l-.495-.163L12 12Z" fill="#3274FF"/><path d="M12 12 6.479 28.048l-.49-.174L12 12Z" fill="#3173FF"/><path d="M12 12 6.086 27.908l-.485-.187L12 12Z" fill="#3073FF"/><path d="M12 12 5.698 27.758l-.481-.2L12 12Z" fill="#2F72FF"/><path d="M12 12 5.313 27.599l-.476-.211L12 12Z" fill="#2E71FF"/><path d="M12 12 4.932 27.43l-.47-.223L12 12Z" fill="#2D71FF"/><path d="M12 12 4.556 27.253l-.465-.235L12 12Z" fill="#2C70FF"/><path d="M12 12 4.184 27.064l-.46-.244L12 12Z" fill="#2B6FFF"/><path d="M12 12 3.817 26.869l-.454-.257L12 12Z" fill="#2A6EFF"/><path d="M12 12 3.454 26.663l-.446-.268L12 12Z" fill="#296EFF"/><path d="M12 12 3.097 26.449l-.44-.279L12 12Z" fill="#286DFF"/><path d="M12 12 2.745 26.226l-.433-.29L12 12Z" fill="#276CFF"/><path d="M12 12 2.398 25.995l-.425-.3L12 12Z" fill="#266CFF"/><path d="M12 12 2.058 25.755l-.418-.31L12 12Z" fill="#256BFF"/><path d="M12 12 1.723 25.507l-.41-.32L12 12Z" fill="#246AFF"/><path d="M12 12 1.395 25.25l-.402-.33L12 12Z" fill="#236AFF"/><path d="M12 12 1.073 24.986l-.394-.34L12 12Z" fill="#2269FF"/><path d="M12 12 .757 24.714l-.385-.35L12 12Z" fill="#2168FF"/><path d="M12 12 .45 24.435l-.378-.36L12 12Z" fill="#2068FF"/><path d="M12 12 .148 24.147l-.369-.368L12 12Z" fill="#1F67FF"/><path d="M12 12-.148 23.852l-.358-.376L12 12Z" fill="#1E66FF"/><path d="M12 12-.435 23.55l-.35-.385L12 12Z" fill="#1D66FF"/><path d="M12 12-.714 23.242l-.34-.394L12 12Z" fill="#1C65FF"/><path d="M12 12-.986 22.927l-.33-.402L12 12Z" fill="#1B64FF"/><path d="M12 12-1.25 22.605l-.32-.41L12 12Z" fill="#1A64FF"/><path d="M12 12-1.507 22.277l-.31-.419L12 12Z" fill="#1963FF"/><path d="m12 12-13.755 9.942-.3-.425L12 12Z" fill="#1862FF"/><path d="m12 12-13.995 9.602-.289-.434L12 12Z" fill="#1762FF"/><path d="m12 12-14.226 9.255-.279-.44L12 12Z" fill="#1661FF"/><path d="m12 12-14.449 8.903-.268-.446L12 12Z" fill="#1560FF"/><path d="m12 12-14.663 8.546-.256-.453L12 12Z" fill="#1460FF"/><path d="m12 12-14.869 8.183-.245-.459L12 12Z" fill="#135FFF"/><path d="m12 12-15.065 7.816-.234-.465L12 12Z" fill="#125EFF"/><path d="m12 12-15.252 7.444-.222-.47L12 12Z" fill="#115EFF"/><path d="m12 12-15.43 7.067-.211-.476L12 12Z" fill="#105DFF"/><path d="m12 12-15.6 6.686-.199-.48L12 12Z" fill="#0F5CFF"/><path d="m12 12-15.758 6.301-.188-.485L12 12Z" fill="#0E5BFF"/><path d="m12 12-15.908 5.914-.176-.491L12 12Z" fill="#0D5BFF"/><path d="m12 12-16.05 5.52-.162-.494L12 12Z" fill="#0C5AFF"/><path d="m12 12-16.18 5.125-.15-.498L12 12Z" fill="#0B59FF"/><path d="m12 12-16.3 4.727-.14-.502L12 12Z" fill="#0A59FF"/><path d="m12 12-16.411 4.326-.127-.506L12 12Z" fill="#0958FF"/><path d="m12 12-16.513 3.922-.113-.508L12 12Z" fill="#0857FF"/><path d="m12 12-16.604 3.514-.101-.51L12 12Z" fill="#0757FF"/><path d="m12 12-16.685 3.107-.09-.513L12 12Z" fill="#0656FF"/><path d="m12 12-16.756 2.696-.077-.515L12 12Z" fill="#0555FF"/><path d="m12 12-16.817 2.284-.064-.517L12 12Z" fill="#0455FF"/><path d="m12 12-16.868 1.87-.051-.517L12 12Z" fill="#0354FF"/><path d="m12 12-16.91 1.456-.038-.52L12 12Z" fill="#0253FF"/><path d="m12 12-16.94 1.04-.025-.52L12 12Z" fill="#0153FF"/><path d="m12 12-16.96.625-.013-.521L12 12Z" fill="#0052FF"/><path d="m12 12-16.97.208v-.416L12 12Z" fill="#fff"/></g></g></g><defs><clipPath id="a"><rect width="24" height="24" rx="12" fill="#fff"/></clipPath><clipPath id="b"><path fill="#fff" d="M0 0h24v24H0z"/></clipPath></defs></svg>
