<svg width="250" height="250" viewBox="0 0 250 250" fill="none" xmlns="http://www.w3.org/2000/svg">
<path d="M79.4393 222.079H142.173L192.874 185.28L212.266 125.7L192.874 66.1208L142.173 29.3217H79.4393L28.7384 65.8871L9.34586 125.467L28.7384 185.046L79.4393 222.079ZM143.224 225.467H78.2711L77.8038 225.116L25.701 187.266L5.72437 125.583L25.8178 63.7843L78.2711 25.7002H143.224L195.794 63.9011L215.888 125.7L195.794 187.499L143.224 225.467Z" fill="#2EA6DF"/>
<path d="M85.5141 27.336C85.5141 31.5416 82.1263 34.8126 78.0375 34.8126C73.8319 34.8126 70.5609 31.4248 70.5609 27.336C70.5609 23.2472 73.9487 19.8594 78.0375 19.8594C82.1263 19.8594 85.5141 23.2472 85.5141 27.336ZM150 27.336C150 31.5416 146.612 34.8126 142.523 34.8126C138.318 34.8126 135.047 31.4248 135.047 27.336C135.047 23.2472 138.435 19.8594 142.523 19.8594C146.612 19.8594 150 23.2472 150 27.336ZM85.9814 222.663C85.9814 226.869 82.5936 230.14 78.5048 230.14C74.2992 230.14 71.0282 226.752 71.0282 222.663C71.0282 218.574 74.416 215.187 78.5048 215.187C82.5936 215.07 85.9814 218.458 85.9814 222.663ZM34.3459 186.331C34.3459 190.537 30.9581 193.808 26.8693 193.808C22.7805 193.808 19.3926 190.42 19.3926 186.331C19.3926 182.126 22.7805 178.855 26.8693 178.855C30.9581 178.855 34.3459 182.126 34.3459 186.331ZM15.0702 125.584C15.0702 129.789 11.6824 133.06 7.59358 133.06C3.38797 133.06 0.116943 129.672 0.116943 125.584C0.116943 121.378 3.50479 118.107 7.59358 118.107C11.6824 117.99 15.0702 121.378 15.0702 125.584ZM34.3459 65.0697C34.3459 69.2753 30.9581 72.5463 26.8693 72.5463C22.7805 72.5463 19.3926 69.1584 19.3926 65.0697C19.3926 60.8641 22.7805 57.593 26.8693 57.593C30.9581 57.593 34.3459 60.8641 34.3459 65.0697ZM206.425 125.467C206.425 129.672 209.813 132.944 213.902 132.944C217.991 132.944 221.379 129.556 221.379 125.467C221.379 121.378 217.991 117.99 213.902 117.99C209.813 117.99 206.425 121.261 206.425 125.467ZM187.15 64.9528C187.15 69.1584 190.537 72.4295 194.626 72.4295C198.832 72.4295 202.103 69.0416 202.103 64.9528C202.103 60.7472 198.715 57.4762 194.626 57.4762C190.421 57.4762 187.15 60.7472 187.15 64.9528ZM150.584 222.663C150.584 226.869 147.196 230.14 143.108 230.14C139.019 230.14 135.631 226.752 135.631 222.663C135.631 218.574 139.019 215.187 143.108 215.187C147.196 215.187 150.584 218.458 150.584 222.663Z" fill="#2EA6DF"/>
<path d="M71.0282 169.859L71.6123 170.093L113.552 184.228L160.981 169.976L192.991 183.644V67.5226L160.981 81.1909L113.552 66.9385L71.0282 81.074L70.444 80.9572L28.6216 67.4058V183.527L71.0282 169.859ZM196.379 188.551L160.748 173.364L113.552 187.616L71.145 173.364L25.3506 188.2V62.7329L71.145 77.5694L113.552 63.317L114.019 63.4339L160.748 77.4525L196.379 62.2656V188.551Z" fill="#2EA6DF"/>
<path d="M7.47681 128.715V123.876L214.019 123.715V128.392L7.47681 128.715Z" fill="#2EA6DF"/>
<path d="M115.421 65.3029L140.07 120.794L158.879 79.2048L141.939 30.8403L115.421 65.3029ZM72.7804 79.088L89.3692 120.91L111.449 65.4197L79.2056 31.1907L72.7804 79.088ZM29.2056 125.583L70.3271 168.574L87.3832 125.583L70.3271 82.4758L29.2056 125.583ZM91.2383 125.583L113.551 181.424L138.201 124.999L113.551 69.5085L91.2383 125.583ZM72.7804 171.845L79.6729 218.924L111.449 185.513L89.3692 130.256L72.7804 171.845ZM115.421 185.63L142.407 219.158L158.879 171.728L140.07 129.322L115.421 185.63ZM77.3365 226.401L69.3925 172.429L24.5327 125.583L69.3925 78.5038L76.7523 23.4805L113.318 62.3823L143.107 23.7141L162.617 79.4384L141.939 124.999L162.617 171.495L143.692 226.051L113.318 188.434L77.3365 226.401Z" fill="#2EA6DF"/>
<path d="M162.15 172.663L159.346 170.56L192.524 125.583L159.346 80.3731L162.15 78.2703L196.729 125.583L162.15 172.663ZM62.9675 79.3217C62.9675 83.5274 66.3554 86.7984 70.4442 86.7984C74.6498 86.7984 77.9208 83.4105 77.9208 79.3217C77.9208 75.233 74.5329 71.8451 70.4442 71.8451C66.3554 71.8451 62.9675 75.1161 62.9675 79.3217ZM105.958 65.0694C105.958 69.275 109.346 72.546 113.435 72.546C117.64 72.546 120.911 69.1582 120.911 65.0694C120.911 60.8638 117.524 57.5928 113.435 57.5928C109.229 57.5928 105.958 60.8638 105.958 65.0694Z" fill="#2EA6DF"/>
<path d="M166.122 74.0654C163.201 71.1449 158.411 71.1449 155.491 74.0654C152.57 76.986 152.57 81.7757 155.491 84.6963C158.411 87.6168 163.201 87.6168 166.122 84.6963C169.042 81.6589 169.042 76.986 166.122 74.0654ZM34.3458 125C34.3458 120.794 30.958 117.523 26.8692 117.523C22.7804 117.523 19.3926 120.911 19.3926 125C19.3926 129.206 22.7804 132.477 26.8692 132.477C30.958 132.477 34.3458 129.206 34.3458 125ZM95.444 125C95.444 120.794 92.0561 117.523 87.9673 117.523C83.7617 117.523 80.4907 120.911 80.4907 125C80.4907 129.206 83.8786 132.477 87.9673 132.477C92.0561 132.477 95.444 129.206 95.444 125ZM146.495 125C146.495 120.794 143.108 117.523 139.019 117.523C134.813 117.523 131.542 120.911 131.542 125C131.542 129.206 134.93 132.477 139.019 132.477C143.108 132.477 146.495 129.206 146.495 125ZM202.103 125.584C202.103 121.378 198.715 118.107 194.626 118.107C190.537 118.107 187.15 121.495 187.15 125.584C187.15 129.79 190.537 133.061 194.626 133.061C198.715 133.061 202.103 129.673 202.103 125.584ZM168.224 171.612C168.224 167.407 164.836 164.136 160.748 164.136C156.542 164.136 153.271 167.523 153.271 171.612C153.271 175.701 156.659 179.089 160.748 179.089C164.953 179.089 168.224 175.818 168.224 171.612ZM249.883 209.463C249.883 203.621 245.094 198.832 239.252 198.832C233.411 198.832 228.622 203.621 228.622 209.463C228.622 215.304 233.411 220.093 239.252 220.093C245.094 220.093 249.883 215.304 249.883 209.463ZM110.514 179.089C106.659 180.724 104.907 185.164 106.542 188.902C108.178 192.757 112.617 194.509 116.355 192.874C120.21 191.238 121.963 186.799 120.327 183.061C118.692 179.322 114.369 177.57 110.514 179.089ZM67.5234 164.72C63.6683 166.355 61.9159 170.794 63.5515 174.533C65.187 178.388 69.6262 180.14 73.3645 178.505C77.2197 176.869 78.972 172.43 77.3365 168.692C75.701 164.836 71.3786 163.084 67.5234 164.72Z" fill="#2EA6DF"/>
<path d="M238.435 210.981L193.458 187.734L195.094 184.696L240.07 207.944L238.435 210.981Z" fill="#2EA6DF"/>
</svg>
