<svg width="250" height="250" viewBox="0 0 250 250" fill="none" xmlns="http://www.w3.org/2000/svg">
<g clip-path="url(#clip0_9_843)">
<path d="M125 250C194.036 250 250 194.036 250 125C250 55.9644 194.036 0 125 0C55.9644 0 0 55.9644 0 125C0 194.036 55.9644 250 125 250Z" fill="white"/>
<path d="M184.81 74.5289L164.742 84.7535L67.8345 134.113C67.5068 131.614 67.3419 129.096 67.3409 126.575C67.3541 116.518 69.9947 106.638 75.0009 97.9153C80.0072 89.1924 87.2055 81.9287 95.8828 76.8437C104.56 71.7587 114.415 69.0289 124.472 68.9247C134.529 68.8205 144.439 71.3454 153.22 76.2495L164.706 70.3968L166.42 69.5225C155.897 61.885 143.468 57.3057 130.506 56.2905C117.543 55.2753 104.552 57.8639 92.9692 63.7701C81.386 69.6762 71.6613 78.6701 64.8699 89.7575C58.0785 100.845 54.4848 113.594 54.4862 126.596C54.4862 128.392 54.5543 130.181 54.6907 131.963C54.8816 134.486 54.322 137.009 53.0824 139.215C51.8427 141.42 49.9784 143.21 47.7239 144.359L41.6667 147.447V161.853L59.4997 152.764L65.2748 149.817L70.9653 146.919L173.126 94.8652L184.605 89.0195L208.333 76.9264V62.5275L184.81 74.5289Z" fill="black"/>
<path d="M208.333 91.3389L76.7686 158.327L65.2889 164.187L41.6667 176.224V190.615L65.1267 178.663L85.195 168.439L182.201 119.009C182.529 121.524 182.694 124.059 182.695 126.596C182.688 136.665 180.049 146.557 175.037 155.291C170.026 164.024 162.818 171.295 154.128 176.382C145.438 181.469 135.569 184.194 125.5 184.287C115.432 184.381 105.514 181.839 96.731 176.915L96.0259 177.288L83.5732 183.635C94.0933 191.272 106.52 195.853 119.481 196.87C132.441 197.888 145.43 195.303 157.014 189.401C168.597 183.499 178.323 174.509 185.117 163.426C191.912 152.342 195.51 139.596 195.514 126.596C195.514 124.784 195.443 122.971 195.309 121.18C195.119 118.658 195.678 116.136 196.916 113.93C198.154 111.725 200.017 109.934 202.269 108.784L208.333 105.695V91.3389Z" fill="black"/>
</g>
<defs>
<clipPath id="clip0_9_843">
<rect width="250" height="250" fill="white"/>
</clipPath>
</defs>
</svg>
