<svg width="250" height="250" viewBox="0 0 250 250" fill="none" xmlns="http://www.w3.org/2000/svg">
<path d="M5.07818 164.063C6.836 161.328 8.3985 158.984 10.1563 156.25L13.086 158.008C49.8047 181.641 86.7188 205.274 123.438 229.102C125.586 230.469 126.953 230.664 129.102 229.102C164.063 206.445 199.219 183.985 234.375 161.524C238.477 158.984 240.625 155.664 240.43 150.781C240.234 145.899 240.43 141.016 240.43 135.352C239.063 136.133 237.891 136.719 236.914 137.305C201.758 159.766 166.602 182.031 131.445 204.492C127.149 207.227 123.438 207.422 119.141 204.688C83.3985 181.836 47.6563 158.984 11.7188 136.524C3.90631 131.641 5.89937e-05 125.195 0.390684 115.82C0.781309 108.984 0.390684 102.149 0.390684 95.3126C0.390684 92.1876 1.56256 89.8439 4.29693 88.0861C42.9688 62.5001 82.0313 37.1095 120.899 11.7189C122.461 10.7423 124.023 9.37511 125.781 9.1798C127.93 8.98448 130.469 9.37511 132.031 10.547C169.922 34.5704 207.813 58.5939 245.703 82.8126C251.563 86.5236 251.172 92.7736 245.117 96.4845L157.813 151.563C149.219 157.031 140.625 162.109 132.227 167.774C128.125 170.508 124.609 170.508 120.313 167.774C84.7657 145.313 48.8282 122.852 13.086 100.391C12.1094 99.8048 11.1329 99.2189 9.76568 98.4376C9.76568 105.859 9.57037 112.891 9.76568 119.922C9.961 123.438 12.5001 125.781 15.4297 127.539L100.391 181.445C107.813 186.133 115.039 190.625 122.266 195.508C124.023 196.68 125.391 196.68 127.344 195.508C163.281 172.461 199.414 149.414 235.547 126.563C236.523 125.977 237.5 125.195 238.477 124.805C243.75 122.266 249.414 125.391 249.609 131.25C249.805 138.867 249.805 146.484 249.609 154.102C249.414 160.742 245.898 165.43 240.234 168.945C216.406 184.18 192.578 199.414 168.75 214.844C156.25 222.852 143.555 230.859 131.055 239.063C127.539 241.406 124.414 241.406 120.899 239.063C83.0079 214.453 44.7266 189.844 6.64068 165.234C6.05475 165.039 5.66412 164.649 5.07818 164.063ZM16.7969 91.0157C17.5782 91.797 18.3594 92.1876 18.9454 92.7736C54.1016 114.844 89.2579 136.914 124.219 158.984C125.977 160.156 127.149 159.766 128.711 158.789C164.258 136.328 199.805 113.867 235.352 91.6017C236.133 91.0157 237.109 90.4298 238.086 89.6486C237.305 89.0626 236.914 88.672 236.328 88.2814C200.781 65.6251 165.234 42.9689 129.492 20.3126C127.539 18.9454 126.172 19.7267 124.609 20.7032C100.391 36.5235 75.9766 52.5392 51.7579 68.3595C40.0391 75.7814 28.5157 83.3986 16.7969 91.0157Z" fill="#2A8AC7"/>
</svg>
