<svg width="250" height="250" viewBox="0 0 250 250" fill="none" xmlns="http://www.w3.org/2000/svg">
<circle cx="125" cy="125" r="125" fill="white"/>
<path fill-rule="evenodd" clip-rule="evenodd" d="M101.942 167.475L117.6 135.6C117.639 135.745 117.678 135.891 117.718 136.036V135.315L128.641 112.864L128.645 112.87C133.32 100.321 145.41 91.3832 159.587 91.3832C177.818 91.3832 192.597 106.162 192.597 124.393C192.597 142.624 177.818 157.403 159.587 157.403C143.145 157.403 129.511 145.382 126.994 129.649L120.011 142.345C126.843 157.382 141.994 167.839 159.587 167.839C183.582 167.839 203.034 148.388 203.034 124.393C203.034 100.398 183.582 80.9463 159.587 80.9463C145.081 80.9463 132.236 88.0553 124.345 98.9795C123.674 99.9493 123.074 100.968 122.551 102.025L118.522 110.171L96.4805 154.733L88.6388 138.349H98.9077L103.762 128.034H83.7015L79.9258 120.145H107.403L112.257 108.616H74.4076L62.4999 83.7376H50.364L62.4427 108.616H49.1504L50.364 120.145H68.0402L71.8701 128.034H52.1844L54.0048 138.349H76.8783L91.0193 167.475H101.942Z" fill="url(#paint0_linear_26_388)"/>
<defs>
<linearGradient id="paint0_linear_26_388" x1="48.5436" y1="112.864" x2="202.67" y2="112.864" gradientUnits="userSpaceOnUse">
<stop stop-color="#4B0053"/>
<stop offset="0.862167" stop-color="#BF396C"/>
</linearGradient>
</defs>
</svg>
