<svg width="250" height="250" viewBox="0 0 250 250" fill="none" xmlns="http://www.w3.org/2000/svg">
<g clip-path="url(#clip0_9_944)">
<path d="M194.403 190.796C196.269 147.263 171.144 125.995 157.463 117.786C148.383 112.313 140.92 104.477 136.443 94.9003C120.398 61.0694 143.532 34.0794 143.532 34.0794C157.587 16.5421 175.124 7.21373 199.751 12.562C217.164 18.159 233.706 25.4973 249.13 34.5769V35.8207C249.254 94.5271 228.607 148.507 194.403 190.796Z" fill="#67AFE2"/>
<path d="M167.537 219.03C154.478 230.722 140.299 241.045 125 249.751C76.1194 221.891 37.811 177.736 17.2886 124.627C36.3184 134.453 59.5771 142.911 75.995 137.562C108.706 126.99 132.463 109.453 164.055 137.811C181.841 153.732 185.572 174.254 181.343 195.274C179.353 204.478 174.502 212.687 167.537 219.03Z" fill="#1EBBAD"/>
<path d="M167.164 4.60208C147.637 12.1891 122.139 28.2339 120.025 60.821V62.4379C119.776 70.5225 120.274 111.443 78.6069 125.373C78.6069 125.373 48.8805 135.697 24.0049 114.552C13.8059 105.846 7.21387 93.7812 4.7263 80.5971C1.98999 65.6717 0.621826 50.2488 0.621826 34.5772C37.0646 13.1842 79.6019 0.995117 124.876 0.995117C139.303 0.995117 153.483 2.2389 167.164 4.60208Z" fill="#F7A800"/>
</g>
<defs>
<clipPath id="clip0_9_944">
<rect width="250" height="250" fill="white"/>
</clipPath>
</defs>
</svg>
