<svg fill="none" height="250" viewBox="0 0 250 250" width="250" xmlns="http://www.w3.org/2000/svg" xmlns:xlink="http://www.w3.org/1999/xlink"><clipPath id="a"><path d="m0 0h250v250h-250z"/></clipPath><clipPath id="b"><path d="m0 0h250v250h-250z"/></clipPath><g clip-path="url(#a)"><g clip-path="url(#b)"><path d="m125 250c69.036 0 125-55.964 125-125 0-69.0356-55.964-125-125-125-69.0356 0-125 55.9644-125 125 0 69.036 55.9644 125 125 125z" fill="#fcc339"/><path d="m176.442 75.7314.603 1.3395-23.861 10.9555 10.736 35.5476 35.325-17.841.46.929.15-.171-22.886-30.5143zm-1.287-.5985-21.666-10.0789h-56.0236l-23.1372 10.623 24.0643 10.1281h53.5195zm-102.7611 2.4968-21.6649 28.1363 35.26 17.808 10.7784-35.6861zm26.8747 10.7293-11.1384 36.878 36.8248 65.093 36.824-65.093-11.138-36.878zm97.7484 21.355-32.962 16.647-32.852 58.072zm-78.49 74.402-32.6731-57.755-32.7815-16.556zm-68.2864-77.526.2626-.531-.3405.442zm21.8079-32.6717 24.8692-11.4183h57.1253l24.559 11.4245 24.523 32.6965-78.12 88.691-78.13-88.701zm71.8805 41.9727c.459 4.746-1.501 7.594-4.636 9.21 5.16 1.255 8.393 4.361 7.756 11.322-.791 8.645-7.153 10.964-16.243 11.492l-.002 9.082h-5.407l.003-8.96c-1.401.001-2.836-.011-4.319-.042v9.002l-5.401-.001-.003-9.098c-1.265-.008-2.553-.03-3.862-.032h-7.037l1.075-6.539s3.999.063 3.93.001c1.53-.003 1.935-1.115 2.031-1.813l.002-14.357c.198-.001.391 0 .571 0-.223-.031-.42-.038-.572-.039v-10.247c-.207-1.111-.92-2.399-3.11-2.4.066-.074-3.927.003-3.927.003l-.001-5.848 7.457.002.001.028c1.121 0 2.271-.022 3.441-.047l.002-8.9926 5.404.0002-.001 8.8164c1.444-.029 2.897-.058 4.318-.058v-8.7582l5.407-.0006v8.9958c6.98.619 12.508 2.793 13.123 9.278zm-7.564 19.454c0-7.092-11.491-6.024-15.156-6.025l-.001 12.054c3.664-.004 15.16.77 15.157-6.029zm-2.515-17.007c-.001-6.452-9.589-5.469-12.641-5.469v10.933c3.052 0 12.639.722 12.641-5.464z" fill="#fff"/></g></g></svg>