<svg fill="none" height="250" viewBox="0 0 250 250" width="250" xmlns="http://www.w3.org/2000/svg" xmlns:xlink="http://www.w3.org/1999/xlink"><clipPath id="a"><path d="m0 0h250v250h-250z"/></clipPath><g clip-path="url(#a)"><path d="m125 250c69.036 0 125-55.964 125-125 0-69.0365-55.964-125-125-125-69.0365 0-125 55.9635-125 125 0 69.036 55.9635 125 125 125z" fill="#e4dafb"/><g fill="#282638"><path d="m142.982 109.018c.001 2.531-.497 5.037-1.464 7.376-.968 2.338-2.387 4.463-4.176 6.253s-3.913 3.21-6.25 4.18c-2.338.969-4.844 1.468-7.375 1.469v19.278c5.062-.002 10.073-1 14.749-2.939 4.675-1.938 8.923-4.779 12.501-8.359s6.415-7.83 8.351-12.507c1.935-4.677 2.93-9.689 2.928-14.751.003-6.765-1.775-13.4111-5.155-19.2713-3.379-5.8601-8.242-10.7274-14.099-14.1128s-12.502-5.1697-19.267-5.1734c-6.765-.0038-13.411 1.7731-19.272 5.152-5.8619 3.3843-10.7287 8.2532-14.1106 14.1164-3.382 5.8633-5.1596 12.5141-5.154 19.2831v96.39l17.3206 17.347 1.944 1.937v-115.661c-.068-2.573.38-5.133 1.317-7.53.938-2.3968 2.346-4.5815 4.141-6.4253 1.796-1.8438 3.943-3.3092 6.314-4.3098s4.919-1.5161 7.492-1.5161c2.574 0 5.122.5155 7.493 1.5161s4.518 2.466 6.313 4.3098c1.796 1.8438 3.204 4.0285 4.142 6.4253.937 2.397 1.385 4.957 1.317 7.53z"/><path d="m123.724 31.8522c-14.04 0-27.1953 3.7598-38.5285 10.3275-7.2357 4.1854-13.7422 9.5201-19.2645 15.795-12.437 14.0739-19.2899 32.2147-19.2645 50.9963v57.847l19.2645 19.272v-77.119c-.0093-8.138 1.7022-16.1861 5.0223-23.6161 3.32-7.43 8.1736-14.074 14.2422-19.4962 10.5884-9.4909 24.3095-14.7361 38.5285-14.7285 31.921 0 57.801 25.8998 57.801 57.8478 0 31.934-25.88 57.834-57.801 57.834v19.278c42.566 0 77.065-34.527 77.065-77.119 0-42.5925-34.499-77.1188-77.065-77.1188z"/></g></g></svg>