<svg fill="none" height="250" viewBox="0 0 250 250" width="250" xmlns="http://www.w3.org/2000/svg"><g fill="#2ea6df"><path d="m79.4393 222.08h62.7337l50.701-36.799 19.392-59.58-19.392-59.5793-50.701-36.799h-62.7337l-50.7009 36.5654-19.39254 59.5799 19.39254 59.579zm63.7847 3.388h-64.9529l-.4673-.351-52.1028-37.85-19.97663-61.683 20.09343-61.7987 52.4533-38.0841h64.9529l52.57 38.2009 20.094 61.7989-20.094 61.799z"/><path d="m85.5141 27.3365c0 4.2056-3.3878 7.4766-7.4766 7.4766-4.2056 0-7.4766-3.3878-7.4766-7.4766s3.3878-7.4766 7.4766-7.4766 7.4766 3.3878 7.4766 7.4766zm64.4859 0c0 4.2056-3.388 7.4766-7.477 7.4766-4.205 0-7.476-3.3878-7.476-7.4766s3.388-7.4766 7.476-7.4766c4.089 0 7.477 3.3878 7.477 7.4766zm-64.0186 195.3275c0 4.205-3.3878 7.476-7.4766 7.476-4.2056 0-7.4766-3.388-7.4766-7.476 0-4.089 3.3878-7.477 7.4766-7.477 4.0888-.117 7.4766 3.271 7.4766 7.477zm-51.6355-36.332c0 4.205-3.3878 7.476-7.4766 7.476s-7.4767-3.387-7.4767-7.476c0-4.206 3.3879-7.477 7.4767-7.477s7.4766 3.271 7.4766 7.477zm-19.2757-60.748c0 4.206-3.3878 7.477-7.47662 7.477-4.20561 0-7.476637-3.388-7.476637-7.477 0-4.205 3.387847-7.476 7.476637-7.476 4.08882-.117 7.47662 3.271 7.47662 7.476zm19.2757-60.5139c0 4.2057-3.3878 7.4767-7.4766 7.4767s-7.4767-3.3879-7.4767-7.4767c0-4.2056 3.3879-7.4766 7.4767-7.4766s7.4766 3.271 7.4766 7.4766zm172.0791 60.3969c0 4.206 3.388 7.477 7.477 7.477s7.477-3.388 7.477-7.477c0-4.088-3.388-7.476-7.477-7.476s-7.477 3.271-7.477 7.476zm-19.275-60.5137c0 4.2056 3.387 7.4767 7.476 7.4767 4.206 0 7.477-3.3879 7.477-7.4767 0-4.2056-3.388-7.4766-7.477-7.4766-4.205 0-7.476 3.271-7.476 7.4766zm-36.566 157.7107c0 4.205-3.388 7.476-7.476 7.476-4.089 0-7.477-3.388-7.477-7.476 0-4.089 3.388-7.477 7.477-7.477 4.088 0 7.476 3.271 7.476 7.477z"/><path d="m71.0282 169.86.5841.234 41.9397 14.135 47.429-14.252 32.01 13.668v-116.1214l-32.01 13.6682-47.429-14.2523-42.5238 14.1355-.5842-.1168-41.8224-13.5514v116.1212zm125.3508 18.692-35.631-15.187-47.196 14.252-42.407-14.252-45.7944 14.836v-125.4671l45.7944 14.8364 42.407-14.2523.467.1168 46.729 14.0187 35.631-15.1869z"/><path d="m7.47681 128.715v-4.839l206.54219-.161v4.677z"/><path d="m115.421 65.3039 24.649 55.4911 18.809-41.5893-16.94-48.3644zm-42.6406 13.785 16.5888 41.8221 22.0798-55.4903-32.2434-34.229zm-43.5748 46.4951 41.1215 42.991 17.0561-42.991-17.0561-43.1072zm62.0327 0 22.3127 55.841 24.65-56.425-24.65-55.4905zm-18.4579 46.262 6.8925 47.079 31.7761-33.411-22.0798-55.257zm42.6406 13.785 26.986 33.528 16.472-47.43-18.809-42.406zm-38.0845 40.771-7.944-53.972-44.8598-46.846 44.8598-47.0792 7.3598-55.0234 36.5657 38.9019 29.789-38.6682 19.51 55.7243-20.678 45.5606 20.678 46.495-18.925 54.557-30.374-37.617z"/><path d="m162.15 172.664-2.804-2.103 33.178-44.977-33.178-45.2099 2.804-2.1028 34.579 47.3127zm-99.1825-93.3413c0 4.2056 3.3879 7.4767 7.4767 7.4767 4.2056 0 7.4766-3.3879 7.4766-7.4767s-3.3879-7.4766-7.4766-7.4766c-4.0888 0-7.4767 3.271-7.4767 7.4766zm42.9905-14.2523c0 4.2056 3.388 7.4766 7.477 7.4766 4.205 0 7.476-3.3878 7.476-7.4766 0-4.2056-3.387-7.4766-7.476-7.4766-4.206 0-7.477 3.271-7.477 7.4766z"/><path d="m166.122 74.0654c-2.921-2.9205-7.711-2.9205-10.631 0-2.921 2.9206-2.921 7.7103 0 10.6309 2.92 2.9205 7.71 2.9205 10.631 0 2.92-3.0374 2.92-7.7103 0-10.6309zm-131.7762 50.9346c0-4.206-3.3878-7.477-7.4766-7.477s-7.4766 3.388-7.4766 7.477c0 4.206 3.3878 7.477 7.4766 7.477s7.4766-3.271 7.4766-7.477zm61.0982 0c0-4.206-3.3879-7.477-7.4767-7.477-4.2056 0-7.4766 3.388-7.4766 7.477 0 4.206 3.3879 7.477 7.4766 7.477 4.0888 0 7.4767-3.271 7.4767-7.477zm51.051 0c0-4.206-3.387-7.477-7.476-7.477-4.206 0-7.477 3.388-7.477 7.477 0 4.206 3.388 7.477 7.477 7.477s7.476-3.271 7.476-7.477zm55.608.584c0-4.206-3.388-7.477-7.477-7.477s-7.476 3.388-7.476 7.477c0 4.206 3.387 7.477 7.476 7.477s7.477-3.388 7.477-7.477zm-33.879 46.028c0-4.205-3.388-7.476-7.476-7.476-4.206 0-7.477 3.387-7.477 7.476s3.388 7.477 7.477 7.477c4.205 0 7.476-3.271 7.476-7.477zm81.659 37.851c0-5.842-4.789-10.631-10.631-10.631-5.841 0-10.63 4.789-10.63 10.631 0 5.841 4.789 10.63 10.63 10.63 5.842 0 10.631-4.789 10.631-10.63zm-139.369-30.374c-3.855 1.635-5.607 6.075-3.972 9.813 1.636 3.855 6.075 5.607 9.813 3.972 3.855-1.636 5.608-6.075 3.972-9.813-1.635-3.739-5.958-5.491-9.813-3.972zm-42.9906-14.369c-3.8551 1.635-5.6075 6.074-3.9719 9.813 1.6355 3.855 6.0747 5.607 9.813 3.972 3.8552-1.636 5.6075-6.075 3.972-9.813-1.6355-3.856-5.9579-5.608-9.8131-3.972z"/><path d="m238.435 210.981-44.977-23.247 1.636-3.038 44.976 23.248z"/></g></svg>