<svg fill="none" height="250" viewBox="0 0 250 250" width="250" xmlns="http://www.w3.org/2000/svg" xmlns:xlink="http://www.w3.org/1999/xlink"><clipPath id="a"><path d="m0 0h250v250h-250z"/></clipPath><clipPath id="b"><path d="m0 0h250v250h-250z"/></clipPath><clipPath id="c"><path d="m0 0h250v250h-250z"/></clipPath><g clip-path="url(#a)"><g clip-path="url(#b)"><g clip-path="url(#c)"><path d="m125 250c69.036 0 125-55.964 125-125 0-69.0356-55.964-125-125-125-69.0356 0-125 55.9644-125 125 0 69.036 55.9644 125 125 125z" fill="#728ee6"/><g fill="#fff"><path d="m128.891 31.25v69.297l58.57 26.172z" fill-opacity=".602"/><path d="m128.891 31.25-58.5785 95.469 58.5785-26.172z"/><path d="m128.891 171.625v47.086l58.609-81.086z" fill-opacity=".602"/><path d="m128.891 218.711v-47.094l-58.5785-33.992z"/><path d="m128.891 160.727 58.57-34.008-58.57-26.157z" fill-opacity=".2"/><path d="m70.3125 126.719 58.5785 34.008v-60.165z" fill-opacity=".602"/></g></g></g></g></svg>