<svg fill="none" height="250" viewBox="0 0 250 250" width="250" xmlns="http://www.w3.org/2000/svg" xmlns:xlink="http://www.w3.org/1999/xlink"><clipPath id="a"><path d="m0 0h250v250h-250z"/></clipPath><g clip-path="url(#a)"><path d="m125 250c69.036 0 125-55.964 125-125 0-69.0356-55.964-125-125-125-69.0356 0-125 55.9644-125 125 0 69.036 55.9644 125 125 125z" fill="#13b5ec"/><path clip-rule="evenodd" d="m134.375 100.781 28.125-16.406v32.812zm28.125 70.313-37.5 21.875-37.5-21.875v-38.282l37.5 21.875 37.5-21.875zm-75-86.719 28.125 16.406-28.125 16.406zm42.188 24.219 28.125 16.406-28.125 16.406zm-9.376 32.812-28.1245-16.406 28.1245-16.406zm37.501-64.8435-32.813 18.75-32.8125-18.75 32.8125-19.5312zm-79.688-3.125v102.3435l46.875 26.563 46.875-26.563v-102.3435l-46.875-26.5625z" fill="#fff" fill-rule="evenodd"/></g></svg>