<svg width="250" height="250" viewBox="0 0 250 250" fill="none" xmlns="http://www.w3.org/2000/svg">
<g clip-path="url(#clip0_48_12662)">
<path d="M125 250C194.036 250 250 194.036 250 125C250 55.9644 194.036 0 125 0C55.9644 0 0 55.9644 0 125C0 194.036 55.9644 250 125 250Z" fill="#13B5EC"/>
<path fill-rule="evenodd" clip-rule="evenodd" d="M134.375 100.781L162.5 84.375V117.187L134.375 100.781ZM162.5 171.094L125 192.969L87.5 171.094V132.812L125 154.687L162.5 132.812V171.094ZM87.5 84.375L115.625 100.781L87.5 117.187V84.375ZM129.688 108.594L157.813 125L129.688 141.406V108.594ZM120.312 141.406L92.1875 125L120.312 108.594V141.406ZM157.813 76.5625L125 95.3125L92.1875 76.5625L125 57.0313L157.813 76.5625ZM78.125 73.4375V175.781L125 202.344L171.875 175.781V73.4375L125 46.875L78.125 73.4375Z" fill="white"/>
</g>
<defs>
<clipPath id="clip0_48_12662">
<rect width="250" height="250" fill="white"/>
</clipPath>
</defs>
</svg>
