<svg fill="none" height="250" viewBox="0 0 250 250" width="250" xmlns="http://www.w3.org/2000/svg" xmlns:xlink="http://www.w3.org/1999/xlink"><clipPath id="a"><path d="m0 0h250v250h-250z"/></clipPath><g clip-path="url(#a)"><path clip-rule="evenodd" d="m125 0c69.025 0 125 55.975 125 125s-55.975 125-125 125-125-55.975-125-125 55.975-125 125-125z" fill="#fff" fill-rule="evenodd"/><g fill="#000"><path d="m126.875 177.25c-39.975 0-72.375-11.55-72.375-27.025 0-8.075 8.825-15.35 22.95-20.475 11.025 7.075 29.525 10.7 50.5 10.7 20.475 0 38.575-4.425 49.7-11.2 13.325 5.075 21.6 12.15 21.6 19.95 0 15.5-32.4 28.05-72.375 28.05z"/><path d="m127.3 136.972c-30.3002 0-54.8752-9.5-54.8752-21.225 0-6.5 7.575-12.325 19.45-16.2001 8.4752 4.4251 21.1752 7.2501 35.4252 7.2501s26.95-2.825 35.425-7.2501c11.9 3.9001 19.45 9.7001 19.45 16.2001.025 11.725-24.55 21.225-54.875 21.225z"/><path d="m127.1 103.273c-23.425 0-42.4252-7.8496-42.4252-17.4996s19.0002-17.5 42.4252-17.5 42.425 7.85 42.425 17.5-19 17.4996-42.425 17.4996z"/></g></g></svg>