<svg fill="none" height="250" viewBox="0 0 250 250" width="250" xmlns="http://www.w3.org/2000/svg" xmlns:xlink="http://www.w3.org/1999/xlink"><clipPath id="a"><path d="m0 0h250v250h-250z"/></clipPath><g clip-path="url(#a)"><circle cx="125" cy="125" fill="#ff007a" r="125"/><g fill="#fff"><path d="m96.648 54.7246c-2.1077-.3033-2.2081-.4044-1.2044-.5055 1.907-.3033 6.3234.1011 9.4344.8088 7.227 1.7189 13.751 6.1676 20.676 13.9528l1.807 2.1233 2.609-.4044c11.141-1.82 22.583-.4045 32.118 4.0443 2.609 1.2132 6.724 3.6398 7.226 4.2465.201.2022.502 1.5166.703 2.831.702 4.752.401 8.2908-1.104 11.0207-.803 1.5166-.803 1.921-.301 3.2354.401 1.0111 1.606 1.7188 2.71 1.7188 2.408 0 4.918-3.8421 6.122-9.2007l.502-2.1233.903 1.0111c5.119 5.7631 9.134 13.7506 9.736 19.4126l.201 1.517-.904-1.315c-1.505-2.325-2.91-3.842-4.817-5.156-3.413-2.3258-7.026-3.0335-16.561-3.539-8.632-.5056-13.55-1.2133-18.367-2.831-8.23-2.7299-12.446-6.2687-22.182-19.3115-4.315-5.7631-7.025-8.8975-9.735-11.5263-5.922-5.7631-11.844-8.7963-19.572-10.0096z"/><path d="m171.422 67.5625c.2-3.8421.702-6.3698 1.806-8.6952.402-.91.803-1.7189.904-1.7189.1 0-.101.7078-.402 1.5166-.803 2.2244-.903 5.3587-.401 8.8975.702 4.5498 1.003 5.1565 5.821 10.1107 2.208 2.3255 4.818 5.2576 5.821 6.4709l1.707 2.2244-1.707-1.6178c-2.107-2.0221-6.925-5.8642-8.029-6.3697-.703-.4045-.803-.4045-1.305.1011-.401.4044-.502 1.0111-.502 3.9432-.1 4.5498-.702 7.3808-2.208 10.3129-.803 1.5166-.903 1.2133-.2-.5055.501-1.3144.602-1.9211.602-6.2687 0-8.7963-1.004-10.9196-7.126-14.4583-1.506-.91-4.115-2.2244-5.621-2.9321-1.606-.7078-2.81-1.3144-2.71-1.3144.201-.2022 6.122 1.5166 8.431 2.5277 3.513 1.4155 4.115 1.5166 4.517 1.4155.301-.3034.501-1.1122.602-3.6399z"/><path d="m100.763 82.6269c-4.2151-5.8642-6.925-14.9638-6.3228-21.738l.2008-2.1233 1.0036.2022c1.8067.3034 4.9184 1.5167 6.4234 2.4266 4.015 2.4266 5.821 5.7631 7.528 14.0539.502 2.4266 1.204 5.2576 1.505 6.1676.502 1.5166 2.409 5.0553 4.015 7.2797 1.104 1.6177.401 2.4266-2.108 2.2244-3.814-.4045-8.932-3.9432-12.245-8.4931z"/><path d="m166.303 126.607c-19.873-8.089-26.899-15.065-26.899-26.8946 0-1.7188.101-3.1343.101-3.1343.1 0 .803.6067 1.706 1.3144 4.015 3.2355 8.531 4.6505 21.077 6.4705 7.327 1.113 11.542 1.921 15.356 3.236 12.145 4.044 19.673 12.335 21.479 23.558.502 3.235.201 9.403-.602 12.638-.703 2.528-2.71 7.179-3.212 7.28-.1 0-.301-.506-.301-1.314-.201-4.247-2.308-8.291-5.821-11.426-4.216-3.639-9.636-6.369-22.884-11.728z"/><path d="m152.252 129.951c-.201-1.517-.703-3.438-1.004-4.247l-.502-1.516.904 1.112c1.304 1.516 2.308 3.336 3.211 5.864.703 1.921.703 2.528.703 5.662 0 3.033-.101 3.741-.703 5.46-1.003 2.73-2.208 4.651-4.215 6.774-3.613 3.741-8.331 5.763-15.055 6.673-1.205.101-4.617.404-7.628.607-7.528.404-12.546 1.213-17.063 2.831-.602.202-1.204.404-1.305.303-.2-.202 2.911-2.022 5.42-3.235 3.513-1.719 7.126-2.629 15.055-4.045 3.915-.606 7.929-1.415 8.933-1.82 9.937-3.134 14.855-10.919 13.249-20.423z"/><path d="m161.386 146.226c-2.61-5.763-3.212-11.223-1.807-16.379.201-.506.402-1.011.602-1.011.201 0 .803.303 1.406.708 1.204.809 3.713 2.224 10.137 5.763 8.13 4.449 12.746 7.886 15.958 11.829 2.811 3.438 4.517 7.381 5.32 12.234.502 2.73.2 9.302-.502 12.032-2.208 8.594-7.227 15.47-14.553 19.413-1.104.606-2.008 1.011-2.108 1.011-.101 0 .301-1.011.903-2.225 2.409-5.156 2.71-10.11.903-15.671-1.104-3.438-3.412-7.583-8.029-14.56-5.52-8.088-6.825-10.211-8.23-13.144z"/><path d="m86.6109 177.167c7.4272-6.269 16.5611-10.717 24.9911-12.133 3.614-.606 9.636-.404 12.948.506 5.319 1.415 10.137 4.449 12.646 8.189 2.409 3.64 3.513 6.775 4.617 13.751.402 2.73.903 5.561 1.004 6.168.803 3.639 2.409 6.47 4.416 7.987 3.111 2.326 8.531 2.427 13.851.405.903-.304 1.706-.607 1.706-.506.201.202-2.509 2.022-4.316 2.932-2.509 1.314-4.516 1.719-7.226 1.719-4.818 0-8.933-2.528-12.245-7.583-.703-1.011-2.108-3.943-3.312-6.673-3.513-8.19-5.32-10.616-9.435-13.346-3.613-2.326-8.23-2.831-11.743-1.113-4.617 2.225-5.821 8.19-2.609 11.83 1.304 1.517 3.713 2.73 5.721 3.033 3.713.506 6.925-2.426 6.925-6.167 0-2.427-.903-3.842-3.312-4.955-3.212-1.415-6.725.203-6.625 3.337 0 1.314.603 2.123 1.907 2.73.803.404.803.404.201.303-2.91-.606-3.613-4.246-1.305-6.572 2.811-2.831 8.732-1.618 10.74 2.326.803 1.617.903 4.853.201 6.875-1.707 4.449-6.524 6.774-11.442 5.46-3.313-.91-4.718-1.82-8.732-5.966-7.0261-7.279-9.7361-8.695-19.7728-10.211l-1.907-.304z"/><g clip-rule="evenodd" fill-rule="evenodd"><path d="m49.02 33.0664c23.3857 28.6133 44.2129 54.5195 46.0195 56.946 1.5055 2.0222.9033 3.9432-1.6059 5.3587-1.4051.8089-4.3158 1.6177-5.7209 1.6177-1.6059 0-3.5129-.8088-4.8177-2.1232-.9033-.91-4.8176-6.6731-13.65-20.5248-6.7246-10.6163-12.4456-19.4126-12.546-19.5137-.4014-.2022-.4014-.2022 11.8434 21.8392 7.7283 13.8517 10.2375 18.8059 10.2375 19.4126 0 1.3144-.4014 2.0221-2.0073 3.842-2.7099 3.0331-3.9144 6.4711-4.8177 13.6491-1.0037 7.988-3.7136 13.65-11.4419 23.255-4.5165 5.662-5.2191 6.673-6.3232 8.999-1.4051 2.831-1.8066 4.448-2.0073 8.088-.2008 3.842.2007 6.269 1.3048 9.909 1.0036 3.235 2.1077 5.358 4.8176 9.504 2.3085 3.64 3.7136 6.37 3.7136 7.381 0 .808.2007.808 3.814 0 8.6316-2.023 15.7577-5.46 19.6721-9.707 2.4088-2.628 3.011-4.044 3.011-7.684 0-2.325-.1004-2.831-.7026-4.246-1.0036-2.225-2.9106-4.045-7.0257-6.876-5.4199-3.741-7.7283-6.774-8.3305-10.818-.5019-3.438.1003-5.763 3.1114-12.133 3.1114-6.572 3.9143-9.302 4.4161-15.975.3011-4.246.803-5.965 2.0074-7.28 1.3048-1.415 2.4088-1.921 5.5202-2.325 5.1188-.708 8.4309-2.022 11.0405-4.5499 2.3086-2.1233 3.3126-4.2465 3.4126-7.3809l.1-2.3254-1.305-1.4155c-4.7168-5.4598-54.8514-59.2715-55.1525-59.2715-.1004 0 1.5055 1.921 3.4125 4.3476zm15.6081 125.1936c1.104-1.921.5018-4.348-1.3048-5.561-1.7063-1.112-4.3158-.607-4.3158.91 0 .404.2007.809.8029 1.011.9033.505 1.0037 1.011.3011 2.123-.7025 1.112-.7025 2.123.2008 2.831 1.4051 1.112 3.3121.506 4.3158-1.314z"/><path d="m105.28 105.075c-2.409.708-4.717 3.337-5.4196 5.966-.4015 1.617-.2008 4.549.5016 5.459 1.104 1.416 2.108 1.82 4.918 1.82 5.52 0 10.238-2.426 10.74-5.358.501-2.427-1.606-5.763-4.517-7.28-1.505-.809-4.617-1.112-6.223-.607zm6.424 5.056c.803-1.214.502-2.528-1.004-3.438-2.71-1.719-6.825-.303-6.825 2.325 0 1.315 2.108 2.73 4.115 2.73 1.305 0 3.112-.808 3.714-1.617z"/></g></g></g></svg>