<svg fill="none" height="250" viewBox="0 0 250 250" width="250" xmlns="http://www.w3.org/2000/svg" xmlns:xlink="http://www.w3.org/1999/xlink"><clipPath id="a"><path d="m0 0h250v250h-250z"/></clipPath><clipPath id="b"><path d="m0 0h250v250h-250z"/></clipPath><clipPath id="c"><path d="m0 0h250v250h-250z"/></clipPath><g clip-path="url(#a)"><g clip-path="url(#b)"><g clip-path="url(#c)"><path d="m125 250c69.036 0 125-55.964 125-125 0-69.0365-55.964-125-125-125-69.0366 0-125.00012207 55.9635-125.00012207 125 0 69.036 55.96352207 125 125.00012207 125z" fill="#5af1b0"/></g></g><path d="m201.907 95.9461c-3.759 28.0469-29.782 27.7579-43.083 43.9499-22.265 27.758-13.301 52.336-34.12 57.83-20.818-5.494-11.854-30.361-34.1186-58.119-12.7226-16.481-39.035-15.903-42.5048-44.2388-2.8914-21.3972 8.3853-34.6979 17.3488-43.0831.5783-.5784-5.4938 20.5294 3.759 33.5408 8.096 10.9875 30.3601 17.3491 41.3476 25.7341 13.012 10.409 14.458 21.686 14.458 21.397.289 0 2.024-10.988 14.457-20.819 10.987-8.385 33.252-14.746 41.348-25.7335 9.253-12.7226 3.18-33.8303 3.759-33.252 9.252 8.3853 20.24 21.686 17.349 42.7936z" fill="#000"/></g></svg>