<svg fill="none" height="250" viewBox="0 0 250 250" width="250" xmlns="http://www.w3.org/2000/svg" xmlns:xlink="http://www.w3.org/1999/xlink"><clipPath id="a"><path d="m0 0h250v250h-250z"/></clipPath><g clip-path="url(#a)"><rect fill="#fff" height="250" rx="125" width="250"/><path d="m52.1768 197.887c-.1192-2.012-.1192-4.053-.0298-6.065.6852-.204 1.4003-.35 2.1154-.437 2.0856-.35 4.1415-.846 6.1377-1.429.5661-.175 1.1024-.35 1.6388-.584 2.6517-1.02 5.0055-2.682 6.7932-4.869 1.2514-1.517 2.324-3.15 3.2476-4.899 1.311-2.362 2.473-4.812 3.486-7.32 2.0559-5.045 4.1415-10.119 6.1675-15.163 7.0316-17.409 14.0632-34.848 21.0948-52.257 6.674-16.563 13.199-33.1555 19.635-49.8063.119-.35.268-.6707.417-1.0207 2.354-.6415 4.708-1.3122 7.121-1.9537.149.3499.268.6415.387.9331 2.712 7.436 5.423 14.872 8.134 22.308 9.266 25.3406 18.562 50.6816 28.097 75.9346 2.592 6.911 5.244 13.793 7.895 20.675 1.043 2.8 2.265 5.57 3.665 8.224.626 1.137 1.281 2.245 1.996 3.324 2.205 3.353 5.632 5.774 9.594 6.794 2.116.555 4.291.963 6.466 1.254l1.549.234c.209.67.09 1.341.119 1.983.03.641 0 1.37 0 2.07.03.671 0 1.341-.029 1.983-.209.029-.388.087-.567.087-.238 0-.476 0-.744 0h-53.84c-.059-.116-.089-.233-.119-.379 0-1.837 0-3.645 0-5.482.03-.087.03-.175.06-.233.447-.117.923-.204 1.37-.263 2.235-.291 4.469-.729 6.645-1.283.893-.233 1.757-.554 2.592-.875.417-.175.834-.349 1.221-.583 2.145-1.195 3.01-3.032 2.831-5.394-.09-1.079-.298-2.129-.566-3.179-.417-1.633-1.043-3.208-1.609-4.782-11.322-30.882-22.495-61.821-33.549-92.7902-.119-.3499-.149-.6999-.507-1.0206-.119.0583-.268.1166-.357.2333-.09.1458-.149.3207-.209.4957-5.393 15.222-11.173 30.3268-16.894 45.4618-4.2304 11.198-8.4613 22.395-12.424 33.681-1.5791 4.52-3.0987 9.069-4.5884 13.647-.5661 1.75-1.013 3.528-1.2812 5.336-.2085 1.225-.2383 2.45-.1192 3.675.1788 1.604 1.0429 3.062 2.3836 3.995.8641.612 1.8175 1.079 2.8603 1.429 1.609.554 3.2775.962 4.9758 1.254 1.877.349 3.7541.583 5.6011.874.119.029.239.059.388.088.059.146.089.262.089.408v5.307c0 .117-.03.204-.06.321-.178.029-.327.058-.506.088-.238 0-.477 0-.745 0z" fill="#000"/></g></svg>