<svg fill="none" height="250" viewBox="0 0 250 250" width="250" xmlns="http://www.w3.org/2000/svg" xmlns:xlink="http://www.w3.org/1999/xlink"><clipPath id="a"><path d="m0 0h250v250h-250z"/></clipPath><g clip-path="url(#a)"><circle cx="125" cy="125" fill="#fff" r="125"/><path d="m45.9393 62.6297c-2.4735.1946-4.3772.5837-4.2702.8755.9866 2.3484 7.0869 16.1748 7.1703 16.2582s1.5007.1806 3.1683.2501c7.3926.2779 13.2428 1.7231 19.5654 4.8497 4.544 2.2372 7.9068 4.6412 11.4085 8.1291 5.1554 5.1415 8.5182 10.8527 10.4914 17.8427.2224.806.403 1.528.403 1.639 0 .153-1.1255.181-6.1003.181-3.3628 0-6.2531.056-6.4338.125-.264.097-.9588 1.598-3.8492 8.226-1.9454 4.461-3.5573 8.213-3.5851 8.338-.0973.361 1.07.681 3.9881 1.112.5976.097 4.1827.194 8.421.25l7.3787.083-.4447 1.529c-4.9747 16.869-20.4131 28.667-39.3254 30.084-1.07.07-2.4735.139-3.1266.139h-1.1811l-3.6408 8.38c-3.1266 7.156-3.6129 8.379-3.4045 8.448.9449.348 3.0571.473 7.9485.473 6.2531 0 9.2964-.278 14.4517-1.334 21.0523-4.322 38.5475-17.718 46.4675-35.615 1.529-3.447 3.322-9.116 3.641-11.492l.097-.681h15.8l.056.305c1.139 5.587 2.376 9.352 4.516 13.799 6.434 13.396 18.495 24.332 33.433 30.335 9.072 3.633 18.788 5.377 28.557 5.127 4.085-.125 7.337-.583 7.17-1.014-.139-.361-7.059-16.244-7.101-16.286s-1.473-.097-3.21-.167c-4.877-.194-8.546-.764-12.687-1.945-6.378-1.834-12.687-5.156-17.523-9.213-6.086-5.128-10.491-11.506-12.826-18.579-.264-.806-.528-1.654-.569-1.904l-.098-.444 5.948-.042c3.265-.028 6.045-.097 6.156-.153.18-.097 7.295-16.23 7.295-16.55 0-.208-1.792-.736-3.418-1-1.195-.195-2.71-.251-8.755-.292l-7.323-.07.278-.986c4.058-14.3688 16.508-25.7773 32.558-29.821 3.544-.8894 6.99-1.3479 11.464-1.5286 2.668-.1111 3.002-.1528 3.169-.3752.111-.1528 1.75-3.8352 3.64-8.1846 2.321-5.3222 3.391-7.9485 3.294-8.018-.306-.1667-2.252-.5141-3.78-.667-2.223-.2362-8.713-.1945-11.575.0556-16.37 1.4591-31.127 8.0596-42.188 18.8428-6.754 6.5867-11.492 13.9793-14.41 22.511-.751 2.154-1.654 5.545-1.932 7.185l-.167 1.014h-15.531l-.056-.32c-.041-.166-.194-.958-.361-1.764-2.293-11.395-8.768-22.4701-17.9119-30.627-10.408-9.2963-23.3868-15.1187-37.6718-16.8877-4.2938-.5238-9.8285-.7045-13.479-.4266z" fill="#007f88"/></g></svg>