<svg fill="none" height="250" viewBox="0 0 250 250" width="250" xmlns="http://www.w3.org/2000/svg" xmlns:xlink="http://www.w3.org/1999/xlink"><clipPath id="a"><path d="m0 0h250v250h-250z"/></clipPath><clipPath id="b"><path d="m44.1826 57h160.635v136h-160.635z"/></clipPath><g clip-path="url(#a)"><path d="m125 250c69.036 0 125-55.964 125-125 0-69.0365-55.964-125-125-125-69.0365 0-125 55.9635-125 125 0 69.036 55.9635 125 125 125z" fill="#8b5cf6"/><g clip-path="url(#b)" fill="#fff"><path d="m67.6334 140.774.6478 11.801c.0423.804.3437 1.561.852 2.18 3.5537 4.302 19.4863 19.314 55.3908 19.314 35.904 0 51.643-14.818 55.329-19.234.555-.666.875-1.494.927-2.364l.642-11.689c4.275-2.345 8.687-4.996 8.687-4.996 6.938-3.758 14.681 1.641 14.695 9.56.024 12.813-9.988 25.981-23.492 34.278-15.227 9.357-37.956 13.238-56.779 13.238-18.822 0-41.5518-3.881-56.7785-13.238-13.504-8.297-23.5155-21.46-23.492-34.278.0141-7.919 7.7569-13.318 14.6948-9.56 0 0 4.4051 2.644 8.6761 4.988z"/><path d="m124.529 57.0231c29.357 0 37.316.6856 49.252 2.0567h-.004c5.502.6335 9.912 4.7279 9.503 10.2738l-4.397 59.8954c-1.376.399-2.876.903-4.559 1.467-8.819 2.96-22.645 7.6-49.795 7.6-27.1509 0-40.9763-4.64-49.7957-7.6-1.6843-.565-3.1862-1.069-4.5633-1.468l-4.3968-59.8944c-.4048-5.5459 3.9914-9.7396 9.5031-10.2738 11.7907-1.1442 24.0663-2.0567 49.2527-2.0567zm-52.2522 100.9249.0154.211.3034.07c-.1085-.095-.2148-.188-.3188-.281zm104.2112.274.273-.063.014-.192c-.094.084-.19.169-.287.255z"/></g></g></svg>