<svg fill="none" height="250" viewBox="0 0 251 250" width="251" xmlns="http://www.w3.org/2000/svg" xmlns:xlink="http://www.w3.org/1999/xlink"><clipPath id="a"><path d="m11.123 10.4167h229.167v229.167h-229.167z"/></clipPath><rect fill="#166815" height="250" rx="125" width="250" x=".707031"/><g clip-path="url(#a)" clip-rule="evenodd" fill-rule="evenodd"><path d="m147.67 15.4965h4.507c1.299 0 2.254.2291 3.399.2291 2.063 0 5.157-.0764 6.837.6493l7.448 3.6667c1.604.8021 3.056 1.8715 4.316 3.1319 1.299 1.2987 2.254 2.5591 3.285 4.0869.267.3819.458.6875.726 1.0694.802 1.0694 1.718 2.1007 2.329 3.3229l2.827 4.6215c.267.4202.42.7257.649 1.1459 1.413 2.368 3.094 4.6215 3.705 7.3715.115.5347-.038 1.2222.344 1.566.191.1909.916.4201 1.222.6111.382.2292.764.4965 1.146.7639 1.069.7257 5.614 3.8576 6.493 4.6979.764.6875 3.017 3.0937 3.59 3.8958.267.382.458.6875.764 1.0313 1.222 1.375 1.986 2.9409 2.788 4.5451.382.7639 1.528 1.1077 2.254 1.4514l5.652 3.7049c1.184.8784 3.132 2.75 3.132 4.5451 0 .5729-.191 1.3368-.458 1.6806-.573.7257-.993.2673-1.681.5729-.114.1146 0 3.8194 0 4.2014 0 1.5659-.343 2.7118-.343 4.3159 0 .9931.267 1.6424.343 2.4827.039.4583-.038.8403.039 1.2986.382 2.6354-.039 3.934-.344 6.4167-.115.8402-.229 1.4513-.649 2.177-1.872 3.6667-.497 1.6042-3.285 5.3091-.458.611-.84.955-1.337 1.49-1.566 1.566-2.253 1.489.611 3.857.611.497 1.413 1.681 1.986 2.292.344.344.535.764.879 1.184.955 1.222 1.757 2.674 2.33 4.125.191.535.267 1.069.458 1.604.267.802.993 1.07 1.528 1.642.496.535 1.069 1.146 1.489 1.796.535.84 2.559 4.888 2.559 5.92 0 3.284-.878 4.201-2.482 6.569-.535.84-1.337 1.413-2.025 2.063l-1.948 2.1c-2.864 3.782-2.253 3.247-1.451 4.278.535.726 1.337 2.483 1.337 3.399 0 2.521-.229 3.858-1.757 5.806-.611.764-1.031 1.566-1.719 2.253-.611.612-2.521 2.903-2.521 3.591 0 .343.459 1.298.535 1.604.497 1.375.267 4.621-.076 5.996l-.611 1.757c-1.184 2.903-1.948 3.514-3.782 5.844-1.566 2.024-3.208 2.177-1.336 4.469.229.305.381.42.611.726 1.107 1.527 2.597 1.871 4.163 2.826 1.146.687 2.482 1.184 3.59 1.948s2.177 1.451 3.323 2.215l2.33 1.757c.267.191.611.382.878.611l2.903 2.636c2.712 2.597 4.813 6.302 6.226 7.677l2.635 2.902c.459.573.764 1.108 1.184 1.643 2.025 2.673 2.177 4.965 3.896 7.295.42.573.764.955 1.146 1.566.726 1.222 1.451 2.215 2.062 3.476.955 1.909 1.528 3.972 2.483 5.882.267.534 1.413 3.704 1.413 4.277 0 2.368-1.184 4.507-2.902 5.806-.268.191-.573.305-.879.496-1.146.803-.764.726-2.483 1.605-1.222.611-2.215 1.451-3.475 1.948l-1.872.84c-1.222.573-2.597 1.146-4.01 1.413-.841.191-1.184.42-2.139.611-.764.115-1.452.267-2.215.497-1.452.42-2.75.878-4.278 1.145l-5.042.497h-4.621c-.802 0-1.07-.229-1.796-.229-1.26-.038-2.75.153-3.934-.153-1.833-.458-4.163-.191-6.034-.191-1.948 0-3.896-.305-5.768-.458-.725-.077-1.069-.229-1.795-.229-1.795 0-1.986-.191-3.705-.497-1.489-.267-1.757-.153-3.284-.764l-2.941-1.26c-1.223-.573-3.82-2.407-5.042-3.209-.42-.305-.802-.496-1.184-.84-.917-.764-1.986-1.451-3.017-2.101-.306-.191-.382-.267-.65-.458l-2.559-1.489c-.611-.268-.687-.459-1.222-.841-.42-.305-.917-.496-1.375-.764-1.719-1.031-2.101-2.597-2.75-4.354-.115-.305-.229-.458-.305-.802-.23 0-.306 0-.535.038-.917.229-1.757 3.743-5.386 5.577-.305.152-.496.267-.764.343-.42.153-.496.153-.878.382-.573.344-3.552 1.184-4.927 1.986-.535.306-1.26.306-1.872.497-.954.306-4.698 1.222-5.652 1.222-2.216 0-7.486-.153-9.282 0-.84.077-.954.344-2.024.344h-13.903c-1.298 0-3.437-.229-4.507.153-1.527.535-3.705-.077-5.423.382-.306.076-.459.229-.841.267-.725.076-1.566-.038-2.329.038-.8025.115-1.2608.306-2.0629.306-1.0313 0-1.3368.344-2.0243.344h-13.1389c-.8021 0-.9167-.344-3.2847-.344-1.2222 0-2.5209.038-3.7431 0-.6493 0-.8785-.191-1.4896-.306-1.1458-.191-2.5208.153-3.6666-.076-.8403-.191-.1528-.229-1.6042-.306-.4965-.038-1.0694-.076-1.7187-.114-.6112-.038-.9167-.306-1.4896-.344-.6875-.038-1.1077.038-1.6806-.115-.2673-.076-.4965-.152-.6875-.191-.3437-.038-.6493 0-.993-.038-.8403-.076-5.0035-1.146-6.3403-1.146-2.0625.039-3.7813-1.145-5.7292-1.604-.5729-.114-.9167-.038-1.5278-.267-1.4132-.573-2.8646-.802-4.3159-1.337l-2.6737-1.031c-.4965-.153-.9166-.229-1.375-.42-.8784-.344-1.6805-.802-2.4062-1.337-.5347-.382-.7639-.344-1.375-.573-.8785-.306-1.6424-.84-2.4826-1.26-1.2987-.726-2.2917-.726-3.7431-1.719-1.1076-.764-2.4062-1.375-3.5139-2.139-.3819-.267-.6493-.458-1.0694-.726-.4966-.267-.8785-.267-1.2986-.649-1.3368-1.222-2.4445-2.368-3.7431-3.629-.7639-.763-1.375-1.718-2.0243-2.635-1.375-1.91-1.3368-1.26-2.5972-3.819-.2292-.497-.4202-.688-.6493-1.184-.2674-.535-.3438-.879-.4966-1.414-.2673-.916-.6875-1.795-1.0694-2.635-.7257-1.604-.9167-2.521-1.4514-4.087-.7257-2.139-.6111-2.673-1.0312-4.621-.1146-.612-.2674-.65-.3056-1.49-.0382-.611-.1528-1.108-.3056-1.604l-.3819-5.5c0-.764.191-1.031.2292-1.681.0382-.764-.0764-1.298.1146-1.909.2291-.802.2673-1.872.4583-2.598.3055-1.145.191-1.642.2292-2.826.0381-.688.3055-1.069.3437-1.681.0764-1.336 0-.573.3056-1.757.1145-.458.1527-1.336.1527-1.871 0-2.254-.0764-1.681.2674-3.705.0764-.458 0-1.299.1146-1.948l.2673-1.757c.0764-1.107-.1527-2.368.1528-3.475.2292-.764.1528-.879.2674-1.796.1146-.916.191-.458.191-1.833.0381-1.184 1.2604-5.08 1.2604-6.76 0-.993-.0382-1.07.2291-1.834.191-.611.0382-1.184.2292-1.795.2674-.84.1146-.84.2292-1.795.1527-1.108.5729-2.177.6493-3.285.0382-.496.1146-1.337.2291-1.795.2292-.802.1528-1.948.2292-2.826l.2674-1.757c.0764-.306.1909-.497.2673-.764.191-.611.0764-1.222.2292-1.795.0764-.268.1528-.535.2292-.802.4201-2.368 1.2604-4.813 1.9097-7.104.191-.65.3819-.841.6111-1.414l1.4132-4.698c.0764-.343.0764-.496.191-.84.0764-.229.1527-.42.2673-.726.3438-.993.8785-1.833 1.1459-2.826.3055-1.069.9166-1.719 1.3368-2.75l.5729-1.49c1.2604-3.017 1.7951-4.01 3.2083-6.8363.2292-.4965.4583-.8403.7257-1.2986.4965-.9549.7639-1.8334 1.375-2.7118.2674-.382.5347-.9167.7639-1.2986l2.75-5.3855c.4583-.9548.8403-1.7951 1.375-2.6736.3056-.4965.3437-.9548.6111-1.4132l3.5903-6.493c1.2986-2.1771 2.1771-4.5452 3.5139-6.684 1.6423-2.6737 2.1389-4.0487 3.5139-6.5313.2673-.4583.5347-.8021.8402-1.2222l3.2084-4.8125c.3055-.4584.4201-.8785.7257-1.2986.2673-.4202.5347-.8021.8021-1.2223.4201-.6493 1.1458-1.9097 1.6805-2.4062.7257-.6875 1.1458-1.4896 1.8715-2.2153.382-.3819.6493-.6493 1.0313-1.0312.8785-.8785 1.6042-1.8334 2.4826-2.5973.7257-.6493 1.6806-2.1388 2.1007-2.9791.6111-1.2222 1.9479-2.1771 2.7882-3.3229.6111-.8403 1.2986-1.2605 1.9097-2.0625.6111-.8021 1.1459-1.5278 1.8334-2.2153.8784-.8785 1.2604-2.1389 1.8333-3.2465 1.2222-2.3299 2.7118-4.698 4.3542-6.7605 1.9861-2.5208.4201-1.1458 3.7048-4.4305.7257-.7257 1.2986-1.2604 2.1007-1.8333.382-.2674.8403-.4584 1.3368-.7257l3.9341-2.1771c2.559-1.5278 4.7743-2.2917 7.868-2.2917.6875 0 1.2222-.191 1.7952-.2292 1.2986-.1145 2.6354 0 3.8958-.1909 1.4514-.2292 4.3544-.191 5.8054-.0382 3.094.3437 6.226.3819 9.281.9166.191.0382.65.1528.841.1528.916.1146 1.757.2674 2.597.5729 3.17 1.1459 5.118 2.2917 7.792 4.4306.42.3437.687.5347 1.145.8785.955.6493 2.368 2.2916 3.018 3.2083.229.3819.458.9931 1.031.9931.42 0 3.247-1.9862 3.705-2.3681.764-.6493 1.719-1.0313 2.444-1.7569 1.414-1.3369.917-1.2987 3.17-2.941.841-.6111 1.643-1.0313 2.598-1.4514 1.413-.6875 3.246-1.184 5.003-1.184z" fill="#39933c"/><path d="m176.16 145.663h-2.597c-.726 0-1.452-.153-1.91-.153-1.299.039-2.788.039-4.049.23-2.406.343-5.194-.077-7.562-.344l-4.889-.535c-1.413 0-3.667-.191-4.889-.535-.687-.191-1.642-.229-2.368-.382-1.451-.267-2.941-.802-4.354-1.069-.955-.191-1.26-.306-2.139-.535l-4.621-.802c-1.681-.114-3.476-.191-5.042-.344-1.91-.229-3.667.077-5.653.077l-4.392-.497c-.497-.114-.841-.267-1.299-.382-.802-.229-2.024-.305-2.826-.42-.802-.114-1.872-.344-2.788-.535-.497-.076-.803-.267-1.184-.42-.459-.152-.879-.229-1.299-.382-.382-.114-.688-.305-1.146-.458-.496-.191-.726-.382-1.146-.535-.878-.305-1.566-.458-2.521-.764l-3.628-1.336c-1.375-.497-2.215-.993-3.705-1.261-1.7187-.305-3.5138-.84-5.1943-1.375-2.6355-.84-5.9584-4.278-7.2188-4.316-.5347 0-.9167.268-.9167.802-.0382 1.49 5.9584 5.309 7.5243 5.615l7.6775 2.177c.649.267 1.68.802 2.368 1.031 1.184.382 4.125 1.146 4.965 1.604.764.459 3.934 1.605 4.965 1.719.879.115 1.872.458 2.636.611 1.145.191 1.757.077 2.788.497.573.229 4.965.878 5.767.878 3.667 0 7.028-.153 10.695.191 1.031.077 1.527.306 2.33.42.878.115 1.642.153 2.406.421l6.76 1.642c3.094.382 3.476.764 7.448.955.993.038 1.451.229 2.406.267.879.038 1.795.038 2.636.191 6.875.993 12.031-.076 18.639.573 2.826.267 5.729 0 8.593-.076 1.872-.039 3.514-.421 5.424-.382 1.681 0 4.24-.039 5.729-.42.535-.153.726-.115 1.184-.306 1.07-.42 2.215-.917 3.018-1.604l1.566-1.49c.42-.458 1.833-1.795 2.444-2.1.649-.306.535-.23.955-.612.267-.229.535-.42.84-.649.84-.726.917-1.184 1.49.153.496 1.184 1.107.687.764 3.667-.077.611-.65 2.215-1.032 2.597l-.382.42c-.267.267-.191.076-.42.382l-.916 1.375c-.23.305-.459.382-.802.687-.459.42-.268.344-.612.879-.573.878-1.718 2.712-2.559 3.323-.267.191-.649.42-.954.611-.612.42-1.07.878-1.681 1.26s-1.222.688-1.872 1.07c-.496.305-1.527.573-2.177.802-3.475 1.031-3.59.993-7.868.611l-6.416-.306c-1.337 0-2.521.306-3.858.344-5.424.191-10.771.764-16.194.688l-3.285-.115c-1.108 0-1.834-.229-2.941-.267-4.202-.268-8.441-.153-12.681-.23-1.184-.038-1.68-.267-2.712-.496-1.222-.306-.687-.458-2.559-.726-.954-.153-1.604-.458-2.75-.534-.993-.077-2.024 0-2.979-.153-1.107-.191-1.566-.42-2.788-.497-.878-.038-1.948-.153-2.788-.382-1.757-.458-3.59-.458-5.271-1.184-.764-.343-1.566-.611-2.33-.955-.84-.382-1.413-.649-2.177-1.107-1.184-.688-4.163-1.757-5.423-2.597l-3.247-1.605c-.688-.267-1.719-.573-2.368-.916l-4.24-2.216c-.343-.191-.764-.305-1.107-.496-.42-.229-.764-.344-1.146-.535-1.3369-.726-5.0418-3.323-6.0349-3.666-1.4513-.459-.3819.114-2.368-.917-.6875-.382-1.375-.84-2.1389-1.146l-1.566-.84c-.2291-.153-.1909-.153-.4583-.306-.6875-.382-1.4896-.611-2.0243-1.26-1.0313-1.146-2.6354-1.872-3.7813-2.788-.9166-.688-1.7951-1.375-2.2534-2.483-.8021-1.91-.8403-1.146-.4202-3.934.1528-.955.573-1.413 1.1077-2.177 1.1076-1.528 6.0729.496 7.9062.649.5347.038.8021.153 1.2222.344l4.8889 1.566c.4584.114.9549.191 1.375.305.7257.23 1.7952.459 2.4445.764.6875.306 1.6805.726 2.3678.917 1.375.382 3.896 1.146 5.156 1.299 1.032.114 1.796.305 2.75.534.841.191 1.987.191 2.903.344.535.115.688.229 1.261.344.496.076.955.076 1.451.153.955.114 1.642.42 2.712.572.917.153 1.528.535 2.521.65l5.271 1.184c.802.229 4.621.726 5.5 1.069.534.191.572.229 1.26.344.496.076.955.153 1.451.229 1.872.229 3.782.611 5.768.726l5.691.84c1.833.344 3.934.229 5.729.726 1.948.573 5.347.305 7.562.305.993 0 1.872.115 2.827.153.993.077 1.718.306 2.712.306 2.788.038 5.385.229 8.135.573.917.114 1.642.114 2.597.152 1.757.039 3.361.421 5.08.421h2.712c1.871 0 5.309-.459 7.906-.459 1.031 0 2.063.038 3.056-.076l7.066-1.528 1.986-.802c1.528-.726 2.979-1.948 4.163-3.094.382-.344.344-.153.764-.687.802-1.07 2.903-3.743 3.628-4.889.802-1.299 2.445-4.469 2.827-5.882.343-1.146.687-2.254.878-3.438l.229-1.107c0-.038.039-.077.039-.077.458.115.763.841 1.031 1.261.229.344.649 1.069.802 1.451.611 1.681 1.031 1.528 1.375 3.17.42 2.139-1.222 4.813-2.636 6.341-.229.229-.343.382-.534.611-.344.458-.268.229-.611.534l-1.146 1.146c-1.49 1.413-2.636 3.782-4.049 5.004-.458.382-.687.725-1.146 1.146-.305.267-.993.84-1.336 1.069-.23.153-.459.267-.688.42l-1.872 1.528c-.458.382-.687.764-1.107 1.146s-.802.687-1.184 1.069-.993.535-1.49.764c-.267.153-1.451.497-1.757.535-3.132.535-9.09.229-12.909.84-2.98.42-6.837-.382-8.747-.382z" fill="#8d4228"/><path d="m185.444 44.4096c-.497-.1146-.076-.1146-.573-.4201-.344-.191-.42-.0764-.764-.2674l-1.337-.6875c-.611-.3438-.916-.3438-1.451-.6111-1.07-.5347-.038-.191-1.49-.5347-2.062-.4584-1.871-.573-3.17-.8785-3.857-.9549-6.149-1.6806-10.541-1.7188-1.375-.0382-2.598-.1527-3.973-.1527-.611 0-1.184.1527-1.795.1909-.687.0382-1.375.0382-2.024.1146-1.07.1528-2.292.4583-3.514.5347l-3.399.7257c-.382.1146-.955.382-1.49.5348-.382.1145-.42.1909-.687.3437-.306.1528-.497.1146-.841.191-1.069.1909-4.163 1.5278-4.965.7257-2.406-2.4063-5.615-4.125-8.594-5.8438 0-1.2222-.458-4.6215-.916-5.4618-.344-.6111-.688-1.4132-.955-2.1771-.382-.993-.993-1.4896-1.07-2.2152.344-.4202 3.209-2.1771 3.323-2.2917.42-.4202.115-.3438.726-.6111 2.33-1.1077 2.559-2.1389 3.934-3.2084.229-.1909.573-.3819.764-.6111.229-.2673.496-.5347.726-.7257.458-.3437 3.361-1.5659 3.972-1.6423.955-.1146.458-.1528 1.107-.2674.459-.0764.879-.1146 1.337-.1146l5.653.0382c1.833.191 7.142.2674 7.868.5729 1.566.6493 4.125 2.0243 4.813 2.2917.84.3438.381.1528.878.5729l1.948.8785c.84.3437 2.674 1.5278 3.399 2.2535 1.757 1.7187 1.184.993 2.597 3.0555l2.674 3.6667c.344.2674.038-.191.306.3437.725 1.375 1.909 3.0174 2.711 4.4306.382.6875.764 1.0694 1.07 1.7569.229.573.649 1.2987.993 1.8334.267.4583.382.3055 1.146 1.6805.496.8785.382.4202 1.031 1.7952.191.4583.191.6875.458 1.0312.306.382.535.3056.115.8785zm9.854 146.3994c-.305-.382-.114-.267.076-.497.459-.458 1.223-2.253 1.337-2.864.153-.955.306-.382.879-.802.305-.229.458-.879.344-1.261-.153-.458-2.521-1.871-3.056-2.062-1.986-.84-6.646-1.757-8.67-.802-.535.229-.726.191-1.222.496l-2.025 1.375c-.878.611-2.253 2.063-3.743 3.018l-.993.725c-1.375.841-2.597 2.025-4.048 2.75-.421.191-.764.306-1.184.497-1.872.955-5.615.496-7.41-.038-.535-.153-.688-.344-1.222-.497-.955-.267-1.337-.84-1.681-1.719-.153-.343-.382-.764-.42-1.184-.076-.496-.076-1.145.038-1.604.115-.535.344-.802.497-1.222.42-1.337.573-.993 1.642-1.719l2.177-1.222c.726-.267 1.222.306 1.833.573l1.07.611c.535.306.993.611 1.375 1.108.305.382.458.496.726.993.84 1.413-2.292 3.055-2.712 3.666-.611.917.305 2.025 1.375 1.605.153-.077.802-.573.993-.726l.916-.802c.879-.955 1.757-2.025 1.757-3.4 0-.649-.42-1.413-.763-1.909l-1.146-1.375c-.306-.382-.153-.115-.497-.382l-2.521-1.643c.306-.42.573-.458.993-.763.459-.344.841-.994 1.299-1.299.917-.611.573-.497 1.299-1.299.382-.42.496-.496.954-.84.65-.458 1.299-1.031 1.757-1.642.573-.726 2.101-1.719 2.903-2.292 1.146-.84 1.948-1.222 3.094-2.215.611-.535 1.566-.764 2.33-1.07 2.979-1.107 2.788-1.986 6.798-2.024 1.07 0 1.796.267 2.598.993.382.344.611.382.954.726 1.07 1.069 2.56 2.368 3.82 3.208.802.535 1.031 1.26 1.451 2.063.268.496.879 1.107 1.452 1.947l.802.917c.458.497 1.146.688 1.68 1.031.802.497 1.184.497 1.719.879 1.413.993 3.017 1.489 4.392 2.482l5.08 3.629c.688.458 1.414.993 1.91 1.566.84.917 1.795 1.642 2.674 2.521.878.878 1.489 2.024 2.291 2.903.764.84 1.757 2.788 2.674 3.437.649.458.229.42.726.955l1.298 1.299c.841.993.688.954 1.146 1.566.267.343.115.076.382.381.688.841 2.139 3.323 2.253 4.698.764.497.191-.229.688.841 1.222 2.635 1.299 1.871 1.871 2.788.573.917 1.032 2.024 1.643 2.979l2.903 6.378c.611 1.337.42 1.07.649 2.407.229 1.413 1.108 1.795.611 3.819-.153.573-.267.344-.649.917-1.108 1.566-1.146.917-2.101 1.719-.458.382-.191.42-.726.763l-1.527.726c-.802.344-1.223.993-1.796 1.222l-2.635 1.261c-.687.344-.42.573-1.49.726-1.069.152-1.336.649-2.368.687l-.038.153s0 .038-.038.076l-.038.229c-.802-.076-.42-.152-1.299.077-.458.114-.878.114-1.375.229-1.604.42-3.208.802-4.812 1.413-.42.153-2.101.382-2.598.42-1.298.153-1.565-.114-2.902.268-.611.191-5.5.152-6.035-.039-.649-.229-.458-.229-1.337-.229l-6.34-.114c-1.299-.039-4.163.229-5.195-.191-.42-.191-4.316-.42-4.965-.611-.496-.115-1.26-.077-1.833-.115-.993-.038-.649-.229-1.452-.306-1.336-.152-2.024-.229-3.17-.573-1.146-.343-3.017-.993-4.048-1.604l-3.4-2.139c-.458-.458-1.145-.725-1.718-1.107-.306-.229-.153-.229-.459-.459-.229-.19-.382-.191-.611-.42l-6.111-4.048c-.382-.229-.802-.65-1.108-.802l-1.184-.611c-.496-.306-.343-.306-.649-.803-.267-.42-.382-1.031-.649-1.604-1.719-3.628-1.108-6.837-1.108-10.656 0-1.91-.191-1.642-.305-2.941-.077-.878-.611-1.528-.955-2.253-.306-.573-1.337-1.872-1.834-2.483-.305-.42-.496-.955-.725-1.413-.382-.802-1.184-1.834-1.757-2.445-1.07-1.146-2.101-1.909-3.247-3.208-1.031-1.184-1.948-2.559-2.444-3.972-.382-1.108-.344-2.521.229-3.4.115-.152.955-.954 1.108-1.031 1.718-1.146 2.177-1.91 4.468-1.948 1.032 0 .917.038 1.719.382 2.292.955.917.077 2.445 1.834.382.42.42.305.725.84.764 1.451-.191 4.048 2.75 6.187 1.986 1.452 2.75 1.184 3.934 1.528.306.077.268.191.764.267.649.077 1.222 0 1.91.153.114.268.229.879.344 1.222.114.497.305.573.42 1.032.42 1.642.267 3.781.611 5.385.42 2.024 1.948 4.24 3.437 5.538.344.306.535.459.802.764.688.841 1.605 1.337 2.369 2.025l2.979 2.368c.955.763 1.757 1.718 2.635 2.597.497.496 2.063 1.413 2.674 1.833 1.298.879 3.17 1.108 4.698 1.337 1.413.229 2.062-.191 2.673-.229.802 1.413.191 2.177 1.604 3.705.421.458.612.84 1.566 1.184.421.152.573.305.955.382 1.91.382 4.011.534 5.882.687 1.337.115 2.368-.076 3.552-.496.306-.115.535-.268.764-.344.191.229.459 1.375.611 1.871.191.65 1.146 1.681 1.719 1.91 2.292.917.153.306 2.941.688 1.451.191 2.865-.077 4.125-.535 2.712-.993 2.826-2.636 4.622-3.858.152-.114.191-.114.343-.229l1.299-1.757c.229-.305.305-.305.573-.687.229-.306.305-.382.496-.65l.841-1.069c.114-.191.114-.153.267-.306.993-1.031 1.795-2.1 2.865-3.132.305-.305.267-.343.611-.496 0-.802-.039-1.299-.65-1.528-1.298-.496-2.635 1.642-3.284 2.559-.535.764-1.337 1.26-1.91 2.063-.267.42-.191.152-.497.534l-1.604 2.254c-.153.191-.305.305-.496.496-.306.344-.573.688-.917 1.032-.344.343-.802.611-1.069.954-.306.382-.497.764-.879 1.032-.726.496-1.604.955-2.75 1.184-.84.152-2.826.076-3.514-.268-1.68-.802-.916-.955-1.528-2.406-.725-1.68-.649-1.489.191-2.864.344-.573.497-.573 1.032-.994.267-.229.267-.267.534-.496.802-.611 4.125-4.163 4.316-4.431.879-1.336.993-1.107 1.834-2.024.343-.382.611-.687.955-1.069.381-.382.534-.612.954-.955.382-.306.573-.802.344-1.49-.191-.573-.649-.687-1.337-.573l-3.055 3.132c-.535.42-.802.802-1.222 1.375-.612.84-1.719 1.872-2.483 2.712l-1.681 1.795c-.649.726-.916.268-2.597 2.712-.267.382-.305.726-.611 1.108-1.069 1.375-3.514.802-5.042.763-.611 0-1.222.039-1.833-.038-1.413-.152-.344-.343-3.132-.534l-.802-1.223c-.229-.458-.306-.916-.458-1.451-.268-.917-.077-1.604.343-2.368.535-1.031.917-2.292 1.452-3.285l2.444-3.437c.65-.65 1.032-1.643 1.49-2.33.458-.726 1.833-1.757 2.559-2.33.84-.649 2.139-1.299 2.75-1.986 1.069-1.222-.076-2.483-1.222-1.757-.153.114-.306.267-.535.458l-2.826 1.91c-.841.573-1.757 1.566-2.483 2.406-.726.802-.879 1.681-1.91 2.865-.305.344-.535.84-.764 1.146-.573.802-1.031 1.222-1.566 2.291-.152.344-.267.382-.382.611-.114.268-.076.459-.191.726-.152.382-.42.764-.649 1.299-.191.458-.42.916-.611 1.298-.917.038-1.566.344-2.33.306-.726-.038-1.489-.268-2.292-.382-1.527-.229-2.597-1.222-3.59-1.833-.916-.573-1.375-1.223-2.1-1.948-.23-.229-.382-.497-.612-.764-.84-.993-1.566-1.91-1.986-3.438-.267-.993.038-1.527.459-2.177.343-.496.611-1.107 1.031-1.68.42-.535.726-.955 1.108-1.605.84-1.413 1.756-2.1 2.864-3.246.191-.191.076-.153.344-.306.611-.382 1.26-.496 1.91-.84.267-.153.611-.305.916-.458.459-.191 1.184-.611 1.719-.917 1.146-.649 2.292-1.489 3.437-1.986 2.445-1.108 1.605-1.031 2.483-1.566.802-.458 1.642-1.069 2.292-1.795.916-.917 2.024-1.604 2.979-2.445.726-.611 2.559-1.757 3.056-2.253.534-.535.725-1.375 0-1.833-.879-.535-1.528.191-1.948.573-.497.42-1.07.687-1.605 1.107-.382.306-.152.268-.725.611-.306.191-.459.306-.764.611-.382.344-.268.306-.764.573-.84.459-1.413 1.299-2.177 1.91l-.764.611c-.458.458-.573.458-.764.344zm-122.9096-64.625c1.0694.382 1.6423-.84 2.0243-1.49 1.375-2.215 3.934-3.934 6.4166-4.43 2.1389-.42 3.9723-.879 6.3021-.917.6493 0 1.1841-.114 1.7952-.114.4583 0 1.4132.152 1.7951.076.9549-.229.9167-1.566-.0382-2.139-.4965-.306-5.8437.115-6.7222.229-.7257.077-.9549.229-1.4896.306-2.1771.343-4.9653 1.069-6.684 2.406-.3438.267-.6493.573-.9931.802-.9166.764-4.5451 4.545-2.4062 5.271zm14.1319-14.323c1.6806-.229 1.6806-.306 1.7188-1.069.1145-1.566-1.566-1.146-3.132-1.07-1.1076.038-2.1389.267-3.2083.42-.8021.077-2.1771.535-2.7882.841-.8403.42-1.8333.763-1.2986 2.177.7257.954 1.7187.267 2.5972-.191 1.9861-.955 4.125-.841 6.1111-1.108zm95.1807-6.99c-1.413 0-2.101-.267-3.208-.534-.344-.077-.65-.077-.994-.153-.916-.229-6.34-1.948-7.142-2.445-1.68-.954-2.864.535-1.604 1.605 1.031.84 2.062 1.107 3.208 1.642 1.413.687 2.521 1.642 2.941 1.833.955.459.268.077 1.452.917 2.635 1.872 2.711 2.826 4.659 4.927l1.796 1.833c1.031.993.343.306 1.069 1.299.229.306.344.306.535.573.649.84 1.336 2.559 1.833 2.941.535.42 2.635.649 1.26-2.139-.229-.42-.152-.42-.42-.84-1.68-2.636-3.819-4.354-4.927-5.806l-1.604-2.024c-.535-.688-1.642-1.566-1.681-1.719 3.285.191 5.424.497 8.632-.153.382-.076.841-.343 1.184-.534.382-.23.612-.573.459-1.261-.268-1.146-1.643-.535-2.368-.344-1.604.459-3.438.344-5.08.382zm-20.205-27.576c-.955-4.0868-1.566-3.6667-3.972-6.4167l-1.604-1.8715c-.611-.5729-1.605-1.184-2.216-1.9479-1.26-1.5278-3.552-3.6667-5.423-4.316-1.49-.4965-4.813-.6875-6.379-.5729-1.107.0764-2.253.1528-3.399.1146-.764-.0382-2.674-.4965-3.056.191.191.4201 1.91.9166 2.407 1.1076.878.3056 1.68.6875 2.597 1.0313 1.222.4201 2.406 1.1076 3.399 1.9097.497.4201.573.3437 1.031.7639 1.184 1.1458 2.559 2.3298 3.553 3.552.381.4584.42.573.878.9549.382.3056.611.5729.955.8403.649.4965 1.413 1.0312 2.024 1.566 1.337 1.184 2.292 2.2916 3.59 3.5138l1.719 1.757c.955.8021 1.872 1.6424 2.597 2.7118.268.3819.535.6493.764 1.0694l.611 1.1841c.65 1.6805 1.032 1.7951 1.261 4.125.114.9548.535 2.559-.268 3.0937-.381.1528-.802.191-1.184 0-.343-.2291-.191-.0382-.343-.6111-.077-.3055-.115-.5729-.115-.9167-.038-1.0694-.42-2.1006-.611-3.2083-.076-.4965-.382-.8785-.611-1.2986-.458-.9167-.917-1.7187-1.413-2.4444-.65-.8785-2.063-2.1007-2.941-2.941l-.993-.9549c-1.414-1.2604-2.292-2.6736-3.934-3.743-2.483-1.6424-3.934-3.5903-5.997-5.6528-2.101-2.0625-4.507-3.4375-7.333-4.316l-2.75-1.0694c-1.681-.5729-5.806-2.3299-7.41-2.2153-3.17.2292-6.417-.2292-9.549.1146-1.069.1146-2.329.3819-3.513.3819-1.299 0-2.559 0-3.858 0-1.719 0-5.958-.5729-7.41-.1528-.42.1146-.993.3056-1.451.4584-.573.1528-1.1842.191-1.6808.3437-2.0243.6875-3.8576 1.1459-5.5382 2.1389-.8402.4965-1.4132 1.184-2.0243 1.7952-.6875.6493-1.2986 1.184-1.9861 1.9479-.8403.9166-2.0625 1.9097-2.8264 2.9409-.9166 1.1841-2.1771 2.0625-2.6736 3.2084-.3437.8021-.4583 2.559 0 3.2083 2.559.191 3.0938-1.184 4.316-2.7882 2.5972-3.4375.9549-1.4132 3.3611-3.8958.7639-.8021 2.2535-1.6424 3.2083-2.2535l3.9341-1.5278c.9169-.2291 2.0239-.5347 2.9029-.8402 1.489-.5348 1.451-.382 2.941-.6875.993-.191 1.91-.382 3.055-.5348 1.07-.1527 2.368-.1527 3.323-.3437.841-.1528 2.254-.382 3.132-.4583l3.323-.2292c1.146 0 2.254-.1146 3.514-.1146l3.17.3056c1.261.1527 2.024.1909 3.17.6111.459.1527.993.2291 1.452.3437.458.1528.802.382 1.222.6111 1.031.5348 2.177.8021 3.055 1.4896.268.191.153.1528.535.382 1.261.6875 4.24 2.9409 4.889 3.2465.229.1528.382.1528.611.3055 1.031.6875 2.521 1.2223 3.705 1.7188.535.2292.726.4201 1.184.6111 1.642.6111 3.438 1.4896 4.813 2.5208.42.3438.611.4966.993.8021.229.191.84.6111.993.8021.611.6875 1.26 1.1458 1.795 1.8333l1.375 2.3299c.382.8785.649 1.7187 1.069 2.5972l.764 1.9479c.726 1.4514 1.07 3.132 1.872 4.4688.343.5729.114 1.1076.343 1.566.115.2291 1.261.6111 1.566.8402.535.3438.879.7257 1.223 1.1459.229.3055.305.2673.42.7257.267.9166.42 2.3298.114 3.1701-.573 1.5656-2.635 2.7116-3.666 3.4756-1.948 1.49-3.514 1.566-5.157 3.094l-1.756 1.871c-.803.955-1.528 1.49-2.369 2.407-.42.42-.687.878-1.069 1.298-.993 1.184-1.795 1.91-3.017 2.865-.306.229-.497.305-.726.496-1.26 1.108-2.597 2.292-4.201 2.941l-3.362 1.414c-.649.19-1.031.19-1.909.496-.65.229-1.108.458-1.719.649-.688.23-1.26.268-1.872.535-2.368.993-4.354 1.91-6.798 2.712-1.452.496-2.788.267-4.431.344-.611-.993-.496-1.07 0-2.101.802 0 1.986-.038 2.75-.115.917-.114 1.834-.458 2.636-.84.114-.038.42-.153.496-.191l1.986-.802c.535-.191.573-.267 1.032-.458.305-.153.687-.191 1.031-.344.535-.229.305-.306.993-.458.917-.191 1.413-.306 2.215-.65.764-.305 1.299-.496 2.139-.687.993-.229 1.299-.497 2.177-.764 1.184-.382 1.948-.993 2.827-1.337.725-.305 1.031-.764 1.642-1.184.535-.382.993-.955 1.528-1.299.725-.42 1.833-1.26 2.368-1.909.611-.726.305-.573 1.26-1.566l1.375-1.452c.42-.42 1.261-1.107 1.337-1.527-.153-.077-2.979-.153-3.743-.306-1.337-.267-2.865-.153-4.24-.153-1.451 0-2.864-.114-4.163-.114-.687 0-1.337-.039-2.024-.153-.764-.076-1.222-.267-1.872-.382-1.337-.229-2.635-.229-4.01-.306-1.795-.076-6.417-.458-8.097-.725l-3.858-.573c-.726-.077-1.222 0-1.948-.229-.535-.153-1.146-.344-1.719-.459-1.145-.267-2.062-.878-3.246-1.146-1.452-.343-2.406-1.145-3.552-1.8711-.879-.5729-1.146-.7639-1.872-1.5277-1.528-1.566-2.941-2.7882-4.545-4.1632-.802-.6875-1.4131-1.4896-2.368-2.0243-.4583-.2674-.9549-.4584-1.2604-.9167-.3056-.4583-.0764-1.184.4965-1.4896 1.1459-.6111 2.7879 1.2986 3.4379 1.7569.878.6875 4.468 3.8959 5.003 4.507.306.3437.344.3819.649.6875.612.6493.726.6875 1.528 1.184 3.094 1.9479 3.17 1.4132 5.5 2.5212 2.254 1.069 4.545.802 6.913 1.222 3.171.611 6.57.878 9.74.993.878.038 1.604.153 2.483.191 1.909.076 2.979.611 4.888.649 1.757.038 3.476.115 5.233 0 1.642-.076 3.476.268 5.004.42.802.077 1.795.077 2.597 0 .726-.076 1.528-.458 2.101-.649.649-.267 1.26-.535 1.871-.84 2.063-.993 3.247-1.795 4.889-3.285.344-.3437.344-.1909.42-.8784.191-1.566-1.299-2.4445-1.642-2.3681-.382.2292-.306.382-.841.6875-1.145.6875-2.482.2292-3.628.7639l-5.309 2.0243c-.726.4201-2.865.4965-3.781.6111-1.948.2287-3.705.1907-5.577 0l-4.01-.3819c-.497-.0764-.573-.1528-1.222-.2292-1.605-.1528-3.4-.6111-5.004-.9167-1.107-.1909-1.413-.1909-2.406-.5347-.344-.1146-.879-.1528-1.184-.3055l-.993-.4584c-1.833-.6875-4.889-1.6041-6.837-1.9861-.802-.1528-1.49-.4965-2.215-.7639-.573-.1909-.573-.3055-.993-.4965l-5.195-2.1771-1.489-1.4514c-.535-.4965-1.07-.8402-1.604-1.3368-.612-.5729-.764-.8784-1.528-1.4132-2.483-1.7951-5.2711-2.2534-8.3267-3.4375-1.1458-.4201-2.8263-1.2986-3.9722-1.9097-.6111-.3055-1.5278-.5729-2.1007-.8403-.993-.4201-1.184-.7257-1.8715-1.1458-1.5278.4583-3.9722 1.2986-5.0799-.2674-1.2986-1.7951-1.1076-3.0937-.4583-5.1944.3819-1.2604 1.2986-2.0243 2.2535-2.8646.2673-.2292.4965-.6493.7257-.9549l3.3229-3.4757c.9548-1.0694 2.4826-2.4062 3.5139-3.2847 1.6041-1.375 2.75-1.4896 4.6597-2.1389 2.5972-.9166 1.2986-.5347 3.9336-1.1458.65-.1528.764-.2292 1.261-.4201.764-.2674 5.653-.1146 6.646 0 2.139.2673 4.43.0382 6.531-.0764 2.101-.0764 4.43-.382 6.455-.3438 1.604.0382 3.323.2292 4.965.0382.458-.0382.993-.1909 1.375-.2291 1.604-.1528 4.736.1527 6.455.2673 2.101.1528 4.545 0 6.684-.1146 1.642-.0764.764-.4201 2.979 0 .802.1528 2.254.1528 3.132.2292 2.139.2292 3.514.9931 4.774 2.0243l1.796 1.6042c.381.4201 1.184 1.5277 1.756 1.5659.65-1.1076-.534-3.2083-1.031-4.2395l-.993-1.8334c-.382-.5729-.878-1.1076-1.107-1.8333-.306-1.1076-.841-1.184-1.528-2.8646l-1.643-2.4062c-.84-1.2223-1.375-2.2535-2.444-3.323-.497-.4965-.993-.993-1.49-1.4513-1.145-1.0695-3.132-3.3994-4.354-4.2396l-3.476-2.4063c-1.145-.7257-2.444-1.5278-3.704-2.0625-1.223-.5347-.688-.4965-2.33-.6111-.841-.0382-1.91-.0382-2.712-.1528-.84-.1146-.458-.3055-1.031-.3819-4.125-.4965-8.212-.5347-12.337-.8403-1.757-.1528-3.781.191-5.538.2674-.917.0382-1.681.2673-2.598.3437-2.062.1146-3.934.7257-5.92 1.2604l-2.2149.7257c-.9931.3056-2.0625.9549-2.8646 1.5278-.5347.382-1.1459.8021-1.6424 1.184-.6111.4966-.7639.8785-1.6041 1.3368-.8785.4966-2.0244 1.8334-3.0938 2.6737-.5347.4201-1.1076.802-1.6806 1.1458-.6875.4583-1.8715.4965-2.0243-.4202-.2291-1.2604 1.6806-1.8715 3.0174-2.9027.9549-.7639 1.4514-1.6424 2.2153-2.1007.3437-.191.5347-.382.8784-.6111.9931-.6875 1.7188-1.6042 3.2466-2.5209.8403-.5347.7257-.5347 1.7951-1.0312 3.7049-1.7188 7.7919-2.1389 11.8019-2.7882l5.5-.3056c2.063.0382 11.65.5348 13.483 1.0313 1.107.3055 2.788.4201 3.972.4583 1.108.0382.306-1.4132.038-3.0937-.191-1.1841-1.146-2.8646-1.757-4.0105-.649-1.2222-1.375-2.7118-2.177-3.743l-1.26-1.566c-.955-.993-3.629-3.0555-4.851-3.8576-2.635-1.6806-5.271-2.6354-8.517-3.132-1.681-.2673-3.591-.2291-5.271-.5347-3.476-.5729-7.524-.4583-11.0383-.191-3.2083.2674-4.5451.191-7.6771.9931-1.2222.3056-1.1076.3056-2.0243.9167-1.1458.7257-2.3298 1.1076-3.7048 2.0625-2.1007 1.4132-2.1389.4965-5.0799 3.6284-.4965.5348-.9548.8403-1.4132 1.5278-.3437.5347-.6875 1.2604-1.1076 1.7188-.7257.802-3.2465 4.3159-3.5903 5.2326-.2674.7257-.6111 1.184-.9549 1.8715-.3437.7257-.7256 1.2604-1.0312 1.9098-.9167 1.9479-2.4063 3.3611-3.8576 4.8506l-2.7118 3.0556c-.6875.7257-.6876.9549-1.2223 1.7188-.3437.4965-.7639 1.2604-1.184 1.6423-1.4132 1.1458-.1528-.2673-1.4132 1.4896-.4583.6493-.9167.9931-1.4132 1.5278-.2673.2673-.4583.4583-.7257.7257-.2673.2291-.5729.4201-.7639.6875-.5347.6875-.2291.6875-1.184 1.6423-.4583.4584-.9167.9931-1.2222 1.7188-.3438.7639-.6875.9548-1.1459 1.6423-.4583.7257-.6111 1.3368-1.0694 1.8716-.4201.5347-.8021 1.0312-1.1458 1.6805-.4966 1.0313-1.7188 2.5209-2.3681 3.5521l-1.5278 2.7882c-.2291.5729-.3055.4965-.5729.9167-.3819.6875-.5729 1.3368-.9548 1.9861-.191.3055-.3438.5347-.4966.8403-.2673.4965-.2673.4201-.5729.8784-.6875 1.0313-1.375 2.7118-1.8715 3.8959-.382.9166-1.6424 2.7882-2.1771 3.7048-.3056.5729-.9167 1.2223-1.1458 1.7952-.2292.4583-.0382.4965-.382.9548l-1.4514 2.941c-.5347 1.4514-1.4895 2.4444-1.9097 3.9722-.191.7639-.6111 1.1077-1.0312 1.8334-.3438.5729-.7257 1.2604-.9549 1.9479-.3437 1.0312-1.1076 1.8715-1.6042 2.8264-.4965.993-.8402 1.9861-1.4132 2.8645l-1.9097 3.8572c-.3055.612-.7639 1.299-.9166 2.025-.191 1.069-.573 1.031-.8785 1.948-.6875 2.024-.9549 1.948-1.375 3.055l-1.2986 3.132c-.0764.268-.3056.764-.382.955-.1146.42-.0382.764-.2673 1.222-.4202.993-.4584 1.07-.6875 2.254-.2292 1.146-.6111 2.253-1.1459 3.17-.2291.382-.8402 2.75-.9548 3.323-.1528.687-.5729 1.375-.6875 2.253-.1146.879-.191.573-.3438 1.108-.0764.305-.1528.917-.191 1.26-.0763.42-.0763.879-.1527 1.337-.0764.535-.2674.726-.3438 1.108-.1146.458 0 .725-.1146 1.26-.4201 2.063-.1145 1.49-.3055 2.636-.0764.496-.191.725-.3056 1.184-.1909.802.0382 1.833-.2291 2.635-.6875 2.139-.4584 3.247-.6112 3.667-.1909.649-.3055.076-.3055 1.146 0 .916-.3056 1.527-.3438 2.597 0 2.253-.1527 1.222-.3819 2.597l-.7639 3.514c-.1146.878-.1146 1.871-.3055 2.635-.1146.497 0 .879-.1146 1.375-.4584 1.757-.0764 3.705-.4584 5.424-.1909.878-.0382 1.795-.2673 2.559-.5729 1.91 0 4.087-.3438 5.538-.1528.573-.3055.229-.3055 1.146 0 .611 0 .802-.1528 1.337-.3056 1.107-.0382 1.604-.191 2.635-.0764.497-.2291.688-.3055 1.184-.0764.497 0 .879-.1146 1.375-.5729 2.292-.191.573-.3056 2.292-.0764 1.451-.9166 3.399-.1528 5.003l.4966 3.934c0 .841.1528.573.3055 1.184.1528.421.0382.879.1146 1.337.191 1.146.5347 2.292.9549 3.361.1909.459.4965 2.139.6111 2.33.2292.42.2673.268.4583.879.1528.534.191.649.4202 1.031.5347.955.8402 2.139 1.1458 3.17l1.5278 2.903c.3819.573.8784 1.184 1.2986 1.642.5347.535.7639 1.146 1.2222 1.719.4965.649.8785.917 1.3368 1.49.4965.611.8785.878 1.4514 1.489 1.7187 1.795 1.5278 1.299 3.2847 2.483l3.5903 2.177c.6875.344 1.1076.84 1.8715 1.069 1.4132.382 2.6354 1.184 3.9722 1.834l1.0695.382c1.1076.343 1.6805 1.222 3.8958 1.986.382.152.7639.152 1.1459.305 1.375.611 2.6736 1.032 4.2013 1.566.7639.268 1.5278.306 2.3299.611.5729.229 1.5278.191 2.4063.535.9548.382 3.3611 1.337 4.3923 1.413.4584.038.9167-.038 1.375 0 .4965.038.6111.229 1.1459.306.6111.076.7256-.038 1.2604.229.6111.306.4201.153 1.2222.191.5729.038.6111.153 1.1076.267.4966.115.9167 0 1.375.077.5729.076.5348.267 1.1459.343.4583.039.993-.038 1.4514 0 .4965.039.6111.23 1.184.306.4583.076.9548.038 1.4132.038 1.184 0 1.5278.344 2.5208.42 1.3368.115 2.7882-.076 4.125.23 1.7951.381 5.0417-.459 6.875.381.191.077 12.9479.421 14.2083-.038 1.2223-.42 3.9337-.496 5.2327-.534 1.069-.039 1.26-.459 2.483-.459 1.298 0 2.864.191 4.086-.191 1.108-.344 17.112-.114 18.907-.153.916 0 .764-.343 2.368-.382 2.597 0 9.319.306 11.305-.42.65-.229 1.681-.382 2.368-.573.573-.152 1.719-.458 2.063-.725.267-.229 1.68-.611 2.177-.802 1.451-.573.878-.573 2.062-.764.573-.077.612-.229.993-.459.344-.191.688-.152 1.108-.382 2.063-.993 1.261-.267 3.056-2.788l1.146-1.68c1.26-1.681 1.909-1.299 1.565-3.82-.381-2.712.65-5.156-.19-8.021-.191-.649-1.834-2.902-2.33-3.552-.459-.573-.573-1.145-1.032-1.833-1.413-2.253-2.177-2.597-4.125-4.583-.496-.497-.916-.841-1.375-1.452-.343-.496-.725-1.298-1.069-1.871-.764-1.299-1.451-2.712-1.108-4.584.382-2.024.344-2.329 1.948-3.857 2.216-2.139 5.462-3.399 8.594-2.368.611.191 1.604.573 1.986.955.917.878.917.725 1.337 1.604.84 0 .573-.268.993-.84.649-.841 2.597-1.719 3.628-2.292.764-.42 1.681-1.108 2.292-1.642.344-.306.688-.535 1.07-.841l2.062-1.91c.955-1.107 1.986-1.718 3.017-2.864.688-.764 1.375-1.108 2.139-1.795.955-.879 2.407-1.643 3.514-2.368.497-.344.649-.573 1.031-.879.688-.573 1.834-.802 2.75-1.222.993-.458 1.605-.917 2.636-1.337 1.986-.802 4.812-.993 6.837-.458.687.191 1.871 1.108 2.444 1.528l3.17 2.711c1.452 1.375 1.222.841 2.445-.42.267-.267.382-.382.611-.611l.573-.764c.687-.802 1.795-2.024 2.253-3.055.459-1.146 1.222-2.483 1.413-3.781.191-1.261.268-3.82-.191-4.813-.534.038-.573.153-.878.458-.306.268-.535.382-.84.65-.535.42-1.108.84-1.681 1.146-.344.19-.458.305-.84.534-.955.497-2.024.955-3.094 1.222-2.979.688-.726.688-4.889.803-3.361.076-7.601-.612-10.847-.344-1.719.114-3.514.344-5.309.382-3.667.076-7.104.534-10.847.534-1.834 0-3.782.077-5.615-.038-.993-.076-1.68 0-2.635-.191-.611-.114-1.91-.191-2.598-.191-1.795-.038-3.628-.191-5.538-.191-2.177 0-6.264.306-8.212-.343l-2.1-.726c-2.445-.879-5.844-.573-7.525-1.07l-7.409-1.184c-2.674-.458-4.813-1.642-7.181-2.673-.344-.153-.573-.382-.916-.535-1.375-.649-2.483-.993-3.896-1.757-2.063-1.146-3.591-1.91-5.844-2.75-.382-.153-.535-.229-.917-.458-.955-.497-1.527-.535-2.902-1.375-.726-.459-1.07-.573-1.91-.917-1.5662-.687-2.3301-1.222-3.5905-2.062-.5347-.344-1.184-.726-1.7569-1.07-3.132-1.871-2.1771-.916-3.9341-1.833l-1.8715-.955c-.4201-.191-.4201-.344-.8403-.497-.993-.42-3.7812-1.909-4.5069-2.635-1.3368-1.375-4.6597-3.017-5.9202-4.736-.1145-.153-.1527-.267-.3055-.458-.8785-1.146-1.566-2.789-1.3368-4.316.0764-.459.2673-2.177.3819-2.559.3438-1.032 1.4514-2.865 2.4063-3.247 1.1458-.458.9548-.458 2.3298-.458 1.7952-.038 3.2466.382 4.9653.764.7257.152 1.4132.458 2.2535.573.9549.114 7.4861 2.215 8.7465 2.559 1.6424.458 2.3294.954 4.2774 1.489 1.49.382 2.98.802 4.507 1.146l4.889.764c.841.076 1.452.382 2.368.496.955.115 1.49.268 2.368.459.764.153 1.643.267 2.368.458 2.98.879 8.48 1.91 11.688 2.559.726.153 1.489.344 2.33.497.878.152 1.719.152 2.521.305s1.604.229 2.482.344c.764.115 2.025.038 2.712.229 3.132.802 6.76.84 9.969 1.451 3.437.65 7.448 0 10.962.459l5.118.535c1.336.076 4.354-.039 5.461.267 2.101.535 8.48.726 10.733.496l5.347-.305c.917-.077 1.872 0 2.789-.038.458 0 .916-.039 1.375-.077l3.513-.725c2.063-.726 2.636.114 6.379-2.254.84-.535 1.604-1.222 2.292-1.871.802-.726 1.26-1.49 1.909-2.368.764-1.07 1.719-2.178 2.368-3.285.229-.382.191-.611.42-.917.382-.496.23-.267.497-.955l1.719-4.048c.916-3.018.916-6.761-.841-9.358-.267-.42-.191-.535-.42-.917-.382-.573-.764-.611-1.26-1.566-.344-.611-2.101-2.215-2.75-3.055-.229-.306-.344-.535-.879-.535-.572.802-.305.764-1.26 1.795-.229.268-.229.306-.458.573-.344.459-1.681 1.528-2.292 1.795-1.451.65-5.424.993-7.295.726-1.452-.229-1.299-1.986-.038-2.177.42-.076 1.489.038 1.986.038 1.757 0 4.507-.229 5.653-1.528.267-.305.534-.764.916-1.107.268-.229.382-.191.382-.65-.535-.076-1.566.191-2.215.23-.917.038-1.49-.115-2.368-.115-.879 0-1.566 0-2.406-.076-.535-.039-.612.076-.955-.344-.611-.764-.191-1.872 1.528-1.757 4.201.191 6.569.535 9.777-2.521.459-.4583.802-.802 1.184-1.2985l.802-1.1459c.421-.4965 1.032-1.2222 1.299-1.8333.573-1.2222 1.299-2.3681 1.413-3.7049.038-.5347.459-1.6805.191-2.1389-.038-.0382-.114-.4201-.535.191-.191.2674-.229.4583-.458.6875-.344.382-.687.6493-1.031 1.1077-.802 1.1458-1.757 1.8333-2.636 2.6736-1.107 1.0312-3.475 2.3298-4.85 2.75-1.07.3055-2.406.6111-3.591.7257-1.298.1527-2.559.3819-3.743.5729-.878.1146-7.486.0382-8.479-.0382-1.337-.1146-2.482-.3056-3.934-.3056-3.628 0-8.594-.1146-11.764-1.2604-1.375-.4965-3.705-.4965-4.507-1.9861-.267-.4965-.573-.9931-.534-1.6806.191-3.7812 1.298-4.3159 2.444-6.3402.382-.6493.917-1.1459 1.337-1.8334.267-.4201.191-.2291.535-.6111.152-.191.267-.3437.458-.5729 1.26-1.375 2.521-2.1771 3.628-3.9722.535-.9167 1.223-1.7188 1.948-2.4445.382-.3819.688-.802 1.032-1.1076 1.375-1.1076 5.079-3.5903 6.416-4.316 1.375-.7639 1.757-.9548 3.323-1.1076l3.82-.4584c2.75-.1145 5.5-.1909 8.211.1528l3.858.5348c1.031.3055 2.292.6875 3.17 1.1458.611.3437.879.4965 1.222.9166.23.2674.306.3056.497.5348.573.7257 2.253 3.0555 2.635 3.8194.306.6493.115.2292.497.6493.42.4966.344 1.1459 1.069 1.1841.23-.7257.23-4.3924-.038-5.3855-.611-2.3298.229-2.3298-2.101-3.6284-2.711-1.5278-4.277-1.9861-7.486-2.0625-.649 0-1.069-.191-1.604-.2674-3.361-.4583-12.069-.6493-14.628-.1146-3.132.6493-5.577 1.566-8.212 3.3229l-2.215 1.6042c-.23.191-.306.1528-.535.3819-.497.4584-1.07.8403-1.528 1.4132-.42.573-1.337 1.7188-2.062 1.7952-1.223.1146-1.528-1.1459-.764-1.9861.649-.6875 1.222-1.3368 1.871-1.9861.65-.6493 1.337-1.0695 2.063-1.757.611-.6111 1.566-1.0312 2.291-1.566.688-.4965 2.98-1.6805 3.705-1.9479 4.164-1.5278 3.476-1.0694 7.907-1.6805 1.871-.2674 5.385-.0764 7.371 0 .611.0382.917.1909 1.681.1909l3.743.2292c.764.1146.458.191 1.604.2292 2.559.0382 3.972.4965 6.378 1.375.955.3437 2.827 1.5278 3.438 2.2916.382.4584.42.8021 1.107.7639-.076-1.2986-3.819-3.3611-4.583-3.934-1.719-1.2986-3.476-2.5208-5.653-3.0556-.764-.1909-6.645-.7638-7.944-.7638-2.788 0-10.885.4201-13.063 1.4131-.458.2292-.572.2292-1.069.4202-.84.3055-2.406 1.566-3.285 1.1076-.343-.3819-.611-.7257-.343-1.375.305-.7639.496-.5347 1.031-.9166.764-.5348 2.291-1.1459 3.246-1.4896 1.146-.4202 4.775-.8021 5.92-.9167 3.476-.3055 7.143-.6493 10.733-.3055.726.0763 2.865.4201 3.438.3819.305-.6493-.23-1.0694-.535-1.566-.535-.9166-1.261-1.6041-1.872-2.4444-.42-.5729-.802-1.1458-1.413-1.757-.917-.8784-1.489-1.6423-2.559-2.4444-.267-.191-.458-.3056-.726-.4965-.343-.2674-.229-.2674-.725-.5348-.65-.3437-.879-.7257-1.413-1.0694l-3.667-2.559c-.764-.4584-1.757-.7639-2.445-1.2986-1.757-1.2987-3.781-2.1007-5.767-2.941-.42-.1528-.382-.2674-.84-.4202-.65-.2291-1.337-.2291-2.025-.4583-5.27-1.6423-9.243-2.2917-15.086-2.2917-1.299 0-3.247.2292-4.507.4584-2.101.3437-4.278.4583-6.302 1.1458-1.566.5347-1.91.8021-3.782 1.2222-.878.191-.764.382-1.986.4966 0 .3437.42.6875.65.9166 1.604 1.6806 2.673 2.7118 4.01 4.6979.153.2674.191.191.344.4202.153.191.191.3819.305.5729l1.986 3.2083c.268.4966.917 1.4132 1.299 2.2153.458 1.0313.802 1.2986 1.337 2.1771.649 1.0694 1.107 2.4826 1.642 3.5521.306.6111.497 2.2153.42 2.9028-.114 1.0312-.955 1.7187-.076 2.5208.611.5729 1.069 1.2604 1.642 1.8715 1.261 1.4132 2.216 2.0625 3.209 3.8195.305.5729.993 3.4757 1.069 4.2395.115.9167.191 2.3681.229 3.2848 0 .8021.153 2.75-.114 3.3229-.42.9549-1.795.6493-2.025-.4202-.42-1.1458-.038-4.8506-.458-6.6076zm-19.174-1.0312c-.458.3819-.687.0763-1.336.1145-.497.0382-1.032.191-1.605.191l-6.913.4202-17.76-.3056c-2.063 0-3.972.4201-5.882.4583-1.872.0382-4.163.3056-5.882.5729-2.521.382-5.9966.5348-8.2501 1.3751-.4201.1527-.7639.2673-1.1076.4583-.3438.191-.6493.5347-1.2222.4965l-2.2535-.9548c-.8021-.4584-.4201-.6875.4965-1.8334.5347-.6875.5729-.993 1.7188-2.2153l1.2222-1.2604c.4965-.5729 2.1007-1.4896 2.7882-1.9479.6111-.3819 5.0797-1.8715 5.9967-2.1389 2.291-.7257 5.462-1.2222 8.021-1.4896.496-.0382 1.069-.0382 1.489-.1145l5.729-.6494c3.705-.1145 3.705-.1145 7.601.2674 2.177.191 5.118 1.6042 7.028 2.5972l4.812 3.2084c.497.3055.459.4201 1.032.6875l1.031.5729c.305.1528.764.3055 1.108.4965.42.1146 1.947.6875 2.138.9931zm30.556 125.3922c.496-.153.267-.344 1.222-.993 1.299-.917 2.521-2.101 3.667-3.132.229-.229.458-.344.649-.496.573-.535 1.872-2.139 2.788-2.865 2.025-1.604.955-.687 2.33-2.177.42-.458.726-.688 1.146-1.108l1.184-1.069c.382-.344.726-.802 1.108-1.146.802-.764 1.26-1.413 1.986-2.521 1.069-1.604 1.948-1.948-.382-1.91-2.024 0-3.208 1.223-4.545 2.216-.459.343-.841.687-1.261.993l-2.559 1.948c-.878.649-1.718 1.222-2.635 1.909-1.184.879-2.941 2.025-4.431 2.368-2.368.573-1.871-.19-1.184 2.101.535 1.604.077 4.813.917 5.882zm7.181-124.552c.038-.4201.229-.3055.611-.5347.343-.191.458-.3437.802-.5729.343-.2292.573-.3437.84-.5347 1.681-1.0313 2.368-1.7952 4.66-1.9861 3.59-.3056 6.302-.7257 9.892-.2674 1.833.2292 4.889.382 6.684 1.2222 1.91.9167 1.413.9167 2.101 1.8716.229.3437.344.4201.535.802l2.788 4.0105c.229.3055.343.3437.649.7257.878 1.1076.955.6493 1.222 1.375.229.6875.497 2.2152-.687 1.1458-.573-.5347-2.407-.9931-3.667-1.6424-1.222-.6493-2.406-1.0312-3.628-1.7187-.612-.3438-1.414-.9549-2.445-1.5278-1.604-.8785-3.361-1.3368-5.232-1.4514-.803-.0382-1.49-.2292-2.369-.2292-.878 0-1.718-.0763-2.52-.1527-1.261-.1146-10.007-.382-10.236-.5348z" fill="#166815"/><g fill="#fff"><path d="m134.498 97.1179c.115-.6111-.076-.1528.267-.5347 1.719-2.2153 2.789-5.2708 2.98-8.0972.496-8.6702-2.101-8.0209-2.559-9.4341 2.559.0382 4.812-.3819 7.447-.3819.612 0 1.07-.1146 1.796-.1146.763 0 1.26.1146 1.909.1528 1.528.0764 1.184-.0764 2.712 1.184 1.146.9549 2.979 2.941 3.476 4.316l3.361 8.441c1.069 2.6354-.993 2.0625-1.451 2.1007-1.223.1527-1.987.6493-3.018.9548-.84.2674-1.833.8021-2.788 1.1459-2.712.993-7.601 1.0694-10.733.802z"/><path d="m195.609 96.2777c.114-.4583.725-1.0312 1.069-1.566.344-.5729.573-1.2222.878-1.8333 1.375-2.7882.917-6.2257-.191-9.0903l-1.833-2.941c-.267-.3055-.153-.0381-.305-.4201.687-.4583 3.59.8403 4.201 1.1458.687.3438 1.184.7257 1.757 1.0695.955.6111 4.621 2.368 5.614 2.75 1.414.5347 3.667.8785 3.018 2.5208-.191.4965-.993.9931-1.337 1.375-1.49 1.7188-2.177 2.8264-4.201 4.2778-1.032.7257-2.445 1.4514-3.743 1.8715-.612.2674-4.278.9549-4.927.8403z"/><path d="m111.319 79.3194c-.153.6493-.344.2674-1.337 1.566-1.108 1.4514-2.177 2.8646-2.674 4.6979-.114.382-.076.8785-.305 1.1841h-.191c-.497-.1528-.726-1.0695-2.292-1.757-1.031-.4583-1.871-.8021-3.017-1.2986-1.108-.4583-2.0627-.6111-3.2085-1.1076l-2.2917-.9167c-.4965-.1528-.5347-.0382-.6493-.4201.5729-.4202 6.5315-1.2223 7.6775-1.2605l7.829-.7638h.115c.344 0 .153-.0764.344.0763z"/><path d="m129.756 83.7118c.879.382 1.49.1528 2.368 1.2986.879 1.1459.191 4.125-1.68 5.0035-1.222.5729-1.757.4583-3.247.4583-2.177 0-4.087-4.3541-.229-6.1493.573-.3055 2.024-.9548 2.788-.6111z"/><path d="m172.652 95.5903c-.535.1146-1.833-.4584-2.444-.6111-3.438-.8403-2.941-.5348-2.636-3.132.153-1.2222 2.941-5.0034 3.667-5.7291.344-.3438 2.75-2.9792 3.094-3.0556.076.3056-.306.7639-.497 1.1458-.267.5348-.267.9549-.458 1.4896-.306 1.0313-.649.9167-.917 2.9792-.153 1.2986-.458 1.9861-.42 3.4757.115 1.2222.649 2.6736.611 3.4375z"/><path d="m190.529 85.3922c.84.3056 2.024-.2291 3.055 1.1459.23.3437.23.6493.268 1.2222.038.993.114 1.8333-.459 2.4444-.496.5729-.84.9931-1.948.9931-.993 0-2.253.1528-2.864-1.3368-1.07-2.5209.687-4.9271 1.948-4.4688z"/><path d="m116.888 80.8472c.878.3437 1.681.9166 1.375 2.1389-.115.4583-.993 1.4514-2.406 1.2604-.688-.1146-1.566-1.1459-1.184-2.0625.229-.5729.305-.6875.764-1.0313.458-.3437.878-.4965 1.451-.3055z"/><path d="m118.265 87.1874c1.833.7639.42 4.2014-1.643 3.0174-2.1-1.2604 0-3.6667 1.643-3.0174z"/><path d="m180.407 82.7187c2.521.6875 1.184 3.7812-.611 3.3993-.764-.1528-1.375-1.0313-1.069-2.0625.191-.7257.878-1.566 1.68-1.3368z"/><path d="m181.428 90.2048c.688.3437.726 1.4514.344 2.0625-.84 1.4132-3.323.3437-2.521-1.4896.153-.382.306-.5729.726-.6493.458-.0764 1.107-.0764 1.451.0764z"/></g><path d="m77.8125 113.16c-.5347-1.375.4965-1.719 1.2986-2.177.5729-.306 1.9861-.764 2.7882-.841 1.0695-.114 2.1007-.343 3.2083-.42 1.566-.076 3.2466-.496 3.132 1.07-.0382.763 0 .84-1.7188 1.069-1.9861.267-4.125.153-6.1111 1.108-.8784.42-1.8333 1.146-2.5972.191zm116.7985 73.371c0-1.107-.802-1.298-2.024-1.566-.535.802-2.254 3.4-2.865 4.049l-3.514 3.514c-.764.916-1.451 1.528-2.33 2.406-.229.229-.343.382-.572.573-1.948 1.566-3.667 3.667-5.424 5.08-.458.382-.802.687-1.299 1.069l-1.948 1.566c-.343.268-.42.268-.649.611.153.229.535.726.764.917l1.757 1.757c.573.573.84.382 1.222.382.497-2.101.306-1.528 1.337-3.285 1.222-2.062 2.253-3.628 3.934-5.347 2.597-2.597 2.292-1.681 4.201-2.674l1.49-.878c.878-.497 1.413-1.643 2.139-2.483.993-1.184 3.781-3.972 3.781-5.691zm-21.427 7.143c1.49-.344 3.247-1.49 4.431-2.368.878-.65 1.718-1.261 2.635-1.91l2.559-1.948c.382-.344.802-.688 1.26-.993 1.337-.993 2.559-2.177 4.546-2.215 2.329 0 1.451.305.382 1.909-.726 1.108-1.184 1.757-1.987 2.521-.382.344-.725.802-1.107 1.146l-1.184 1.069c-.42.459-.726.65-1.146 1.108-1.375 1.528-.306.573-2.33 2.177-.917.726-2.215 2.292-2.788 2.865-.191.152-.382.267-.649.496-1.146 1.031-2.368 2.215-3.667 3.132-.955.649-.726.84-1.222.993-.802-1.069-.382-4.278-.841-5.882-.725-2.291-1.26-1.528 1.108-2.1zm22.115-2.865c-.306-.382-.115-.267.076-.497.458-.458 1.222-2.253 1.337-2.864.153-.955.305-.382.878-.802.306-.229.459-.879.344-1.261-.153-.458-2.521-1.871-3.056-2.062-1.986-.84-6.645-1.757-8.67-.802-.534.229-.725.191-1.222.496l-2.024 1.375c-.879.611-2.254 2.063-3.743 3.018l-.993.725c-1.375.841-2.598 2.025-4.049 2.75-.42.191-.764.306-1.184.497-1.871.955-5.615.496-7.41-.038-.534-.153-.687-.344-1.222-.497-.955-.267-1.337-.84-1.68-1.719-.153-.343-.382-.763-.421-1.184-.076-.496-.076-1.145.039-1.604.114-.534.343-.802.496-1.222.42-1.337.573-.993 1.643-1.719l2.177-1.222c.725-.267 1.222.306 1.833.573l1.069.611c.535.306.993.611 1.375 1.108.306.382.459.496.726.993.84 1.413-2.292 3.055-2.712 3.666-.611.917.306 2.025 1.375 1.605.153-.077.802-.573.993-.726l.917-.802c.878-.955 1.757-2.024 1.757-3.399 0-.65-.42-1.414-.764-1.91l-1.146-1.375c-.305-.382-.153-.115-.496-.382l-2.521-1.643c.305-.42.573-.458.993-.763.458-.344.84-.993 1.299-1.299.916-.611.572-.497 1.298-1.299.382-.42.497-.496.955-.84.649-.458 1.299-1.031 1.757-1.642.573-.726 2.101-1.719 2.903-2.292 1.146-.84 1.948-1.222 3.093-2.215.612-.535 1.566-.764 2.33-1.07 2.979-1.107 2.789-1.986 6.799-2.024 1.069 0 1.795.267 2.597.993.382.344.611.382.955.726 1.069 1.069 2.559 2.368 3.819 3.208.803.535 1.032 1.261 1.452 2.063.267.496.878 1.107 1.451 1.948l.802.916c.459.497 1.146.688 1.681 1.031.802.497 1.184.497 1.719.879 1.413.993 3.017 1.489 4.392 2.483l5.08 3.628c.687.458 1.413.993 1.91 1.566.84.917 1.795 1.642 2.673 2.521.879.878 1.49 2.024 2.292 2.903.764.84 1.757 2.788 2.673 3.437.65.458.23.42.726.955l1.299 1.299c.84.993.687.954 1.146 1.566.267.343.114.076.382.382.687.84 2.138 3.322 2.253 4.697.764.497.191-.229.688.841 1.222 2.635 1.298 1.871 1.871 2.788s1.031 2.024 1.642 2.979l2.903 6.379c.611 1.336.42 1.069.649 2.406.23 1.413 1.108 1.795.612 3.819-.153.573-.268.344-.65.917-1.107 1.566-1.146.917-2.1 1.719-.459.382-.191.42-.726.764l-1.528.725c-.802.344-1.222.993-1.795 1.222l-2.635 1.261c-.688.344-.421.573-1.49.726-1.069.152-1.337.649-2.368.687l-.038.153s0 .038-.038.076l-.039.229c-.802-.076-.42-.152-1.298.077-.459.114-.879.114-1.375.229-1.604.42-3.209.802-4.813 1.413-.42.153-2.1.382-2.597.42-1.299.153-1.566-.114-2.903.268-.611.191-5.5.152-6.034-.039-.65-.229-.459-.229-1.337-.229l-6.341-.114c-1.298-.039-4.163.229-5.194-.191-.42-.191-4.316-.42-4.965-.611-.497-.115-1.261-.077-1.834-.115-.993-.038-.649-.229-1.451-.306-1.337-.152-2.024-.229-3.17-.572-1.146-.344-3.018-.993-4.049-1.605l-3.399-2.139c-.458-.458-1.146-.725-1.719-1.107-.305-.229-.153-.229-.458-.458-.229-.191-.382-.191-.611-.421l-6.111-4.048c-.382-.229-.802-.65-1.108-.802l-1.184-.611c-.497-.306-.344-.306-.649-.802-.268-.421-.382-1.032-.65-1.605-1.718-3.628-1.107-6.836-1.107-10.656 0-1.91-.191-1.642-.306-2.941-.076-.878-.611-1.528-.955-2.253-.305-.573-1.337-1.872-1.833-2.483-.306-.42-.497-.955-.726-1.413-.382-.802-1.184-1.834-1.757-2.445-1.069-1.145-2.1-1.909-3.246-3.208-1.031-1.184-1.948-2.559-2.445-3.972-.382-1.108-.343-2.521.23-3.399.114-.153.954-.955 1.107-1.032 1.719-1.146 2.177-1.909 4.469-1.948 1.031 0 .917.039 1.719.382 2.291.955.916.077 2.444 1.834.382.42.42.305.726.84.764 1.451-.191 4.049 2.75 6.187 1.986 1.452 2.75 1.184 3.934 1.528.305.077.267.191.764.268.649.076 1.222 0 1.909.152.115.268.23.879.344 1.223.115.496.306.572.42 1.031.42 1.642.268 3.781.611 5.385.421 2.025 1.948 4.24 3.438 5.538.344.306.535.459.802.764.688.841 1.604 1.337 2.368 2.025l2.979 2.368c.955.764 1.757 1.718 2.636 2.597.496.496 2.062 1.413 2.673 1.833 1.299.879 3.17 1.108 4.698 1.337 1.413.229 2.063-.191 2.674-.229.802 1.413.191 2.177 1.604 3.705.42.458.611.84 1.566 1.184.42.152.573.305.955.382 1.91.382 4.01.534 5.882.687 1.337.115 2.368-.076 3.552-.496.305-.115.535-.268.764-.344.191.229.458 1.375.611 1.871.191.65 1.146 1.681 1.719 1.91 2.291.917.152.306 2.941.688 1.451.191 2.864-.077 4.125-.535 2.711-.993 2.826-2.636 4.621-3.858.153-.114.191-.114.344-.229l1.298-1.757c.23-.305.306-.305.573-.687.23-.306.306-.382.497-.65l.84-1.069c.115-.191.115-.153.268-.306.993-1.031 1.795-2.1 2.864-3.132.306-.305.267-.343.611-.496 0-.802-.038-1.299-.649-1.528-1.299-.496-2.636 1.642-3.285 2.559-.535.764-1.337 1.261-1.91 2.063-.267.42-.191.152-.496.534l-1.604 2.254c-.153.191-.306.305-.497.496-.305.344-.573.688-.916 1.032-.344.343-.803.611-1.07.954-.305.382-.496.764-.878 1.032-.726.496-1.605.955-2.75 1.184-.841.153-2.827.076-3.514-.268-1.681-.802-.917-.954-1.528-2.406-.726-1.68-.649-1.489.191-2.864.344-.573.496-.573 1.031-.994.268-.229.268-.267.535-.496.802-.611 4.125-4.163 4.316-4.431.878-1.336.993-1.107 1.833-2.024.344-.382.611-.687.955-1.069.382-.382.535-.611.955-.955.382-.306.573-.802.344-1.49-.191-.573-.65-.687-1.337-.573l-3.056 3.132c-.534.42-.802.802-1.222 1.375-.611.841-1.719 1.872-2.483 2.712l-1.68 1.795c-.649.726-.917.268-2.597 2.712-.268.382-.306.726-.611 1.108-1.07 1.375-3.514.802-5.042.764-.611 0-1.222.038-1.833-.039-1.414-.152-.344-.343-3.132-.534l-.802-1.223c-.23-.458-.306-.916-.459-1.451-.267-.917-.076-1.604.344-2.368.535-1.031.917-2.292 1.451-3.285l2.445-3.437c.649-.65 1.031-1.643 1.489-2.33.459-.726 1.834-1.757 2.559-2.33.841-.649 2.139-1.299 2.75-1.986 1.07-1.222-.076-2.483-1.222-1.757-.153.115-.305.267-.535.458l-2.826 1.91c-.84.573-1.757 1.566-2.483 2.406-.725.802-.878 1.681-1.909 2.865-.306.344-.535.84-.764 1.146-.573.802-1.031 1.222-1.566 2.291-.153.344-.267.382-.382.611-.115.268-.076.459-.191.726-.153.382-.42.764-.649 1.299-.191.458-.42.916-.611 1.298-.917.039-1.566.344-2.33.306-.726-.038-1.49-.267-2.292-.382-1.528-.229-2.597-1.222-3.59-1.833-.917-.573-1.375-1.223-2.101-1.948-.229-.229-.382-.497-.611-.764-.84-.993-1.566-1.91-1.986-3.438-.268-.993.038-1.527.458-2.177.344-.496.611-1.107 1.031-1.68.421-.535.726-.955 1.108-1.604.84-1.414 1.757-2.101 2.865-3.247.191-.191.076-.153.343-.306.611-.381 1.261-.496 1.91-.84.267-.153.611-.305.917-.458.458-.191 1.184-.611 1.719-.917 1.145-.649 2.291-1.489 3.437-1.986 2.444-1.108 1.604-1.031 2.483-1.566.802-.458 1.642-1.069 2.291-1.795.917-.917 2.025-1.604 2.979-2.445.726-.611 2.56-1.756 3.056-2.253.535-.535.726-1.375 0-1.833-.878-.535-1.528.191-1.948.573-.496.42-1.069.687-1.604 1.107-.382.306-.153.268-.726.611-.305.191-.458.306-.764.611-.382.344-.267.306-.764.573-.84.459-1.413 1.299-2.177 1.91l-.763.611c-.459.459-.573.459-.764.344zm-69.82-47.285c-.802 0-5.194-.611-5.767-.878-1.031-.459-1.643-.306-2.788-.497-.764-.153-1.757-.496-2.636-.611-1.031-.114-4.201-1.26-4.965-1.719-.84-.458-3.781-1.222-4.965-1.604-.688-.229-1.719-.764-2.368-1.031l-7.6775-2.177c-1.566-.306-7.5625-4.125-7.5243-5.615 0-.534.3438-.802.9167-.802 1.2604.038 4.5833 3.476 7.2187 4.316 1.6806.535 3.4757 1.07 5.1944 1.375 1.49.268 2.33.764 3.705 1.261l3.628 1.336c.955.306 1.643.421 2.521.764.42.153.65.382 1.146.535.458.153.726.344 1.146.458.42.153.878.23 1.299.382.381.115.687.306 1.184.42.916.191 1.947.382 2.788.535.802.115 2.024.229 2.826.42.497.115.802.268 1.299.382l4.392.497c1.948 0 3.743-.268 5.653-.077 1.604.191 3.361.23 5.042.344l4.621.802c.879.268 1.184.344 2.139.535 1.413.267 2.903.802 4.354 1.069.726.115 1.681.191 2.368.382 1.222.344 3.476.497 4.889.535l4.889.535c2.406.267 5.156.687 7.562.344 1.261-.191 2.789-.191 4.049-.23.458 0 1.184.153 1.91.153h2.597c1.948 0 5.767.802 8.785.344 3.857-.611 9.778-.306 12.909-.84.306-.039 1.452-.382 1.757-.535.497-.267 1.108-.382 1.49-.764s.802-.687 1.184-1.069c.42-.382.688-.764 1.108-1.146l1.871-1.528c.268-.153.459-.267.688-.42.343-.229 1.031-.764 1.336-1.07.421-.42.688-.725 1.146-1.145 1.414-1.223 2.559-3.591 4.049-5.004l1.146-1.146c.344-.305.229-.076.611-.534.191-.23.305-.382.535-.612 1.413-1.527 3.055-4.201 2.635-6.34-.306-1.604-.764-1.451-1.375-3.17-.115-.382-.573-1.108-.802-1.451-.267-.421-.573-1.146-1.031-1.261-.039.038-.039.077-.039.077l-.229 1.107c-.191 1.184-.534 2.292-.878 3.438-.42 1.375-2.063 4.583-2.827 5.882-.687 1.107-2.788 3.781-3.628 4.889-.42.534-.382.343-.764.687-1.146 1.108-2.635 2.368-4.163 3.094l-1.986.802-7.066 1.528c-.993.114-2.024.076-3.056.076-2.597 0-6.034.458-7.906.458-.917 0-1.795 0-2.712 0-1.719 0-3.323-.343-5.08-.42-.955-.038-1.68-.038-2.597-.153-2.788-.305-5.385-.496-8.135-.572-.993 0-1.719-.23-2.712-.306-.955-.076-1.833-.153-2.826-.153-2.254 0-5.615.268-7.563-.305-1.795-.497-3.896-.344-5.729-.726l-5.691-.84c-1.948-.115-3.858-.497-5.767-.726-.497-.076-.994-.153-1.452-.229-.687-.115-.726-.153-1.26-.344-.879-.306-4.698-.802-5.5-1.069l-5.271-1.184c-.993-.115-1.604-.497-2.521-.65-1.031-.152-1.719-.458-2.712-.573-.496-.076-.955-.076-1.451-.152-.573-.115-.688-.23-1.261-.344-.916-.153-2.062-.153-2.902-.344-.955-.229-1.719-.42-2.75-.535-1.261-.152-3.782-.916-5.157-1.298-.6871-.191-1.6802-.611-2.3677-.917-.6111-.267-1.7187-.535-2.4444-.764-.4201-.153-.9167-.229-1.375-.305l-4.8889-1.566c-.4583-.191-.6875-.306-1.2222-.344-1.7952-.191-6.7986-2.215-7.9063-.649-.5347.725-.9548 1.222-1.1076 2.177-.4201 2.788-.3819 1.986.4201 3.934.4584 1.107 1.375 1.795 2.2535 2.482 1.1458.879 2.7882 1.643 3.7813 2.789.5729.611 1.3368.878 2.0243 1.26.2673.153.2291.153.4583.306l1.566.84c.7639.305 1.4514.764 2.1389 1.146 1.9861 1.031.9166.458 2.368.916 1.0313.306 4.6979 2.941 6.0347 3.667.382.191.726.306 1.146.535.344.191.764.305 1.108.496l4.239 2.215c.649.344 1.681.65 2.368.917l3.247 1.604c1.222.841 4.239 1.948 5.423 2.598.802.458 1.337.725 2.177 1.107.764.344 1.566.611 2.33.955 1.681.726 3.514.764 5.271 1.184.84.191 1.91.306 2.788.382 1.222.076 1.681.344 2.788.497.955.152 1.987.076 2.98.152 1.145.077 1.795.382 2.75.535 1.871.267 1.298.42 2.559.726 1.031.267 1.566.496 2.711.496 4.202.077 8.48-.038 12.681.229 1.069.077 1.833.306 2.941.268l3.285.114c5.385.077 10.771-.458 16.194-.687 1.337-.038 2.483-.344 3.858-.344l6.416.306c4.278.382 4.393.458 7.869-.611.649-.191 1.642-.459 2.177-.802.649-.382 1.26-.688 1.871-1.07s1.031-.878 1.681-1.26c.305-.191.687-.421.955-.611.84-.612 1.986-2.445 2.559-3.323.343-.535.114-.421.611-.879.343-.305.534-.344.802-.687l.916-1.375c.23-.306.153-.115.421-.382l.382-.42c.381-.382.954-1.987 1.031-2.598.344-2.979-.268-2.482-.764-3.666-.573-1.375-.649-.879-1.49-.153-.267.229-.534.42-.84.649-.458.382-.344.306-.955.611-.611.268-2.024 1.643-2.444 2.101l-1.566 1.49c-.841.687-1.986 1.184-3.018 1.604-.496.191-.649.153-1.184.305-1.489.382-4.01.459-5.729.42-1.948 0-3.552.344-5.423.382-2.827.077-5.73.344-8.594.077-6.608-.65-11.802.42-18.639-.573-.84-.115-1.757-.115-2.635-.191-.955-.076-1.414-.229-2.407-.267-3.972-.191-4.354-.535-7.448-.955l-6.76-1.643c-.764-.267-1.528-.267-2.406-.42-.802-.114-1.299-.344-2.33-.42-3.705-.306-7.066-.153-10.733-.153zm55.955-53.3192c-.344-.1528-.993-.1528-1.413-.0764s-.573.2674-.726.6493c-.802 1.8715 1.681 2.9028 2.521 1.4896.306-.6111.267-1.7569-.382-2.0625zm-63.174-3.0174c-1.604-.6493-3.743 1.757-1.642 3.0174 2.024 1.184 3.438-2.2535 1.642-3.0174zm72.264-1.7951c-1.26-.4583-3.017 1.9479-1.948 4.4306.65 1.4895 1.872 1.3368 2.865 1.3368 1.146 0 1.451-.4202 1.948-.9931.573-.6111.458-1.4132.458-2.4444 0-.573 0-.9167-.267-1.2223-1.031-1.3368-2.215-.7639-3.056-1.1076zm-60.767-1.6806c-.726-.3055-2.215.3056-2.788.573-3.896 1.7951-1.986 6.1493.229 6.1493 1.49 0 2.024.1145 3.246-.4584 1.872-.8784 2.559-3.8576 1.681-5.0034-.878-1.1459-1.49-.9167-2.368-1.2605zm50.646-.993c-.802-.2292-1.49.6493-1.681 1.2986-.305 1.0312.306 1.9097 1.07 2.0625 1.795.3819 3.132-2.6736.611-3.3611zm-10.198 12.2604c.611.1528 1.91.6875 2.444.6111.039-.7639-.534-2.2153-.573-3.3993-.038-1.4896.268-2.1771.421-3.4757.229-2.0625.572-1.9861.916-2.9792.153-.5347.191-.9548.459-1.4895.191-.382.572-.8403.496-1.1459-.344.0764-2.75 2.7118-3.094 3.0556-.725.7257-3.514 4.5069-3.666 5.7292-.344 2.559-.841 2.2534 2.597 3.0937zm-53.32-14.1319c-.572-.2292-.993-.0764-1.451.2673-.458.3438-.535.4584-.764 1.0313-.344.9166.497 1.9861 1.184 2.0625 1.413.1909 2.292-.7639 2.406-1.2604.268-1.1841-.496-1.757-1.375-2.1007zm78.719 15.4305c.649.0764 4.316-.5729 4.927-.7639 1.299-.4201 2.712-1.1458 3.743-1.8715 2.025-1.4514 2.712-2.559 4.202-4.2778.343-.4201 1.146-.8784 1.337-1.375.649-1.6805-1.605-1.9861-3.018-2.5208-.993-.382-4.698-2.1389-5.614-2.75-.573-.3438-1.07-.7257-1.757-1.0695-.611-.3055-3.476-1.6041-4.202-1.1458.153.382.038.1146.306.4202l1.833 2.9409c1.108 2.8264 1.566 6.3021.191 9.0903-.305.6111-.535 1.2604-.878 1.8333-.344.4966-.993 1.0313-1.07 1.4896zm-85.632-15.3923c.993-1.3369 1.184-.9167 1.337-1.566-.191-.1146-.038-.0764-.306-.1146-.038 0-.076 0-.114 0l-7.83.7639c-1.146.0382-7.1041.8021-7.677 1.2604.0763.4201.1527.2674.6493.4201l2.2916.9167c1.1459.4965 2.1011.6493 3.2081 1.1076 1.146.4584 1.986.8021 3.018 1.2987 1.604.7257 1.795 1.6041 2.291 1.7569h.191c.191-.3056.191-.8021.306-1.184.496-1.8334 1.566-3.2084 2.635-4.6597zm27.882 16.7673c3.132.2674 8.021.191 10.733-.8021.993-.3437 1.948-.9166 2.788-1.1458 1.031-.3056 1.795-.8403 3.017-.9549.421-.0382 2.521.5348 1.452-2.1007l-3.361-8.4409c-.497-1.375-2.33-3.3611-3.476-4.316-1.528-1.2604-1.184-1.1458-2.712-1.184-.687-.0382-1.146-.1528-1.91-.1528-.725 0-1.184.1146-1.795.1146-2.597 0-4.85.3819-7.448.3819.421 1.4132 3.056.7639 2.559 9.434-.152 2.8264-1.222 5.882-2.979 8.0973-.305.4201-.153-.0382-.267.5347zm42.205-20.5486c.038-.4201.229-.3056.611-.5347.344-.191.458-.3438.802-.5729.344-.2292.573-.3438.841-.5348 1.68-1.0312 2.368-1.7951 4.659-1.9861 3.591-.3055 6.302-.7257 9.893-.2673 1.833.2291 4.888.3819 6.684 1.2222 1.909.9167 1.413.9167 2.1 1.8715.229.3438.344.4202.535.8021l2.788 4.0104c.229.3056.344.3438.65.7257.878 1.1077.954.6493 1.222 1.375.229.6875.496 2.2153-.688 1.1459-.573-.5348-2.406-.9931-3.666-1.6424-1.223-.6493-2.407-1.0313-3.629-1.7188-.611-.3437-1.413-.9548-2.444-1.5277-1.604-.8785-3.361-1.3368-5.233-1.4514-.802-.0382-1.49-.2292-2.368-.2292s-1.719-.0764-2.521-.1528c-1.26-.1146-10.007-.3819-10.236-.5347zm-37.736-.8403c-.458.382-.688.0764-1.337.1146-.496.0382-1.031.191-1.604.191l-6.913.4201-17.761-.3055c-2.062 0-3.972.4201-5.882.4583-1.871.0382-4.163.3056-5.882.5729-2.52.382-5.9961.5347-8.2495 1.375-.4202.1528-.7639.2674-1.1077.4583-.3437.191-.6493.5348-1.2222.4966l-2.2535-.9549c-.8021-.4583-.4201-.6875.4965-1.8333.5348-.6875.573-.9931 1.7188-2.2153l1.2222-1.2604c.4965-.5729 2.1007-1.4896 2.7882-1.9479.6111-.382 5.0802-1.8716 5.9962-2.1389 2.292-.7257 5.462-1.2222 8.021-1.4896.497-.0382 1.07-.0382 1.49-.1146l5.729-.6493c3.705-.1146 3.705-.1146 7.601.2674 2.177.1909 5.118 1.6041 7.027 2.5972l4.813 3.2083c.496.3056.458.4202 1.031.6875l1.031.5729c.306.1528.764.3056 1.108.4966.42.1146 1.948.6875 2.139.993zm18.257 107.2882c.84 0 .573-.267.993-.84.649-.841 2.597-1.719 3.628-2.292.764-.42 1.681-1.108 2.292-1.642.344-.306.688-.535 1.07-.841l2.062-1.909c.955-1.108 1.986-1.719 3.017-2.865.688-.764 1.375-1.108 2.139-1.795.955-.878 2.407-1.642 3.514-2.368.497-.344.649-.573 1.031-.879.688-.572 1.834-.802 2.75-1.222.993-.458 1.605-.916 2.636-1.337 1.986-.802 4.812-.993 6.837-.458.687.191 1.871 1.108 2.444 1.528l3.17 2.712c1.452 1.375 1.222.84 2.445-.42.267-.268.382-.382.611-.612l.573-.763c.687-.803 1.795-2.025 2.253-3.056.458-1.146 1.222-2.483 1.413-3.781.191-1.261.268-3.82-.191-4.813-.534.038-.573.153-.878.459-.306.267-.535.382-.84.649-.535.42-1.108.84-1.681 1.146-.344.191-.458.305-.84.534-.955.497-2.025.955-3.094 1.223-2.979.687-.726.687-4.889.802-3.361.076-7.601-.611-10.847-.344-1.719.115-3.514.344-5.309.382-3.667.076-7.104.535-10.847.535-1.834 0-3.782.076-5.615-.039-.993-.076-1.68 0-2.635-.191-.611-.114-1.91-.19-2.598-.19-1.795-.039-3.628-.191-5.538-.191-2.177 0-6.264.305-8.212-.344l-2.1-.726c-2.445-.878-5.844-.573-7.525-1.069l-7.409-1.184c-2.674-.459-4.813-1.643-7.181-2.674-.344-.153-.573-.382-.916-.535-1.375-.649-2.483-.993-3.896-1.757-2.063-1.145-3.591-1.909-5.844-2.75-.382-.152-.535-.229-.917-.458-.955-.497-1.528-.535-2.903-1.375-.725-.458-1.069-.573-1.909-.917-1.5662-.687-2.3301-1.222-3.5905-2.062-.5347-.344-1.1841-.726-1.757-1.07-3.1319-1.871-2.177-.916-3.934-1.833l-1.8715-.955c-.4202-.191-.4202-.344-.8403-.496-.9931-.42-3.7813-1.91-4.5069-2.636-1.3369-1.375-4.6598-3.017-5.9202-4.736-.1146-.153-.1528-.267-.3055-.458-.8785-1.146-1.566-2.788-1.3368-4.316.0763-.458.2673-2.177.3819-2.559.3437-1.031 1.4514-2.865 2.4062-3.247 1.1459-.458.9549-.458 2.3299-.458 1.7952-.038 3.2465.382 4.9653.764.7257.153 1.4132.458 2.2535.573.9548.114 7.4861 2.215 8.7465 2.559 1.6424.458 2.3294.955 4.2774 1.489 1.49.382 2.98.802 4.507 1.146l4.889.764c.84.076 1.452.382 2.368.497.955.114 1.49.267 2.368.458.764.153 1.643.267 2.368.458 2.98.879 8.48 1.91 11.688 2.559.726.153 1.489.344 2.33.497.878.153 1.718.153 2.521.305.802.153 1.604.23 2.482.344.764.115 2.025.038 2.712.229 3.132.802 6.76.841 9.969 1.452 3.437.649 7.448 0 10.962.458l5.118.535c1.336.076 4.354-.038 5.461.267 2.101.535 8.48.726 10.733.497l5.347-.306c.917-.076 1.872 0 2.788-.038.459 0 .917-.038 1.375-.076l3.514-.726c2.063-.726 2.636.114 6.379-2.254.84-.534 1.604-1.222 2.292-1.871.802-.726 1.26-1.49 1.909-2.368.764-1.07 1.719-2.177 2.368-3.285.229-.382.191-.611.42-.917.382-.496.23-.267.497-.954l1.719-4.049c.916-3.017.916-6.76-.841-9.358-.267-.42-.191-.534-.42-.916-.382-.573-.764-.612-1.26-1.566-.344-.611-2.101-2.216-2.75-3.056-.229-.305-.344-.535-.879-.535-.573.802-.305.764-1.26 1.795-.229.268-.229.306-.458.573-.344.459-1.681 1.528-2.292 1.796-1.451.649-5.424.993-7.295.725-1.452-.229-1.299-1.986-.038-2.177.42-.076 1.489.038 1.986.038 1.757 0 4.507-.229 5.653-1.527.267-.306.534-.764.916-1.108.268-.229.382-.191.382-.649-.535-.077-1.566.191-2.215.229-.917.038-1.49-.115-2.368-.115-.879 0-1.566 0-2.406-.076-.535-.038-.612.076-.955-.344-.611-.764-.191-1.871 1.527-1.757 4.202.191 6.57.535 9.778-2.521.459-.458.802-.8018 1.184-1.2983l.802-1.1458c.421-.4966 1.032-1.2223 1.299-1.8334.573-1.2222 1.299-2.368 1.413-3.7048.038-.5348.459-1.6806.191-2.1389-.038-.0382-.114-.4202-.535.1909-.191.2674-.229.4584-.458.6875-.344.382-.687.6494-1.031 1.1077-.802 1.1458-1.757 1.8333-2.636 2.6736-1.107 1.0312-3.475 2.3299-4.85 2.75-1.07.3055-2.407.6111-3.591.7257-1.298.1528-2.559.3819-3.743.5729-.878.1146-7.486.0382-8.479-.0382-1.337-.1146-2.482-.3055-3.934-.3055-3.628 0-8.594-.1146-11.764-1.2605-1.375-.4965-3.705-.4965-4.507-1.9861-.267-.4965-.573-.993-.534-1.6805.191-3.7813 1.298-4.316 2.444-6.3403.382-.6493.917-1.1458 1.337-1.8333.267-.4202.191-.2292.535-.6112.152-.1909.267-.3437.458-.5729 1.26-1.375 2.521-2.1771 3.628-3.9722.535-.9167 1.223-1.7187 1.948-2.4444.382-.382.688-.8021 1.032-1.1077 1.375-1.1076 5.079-3.5903 6.416-4.3159 1.375-.7639 1.757-.9549 3.323-1.1077l3.82-.4583c2.75-.1146 5.5-.191 8.211.1528l3.858.5347c1.031.3055 2.292.6875 3.17 1.1458.611.3438.879.4965 1.222.9167.23.2673.306.3055.497.5347.573.7257 2.253 3.0556 2.635 3.8194.306.6494.115.2292.497.6494.42.4965.344 1.1458 1.069 1.184.23-.7257.23-4.3924-.038-5.3854-.611-2.3299.229-2.3299-2.101-3.6285-2.711-1.5278-4.277-1.9861-7.486-2.0625-.649 0-1.069-.191-1.604-.2674-3.361-.4583-12.069-.6493-14.628-.1146-3.132.6494-5.577 1.566-8.212 3.323l-2.215 1.6041c-.23.191-.306.1528-.535.382-.497.4583-1.07.8403-1.528 1.4132-.42.5729-1.337 1.7187-2.062 1.7951-1.223.1146-1.528-1.1458-.764-1.9861.649-.6875 1.222-1.3368 1.871-1.9861.65-.6493 1.337-1.0695 2.063-1.757.611-.6111 1.566-1.0312 2.291-1.5659.688-.4966 2.98-1.6806 3.705-1.9479 4.163-1.5278 3.476-1.0695 7.907-1.6806 1.871-.2674 5.385-.0764 7.371 0 .611.0382.917.191 1.681.191l3.743.2291c.764.1146.458.191 1.604.2292 2.559.0382 3.972.4965 6.378 1.375.955.3438 2.827 1.5278 3.438 2.2917.382.4583.42.8021 1.107.7639-.076-1.2987-3.819-3.3612-4.583-3.9341-1.719-1.2986-3.476-2.5208-5.653-3.0555-.764-.191-6.645-.7639-7.944-.7639-2.788 0-10.886.4201-13.063 1.4132-.458.2291-.573.2291-1.069.4201-.84.3056-2.406 1.566-3.285 1.1077-.344-.382-.611-.7257-.344-1.375.306-.7639.497-.5348 1.032-.9167.764-.5347 2.291-1.1458 3.246-1.4896 1.146-.4201 4.775-.8021 5.92-.9167 3.476-.3055 7.143-.6493 10.733-.3055.726.0764 2.865.4201 3.438.3819.305-.6493-.23-1.0694-.535-1.5659-.535-.9167-1.261-1.6042-1.872-2.4445-.42-.5729-.802-1.1458-1.413-1.7569-.917-.8785-1.489-1.6424-2.559-2.4445-.267-.1909-.458-.3055-.726-.4965-.343-.2674-.229-.2674-.725-.5347-.65-.3438-.879-.7257-1.414-1.0695l-3.666-2.559c-.764-.4583-1.757-.7639-2.445-1.2986-1.757-1.2986-3.781-2.1007-5.767-2.941-.42-.1528-.382-.2673-.84-.4201-.65-.2292-1.337-.2292-2.025-.4584-5.27-1.6423-9.243-2.2916-15.086-2.2916-1.299 0-3.247.2291-4.507.4583-2.101.3438-4.278.4583-6.302 1.1458-1.566.5348-1.91.8021-3.782 1.2223-.878.1909-.764.3819-1.986.4965 0 .3437.42.6875.65.9167 1.604 1.6805 2.673 2.7118 4.01 4.6979.153.2673.191.191.344.4201.152.191.191.382.305.5729l1.986 3.2084c.268.4965.917 1.4132 1.299 2.2152.458 1.0313.802 1.2987 1.337 2.1771.649 1.0695 1.107 2.4827 1.642 3.5521.306.6111.497 2.2153.42 2.9028-.114 1.0312-.955 1.7187-.076 2.5208.611.5729 1.069 1.2604 1.642 1.8716 1.261 1.4131 2.216 2.0625 3.209 3.8194.305.5729.993 3.4757 1.069 4.2396.115.9166.191 2.368.229 3.2847 0 .8021.153 2.75-.114 3.3229-.421.9549-1.796.6493-2.025-.4201-.305-1.2604.077-4.9271-.305-6.684-.955-4.0869-1.566-3.6667-3.972-6.4167l-1.605-1.8715c-.611-.573-1.604-1.1841-2.215-1.948-1.26-1.5277-3.552-3.6666-5.424-4.3159-1.489-.4966-4.812-.6875-6.378-.5729-1.108.0763-2.253.1527-3.399.1145-.764-.0382-2.674-.4965-3.056.191.191.4201 1.91.9167 2.406 1.1076.879.3056 1.681.6875 2.598 1.0313 1.222.4201 2.406 1.1076 3.399 1.9097.496.4202.573.3438 1.031.7639 1.184 1.1458 2.559 2.3299 3.552 3.5521.382.4583.42.5729.879.9549.382.3055.611.5729.955.8402.649.4966 1.413 1.0313 2.024 1.566 1.337 1.184 2.292 2.2917 3.59 3.5139l1.719 1.7569c.955.8021 1.871 1.6424 2.597 2.7118.268.382.535.6494.764 1.0695l.611 1.184c.649 1.6806 1.031 1.7952 1.261 4.125.114.9549.534 2.559-.268 3.0938-.382.1527-.802.1909-1.184 0-.344-.2292-.191-.0382-.344-.6111-.076-.3056-.114-.573-.114-.9167-.038-1.0695-.42-2.1007-.611-3.2083-.077-.4966-.382-.8785-.611-1.2987-.459-.9166-.917-1.7187-1.414-2.4444-.649-.8785-2.062-2.1007-2.941-2.941l-.993-.9548c-1.413-1.2605-2.291-2.6736-3.934-3.7431-2.482-1.6424-3.934-3.5903-5.996-5.6528-2.101-2.0625-4.507-3.4375-7.333-4.3159l-2.75-1.0695c-1.681-.5729-5.806-2.3298-7.41-2.2153-3.17.2292-6.417-.2291-9.549.1146-1.069.1146-2.33.382-3.514.382-1.298 0-2.559 0-3.857 0-1.719 0-5.959-.573-7.41-.1528-.42.1146-.993.3055-1.451.4583-.573.1528-1.1845.191-1.681.3438-2.0243.6875-3.8577 1.1458-5.5382 2.1389-.8403.4965-1.4132 1.184-2.0243 1.7951-.6875.6493-1.2986 1.184-1.9861 1.9479-.8403.9167-2.0625 1.9097-2.8264 2.941-.9167 1.184-2.1771 2.0625-2.6736 3.2083-.3438.8021-.4584 2.5591 0 3.2084 2.559.1909 3.0937-1.1841 4.3159-2.7882 2.5973-3.4375.9549-1.4132 3.3612-3.8959.7638-.8021 2.2534-1.6423 3.2083-2.2534l3.934-1.5278c.9162-.2292 2.0242-.5347 2.9032-.8403 1.489-.5347 1.451-.3819 2.941-.6875.993-.191 1.909-.3819 3.055-.5347 1.07-.1528 2.368-.1528 3.323-.3438.84-.1528 2.254-.3819 3.132-.4583l3.323-.2292c1.146 0 2.253-.1146 3.514-.1146l3.17.3056c1.26.1528 2.024.191 3.17.6111.458.1528.993.2292 1.451.3438.459.1527.803.3819 1.223.6111 1.031.5347 2.177.8021 3.055 1.4896.268.1909.153.1527.535.3819 1.26.6875 4.24 2.941 4.889 3.2465.229.1528.382.1528.611.3056 1.031.6875 2.521 1.2222 3.705 1.7187.535.2292.726.4202 1.184.6111 1.642.6112 3.437 1.4896 4.812 2.5209.42.3437.611.4965.993.8021.23.1909.841.6111.993.802.612.6875 1.261 1.1459 1.796 1.8334l1.375 2.3298c.382.8785.649 1.7188 1.069 2.5973l.764 1.9479c.726 1.4514 1.069 3.1319 1.871 4.4687.344.5729.115 1.1077.344 1.566.115.2292 1.261.6111 1.566.8403.535.3437.879.7257 1.222 1.1458.23.3056.306.2674.421.7257.267.9167.42 2.3299.114 3.1701-.573 1.5658-2.635 2.7118-3.667 3.4758-1.947 1.49-3.513 1.566-5.156 3.094l-1.757 1.871c-.802.955-1.528 1.49-2.368 2.406-.42.421-.687.879-1.069 1.299-.993 1.184-1.795 1.91-3.018 2.865-.305.229-.496.305-.725.496-1.261 1.108-2.598 2.292-4.202 2.941l-3.361 1.413c-.649.191-1.031.191-1.91.497-.649.229-1.107.458-1.718.649-.688.229-1.261.268-1.872.535-2.368.993-4.354 1.91-6.798 2.712-1.452.496-2.789.267-4.431.343-.611-.993-.496-1.069 0-2.1.802 0 1.986-.038 2.75-.115.917-.114 1.833-.458 2.635-.84.115-.038.421-.153.497-.191l1.986-.802c.535-.191.573-.268 1.031-.458.306-.153.688-.191 1.032-.344.534-.229.305-.306.993-.459.916-.191 1.413-.305 2.215-.649.764-.305 1.299-.496 2.139-.687.993-.23 1.298-.497 2.177-.764 1.184-.382 1.948-.993 2.826-1.337.726-.306 1.032-.764 1.643-1.184.534-.382.993-.955 1.527-1.299.726-.42 1.834-1.26 2.368-1.909.612-.726.306-.573 1.261-1.566l1.375-1.452c.42-.42 1.26-1.107 1.337-1.528-.153-.076-2.979-.152-3.743-.305-1.337-.267-2.865-.153-4.24-.153-1.451 0-2.865-.114-4.163-.114-.688 0-1.337-.039-2.024-.153-.764-.077-1.223-.268-1.872-.382-1.337-.229-2.635-.229-4.01-.306-1.796-.076-6.417-.458-8.098-.725l-3.857-.573c-.726-.077-1.222 0-1.948-.23-.535-.152-1.146-.343-1.719-.458-1.146-.267-2.062-.878-3.246-1.146-1.452-.343-2.407-1.146-3.553-1.871-.878-.5731-1.145-.7641-1.871-1.528-1.528-1.566-2.941-2.7882-4.545-4.1632-.8023-.6875-1.4134-1.4896-2.3682-2.0243-.4584-.2674-.9549-.4583-1.2605-.9167-.3055-.4583-.0763-1.184.4966-1.4896 1.1458-.6111 2.7881 1.2987 3.4371 1.757.879.6875 4.469 3.8958 5.004 4.5069.305.3438.344.382.649.6875.611.6493.726.6875 1.528 1.1841 3.094 1.9479 3.17 1.4132 5.5 2.5203 2.253 1.07 4.545.803 6.913 1.223 3.17.611 6.57.878 9.74.993.878.038 1.604.153 2.482.191 1.91.076 2.98.611 4.889.649 1.757.038 3.476.115 5.233 0 1.642-.076 3.476.267 5.003.42.802.077 1.795.077 2.598 0 .725-.076 1.527-.458 2.1-.649.65-.267 1.261-.535 1.872-.84 2.062-.993 3.246-1.796 4.889-3.2851.343-.3438.343-.191.42-.8785.191-1.566-1.299-2.4444-1.643-2.368-.381.2291-.305.3819-.84.6875-1.146.6875-2.482.2291-3.628.7638l-5.309 2.0243c-.726.4202-2.865.4966-3.782.611-1.947.229-3.704.191-5.576 0l-4.01-.3818c-.497-.0764-.573-.1528-1.223-.2292-1.604-.1527-3.399-.6111-5.003-.9166-1.108-.191-1.413-.191-2.406-.5347-.344-.1146-.879-.1528-1.184-.3056l-.993-.4583c-1.834-.6875-4.889-1.6042-6.837-1.9861-.802-.1528-1.49-.4966-2.215-.7639-.573-.191-.573-.3056-.994-.4966l-5.194-2.177-1.49-1.4514c-.534-.4966-1.069-.8403-1.604-1.3368-.611-.573-.764-.8785-1.528-1.4132-2.482-1.7952-5.2704-2.2535-8.3259-3.4375-1.1458-.4202-2.8264-1.2986-3.9722-1.9098-.6111-.3055-1.5278-.5729-2.1007-.8402-.9931-.4202-1.1841-.7257-1.8716-1.1459-1.5277.4584-3.9722 1.2986-5.0798-.2673-1.2986-1.7952-1.1077-3.0938-.4584-5.1945.382-1.2604 1.2987-2.0243 2.2535-2.8646.2674-.2291.4965-.6493.7257-.9548l3.3229-3.4757c.9549-1.0694 2.4827-2.4063 3.5139-3.2847 1.6042-1.375 2.75-1.4896 4.6597-2.1389 2.5973-.9167 1.2987-.5347 3.9339-1.1459.649-.1527.764-.2291 1.261-.4201.763-.2674 5.652-.1146 6.645 0 2.139.2674 4.431.0382 6.532-.0764 2.1-.0764 4.43-.3819 6.455-.3437 1.604.0382 3.322.2291 4.965.0382.458-.0382.993-.191 1.375-.2292 1.604-.1528 4.736.1528 6.455.2674 2.1.1527 4.545 0 6.684-.1146 1.642-.0764.764-.4202 2.979 0 .802.1528 2.253.1528 3.132.2291 2.139.2292 3.514.9931 4.774 2.0243l1.795 1.6042c.382.4202 1.184 1.5278 1.757 1.566.65-1.1077-.535-3.2083-1.031-4.2396l-.993-1.8333c-.382-.5729-.879-1.1077-1.108-1.8334-.305-1.1076-.84-1.184-1.528-2.8645l-1.642-2.4063c-.84-1.2222-1.375-2.2535-2.444-3.3229-.497-.4965-.993-.9931-1.49-1.4514-1.146-1.0694-3.132-3.3993-4.354-4.2396l-3.476-2.4062c-1.146-.7257-2.444-1.5278-3.705-2.0625-1.222-.5348-.687-.4966-2.329-.6111-.841-.0382-1.91-.0382-2.712-.1528-.841-.1146-.459-.3056-1.032-.382-4.125-.4965-8.211-.5347-12.336-.8402-1.757-.1528-3.782.1909-5.539.2673-.916.0382-1.68.2674-2.597.3438-2.062.1145-3.934.7257-5.92 1.2604l-2.2152.7257c-.993.3055-2.0625.9548-2.8646 1.5278-.5347.3819-1.1458.802-1.6423 1.184-.6111.4965-.7639.8785-1.6042 1.3368-.8785.4965-2.0243 1.8333-3.0937 2.6736-.5348.4201-1.1077.8021-1.6806 1.1458-.6875.4584-1.8715.4966-2.0243-.4201-.2292-1.2604 1.6805-1.8715 3.0173-2.9028.9549-.7639 1.4514-1.6423 2.2153-2.1007.3438-.191.5348-.3819.8785-.6111.9931-.6875 1.7188-1.6042 3.2465-2.5208.8403-.5347.7257-.5347 1.7952-1.0313 3.7051-1.7187 7.7921-2.1389 11.8021-2.7882l5.5-.3055c2.062.0382 11.649.5347 13.483 1.0312 1.107.3056 2.788.4202 3.972.4584 1.107.0382.305-1.4132.038-3.0938-.191-1.184-1.146-2.8646-1.757-4.0104-.649-1.2222-1.375-2.7118-2.177-3.7431l-1.26-1.5659c-.955-.9931-3.629-3.0556-4.851-3.8577-2.636-1.6805-5.271-2.6354-8.517-3.1319-1.681-.2674-3.591-.2292-5.271-.5347-3.476-.573-7.525-.4584-11.0385-.191-3.2084.2673-4.5452.191-7.6771.993-1.2222.3056-1.1076.3056-2.0243.9167-1.1458.7257-2.3299 1.1076-3.7049 2.0625-2.1007 1.4132-2.1389.4965-5.0798 3.6285-.4966.5347-.9549.8403-1.4132 1.5278-.3438.5347-.6875 1.2604-1.1077 1.7187-.7257.8021-3.2465 4.316-3.5902 5.2326-.2674.7257-.6112 1.1841-.9549 1.8716-.3438.7257-.7257 1.2604-1.0313 1.9097-.9166 1.9479-2.4062 3.3611-3.8576 4.8507l-2.7118 3.0555c-.6875.7257-.6875.9549-1.2222 1.7188-.3438.4965-.7639 1.2604-1.1841 1.6424-1.4131 1.1458-.1527-.2674-1.4131 1.4895-.4584.6493-.9167.9931-1.4132 1.5278-.2674.2674-.4584.4584-.7257.7257-.2674.2292-.573.4202-.7639.6875-.5347.6875-.2292.6875-1.1841 1.6424-.4583.4583-.9166.993-1.2222 1.7187-.3437.7639-.6875.9549-1.1458 1.6424-.4583.7257-.6111 1.3368-1.0695 1.8715-.4201.5347-.802 1.0313-1.1458 1.6806-.4965 1.0312-1.7187 2.5208-2.368 3.5521l-1.5278 2.7881c-.2292.573-.3056.4966-.5729.9167-.382.6875-.573 1.3368-.9549 1.9861-.191.3056-.3437.5348-.4965.8403-.2674.4965-.2674.4201-.5729.8785-.6875 1.0312-1.375 2.7118-1.8716 3.8958-.3819.9167-1.6423 2.7882-2.1771 3.7049-.3055.5729-.9166 1.2222-1.1458 1.7951-.2292.4583-.0382.4965-.3819.9549l-1.4514 2.9409c-.5347 1.4514-1.4896 2.4445-1.9097 3.9723-.191.7639-.6112 1.1076-1.0313 1.8333-.3437.5729-.7257 1.2604-.9549 1.9479-.3437 1.0313-1.1076 1.8715-1.6041 2.8264-.4965.9931-.8403 1.9861-1.4132 2.8646l-1.9097 3.8573c-.3056.611-.7639 1.299-.9167 2.025-.191 1.069-.5729 1.031-.8785 1.948-.6875 2.024-.9548 1.947-1.375 3.055l-1.2986 3.132c-.0764.267-.3055.764-.3819.955-.1146.42-.0382.764-.2674 1.222-.4201.993-.4583 1.07-.6875 2.254-.2292 1.145-.6111 2.253-1.1458 3.17-.2292.382-.8403 2.75-.9549 3.323-.1528.687-.5729 1.375-.6875 2.253-.1146.879-.191.573-.3437 1.108-.0764.305-.1528.916-.191 1.26-.0764.42-.0764.879-.1528 1.337-.0764.535-.2673.726-.3437 1.108-.1146.458 0 .725-.1146 1.26-.4202 2.063-.1146 1.49-.3056 2.635-.0764.497-.1909.726-.3055 1.184-.191.803.0382 1.834-.2292 2.636-.6875 2.139-.4583 3.246-.6111 3.667-.191.649-.3056.076-.3056 1.145 0 .917-.3055 1.528-.3437 2.598 0 2.253-.1528 1.222-.382 2.597l-.7638 3.514c-.1146.878-.1146 1.871-.3056 2.635-.1146.497 0 .879-.1146 1.375-.4583 1.757-.0764 3.705-.4583 5.424-.191.878-.0382 1.795-.2674 2.559-.5729 1.91 0 4.087-.3437 5.538-.1528.573-.3056.229-.3056 1.146 0 .611 0 .802-.1528 1.337-.3055 1.107-.0382 1.604-.1909 2.635-.0764.497-.2292.688-.3056 1.184-.0764.497 0 .879-.1146 1.375-.5729 2.292-.1909.573-.3055 2.292-.0764 1.451-.9167 3.399-.1528 5.003l.4965 3.934c0 .841.1528.573.3056 1.184.1528.42.0382.879.1146 1.337.1909 1.146.5347 2.292.9548 3.361.191.459.4965 2.139.6111 2.33.2292.42.2674.267.4584.879.1527.534.1909.649.4201 1.031.5347.955.8403 2.139 1.1458 3.17l1.5278 2.903c.382.573.8785 1.184 1.2986 1.642.5347.535.7639 1.146 1.2222 1.719.4966.649.8785.916 1.3369 1.489.4965.611.8784.879 1.4513 1.49 1.7188 1.795 1.5278 1.299 3.2848 2.483l3.5902 2.177c.6875.343 1.1077.84 1.8716 1.069 1.4132.382 2.6354 1.184 3.9722 1.833l1.0694.382c1.1077.344 1.6806 1.223 3.8959 1.987.3819.152.7639.152 1.1458.305 1.375.611 2.6736 1.031 4.2014 1.566.7639.267 1.5278.306 2.3299.611.5729.229 1.5277.191 2.4062.535.9549.382 3.3611 1.337 4.3924 1.413.4583.038.9166-.038 1.375 0 .4965.038.6111.229 1.1458.306.6111.076.7257-.039 1.2604.229.6111.305.4202.153 1.2222.191.573.038.6111.153 1.1077.267.4965.115.9166 0 1.375.077.5729.076.5347.267 1.1458.343.4583.038.9931-.038 1.4514 0 .4965.038.6111.229 1.184.306.4584.076.9549.038 1.4132.038 1.184 0 1.5278.344 2.5209.42 1.3368.115 2.7882-.076 4.125.229 1.7951.382 5.0416-.458 6.875.382.1909.077 12.9479.42 14.2083-.038 1.2222-.42 3.9339-.496 5.2329-.535 1.069-.038 1.26-.458 2.482-.458 1.299 0 2.865.191 4.087-.191 1.108-.344 17.111-.115 18.906-.153.917 0 .764-.343 2.368-.382 2.598 0 9.32.306 11.306-.42.649-.229 1.681-.382 2.368-.573.573-.152 1.719-.458 2.063-.725.267-.23 1.68-.612 2.177-.802 1.451-.573.878-.573 2.062-.764.573-.077.611-.23.993-.459.344-.191.688-.152 1.108-.382 2.062-.993 1.26-.267 3.055-2.788l1.146-1.68c1.261-1.681 1.91-1.299 1.566-3.82-.382-2.712.65-5.156-.191-8.021-.191-.649-1.833-2.902-2.33-3.552-.458-.573-.573-1.146-1.031-1.833-1.413-2.254-2.177-2.597-4.125-4.583-.496-.497-.917-.841-1.375-1.452-.344-.496-.726-1.298-1.069-1.871-.764-1.299-1.452-2.712-1.108-4.584.382-2.024.344-2.33 1.948-3.857 2.215-2.139 5.462-3.4 8.594-2.368.611.191 1.604.573 1.986.954.764.917.764.803 1.184 1.681zm24.864-139.1423c-.496-.1146-.076-.1146-.572-.4202-.344-.191-.421-.0764-.764-.2673l-1.337-.6875c-.611-.3438-.917-.3438-1.452-.6112-1.069-.5347-.038-.1909-1.489-.5347-2.063-.4583-1.872-.5729-3.17-.8784-3.858-.9549-6.15-1.6806-10.542-1.7188-1.375-.0382-2.597-.1528-3.972-.1528-.611 0-1.184.1528-1.795.191-.688.0382-1.375.0382-2.025.1146-1.069.1528-2.291.4583-3.513.5347l-3.4.7257c-.382.1146-.955.3819-1.489.5347-.382.1146-.421.191-.688.3438-.305.1527-.496.1146-.84.1909-1.07.191-4.163 1.5278-4.965.7257-2.407-2.4062-5.615-4.125-8.594-5.8437 0-1.2222-.459-4.6215-.917-5.4618-.344-.6111-.687-1.4132-.955-2.1771-.382-.9931-.993-1.4896-1.069-2.2153.344-.4201 3.208-2.1771 3.323-2.2916.42-.4202.114-.3438.725-.6112 2.33-1.1076 2.559-2.1388 3.934-3.2083.23-.191.573-.3819.764-.6111.23-.2674.497-.5347.726-.7257.458-.3437 3.361-1.566 3.972-1.6424.955-.1145.459-.1527 1.108-.2673.458-.0764.878-.1146 1.337-.1146l5.653.0382c1.833.191 7.142.2674 7.868.5729 1.566.6493 4.125 2.0243 4.812 2.2917.84.3437.382.1528.879.5729l1.947.8785c.841.3437 2.674 1.5277 3.4 2.2534 1.757 1.7188 1.184.9931 2.597 3.0556l2.674 3.6667c.343.2673.038-.191.305.3437.726 1.375 1.91 3.0174 2.712 4.4306.382.6875.764 1.0694 1.069 1.7569.23.5729.65 1.2986.993 1.8333.268.4584.382.3056 1.146 1.6806.497.8785.382.4201 1.032 1.7951.191.4584.191.6875.458 1.0313.305.3819.535.3055.114.8785zm-37.774-28.9132c-1.719 0-3.59.4965-5.042 1.184-.954.4583-1.795.8403-2.597 1.4514-2.253 1.6423-1.757 1.6041-3.17 2.941-.726.6875-1.68 1.1076-2.444 1.7569-.459.3819-3.285 2.3681-3.705 2.3681-.535 0-.764-.6112-1.031-.9931-.612-.9549-2.025-2.559-3.018-3.2083-.458-.3056-.764-.5348-1.146-.8785-2.673-2.1389-4.621-3.2847-7.791-4.4306-.841-.3055-1.681-.4583-2.598-.5729-.19-.0382-.649-.1146-.84-.1528-3.017-.5347-6.187-.5729-9.281-.9166-1.49-.1528-4.354-.191-5.8056.0382-1.2222.1909-2.5972.0764-3.8958.1909-.6112.0382-1.1459.2292-1.7952.2292-3.0937.0382-5.309.7639-7.868 2.2917l-3.9341 2.1771c-.4965.2291-.9166.4201-1.3368.7257-.8402.5729-1.4132 1.1076-2.1007 1.8333-3.2847 3.2847-1.7187 1.9097-3.7048 4.4305-1.6042 2.0625-3.132 4.4306-4.3542 6.7605-.5729 1.1076-.9549 2.368-1.8333 3.2465-.7257.6875-1.2604 1.4132-1.8334 2.2153-.6111.802-1.2986 1.2222-1.9097 2.0625-.8403 1.1458-2.1771 2.1007-2.7882 3.3229-.4201.8403-1.375 2.3298-2.1007 2.9791-.8784.7639-1.6041 1.7188-2.4826 2.5973-.382.3819-.6493.6493-1.0313 1.0312-.6875.6875-1.1458 1.4896-1.8715 2.2153-.5347.4965-1.2222 1.7569-1.6805 2.4062-.2674.4202-.5348.8021-.8021 1.2223-.2674.4583-.4202.8784-.7257 1.2986l-3.2084 4.8125c-.2673.4201-.5729.7639-.8402 1.2222-1.375 2.5208-1.8716 3.8576-3.5139 6.5313-1.2986 2.1388-2.2153 4.5069-3.5139 6.684l-3.5903 6.493c-.2292.4584-.3055.9549-.6111 1.4132-.5347.8785-.9167 1.757-1.375 2.6736l-2.7882 5.3855c-.191.3819-.4965.9166-.7639 1.2986-.5729.8784-.8785 1.7569-1.375 2.7118-.2673.4965-.4583.8403-.7257 1.2986-1.4132 2.8643-1.9479 3.8193-3.2083 6.8363l-.5729 1.49c-.4202.993-1.0313 1.681-1.3368 2.75-.2674.955-.8021 1.833-1.1459 2.826-.1145.306-.1909.497-.2673.726-.1146.306-.1146.497-.191.84l-1.4132 4.698c-.191.573-.4201.802-.6111 1.414-.6493 2.329-1.5278 4.774-1.9097 7.104-.0382.267-.1528.534-.2292.802-.1528.573-.0382 1.184-.2292 1.795-.0763.229-.1909.42-.2673.764l-.2674 1.757c-.0382.916 0 2.024-.2291 2.826-.1146.497-.191 1.299-.2292 1.795-.0764 1.146-.4965 2.177-.6493 3.285-.1146.955.0382.955-.2292 1.795-.191.611-.0382 1.184-.2292 1.795-.2673.764-.2291.802-.2291 1.834 0 1.718-1.2222 5.614-1.2604 6.76-.0382 1.375-.1146.879-.191 1.833-.1146.879-.0382.993-.2674 1.796-.3055 1.107-.0764 2.368-.1527 3.475l-.2674 1.757c-.1146.611-.0382 1.49-.1146 1.948-.3437 2.024-.2674 1.451-.2674 3.705 0 .535-.0381 1.413-.1527 1.871-.3056 1.184-.191.421-.3056 1.757-.0382.612-.3055 1.032-.3437 1.681-.0382 1.184.0764 1.681-.2292 2.826-.191.726-.2292 1.796-.4583 2.598-.191.649-.0764 1.184-.1146 1.909.0382.726-.1528.993-.1528 1.757l.3819 5.5c.1528.535.2674 1.031.3056 1.604.0382.879.191.879.3056 1.49.4201 1.948.3055 2.483 1.0312 4.622.5347 1.565.7257 2.52 1.4514 4.086.3819.841.8021 1.719 1.0694 2.636.1528.534.2292.916.4966 1.413.2291.458.4201.687.6493 1.184 1.2986 2.597 1.2604 1.948 2.5972 3.819.6493.879 1.2222 1.834 2.0243 2.636 1.2604 1.26 2.4063 2.406 3.7431 3.628.3819.344.802.382 1.2986.65.4583.267.6875.458 1.0694.725 1.1077.764 2.4063 1.375 3.5139 2.139 1.4514.955 2.4063.993 3.7431 1.719.802.458 1.6041.955 2.4826 1.26.6111.23.8403.191 1.375.573.7257.535 1.5278.993 2.4062 1.337.4584.191.9167.267 1.375.42l2.6737 1.031c1.4895.497 2.9027.726 4.3159 1.337.6111.229.9549.153 1.5278.268 1.9861.458 3.6667 1.642 5.7292 1.604 1.2986 0 5.5 1.069 6.3403 1.146.3437.038.6493-.039.993.038.191.038.4583.153.6875.191.6111.153.9931.038 1.6806.114.5347.039.8784.306 1.4896.344.6111.038 1.2222.077 1.7187.115 1.4514.114.7639.153 1.6042.305 1.1458.229 2.5208-.114 3.6666.077.6493.114.8403.305 1.4896.305 1.2222.038 2.5209 0 3.7431 0 2.368 0 2.4826.344 3.2847.344h13.1389c.7257 0 .993-.344 2.0243-.344.8021 0 1.2986-.191 2.0629-.305.763-.115 1.604.038 2.329-.039.382-.038.535-.191.841-.267 1.68-.42 3.896.153 5.423-.382 1.07-.382 3.209-.153 4.507-.153h13.903c1.108 0 1.222-.267 2.024-.343 1.757-.115 7.028 0 9.282 0 .954 0 4.736-.917 5.652-1.223.612-.191 1.337-.229 1.872-.496 1.375-.802 4.354-1.604 4.927-1.986.382-.229.42-.229.878-.382.268-.115.459-.229.764-.344 3.629-1.833 4.469-5.347 5.386-5.576.229-.039.305-.039.535-.039.076.344.19.497.305.803.688 1.757 1.031 3.322 2.75 4.354.458.267.955.496 1.375.764.535.343.611.573 1.222.84l2.559 1.489c.306.191.344.268.65.459 1.031.649 2.062 1.298 3.017 2.101.42.343.764.534 1.184.84 1.222.802 3.819 2.673 5.042 3.208l2.941 1.261c1.527.611 1.795.496 3.284.763 1.719.306 1.872.497 3.705.497.726 0 1.07.191 1.795.229 1.872.153 3.858.458 5.768.458 1.871 0 4.201-.229 6.034.191 1.184.268 2.674.115 3.934.153.726.038 1.032.229 1.796.229h4.621l5.042-.496c1.528-.268 2.826-.726 4.278-1.146.763-.229 1.451-.382 2.215-.496.955-.153 1.26-.421 2.139-.612 1.413-.305 2.788-.84 4.01-1.413l1.872-.84c1.26-.497 2.253-1.337 3.475-1.948 1.719-.878 1.337-.802 2.483-1.604.306-.191.573-.306.879-.497 1.756-1.298 2.902-3.399 2.902-5.805 0-.535-1.107-3.705-1.413-4.278-.955-1.91-1.528-3.972-2.483-5.882-.611-1.26-1.336-2.253-2.062-3.476-.382-.611-.726-.993-1.146-1.566-1.719-2.368-1.871-4.659-3.896-7.295-.42-.535-.725-1.069-1.184-1.642l-2.635-2.903c-1.413-1.375-3.514-5.08-6.226-7.677l-2.903-2.635c-.267-.23-.611-.382-.878-.612l-2.215-1.718c-1.146-.802-2.216-1.49-3.323-2.216-1.108-.763-2.445-1.26-3.591-1.947-1.566-.955-3.055-1.299-4.163-2.827-.229-.344-.382-.458-.611-.726-1.91-2.291-.229-2.482 1.337-4.468 1.833-2.33 2.597-2.979 3.781-5.844l.611-1.757c.344-1.375.573-4.622.077-5.997-.115-.305-.535-1.26-.535-1.604 0-.687 1.91-3.017 2.521-3.59.687-.649 1.107-1.49 1.719-2.253 1.566-1.948 1.756-3.285 1.756-5.806 0-.917-.802-2.712-1.336-3.399-.802-1.032-1.414-.497 1.451-4.278l1.948-2.101c.726-.649 1.49-1.222 2.024-2.062 1.566-2.368 2.483-3.285 2.483-6.57 0-1.031-2.063-5.08-2.559-5.92-.382-.649-.993-1.26-1.49-1.795-.534-.611-1.26-.84-1.527-1.642-.153-.497-.268-1.07-.459-1.605-.535-1.489-1.337-2.902-2.33-4.125-.305-.42-.534-.802-.878-1.184-.573-.611-1.375-1.795-1.986-2.291-2.865-2.368-2.177-2.292-.611-3.858.534-.535.878-.84 1.336-1.489 2.75-3.7435 1.414-1.6428 3.285-5.3095.382-.7639.535-1.3368.649-2.1771.306-2.4826.764-3.7812.344-6.4166-.076-.4584 0-.8403-.038-1.2986-.076-.8403-.344-1.5278-.344-2.4827 0-1.6041.344-2.75.344-4.316 0-.3819-.115-4.0868 0-4.2013.688-.3438 1.108.1145 1.681-.573.267-.3437.458-1.0694.458-1.6805 0-1.7952-1.986-3.6667-3.132-4.5451l-5.653-3.7049c-.764-.382-1.91-.6875-2.253-1.4514-.802-1.6042-1.566-3.2083-2.788-4.5451-.306-.3438-.497-.6493-.764-1.0313-.573-.8021-2.827-3.1701-3.591-3.8958-.878-.8403-5.423-3.9722-6.493-4.6979-.382-.2674-.764-.5348-1.146-.7639-.305-.191-1.031-.4202-1.222-.6111-.382-.3438-.229-1.0313-.343-1.566-.65-2.75-2.292-4.9653-3.705-7.3715-.23-.4202-.42-.7257-.65-1.1459l-2.826-4.6215c-.611-1.2222-1.528-2.2535-2.33-3.3229-.267-.382-.458-.6875-.726-1.0695-1.031-1.5277-1.986-2.7882-3.284-4.0868-1.261-1.2604-2.712-2.3298-4.316-3.1319l-7.601-3.7813c-1.681-.7257-4.774-.6493-6.837-.6493-1.146 0-2.1-.2291-3.399-.2291zm-56.9478 101.7115c.9549.573.9549 1.91.0382 2.139-.3819.077-1.3368-.038-1.7951-.076-.6111 0-1.184.114-1.7952.114-2.3298.039-4.1631.497-6.302.917-2.4827.497-5.0417 2.215-6.4167 4.431-.3819.649-.9549 1.871-2.0243 1.489-2.1389-.764 1.4896-4.545 2.4444-5.271.3438-.267.6875-.573.9931-.802 1.6805-1.337 4.5069-2.062 6.684-2.406.5347-.076.7639-.229 1.4896-.306.8403-.114 6.1875-.534 6.684-.229zm90.9788-12.337c1.643 0 3.476.077 5.004-.305.726-.191 2.101-.802 2.368.344.153.687-.038 1.031-.458 1.26-.306.191-.802.458-1.184.535-3.209.611-5.348.344-8.632.153.038.152 1.145 1.031 1.68 1.718l1.604 2.025c1.108 1.451 3.247 3.17 4.927 5.805.268.42.23.382.421.84 1.375 2.827-.726 2.598-1.261 2.139-.458-.382-1.184-2.1-1.833-2.941-.191-.267-.306-.305-.535-.573-.764-.954-.038-.305-1.069-1.298l-1.795-1.833c-1.948-2.101-2.025-3.094-4.66-4.928-1.222-.84-.497-.458-1.452-.916-.382-.191-1.489-1.146-2.941-1.834-1.145-.572-2.177-.802-3.208-1.642-1.26-1.031-.114-2.559 1.604-1.604.841.458 6.226 2.215 7.143 2.444.343.077.687.077.993.153 1.184.191 1.871.458 3.284.458z" fill="#000100"/></g></svg>