<svg fill="none" height="250" viewBox="0 0 250 250" width="250" xmlns="http://www.w3.org/2000/svg" xmlns:xlink="http://www.w3.org/1999/xlink"><linearGradient id="a" gradientUnits="userSpaceOnUse" x1="126.25" x2="126.25" y1="186.602" y2="65.0475"><stop offset="0" stop-color="#3f5caa"/><stop offset=".2" stop-color="#3f5fac"/><stop offset=".33" stop-color="#4168b2"/><stop offset=".46" stop-color="#4378bd"/><stop offset=".57" stop-color="#468ecc"/><stop offset=".64" stop-color="#48a0d9"/><stop offset=".8" stop-color="#3abbec"/><stop offset=".9" stop-color="#35c6f4"/></linearGradient><linearGradient id="b" gradientUnits="userSpaceOnUse" x1="126.25" x2="126.25" y1="186.701" y2="65"><stop offset="0" stop-color="#4068b1"/><stop offset=".13" stop-color="#3d7fc1"/><stop offset=".39" stop-color="#39a5dd"/><stop offset=".59" stop-color="#36bdee"/><stop offset=".72" stop-color="#35c6f4"/></linearGradient><clipPath id="c"><path d="m0 0h250v250h-250z"/></clipPath><g clip-path="url(#c)"><path d="m125 0c69 0 125 56 125 125s-56 125-125 125-125-56-125-125 56-125 125-125z" fill="#071630"/><path d="m205.5 180.5c0 3.5-3 6-7.5 6-4 0-7-2.5-7-6v-91.5c0-.5 0-.5-.5-.5s-.5 0-1 0l-57.5 73.5c-2.5 2.5-7 3.5-10 1.5-1-.5-1.5-1-2-1.5l-57.5-73.5c-.5 0-.5 0-1 0l-.5.5v92c0 3.5-3.5 6-7.5 6s-7-2.5-7-6v-110c0-2 1.5-4 3-5 3.5-2 7.5-1 10 1.5l63.5 80.5c1.5 1.5 3.5 1.5 5 .5 0 0 .5 0 .5-.5l63.5-80.5c1.5-2 4-3 6.5-3 4 0 7.5 2.5 7.5 6z" fill="url(#a)" opacity=".9"/><path d="m205.5 180.5c0 3-3 6-7.5 6-2.5 0-5-1-6.5-3l-63-80.5c-1.5-1.5-3.5-1.5-5-.5 0 0-.5.5-1 1.5l-62.5002 80c-2.5 3-6.5 3.5-10 1.5-2-1-3-3-3-5v-109.5c0-3.5 3-6 7-6s7.5 2.5 7.5 6v92c0 .5 0 .5.5.5h1l56.0002-71.5c.5-1 2.5-3 3.5-3.5 3.5-2 7.5-1.5 10 1.5l57 73.5h1c.5 0 .5-.5.5-.5v-92c0-3.5 3-6 7-6s7.5 2.5 7.5 6z" fill="url(#b)"/></g></svg>