<svg width="250" height="250" viewBox="0 0 250 250" fill="none" xmlns="http://www.w3.org/2000/svg">
<g clip-path="url(#clip0_50_10820)">
<path d="M125 250C194.036 250 250 194.036 250 125C250 55.9644 194.036 0 125 0C55.9644 0 0 55.9644 0 125C0 194.036 55.9644 250 125 250Z" fill="white"/>
<g clip-path="url(#clip1_50_10820)">
<path d="M143.175 80.5234H133.949V95.8583H143.175V80.5234Z" fill="#1682FE"/>
<path d="M116.697 52.0859H107.471V67.4208H116.697V52.0859Z" fill="#1682FE"/>
<path d="M90.2189 66.7109H80.9932V82.0458H90.2189V66.7109Z" fill="#60D8A4"/>
<path d="M77.0262 125H67.7083V168.77H77.0262V125Z" fill="#F4BB3B"/>
<path d="M77.0262 81.2344H67.7083V125.005H77.0262V81.2344Z" fill="#60D8A4"/>
<path d="M156.367 95.1484H147.142V110.483H156.367V95.1484Z" fill="#1682FE"/>
<path d="M156.367 139.523H147.142V154.858H156.367V139.523Z" fill="#FF5A5A"/>
<path d="M143.175 154.148H133.949V169.483H143.175V154.148Z" fill="#FF5A5A"/>
<path d="M116.697 182.586H107.471V197.921H116.697V182.586Z" fill="#FF5A5A"/>
<path d="M90.2189 167.961H80.9932V183.296H90.2189V167.961Z" fill="#F4BB3B"/>
<path d="M182.292 110.379V81.2323H169.006V66.7099H142.529V52.0859H116.051V66.7099H89.5731V81.3338H76.2881V168.773H89.5731V183.397H116.051V198.021H142.529V183.397H169.006V168.773H182.292V139.525H155.814V154.149H142.529V168.773H116.051V154.149H102.858V95.8563H116.143V81.2323H142.621V95.8563H155.906V110.48H182.292V110.379Z" fill="#3A3A3A"/>
</g>
</g>
<defs>
<clipPath id="clip0_50_10820">
<rect width="250" height="250" fill="white"/>
</clipPath>
<clipPath id="clip1_50_10820">
<rect width="114.583" height="145.833" fill="white" transform="translate(67.7083 52.0859)"/>
</clipPath>
</defs>
</svg>
