<svg fill="none" height="250" viewBox="0 0 250 250" width="250" xmlns="http://www.w3.org/2000/svg" xmlns:xlink="http://www.w3.org/1999/xlink"><clipPath id="a"><path d="m0 0h250v250h-250z"/></clipPath><clipPath id="b"><path d="m67.7083 52.0859h114.583v145.833h-114.583z"/></clipPath><g clip-path="url(#a)"><path d="m125 250c69.036 0 125-55.964 125-125 0-69.0356-55.964-125-125-125-69.0356 0-125 55.9644-125 125 0 69.036 55.9644 125 125 125z" fill="#fff"/><g clip-path="url(#b)"><path d="m143.175 80.5234h-9.226v15.3349h9.226z" fill="#1682fe"/><path d="m116.697 52.0859h-9.226v15.3349h9.226z" fill="#1682fe"/><path d="m90.2189 66.7109h-9.2257v15.3349h9.2257z" fill="#60d8a4"/><path d="m77.0262 125h-9.3179v43.77h9.3179z" fill="#f4bb3b"/><path d="m77.0262 81.2344h-9.3179v43.7706h9.3179z" fill="#60d8a4"/><path d="m156.367 95.1484h-9.225v15.3346h9.225z" fill="#1682fe"/><g fill="#ff5a5a"><path d="m156.367 139.523h-9.225v15.335h9.225z"/><path d="m143.175 154.148h-9.226v15.335h9.226z"/><path d="m116.697 182.586h-9.226v15.335h9.226z"/></g><path d="m90.2189 167.961h-9.2257v15.335h9.2257z" fill="#f4bb3b"/><path d="m182.292 110.379v-29.1467h-13.286v-14.5224h-26.477v-14.624h-26.478v14.624h-26.4779v14.6239h-13.285v87.4392h13.285v14.624h26.4779v14.624h26.478v-14.624h26.477v-14.624h13.286v-29.248h-26.478v14.624h-13.285v14.624h-26.478v-14.624h-13.193v-58.2927h13.285v-14.624h26.478v14.624h13.285v14.6237h26.386z" fill="#3a3a3a"/></g></g></svg>