<svg fill="none" height="250" viewBox="0 0 250 250" width="250" xmlns="http://www.w3.org/2000/svg" xmlns:xlink="http://www.w3.org/1999/xlink"><clipPath id="a"><path d="m0 0h250v250h-250z"/></clipPath><g clip-path="url(#a)"><path d="m125 250c69.036 0 125-55.964 125-125 0-69.0356-55.964-125-125-125-69.0356 0-125 55.9644-125 125 0 69.036 55.9644 125 125 125z" fill="#fff"/><path clip-rule="evenodd" d="m105.469 125 40.625 41.406 25.781-25.781c4.687-4.687 11.719-4.687 15.625 0 4.688 4.688 4.688 12.5 0 17.188l-33.594 34.375c-4.687 4.687-11.718 4.687-16.406 0l-48.4375-50v29.687c0 6.25-5.4687 11.719-11.7187 11.719s-11.7188-5.469-11.7188-11.719v-93.75c0-6.25 5.4688-11.7188 11.7188-11.7188s11.7187 5.4688 11.7187 11.7188v29.688l48.4375-50.0005c4.688-4.6875 11.719-4.6875 16.406 0l33.594 34.375c4.688 4.6875 4.688 12.5005 0 17.1875s-11.719 4.687-15.625 0l-25.781-26.5625zm40.625-11.719c6.25 0 11.719 5.469 11.719 11.719s-5.469 11.719-11.719 11.719-11.719-5.469-11.719-11.719 5.469-11.719 11.719-11.719z" fill="#23af91" fill-rule="evenodd"/></g></svg>