<svg fill="none" height="250" viewBox="0 0 250 250" width="250" xmlns="http://www.w3.org/2000/svg" xmlns:xlink="http://www.w3.org/1999/xlink"><clipPath id="a"><path d="m0 0h250v250h-250z"/></clipPath><g clip-path="url(#a)"><path clip-rule="evenodd" d="m219.906 206.353c18.76-21.864 30.094-50.285 30.094-81.353 0-69.0356-55.964-125-125-125-31.0568 0-59.4683 11.3261-81.3293 30.0731l12.197 12.197c3.492 3.4919 3.492 9.1056 0 12.5534-3.492 3.492-9.1057 3.492-12.5534 0l-12.2911-12.2479c-19.3137 22.0032-31.0232 50.8463-31.0232 82.4244 0 69.036 55.9644 125 125 125 31.578 0 60.421-11.709 82.424-31.023l-13.247-13.247c-3.492-3.492-3.492-9.106 0-12.553 3.447-3.492 9.061-3.492 12.553 0zm-63.478-25.774c6.94 6.94 18.211 6.94 25.151 0s6.94-18.211 0-25.151-18.211-6.94-25.151 0-6.94 18.211 0 25.151zm-25.151 12.553-25.151 25.151c-3.448 3.492-3.448 9.106 0 12.554 3.447 3.492 9.061 3.492 12.553 0l25.151-25.151c3.492-3.448 3.492-9.062 0-12.554-3.448-3.492-9.061-3.492-12.553 0zm-62.8559-100.5598c6.9398 6.9398 18.2114 6.9398 25.1511 0 6.9398-6.9397 6.9398-18.2113 0-25.1511-6.9397-6.9397-18.2113-6.9397-25.1511 0-6.9397 6.9398-6.9397 18.2114 0 25.1511zm62.8559-75.4532-25.151 25.1511c-3.448 3.4919-3.448 9.1056 0 12.5534 3.447 3.492 9.061 3.492 12.553 0l25.151-25.1511c3.492-3.4478 3.492-9.0614 0-12.5534-3.448-3.492-9.061-3.492-12.553 0zm12.597 113.158-25.151-25.151c-3.492-3.448-9.105-3.448-12.553 0-3.492 3.447-3.492 9.061 0 12.553l25.151 25.151c3.448 3.492 9.061 3.448 12.553 0s3.492-9.061 0-12.553z" fill="#0054ff" fill-rule="evenodd"/></g></svg>