<svg fill="none" height="250" viewBox="0 0 250 250" width="250" xmlns="http://www.w3.org/2000/svg" xmlns:xlink="http://www.w3.org/1999/xlink"><clipPath id="a"><path d="m0 0h250v250h-250z"/></clipPath><g clip-path="url(#a)"><path d="m125 236.471c61.564 0 111.471-49.907 111.471-111.471 0-61.5635-49.907-111.4707-111.471-111.4707-61.5637 0-111.4709 49.9072-111.4709 111.4707 0 61.564 49.9072 111.471 111.4709 111.471z" fill="#fff"/><path d="m125 0c-24.723 0-48.8901 7.33112-69.4462 21.0663-20.5562 13.7352-36.5777 33.2575-46.03869 56.0983-9.4609499 22.8404-11.93637 47.9744-7.11321 72.2214 4.82315 24.248 16.7282 46.521 34.2098 64.002 17.4816 17.482 39.7544 29.387 64.0023 34.21 24.247 4.823 49.381 2.348 72.221-7.113 22.841-9.461 42.364-25.483 56.099-46.039s21.066-44.723 21.066-69.446c.048-16.368-3.129-32.5842-9.348-47.7242-6.22-15.1399-15.36-28.9065-26.9-40.5139-11.54-11.6073-25.253-20.828-40.357-27.13564-15.103-6.30763-31.301-9.5786338-47.669-9.62626zm2.119 129.237-13.015 43.886h69.613c.461-.016.921.059 1.353.221.432.161.828.407 1.165.722.338.314.61.693.801 1.113s.297.873.313 1.334v1.15l-6.054 20.884c-.266.988-.861 1.855-1.686 2.46s-1.831.912-2.853.87h-106.538l17.8571-60.836-19.9758 6.053 4.54-13.922 19.9758-6.053 25.1209-85.3514c.277-.9821.874-1.8434 1.697-2.4467.822-.6034 1.823-.9141 2.843-.8826h26.937c.461-.0162.921.0587 1.353.2203.432.1617.828.4069 1.166.7217.337.3149.609.6931.8 1.1131s.297.8735.313 1.3347v1.1501l-21.186 72.0338 19.975-6.053-4.237 14.528z" fill="#345d9d"/></g></svg>