<svg width="250" height="250" viewBox="0 0 250 250" fill="none" xmlns="http://www.w3.org/2000/svg">
<g clip-path="url(#clip0_48_12468)">
<path d="M56.8181 219.458C64.2323 228.432 73.2498 235.753 83.3475 240.995C93.4453 246.238 104.422 249.298 115.642 249.998C129.046 249.242 141.692 243.157 151.069 232.952C169.566 216.12 188.985 200.468 209.225 186.077L220.588 181.106C225.267 178.975 233.289 174.004 240.642 164.771C248.663 153.407 250 141.333 250 137.072C249.111 123.632 244.966 110.665 237.968 99.4297C219.705 134.005 193.532 163.129 161.869 184.108C130.206 205.088 94.0754 217.246 56.8181 219.458Z" fill="#0293D6"/>
<path d="M82.2192 17.7523C87.2092 12.1521 93.22 7.68977 99.8853 4.63721C106.551 1.58465 113.731 0.005712 120.989 -0.00342683C125.588 -0.330578 130.202 0.317238 134.563 1.90233C138.923 3.48742 142.944 5.97812 146.39 9.22953C165.564 23.6622 188.403 31.5858 211.898 31.9568C217.914 32.667 229.947 34.7977 237.968 45.4511C243.984 53.9738 244.652 63.2068 244.652 67.4682C244.114 78.4426 241.855 89.2445 237.968 99.4284L82.2192 17.7523Z" fill="#EBE638"/>
<path d="M56.8182 219.457C50.8021 218.746 42.7808 216.616 33.4225 212.354C24.0642 208.093 12.7005 203.121 5.34759 189.627C0.668449 181.104 0 172.582 0 166.9C0.163197 151.832 3.59433 137.006 10.0267 123.576C16.4264 106.976 20.6981 89.5379 22.7273 71.7294L26.0695 57.5249C28.0749 50.4226 29.4118 43.3203 34.0909 36.218L41.4439 27.6953C53.5885 19.5826 67.9606 16.0779 82.2193 17.7521C63.1266 46.7713 50.8567 80.2291 46.4373 115.323C42.0178 150.417 45.5775 186.125 56.8182 219.457Z" fill="#BAD147"/>
<path d="M82.2192 17.7578C81.5507 17.7578 118.315 19.8885 141.043 28.4112L159.759 36.9339C152.406 36.2237 105.615 34.093 70.1871 71.7351C25.401 120.031 40.1069 186.082 40.7753 189.633C30.3966 175.759 25.1646 158.324 26.0695 140.627C26.9494 117.14 32.3919 94.1004 42.0548 72.9555C51.7177 51.8107 65.3923 33.0178 82.2192 17.7578Z" fill="#78B650"/>
<path d="M171.791 193.18C184.438 168.755 190.04 140.916 187.9 113.131C185.761 85.3471 175.974 58.8459 159.759 36.9297C179.121 40.3692 196.931 50.3285 210.561 65.3388C218.583 72.4411 228.61 83.0945 237.968 99.4297C224.751 136.732 201.794 169.254 171.791 193.18Z" fill="#2F8260"/>
<path d="M193.182 68.1847C182.487 49.0086 167.112 40.4858 160.428 36.9347C155.08 35.5143 104.946 26.9915 66.8448 66.054C36.0962 97.304 34.0908 137.787 34.0908 145.599C34.2323 172.366 42.6921 198.332 58.155 219.463C78.026 223.528 98.4444 223.528 118.315 219.463C128.342 217.332 151.738 213.071 171.791 194.605C174.465 191.764 203.877 162.645 205.882 116.48C205.882 108.668 205.882 88.7813 193.182 68.1847ZM169.118 171.168C162.91 178.342 155.367 184.067 146.967 187.98C138.567 191.892 129.493 193.906 120.321 193.895C116.31 193.895 89.5721 193.185 70.8555 169.747C68.1817 166.196 54.8127 149.151 55.4812 123.582C56.8181 89.4915 82.2192 69.6052 87.5668 65.3438C92.2459 61.7927 103.61 53.9802 120.321 53.2699C124.331 52.5597 138.369 51.8495 152.406 60.3722C183.155 78.1279 184.492 120.742 184.492 123.582C184.492 131.395 184.492 152.702 169.118 171.168Z" fill="#085229"/>
</g>
<defs>
<clipPath id="clip0_48_12468">
<rect width="250" height="250" fill="white"/>
</clipPath>
</defs>
</svg>
