<svg fill="none" height="250" viewBox="0 0 250 250" width="250" xmlns="http://www.w3.org/2000/svg" xmlns:xlink="http://www.w3.org/1999/xlink"><clipPath id="a"><path d="m0 0h250v250h-250z"/></clipPath><g clip-path="url(#a)"><path d="m125 250c69.036 0 125-55.964 125-125 0-69.0356-55.964-125-125-125-69.0356 0-125 55.9644-125 125 0 69.036 55.9644 125 125 125z" fill="#181818"/><path d="m130.701 109.999 49.7-49.7998 10.1 10.2-49.7 49.6998zm-71.3011 71.2 49.8001-49.8 10.1 10.2-49.7 49.7zm71.3011-39.6 10.1-10.2 49.8 49.8-10.2 10.1zm-71.3011-71.1998 10.2001-10.2 49.7 49.6998-10.1 10.2zm55.4001 55.2998 10.201-10.2 10.2 10.2-10.2 10.2z" fill="#f6d30c"/></g></svg>