<svg width="250" height="250" viewBox="0 0 250 250" fill="none" xmlns="http://www.w3.org/2000/svg">
<g clip-path="url(#clip0_30_677)">
<path d="M125 250C194.036 250 250 194.036 250 125C250 55.9644 194.036 0 125 0C55.9644 0 0 55.9644 0 125C0 194.036 55.9644 250 125 250Z" fill="#181818"/>
<path d="M130.701 109.999L180.401 60.1992L190.501 70.3992L140.801 120.099L130.701 109.999ZM59.3999 181.199L109.2 131.399L119.3 141.599L69.6 191.299L59.3999 181.199ZM130.701 141.599L140.801 131.399L190.601 181.199L180.401 191.299L130.701 141.599ZM59.3999 70.3992L69.6 60.1992L119.3 109.899L109.2 120.099L59.3999 70.3992ZM114.8 125.699L125.001 115.499L135.201 125.699L125.001 135.899L114.8 125.699Z" fill="#F6D30C"/>
</g>
<defs>
<clipPath id="clip0_30_677">
<rect width="250" height="250" fill="white"/>
</clipPath>
</defs>
</svg>
