<svg fill="none" height="250" viewBox="0 0 250 250" width="250" xmlns="http://www.w3.org/2000/svg"><path d="m183.015 22.009c-6.506 6.4324-12.467 13.404-17.766 20.8378l-1.676-.5393c-9.662-3.1199-19.675-5.0457-29.766-5.7005-3.039-.2311-14.377-.2311-18.078 0-11.182.7318-19.754 2.3881-29.4944 5.7391-.3896.154-.7403.2696-1.0909.3851-5.4936-7.3953-11.6106-14.3283-18.351-20.6836 32.3382-16.36981 70.1703-18.33419 104.0273-5.431 3.624 1.3481 7.169 2.9273 10.637 4.6221z" fill="#f00500"/><path d="m243.327 168.103c-4.909 13.828-12.273 26.654-21.818 37.824-5.182 6.008-10.909 11.516-17.065 16.524-14.416 11.478-31.248 19.682-49.209 23.996-19.87 4.737-40.598 4.737-60.4685 0-18.0003-4.314-34.7927-12.518-49.2085-23.996-6.156-5.008-11.8834-10.516-17.0653-16.524-27.46793-32.085-35.80573-76.149-21.81849-115.8598 2.64939-7.3567 5.96109-14.4439 9.93519-21.1844 1.8312-3.0814 4.091-6.5479 5.182-7.973 3.7403 15.9075 8.3377 29.8892 10.052 34.935-.1169.2696-.2727.5778-.4285.8474-9.0781 18.1798-13.9873 35.7058-15.1561 54.3478 0 .231-.039.501-.039.732-.3117 5.585-.1558 8.242.7792 11.747 2.9222 10.978 11.9223 23.072 26.0265 34.935 23.1042 19.413 54.4294 33.433 78.1575 35.051 24.74 1.656 61.247-12.634 85.559-33.51 3.819-3.351 7.403-6.895 10.754-10.669 2.415-2.773 6-7.55 5.727-7.55-.078 0 0-.077.156-.154.117-.077.234-.192.156-.269-.039-.039.039-.154.156-.193.117-.038.194-.115.155-.192-.038-.077.001-.154.156-.193.117-.039.156-.154.117-.231s0-.154.078-.154.156-.116.156-.193.078-.192.156-.192.156-.077.156-.154c.117-.309.311-.617.506-.886.585-.886 2.922-5.008 3.234-5.701 2.221-4.969 3.623-9.398 4.286-13.827.311-2.119.506-6.009.35-6.934-.039-.154-.038-.423-.077-.847-.078-.77-.117-1.926-.195-3.081-.078-1.734-.234-4.16-.351-5.354-1.675-17.487-6.195-31.777-14.766-46.914-.351-.5778-.663-1.1555-.858-1.6177-.077-.1156-.116-.2311-.155-.3082 1.207-3.582 6.156-18.5652 10.091-35.7053l.078.077.584.7704c1.013 1.3481 3.701 5.3538 4.909 7.2797 5.494 8.8589 9.78 18.3727 12.819 28.3101 7.052 23.919 6.467 49.417-1.793 72.99z" fill="#f00500"/><g fill="#000"><path d="m192.756 122.077c-.117.616-1.948 2.465-3.78 3.813-5.376 3.89-15 7.511-24.779 9.244-5.572 1.001-11.143 1.155-12.819.347-1.091-.54-1.247-.963-.857-2.35.818-2.889 3.468-6.047 7.598-9.013 2.104-1.502 10.636-6.625 14.61-8.782 6.546-3.543 11.845-5.662 15.429-6.163 1.13-.154 2.494-.192 2.922 0 .702.27 1.481 2.311 1.793 4.776.155 1.31.077 7.088-.117 8.128z"/><path d="m100.961 134.824c-.233.462-1.4023.963-2.727 1.156-1.3247.192-5.3767.077-7.6754-.193-8.2599-1.078-17.0262-3.582-23.4159-6.663-3.5845-1.734-6.156-3.467-8.0651-5.354l-1.0909-1.117-.1169-1.464c-.1948-2.542-.1558-6.548.1559-7.973.1948-1.194.6233-2.349 1.2078-3.389.3117-.386.3117-.386 1.7143-.386 1.7143 0 3.1559.27 5.4936 1.002 4.7922 1.464 11.9222 5.007 20.6107 10.168 7.1689 4.237 9.8572 6.317 11.9222 9.167 1.4027 1.772 2.3377 4.276 1.9867 5.046z"/><path d="m156.131 188.441c0 .116-.467 1.964-1.052 4.16-.584 2.195-1.052 3.967-1.052 4.044-.428.039-.818.077-1.247.039h-1.246l-1.715 4.005c-.935 2.196-1.792 4.237-1.909 4.545l-.234.54-.818-1.31-.818-1.309v-10.67l-.312.077c-.662.154-5.376.771-7.441.963-8.533.848-17.105.655-25.598-.539-1.364-.193-2.533-.347-2.572-.308-.039.038 0 2.503.078 5.546l.117 5.47-.662 1.001c-.351.539-.701 1.002-.701 1.04-.117.116-.507-.501-1.403-2.272-.974-1.849-1.675-3.814-2.182-5.855l-.273-1.117-1.207.077-1.208.116-.312-1.425c-.156-.771-.351-1.965-.429-2.62l-.116-1.232-1.013-.886c-.585-.501-1.1693-1.002-1.2862-1.079-.1948-.154-.2727-.423-.2727-.654v-.463l4.8699.039 4.87.038.156.501.156.501 1.676.077c.935.038 3.896.116 6.545.193l4.87.115 1.247-1.926 1.286-1.926h1.636l-.039-4.005-.039-4.006-2.143-.925c-6.896-3.004-10.948-6.432-12.467-10.592-.312-.847-.312-1.155-.39-5.007-.039-3.813-.039-4.16.234-5.007.545-1.926 2.065-3.428 4.013-3.929.662-.193 2.416-.193 11.61-.193l10.832.039 1.208.578c1.441.693 2.104 1.194 2.922 2.272.935 1.233 1.208 2.196 1.208 4.545 0 3.351-.234 6.24-.585 7.396-.506 1.579-1.286 3.081-2.26 4.429-1.948 2.465-5.493 4.93-8.727 6.047l-.935.347.039 4.044.039 4.044.857.077.857.077 1.169 1.734 1.13 1.733h5.221c2.883 0 5.415.039 5.649.077.39.077.468.039.857-.616l.468-.694h4.48c3.351-.154 4.364-.077 4.364.039z"/><path d="m135.559 199.497c-.741.423-1.247.616-1.364.539-.117-.039-.662-.501-1.247-.925l-1.052-.847-1.091 1.156c-2.376 2.542-2.454 2.657-3.156 2.696-1.091.115-1.324-.077-2.649-2.042-.701-1.001-1.247-1.848-1.247-1.848s-.506-.077-1.091-.116l-1.091-.116-.506 1.04-.507 1.04-.896-.269c-.701-.231-1.402-.501-2.065-.809l-1.169-.578v-2.195l10.364.038 10.364.039.039 1.04c.039 1.232.078 1.194-1.636 2.157z"/></g><path d="m232.964 152.504c-.039-.154-.039-.423-.078-.847-9.351-1.001-36.039-1.618-60.819 18.604 0 0-7.987-36.206-45.39-36.206-37.4036 0-51.2739 36.206-51.2739 36.206-20.9614-22.302-49.0137-20.684-59.1438-19.22 0 .231-.039.5-.039.732-.3116 5.585-.1558 8.242.7793 11.747 2.9221 10.978 11.9223 23.072 26.0264 34.935 23.1042 19.413 54.4294 33.433 78.157 35.051 24.741 1.656 61.248-12.634 85.56-33.51 3.818-3.351 7.403-6.895 10.753-10.669 2.416-2.773 6-7.55 5.728-7.55-.078 0 0-.077.155-.154.117-.077.234-.192.156-.269-.039-.039.039-.154.156-.193.117-.038.195-.115.156-.192-.039-.078 0-.155.156-.193.117-.039.156-.154.117-.231s0-.154.078-.154.156-.116.156-.193.077-.192.155-.192.156-.077.156-.154c.117-.309.312-.617.507-.886.584-.886 2.922-5.008 3.233-5.701 2.221-4.969 3.624-9.398 4.286-13.828.234-2.118.429-6.008.273-6.933zm-97.404 46.991c-.74.424-1.247.617-1.364.539-.117-.038-.662-.5-1.247-.924l-1.052-.847-1.09 1.155c-2.377 2.542-2.455 2.658-3.156 2.696-1.091.116-1.325-.077-2.65-2.041-.701-1.001-1.247-1.849-1.247-1.849s-.506-.077-1.09-.115l-1.091-.116-.507 1.04-.506 1.04-.896-.27c-.702-.231-1.403-.5-2.065-.808l-1.169-.578v-2.196l10.364.039 10.363.038.039 1.04c.039 1.233.078 1.194-1.636 2.157zm19.481-6.933c-.585 2.196-1.052 3.967-1.052 4.044-.429.039-.818.078-1.247.039h-1.247l-1.675 4.044c-.935 2.196-1.792 4.237-1.909 4.545l-.234.54-.818-1.31-.818-1.31v-10.669l-.312.077c-.662.154-5.377.771-7.442.963-8.532.847-17.104.655-25.598-.539-1.363-.193-2.532-.347-2.571-.308-.039.038 0 2.503.078 5.546l.117 5.47-.663 1.001c-.35.539-.701 1.001-.701 1.04-.117.116-.506-.501-1.403-2.272-.974-1.849-1.675-3.814-2.181-5.855l-.273-1.117-1.208.077-1.208.115-.311-1.425c-.156-.77-.351-1.964-.429-2.619l-.117-1.232-1.013-.886c-.584-.501-1.1687-1.002-1.2856-1.079-.1948-.154-.2728-.423-.2728-.655v-.462l4.8704.039 4.87.038.156.501.156.501 1.675.077c.935.038 3.896.115 6.546.192l4.87.116 1.247-1.926 1.285-1.926h1.637l-.039-4.006-.039-4.005-2.143-.925c-6.896-3.004-10.948-6.432-12.468-10.592-.311-.847-.311-1.155-.389-5.007-.039-3.813-.039-4.16.233-5.007.546-1.926 2.065-3.428 4.013-3.929.663-.193 2.416-.193 11.611-.193l10.831.039 1.208.578c1.442.693 2.104 1.194 2.922 2.272.935 1.233 1.208 2.196 1.208 4.545 0 3.351-.234 6.24-.584 7.395-.507 1.58-1.286 3.082-2.26 4.43-1.948 2.465-5.494 4.93-8.728 6.047l-.935.347.039 4.044.039 4.044.857.077.858.077 1.168 1.734 1.13 1.733h5.221c2.883 0 5.416.038 5.65.077.389.077.467.038.857-.616l.467-.694h4.481c3.468 0 4.481.039 4.481.154-.117-.038-.624 1.849-1.208 4.006z" fill="#fff"/><path d="m232.652 148.575c-.078-1.733-.234-4.16-.351-5.354-1.675-17.487-6.195-31.777-14.766-46.9138-.351-.5778-.663-1.1556-.858-1.6178-.078-.1155-.117-.2311-.156-.3081 1.208-3.5821 6.156-18.5652 10.092-35.7054 5.337-23.2643 8.727-50.45734-1.637-58.6229682 0 0-17.922-1.3095818-41.923 21.9547682-6.506 6.4323-12.467 13.4039-17.766 20.8377l-1.675-.5392c-9.663-3.1199-19.676-5.0458-29.767-5.7005-3.039-.2311-14.377-.2311-18.078 0-11.182.7318-19.7539 2.388-29.4943 5.739-.3896.1541-.7403.2696-1.091.3852-5.4935-7.3953-11.6105-14.3284-18.3509-20.6837-24.9744-23.37988-43.5591-22.0317876-43.5591-22.0317876-10.9872 8.4352476-7.2469 36.8608876-1.5585 60.8954876 3.7403 15.9076 8.3378 29.8893 10.0521 34.935-.1169.2697-.2727.5778-.4285.8474-9.0781 18.1797-13.9873 35.7057-15.1561 54.3477 10.169-1.464 38.1824-3.12 59.1827 19.22 0 0 13.8704-36.206 51.2736-36.206 37.403 0 45.39 36.206 45.39 36.206 24.78-20.221 51.469-19.567 60.819-18.604-.039-.77-.116-1.926-.194-3.081zm-193.5229-67.251s-14.5717-36.0135-10.8314-56.5816c.6234-3.4665 1.7923-6.5094 3.6235-8.8204 0 0 16.5197 1.6177 43.1695 30.8907 0 0-5.065 2.4266-11.8443 7.5879 0 0-.039.0385-.078.0385-7.3637 5.5849-16.7924 14.4439-24.0393 26.8849zm61.8319 53.5c-.234.462-1.4024.963-2.7271 1.156-1.3247.192-5.3767.077-7.6754-.193-8.2599-1.078-17.0263-3.582-23.416-6.663-3.5844-1.734-6.1559-3.467-8.0651-5.354l-1.0909-1.117-.1169-1.464c-.1948-2.542-.1558-6.548.1559-7.973.1948-1.194.6234-2.349 1.2078-3.389.3117-.386.3117-.386 1.7143-.386 1.7143 0 3.1559.27 5.4936 1.002 4.7923 1.464 11.9223 5.007 20.6107 10.168 7.169 4.237 9.8573 6.317 11.9223 9.168 1.4028 1.771 2.3378 4.275 1.9868 5.045zm91.794-12.749c-.117.616-1.948 2.465-3.779 3.813-5.377 3.891-15.001 7.511-24.78 9.244-5.572 1.002-11.143 1.156-12.818.347-1.091-.539-1.247-.963-.858-2.349.819-2.889 3.468-6.048 7.598-9.013 2.104-1.503 10.637-6.625 14.611-8.782 6.545-3.544 11.844-5.662 15.428-6.163 1.13-.154 2.494-.193 2.923 0 .701.269 1.48 2.311 1.792 4.776.156 1.31.078 7.087-.117 8.127zm-6.468-67.6744-.078-.0386c-6.545-5.1613-11.454-7.5878-11.454-7.5878 25.753-29.273 41.689-30.8907 41.689-30.8907 1.753 2.3495 2.883 5.3538 3.506 8.8204 3.624 20.5681-10.442 56.6201-10.442 56.6201-5.883-10.3611-13.792-19.5282-23.221-26.9234z" fill="#ffa409"/><path d="m219.989 24.7032c-3.039-.3851-17.416-.4622-33.702 29.6967l-.078-.0385c-6.545-5.1613-11.454-7.5879-11.454-7.5879 25.753-29.273 41.689-30.8907 41.689-30.8907 1.792 2.3496 2.922 5.3539 3.545 8.8204z" fill="#ff9300"/><path d="m209.547 81.3217c-5.922-10.3997-13.792-19.5282-23.26-26.9235 16.286-30.1589 30.624-30.0819 33.702-29.6967 3.624 20.6067-10.442 56.6202-10.442 56.6202z" fill="#ff8300"/><path d="m220.564 24.8226c-.191-.0398-.383-.0796-.574-.1195z" fill="#ff8300"/><path d="m75.0909 46.7735s-5.065 2.4266-11.8443 7.5879c0 0-.039.0385-.0779.0385-16.8704-30.1974-31.7148-30.0818-34.9097-29.6967.6234-3.4665 1.7923-6.5094 3.6235-8.8204.0389 0 16.5587 1.6177 43.2084 30.8907z" fill="#ff9300"/><path d="m63.2069 54.3982c-7.4027 5.6235-16.8314 14.4439-24.0782 26.9235 0 0-14.5717-36.0135-10.8314-56.6202 3.1559-.3852 18.0392-.4622 34.9096 29.6967z" fill="#ff8300"/><path d="m28.2979 24.7031c-.1948.0399-.4285.0797-.6233.1195z" fill="#ff8300"/><g fill="#fff"><path d="m170.119 101.313s-12.468.77-10.909-8.8588c1.558-9.6293 11.298-10.7848 14.026-10.3996 2.727.3852 13.636 4.2369 11.688 12.3254-1.948 8.089-4.675 6.548-6.234 6.933-1.558.385-8.571 0-8.571 0z"/><path d="m78.169 101.313s-12.4676.77-10.9092-8.8588c1.5585-9.6293 11.2989-10.7848 14.0262-10.3996s13.6365 4.2369 11.6884 12.3254c-1.9481 8.089-4.6754 6.548-6.2338 6.933-1.5585.385-8.5716 0-8.5716 0z"/></g></svg>