<svg width="250" height="250" viewBox="0 0 250 250" fill="none" xmlns="http://www.w3.org/2000/svg">
<path d="M183.015 22.009C176.509 28.4414 170.548 35.413 165.249 42.8468L163.573 42.3075C153.911 39.1876 143.898 37.2618 133.807 36.607C130.768 36.3759 119.43 36.3759 115.729 36.607C104.547 37.3388 95.975 38.9951 86.2346 42.3461C85.845 42.5001 85.4943 42.6157 85.1437 42.7312C79.6501 35.3359 73.5331 28.4029 66.7927 22.0476C99.1309 5.67779 136.963 3.71341 170.82 16.6166C174.444 17.9647 177.989 19.5439 181.457 21.2387L183.015 22.009Z" fill="#F00500"/>
<path d="M243.327 168.103C238.418 181.931 231.054 194.757 221.509 205.927C216.327 211.935 210.6 217.443 204.444 222.451C190.028 233.929 173.196 242.133 155.235 246.447C135.365 251.184 114.637 251.184 94.7665 246.447C76.7662 242.133 59.9738 233.929 45.558 222.451C39.402 217.443 33.6746 211.935 28.4927 205.927C1.02477 173.842 -7.31303 129.778 6.67421 90.0672C9.3236 82.7105 12.6353 75.6233 16.6094 68.8828C18.4406 65.8014 20.7004 62.3349 21.7914 60.9098C25.5317 76.8173 30.1291 90.799 31.8434 95.8448C31.7265 96.1144 31.5707 96.4226 31.4149 96.6922C22.3368 114.872 17.4276 132.398 16.2588 151.04C16.2588 151.271 16.2198 151.541 16.2198 151.772C15.9081 157.357 16.064 160.014 16.999 163.519C19.9212 174.497 28.9213 186.591 43.0255 198.454C66.1297 217.867 97.4549 231.887 121.183 233.505C145.923 235.161 182.43 220.871 206.742 199.995C210.561 196.644 214.145 193.1 217.496 189.326C219.911 186.553 223.496 181.776 223.223 181.776C223.145 181.776 223.223 181.699 223.379 181.622C223.496 181.545 223.613 181.43 223.535 181.353C223.496 181.314 223.574 181.199 223.691 181.16C223.808 181.122 223.885 181.045 223.846 180.968C223.808 180.891 223.847 180.814 224.002 180.775C224.119 180.736 224.158 180.621 224.119 180.544C224.08 180.467 224.119 180.39 224.197 180.39C224.275 180.39 224.353 180.274 224.353 180.197C224.353 180.12 224.431 180.005 224.509 180.005C224.587 180.005 224.665 179.928 224.665 179.851C224.782 179.542 224.976 179.234 225.171 178.965C225.756 178.079 228.093 173.957 228.405 173.264C230.626 168.295 232.028 163.866 232.691 159.437C233.002 157.318 233.197 153.428 233.041 152.503C233.002 152.349 233.003 152.08 232.964 151.656C232.886 150.886 232.847 149.73 232.769 148.575C232.691 146.841 232.535 144.415 232.418 143.221C230.743 125.734 226.223 111.444 217.652 96.307C217.301 95.7292 216.989 95.1515 216.794 94.6893C216.717 94.5737 216.678 94.4582 216.639 94.3811C217.846 90.7991 222.795 75.8159 226.73 58.6758L226.808 58.7528L227.392 59.5232C228.405 60.8713 231.093 64.877 232.301 66.8029C237.795 75.6618 242.081 85.1756 245.12 95.113C252.172 119.032 251.587 144.53 243.327 168.103Z" fill="#F00500"/>
<path d="M192.756 122.077C192.639 122.693 190.808 124.542 188.976 125.89C183.6 129.78 173.976 133.401 164.197 135.134C158.625 136.135 153.054 136.289 151.378 135.481C150.287 134.941 150.131 134.518 150.521 133.131C151.339 130.242 153.989 127.084 158.119 124.118C160.223 122.616 168.755 117.493 172.729 115.336C179.275 111.793 184.574 109.674 188.158 109.173C189.288 109.019 190.652 108.981 191.08 109.173C191.782 109.443 192.561 111.484 192.873 113.949C193.028 115.259 192.95 121.037 192.756 122.077Z" fill="black"/>
<path d="M100.961 134.824C100.728 135.286 99.5587 135.787 98.234 135.98C96.9093 136.172 92.8573 136.057 90.5586 135.787C82.2987 134.709 73.5324 132.205 67.1427 129.124C63.5582 127.39 60.9867 125.657 59.0776 123.77L57.9867 122.653L57.8698 121.189C57.675 118.647 57.714 114.641 58.0257 113.216C58.2205 112.022 58.649 110.867 59.2335 109.827C59.5452 109.441 59.5452 109.441 60.9478 109.441C62.6621 109.441 64.1037 109.711 66.4414 110.443C71.2336 111.907 78.3636 115.45 87.0521 120.611C94.221 124.848 96.9093 126.928 98.9743 129.778C100.377 131.55 101.312 134.054 100.961 134.824Z" fill="black"/>
<path d="M156.131 188.441C156.131 188.557 155.664 190.405 155.079 192.601C154.495 194.796 154.027 196.568 154.027 196.645C153.599 196.684 153.209 196.722 152.78 196.684H151.534L149.819 200.689C148.884 202.885 148.027 204.926 147.91 205.234L147.676 205.774L146.858 204.464L146.04 203.155V192.485L145.728 192.562C145.066 192.716 140.352 193.333 138.287 193.525C129.754 194.373 121.182 194.18 112.689 192.986C111.325 192.793 110.156 192.639 110.117 192.678C110.078 192.716 110.117 195.181 110.195 198.224L110.312 203.694L109.65 204.695C109.299 205.234 108.949 205.697 108.949 205.735C108.832 205.851 108.442 205.234 107.546 203.463C106.572 201.614 105.871 199.649 105.364 197.608L105.091 196.491L103.884 196.568L102.676 196.684L102.364 195.259C102.208 194.488 102.013 193.294 101.935 192.639L101.819 191.407L100.806 190.521C100.221 190.02 99.6367 189.519 99.5198 189.442C99.325 189.288 99.2471 189.019 99.2471 188.788V188.325L104.117 188.364L108.987 188.402L109.143 188.903L109.299 189.404L110.975 189.481C111.91 189.519 114.871 189.597 117.52 189.674L122.39 189.789L123.637 187.863L124.923 185.937H126.559L126.52 181.932L126.481 177.926L124.338 177.001C117.442 173.997 113.39 170.569 111.871 166.409C111.559 165.562 111.559 165.254 111.481 161.402C111.442 157.589 111.442 157.242 111.715 156.395C112.26 154.469 113.78 152.967 115.728 152.466C116.39 152.273 118.144 152.273 127.338 152.273L138.17 152.312L139.378 152.89C140.819 153.583 141.482 154.084 142.3 155.162C143.235 156.395 143.508 157.358 143.508 159.707C143.508 163.058 143.274 165.947 142.923 167.103C142.417 168.682 141.637 170.184 140.663 171.532C138.715 173.997 135.17 176.462 131.936 177.579L131.001 177.926L131.04 181.97L131.079 186.014L131.936 186.091L132.793 186.168L133.962 187.902L135.092 189.635H140.313C143.196 189.635 145.728 189.674 145.962 189.712C146.352 189.789 146.43 189.751 146.819 189.096L147.287 188.402H151.767C155.118 188.248 156.131 188.325 156.131 188.441Z" fill="black"/>
<path d="M135.559 199.497C134.818 199.92 134.312 200.113 134.195 200.036C134.078 199.997 133.533 199.535 132.948 199.111L131.896 198.264L130.805 199.42C128.429 201.962 128.351 202.077 127.649 202.116C126.558 202.231 126.325 202.039 125 200.074C124.299 199.073 123.753 198.226 123.753 198.226C123.753 198.226 123.247 198.149 122.662 198.11L121.571 197.994L121.065 199.034L120.558 200.074L119.662 199.805C118.961 199.574 118.26 199.304 117.597 198.996L116.428 198.418V196.223L126.792 196.261L137.156 196.3L137.195 197.34C137.234 198.572 137.273 198.534 135.559 199.497Z" fill="black"/>
<path d="M232.964 152.504C232.925 152.35 232.925 152.081 232.886 151.657C223.535 150.656 196.847 150.039 172.067 170.261C172.067 170.261 164.08 134.055 126.677 134.055C89.2734 134.055 75.4031 170.261 75.4031 170.261C54.4417 147.959 26.3894 149.577 16.2593 151.041C16.2593 151.272 16.2203 151.541 16.2203 151.773C15.9087 157.358 16.0645 160.015 16.9996 163.52C19.9217 174.498 28.9219 186.592 43.026 198.455C66.1302 217.868 97.4554 231.888 121.183 233.506C145.924 235.162 182.431 220.872 206.743 199.996C210.561 196.645 214.146 193.101 217.496 189.327C219.912 186.554 223.496 181.777 223.224 181.777C223.146 181.777 223.224 181.7 223.379 181.623C223.496 181.546 223.613 181.431 223.535 181.354C223.496 181.315 223.574 181.2 223.691 181.161C223.808 181.123 223.886 181.046 223.847 180.969C223.808 180.891 223.847 180.814 224.003 180.776C224.12 180.737 224.159 180.622 224.12 180.545C224.081 180.468 224.12 180.391 224.198 180.391C224.276 180.391 224.354 180.275 224.354 180.198C224.354 180.121 224.431 180.006 224.509 180.006C224.587 180.006 224.665 179.929 224.665 179.852C224.782 179.543 224.977 179.235 225.172 178.966C225.756 178.08 228.094 173.958 228.405 173.265C230.626 168.296 232.029 163.867 232.691 159.437C232.925 157.319 233.12 153.429 232.964 152.504ZM135.56 199.495C134.82 199.919 134.313 200.112 134.196 200.034C134.079 199.996 133.534 199.534 132.949 199.11L131.897 198.263L130.807 199.418C128.43 201.96 128.352 202.076 127.651 202.114C126.56 202.23 126.326 202.037 125.001 200.073C124.3 199.072 123.754 198.224 123.754 198.224C123.754 198.224 123.248 198.147 122.664 198.109L121.573 197.993L121.066 199.033L120.56 200.073L119.664 199.803C118.962 199.572 118.261 199.303 117.599 198.995L116.43 198.417V196.221L126.794 196.26L137.157 196.298L137.196 197.338C137.235 198.571 137.274 198.532 135.56 199.495ZM155.041 192.562C154.456 194.758 153.989 196.529 153.989 196.606C153.56 196.645 153.171 196.684 152.742 196.645H151.495L149.82 200.689C148.885 202.885 148.028 204.926 147.911 205.234L147.677 205.774L146.859 204.464L146.041 203.154V192.485L145.729 192.562C145.067 192.716 140.352 193.333 138.287 193.525C129.755 194.372 121.183 194.18 112.689 192.986C111.326 192.793 110.157 192.639 110.118 192.678C110.079 192.716 110.118 195.181 110.196 198.224L110.313 203.694L109.65 204.695C109.3 205.234 108.949 205.696 108.949 205.735C108.832 205.851 108.443 205.234 107.546 203.463C106.572 201.614 105.871 199.649 105.365 197.608L105.092 196.491L103.884 196.568L102.676 196.683L102.365 195.258C102.209 194.488 102.014 193.294 101.936 192.639L101.819 191.407L100.806 190.521C100.222 190.02 99.6373 189.519 99.5204 189.442C99.3256 189.288 99.2476 189.019 99.2476 188.787V188.325L104.118 188.364L108.988 188.402L109.144 188.903L109.3 189.404L110.975 189.481C111.91 189.519 114.871 189.596 117.521 189.673L122.391 189.789L123.638 187.863L124.923 185.937H126.56L126.521 181.931L126.482 177.926L124.339 177.001C117.443 173.997 113.391 170.569 111.871 166.409C111.56 165.562 111.56 165.254 111.482 161.402C111.443 157.589 111.443 157.242 111.715 156.395C112.261 154.469 113.78 152.967 115.728 152.466C116.391 152.273 118.144 152.273 127.339 152.273L138.17 152.312L139.378 152.89C140.82 153.583 141.482 154.084 142.3 155.162C143.235 156.395 143.508 157.358 143.508 159.707C143.508 163.058 143.274 165.947 142.924 167.102C142.417 168.682 141.638 170.184 140.664 171.532C138.716 173.997 135.17 176.462 131.936 177.579L131.001 177.926L131.04 181.97L131.079 186.014L131.936 186.091L132.794 186.168L133.962 187.902L135.092 189.635H140.313C143.196 189.635 145.729 189.673 145.963 189.712C146.352 189.789 146.43 189.75 146.82 189.096L147.287 188.402H151.768C155.236 188.402 156.249 188.441 156.249 188.556C156.132 188.518 155.625 190.405 155.041 192.562Z" fill="white"/>
<path d="M232.652 148.575C232.574 146.842 232.418 144.415 232.301 143.221C230.626 125.734 226.106 111.444 217.535 96.3072C217.184 95.7294 216.872 95.1516 216.677 94.6894C216.599 94.5739 216.56 94.4583 216.521 94.3813C217.729 90.7992 222.677 75.8161 226.613 58.6759C231.95 35.4116 235.34 8.21856 224.976 0.0529318C224.976 0.0529318 207.054 -1.25665 183.053 22.0077C176.547 28.44 170.586 35.4116 165.287 42.8454L163.612 42.3062C153.949 39.1863 143.936 37.2604 133.845 36.6057C130.806 36.3746 119.468 36.3746 115.767 36.6057C104.585 37.3375 96.0131 38.9937 86.2727 42.3447C85.8831 42.4988 85.5324 42.6143 85.1817 42.7299C79.6882 35.3346 73.5712 28.4015 66.8308 22.0462C41.8564 -1.33368 23.2717 0.0144124 23.2717 0.0144124C12.2845 8.44966 16.0248 36.8753 21.7132 60.9099C25.4535 76.8175 30.051 90.7992 31.7653 95.8449C31.6484 96.1146 31.4926 96.4227 31.3368 96.6923C22.2587 114.872 17.3495 132.398 16.1807 151.04C26.3497 149.576 54.3631 147.92 75.3634 170.26C75.3634 170.26 89.2338 134.054 126.637 134.054C164.04 134.054 172.027 170.26 172.027 170.26C196.807 150.039 223.496 150.693 232.846 151.656C232.807 150.886 232.73 149.73 232.652 148.575ZM39.1291 81.324C39.1291 81.324 24.5574 45.3105 28.2977 24.7424C28.9211 21.2759 30.09 18.233 31.9212 15.922C31.9212 15.922 48.4409 17.5397 75.0907 46.8127C75.0907 46.8127 70.0257 49.2393 63.2464 54.4006C63.2464 54.4006 63.2074 54.4391 63.1684 54.4391C55.8047 60.024 46.376 68.883 39.1291 81.324ZM100.961 134.824C100.727 135.286 99.5586 135.787 98.2339 135.98C96.9092 136.172 92.8572 136.057 90.5585 135.787C82.2986 134.709 73.5322 132.205 67.1425 129.124C63.5581 127.39 60.9866 125.657 59.0774 123.77L57.9865 122.653L57.8696 121.189C57.6748 118.647 57.7138 114.641 58.0255 113.216C58.2203 112.022 58.6489 110.867 59.2333 109.827C59.545 109.441 59.545 109.441 60.9476 109.441C62.6619 109.441 64.1035 109.711 66.4412 110.443C71.2335 111.907 78.3635 115.45 87.0519 120.611C94.2209 124.848 96.9092 126.928 98.9742 129.779C100.377 131.55 101.312 134.054 100.961 134.824ZM192.755 122.075C192.638 122.691 190.807 124.54 188.976 125.888C183.599 129.779 173.975 133.399 164.196 135.132C158.624 136.134 153.053 136.288 151.378 135.479C150.287 134.94 150.131 134.516 150.52 133.13C151.339 130.241 153.988 127.082 158.118 124.117C160.222 122.614 168.755 117.492 172.729 115.335C179.274 111.791 184.573 109.673 188.157 109.172C189.287 109.018 190.651 108.979 191.08 109.172C191.781 109.441 192.56 111.483 192.872 113.948C193.028 115.258 192.95 121.035 192.755 122.075ZM186.287 54.4006L186.209 54.362C179.664 49.2007 174.755 46.7742 174.755 46.7742C200.508 17.5012 216.444 15.8835 216.444 15.8835C218.197 18.233 219.327 21.2373 219.95 24.7039C223.574 45.272 209.508 81.324 209.508 81.324C203.625 70.9629 195.716 61.7958 186.287 54.4006Z" fill="#FFA409"/>
<path d="M219.989 24.7032C216.95 24.3181 202.573 24.241 186.287 54.3999L186.209 54.3614C179.664 49.2001 174.755 46.7735 174.755 46.7735C200.508 17.5005 216.444 15.8828 216.444 15.8828C218.236 18.2324 219.366 21.2367 219.989 24.7032Z" fill="#FF9300"/>
<path d="M209.547 81.3217C203.625 70.922 195.755 61.7935 186.287 54.3982C202.573 24.2393 216.911 24.3163 219.989 24.7015C223.613 45.3082 209.547 81.3217 209.547 81.3217Z" fill="#FF8300"/>
<path d="M220.564 24.8226C220.373 24.7828 220.181 24.743 219.99 24.7031L220.564 24.8226Z" fill="#FF8300"/>
<path d="M75.0909 46.7735C75.0909 46.7735 70.0259 49.2001 63.2466 54.3614C63.2466 54.3614 63.2076 54.3999 63.1687 54.3999C46.2983 24.2025 31.4539 24.3181 28.259 24.7032C28.8824 21.2367 30.0513 18.1938 31.8825 15.8828C31.9214 15.8828 48.4412 17.5005 75.0909 46.7735Z" fill="#FF9300"/>
<path d="M63.2069 54.3982C55.8042 60.0217 46.3755 68.8421 39.1287 81.3217C39.1287 81.3217 24.557 45.3082 28.2973 24.7015C31.4532 24.3163 46.3365 24.2393 63.2069 54.3982Z" fill="#FF8300"/>
<path d="M28.2979 24.7031C28.1031 24.743 27.8694 24.7828 27.6746 24.8226L28.2979 24.7031Z" fill="#FF8300"/>
<path d="M170.119 101.313C170.119 101.313 157.651 102.083 159.21 92.4542C160.768 82.8249 170.508 81.6694 173.236 82.0546C175.963 82.4398 186.872 86.2915 184.924 94.38C182.976 102.469 180.249 100.928 178.69 101.313C177.132 101.698 170.119 101.313 170.119 101.313Z" fill="white"/>
<path d="M78.169 101.313C78.169 101.313 65.7014 102.083 67.2598 92.4542C68.8183 82.8249 78.5587 81.6694 81.286 82.0546C84.0133 82.4398 94.9225 86.2915 92.9744 94.38C91.0263 102.469 88.299 100.928 86.7406 101.313C85.1821 101.698 78.169 101.313 78.169 101.313Z" fill="white"/>
</svg>
