<svg width="250" height="250" viewBox="0 0 250 250" fill="none" xmlns="http://www.w3.org/2000/svg">
<path d="M0.900391 65.6696L43.8718 170.822L115.373 248.186L44.5501 8.21289L0.900391 65.6696Z" fill="#9C2131"/>
<path d="M0.900391 65.6696L75.8458 114.491L44.5501 8.21289L0.900391 65.6696Z" fill="#576B98"/>
<path d="M71.0317 1.82812L95.7786 85.9468L111.25 91.9605L129.475 28.875L71.0317 1.82812Z" fill="#D71B2A"/>
<path d="M249.102 81.0602L214.727 133.259L135.998 102.093L158.344 26.9807L219.187 10.0801L249.102 81.0602Z" fill="#C41A24"/>
<path d="M198.564 158.055L142.534 242.174L106.438 121.617L198.564 158.055Z" fill="#C71C26"/>
<path d="M102.654 37.1265L111.25 91.9468L129.475 28.8613L102.654 37.1265Z" fill="#A71927"/>
<path d="M95.4396 85.9468L111.25 91.9605L102.654 37.14L71.0317 1.82812L95.4396 85.9468Z" fill="#61395F"/>
<path d="M75.8327 114.491L43.8587 170.822L0.900391 65.6699L75.8327 114.491Z" fill="#614268"/>
<path d="M158.344 26.9961L186.875 75.0619L135.998 102.094L158.344 26.9961Z" fill="#DA1728"/>
<path d="M219.201 10.0938L186.888 75.0604L158.358 26.9944L219.201 10.0938Z" fill="#E42735"/>
<path d="M214.727 133.259L186.875 75.0469L249.1 81.0603L214.727 133.259Z" fill="#A61D1E"/>
<path d="M144.595 168.187L142.534 242.159L106.438 121.617L144.595 168.187Z" fill="#D71B2A"/>
<path d="M142.534 242.174L144.595 168.201L198.564 158.055L142.534 242.174Z" fill="#A51C1C"/>
<path d="M115.711 248.172L43.8577 170.809L95.4258 181.325L115.711 248.172Z" fill="#721919"/>
</svg>
