<svg fill="none" height="250" viewBox="0 0 250 250" width="250" xmlns="http://www.w3.org/2000/svg" xmlns:xlink="http://www.w3.org/1999/xlink"><clipPath id="a"><path d="m0 0h250v250h-250z"/></clipPath><clipPath id="b"><path d="m0 0h250v249.988h-250z"/></clipPath><g clip-path="url(#a)"><g clip-path="url(#b)" clip-rule="evenodd" fill-rule="evenodd"><path d="m249.98 124.908c0 68.689-55.685 124.372-124.378 124.372s-124.37837-55.683-124.37837-124.372c0-68.69 55.68537-124.372478 124.37837-124.372478s124.378 55.682478 124.378 124.372478z" fill="#00176d"/><path d="m244.521 124.908c0 65.675-53.242 118.913-118.919 118.913-65.6781 0-118.91938-53.238-118.91938-118.913 0-65.674 53.24128-118.91386 118.91938-118.91386 65.677 0 118.919 53.23986 118.919 118.91386z" fill="#fff"/><path d="m238.003 124.908c0 62.074-50.324 112.395-112.401 112.395s-112.4003-50.321-112.4003-112.395c0-62.0747 50.3233-112.3955 112.4003-112.3955s112.401 50.3208 112.401 112.3955z" fill="#eca900"/><path d="m202.777 124.908c0 42.621-34.553 77.171-77.175 77.171-42.6227 0-77.1762-34.55-77.1762-77.171 0-42.6216 34.5535-77.1722 77.1762-77.1722 42.622 0 77.175 34.5506 77.175 77.1722z" fill="#fff"/><path d="m196.348 124.908c0 39.071-31.674 70.744-70.746 70.744-39.0731 0-70.7473-31.673-70.7473-70.744 0-39.0709 31.6742-70.7434 70.7473-70.7434 39.072 0 70.746 31.6725 70.746 70.7434z" fill="#00176d"/><path d="m118.054 157.353.261-25.049 33.482.349c6.853.062 12.388 5.671 12.388 12.511v.137c-.025 3.346-1.368 6.468-3.756 8.806-2.388 2.35-5.547 3.619-8.893 3.582zm34.166-66.0784c3.346.0373 6.48 1.3681 8.819 3.756 2.338 2.3879 3.606 5.5474 3.569 8.8924-.062 6.903-5.746 12.462-12.637 12.388h-.012l-33.483-.336.262-25.0487zm-4.142-28.0583c-5.037-1.8283-10.348-3.0596-15.87-3.6193-2.177-.2114-4.378-.3233-6.605-.3233-2.35 0-4.689.1243-6.977.3607-6.804.7213-13.284 2.475-19.3038 5.1116-6.4179 2.8108-12.2885 6.6042-17.4378 11.206l-1.505 1.4054c-12.587 11.9397-20.4229 28.8296-20.4229 47.5466 0 18.221 7.413 34.7 19.403 46.59.0125.012.0373.037.0622.05 5.3731 5.335 11.6791 9.738 18.6443 12.959 5.97 2.774 12.425 4.664 19.216 5.522 2.724.349 5.498.523 8.321.523 1.779 0 3.545-.075 5.286-.212 5.523-.435 10.834-1.554 15.883-3.271 25.859-8.805 44.466-33.306 44.466-62.161 0-28.3561-17.973-52.5091-43.16-61.6877z" fill="#fff"/><path d="m151.971 116.311h-.012l-33.482-.336.261-25.0486 33.482.3483c3.346.0373 6.48 1.3681 8.819 3.756 2.338 2.388 3.607 5.5473 3.569 8.8923-.062 6.903-5.746 12.462-12.637 12.388zm12.214 28.99c-.025 3.346-1.368 6.468-3.756 8.806-2.388 2.35-5.547 3.619-8.893 3.582l-33.482-.336.261-25.049 33.482.349c6.854.062 12.388 5.671 12.388 12.511zm16.767-41.216c.074-7.6986-2.849-14.9744-8.247-20.4841-5.398-5.5096-12.612-6.0942-20.323-6.1688l-4.428-.0498.124-14.1659c-5.037-1.8283-10.348-3.0596-15.87-3.6192l-.162 17.6235-13.582-.1368.162-17.4494c-6.804.7213-13.284 2.475-19.3037 5.1117l-.1119 11.3924-17.3259-.1865-1.505 1.4054-.1617 13.9296 18.8184.199-.6716 64.9089-18.8184-.199-.1866 15.298v.05h.0622l18.7562.199-.1119 12.76c5.9699 2.774 12.4249 4.664 19.2169 5.522l.161-18.842 13.619.137-.174 19.016c5.523-.435 10.834-1.554 15.883-3.271l.137-15.583 4.465.049c2.849.038 5.635-.348 8.284-1.107 4.552-1.306 8.731-1.243 12.201-4.651 5.51-5.385 8.583-12.599 8.657-20.31.087-8.109-3.209-15.472-8.557-20.77 5.46-5.186 8.905-12.487 8.993-20.608z" fill="#001d6d"/><g fill="#fff"><path d="m164.185 145.164v.137c-.024 3.346-1.368 6.468-3.756 8.806-2.388 2.35-5.547 3.619-8.893 3.582l-33.483-.336.262-25.049 33.482.349c6.854.062 12.388 5.671 12.388 12.511z"/><path d="m164.608 103.923c-.062 6.903-5.746 12.462-12.637 12.388h-.012l-33.482-.336.261-25.0486 33.482.3482c3.346.0373 6.48 1.3681 8.819 3.7561 2.338 2.3879 3.606 5.5473 3.569 8.8923z"/></g></g></g></svg>