<svg fill="none" height="250" viewBox="0 0 250 250" width="250" xmlns="http://www.w3.org/2000/svg" xmlns:xlink="http://www.w3.org/1999/xlink"><clipPath id="a"><path d="m0 0h250v250h-250z"/></clipPath><g clip-path="url(#a)"><path d="m125 250c69.036 0 125-55.964 125-125 0-69.0356-55.964-125-125-125-69.0356 0-125 55.9644-125 125 0 69.036 55.9644 125 125 125z" fill="#fff"/><g fill="#00a3ff"><path d="m73.7247 116.117-1.3995 2.147c-15.7841 24.214-12.2587 55.924 8.4756 76.24 12.1978 11.952 28.1842 17.929 44.1722 17.93 0 0 0 0-51.2483-96.317z"/><path d="m124.958 145.391-51.248-29.274c51.248 96.317 51.248 96.317 51.248 96.317 0-20.977 0-45.014 0-67.043z" opacity=".6"/><path d="m176.275 116.117 1.4 2.147c15.784 24.214 12.259 55.924-8.476 76.24-12.198 11.952-28.184 17.929-44.172 17.93 0 0 0 0 51.248-96.317z" opacity=".6"/><path d="m125.021 145.391 51.249-29.274c-51.248 96.317-51.249 96.317-51.249 96.317 0-20.977 0-45.014 0-67.043z" opacity=".2"/><path d="m125.041 80v50.488l44.144-25.227z" opacity=".2"/><path d="m125.027 80-44.1759 25.26 44.1759 25.228z" opacity=".6"/><path d="m125.027 37.5391-44.1759 67.7359 44.1759-25.3302z"/><path d="m125.041 79.9308 44.178 25.3312-44.178-67.7698z" opacity=".6"/></g></g></svg>