<svg fill="none" height="250" viewBox="0 0 250 250" width="250" xmlns="http://www.w3.org/2000/svg" xmlns:xlink="http://www.w3.org/1999/xlink"><clipPath id="a"><path d="m0 0h250v250h-250z"/></clipPath><g clip-path="url(#a)" fill="#cd0124"><path d="m148.333 130.832c0-1.666 0-2.5-1.666-3.333-5.834-4.167-12.5-8.333-18.334-12.5-.616-.412-1.341-.632-2.083-.632s-1.467.22-2.083.632l-18.334 13.333c-.765.391-1.405.989-1.847 1.725-.442.737-.668 1.583-.653 2.442-.039 1.797-.62 3.539-1.666 5-.412.617-.632 1.342-.632 2.083 0 .742.22 1.467.632 2.084 6.666 13.333 12.5 26.666 19.166 40 2.5 4.166 4.167 9.166 6.667 14.166.833-.833.833-1.666 1.667-2.5 7.5-16.666 14.166-33.333 21.666-50 .834-1.666.834-2.5-.833-3.333-.937-1.31-1.572-2.812-1.86-4.396-.289-1.585-.222-3.214.193-4.771z"/><path d="m120 109.167c-16.667-11.667-33.3333-23.3337-49.1667-34.167l-.8333.8333c.8333 1.6667.8333 2.5 1.6667 4.1667l17.5 37.5c1.6666 3.333 2.5 6.667 7.5 7.5 1.4402.13 2.8871-.16 4.1663-.833 5-4.167 10.834-7.5 15.834-11.667z"/><path d="m125 0c-24.723 0-48.8901 7.33112-69.4462 21.0663-20.5562 13.7352-36.5777 33.2575-46.03869 56.0983-9.4609492 22.8404-11.93637 47.9744-7.11321 72.2214 4.82315 24.248 16.7282 46.521 34.2098 64.002 17.4816 17.482 39.7544 29.387 64.0023 34.21 24.247 4.823 49.381 2.348 72.221-7.113 22.841-9.461 42.364-25.483 56.099-46.039s21.066-44.723 21.066-69.446c0-33.1521-13.17-64.9463-36.612-88.3883-23.442-23.4421-55.236-36.6117-88.388-36.6117zm67.5 72.5c-1.667 0-2.5.8333-3.333 2.5-6.667 16.6667-14.167 33.333-20.834 50v3.333c.666 1.409 1.02 2.945 1.038 4.503s-.3 3.102-.933 4.525c-.633 1.424-1.565 2.695-2.734 3.725-1.168 1.031-2.546 1.797-4.037 2.247-.834 0-1.667.834-2.5 2.5-7.5 16.667-15 34.167-21.667 50.834-.412.616-.632 1.341-.632 2.083s.22 1.467.632 2.083c1.557 2.138 2.251 4.784 1.942 7.41s-1.598 5.039-3.609 6.757c-1.747 1.726-4.059 2.761-6.51 2.914s-4.875-.586-6.823-2.081c-1.041-.71-1.931-1.619-2.62-2.674s-1.163-2.235-1.395-3.474c-.232-1.238-.218-2.51.042-3.743s.761-2.403 1.473-3.442c.409-.77.622-1.628.622-2.5s-.213-1.73-.622-2.5c-8.333-16.667-15.833-33.333-24.1666-50-.3793-.847-.9552-1.591-1.6799-2.171s-1.5772-.978-2.4868-1.162c-1.698-.283-3.3025-.972-4.6763-2.009-1.3739-1.037-2.4763-2.392-3.2132-3.947-.7369-1.556-1.0864-3.267-1.0185-4.987.0678-1.72.5509-3.398 1.408-4.891.4121-.616.632-1.341.632-2.083s-.2199-1.467-.632-2.083c-7.5-16.667-15-32.5003-23.3333-49.167 0-.8333-.8333-1.6667-3.3333-1.6667-2.4508-.3446-4.7055-1.5306-6.3779-3.355-1.6723-1.8244-2.6582-4.1735-2.7888-6.645.1541-2.315.9329-4.545 2.2535-6.4526 1.3207-1.9077 3.1338-3.4216 5.2465-4.3807 2.2428-.8688 4.7184-.928 7.0002-.1674s4.2268 2.2933 5.4998 4.3341c.8333 1.6666 1.6667 1.6666 4.1667 1.6666h105.8329c1.667 0 3.334 0 4.167-2.5 1.137-1.9629 2.933-3.4589 5.07-4.2219 2.136-.7629 4.474-.7434 6.597.0553 2.07.7837 3.874 2.1401 5.202 3.9108 1.328 1.7706 2.125 3.8826 2.298 6.0892.031 2.6064-.879 5.1367-2.563 7.1265-1.684 1.9899-4.028 3.306-6.604 3.7068z"/><path d="m125 103.331c.617.412 1.342.632 2.083.632.742 0 1.467-.22 2.084-.632 15.833-11.6669 31.666-22.5003 46.666-34.1669.834-.8334 1.667-.8334 1.667-1.6667v-.8333h-105c.9535.3498 1.8103.921 2.5 1.6666z"/><path d="m133.333 109.164c6.667 5 13.334 9.167 20 13.333 1.667.834 4.167 0 6.667 0 .833 0 1.667-1.666 1.667-2.5 5.833-13.333 11.666-27.4996 17.5-40.8329 0-.8334.833-1.6667.833-2.5h-.833c-14.167 10-30 20.8333-45.834 32.4999z"/></g></svg>