<svg fill="none" height="250" viewBox="0 0 250 250" width="250" xmlns="http://www.w3.org/2000/svg" xmlns:xlink="http://www.w3.org/1999/xlink"><clipPath id="a"><path d="m0 0h250v250h-250z"/></clipPath><g clip-path="url(#a)"><path d="m125 250c69.036 0 125-55.964 125-125 0-69.0365-55.964-125-125-125-69.0365 0-125 55.9635-125 125 0 69.036 55.9635 125 125 125z" fill="#00e9b1"/><path d="m206.355 82.5773c-.003-3.0352-1.643-5.6869-4.083-7.121l-.039-.0211-73.453-42.3392c-1.18-.6891-2.599-1.096-4.112-1.096s-2.932.4071-4.152 1.1173l.039-.0211-73.3951 42.3963c-2.4946 1.4376-4.1495 4.0858-4.1599 7.1215v84.756c.0163 3.015 1.6529 5.645 4.0829 7.064l.0389.021 73.4332 42.434c1.178.698 2.597 1.111 4.112 1.111 1.516 0 2.934-.413 4.151-1.132l-.038.021 73.452-42.434c2.469-1.441 4.106-4.07 4.122-7.083v-.002zm-22.984 71.5147c-.027 3.007-1.661 5.627-4.083 7.045l-.039.021-50.469 29.195c-1.178.698-2.597 1.111-4.112 1.111s-2.934-.413-4.15-1.132l.038.021-50.45-29.195c-2.4816-1.452-4.122-4.104-4.122-7.139 0-.001 0-.002 0-.003v-21.673l54.572 31.474c1.182.693 2.604 1.102 4.122 1.102 1.517 0 2.939-.409 4.161-1.123l-.039.021 20.077-11.586v-26.498l-18.729 10.884c-1.187.699-2.616 1.112-4.141 1.112s-2.953-.413-4.179-1.134l.039.022-55.8448-32.291v-8.4341c.0031-3.0352 1.6424-5.6869 4.0831-7.121l.0386-.0211 50.4121-29.1187c1.184-.689 2.605-1.0957 4.122-1.0957s2.938.4069 4.162 1.1171l-.04-.0212 50.412 29.0808c2.479 1.4549 4.118 4.1068 4.122 7.1415v21.7874l-22.984-13.296-31.55-18.1783c-1.17-.6926-2.578-1.1018-4.082-1.1018-.014 0-.028 0-.042.0002h.002c-.007 0-.015 0-.024 0-1.515 0-2.936.409-4.156 1.1227l.039-.0211-19.982 11.5678h-.133v26.5925l18.709-10.865c1.184-.703 2.609-1.119 4.132-1.119 1.522 0 2.948.416 4.169 1.14l-.038-.021 32.975 18.995v-.152l23.003 13.296z" fill="#000"/></g></svg>