<svg fill="none" height="250" viewBox="0 0 250 250" width="250" xmlns="http://www.w3.org/2000/svg" xmlns:xlink="http://www.w3.org/1999/xlink"><linearGradient id="a" gradientUnits="userSpaceOnUse" x1="37.7605" x2="213.033" y1="212.623" y2="37.3505"><stop offset="0" stop-color="#c08429"/><stop offset="1" stop-color="#fdea8c"/></linearGradient><path d="m125.4 248.95c68.456 0 123.95-55.494 123.95-123.95 0-68.4557-55.494-123.95-123.95-123.95-68.4557 0-123.95 55.4943-123.95 123.95 0 68.456 55.4943 123.95 123.95 123.95z" fill="url(#a)"/><g fill="#fff"><path d="m109.1 99.5h-46.3v-17.6h71.5l-10.1 10.95c-3.85 4.25-9.35 6.65-15.1 6.65z"/><path d="m109.1 150.6h-46.3v17.6h71.5l-10.1-10.95c-3.85-4.25-9.35-6.65-15.1-6.65z"/><path d="m91.3 116.25h-28.5v17.6h28.5z"/><path d="m186.85 82.15-42.9 42.9 42.9 42.9h-17.8c-4.2 0-8.2-1.65-11.15-4.6l-38.55-38.55 37.95-38c2.95-2.95 7-4.65 11.2-4.65z"/></g></svg>