<svg fill="none" height="250" viewBox="0 0 250 250" width="250" xmlns="http://www.w3.org/2000/svg" xmlns:xlink="http://www.w3.org/1999/xlink"><clipPath id="a"><path d="m0 0h250v250h-250z"/></clipPath><g clip-path="url(#a)"><path d="m125 250c69.036 0 125-55.964 125-125 0-69.0356-55.964-125-125-125-69.0356 0-125 55.9644-125 125 0 69.036 55.9644 125 125 125z" fill="#0ac18e"/><path d="m163.991 83.0267c-6.282-14.2449-20.717-17.2906-38.388-14.3401l-5.679-22.0178-13.388 3.4581 5.583 21.9544c-3.521.8883-7.138 1.6497-10.723 2.6649l-5.5837-21.8274-13.3883 3.4581 5.6789 22.0178c-2.887.8249-27.0304 7.0114-27.0304 7.0114l3.6802 14.3401s9.835-2.7601 9.7398-2.538c5.4569-1.4277 8.0267 1.3007 9.2323 3.8708l15.6091 60.342c.1903 1.745-.1269 4.728-3.8706 5.743.2221.127-9.7398 2.506-9.7398 2.506l1.4594 16.72s23.9211-6.123 27.0621-6.917l5.742 22.272 13.389-3.458-5.743-22.43c3.681-.857 7.266-1.745 10.755-2.665l5.711 22.303 13.388-3.458-5.742-22.24c20.622-5.013 35.184-18.02 32.202-37.912-1.904-11.993-15.007-21.828-25.889-22.938 6.695-5.933 10.089-14.5942 5.933-25.9203zm-6.44 52.5063c2.665 19.702-24.715 22.113-33.756 24.492l-7.868-29.473c9.073-2.379 37.119-12.373 41.624 4.981zm-16.498-40.1332c2.824 17.5122-20.59 19.5432-28.14 21.4782l-7.17-26.7447c7.582-1.8718 29.568-10.9454 35.31 5.2665z" fill="#fff"/></g></svg>