<svg fill="none" height="250" viewBox="0 0 250 250" width="250" xmlns="http://www.w3.org/2000/svg" xmlns:xlink="http://www.w3.org/1999/xlink"><clipPath id="a"><path d="m0 0h250v250h-250z"/></clipPath><clipPath id="b"><path d="m31.25 20.832h197.917v208.333h-197.917z"/></clipPath><g clip-path="url(#a)"><path d="m125 250c69.036 0 125-55.964 125-125 0-69.0356-55.964-125-125-125-69.0356 0-125 55.9644-125 125 0 69.036 55.9644 125 125 125z" fill="#fff"/><g clip-path="url(#b)" fill="#000"><path d="m76.1135 33.197 54.4235 61.9968 36.531-20.893s-44.074-57.3066-55.827-53.2559c-11.051 4.0933-35.1275 12.1521-35.1275 12.1521z"/><path d="m168.428 74.3029s8.288-14.1561 12.411-33.0451c0 0 41.355 16.1601 25.479 56.6244z"/><path d="m206.318 97.9229 3.465 42.4681 15.831-2.004s4.123-1.364 3.465-8.741c-.702-8.101-2.061-24.944-2.061-24.944s.701-4.05-8.947-5.372c-11.753-2.0893-11.753-1.4071-11.753-1.4071z"/><path d="m209.739 140.391-31.707 24.943 14.472 27.63s3.465 10.788 13.77-1.364c9.649-12.152 13.771-14.156 13.069-21.575-.614-7.42-2.719-24.944-9.604-29.634z"/><path d="m177.374 165.291-43.416-18.889-37.8907 74.832s-2.7628 5.372 6.8857 6.054c9.648 1.365 25.479 4.733 33.768-3.368 8.288-7.377 40.653-58.629 40.653-58.629z"/><path d="m133.958 145.762-4.122-49.887-93.718 6.097s-5.5257.683-4.824 10.788c.7017 13.474 2.0612 28.312 2.0612 28.312s-.7017 6.055 11.7092 6.737c12.4109.64 87.5346.64 88.8936-2.047z"/></g></g></svg>