<svg width="250" height="250" viewBox="0 0 250 250" fill="none" xmlns="http://www.w3.org/2000/svg">
<g clip-path="url(#clip0_31_1041)">
<path d="M125 250C194.036 250 250 194.036 250 125C250 55.9644 194.036 0 125 0C55.9644 0 0 55.9644 0 125C0 194.036 55.9644 250 125 250Z" fill="white"/>
<g clip-path="url(#clip1_31_1041)">
<path d="M76.1135 33.197L130.537 95.1938L167.068 74.3008C167.068 74.3008 122.994 16.9942 111.241 21.0449C100.19 25.1382 76.1135 33.197 76.1135 33.197Z" fill="black"/>
<path d="M168.428 74.3029C168.428 74.3029 176.716 60.1468 180.839 41.2578C180.839 41.2578 222.194 57.4179 206.318 97.8822L168.428 74.3029Z" fill="black"/>
<path d="M206.318 97.9229L209.783 140.391L225.614 138.387C225.614 138.387 229.737 137.023 229.079 129.646C228.377 121.545 227.018 104.702 227.018 104.702C227.018 104.702 227.719 100.652 218.071 99.33C206.318 97.2407 206.318 97.9229 206.318 97.9229Z" fill="black"/>
<path d="M209.739 140.391L178.032 165.334L192.504 192.964C192.504 192.964 195.969 203.752 206.274 191.6C215.923 179.448 220.045 177.444 219.343 170.025C218.729 162.605 216.624 145.081 209.739 140.391Z" fill="black"/>
<path d="M177.374 165.291L133.958 146.402L96.0673 221.234C96.0673 221.234 93.3045 226.606 102.953 227.288C112.601 228.653 128.432 232.021 136.721 223.92C145.009 216.543 177.374 165.291 177.374 165.291Z" fill="black"/>
<path d="M133.958 145.762L129.836 95.875L36.118 101.972C36.118 101.972 30.5923 102.655 31.294 112.76C31.9957 126.234 33.3552 141.072 33.3552 141.072C33.3552 141.072 32.6535 147.127 45.0644 147.809C57.4753 148.449 132.599 148.449 133.958 145.762Z" fill="black"/>
</g>
</g>
<defs>
<clipPath id="clip0_31_1041">
<rect width="250" height="250" fill="white"/>
</clipPath>
<clipPath id="clip1_31_1041">
<rect width="197.917" height="208.333" fill="white" transform="translate(31.25 20.832)"/>
</clipPath>
</defs>
</svg>
