<svg fill="none" height="250" viewBox="0 0 250 250" width="250" xmlns="http://www.w3.org/2000/svg" xmlns:xlink="http://www.w3.org/1999/xlink"><linearGradient id="a" gradientUnits="userSpaceOnUse" x1="63.1201" x2="191.269" y1="170.119" y2="76.6761"><stop offset="0" stop-color="#a726c1"/><stop offset=".88" stop-color="#803bdf"/><stop offset="1" stop-color="#7b3fe4"/></linearGradient><clipPath id="b"><path d="m0 0h250v250h-250z"/></clipPath><g clip-path="url(#b)"><path d="m125 250c69.036 0 125-55.964 125-125 0-69.0356-55.964-125-125-125-69.0356 0-125 55.9644-125 125 0 69.036 55.9644 125 125 125z" fill="#f5f0fd"/><path d="m161.151 151.974 35.365-20.421c1.873-1.082 3.032-3.093 3.032-5.257v-40.836c0-2.159-1.164-4.175-3.032-5.2571l-35.365-20.4207c-1.873-1.0821-4.195-1.077-6.069 0l-35.365 20.4207c-1.873 1.0821-3.031 3.0981-3.031 5.2571v72.981l-24.8002 14.316-24.7999-14.316v-28.638l24.7999-14.317 16.3582 9.443v-19.212l-13.3265-7.6912c-.9187-.5308-1.9701-.8115-3.0368-.8115s-2.1181.2807-3.0317.8115l-35.3651 20.4212c-1.8731 1.082-3.0317 3.093-3.0317 5.257v40.836c0 2.159 1.1637 4.175 3.0317 5.257l35.3651 20.421c1.868 1.077 4.1954 1.077 6.0685 0l35.3655-20.416c1.873-1.082 3.031-3.098 3.031-5.257v-72.9808l.449-.2552 24.351-14.0612 24.8 14.3164v28.6378l-24.8 14.317-16.332-9.432v19.211l13.3 7.681c1.874 1.077 4.196 1.077 6.069 0z" fill="url(#a)"/></g></svg>