<svg fill="none" height="250" viewBox="0 0 251 250" width="251" xmlns="http://www.w3.org/2000/svg" xmlns:xlink="http://www.w3.org/1999/xlink"><clipPath id="a"><path d="m.125 0h250v250h-250z"/></clipPath><g clip-path="url(#a)"><path d="m249.705 125.29c0 68.694-55.685 124.378-124.378 124.378-68.6937 0-124.377781-55.684-124.377781-124.378 0-68.693 55.684081-124.378287 124.377781-124.378287 68.693 0 124.378 55.685287 124.378 124.378287z" fill="#fff"/><path d="m203.232 92.9016c-7.027-4.9144-14.54-10.1537-21.892-15.3524-.162-.1219-.325-.2437-.528-.3656-.812-.6092-1.746-1.259-2.883-1.6246l-.082-.0406c-19.657-4.7519-39.64-9.6257-58.972-14.337-17.546-4.2646-35.051-8.5291-52.5966-12.7937-.4468-.1218-.8935-.2437-1.3809-.3655-1.584-.4468-3.4117-.9342-5.3612-.6905-.5686.0812-1.056.2843-1.5027.5686l-.4874.4062c-.7717.731-1.1778 1.6652-1.3809 2.1932l-.1218.3249v1.8683l.0812.2843c11.0878 31.0703 22.46 62.5878 33.426 93.0888 8.4479 23.476 17.2203 47.804 25.7903 71.686.528 1.624 2.031 2.68 3.899 2.843h.406c1.747 0 3.29-.853 4.062-2.234l32.167-46.91c7.838-11.413 15.677-22.866 23.516-34.279 3.208-4.671 6.417-9.382 9.625-14.053 5.28-7.717 10.723-15.677 16.125-23.4347l.284-.4062v-.4874c.122-1.4215.162-4.3458-2.193-5.8891zm-37.691 17.0984c-7.554 3.94-15.271 8.002-23.029 12.022 4.509-4.833 9.058-9.707 13.566-14.54 5.645-6.092 11.534-12.3872 17.302-18.5607l.122-.1218c.487-.6499 1.096-1.2591 1.746-1.9089.447-.4468.934-.8935 1.381-1.4215 3.005 2.0713 6.052 4.1833 8.976 6.2547 2.112 1.5027 4.264 3.0055 6.458 4.5082-8.936 4.549-17.871 9.22-26.522 13.768zm-19.414-1.949c-5.808 6.295-11.819 12.753-17.789 19.13-11.575-14.053-23.394-28.309-34.8477-42.0775-5.1987-6.2546-10.438-12.55-15.6367-18.8046l-.0406-.0407c-1.1778-1.3402-2.315-2.8024-3.4522-4.1833-.7311-.9341-1.5028-1.8277-2.2745-2.7618 4.7113 1.2184 9.4633 2.3557 14.134 3.4523 4.1021.9747 8.3666 1.9901 12.55 3.0461 23.5567 5.7267 47.1537 11.4534 70.7107 17.1801-7.839 8.3666-15.718 16.8551-23.354 25.0594zm-20.429 79.158c.447-4.264.934-8.651 1.34-12.956.366-3.452.731-6.986 1.097-10.357.568-5.401 1.178-11.006 1.665-16.489l.122-.975c.406-3.493.812-7.108 1.056-10.722.447-.244.934-.488 1.462-.691.609-.284 1.218-.528 1.828-.893 9.382-4.915 18.764-9.829 28.186-14.703 9.382-4.874 19.008-9.91 28.553-14.906-8.692 12.591-17.424 25.303-25.872 37.691-7.27 10.6-14.743 21.526-22.176 32.289-2.924 4.305-5.97 8.691-8.854 12.915-3.249 4.712-6.579 9.545-9.829 14.378.407-4.874.894-9.788 1.422-14.581zm-56.6172-118.3108c-.528-1.4621-1.0966-2.9649-1.584-4.3864 10.966 13.2404 22.0133 26.5621 32.7762 39.4772 5.564 6.702 11.128 13.363 16.693 20.105 1.096 1.259 2.193 2.599 3.249 3.899 1.381 1.665 2.762 3.411 4.264 5.077-.487 4.183-.893 8.407-1.34 12.468-.284 2.843-.568 5.687-.893 8.57v.041c-.122 1.827-.366 3.655-.569 5.442-.284 2.478-.934 8.083-.934 8.083l-.041.284c-.731 8.204-1.624 16.489-2.477 24.531-.366 3.331-.691 6.742-1.056 10.154-.203-.609-.447-1.219-.65-1.787-.609-1.625-1.218-3.331-1.787-4.996l-4.346-12.062c-13.7683-38.3-27.5367-76.559-41.3052-114.8998z" fill="#000"/></g></svg>