<svg fill="none" height="250" viewBox="0 0 250 250" width="250" xmlns="http://www.w3.org/2000/svg" xmlns:xlink="http://www.w3.org/1999/xlink"><clipPath id="a"><path d="m0 0h250v250h-250z"/></clipPath><g clip-path="url(#a)"><path d="m125 250c69.036 0 125-55.964 125-125 0-69.0356-55.964-125-125-125-69.0356 0-125 55.9644-125 125 0 69.036 55.9644 125 125 125z" fill="#c1ff3c"/><path clip-rule="evenodd" d="m203.4 116.298v-17.3996h-17.4v-34.9h-17.4v34.9h-34.8v87.0996h17.4v-69.7h17.4v69.7h34.8v-17.4h-17.4v-52.3zm-95.8 43.6c0 4.8-3.9 8.7-8.7 8.7h-34.8v-34.9h34.8c4.8 0 8.7 3.9 8.7 8.7v17.4zm-43.5-78.4996h26.1c4.8 0 8.7 3.9 8.7 8.7v17.3996c0 4.8-3.9 8.7-8.7 8.7h-26.1v-34.8996zm46.5 41.4996v-2.4c3.6-3.2 5.8-7.8 5.8-13v-21.0996c0-12.4-10.1-22.5-22.5-22.5h-47.2v121.9996h55.2c12.8 0 23.2-10.4 23.2-23.2v-20.3c0-9-5.9-16.9-14.5-19.5z" fill="#000" fill-rule="evenodd"/></g></svg>