<svg fill="none" height="250" viewBox="0 0 250 250" width="250" xmlns="http://www.w3.org/2000/svg"><circle cx="125" cy="125" fill="#cf1011" r="125"/><path clip-rule="evenodd" d="m125 54.4245c-38.9763 0-70.5728 31.5965-70.5728 70.5725 0 38.977 31.5965 70.573 70.5728 70.573 38.976 0 70.573-31.596 70.573-70.573 0-38.976-31.597-70.5725-70.573-70.5725zm-77.8645 70.5725c0-43.003 34.8612-77.8642 77.8645-77.8642 43.003 0 77.865 34.8612 77.865 77.8642 0 43.004-34.862 77.865-77.865 77.865-43.0033 0-77.8645-34.861-77.8645-77.865z" fill="#fff" fill-rule="evenodd"/><path d="m78.125 91.7969-19.5312-19.5313-11.7188-13.6718 23.4375-23.4376h56.6405v39.0626z" fill="#cf1011"/><g fill="#fff"><path clip-rule="evenodd" d="m82.0312 82.5521c8.9171 0 16.1459-7.2288 16.1459-16.1459 0-8.917-7.2288-16.1458-16.1459-16.1458-8.917 0-16.1458 7.2288-16.1458 16.1458 0 8.9171 7.2288 16.1459 16.1458 16.1459zm0 7.2917c12.9442 0 23.4378-10.4934 23.4378-23.4376 0-12.9441-10.4936-23.4374-23.4378-23.4374-12.9441 0-23.4374 10.4933-23.4374 23.4374 0 12.9442 10.4933 23.4376 23.4374 23.4376z" fill-rule="evenodd"/><path clip-rule="evenodd" d="m82.0312 82.5521c8.9171 0 16.1459-7.2288 16.1459-16.1459 0-8.917-7.2288-16.1458-16.1459-16.1458-8.917 0-16.1458 7.2288-16.1458 16.1458 0 8.9171 7.2288 16.1459 16.1458 16.1459zm0 7.2917c12.9442 0 23.4378-10.4934 23.4378-23.4376 0-12.9441-10.4936-23.4374-23.4378-23.4374-12.9441 0-23.4374 10.4933-23.4374 23.4374 0 12.9442 10.4933 23.4376 23.4374 23.4376z" fill-rule="evenodd"/><circle cx="125" cy="125" r="27.3438"/></g></svg>