<svg fill="none" height="250" viewBox="0 0 250 250" width="250" xmlns="http://www.w3.org/2000/svg" xmlns:xlink="http://www.w3.org/1999/xlink"><linearGradient id="a" gradientUnits="userSpaceOnUse" x1="61.3196" x2="188.197" y1="187.054" y2="60.1792"><stop offset="0" stop-color="#00aee9"/><stop offset="1" stop-color="#69fabd"/></linearGradient><clipPath id="b"><path d="m0 0h250v250h-250z"/></clipPath><g clip-path="url(#b)"><circle cx="125" cy="125" fill="#fff" r="125"/><path d="m166.457 52.0859c-8.329-.0064-16.321 3.3014-22.221 9.1975-5.899 5.8961-9.225 13.8987-9.246 22.251v34.8686c-3.241.219-6.555.358-9.99.358s-6.732.138-9.989.333v-35.5596c-.133-8.2799-3.506-16.1757-9.392-21.9841-5.8864-5.8084-13.8137-9.0637-22.072-9.0637-8.2582 0-16.1855 3.2553-22.0717 9.0637-5.8861 5.8084-9.2593 13.7042-9.3918 21.9841v83.3376c.1325 8.279 3.5057 16.175 9.3918 21.984 5.8862 5.808 13.8135 9.063 22.0717 9.063 8.2583 0 16.1856-3.255 22.072-9.063 5.886-5.809 9.259-13.705 9.392-21.984v-34.869c3.24-.22 6.554-.358 9.989-.358s6.733-.138 9.99-.333v35.56c.132 8.279 3.505 16.175 9.392 21.984 5.886 5.808 13.813 9.063 22.071 9.063 8.259 0 16.186-3.255 22.072-9.063 5.886-5.809 9.259-13.705 9.392-21.984v-83.3376c-.022-8.3509-3.346-16.3522-9.244-22.2481s-13.888-9.2047-22.216-9.2004zm-82.914 12.8849c4.9158-.0022 9.6316 1.9511 13.1129 5.4313 3.4811 3.4802 5.4441 8.203 5.4561 13.1323v36.9236c-9.205 1.338-18.1945 3.887-26.7357 7.58-3.7006 1.629-7.1843 3.714-10.3704 6.207v-50.7106c.0129-4.9236 1.9708-9.6416 5.4451-13.1208 3.4743-3.4793 8.1818-5.4364 13.092-5.4428zm18.569 101.9012c0 4.938-1.956 9.674-5.4384 13.166-3.4825 3.492-8.2057 5.454-13.1306 5.454s-9.6481-1.962-13.1306-5.454c-3.4824-3.492-5.4389-8.228-5.4389-13.166v-8.36c0-7.385 5.8334-14.38 15.6123-18.734 6.8904-2.981 14.1202-5.101 21.5262-6.313zm64.345 18.563c-4.915.002-9.631-1.951-13.113-5.431-3.481-3.48-5.443-8.203-5.456-13.132v-36.925c9.205-1.337 18.195-3.886 26.736-7.579 3.701-1.629 7.184-3.714 10.37-6.207v50.711c-.012 4.923-1.97 9.641-5.445 13.12-3.474 3.48-8.181 5.437-13.092 5.443zm2.958-74.855c-6.891 2.98-14.121 5.1-21.527 6.312v-33.3576c0-4.9385 1.956-9.6747 5.439-13.1667 3.482-3.492 8.205-5.4538 13.13-5.4538s9.648 1.9618 13.131 5.4538c3.482 3.492 5.439 8.2282 5.439 13.1667v8.3597c0 7.3523-5.834 14.3469-15.612 18.6859z" fill="url(#a)"/></g></svg>