<svg fill="none" height="250" viewBox="0 0 250 250" width="250" xmlns="http://www.w3.org/2000/svg" xmlns:xlink="http://www.w3.org/1999/xlink"><clipPath id="a"><path d="m-.000244 0h250v250h-250z"/></clipPath><mask id="b" height="250" maskUnits="userSpaceOnUse" width="251" x="-1" y="0"><path d="m250 0h-250.00024414v250h250.00024414z" fill="#fff"/></mask><g clip-path="url(#a)"><g mask="url(#b)"><path d="m250 125c0-69.0356-55.965-125-125-125-69.0359 0-125.00024414 55.9644-125.00024414 125 0 69.035 55.96434414 125 125.00024414 125 69.035 0 125-55.965 125-125z" fill="#000"/><path d="m234.375 125c0-60.4061-48.969-109.375-109.375-109.375-60.4064 0-109.3752 48.9689-109.3752 109.375 0 60.406 48.9688 109.375 109.3752 109.375 60.406 0 109.375-48.969 109.375-109.375z" fill="#3fa3ff"/><g fill="#000"><path d="m147.997 137.217c0-12.2-7.321-16.382-21.96-18.125-10.458-1.394-12.549-4.183-12.549-9.064 0-4.88 3.486-8.017 10.457-8.017 6.275 0 9.761 2.092 11.502 7.32.35 1.047 1.397 1.743 2.442 1.743h5.576c1.395 0 2.441-1.046 2.441-2.439v-.349c-1.395-7.669-7.669-13.5943-15.686-14.2911v-8.3665c0-1.3945-1.046-2.4398-2.789-2.789h-5.229c-1.394 0-2.44 1.0461-2.789 2.789v8.0172c-10.457 1.3945-17.079 8.3654-17.079 17.0804 0 11.503 6.971 16.034 21.611 17.778 9.761 1.742 12.899 3.833 12.899 9.411 0 5.579-4.882 9.411-11.504 9.411-9.064 0-12.201-3.834-13.247-9.062-.348-1.394-1.394-2.092-2.44-2.092h-5.926c-1.393 0-2.439 1.045-2.439 2.44v.349c1.393 8.714 6.971 14.989 18.474 16.733v8.365c0 1.393 1.046 2.44 2.788 2.788h5.229c1.395 0 2.441-1.046 2.79-2.788v-8.365c10.457-1.744 17.428-9.065 17.428-18.477z"/><path d="m107.207 173.801c-27.1891-9.758-41.1326-40.085-31.0234-66.926 5.2288-14.6406 16.7319-25.7945 31.0234-31.0235 1.394-.6969 2.091-1.7426 2.091-3.486v-4.8799c0-1.3946-.697-2.4402-2.091-2.7883-.349 0-1.046 0-1.395.348-33.1144 10.4573-51.2408 45.6637-40.7834 78.7787 6.2744 19.521 21.2635 34.51 40.7834 40.784 1.395.697 2.789 0 3.137-1.394.349-.349.349-.698.349-1.394v-4.881c0-1.046-1.046-2.44-2.091-3.138zm36.949-108.7557c-1.394-.6969-2.789.0001-3.136 1.3946-.35.3489-.35.6969-.35 1.3946v4.8798c0 1.3946 1.046 2.7883 2.092 3.4861 27.189 9.7597 41.133 40.0866 31.023 66.9276-5.229 14.64-16.732 25.793-31.023 31.023-1.395.697-2.092 1.742-2.092 3.485v4.88c0 1.395.697 2.442 2.092 2.789.349 0 1.045 0 1.394-.347 33.115-10.459 51.241-45.665 40.785-78.78-6.275-19.8694-21.613-34.8584-40.785-41.1327z"/></g></g></g></svg>