<svg fill="none" height="242" viewBox="0 0 250 242" width="250" xmlns="http://www.w3.org/2000/svg" xmlns:xlink="http://www.w3.org/1999/xlink"><clipPath id="a"><path d="m62 41h127v160.421h-127z"/></clipPath><rect fill="#075a5a" height="241.935" rx="120.968" width="250"/><g clip-path="url(#a)" fill="#fff"><path d="m148.286 41.3871-24.761 14.0093c-8.951 5.0638-9.747 17.6546-1.506 23.8057l25.282 18.8703c5.149 3.8436 4.653 11.7106-.937 14.8776l-22.815 12.919c-8.955 5.072-9.738 17.677-1.479 23.818l24.07 17.899c2.498 1.856 3.969 4.785 3.969 7.898v.737c0 2.265 2.447 3.687 4.415 2.565l24.892-14.188c8.954-5.104 9.688-17.735 1.385-23.843l-25.264-18.58c-5.187-3.815-4.732-11.705.858-14.898l23.066-13.1766c8.941-5.1077 9.673-17.7237 1.382-23.8304l-24.145-17.7837c-2.518-1.855-4.005-4.7968-4.005-7.9248v-.6044c0-2.2616-2.439-3.6836-4.407-2.57z"/><path d="m93.9898 63.6304-24.7614 14.0093c-8.9503 5.0638-9.7466 17.6546-1.5056 23.8053l25.2818 18.871c5.1494 3.843 4.6536 11.71-.9378 14.877l-22.8138 12.919c-8.9557 5.072-9.7389 17.677-1.4798 23.818l24.0703 17.899c2.4974 1.857 3.9694 4.786 3.9694 7.898v.737c0 2.266 2.4465 3.687 4.4151 2.565l24.891-14.187c8.955-5.104 9.689-17.736 1.386-23.843l-25.264-18.581c-5.1872-3.815-4.7326-11.704.858-14.898l23.066-13.176c8.941-5.108 9.672-17.7241 1.381-23.8307l-24.144-17.7837c-2.5186-1.8551-4.0054-4.7968-4.0054-7.9249v-.6043c0-2.2616-2.4384-3.6837-4.4068-2.57z"/></g></svg>