<svg fill="none" height="250" viewBox="0 0 250 250" width="250" xmlns="http://www.w3.org/2000/svg" xmlns:xlink="http://www.w3.org/1999/xlink"><linearGradient id="a" gradientUnits="userSpaceOnUse" x1="54.0268" x2="238.727" y1="192.019" y2="28.491"><stop offset="0" stop-color="#eb1357"/><stop offset="1" stop-color="#db23c8"/></linearGradient><clipPath id="b"><path d="m0 0h250v250h-250z"/></clipPath><g clip-path="url(#b)"><path d="m125 250c69.036 0 125-55.964 125-125 0-69.0356-55.964-125-125-125-69.0356 0-125 55.9644-125 125 0 69.036 55.9644 125 125 125z" fill="url(#a)"/><path d="m203.034 95.9525-35.484 22.6895c27.991-22.1398 27.991-45.9941 27.991-45.9941l-37.142 36.2541c24.998-41.003 15.847-57.8879 15.847-57.8879l-29.584 49.4019c-6.49-1.7703-13.179-2.6647-19.896-2.6606h-.474c-6.717-.0041-13.405.8903-19.895 2.6606l-29.5849-49.4019s-10.3568 15.4998 14.6418 56.5029l-35.8722-34.8691s-3.6604 21.194 26.2473 44.6751c-.1507.241-33.8264-21.3705-33.8264-21.3705s-.8614 20.3585 28.8095 36.6945v.527c0 22.14 22.1133 45.005 49.5229 45.247h.474c27.367-.242 49.523-23.107 49.523-45.247v-.527c29.564-16.336 28.702-36.6945 28.702-36.6945zm-95.257 59.4715s-8.7846.571-13.8446-4.595c-5.06-5.167-4.4356-14.115-4.4356-14.115s8.7851-.594 13.8452 4.595c5.06 5.188 4.435 14.115 4.435 14.115zm47.371-4.595c-5.06 5.166-13.824 4.595-13.824 4.595s-.56-8.948 4.5-14.115 13.824-4.595 13.824-4.595.495 8.948-4.587 14.115z" fill="#000"/></g></svg>