<svg fill="none" height="250" viewBox="0 0 250 250" width="250" xmlns="http://www.w3.org/2000/svg" xmlns:xlink="http://www.w3.org/1999/xlink"><linearGradient id="a" gradientUnits="userSpaceOnUse" x1="130.102" x2="130.102" y1="207.938" y2="73.3348"><stop offset="0" stop-color="#0000b4"/><stop offset=".00909091" stop-color="#0000b4"/><stop offset="1" stop-color="#000050"/></linearGradient><clipPath id="b"><path d="m0 0h250v250h-250z"/></clipPath><g clip-path="url(#b)"><path d="m125 250c69.036 0 125-55.964 125-125 0-69.0356-55.964-125-125-125-69.0356 0-125 55.9644-125 125 0 69.036 55.9644 125 125 125z" fill="#ffffa0"/><path d="m147.832 78.699c-1.403-.1276-2.807-.2551-4.21-.2551-10.459 0-20.79 4.2092-29.974 12.5-4.337 3.8265-8.291 8.4184-11.99 13.7751-.638-19.8976-1.7856-41.071-3.6988-62.6272h-27.0409c5.7398 60.8422 5.1021 113.9032 4.0817 160.4592v.255h26.786c.765-46.684 12.5-76.53 29.719-91.964 4.592-4.209 9.184-5.995 13.393-5.612 21.173 2.296 17.857 68.367 16.199 97.576h26.786c1.148-21.556 2.423-47.831-.638-70.791-4.464-33.0354-17.73-50.8925-39.413-53.316z" fill="url(#a)"/></g></svg>