<svg fill="none" height="250" viewBox="0 0 250 250" width="250" xmlns="http://www.w3.org/2000/svg"><path d="m124.801 4c53.463 0 96.803 43.3402 96.803 96.803 0 50.255-38.292 91.562-87.289 96.34.284-3.471.222-6.963-.173-10.427-2.814-24.588-22.195-43.997-46.7762-46.839v-128.2365l-.0484-.1106c11.5265-4.84707 24.1936-7.5299 37.4836-7.5299z" fill="#dedede"/><path d="m75.2585 139.863v-122.1377l-.0484-.076c3.8859-2.3233 7.9309-4.37 12.1004-6.1194l.0484.1106v128.2365c24.5811 2.842 43.9691 22.251 46.7771 46.839.401 3.464.456 6.956.172 10.427-3.125.304-6.299.457-9.507.463-33.6046 0-63.2125-17.12-80.568-43.118 8.415-8.16 19.3054-13.304 30.9563-14.618h.0692z" fill="#152e51"/><path d="m134.315 197.143c-2.019 24.823-21.338 45.581-47.0184 48.519-29.2138 3.34-55.6065-17.632-58.9462-46.846-1.9568-17.092 4.4115-33.224 15.8896-44.328 17.3554 25.998 46.9633 43.118 80.568 43.118 3.208-.006 6.375-.159 9.507-.463z" fill="#1e4480"/><path d="m75.2585 17.7253v122.1377h-.0692c-11.6509 1.314-22.5344 6.452-30.9563 14.618-10.2542-15.364-16.2283-33.819-16.2283-53.678 0-35.333 18.9319-66.2547 47.2123-83.1537z" fill="#dedede"/></svg>