<svg fill="none" height="250" viewBox="0 0 250 250" width="250" xmlns="http://www.w3.org/2000/svg" xmlns:xlink="http://www.w3.org/1999/xlink"><linearGradient id="a" gradientUnits="userSpaceOnUse" x1="60.6301" x2="188.92" y1="191.833" y2="63.5424"><stop offset="0" stop-color="#cb4ee8"/><stop offset="1" stop-color="#10f4b1"/></linearGradient><clipPath id="b"><path d="m0 0h250v250h-250z"/></clipPath><g clip-path="url(#b)"><path d="m176.575 93.25c-.875.875-2.05 1.375-3.275 1.375h-116.125c-4.1 0-6.175-5-3.325-7.975l19.05-19.725c.875-.9 2.075-1.425 3.325-1.425h116.55c4.125 0 6.2 5.05 3.275 8.025zm0 88.15c-.875.85-2.05 1.35-3.275 1.35h-116.125c-4.1 0-6.175-4.875-3.325-7.775l19.05-19.25c.875-.875 2.075-1.375 3.325-1.375h116.55c4.125 0 6.2 4.925 3.275 7.825zm-3.275-71.475c1.225 0 2.4.475 3.275 1.35l19.475 19.25c2.925 2.875.85 7.825-3.275 7.825h-116.55c-1.25 0-2.45-.5-3.325-1.375l-19.05-19.25c-2.875-2.9-.8-7.775 3.325-7.775z" fill="#00ffad"/><path d="m125 0c69.025 0 125 55.975 125 125s-55.975 125-125 125-125-55.975-125-125 55.975-125 125-125z" fill="#000"/><path clip-rule="evenodd" d="m57.8002 113.075h115.6748c1.45 0 2.825.575 3.825 1.6l18.3 18.425c3.375 3.4.975 9.2-3.825 9.2h-115.6748c-1.45 0-2.825-.575-3.825-1.6l-18.3-18.425c-3.4-3.4-.975-9.2 3.825-9.2zm-3.825-24.425 18.3-18.425c1.025-1.025 2.4-1.6 3.825-1.6h115.6498c4.8 0 7.225 5.8 3.825 9.2l-18.275 18.425c-1.025 1.025-2.4 1.6-3.825 1.6h-115.6748c-4.8 0-7.225-5.8-3.825-9.2zm141.5998 78.075-18.3 18.425c-1.025 1.025-2.4 1.6-3.825 1.6h-115.6498c-4.8 0-7.225-5.8-3.825-9.2l18.3-18.425c1.025-1.025 2.4-1.6 3.825-1.6h115.6498c4.8 0 7.225 5.8 3.825 9.2z" fill="url(#a)" fill-rule="evenodd"/></g></svg>