<svg fill="none" height="250" viewBox="0 0 251 250" width="251" xmlns="http://www.w3.org/2000/svg" xmlns:xlink="http://www.w3.org/1999/xlink"><clipPath id="a"><path d="m.207031 0h250v250h-250z"/></clipPath><clipPath id="b"><path d="m73.123 41.6667h114.583v166.667h-114.583z"/></clipPath><g clip-path="url(#a)"><path clip-rule="evenodd" d="m125.207 0c68.945 0 125 55.957 125 124.902 0 68.946-56.055 124.903-125 124.903-68.9453 0-124.999969-55.957-124.999969-124.903 0-68.945 56.054669-124.902 124.999969-124.902z" fill="#00a3ff" fill-rule="evenodd"/><g clip-path="url(#b)" fill="#fff"><path d="m83.5992 116.667-1.2321 1.923c-14.1689 23.077-11.0887 53.205 8.0085 72.436 10.4724 11.538 25.2574 17.307 40.0424 17.307 0 0 0 0-46.8188-91.666z"/><path d="m130.421 144.231-46.8194-28.205c46.8194 92.307 46.8194 92.307 46.8194 92.307 0-19.872 0-42.948 0-64.102z" opacity=".6"/><path d="m177.235 116.667 1.232 1.923c14.169 23.077 11.089 53.205-8.008 72.436-11.089 11.538-25.258 17.307-40.043 17.307 0 0 0 0 46.819-91.666z" opacity=".6"/><path d="m130.416 144.231 46.819-28.205c-46.819 92.307-46.819 92.307-46.819 92.307 0-19.872 0-42.948 0-64.102z" opacity=".2"/><path d="m130.416 82.0513v48.0767l40.659-23.718z" opacity=".2"/><path d="m130.424 82.0513-40.6584 24.3587 40.6584 23.718z" opacity=".6"/><path d="m130.424 41.6667-40.6584 64.7433 40.6584-24.3587z"/><path d="m130.416 82.0513 40.659 24.3587-40.659-64.7433z" opacity=".6"/></g></g></svg>