<svg width="250" height="250" viewBox="0 0 250 250" fill="none" xmlns="http://www.w3.org/2000/svg">
<rect width="250" height="250" rx="125" fill="white"/>
<g clip-path="url(#clip0_44_10669)">
<path fill-rule="evenodd" clip-rule="evenodd" d="M168.215 138.431C136.88 138.431 111.485 113.043 111.485 81.7504C111.485 65.3664 98.2686 52.082 81.7846 52.082C65.4488 52.082 52.0833 65.3664 52.0833 81.7504C52.0833 98.1348 65.3001 111.419 81.7846 111.419H81.9328C113.119 111.419 138.366 136.807 138.514 168.099V168.247C138.514 184.631 151.731 197.915 168.215 197.915C184.7 197.915 197.917 184.631 197.917 168.247C197.768 151.715 184.551 138.431 168.215 138.431Z" fill="#31C1BF"/>
<path fill-rule="evenodd" clip-rule="evenodd" d="M81.9331 138.434C65.5972 138.434 52.2317 151.718 52.2317 168.102C52.2317 184.487 65.4485 197.771 81.9331 197.771C98.417 197.771 111.634 184.487 111.634 168.102C111.486 151.718 98.2689 138.434 81.9331 138.434Z" fill="#31C1BF"/>
<path fill-rule="evenodd" clip-rule="evenodd" d="M168.216 52.082C184.62 52.082 197.917 65.3648 197.917 81.7504C197.917 98.1359 184.62 111.419 168.216 111.419C151.812 111.419 138.514 98.1359 138.514 81.7504C138.514 65.3648 151.812 52.082 168.216 52.082Z" fill="#31C1BF"/>
</g>
<defs>
<clipPath id="clip0_44_10669">
<rect width="145.833" height="145.833" fill="white" transform="translate(52.0833 52.082)"/>
</clipPath>
</defs>
</svg>
