<svg fill="none" height="250" viewBox="0 0 250 250" width="250" xmlns="http://www.w3.org/2000/svg" xmlns:xlink="http://www.w3.org/1999/xlink"><clipPath id="a"><path d="m52.0833 52.082h145.833v145.833h-145.833z"/></clipPath><rect fill="#fff" height="250" rx="125" width="250"/><g clip-path="url(#a)" clip-rule="evenodd" fill="#31c1bf" fill-rule="evenodd"><path d="m168.215 138.431c-31.335 0-56.73-25.388-56.73-56.6806 0-16.384-13.2164-29.6684-29.7004-29.6684-16.3358 0-29.7013 13.2844-29.7013 29.6684 0 16.3844 13.2168 29.6686 29.7013 29.6686h.1482c31.1862 0 56.4332 25.388 56.5812 56.68v.148c0 16.384 13.217 29.668 29.701 29.668 16.485 0 29.702-13.284 29.702-29.668-.149-16.532-13.366-29.816-29.702-29.816z"/><path d="m81.9331 138.434c-16.3359 0-29.7014 13.284-29.7014 29.668 0 16.385 13.2168 29.669 29.7014 29.669 16.4839 0 29.7009-13.284 29.7009-29.669-.148-16.384-13.3651-29.668-29.7009-29.668z"/><path d="m168.216 52.082c16.404 0 29.701 13.2828 29.701 29.6684 0 16.3855-13.297 29.6686-29.701 29.6686s-29.702-13.2831-29.702-29.6686c0-16.3856 13.298-29.6684 29.702-29.6684z"/></g></svg>