<svg fill="none" height="250" viewBox="0 0 250 250" width="250" xmlns="http://www.w3.org/2000/svg" xmlns:xlink="http://www.w3.org/1999/xlink"><clipPath id="a"><path d="m0 0h250v250h-250z"/></clipPath><g clip-path="url(#a)"><path d="m125 250c69.036 0 125-55.964 125-125 0-69.0356-55.964-125-125-125-69.0356 0-125 55.9644-125 125 0 69.036 55.9644 125 125 125z" fill="#fff"/><path d="m124.921 83.882v-59.2101l62.579 92.2651zm0 85.526v59.21l62.579-92.265zm0-37.227v-37.7086l61.135 32.2526z" fill="#0c8312"/><path d="m124.921 159.781v-27.6l61.135-5.455z" fill="#034c03"/><path d="m124.919 83.8815v-59.2101l-62.419 92.2646zm0 85.5255v59.21l-62.419-92.265zm0-37.227v-37.7081l-60.9749 32.2531z" fill="#3cb93c"/><path d="m124.922 159.781v-27.6l-60.9755-5.455z" fill="#166816"/></g></svg>