<svg width="250" height="250" viewBox="0 0 250 250" fill="none" xmlns="http://www.w3.org/2000/svg">
<g clip-path="url(#clip0_9_707)">
<path d="M125 250C194.036 250 250 194.036 250 125C250 55.9644 194.036 0 125 0C55.9644 0 0 55.9644 0 125C0 194.036 55.9644 250 125 250Z" fill="white"/>
<path d="M124.921 83.882V24.6719L187.5 116.937L124.921 83.882ZM124.921 169.408V228.618L187.5 136.353L124.921 169.408ZM124.921 132.181V94.4724L186.056 126.725L124.921 132.181Z" fill="#0C8312"/>
<path d="M124.921 159.781V132.181L186.056 126.726L124.921 159.781Z" fill="#034C03"/>
<path d="M124.919 83.8815V24.6714L62.5 116.936L124.919 83.8815ZM124.919 169.407V228.617L62.5 136.352L124.919 169.407ZM124.919 132.18V94.4719L63.9441 126.725L124.919 132.18Z" fill="#3CB93C"/>
<path d="M124.922 159.781V132.181L63.9465 126.726L124.922 159.781Z" fill="#166816"/>
</g>
<defs>
<clipPath id="clip0_9_707">
<rect width="250" height="250" fill="white"/>
</clipPath>
</defs>
</svg>
