<svg fill="none" height="250" viewBox="0 0 250 250" width="250" xmlns="http://www.w3.org/2000/svg" xmlns:xlink="http://www.w3.org/1999/xlink"><linearGradient id="a"><stop offset="0" stop-color="#002d74"/><stop offset="1" stop-color="#002d74" stop-opacity="0"/></linearGradient><linearGradient id="b" gradientUnits="userSpaceOnUse" x1="161.509" x2="161.509" xlink:href="#a" y1="218.751" y2="130.208"/><linearGradient id="c" gradientUnits="userSpaceOnUse" x1="88.5395" x2="88.5395" xlink:href="#a" y1="41.6641" y2="130.208"/><clipPath id="d"><path d="m0 0h250v250h-250z"/></clipPath><clipPath id="e"><path d="m52.0833 41.6641h145.833v177.083h-145.833z"/></clipPath><g clip-path="url(#d)"><circle cx="125" cy="125" fill="#fff" r="125"/><g clip-path="url(#e)"><path d="m125.061 41.6641-72.9777 44.2708v88.5421l72.9777 44.27 72.856-44.27v-88.5421zm51.242 119.6719-51.364 31.13-51.2418-31.13v-62.2602l51.3638-31.1299 51.242 31.1299z" fill="#002d74"/><path d="m125.061 218.747 72.856-44.27v-88.5421l-72.856-44.2708v26.2818l51.242 31.1299v62.3872l-51.364 31.13v26.154z" fill="url(#b)"/><path d="m124.939 41.6641-72.8557 44.2708v88.5421l72.8557 44.27v-26.281l-51.2418-31.13v-62.3878l51.2418-31.0023z" fill="url(#c)"/><path d="m159.06 150.872-33.999 20.668-34.1213-20.668v-41.337l34.1213-20.6678 33.999 20.6678-14.207 8.676-19.914-12.12-19.792 12.12v24.113l19.914 12.12 19.914-12.12z" fill="#002d74"/></g></g></svg>