<svg fill="none" height="250" viewBox="0 0 250 250" width="250" xmlns="http://www.w3.org/2000/svg" xmlns:xlink="http://www.w3.org/1999/xlink"><linearGradient id="a" gradientUnits="userSpaceOnUse" x1="29.3124" x2="220.912" y1="44.7942" y2="205.394"><stop offset="0" stop-color="#2a63a8"/><stop offset=".3804" stop-color="#213d5f"/><stop offset="1" stop-color="#191919"/></linearGradient><clipPath id="b"><path d="m0 0h250v250h-250z"/></clipPath><clipPath id="c"><path d="m0 0h250v250h-250z"/></clipPath><g clip-path="url(#b)"><g clip-path="url(#c)"><path clip-rule="evenodd" d="m125 0c68.8 0 125 56.3 125 125 0 68.8-56.3 125-125 125-68.8 0-125-56.3-125-125 0-68.8 56.3-125 125-125z" fill="url(#a)" fill-rule="evenodd"/><g fill="#fff"><path d="m79.3001 61.2031h-18.0001v18h18.0001z"/><path d="m117 61.2031h-18v18h18z"/><path d="m154.8 61.2031h-18v18h18z"/><path d="m79.3001 99h-18.0001v18h18.0001z"/><path d="m117 99h-18v18h18z"/><path d="m79.3001 136.805h-18.0001v18h18.0001z"/><path d="m183.5 65c-2.9 0-5.2 2.4-5.2 5.2 0 2.9 2.4 5.2 5.2 5.2 2.9 0 5.2-2.4 5.2-5.2 0-2.9-2.4-5.2-5.2-5.2z"/><path d="m183.5 102.805c-2.9 0-5.2 2.4-5.2 5.2 0 2.9 2.4 5.2 5.2 5.2 2.9 0 5.2-2.4 5.2-5.2 0-2.9-2.4-5.2-5.2-5.2z"/><path d="m183.5 140.5c-2.9 0-5.2 2.4-5.2 5.2 0 2.9 2.4 5.2 5.2 5.2 2.9 0 5.2-2.4 5.2-5.2 0-2.9-2.4-5.2-5.2-5.2z"/><path d="m183.5 178.305c-2.9 0-5.2 2.4-5.2 5.2 0 2.9 2.4 5.2 5.2 5.2 2.9 0 5.2-2.4 5.2-5.2 0-2.9-2.4-5.2-5.2-5.2z"/><path d="m145.8 102.805c-2.9 0-5.2 2.4-5.2 5.2 0 2.9 2.4 5.2 5.2 5.2 2.9 0 5.2-2.4 5.2-5.2 0-2.9-2.4-5.2-5.2-5.2z"/><path d="m145.8 140.5c-2.9 0-5.2 2.4-5.2 5.2 0 2.9 2.4 5.2 5.2 5.2 2.9 0 5.2-2.4 5.2-5.2 0-2.9-2.4-5.2-5.2-5.2z"/><path d="m145.8 178.305c-2.9 0-5.2 2.4-5.2 5.2 0 2.9 2.4 5.2 5.2 5.2 2.9 0 5.2-2.4 5.2-5.2 0-2.9-2.4-5.2-5.2-5.2z"/><path d="m108 140.5c-2.9 0-5.2 2.4-5.2 5.2 0 2.9 2.4 5.2 5.2 5.2 2.9 0 5.2-2.4 5.2-5.2 0-2.9-2.4-5.2-5.2-5.2z"/><path d="m108 178.305c-2.9 0-5.2 2.4-5.2 5.2 0 2.9 2.4 5.2 5.2 5.2 2.9 0 5.2-2.4 5.2-5.2 0-2.9-2.4-5.2-5.2-5.2z"/><path d="m70.2 178.305c-2.9 0-5.2 2.4-5.2 5.2 0 2.9 2.4 5.2 5.2 5.2 2.9 0 5.2-2.4 5.2-5.2 0-2.9-2.4-5.2-5.2-5.2z"/></g></g></g></svg>