<svg fill="none" height="250" viewBox="0 0 250 250" width="250" xmlns="http://www.w3.org/2000/svg" xmlns:xlink="http://www.w3.org/1999/xlink"><clipPath id="a"><path d="m0 0h250v250h-250z"/></clipPath><g clip-path="url(#a)"><circle cx="125" cy="125" fill="#fff" r="125"/><g fill="#2653b2"><path d="m172.053 157.063c19.082 0 34.552-15.47 34.552-34.553s-15.47-34.553-34.552-34.553c-19.083 0-34.553 15.47-34.553 34.553s15.47 34.553 34.553 34.553z"/><path d="m128.39 74.9891c9.201 0 16.661-7.4594 16.661-16.6611 0-9.2016-7.46-16.661-16.661-16.661-9.202 0-16.661 7.4594-16.661 16.661 0 9.2017 7.459 16.6611 16.661 16.6611z"/><path d="m128.39 203.435c9.201 0 16.661-7.46 16.661-16.661 0-9.202-7.46-16.662-16.661-16.662-9.202 0-16.661 7.46-16.661 16.662 0 9.201 7.459 16.661 16.661 16.661z"/><path d="m120.757 147.46c.985.328 2.052.493 3.119.493 5.745 0 10.423-4.679 10.423-10.424s-4.678-10.423-10.423-10.423c-3.693 0-6.894 1.888-8.782 4.76v.082c-.328.411-.574.903-.739 1.395-11.49 20.273-34.5526 6.73-34.5526 6.73-3.7753-2.216-8.1252-3.529-12.8855-3.529-13.8705 0-25.1146 11.244-25.1146 25.115 0 13.87 11.2441 25.114 25.1146 25.114 9.6847 0 18.1383-5.499 22.2419-13.542v-.082c.7387-1.395 1.3132-2.872 1.8057-4.432 11.9825-27.495 29.7925-21.257 29.7925-21.257zm-5.909-36.851c.492.903 1.149 1.806 1.888 2.544 4.103 4.104 10.669 4.104 14.691 0 4.103-4.103 4.103-10.669 0-14.6909-2.627-2.6263-6.238-3.5292-9.521-2.7905h-.082c-.492.0821-1.067.2462-1.559.4925-22.4884 6.2379-29.2185-19.6977-29.2185-19.6977-1.0669-4.2679-3.2829-8.2895-6.5659-11.5724-9.8488-9.8488-25.689-9.8488-35.4558-.0821-9.7667 9.7668-9.8488 25.6891 0 35.4561 6.8942 6.894 16.661 8.946 25.3608 6.155h.0821c1.4773-.492 2.9546-1.149 4.4319-1.887 27.8234-10.9983 35.9484 6.073 35.9484 6.073z"/></g></g></svg>