<svg fill="none" height="250" viewBox="0 0 250 250" width="250" xmlns="http://www.w3.org/2000/svg"><path clip-rule="evenodd" d="m18.4295 190.361c2.0558 3.345 4.2646 6.586 6.6167 9.712l15.3553-8.865c-2.4159-3.083-4.667-6.301-6.74-9.641zm201.2355-116.1821c1.851 3.4413 3.521 6.995 4.995 10.6485l15.356-8.8659c-1.544-3.6163-3.253-7.1451-5.119-10.5767zm9.157-18.8182-15.266 8.8137c-2.239-3.2535-4.653-6.3775-7.228-9.3584l15.46-8.9256c2.488 3.0407 4.836 6.2007 7.034 9.4703zm-200.7884 115.9243-15.266 8.814c-1.7296-3.517-3.29879-7.126-4.69804-10.819l15.46184-8.927c1.3038 3.743 2.8089 7.391 4.5022 10.932zm-26.50562-65.886c.83445-5.299 2.00174-10.4865 3.47981-15.5416l24.52831-14.1613c-2.9141 5.6309-5.3446 11.5526-7.2366 17.71zm43.60722-52.2406c14.9374-16.5948 34.9729-28.5097 57.6398-33.2783l33.556-19.373508c-3.732-.335307-7.511-.506592-11.33-.506592-50.3185 0-93.6928 29.7313-113.5139 72.5849zm103.8488-32.8931c-6.144-1.4009-12.488-2.2752-18.982-2.5728l24.556-14.17748c5.209 1.26281 10.29 2.85188 15.221 4.74436zm-43.679 228.1917c6.416 1.016 12.994 1.543 19.696 1.543 53.301 0 98.81-33.361 116.787-80.341l-28.385 16.388c-17.842 25.787-46.675 43.388-79.726 46.03zm118.901-82.179 22.594-13.044c1.129-4.889 1.971-9.888 2.507-14.979l-19.723 11.388c-1.347 5.736-3.153 11.295-5.378 16.635zm-113.036 65.262-22.6233 13.061c-4.8806-1.486-9.6347-3.262-14.2419-5.309l19.7412-11.397c5.5332 1.662 11.254 2.89 17.124 3.645zm-106.79948-73.656c-1.0688-3.93-1.95067-7.937-2.6355-12.011l16.43908-9.491c.4419 4.196 1.1253 8.319 2.0361 12.357zm193.56348-111.7533c-3.061-2.8324-6.288-5.4887-9.664-7.9529l16.426-9.483c3.158 2.6164 6.185 5.3852 9.071 8.2951zm-20.781-15.066 17.318-9.9985c-3.713-2.4867-7.567-4.7797-11.547-6.8646l-18.665 10.7762c4.451 1.7482 8.757 3.7848 12.894 6.0869zm-176.88892 102.1263 17.32922-10.005c.0798-4.82.477-9.562 1.1716-14.208l-18.656637 10.772c-.0719391 1.741-.108263 3.491-.108263 5.25 0 2.752.0889324 5.483.26408 8.191zm50.68362 92.523c3.5135 2.587 7.1673 4.996 10.9479 7.211l18.0104-10.398c-4.176-1.934-8.2068-4.129-12.0717-6.563zm181.4023-104.732c.049 1.333.074 2.673.074 4.018 0 3.277-.147 6.52-.434 9.722l18.01-10.398c-.023-4.425-.277-8.795-.749-13.1zm14.91-22.1403-16.148 9.3233c-.644-4.089-1.518-8.102-2.609-12.0246l15.651-9.0364c1.219 3.8356 2.258 7.7515 3.106 11.7377zm-189.8831 109.6283-16.1372 9.317c-3.0046-2.714-5.8767-5.572-8.6055-8.563l15.6469-9.033c2.8706 2.928 5.9077 5.693 9.0958 8.279z" fill="#b3bdc7" fill-rule="evenodd"/><ellipse cx="125.001" cy="125" fill="#f7931a" rx="97.6569" ry="97.6562"/><path d="m145.677 111.061c-3.081 12.072-21.696 5.824-27.733 4.283l5.453-21.361c6.037 1.541 25.495 4.4731 22.28 17.078zm-3.513 34.488c-3.38 13.279-25.727 5.961-32.989 4.111l6.087-23.51c7.234 1.858 30.514 5.572 26.971 19.436zm24.742-34.14c2.027-12.9835-7.83-20.0024-21.325-24.7596l4.487-17.5737-10.707-2.7415-4.374 17.1187c-2.8-.7185-5.689-1.396-8.561-2.0641l4.299-17.2274-10.671-2.7667-4.478 17.5564c-2.338-.5342-4.623-1.0841-6.837-1.6403l-14.7487-3.7782-2.9172 11.4418s7.9666 1.8751 7.7509 1.9821c3.086.3835 5.295 3.1687 4.967 6.2606l-5.0329 19.9729c.3766.096.7469.215 1.1084.358l-1.1289-.279-7.2188 28.016c-.6849 2.056-2.9011 3.175-4.963 2.505.1559.085-7.7681-1.992-7.7681-1.992l-5.3908 12.227 13.9273 3.555 7.6642 1.935-4.5206 17.758 10.6902 2.732 4.406-17.506c2.823.798 5.674 1.545 8.517 2.265l-4.476 17.513 10.69 2.732 4.555-17.739c18.279 3.569 31.993 2.243 37.863-14.239 4.714-13.293-.088-20.969-9.644-26.026 7.013-1.567 12.332-6.125 13.767-15.634z" fill="#fff"/></svg>