<svg fill="none" height="250" viewBox="0 0 250 250" width="250" xmlns="http://www.w3.org/2000/svg"><path d="m124.75 248.197c68.18 0 123.45-55.271 123.45-123.45 0-68.1797-55.27-123.45012-123.45-123.45012-68.1795 0-123.44995 55.27042-123.44995 123.45012 0 68.179 55.27045 123.45 123.44995 123.45z" fill="#3ec0ce"/><path d="m77.3 210.799c-3 0-6-1.1-8.35-3.3-2.55-2.35-3.9-5.75-3.9-9.25v-149.3003c0-6.65 5.2-12.35 11.85-12.55 6.95-.25 12.65 5.35 12.65 12.25v126.8003c0 .85.95 1.4 1.7.95l24.75-14.3c.35-.2.55-.55.55-.95v-84.1503c0-3.4 1.25-6.7 3.7-9.05 4.1-3.95 10.1-4.55 14.75-1.8l78.95 46.3503c2.9 1.7 5.1 4.4 5.9 7.65 1.35 5.45-1.1 10.95-5.75 13.65l-130.65 75.35c-1.9 1.1-4 1.65-6.15 1.65zm63.8-110.75v45.65c0 .85.95 1.4 1.7.95l39.2-22.6c.75-.45.75-1.5 0-1.95l-39.2-23.0003c-.75-.45-1.7.1-1.7.9503z" fill="#fff"/></svg>