<svg fill="none" height="250" viewBox="0 0 250 250" width="250" xmlns="http://www.w3.org/2000/svg" xmlns:xlink="http://www.w3.org/1999/xlink"><clipPath id="a"><path d="m0 0h250v250h-250z"/></clipPath><g clip-path="url(#a)"><path d="m125 250c69.036 0 125-55.964 125-125 0-69.0356-55.964-125-125-125-69.0356 0-125 55.9644-125 125 0 69.036 55.9644 125 125 125z" fill="#6916ff"/><g fill="#fff"><path d="m133.937 50.1853c-.434-.3133-.738-.775-.855-1.2977-.116-.5227-.037-1.07.223-1.5382.363-.2332.786-.3572 1.218-.3572s.855.124 1.219.3572c5.506 2.2856 10.49 5.6665 14.649 9.9375 2.367 2.1953 4.351 4.7578 5.859 7.5781 1.594 2.875 2.898 5.8828 3.906 9 .961 3.2266 1.461 6.5781 1.469 9.9375-.492 3.3203-.977 19.4145-10.258 26.9925-1.181.71-2.584.958-3.937.695-1.353-.262-2.561-1.017-3.391-2.117-.663-.778-1.067-1.744-1.153-2.762-.087-1.019.147-2.039.669-2.918 3.946-6.1086 6.125-13.1895 6.298-20.4598.172-7.2703-1.67-14.4466-5.322-20.7354-3.125-4.4219-6.672-8.539-10.594-12.3125zm-14.406 145.1717c.977.946.977 1.891.492 2.367-.484.477-1.468.946-1.953.469-5.505-2.285-10.489-5.666-14.648-9.937-2.36-2.184-4.3403-4.745-5.8595-7.578-1.5907-2.864-2.8989-5.876-3.9063-8.993-.9654-3.227-1.46-6.577-1.4687-9.945.4922-3.312.9766-19.414 10.2575-26.992 1.181-.708 2.582-.955 3.933-.692 1.351.262 2.558 1.015 3.388 2.114.711.776 1.105 1.791 1.105 2.843 0 1.053-.394 2.068-1.105 2.844-3.945 6.108-6.124 13.188-6.296 20.456-.172 7.269 1.669 14.444 5.319 20.732 3.164 4.429 6.766 8.554 10.742 12.312z" fill-opacity=".5"/><path d="m161.672 156.296c-.708-9.09-4.302-17.715-10.258-24.617-6.03-6.061-12.945-11.171-20.508-15.157-6.597-3.646-12.813-7.944-18.555-12.828-4.722-4.4379-7.96-10.2243-9.273-16.5701-1.166-6.5519-.333-13.3031 2.391-19.375 3.263-6.7552 7.942-12.729 13.718-17.5156.325-.2898.548-.6762.637-1.1024s.038-.8696-.144-1.2648c-.14-.2492-.334-.4635-.568-.627s-.502-.2718-.784-.3169-.57-.0258-.843.0565c-.274.0823-.525.2254-.735.4186-7.781 3.3945-14.401 8.9882-19.0469 16.0938-5.1954 7.4649-7.6291 16.5061-6.8828 25.5703.3897 4.5798 1.5464 9.0615 3.4218 13.2576 2.0294 4.154 4.6621 7.984 7.8129 11.367 6.208 5.933 13.287 10.88 20.992 14.672 6.625 3.438 12.851 7.571 18.555 12.313 5.016 4.402 8.306 10.444 9.281 17.047 1.375 6.867.515 13.984-2.446 20.359-3.323 6.712-8.174 12.55-14.164 17.047-.198.114-.369.268-.503.453-.135.185-.228.396-.274.62-.047.224-.045.455.004.678s.145.433.281.616c.274.5.781.859 1.352.945.57.086 1.164-.078 1.586-.468 7.259-4.192 13.575-9.835 18.554-16.578 4.844-7.485 7.079-16.282 6.399-25.094z"/></g></g></svg>