<svg fill="none" height="262" viewBox="0 0 262 262" width="262" xmlns="http://www.w3.org/2000/svg" xmlns:xlink="http://www.w3.org/1999/xlink"><linearGradient id="a" gradientUnits="userSpaceOnUse" x1=".000012" x2="262" y1="128.5" y2="128.5"><stop offset="0" stop-color="#bcbeff"/><stop offset=".151" stop-color="#a3a7f5"/><stop offset=".3866" stop-color="#8289e8"/><stop offset=".6124" stop-color="#6a73df"/><stop offset=".8221" stop-color="#5c66d9"/><stop offset="1" stop-color="#5761d7"/></linearGradient><path d="m184.561 13.4225c-33.898-.6018-63.126 10.6833-86.9303 34.6079-19.2844 19.2601-30.2825 42.7333-33.145 69.9686-5.8758 56.877 30.1318 101.265 66.8923 116.463-24.105-22.119-38.2671-49.204-39.9243-82.157-1.6573-32.952 9.0393-61.6918 31.6383-85.7669 34.953-37.0154 86.479-43.4855 124.294-27.8368-8.286 0-16.572 0-25.913 0 4.821 6.0188 9.039 11.1348 12.806 16.5516 3.766 5.4169 6.93 11.2852 10.094 17.304-28.173-12.3385-55.593-12.0375-81.657 4.3636-18.984 11.887-31.338 29.1905-36.159 51.1595-4.971 22.119-1.356 43.185 11.149 62.294 8.588 13.091 19.887 23.323 34.802 29.944-32.241-40.477-34.651-80.501 2.11-118.269 22.9-23.6238 58.003-26.4827 83.013-16.4013-.151.1505-.151.4514-.301.4514-6.78.7524-6.629.6019-4.972 7.373 1.506 5.8683 2.561 11.8869 3.917 17.9059.151 1.053.151 2.106.151 3.611-18.983-9.329-37.364-9.63-54.991 1.655-12.053 7.674-19.736 18.809-23.051 32.803-6.478 28.438 12.806 53.567 30.132 58.532-11.299-11.887-16.874-25.58-15.518-41.379.904-11.285 5.122-21.367 12.655-29.943 13.861-15.95 37.816-22.27 56.347-14.596-4.369 0-4.821 2.107-4.821 5.267 0 30.846-9.642 58.532-29.077 82.457-19.435 23.774-44.445 39.122-74.426 44.689-44.294 8.125-83.6159-3.31-115.857-34.909-24.7082-23.924-37.664863-54.169-37.81552256-88.927-.30131844-45.8931 18.98312256-82.3066 56.34662256-108.4883 25.3107-17.60483 53.9359-24.37594 84.8209-21.517029 13.861 1.203749 26.968 4.965479 39.624 10.382329 1.054.4514 2.26 1.0533 3.314 1.6552.151 0 .301.1505.452.7523z" fill="url(#a)"/></svg>