<svg fill="none" height="250" viewBox="0 0 250 250" width="250" xmlns="http://www.w3.org/2000/svg" xmlns:xlink="http://www.w3.org/1999/xlink"><clipPath id="a"><path d="m0 0h250v250h-250z"/></clipPath><g clip-path="url(#a)" clip-rule="evenodd" fill-rule="evenodd"><path d="m249.784 125c0 69.036-55.688 125-124.384 125-68.6963 0-124.38438-55.964-124.38438-125 0-69.0363 55.68808-125 124.38438-125 68.696 0 124.384 55.9637 124.384 125z" fill="#fff"/><path d="m78.1927 94.5306 9.633 29.8534-26.915 47.557zm84.7263 29.8534 9.634-29.8534 17.281 77.4104zm-2.228 6.901 32.052 56.633-62.626 38.114zm-40.062 94.747-62.6284-38.114 32.0517-56.633zm4.744-157.1549 31.75 56.1019-31.75 98.389-31.7517-98.389zm-2.666-6.1262-31.3123 55.3271-10.7168-33.212 42.0291-58.1807zm5.331-36.0656 42.028 58.1807-10.716 33.212-31.312-55.3271zm70.905 161.5867-23.321-104.463c-.08-.3564-.23-.6918-.443-.9863l-47.648-65.9592c-.503-.6943-1.304-1.1052-2.158-1.1052-.853 0-1.656.4109-2.158 1.1052l-47.6479 65.9592c-.2131.2945-.3646.6299-.4446.9863l-23.3214 104.463c-.25 1.124.2414 2.282 1.2204 2.879l70.9695 43.192c.032.018.066.032.098.049.045.025.091.05.139.072.074.036.148.067.225.095.047.018.093.035.141.05.085.026.168.044.254.062.044.008.087.021.13.027.13.02.263.031.395.031s.264-.011.394-.031c.045-.006.086-.019.13-.027.086-.018.171-.036.254-.062.048-.015.095-.032.143-.05.075-.028.151-.059.224-.095.047-.022.093-.047.14-.072.03-.017.064-.031.096-.049l70.97-43.192c.979-.597 1.471-1.755 1.219-2.879z" fill="#000"/></g></svg>