<svg fill="none" height="250" viewBox="0 0 251 250" width="251" xmlns="http://www.w3.org/2000/svg" xmlns:xlink="http://www.w3.org/1999/xlink"><linearGradient id="a" gradientUnits="userSpaceOnUse" x1="23.5801" x2="94.4083" y1="105.576" y2="105.576"><stop offset="0" stop-color="#fff" stop-opacity="0"/><stop offset="1" stop-color="#fff"/></linearGradient><linearGradient id="b" gradientUnits="userSpaceOnUse" x1="222.953" x2="157.626" y1="83.4334" y2="88.8324"><stop offset="0" stop-color="#fd76fd" stop-opacity="0"/><stop offset="1" stop-color="#ff51ff"/></linearGradient><linearGradient id="c" gradientUnits="userSpaceOnUse" x1="221.98" x2="170.446" y1="114.545" y2="114.545"><stop offset="0" stop-color="#5300ff" stop-opacity="0"/><stop offset="1" stop-color="#9d6eff"/></linearGradient><linearGradient id="d" gradientUnits="userSpaceOnUse" x1="223.087" x2="173.276" y1="99.6243" y2="114.761"><stop offset="0" stop-color="#ae60d6" stop-opacity="0"/><stop offset="1" stop-color="#ab38e6"/></linearGradient><clipPath id="e"><path d="m.458008 0h250v250h-250z"/></clipPath><g clip-path="url(#e)"><path d="m125.458 250c69.036 0 125-55.964 125-125 0-69.0356-55.964-125-125-125-69.0356 0-124.999992 55.9644-124.999992 125 0 69.036 55.964392 125 124.999992 125z" fill="#000"/><path d="m125.456 239.037c62.981 0 114.037-51.056 114.037-114.037 0-62.9811-51.056-114.0374-114.037-114.0374-62.9808 0-114.0371 51.0563-114.0371 114.0374 0 62.981 51.0563 114.037 114.0371 114.037z" fill="#000" stroke="#fff" stroke-width="10.4167"/><g clip-rule="evenodd" fill-rule="evenodd"><path d="m124.873 150.464h41.862l-41.851-72.5155v.0085-43.9537l82.021 139.7957h-82.032z" fill="#0b76ff"/><path d="m124.866 150.464.005 23.335h-82.0395l82.0235-139.7957.005 43.9537-.005-.0085-41.8511 72.5155z" fill="#24c1ff"/><path d="m124.875 95.9478v45.9942l-25.9521.048z" fill="#39fff2"/><path d="m124.873 95.9478 25.947 46.0422-25.947-.048z" fill="#00e2c2"/><path d="m23.5801 81.7189 101.2929 41.8571v5.856l-101.2929-25.111z" fill="url(#a)"/><path d="m226.16 64.1658-101.287 59.4092v1.607l101.287-41.7896z" fill="url(#b)"/><path d="m226.08 121.9-101.207 7.527v-1.665l101.207-25.117z" fill="url(#c)"/><path d="m226.16 84.1991-101.287 41.0789v2.484l101.287-25.952z" fill="url(#d)"/></g></g></svg>