<svg width="250" height="250" viewBox="0 0 250 250" fill="none" xmlns="http://www.w3.org/2000/svg">
<g clip-path="url(#clip0_25_387)">
<circle cx="125" cy="125" r="125" fill="#0066CC"/>
<path d="M60.1655 154.789V212.032C69.1219 206.386 87.6188 194.509 89.9552 192.172C92.2917 189.836 92.8758 185.358 92.8758 183.411V120.911C85.6718 124.805 70.2123 133.878 66.0066 139.018C61.801 144.158 60.3602 151.674 60.1655 154.789Z" fill="white"/>
<path d="M186.915 117.991V190.421C177.959 184.775 159.462 172.898 157.126 170.561C154.789 168.225 154.205 163.747 154.205 161.799V84.1125C161.409 88.0066 176.869 97.0798 181.074 102.22C185.28 107.36 186.721 114.876 186.915 117.991Z" fill="white"/>
<path d="M109.813 36.7989V181.075C124.416 172.897 134.93 167.056 137.266 164.135C139.019 161.945 139.019 154.886 139.019 151.869V16.355C132.009 20.4438 118.575 27.9024 115.07 29.7896C111.565 31.6767 109.987 31.972 109.813 36.7989Z" fill="white"/>
</g>
<defs>
<clipPath id="clip0_25_387">
<rect width="250" height="250" fill="white"/>
</clipPath>
</defs>
</svg>
