<svg width="250" height="250" viewBox="0 0 250 250" fill="none" xmlns="http://www.w3.org/2000/svg">
<path d="M118.673 0L10.4167 62.5V187.5L118.673 250L226.929 187.5V62.5L118.673 0ZM120.886 202.463L37.7936 155.071L38.1304 132.025L120.838 179.369L160.725 156.37L133.973 140.926L123.966 146.699L105.201 135.922L115.257 130.1L102.122 122.498L94.1831 127.117L75.3706 116.34L83.3575 111.721L40.9691 87.2306L120.838 41.1374L196.185 84.1032L175.977 95.843L120.838 64.2321L80.9518 87.2306L103.277 100.125L114.68 93.4854L133.492 104.263L121.993 110.903L135.128 118.505L144.462 113.068L163.275 123.845L153.844 129.33L200.611 156.322L120.886 202.463Z" fill="white"/>
</svg>
