<svg width="250" height="250" viewBox="0 0 250 250" fill="none" xmlns="http://www.w3.org/2000/svg">
<g clip-path="url(#clip0_6_12)">
<path d="M125 250C194.036 250 250 194.036 250 125C250 55.9644 194.036 0 125 0C55.9644 0 0 55.9644 0 125C0 194.036 55.9644 250 125 250Z" fill="#F4F4F4"/>
<g clip-path="url(#clip1_6_12)">
<path d="M71.75 78.3992H79.4562C91.4937 79.5897 102.631 85.6934 110.881 94.4805C128 112.584 137.412 138.133 159.2 151.606C174.95 161.357 196.981 153.382 204.725 136.923C208.662 136.848 212.619 136.848 216.556 136.866C211.137 153.59 195.35 165.609 178.081 167.215H171.725C161.094 166.327 150.762 162.207 142.719 155.083C131.037 145.105 123.537 131.424 114.462 119.236C106.662 108.464 98.6937 96.3513 85.775 91.457C69.8187 85.4288 50.3187 94.8584 44.5062 110.883C39.3875 124.073 43.55 140.438 54.9875 148.885C63.5562 155.574 75.5 158.069 85.7937 154.176C97.2312 150.019 105.725 140.57 112.231 130.555C114.8 134.259 117.294 138.019 119.769 141.799C109.644 154.648 95.6 165.684 78.8937 167.215H72.05C50.9937 165.741 32.6937 147.713 31.25 126.416V119.443C32.6187 98.1843 50.675 79.9487 71.75 78.3992Z" fill="#DE3F6B"/>
<path d="M171.296 78.3987H177.689C198.933 79.7971 217.008 98.1838 218.752 119.481V130.403C201.221 130.573 183.671 130.46 166.139 130.479C166.158 127.285 166.158 124.11 166.139 120.917C179.996 120.879 193.833 120.974 207.671 120.879C206.696 115.229 205.421 109.446 202.102 104.665C194.002 92.1935 176.883 87.0913 163.196 92.4958C152.283 96.5776 144.071 105.516 137.733 115.059C135.296 111.525 132.877 107.954 130.533 104.344C140.527 91.3053 154.477 80.0238 171.296 78.3987" fill="#DE3F6B"/>
</g>
</g>
<defs>
<clipPath id="clip0_6_12">
<rect width="250" height="250" fill="white"/>
</clipPath>
<clipPath id="clip1_6_12">
<rect width="187.5" height="88.8158" fill="white" transform="translate(31.25 78.3992)"/>
</clipPath>
</defs>
</svg>
