<svg fill="none" height="250" viewBox="0 0 250 250" width="250" xmlns="http://www.w3.org/2000/svg" xmlns:xlink="http://www.w3.org/1999/xlink"><clipPath id="a"><path d="m0 0h250v250h-250z"/></clipPath><clipPath id="b"><path d="m31.25 78.3992h187.5v88.8158h-187.5z"/></clipPath><g clip-path="url(#a)"><path d="m125 250c69.036 0 125-55.964 125-125 0-69.0356-55.964-125-125-125-69.0356 0-125 55.9644-125 125 0 69.036 55.9644 125 125 125z" fill="#f4f4f4"/><g clip-path="url(#b)" fill="#de3f6b"><path d="m71.75 78.3992h7.7062c12.0375 1.1905 23.1748 7.2942 31.4248 16.0813 17.119 18.1035 26.531 43.6525 48.319 57.1255 15.75 9.751 37.781 1.776 45.525-14.683 3.937-.075 7.894-.075 11.831-.057-5.419 16.724-21.206 28.743-38.475 30.349h-6.356c-10.631-.888-20.963-5.008-29.006-12.132-11.682-9.978-19.182-23.659-28.257-35.847-7.8-10.772-15.7683-22.8847-28.687-27.779-15.9563-6.0282-35.4563 3.4014-41.2688 19.426-5.1187 13.19-.9562 29.555 10.4813 38.002 8.5687 6.689 20.5125 9.184 30.8062 5.291 11.4375-4.157 19.9313-13.606 26.4373-23.621 2.569 3.704 5.063 7.464 7.538 11.244-10.125 12.849-24.169 23.885-40.8753 25.416h-6.8437c-21.0563-1.474-39.3563-19.502-40.8-40.799v-6.973c1.3687-21.2587 19.425-39.4943 40.5-41.0438z"/><path d="m171.296 78.3987h6.393c21.244 1.3984 39.319 19.7851 41.063 41.0823v10.922c-17.531.17-35.081.057-52.613.076.019-3.194.019-6.369 0-9.562 13.857-.038 27.694.057 41.532-.038-.975-5.65-2.25-11.433-5.569-16.214-8.1-12.4715-25.219-17.5737-38.906-12.1692-10.913 4.0818-19.125 13.0202-25.463 22.5632-2.437-3.534-4.856-7.105-7.2-10.715 9.994-13.0387 23.944-24.3202 40.763-25.9453"/></g></g></svg>