<svg fill="none" height="250" viewBox="0 0 250 250" width="250" xmlns="http://www.w3.org/2000/svg" xmlns:xlink="http://www.w3.org/1999/xlink"><linearGradient id="a"><stop offset=".58" stop-color="#a0a8d4"/><stop offset=".73" stop-color="#8791c7"/><stop offset=".91" stop-color="#6470b4"/></linearGradient><linearGradient id="b" gradientUnits="userSpaceOnUse" x1="124.293" x2="56.1403" xlink:href="#a" y1="33.4474" y2="106.528"/><linearGradient id="c" gradientUnits="userSpaceOnUse" x1="125.708" x2="193.835" xlink:href="#a" y1="216.706" y2="143.677"/><linearGradient id="d" gradientUnits="userSpaceOnUse" x1="124.937" x2="124.937" y1="30.3232" y2="219.445"><stop offset="0" stop-color="#513eff"/><stop offset=".18" stop-color="#5157ff"/><stop offset=".57" stop-color="#5298ff"/><stop offset="1" stop-color="#52e5ff"/></linearGradient><clipPath id="e"><path d="m41.6667 31.25h166.667v187.5h-166.667z"/></clipPath><path d="m125.4 248.947c68.456 0 123.95-55.494 123.95-123.95 0-68.4558-55.494-123.95012-123.95-123.95012-68.4557 0-123.95005 55.49432-123.95005 123.95012 0 68.456 55.49435 123.95 123.95005 123.95z" fill="#fff"/><g clip-path="url(#e)"><path d="m62.9873 107.27c1.834 3.94 6.4191 11.82 6.4191 11.82l52.4986-87.84-51.1231 36.1557c-2.9803 2.086-5.5021 4.8672-7.3361 8.1119-4.8143 9.966-4.8143 21.5544-.4585 31.7524z" fill="url(#b)"/><path d="m42.3545 136.01c1.1463 16.919 9.6286 32.679 22.9253 42.877l56.6252 39.864s-35.534-51.684-65.3368-103.137c-2.9803-5.33-5.0436-11.356-5.9606-17.6141-.4585-2.7812-.4585-5.5624 0-8.3437-.6878 1.3907-2.2925 4.4036-2.2925 4.4036-2.9803 6.2582-5.0436 12.9792-6.1898 19.9322-.6878 7.416-.6878 14.833.2292 22.018z" fill="#a0a8d4"/><path d="m186.784 142.961c-1.834-3.94-6.419-11.82-6.419-11.82l-52.499 87.608 51.352-35.924c2.981-2.086 5.502-4.867 7.336-8.112 4.585-9.966 4.815-21.554.23-31.752z" fill="url(#c)"/><path d="m207.646 113.991c-1.147-16.919-9.629-32.6792-22.926-42.877l-56.625-39.864s35.534 51.6842 65.337 103.137c2.98 5.33 5.044 11.356 5.961 17.614.458 2.781.458 5.562 0 8.344.687-1.391 2.292-4.404 2.292-4.404 2.98-6.258 5.044-12.979 6.19-19.7.458-7.649.458-14.833-.229-22.25z" fill="#a0a8d4"/><path d="m63.4457 75.5176c1.8341-3.2447 4.1266-6.0259 7.3361-8.1119l51.1232-36.1557-52.4987 87.608s-4.585-7.88-6.4191-11.82c-4.3558-9.966-4.3558-21.5544.4585-31.5204zm-21.0912 60.4914c1.1463 16.919 9.6286 32.679 22.9253 42.877l56.6252 39.864s-35.534-51.684-65.3368-103.137c-2.9803-5.33-5.0436-11.356-5.9606-17.6139-.4585-2.7812-.4585-5.5625 0-8.3437-.6878 1.3906-2.2925 4.4036-2.2925 4.4036-2.9803 6.258-5.0436 12.979-6.1898 19.932-.6878 7.417-.6878 14.833.2292 22.018zm144.4295 6.953c-1.834-3.94-6.419-11.82-6.419-11.82l-52.499 87.608 51.352-35.924c2.981-2.086 5.502-4.867 7.336-8.112 4.585-9.966 4.815-21.554.23-31.752zm20.632-28.739c-1.146-16.9192-9.628-32.6794-22.925-42.8772l-56.396-40.0958s35.534 51.6842 65.337 103.137c2.98 5.33 5.044 11.356 5.961 17.614.458 2.781.458 5.562 0 8.344.687-1.391 2.292-4.404 2.292-4.404 2.98-6.258 5.044-12.979 6.19-19.7.458-7.649.458-14.833-.459-22.018z" fill="url(#d)"/></g></svg>