<svg width="250" height="250" viewBox="0 0 250 250" fill="none" xmlns="http://www.w3.org/2000/svg">
<g clip-path="url(#clip0_48_13129)">
<path d="M125.017 250C194.045 250 250.003 194.062 250.003 125.058C250.003 56.0553 194.045 0.117188 125.017 0.117188C55.9888 0.117188 0.0305176 56.0553 0.0305176 125.058C0.0305176 194.062 55.9888 250 125.017 250Z" fill="#EDF0F2"/>
<path d="M204.364 221.476C185.308 237.203 161.953 246.874 137.327 249.219C104.394 252.442 71.4619 242.478 45.7611 221.476C20.1579 200.473 3.93605 170.19 0.613505 137.172C-1.82954 112.555 3.05655 87.8402 14.6855 66.0561C26.3144 44.272 44.1975 26.3953 65.9895 14.7706C87.7815 3.14589 112.505 -1.83614 137.131 0.606031C161.757 3.0482 185.015 12.6215 204.168 28.349L178.956 59.1203C165.959 48.4725 150.03 41.8298 133.222 40.2668C116.414 38.6061 99.6059 42.0252 84.7521 49.9378C69.8984 57.8504 57.7809 70.0612 49.7677 84.9096C41.8522 99.758 38.5296 116.658 40.1909 133.362C42.4385 155.83 53.4811 176.54 70.9733 190.802C88.4656 205.162 110.942 211.902 133.418 209.655C150.226 207.995 166.057 201.352 179.054 190.704L204.364 221.476Z" fill="url(#paint0_linear_48_13129)"/>
<path d="M125.404 227.333C181.79 227.333 227.426 181.616 227.426 125.348C227.426 68.983 181.79 23.2656 125.404 23.2656C69.0188 23.2656 23.2849 68.983 23.2849 125.348C23.2849 181.713 69.0188 227.333 125.404 227.333Z" fill="white"/>
<path d="M126.094 144.301L158.44 125.545L120.036 105.812L126.094 144.301Z" fill="#AAB8C1"/>
<path d="M93.8416 125.646L126.188 144.401V109.82L93.8416 125.646Z" fill="#AAB8C1"/>
<path d="M126.091 72.9922L93.7449 125.645L136.058 106.792L126.091 72.9922Z" fill="#283947"/>
<path d="M126.088 72.9922V111.188L158.434 125.645L126.088 72.9922Z" fill="#657786"/>
<path d="M126.09 176.342L130.292 152.702L93.8416 131.602L126.09 176.342Z" fill="#283947"/>
<path d="M126.088 150.357V176.342L158.434 131.602L126.088 150.357Z" fill="#657786"/>
</g>
<defs>
<linearGradient id="paint0_linear_48_13129" x1="89.7618" y1="13.8501" x2="128.915" y2="231.006" gradientUnits="userSpaceOnUse">
<stop stop-color="#27D3A2"/>
<stop offset="1" stop-color="#9388FD"/>
</linearGradient>
<clipPath id="clip0_48_13129">
<rect width="250" height="250" fill="white"/>
</clipPath>
</defs>
</svg>
