<svg fill="none" height="250" viewBox="0 0 250 250" width="250" xmlns="http://www.w3.org/2000/svg" xmlns:xlink="http://www.w3.org/1999/xlink"><clipPath id="a"><path d="m0 0h250v250h-250z"/></clipPath><g clip-path="url(#a)"><path d="m125 250c69.036 0 125-55.964 125-125 0-69.0356-55.964-125-125-125-69.0356 0-125 55.9644-125 125 0 69.036 55.9644 125 125 125z" fill="#4054a8"/><path clip-rule="evenodd" d="m193.413 95.15c0 2.75-2.225 4.975-4.975 4.975s-4.975-2.225-4.975-4.975 2.225-4.975 4.975-4.975 4.962 2.225 4.975 4.975zm-4.663-10.575c-6.012 0-10.887 4.8625-10.887 10.875 0 6.012 4.862 10.887 10.875 10.887 6.012 0 10.887-4.862 10.887-10.8745v-.0125c-.012-5.9875-4.875-10.8625-10.875-10.875zm-14.012 95.35c2.337-2.138 2.5-5.775.362-8.113-2.125-2.325-5.725-2.499-8.075-.399-11.425 10.375-26.312 16.112-41.75 16.099-34.2875 0-62.1875-27.9-62.1875-62.212 0-34.3125 27.9-62.2125 62.1875-62.2125 15.438-.0125 30.325 5.725 41.75 16.1 2.325 2.1625 5.95 2.025 8.113-.2875 2.162-2.325 2.025-5.95-.288-8.1125-.037-.0375-.075-.075-.112-.1-13.538-12.2875-31.175-19.1-49.45-19.075-40.613 0-73.663 33.0625-73.663 73.6995 0 40.638 33.0375 73.688 73.65 73.688 18.288.012 35.925-6.788 49.463-19.075z" fill="#fff" fill-rule="evenodd"/></g></svg>