<svg width="250" height="250" viewBox="0 0 250 250" fill="none" xmlns="http://www.w3.org/2000/svg">
<g clip-path="url(#clip0_7_406)">
<path d="M125 250C194.036 250 250 194.036 250 125C250 55.9644 194.036 0 125 0C55.9644 0 0 55.9644 0 125C0 194.036 55.9644 250 125 250Z" fill="#4054A8"/>
<path fill-rule="evenodd" clip-rule="evenodd" d="M193.413 95.15C193.413 97.9 191.188 100.125 188.438 100.125C185.688 100.125 183.463 97.9 183.463 95.15C183.463 92.4 185.688 90.175 188.438 90.175C191.188 90.175 193.4 92.4 193.413 95.15ZM188.75 84.575C182.738 84.575 177.863 89.4375 177.863 95.45C177.863 101.462 182.725 106.337 188.738 106.337C194.75 106.337 199.625 101.475 199.625 95.4625V95.45C199.613 89.4625 194.75 84.5875 188.75 84.575ZM174.738 179.925C177.075 177.787 177.238 174.15 175.1 171.812C172.975 169.487 169.375 169.313 167.025 171.413C155.6 181.788 140.713 187.525 125.275 187.512C90.9875 187.512 63.0875 159.612 63.0875 125.3C63.0875 90.9875 90.9875 63.0875 125.275 63.0875C140.713 63.075 155.6 68.8125 167.025 79.1875C169.35 81.35 172.975 81.2125 175.138 78.9C177.3 76.575 177.163 72.95 174.85 70.7875C174.813 70.75 174.775 70.7125 174.738 70.6875C161.2 58.4 143.563 51.5875 125.288 51.6125C84.675 51.6125 51.625 84.675 51.625 125.312C51.625 165.95 84.6625 199 125.275 199C143.563 199.012 161.2 192.212 174.738 179.925Z" fill="white"/>
</g>
<defs>
<clipPath id="clip0_7_406">
<rect width="250" height="250" fill="white"/>
</clipPath>
</defs>
</svg>
