<svg fill="none" height="250" viewBox="0 0 250 250" width="250" xmlns="http://www.w3.org/2000/svg" xmlns:xlink="http://www.w3.org/1999/xlink"><clipPath id="a"><path d="m0 0h250v250h-250z"/></clipPath><clipPath id="b"><path d="m75.0007 74.9988h100v100h-100z"/></clipPath><mask id="c" height="250" maskUnits="userSpaceOnUse" width="251" x="0" y="0"><path d="m.00256348 0h249.99943652v250h-249.99943652z" fill="#fff"/></mask><g clip-path="url(#a)"><g mask="url(#c)"><path clip-rule="evenodd" d="m125.003 0c69.037 0 125 55.9631 125 125 0 69.031-55.963 125-125 125-69.0374 0-125.00043652-55.969-125.00043652-125 0-69.0369 55.96303652-125 125.00043652-125z" fill="#2775ca" fill-rule="evenodd"/></g><g clip-path="url(#b)"><path d="m134.206 160.51c-10.497 0-19.694-7.027-24.689-17.482h33.034v-14.488h-36.873c-.092-1.172-.141-2.346-.141-3.545 0-1.188.049-2.377.141-3.533h36.874v-14.491h-33.034c4.995-10.454 14.191-17.4789 24.688-17.4789 10.033 0 19.48 6.6803 24.654 17.4259l13.144-6.248c-7.62-15.8389-22.102-25.6712-37.798-25.6712-11.8 0-22.813 5.3628-31.012 15.1137-4.1237 4.9053-7.2743 10.6285-9.3457 16.8585h-15.8441v14.491h13.0678c-.0702 1.164-.1064 2.353-.1064 3.532 0 1.192.0362 2.366.1064 3.545h-13.0678v14.489h15.8441c2.0714 6.229 5.222 11.946 9.3457 16.846 8.199 9.752 19.212 15.125 31.012 15.125 15.697 0 30.178-9.831 37.798-25.669l-13.144-6.261c-5.174 10.76-14.621 17.441-24.654 17.441z" fill="#fff"/></g><g clip-rule="evenodd" fill="#fff" fill-rule="evenodd"><path d="m101.568 211.908c0 2.94-2.3024 4.611-5.1461 3.723-37.7941-12.057-65.1961-47.496-65.1961-89.311 0-41.8142 27.402-77.2546 65.1961-89.3114 2.8437-.8821 5.1461.7827 5.1461 3.723v7.2585c0 1.9574-1.517 4.2614-3.3819 4.8992-29.902 10.9801-51.3225 39.7059-51.3225 73.3807 0 33.675 21.4205 62.406 51.3225 73.381 1.8649.687 3.3819 2.94 3.3819 4.904z"/><path d="m153.579 215.631c-2.841.888-5.147-.783-5.147-3.723v-7.253c0-2.158 1.324-4.166 3.382-4.905 29.902-10.98 51.323-39.706 51.323-73.381 0-33.6743-21.421-62.4001-51.323-73.3802-1.862-.6875-3.382-2.9404-3.382-4.9048v-7.2529c0-2.9403 2.306-4.6548 5.147-3.7287 37.794 12.0639 65.196 47.5029 65.196 89.3166-.047 41.715-27.402 77.105-65.196 89.212z"/></g></g></svg>