<svg fill="none" height="250" viewBox="0 0 250 250" width="250" xmlns="http://www.w3.org/2000/svg" xmlns:xlink="http://www.w3.org/1999/xlink"><clipPath id="a"><path d="m0 0h250v250h-250z"/></clipPath><g clip-path="url(#a)"><circle cx="125" cy="125" fill="#6c8275" r="125"/><g fill="#fff"><path d="m119.5 124.979 69.903 40.041c.562.338 1.204.52 1.859.527.655.008 1.301-.159 1.87-.484.57-.324 1.043-.795 1.37-1.363.327-.567.498-1.212.494-1.868v-73.7616c.008-.6565-.161-1.3032-.488-1.8724s-.802-1.0399-1.373-1.3628c-.572-.323-1.22-.4864-1.876-.4731-.657.0133-1.298.2028-1.856.5487z"/><path d="m187.922 67.1838-47.786-35.1474c-.495-.3799-1.076-.6322-1.691-.7347s-1.246-.0521-1.838.1468c-.591.1989-1.124.5402-1.552.9938s-.738 1.0056-.903 1.6073l-17.448 78.2914 70.798-39.1456c.539-.2771.997-.6884 1.33-1.1943.334-.5058.531-1.089.573-1.6934.042-.6043-.072-1.2093-.332-1.7565s-.656-1.0182-1.151-1.3674z"/><path d="m140.08 217.895 47.842-35.148c.501-.352.904-.828 1.169-1.381s.384-1.164.344-1.776c-.039-.612-.235-1.204-.568-1.718-.334-.515-.794-.935-1.337-1.22l-70.826-39.146 17.448 78.292c.145.608.438 1.171.854 1.637.416.467.942.823 1.53 1.037.587.213 1.219.277 1.837.186.619-.091 1.205-.334 1.707-.707"/><path d="m101.327 123.526 18.175-85.0028c.139-.7044.065-1.4342-.214-2.096-.278-.6618-.748-1.2254-1.348-1.6188-.601-.3934-1.305-.5986-2.023-.5894-.718.0093-1.417.2325-2.007.6412l-46.5555 35.7066c-1.1789.9044-2.1329 2.0689-2.7877 3.4027-.6547 1.3338-.9926 2.8008-.9871 4.2867v90.5948c-.0228 1.504.3066 2.994.962 4.348.6555 1.355 1.6187 2.537 2.8128 3.453l46.3315 35.595c.591.409 1.289.632 2.007.641s1.423-.196 2.023-.589c.601-.394 1.07-.957 1.349-1.619.278-.662.352-1.392.214-2.096z"/></g></g></svg>