<svg fill="none" height="250" viewBox="0 0 250 250" width="250" xmlns="http://www.w3.org/2000/svg" xmlns:xlink="http://www.w3.org/1999/xlink"><clipPath id="a"><path d="m0 0h250v250h-250z"/></clipPath><g clip-path="url(#a)"><path d="m125 250c69.036 0 125-55.964 125-125 0-69.0365-55.964-125-125-125-69.0365 0-125 55.9635-125 125 0 69.036 55.9635 125 125 125z" fill="#f9f9f9"/><g fill="#1a1a1d"><path d="m125.814 167.911c7.274 0 14.547-2.182 21.82-5.818 20.364-11.637 27.637-38.548 16.001-58.912-11.637-20.365-38.548-27.6381-58.913-16.0011-10.1819 5.8185-16.7276 15.2731-20.3642 26.1831-2.9092 10.91-1.4546 22.547 4.3639 32.729 7.2731 14.546 21.8193 21.819 37.0923 21.819zm-28.3646-50.184c2.1819-7.273 6.5456-13.819 13.8186-17.456 4.364-2.9088 9.455-3.6361 14.546-3.6361 10.183 0 19.638 5.0911 25.456 14.5461 8.001 13.819 2.91 32.002-10.909 40.002-13.819 8.001-32.002 2.909-40.002-10.91-3.6369-7.273-5.0915-15.273-2.9096-22.546z"/><path d="m173.817 96.6349c5.818 9.4551 14.546 16.7281 25.455 19.6371 3.637.728 7.273 1.455 10.91 1.455 2.182 0 3.637 0 5.818-.727-.727-4.364-1.454-8.728-2.181-13.819-3.637.727-7.274 0-10.91-.728-7.273-2.182-13.092-6.5454-17.456-13.0912-3.636-6.5458-5.091-13.8189-2.909-21.0919.728-3.6366 2.909-6.5458 5.091-9.4551-3.636-2.9092-6.545-5.8184-10.909-8.7277-3.637 4.3639-5.819 9.455-7.273 14.5462-2.91 11.637-1.455 22.5466 4.364 32.0016z"/><path d="m199.272 133.728c-10.909 2.909-19.637 9.455-25.455 19.637-5.819 9.455-7.274 21.092-4.364 32.002 1.454 5.818 4.364 10.182 7.273 14.546 3.636-2.909 7.273-5.819 10.909-8.728-2.182-2.909-3.636-5.818-5.091-9.455-2.182-7.273-.727-14.546 2.909-21.092 3.637-6.546 10.183-10.909 17.456-13.091 3.636-.728 7.273-1.455 10.91-.728.727-4.364 1.454-8.727 2.181-13.819-5.818-1.454-10.909-.727-16.728.728z"/><path d="m125.086 194.822c11.637 0 21.819 7.273 26.183 17.455 4.364-1.455 8.728-2.909 13.092-5.091-6.546-15.274-21.092-26.183-38.548-26.183-17.455 0-32.7285 10.909-38.547 26.183 4.3638 2.182 8.7277 3.636 13.092 5.091 3.636-10.182 13.091-17.455 24.728-17.455z"/><path d="m125.086 68.9972c17.455 0 32.729-10.9097 38.547-26.1831-4.364-2.182-8-3.6366-13.091-5.0912-4.364 10.1823-14.547 17.4554-26.184 17.4554s-21.819-7.2731-26.1827-17.4554c-4.3638 1.4546-8.7277 2.9092-13.0916 5.0912 8.0004 15.2734 22.5463 26.1831 40.0023 26.1831z"/><path d="m77.0841 153.365c-5.8185-9.455-14.5462-16.728-25.4558-19.637-5.8185-1.455-10.9097-1.455-16.7282-.728.7274 4.364 1.4547 8.728 2.182 13.819h3.6365c2.1819 0 5.0912 0 7.2731.728 7.2731 2.182 13.0916 6.545 17.4554 13.091 5.8185 10.183 4.3639 22.547-2.1819 31.274 3.6366 2.91 6.5458 5.819 10.9096 8.728 9.4551-13.819 11.637-32.729 2.9093-47.275z"/><path d="m51.6283 116.272c10.9096-2.909 19.6373-9.455 25.4558-19.6371 5.8185-9.455 7.2731-21.092 4.3638-32.0016-1.4546-5.8185-4.3638-10.1823-7.2731-14.5462-4.3638 2.9093-8.0004 5.8185-10.9096 8.7277 2.1819 2.9093 3.6366 5.8185 5.0912 9.4551 2.1819 7.273.7273 14.5461-2.9093 21.0919-3.6365 6.5458-10.1823 10.9092-17.4554 13.0912-3.6365.728-7.2731 1.455-10.9096.728-.7273 4.364-1.4546 8.727-2.182 13.819 2.182 0 3.6366.727 5.8185.727 3.6366 0 7.2731 0 10.9097-1.455z"/></g></g></svg>