<svg fill="none" height="250" viewBox="0 0 250 250" width="250" xmlns="http://www.w3.org/2000/svg" xmlns:xlink="http://www.w3.org/1999/xlink"><clipPath id="a"><path d="m10.4167 10.4165h229.167v229.167h-229.167z"/></clipPath><g clip-path="url(#a)"><path d="m125.081 239.745c63.327 0 114.664-51.337 114.664-114.664 0-63.3276-51.337-114.6645-114.664-114.6645-63.3273 0-114.6643 51.3369-114.6643 114.6645 0 63.327 51.337 114.664 114.6643 114.664z" fill="#7866d5"/><g fill="#fff"><path d="m171.496 69.2853c3.882.4851 7.925.8086 11.806 1.4555 7.602 1.4555 10.189 5.337 8.895 13.0999-.323 2.911-2.587 5.1752-5.498 5.6604-1.779.3235-3.72.4852-5.499.3235-25.229 0-50.297.1617-75.526.1617-3.72 0-7.6015.3234-11.3212.9703-12.453 1.9408-17.3048 7.116-18.2751 19.7304-.4852 5.822-.4852 5.822 5.4987 5.822h100.2706 2.911c1.617 0 3.073.486 4.528 1.294 4.529 2.911 3.397 7.601 3.235 11.806-.162 3.397-2.264 5.337-5.822 5.984-1.456.324-2.911.324-4.529.324-34.286 0-68.572 0-102.8578 0-3.7197 0-3.7197 0-3.3963 3.719.1618 3.397.4852 6.793 1.2939 10.189 1.6172 6.146 5.3369 10.027 11.6443 11.806 6.7925 1.941 13.9089 2.264 20.8629 2.426h73.585c3.073 0 5.984.324 7.925 3.235 3.073 4.851 1.456 11.159-3.396 14.232-.647.485-1.294.808-2.103.97-5.337 1.779-10.835 2.102-16.496 2.264-23.127.485-46.092.485-69.057 0-7.116-.162-14.232-.97-21.1862-2.426-16.3344-3.396-24.5825-11.806-27.3318-28.302-.647-3.72-.9704-7.601-1.4556-11.483v-30.081c.3235-2.911.6469-5.984.9704-8.895 2.1024-18.5983 10.5122-27.8167 28.7873-32.0216 6.4691-1.4555 13.2616-1.779 19.7307-2.4259z"/><path d="m134.623 187.993c-11.645 0-23.127-.162-34.61-.324-7.2775-.162-14.5552-.97-21.6712-2.588-17.6282-3.719-26.6849-13.099-29.596-30.566-.4852-2.749-.8086-5.499-.9703-8.086-.1618-1.132-.3235-2.264-.4852-3.558v-.324-30.404l.3234-2.911c.1618-2.103.4852-4.043.6469-5.984 2.2642-19.8926 11.6444-30.0814 31.2133-34.448 5.1752-1.1321 10.1888-1.6172 15.2023-2.1024 1.6173-.1617 3.2345-.3235 4.8518-.4852h.3234 71.9686.162c1.132.1617 2.425.3235 3.558.3235 2.749.3234 5.498.4851 8.409 1.132 9.219 1.779 12.777 6.9543 11.159 16.3344-.485 4.0432-3.719 7.4395-8.086 8.0864-1.941.3234-3.881.4851-5.984.4851-25.067.1618-50.297.3235-75.364.3235-3.558 0-7.2781.3234-10.8361.9704-11.1591 1.7789-14.8788 5.8221-15.8492 17.1433 0 .97-.1617 1.94-.1617 2.749h2.7493 103.1817c2.102 0 4.205.647 5.984 1.617 5.499 3.558 5.013 8.895 4.69 12.777 0 .485-.162 1.132-.162 1.617-.323 4.528-3.073 7.601-8.086 8.571-1.779.324-3.396.324-5.014.324h-102.6961c-.1617 0-.4852 0-.6469 0v.485.162c.1617 3.396.4852 6.631 1.2938 9.865 1.2938 5.014 4.3666 8.086 9.5419 9.542 6.9542 1.941 14.0703 2.264 20.2153 2.264 19.084.162 38.491.162 57.413.162h16.173c2.426 0 7.44 0 10.351 4.69 1.94 3.073 2.426 6.631 1.617 10.027s-2.911 6.307-5.984 8.248c-.809.485-1.779.97-2.749 1.294-5.984 1.941-12.13 2.264-17.305 2.426-11.483 0-23.127.162-34.771.162zm-81.5106-45.607c.1618 1.132.3235 2.264.3235 3.396.3235 2.588.6469 5.175.9704 7.763 2.5876 15.202 9.8653 22.642 25.0676 25.876 6.7925 1.456 13.7468 2.264 20.7011 2.426 22.803.485 46.092.485 69.057 0 4.69-.162 10.351-.485 15.526-2.103.485-.161.97-.485 1.455-.646 1.618-1.132 2.912-2.75 3.397-4.69.485-1.941.161-3.882-.971-5.661-.97-1.455-2.264-1.941-5.337-1.941h-16.172c-18.761 0-38.329 0-57.413-.161-6.469 0-14.0704-.324-21.6716-2.588-7.2777-1.941-11.806-6.631-13.585-13.908-.8087-3.558-1.2939-7.278-1.2939-10.836v-.162c-.1617-2.264-.3234-3.881.9704-5.337 1.2938-1.455 3.0728-1.455 5.337-1.455h102.8581c1.294 0 2.749 0 4.043-.324 2.588-.485 3.235-1.617 3.396-3.234 0-.647.162-1.132.162-1.779.324-4.044.324-5.984-1.941-7.44-.808-.485-1.94-.808-2.911-.808h-103.5047c-3.558 0-5.6604 0-7.2777-1.618-1.6172-1.617-1.2938-3.881-1.1321-7.277 1.1321-13.9089 6.9543-20.2162 20.7011-22.3187 3.8814-.6469 7.7624-.9703 11.8064-1.1321 25.229 0 50.297-.1617 75.526-.1617 1.779 0 3.396 0 5.013-.3234 1.618-.1618 2.912-1.4556 3.073-3.0729 1.132-6.469-.485-8.5715-6.631-9.8653-2.587-.4852-5.175-.8086-7.762-.9703-1.132-.1618-2.426-.3235-3.558-.3235h-71.4836c-1.6172.1617-3.2345.3235-4.8518.4852-5.0135.4852-9.7036.8086-14.5554 1.9407-16.9813 4.2049-24.4207 12.453-26.3614 29.919-.1617 1.941-.4852 3.882-.6469 5.984l-.3235 2.75z"/></g></g></svg>