<svg fill="none" height="250" viewBox="0 0 250 250" width="250" xmlns="http://www.w3.org/2000/svg" xmlns:xlink="http://www.w3.org/1999/xlink"><clipPath id="a"><path d="m0 0h250v250h-250z"/></clipPath><g clip-path="url(#a)"><g fill="#fdba4d"><path d="m34.8034 179.16c4.0579-4.037 9.5521-6.298 15.2759-6.287 5.7237.011 11.209 2.294 15.2511 6.347 4.042 4.052 6.3102 9.543 6.3065 15.267s-2.2792 11.212-6.3265 15.26c-4.0473 4.047-9.5356 6.322-15.2593 6.326-5.7238.004-11.2151-2.264-15.2677-6.306s-6.3351-9.528-6.3463-15.252c-.0113-5.723 2.2498-11.218 6.2866-15.276z"/><path d="m182.68 38.7702c3.023-3.0239 6.876-5.0832 11.07-5.9176s8.542-.4063 12.492 1.2301c3.951 1.6364 7.328 4.4077 9.704 7.9633s3.644 7.7359 3.644 12.0122c0 4.2764-1.268 8.4567-3.644 12.0123s-5.753 6.3269-9.704 7.9633c-3.95 1.6364-8.298 2.0645-12.492 1.2301s-8.047-2.8937-11.07-5.9177c-4.049-4.0464-6.326-9.5345-6.331-15.2585-.005-5.7241 2.262-11.2161 6.304-15.2696h.027"/><path d="m62.5293 162.526 22.8123 22.812 20.8984-20.898c-5.158-2.07-9.8424-5.164-13.7721-9.094-3.9297-3.929-7.0232-8.614-9.0938-13.771z"/><path d="m165.11 106.708 20.898-20.8981-22.812-22.8123-20.898 20.898c5.158 2.0694 9.843 5.1627 13.773 9.0931 3.925 3.9024 7.002 8.5733 9.039 13.7193z"/></g><g fill="#5da9dd"><path d="m181.951 208.656c-3.024-3.023-5.083-6.876-5.918-11.07-.834-4.194-.406-8.542 1.231-12.492 1.636-3.951 4.407-7.328 7.963-9.704 3.555-2.376 7.736-3.644 12.012-3.644s8.457 1.268 12.012 3.644c3.556 2.376 6.327 5.753 7.964 9.704 1.636 3.95 2.064 8.298 1.23 12.492-.835 4.194-2.894 8.047-5.918 11.07-2.004 2.008-4.384 3.602-7.004 4.69s-5.428 1.649-8.265 1.652c-2.837.002-5.646-.554-8.268-1.638-2.622-1.083-5.005-2.673-7.012-4.677z"/><path d="m36.9731 67.4215c-3.0239-3.0238-5.0833-6.8763-5.9176-11.0704-.8344-4.1942-.4063-8.5416 1.2301-12.4924s4.4076-7.3277 7.9633-9.7035c3.5556-2.3759 7.7359-3.644 12.0122-3.644s8.4566 1.2681 12.0122 3.644c3.5557 2.3758 6.3269 5.7527 7.9633 9.7035s2.0645 8.2982 1.2302 12.4924c-.8344 4.1941-2.8938 8.0466-5.9177 11.0704-2.0058 2.0061-4.3871 3.5974-7.008 4.6831-2.6208 1.0858-5.4299 1.6446-8.2667 1.6446s-5.6459-.5588-8.2667-1.6446c-2.6209-1.0857-5.0022-2.677-7.008-4.6831"/><path d="m161.473 184.429 22.813-22.812-20.898-20.898c-2.071 5.157-5.165 9.842-9.094 13.772-3.93 3.929-8.615 7.023-13.772 9.093"/><path d="m107.984 82.7095-20.8982-20.898-22.8124 22.8123 20.8981 20.8982c2.0694-5.158 5.1627-9.8433 9.0931-13.7726 3.9024-3.9252 8.5734-7.0027 13.7194-9.0399z"/></g><g fill="#18568c"><path d="m146.191 21.6425c-.005 5.7343-2.286 11.2322-6.343 15.2848-4.057 4.0525-9.558 6.3279-15.292 6.3258s-11.233-2.2816-15.287-6.3371-6.331-9.5551-6.331-15.2895c0-5.7343 2.277-11.2339 6.331-15.28941 4.054-4.05554 9.553-6.33497358 15.287-6.33708853s11.235 2.27326853 15.292 6.32580853c4.057 4.05259 6.338 9.55049 6.343 15.28479z"/><path d="m146.191 228.357c-.005 5.735-2.286 11.233-6.343 15.285-4.057 4.053-9.558 6.328-15.292 6.326s-11.233-2.282-15.287-6.337c-4.054-4.056-6.331-9.555-6.331-15.29 0-5.734 2.277-11.234 6.331-15.289 4.054-4.056 9.553-6.335 15.287-6.337s11.235 2.273 15.292 6.326c4.057 4.052 6.338 9.55 6.343 15.284z"/><path d="m132.407 54.6118h-13.613v26.8005c4.504-.7816 9.109-.7816 13.613 0"/><path d="m132.407 169.769c-4.504.781-9.109.781-13.613 0v26.8h13.613"/></g><g fill="#18578c"><path d="m220.307 140.718c-5.735-.004-11.233-2.285-15.285-6.342-4.053-4.057-6.328-9.558-6.326-15.292s2.282-11.233 6.337-15.287c4.056-4.0543 9.555-6.3317 15.29-6.3317 5.734 0 11.234 2.2774 15.289 6.3317 4.056 4.054 6.335 9.553 6.337 15.287s-2.273 11.235-6.326 15.292c-4.052 4.057-9.55 6.338-15.284 6.342z"/><path d="m21.6427 144.393c-4.2802 0-8.4644-1.269-12.02333-3.647-3.55897-2.378-6.33295-5.758-7.97117-9.712-1.63822608-3.954-2.06713-8.306-1.232481-12.504.834651-4.198 2.895371-8.054 5.921591-11.081s6.88209-5.089 11.07989-5.925c4.1979-.835 8.5493-.407 12.5041 1.23 3.9547 1.637 7.3352 4.41 9.7139 7.969 2.3788 3.558 3.649 7.742 3.65 12.022.0007 2.843-.5586 5.658-1.6459 8.284s-2.6814 5.013-4.6911 7.023c-2.0098 2.01-4.3959 3.605-7.022 4.693s-5.4409 1.648-8.2835 1.648z"/><path d="m165.275 129.557h26.801v-13.634h-26.801c.782 4.504.782 9.109 0 13.613z"/><path d="m82.0022 129.557c-.7816-4.504-.7816-9.109 0-13.613h-26.8005v13.613"/></g><path d="m154.582 124.346c0 6.068-1.8 12-5.171 17.046-3.372 5.046-8.164 8.978-13.77 11.301-5.607 2.322-11.776 2.93-17.728 1.746-5.951-1.184-11.419-4.106-15.71-8.397-4.2905-4.291-7.2128-9.758-8.3966-15.71-1.1839-5.952-.5763-12.121 1.746-17.728 2.3222-5.606 6.2546-10.398 11.3006-13.7695 5.046-3.3714 10.978-5.1709 17.046-5.1709 8.137.0028 15.939 3.2363 21.693 8.9894 5.753 5.754 8.987 13.556 8.99 21.693z" fill="#18568b"/></g></svg>