<svg fill="none" height="250" viewBox="0 0 250 250" width="250" xmlns="http://www.w3.org/2000/svg" xmlns:xlink="http://www.w3.org/1999/xlink"><clipPath id="a"><path d="m0 0h250v250h-250z"/></clipPath><g clip-path="url(#a)"><path clip-rule="evenodd" d="m125 0c69.025 0 125 55.975 125 125s-55.975 125-125 125-125-55.975-125-125 55.975-125 125-125z" fill="#fff" fill-rule="evenodd"/><path d="m193.479 167.697c-1.986-32.438-46.201-47.182-50.432-48.697-.173-.079-.173-.239-.086-.398l45.596-42.241v-4.5429c0-.7173-.691-1.3549-1.469-1.3549h-84.024v-25.4243-7.6512l-31.0014 5.9775v4.3038h1.7271s7.5993 0 7.5993 7.0136v15.7009h-24.0069c-.4318 0-.8635.3985-.8635.797v9.9625h24.9568v22.954 31.162c0 16.976 11.8307 28.772 32.5566 27.178 4.404-.319 8.462-1.913 11.917-3.985 1.554-.956 2.504-2.471 2.504-4.224v-5.34c-6.736 4.144-12.435 3.905-12.435 3.905-13.126 0-12.867-15.382-12.867-15.382v-56.268h60.449l-43.524 40.488c-.086 5.339-.172 9.484-.172 9.564 0 .159.086.239.259.239 39.896 6.216 50.691 30.047 50.691 36.98 0 0 4.317 33.713-32.211 36.025 0 0-23.921.956-28.152-7.891-.173-.318 0-.637.345-.797 3.973-1.673 6.65-4.941 6.65-9.324 0-6.536-4.318-11.876-13.385-11.876-7.3406 0-13.3856 5.34-13.3856 11.876 0 0-3.4542 28.373 47.8416 27.576 58.549-.957 54.922-46.306 54.922-46.306z" fill="#0d61ff"/></g></svg>