<svg fill="none" height="84" viewBox="0 0 84 84" width="84" xmlns="http://www.w3.org/2000/svg"><path d="m67.9043 14.4096h-51.8643v47.1383h51.8643z" fill="#fff"/><path clip-rule="evenodd" d="m83.9719 42c0 23.1653-18.7913 41.9441-41.972 41.9441-23.1805 0-41.972068-18.7788-41.972068-41.9441 0-23.1651 18.791568-41.9441528 41.972068-41.9441528 23.1807 0 41.972 18.7790528 41.972 41.9441528zm-53.8657 16.6916h-8.1456c-1.7116 0-2.5571 0-3.0726-.3295-.5568-.3608-.8971-.9584-.9383-1.618-.031-.6076.3918-1.3498 1.2373-2.8336l20.1125-35.4274c.8558-1.5044 1.2888-2.2566 1.8353-2.5348.5877-.2988 1.2889-.2988 1.8766 0 .5465.2782.9796 1.0304 1.8353 2.5348l4.1347 7.2128.0211.0368c.9243 1.6139 1.3931 2.4324 1.5978 3.2914.2267.9376.2267 1.9268 0 2.8645-.2063.8655-.6703 1.6899-1.6086 3.3282l-10.5646 18.6628-.0273.0478c-.9304 1.6273-1.402 2.452-2.0555 3.0742-.7114.6803-1.5672 1.1745-2.5055 1.4532-.8559.2368-1.8147.2368-3.7326.2368zm20.5703 0h11.6717c1.7219 0 2.5882 0 3.1041-.3395.5566-.3608.907-.969.9383-1.6281.0296-.5881-.3839-1.3013-1.1943-2.6989-.0279-.0476-.0559-.096-.0844-.1452l-5.8465-9.9949-.0665-.1126c-.8215-1.3883-1.2362-2.0894-1.7688-2.3604-.5874-.2989-1.2788-.2989-1.8662 0-.5362.2782-.9692 1.0098-1.825 2.4832l-5.8257 9.995-.02.0344c-.8528 1.4711-1.279 2.2063-1.2482 2.8095.0412.6596.3815 1.2672.9382 1.628.5053.3295 1.3714.3295 3.0933.3295z" fill="#e84142" fill-rule="evenodd"/></svg>