<svg fill="none" height="250" viewBox="0 0 250 250" width="250" xmlns="http://www.w3.org/2000/svg" xmlns:xlink="http://www.w3.org/1999/xlink"><clipPath id="a"><path d="m0 0h250v250h-250z"/></clipPath><g clip-path="url(#a)"><path d="m202.096 42.8856h-154.3581v140.2924h154.3581z" fill="#fff"/><path clip-rule="evenodd" d="m249.917 125c0 68.944-55.927 124.834-124.917 124.834-68.9897 0-124.9168396-55.89-124.9168396-124.834 0-68.9438 55.9271396-124.833776 124.9168396-124.833776 68.99 0 124.917 55.889976 124.917 124.833776zm-160.3149 49.678h-24.2428c-5.0942 0-7.6105 0-9.1447-.981-1.6572-1.074-2.6699-2.853-2.7926-4.816-.0922-1.808 1.1662-4.017 3.6825-8.433l59.8585-105.4389c2.547-4.4774 3.836-6.7161 5.462-7.544 1.749-.8893 3.836-.8893 5.585 0 1.627.8279 2.916 3.0666 5.463 7.544l12.305 21.4668.063.1095c2.751 4.8034 4.146 7.2392 4.755 9.7957.675 2.7908.675 5.7348 0 8.5255-.613 2.5759-1.994 5.0294-4.787 9.9054l-31.442 55.544-.082.142c-2.769 4.843-4.172 7.298-6.117 9.15-2.117 2.024-4.664 3.495-7.457 4.325-2.5472.705-5.4009.705-11.1089.705zm61.2209 0h34.738c5.124 0 7.702 0 9.238-1.011 1.656-1.074 2.699-2.884 2.793-4.846.088-1.75-1.143-3.873-3.555-8.032-.083-.142-.166-.286-.251-.432l-17.4-29.747-.198-.335c-2.445-4.132-3.68-6.218-5.265-7.025-1.748-.889-3.806-.889-5.554 0-1.596.828-2.884 3.005-5.432 7.391l-17.338 29.746-.059.103c-2.538 4.378-3.807 6.566-3.715 8.361.122 1.963 1.135 3.772 2.792 4.846 1.504.981 4.082.981 9.206.981z" fill="#e84142" fill-rule="evenodd"/></g></svg>