<svg fill="none" height="250" viewBox="0 0 250 250" width="250" xmlns="http://www.w3.org/2000/svg" xmlns:xlink="http://www.w3.org/1999/xlink"><clipPath id="a"><path d="m0 0h250v250h-250z"/></clipPath><g clip-path="url(#a)"><path d="m125 0c69.036 0 125 55.9643 125 125 0 69.036-55.964 125-125 125-69.0357 0-125-55.964-125-125 0-69.0357 55.9643-125 125-125z" fill="#1a82ff"/><path d="m170.699 176.472c-10.821 13.257-26.04 19.886-45.657 19.886-19.616 0-34.8378-6.629-45.6639-19.886-10.8286-13.264-16.2405-30.41-16.2358-51.436.0048-21.026 5.4143-38.1688 16.2286-51.4283 10.8214-13.2643 26.0431-19.8952 45.6641-19.8929 19.622.0024 34.841 6.6334 45.657 19.8929 10.822 13.2571 16.234 30.4003 16.236 51.4283.002 21.029-5.407 38.174-16.229 51.436z" fill="#fff"/><g fill="#1a82ff"><path d="m124.814 168.635c5.165 0 9.555-1.407 13.172-4.222 3.616-2.814 6.235-6.631 7.857-11.45 1.619-4.821 2.762-9.442 3.428-13.864.667-4.421.998-9.109.993-14.064 0-6.1-.369-11.56-1.107-16.379l-44.493 46.365c4.115 9.071 10.831 13.609 20.15 13.614z"/><path d="m125.257 81.4375c-5.164 0-9.555 1.4071-13.171 4.2213-3.617 2.8142-6.236 6.6308-7.857 11.4498-1.629 4.8214-2.772 9.4424-3.429 13.8644-.667 4.421-.9976 9.109-.9928 14.063 0 3.265.1047 6.346.3138 9.243l42.436-44.2131c-4.121-5.7499-9.888-8.626-17.3-8.6284z"/><path d="m66.6 169.238-5.4643-5.243 41.4353-43.193 5.465 5.243zm78.071-45.072-5.464-5.243 41.436-43.1925 5.464 5.2428z"/></g></g></svg>