<svg fill="none" height="250" viewBox="0 0 250 250" width="250" xmlns="http://www.w3.org/2000/svg" xmlns:xlink="http://www.w3.org/1999/xlink"><linearGradient id="a"><stop offset="0" stop-color="#2ab8e6"/><stop offset=".53" stop-color="#29cad2"/><stop offset="1" stop-color="#2ee4be"/></linearGradient><linearGradient id="b" gradientUnits="userSpaceOnUse" x1="64.821" x2="185.179" xlink:href="#a" y1="64.8173" y2="185.175"/><linearGradient id="c" gradientUnits="userSpaceOnUse" x1="8804.91" x2="14723.6" xlink:href="#a" y1="14152.1" y2="17822.1"/><clipPath id="d"><path d="m0 0h250v250h-250z"/></clipPath><g clip-path="url(#d)"><path d="m0 125c0-69.0356 55.9644-125 125-125 69.036 0 125 55.9644 125 125 0 69.036-55.964 125-125 125-69.0356 0-125-55.964-125-125z" fill="#202637"/><path d="m83.7529 53.75h82.5001v142.5h-82.5001z" fill="#1b1f2b"/><path clip-rule="evenodd" d="m75.8943 53.7492 7.8585-7.8586h82.5002l7.858 7.8586v142.4998l-7.858 7.859h-82.5002l-7.8585-7.859zm15.7171 7.8585v126.7833h66.7826v-126.7833z" fill="url(#b)" fill-rule="evenodd"/><path d="m150 147.497h-17.084v17.898h-15.416v-17.898h-17.084v-15.416h49.584zm0-44.169h-17.084v-17.8983h-15.416v17.8983h-17.084v15.416h49.584z" fill="url(#c)"/></g></svg>