<svg width="24" height="24" fill="none" xmlns="http://www.w3.org/2000/svg"><g clip-path="url(#a)"><g clip-path="url(#b)"><path d="M12 24c6.627 0 12-5.373 12-12S18.627 0 12 0 0 5.373 0 12s5.373 12 12 12Z" fill="#fff"/><g clip-path="url(#c)"><path fill-rule="evenodd" clip-rule="evenodd" d="M20.983 13.028c0 .091-.02.179-.057.255l-3.852 7.186a.905.905 0 0 1-.792.493h-8.56a.905.905 0 0 1-.792-.493l-3.852-7.187a.574.574 0 0 1-.057-.254c0-.298.224-.539.5-.539h4.226l1.071 1.96.007.011a.48.48 0 0 0 .678.18l.012-.008a.538.538 0 0 0 .218-.322l1.365-5.683 1.172 9.15.002.012c.043.288.292.488.562.448l.012-.002a.516.516 0 0 0 .404-.397l1.645-6.85.675 1.236.007.012a.493.493 0 0 0 .424.253h4.482c.276 0 .5.241.5.539ZM16.282 3.022c.327 0 .629.188.792.493l3.852 7.186a.578.578 0 0 1 .057.255c0 .298-.224.539-.5.539h-4.24l-1.071-1.96-.008-.013a.504.504 0 0 0-.298-.235l-.011-.003c-.264-.067-.53.106-.598.39l-1.365 5.682-1.172-9.149-.002-.013a.526.526 0 0 0-.368-.435c-.267-.074-.54.099-.61.387l-1.644 6.85-.676-1.236-.007-.012a.493.493 0 0 0-.424-.253H3.521c-.276 0-.5-.241-.5-.539 0-.09.019-.177.055-.252l3.854-7.19a.905.905 0 0 1 .792-.492h8.56Z" fill="url(#d)"/></g></g></g><defs><clipPath id="a"><path fill="#fff" d="M0 0h24v24H0z"/></clipPath><clipPath id="b"><path fill="#fff" d="M0 0h24v24H0z"/></clipPath><clipPath id="c"><path fill="#fff" transform="translate(3 3)" d="M0 0h18v18H0z"/></clipPath><linearGradient id="d" x1="17.778" y1="1.224" x2="7.211" y2="21.053" gradientUnits="userSpaceOnUse"><stop stop-color="#00EAFF"/><stop offset=".25" stop-color="#0080FF"/><stop offset=".5" stop-color="#8000FF"/><stop offset=".75" stop-color="#E619E6"/><stop offset="1" stop-color="red"/></linearGradient></defs></svg>
