<svg fill="none" height="250" viewBox="0 0 250 250" width="250" xmlns="http://www.w3.org/2000/svg"><path d="m244.905 99.0095c-10.279 0-20.537 0-31.038 0-9.744-28.532-28.213-49.1085-56.681-59.9595-18.864-7.1905-38.124-7.338-57.4126-1.548-39.1525 11.753-66.559 50.442-64.442 90.864 2.26 43.156 32.451 78.426 73.6326 86.524 43.355 8.525 90.168-16.717 104.931-63.849h30.958c-9.267 48.05-56.477 98.676-124.102 95.871-64.1366-2.659-115.36409-56.094-115.86659-120.969-.5025-64.918 49.02899-116.70648 109.99259-122.39648 67.75-6.32351 119.705 43.25598 130.028 95.46298zm-89.608 2.0995c-3.682-11.9355-15.124-20.386-28.143-20.477-13.178-.0925-24.89 8.267-28.6441 20.233-3.3175 10.574-.392 24.035 17.3941 33.786v34.489h22.09c0-11.713 0-23.194 0-34.585 17.09-9.31 20.638-22.639 17.303-33.446z" fill="#20a549"/></svg>