<svg fill="none" height="250" viewBox="0 0 250 250" width="250" xmlns="http://www.w3.org/2000/svg" xmlns:xlink="http://www.w3.org/1999/xlink"><clipPath id="a"><path d="m0 0h250v250h-250z"/></clipPath><g clip-path="url(#a)"><path d="m125 250c69.036 0 125-55.964 125-125 0-69.0356-55.964-125-125-125-69.0356 0-125 55.9644-125 125 0 69.036 55.9644 125 125 125z" fill="#377e96"/><path clip-rule="evenodd" d="m184.57 234.922.657-.484c-1.813-3.321-4.75-5.063-8.055-5.852-4.719-1.125-9.516-2.164-14.328-2.5-10.696-.773-21.422-.953-32.125-1.602-11.922-.726-23.828-1.734-35.7581-2.515-1.039-.078-2.5312.312-3.125 1.055-3.125 3.828-6.1484 7.765-8.9609 11.828-1.375 1.992-2.2266 4.336-3.2969 6.484l.8203.469c-4.7025-1.796-9.2917-3.875-13.7421-6.227.8125.156 1.875.031 2.2734-.367 4.8906-4.898 9.625-9.953 14.3828-14.953-3.5547-2.844-7.0312-5.367-10.1953-8.227-2.9531-2.672-4.1875-6.211-3.9297-10.265.3906-6.227 3.1172-11.532 7.125-15.985 4.7422-5.257 10.0625-10 15.1406-14.953.625-.601 1.2735-1.156 1.8516-1.687-.1953-.344-.2188-.446-.2734-.485l-1.4844-.859c-16.3125-9.406-24.4453-23.695-24.6563-42.344-.1875-15.969 6.6094-28.8983 18.6328-39.1092 11.7188-9.9453 25.5236-13.4375 40.6716-13.0937 11.211.2578 21.688 2.7343 31.446 8.3046.547.3125 1.922-.0546 2.422-.5781 4.617-4.8359 9.296-9.625 13.625-14.7265 5.375-6.3282 9.921-13.2032 11.804-21.5 1.469-6.4688.844-12.5469-3.844-17.5938-6.882-7.4141-18.726-6.4141-24.765 2.0313-1.188 1.6562-1.875 3.6718-3.039 5.3671-.43.625-1.524.8047-2.321 1.1954-.187-.7032-.625-1.4297-.523-2.0782.266-1.7812.609-3.5937 1.195-5.2812 2.969-8.5156 8.485-14.3281 17.735-15.625 3.008-.4219 6.133-.0703 9.273-.0703-.156-.211-.219-.3907-.344-.4453-.581-.3133-1.173-.6077-1.773-.8829-5.896-2.69351-11.986-4.93944-18.219-6.71871 11.706 3.28651 22.866 8.27181 33.125 14.79691.063.6797.024.8593.102.9531 6.898 8.5078 6.015 17.5312 1.672 26.7187-3.688 7.7735-9.063 14.3516-14.868 20.6172-5.312 5.7344-10.656 11.4453-16.007 17.1875.218.1407.343.2969.468.2969 8.18.0078 16.36.125 24.532-.0469 4.265-.0781 8.054-1.4922 10.687-5.2656.5-.7266 1.86-.8594 2.828-1.2656l.547.7578c-2.265 6.5312-4.5 13.0703-6.89 19.5469-.204.5468-1.407.9922-2.172 1.0234-2.891.1252-5.782.0542-8.672.0542h-10.391l1.18 2.344c5.625 11.016 7.117 22.696 4.273 34.61-4.195 17.578-15.695 28.937-32.422 34.843-13.656 4.829-27.671 4.657-41.695 1.305-1.242-.297-3.164-.547-3.828.117-3.0157 3.016-6.2032 6.055-8.3751 9.664-4.4765 7.438-1.875 12.61 6.6563 14.407l.2422.031c8.3746.648 16.7426 1.445 25.1246 1.906 11.86.649 23.735.906 35.586 1.617 7.18.43 14.266 1.696 20.735 5.125 8.328 4.399 14.226 10.883 16.812 20.36.61-.43 1.219-.86 1.828-1.305-4.867 3.648-10 6.953-15.39 9.875zm-37.89 13.203c-7.583 1.327-15.272 1.954-22.969 1.875 7.691-.076 15.367-.702 22.969-1.875zm103.32-122.734v-.391c0-10.781-1.367-21.242-3.93-31.2187 2.553 10.3467 3.872 20.9597 3.93 31.6177zm-29.062-80.5081c-7.245-8.6685-15.625-16.3207-24.915-22.75 9.508 6.875 17.836 14.4531 24.922 22.75zm-156.0474 189.7261c-6.1663-3.388-12.036-7.289-17.5468-11.664 5.5703 4.227 11.6484 7.852 17.5468 11.664zm-64.8905896-109.367c.0153267-6.659.5297886-13.308 1.5390596-19.89-1.037812 6.576-1.5524459 13.225-1.5390596 19.882zm22.7812896-72.2107c4.9032-6.8209 10.4211-13.1782 16.4843-18.9922-6.1155 5.7612-11.6379 12.1212-16.4843 18.9844zm64.1953-47.14062c12.3212-3.79948 25.1304-5.783852 38.0234-5.89062706-12.903-.01187874-25.7292 1.97522706-38.0234 5.89062706zm65.8824 124.23432-.468-.117c-.274-3.781-.422-7.578-.828-11.344-.922-8.719-3.399-16.953-8.204-24.3749-7.109-11-18.984-15.4375-30.375-11.0312-9.351 3.6093-14.3121 11.0312-16.5465 20.4921-2.125 8.953-1.9531 18.024-.875 27.055 1.0391 8.594 3.4922 16.773 8.4375 24.047 6.359 9.336 15.227 13.414 26.25 11.57 10.469-1.734 17.047-8.508 19.727-18.578 1.539-5.75 1.961-11.797 2.89-17.719z" fill="#fff" fill-rule="evenodd"/></g></svg>