<svg width="24" height="24" viewBox="0 0 24 24" fill="none" xmlns="http://www.w3.org/2000/svg">
<g clip-path="url(#clip0_1_12526)">
<circle cx="12" cy="12" r="12" fill="#FF007A"/>
<path d="M9.27821 5.25346C9.07587 5.22434 9.06624 5.21463 9.16259 5.20493C9.34566 5.17581 9.76961 5.21463 10.0683 5.28258C10.7621 5.44758 11.3883 5.87466 12.0532 6.62205L12.2266 6.82588L12.4771 6.78705C13.5467 6.61234 14.6451 6.74823 15.5604 7.17531C15.811 7.29178 16.206 7.52473 16.2542 7.58297C16.2734 7.60238 16.3024 7.72856 16.3216 7.85475C16.3891 8.31094 16.3602 8.65066 16.2156 8.91273C16.1386 9.05833 16.1386 9.09715 16.1867 9.22333C16.2253 9.3204 16.3409 9.38834 16.4469 9.38834C16.6781 9.38834 16.919 9.0195 17.0346 8.50507L17.0828 8.30124L17.1695 8.3983C17.6609 8.95156 18.0463 9.71835 18.1042 10.2619L18.1234 10.4075L18.0367 10.2813C17.8922 10.0581 17.7573 9.91248 17.5742 9.7863C17.2466 9.56305 16.8997 9.49511 15.9844 9.44658C15.1558 9.39805 14.6836 9.3301 14.2211 9.1748C13.431 8.91273 13.0263 8.57301 12.0917 7.3209C11.6774 6.76764 11.4173 6.46675 11.1571 6.21438C10.5886 5.66112 10.0201 5.36993 9.27821 5.25346Z" fill="white"/>
<path d="M16.4565 6.48614C16.4758 6.1173 16.5239 5.87464 16.6299 5.6514C16.6685 5.56404 16.707 5.48639 16.7166 5.48639C16.7263 5.48639 16.707 5.55433 16.6781 5.63198C16.601 5.84552 16.5914 6.14642 16.6396 6.48614C16.707 6.92292 16.7359 6.98116 17.1984 7.45677C17.4104 7.68001 17.6609 7.9615 17.7572 8.07797L17.921 8.29151L17.7572 8.13621C17.5549 7.94208 17.0924 7.57324 16.9864 7.52471C16.919 7.48589 16.9093 7.48589 16.8612 7.53442C16.8226 7.57324 16.813 7.63148 16.813 7.91297C16.8034 8.34975 16.7455 8.62152 16.601 8.90301C16.5239 9.0486 16.5143 9.01948 16.5817 8.85448C16.6299 8.72829 16.6396 8.67006 16.6396 8.25269C16.6396 7.40824 16.5432 7.2044 15.9554 6.86468C15.8109 6.77733 15.5604 6.65115 15.4159 6.5832C15.2617 6.51526 15.1461 6.45702 15.1557 6.45702C15.175 6.43761 15.7435 6.60261 15.9651 6.69968C16.3023 6.83557 16.3601 6.84527 16.3987 6.83557C16.4276 6.80645 16.4468 6.7288 16.4565 6.48614Z" fill="white"/>
<path d="M9.67327 7.93238C9.26859 7.36941 9.00843 6.49585 9.06625 5.84553L9.08552 5.64169L9.18187 5.66111C9.35531 5.69022 9.654 5.8067 9.79853 5.89406C10.1839 6.12701 10.3574 6.44732 10.5212 7.24323C10.5694 7.47618 10.6368 7.74796 10.6657 7.83532C10.7139 7.98091 10.897 8.32063 11.0511 8.53417C11.1571 8.68947 11.0897 8.76712 10.8488 8.74771C10.4826 8.70888 9.99124 8.36916 9.67327 7.93238Z" fill="white"/>
<path d="M15.9651 12.1546C14.0573 11.3781 13.3828 10.7084 13.3828 9.57276C13.3828 9.40775 13.3924 9.27187 13.3924 9.27187C13.4021 9.27187 13.4695 9.3301 13.5562 9.39805C13.9417 9.70865 14.3752 9.84454 15.5797 10.0193C16.283 10.126 16.6877 10.2037 17.0539 10.3299C18.2197 10.7181 18.9424 11.514 19.1158 12.5914C19.164 12.902 19.1351 13.4941 19.058 13.8047C18.9906 14.0474 18.7979 14.4939 18.7497 14.5036C18.74 14.5036 18.7208 14.455 18.7208 14.3774C18.7015 13.9697 18.4992 13.5815 18.1619 13.2806C17.7572 12.9311 17.2369 12.6691 15.9651 12.1546Z" fill="white"/>
<path d="M14.6162 12.4749C14.5969 12.3293 14.5487 12.1449 14.5198 12.0673L14.4716 11.9217L14.5583 12.0284C14.6836 12.174 14.78 12.3488 14.8667 12.5914C14.9341 12.7758 14.9341 12.8341 14.9341 13.135C14.9341 13.4262 14.9245 13.4941 14.8667 13.6591C14.7703 13.9212 14.6547 14.1056 14.462 14.3094C14.1151 14.6686 13.6623 14.8627 13.0167 14.95C12.9011 14.9597 12.5735 14.9889 12.2844 15.0083C11.5618 15.0471 11.08 15.1248 10.6464 15.2801C10.5886 15.2995 10.5308 15.3189 10.5212 15.3092C10.5019 15.2898 10.8006 15.1151 11.0415 14.9986C11.3787 14.8336 11.7256 14.7462 12.4868 14.6103C12.8625 14.5521 13.2479 14.4744 13.3443 14.4356C14.2982 14.1347 14.7703 13.3873 14.6162 12.4749Z" fill="white"/>
<path d="M15.493 14.0377C15.2425 13.4844 15.1847 12.9603 15.3196 12.4652C15.3389 12.4167 15.3581 12.3682 15.3774 12.3682C15.3967 12.3682 15.4545 12.3973 15.5123 12.4361C15.6279 12.5138 15.8688 12.6497 16.4855 12.9894C17.2659 13.4165 17.7092 13.7465 18.0175 14.125C18.2873 14.455 18.4511 14.8336 18.5282 15.2995C18.5763 15.5616 18.5474 16.1925 18.48 16.4545C18.268 17.2796 17.7862 17.9396 17.0829 18.3181C16.9769 18.3764 16.8902 18.4152 16.8805 18.4152C16.8709 18.4152 16.9094 18.3181 16.9672 18.2017C17.1985 17.7066 17.2274 17.231 17.054 16.6972C16.948 16.3672 16.7264 15.9692 16.2831 15.2995C15.7532 14.523 15.6279 14.3191 15.493 14.0377Z" fill="white"/>
<path d="M8.31465 17.0078C9.02766 16.406 9.90447 15.9789 10.7138 15.843C11.0607 15.7848 11.6388 15.8042 11.9568 15.8916C12.4675 16.0274 12.93 16.3186 13.1708 16.6778C13.4021 17.0272 13.5081 17.3281 13.6141 17.9978C13.6526 18.2599 13.7008 18.5317 13.7104 18.5899C13.7875 18.9393 13.9417 19.2111 14.1344 19.3567C14.4331 19.58 14.9534 19.5897 15.464 19.3955C15.5508 19.3664 15.6278 19.3373 15.6278 19.347C15.6471 19.3664 15.387 19.5411 15.2135 19.6285C14.9726 19.7547 14.7799 19.7935 14.5198 19.7935C14.0573 19.7935 13.6622 19.5508 13.3443 19.0655C13.2768 18.9685 13.1419 18.687 13.0263 18.4249C12.6891 17.6387 12.5156 17.4057 12.1206 17.1437C11.7737 16.9204 11.3305 16.8719 10.9933 17.0369C10.55 17.2504 10.4344 17.8231 10.7427 18.1725C10.868 18.3181 11.0992 18.4346 11.292 18.4637C11.6485 18.5123 11.9568 18.2308 11.9568 17.8716C11.9568 17.6387 11.8701 17.5028 11.6388 17.396C11.3305 17.2601 10.9933 17.4154 11.0029 17.7163C11.0029 17.8425 11.0607 17.9202 11.186 17.9784C11.263 18.0172 11.263 18.0172 11.2052 18.0075C10.9258 17.9493 10.8584 17.5999 11.08 17.3766C11.3498 17.1048 11.9182 17.2213 12.111 17.5999C12.188 17.7552 12.1977 18.0658 12.1302 18.2599C11.9664 18.687 11.5039 18.9102 11.0318 18.784C10.7138 18.6967 10.5789 18.6093 10.1935 18.2114C9.51906 17.5125 9.25891 17.3766 8.29538 17.231L8.1123 17.2019L8.31465 17.0078Z" fill="white"/>
<path fill-rule="evenodd" clip-rule="evenodd" d="M4.70593 3.17413C6.95095 5.92101 8.95037 8.408 9.1238 8.64095C9.26833 8.83508 9.21052 9.0195 8.96964 9.15539C8.83474 9.23304 8.55532 9.31069 8.42042 9.31069C8.26626 9.31069 8.08319 9.23304 7.95793 9.10686C7.87121 9.0195 7.49543 8.46624 6.64753 7.13648C6.00196 6.11731 5.45275 5.27287 5.44312 5.26316C5.40457 5.24375 5.40457 5.24375 6.58008 7.35972C7.322 8.68948 7.56288 9.16509 7.56288 9.22333C7.56288 9.34951 7.52434 9.41746 7.37018 9.59217C7.11002 9.88336 6.9944 10.2134 6.90768 10.9025C6.81133 11.6693 6.55118 12.2129 5.80926 13.135C5.37567 13.6785 5.30822 13.7756 5.20223 13.9988C5.06734 14.2706 5.0288 14.4259 5.00953 14.7753C4.99026 15.1442 5.0288 15.3771 5.13479 15.7265C5.23114 16.0371 5.33713 16.241 5.59728 16.6389C5.81889 16.9884 5.95379 17.2504 5.95379 17.3475C5.95379 17.4251 5.97306 17.4251 6.31993 17.3475C7.14856 17.1534 7.83267 16.8234 8.20845 16.4157C8.43969 16.1633 8.49751 16.0274 8.49751 15.678C8.49751 15.4548 8.48787 15.4062 8.43006 15.2704C8.33371 15.0568 8.15064 14.8821 7.75559 14.6103C7.23528 14.2512 7.01367 13.96 6.95586 13.5717C6.90768 13.2417 6.96549 13.0185 7.25455 12.407C7.55325 11.7761 7.63033 11.514 7.67851 10.8734C7.70741 10.4657 7.75559 10.3007 7.87121 10.1745C7.99647 10.0387 8.10246 9.99013 8.40115 9.9513C8.89255 9.88336 9.21052 9.75718 9.46104 9.51452C9.68265 9.31069 9.779 9.10685 9.78864 8.80596L9.79827 8.58271L9.67302 8.44683C9.22016 7.92269 4.40723 2.75676 4.37833 2.75676C4.36869 2.75676 4.52286 2.94118 4.70593 3.17413ZM6.2043 15.1927C6.31029 15.0083 6.25248 14.7753 6.07904 14.6589C5.91524 14.5521 5.66473 14.6006 5.66473 14.7462C5.66473 14.785 5.684 14.8239 5.74181 14.8433C5.82853 14.8918 5.83816 14.9403 5.77072 15.0471C5.70327 15.1539 5.70327 15.2509 5.78999 15.3189C5.92488 15.4257 6.10795 15.3674 6.2043 15.1927Z" fill="white"/>
<path fill-rule="evenodd" clip-rule="evenodd" d="M10.1069 10.0872C9.87566 10.1551 9.65405 10.4075 9.5866 10.6599C9.54806 10.8152 9.56733 11.0966 9.63478 11.184C9.74076 11.3199 9.83712 11.3587 10.1069 11.3587C10.6368 11.3587 11.0897 11.1258 11.1379 10.8443C11.1861 10.6113 10.9837 10.291 10.7043 10.1454C10.5598 10.0678 10.2611 10.0387 10.1069 10.0872ZM10.7236 10.5725C10.8006 10.456 10.7717 10.3298 10.6272 10.2425C10.3671 10.0775 9.97201 10.2134 9.97201 10.4657C9.97201 10.5919 10.1744 10.7278 10.3671 10.7278C10.4923 10.7278 10.6658 10.6502 10.7236 10.5725Z" fill="white"/>
</g>
<defs>
<clipPath id="clip0_1_12526">
<rect width="24" height="24" fill="white"/>
</clipPath>
</defs>
</svg>
