<svg fill="none" height="251" viewBox="0 0 251 251" width="251" xmlns="http://www.w3.org/2000/svg" xmlns:xlink="http://www.w3.org/1999/xlink"><linearGradient id="a"><stop offset="0" stop-color="#e94e1b"/><stop offset="1" stop-color="#f39200"/></linearGradient><linearGradient id="b" gradientUnits="userSpaceOnUse" x1="125.006" x2="125.006" xlink:href="#a" y1="251" y2=".999996"/><linearGradient id="c" gradientUnits="userSpaceOnUse" x1="38.3666" x2="203.607" y1="223.429" y2="37.618"><stop offset="0" stop-color="#fad091"/><stop offset=".5" stop-color="#fff"/><stop offset="1" stop-color="#fad091"/></linearGradient><linearGradient id="d" gradientUnits="userSpaceOnUse" x1="11.2606" x2="238.76" y1="125.994" y2="125.994"><stop offset="0" stop-color="#fad091"/><stop offset=".5"/><stop offset="1" stop-color="#fad091"/></linearGradient><linearGradient id="e" gradientUnits="userSpaceOnUse" x1="125.004" x2="125.004" xlink:href="#a" y1="204.719" y2="102.132"/><linearGradient id="f" gradientUnits="userSpaceOnUse" x1="125.002" x2="125.002" xlink:href="#a" y1="204.719" y2="102.133"/><linearGradient id="g" gradientUnits="userSpaceOnUse" x1="124.374" x2="124.374" xlink:href="#a" y1="204.719" y2="102.133"/><path d="m125.006 251c69.038 0 125.006-55.968 125.006-125.006 0-69.0379-55.98-125.005627-125.006-125.005627-69.0266 0-125.006 55.979327-125.006 125.017627 0 69.038 55.9677 124.994 125.006 124.994z" fill="url(#b)"/><path d="m125.01 238.499c62.131 0 112.505-50.362 112.505-112.505 0-62.1306-50.374-112.4934-112.505-112.4934-62.1307 0-112.5051 50.3628-112.5051 112.4934 0 62.143 50.3744 112.505 112.5051 112.505z" fill="url(#c)"/><path d="m125.01 238.499c62.131 0 112.505-50.362 112.505-112.505 0-62.1306-50.374-112.4934-112.505-112.4934-62.1307 0-112.5051 50.3628-112.5051 112.4934 0 62.143 50.3744 112.505 112.5051 112.505z" stroke="url(#d)" stroke-miterlimit="10" stroke-width="2.50012"/><path d="m132.888 190.16c-4.651-2.768-17.64 2.756-17.64 2.756s6.977 1.837 12.187 2.756c5.209.93 10.105-2.756 5.453-5.512z" fill="url(#e)"/><path d="m185.435 178.136c-.43-10.279-6.279-20.559-6.279-20.559l8.988 1.709c-2.558-7.558-15.186-18.268-15.186-18.268 3.744-2.884 15.907-25.699 15.907-25.699l-8.372 2.442c6.698-8.709 14.605-21.0938 16.187-32.792 2.837-21.0475 3.128-44.6532-21.339-23.315-17.128 14.9425-24.35 22.4894-27.14 25.664-3.861-2.1746-13.571-7.0352-23.676.5698-8.605-6.4887-18.803-3.8956-23.687-1.6513-3.3723-3.6746-10.7564-11.1284-26.1641-24.5825-24.4663-21.3266-24.1872 2.2792-21.3382 23.3266 1.5931 11.8262 9.6516 24.3614 16.4077 33.0834l-9.3957-2.745s12.1633 22.815 15.9193 25.699c0 0-12.6285 10.698-15.1984 18.28l9.0004-1.721s-5.8607 10.28-6.2793 20.559l9.0353-3.709 9.233 22.85 3.0234-13.443c.0465.035 15.2336 12.908 27.4436 17.954-2.722-3.116-5.361-12.593-8.396-21.698l-1.221 4.837s-.931-1.605-2.024-4.116l-1.6624-4.78c-1.6599-4.778-1.7289-9.965-.1968-14.786 1.5322-4.82 4.5832-9.016 8.6972-11.959l2.791-1.977c.535-.395 1.046-.814 1.511-1.233-2.764 1.137-5.732 1.699-8.721 1.652-9.7445 0-14.2563-4.733-16.3378-9.536 2.5117 3.756 6.977 6.896 14.9188 6.896 7.931 0 13.21-3.547 16.152-7.663.233-.328.458-.662.675-1l.465-.756.372-.698c.109-.203.214-.408.314-.616.116-.233.233-.465.326-.698l.267-.616.268-.651c.208-.555.394-1.117.558-1.686l.197-.675c.111-.385.212-.772.303-1.163l.093-.43.163-.802c.314-1.698.348-2.814.348-2.814h3.977c.068 1.221.239 2.435.512 3.628l.151.616.093.43.198.721.116.396c.082.267.163.546.268.814l.069.221c.233.662.5 1.348.814 2.046l.012.047.43.907.21.383.465.873.267.418c.175.279.349.582.558.861l.233.314c.198.29.407.569.628.849l.011.034c3.012 3.698 7.815 6.722 15.466 6.722 7.652 0 12.408-3.14 14.92-6.908-2.082 4.815-6.594 9.536-16.338 9.536-2.895.045-5.771-.477-8.466-1.535.442.384.907.756 1.396 1.116l2.79 1.977c4.118 2.94 7.172 7.135 8.707 11.956 1.534 4.822 1.466 10.01-.195 14.789l-2.558 7.396c-.488.954-.814 1.512-.814 1.512l-1.221-4.838c-3.023 9.105-5.675 18.583-8.396 21.699 12.21-5.047 27.409-17.908 27.444-17.954l3.023 13.442 9.233-22.85 9.047 3.721zm-81.888-43.107c-1.365-.367-2.529-1.262-3.236-2.488-.7061-1.225-.8973-2.681-.5313-4.047l10.2913 2.768c-.368 1.363-1.261 2.525-2.484 3.231-1.222.706-2.675.899-4.04.536zm-.023-17.128 14.373-1.744s.139-11.024.139-12.989c0-7.0706 2.756-9.3265 6.408-9.3846h.162c3.652.0581 6.396 2.314 6.396 9.3846v13.012l14.245 1.721zm43.758 17.128c-1.366.367-2.822.175-4.047-.531-1.226-.707-2.12-1.87-2.488-3.236l10.303-2.768c.181.678.226 1.384.135 2.079-.092.695-.32 1.365-.671 1.972s-.818 1.138-1.375 1.565c-.556.426-1.191.739-1.869.919z" fill="url(#f)"/><path d="m138.084 164.356c-.186-7.826-13.71-7.465-13.71-7.465s-13.535-.349-13.71 7.477c-.174 7.826 6.768 17.792 13.71 18.687 6.942-.884 13.885-10.873 13.71-18.699z" fill="url(#g)"/></svg>