<svg fill="none" height="250" viewBox="0 0 250 250" width="250" xmlns="http://www.w3.org/2000/svg" xmlns:xlink="http://www.w3.org/1999/xlink"><linearGradient id="a" gradientUnits="userSpaceOnUse" x1="10.272" x2="229.728" y1="125.003" y2="125.003"><stop offset="0" stop-color="#500586"/><stop offset=".1216" stop-color="#50048b"/><stop offset=".2706" stop-color="#430584"/><stop offset=".4314" stop-color="#311085"/><stop offset=".4902" stop-color="#29188b"/><stop offset=".7412" stop-color="#403965"/><stop offset=".8314" stop-color="#483956"/><stop offset=".9098" stop-color="#2f3d5a"/><stop offset="1" stop-color="#2b444a"/></linearGradient><linearGradient id="b" gradientUnits="userSpaceOnUse" x1="0" x2="240" y1="125" y2="125"><stop offset="0" stop-color="#4c0b57"/><stop offset=".1216" stop-color="#8e04ac"/><stop offset=".2706" stop-color="#242f96"/><stop offset=".4314" stop-color="#2c8d7e"/><stop offset=".5412" stop-color="#5ab33e"/><stop offset=".6392" stop-color="#91ad05"/><stop offset=".7412" stop-color="#2a9d06"/><stop offset=".8314" stop-color="#40a55f"/><stop offset=".9098" stop-color="#6bac80"/><stop offset="1" stop-color="#68b7a9"/></linearGradient><linearGradient id="c" gradientUnits="userSpaceOnUse" x1="3.552" x2="236.448" y1="125.003" y2="125.003"><stop offset="0" stop-color="#670e78"/><stop offset=".1216" stop-color="#c204ec"/><stop offset=".2706" stop-color="#3140cd"/><stop offset=".4314" stop-color="#3cc1ac"/><stop offset=".5412" stop-color="#7bf555"/><stop offset=".6392" stop-color="#c7ed06"/><stop offset=".7412" stop-color="#3ad609"/><stop offset=".8314" stop-color="#58e283"/><stop offset=".9098" stop-color="#93ecaf"/><stop offset="1" stop-color="#8ffae8"/></linearGradient><clipPath id="d"><path d="m0 0h240v250h-240z"/></clipPath><g clip-path="url(#d)"><path d="m120 239.303c60.601 0 109.728-51.174 109.728-114.3s-49.127-114.2999-109.728-114.2999c-60.6011 0-109.728 51.1739-109.728 114.2999s49.1269 114.3 109.728 114.3z" fill="url(#a)"/><path d="m120 250c-33.12 0-63.168-14-84.864-36.6s-35.136-53.9-35.136-88.4 13.44-65.8 35.136-88.4 51.744-36.6 84.864-36.6 63.168 14 84.864 36.6 35.136 53.9 35.136 88.4-13.44 65.8-35.136 88.4-51.744 36.6-84.864 36.6zm-78.72-43c20.16 21 48 34 78.72 34s58.56-13 78.72-34 32.64-50 32.64-82-12.48-61-32.64-82-48-34-78.72-34-58.56 13-78.72 34-32.64 50-32.64 82 12.48 61 32.64 82z" fill="url(#b)"/><path d="m120 246.303c-32.16 0-61.248-13.6-82.368-35.5-21.024-21.9-34.08-52.3-34.08-85.8 0-33.4999 13.056-63.7999 34.08-85.7999 21.12-22 50.208-35.49998 82.368-35.49998s61.248 13.59998 82.368 35.49998c21.12 22 34.08 52.3 34.08 85.7999 0 33.5-13.056 63.8-34.08 85.8-21.12 22-50.208 35.5-82.368 35.5zm-76.416-41.7c19.584 20.4 46.56 33 76.416 33s56.832-12.6 76.416-33 31.68-48.5 31.68-79.6c0-31.0999-12.096-59.1999-31.68-79.5999s-46.56-33-76.416-33-56.832 12.6-76.416 33-31.68 48.5-31.68 79.5999c0 31.1 12.096 59.2 31.68 79.6z" fill="url(#c)"/><path d="m120 67.4016c-.864 25.6-.864 53.1004 0 78.7004.768-25.7.768-53.1004 0-78.7004zm-27.1681 135.2004.096.2c.288-.1.48-.2.768-.4 4.8-2.8 10.0801-4.8 15.2641-6.7 6.624-2.3 13.536-2.5 20.256-.6 5.856 1.7 11.52 4 16.896 6.9.384.2.672.6 1.056.5-.096-.1-.096-.2-.192-.3-8.448-6.8-16.896-13.5-25.344-20.3-1.152-1-2.208-.9-3.264.1-8.448 7-16.992 13.8-25.4401 20.5zm-4.992-96.9c-.576.8-.288 1.3.288 1.9 2.016 2.3 3.264 4.9 4.128 7.9.96 3.6 1.44 7.3 1.632 11 .288 5.7.192 11.5.096 17.2-.096 7.6-.192 15.3-.096 22.9.096 8.5-1.056 16.6-3.648 24.6-.96 3.1-2.016 6.3-3.456 9.5.192-.1.48-.2.672-.3 7.392-6.2 14.6881-12.5 22.4641-18.2.96-.8.96-1.7.384-2.7-.672-1-1.248-1.9-2.016-2.8-2.016-2.6-2.784-5.5-2.88-8.7-.096-4.3-.192-8.5-.192-12.7-.192-15.7-.096-31.4-.288-47.1-.288-20.2004-.288-40.2004-.384-60.4004v-.7h-.288c-.864 8-1.728 16-3.168 23.9-2.3041 12.4-5.6641 24.2-13.1521 34.5004zm47.5201-22.0004c-.288 18.0004 0 36.0004-.288 54.0004-.192 9.3-.096 18.7-.096 28.1 0 4.8-.96 9.1-4.224 12.6-.288.4-.576.8-.864 1.1-.768 1.1-.576 2 .576 2.8 7.392 5.5 14.496 11.5 21.504 17.5.384.3.672.7 1.248.7-2.4-5.5-3.936-11.2-5.28-16.9-.576-2.2-.96-4.5-1.152-6.8-.48-5.6-.384-11.2-.48-16.9-.192-9.6-.096-19.3-.096-29 0-3.3.192-6.6.576-9.9.576-4.4 1.536-8.7 4.224-12.3 1.728-2.4 1.728-2.4.096-4.8-5.856-8.7004-9.024-18.5004-11.232-28.8004-1.92-9.2-2.976-18.5-3.936-28h-.384c-.192 12.2-.192 24.3-.288 36.5z" fill="#fff"/></g></svg>