<svg fill="none" height="250" viewBox="0 0 250 250" width="250" xmlns="http://www.w3.org/2000/svg" xmlns:xlink="http://www.w3.org/1999/xlink"><linearGradient id="a" gradientUnits="userSpaceOnUse" x1="-.007138" x2="249.993" y1=".007138" y2="250.007"><stop offset="0" stop-color="#a0f"/><stop offset="1" stop-color="#50f"/></linearGradient><clipPath id="b"><path d="m0 0h250v250h-250z"/></clipPath><g clip-path="url(#b)"><path d="m125 250c69.036 0 125-55.964 125-125 0-69.0356-55.964-125-125-125-69.0356 0-125 55.9644-125 125 0 69.036 55.9644 125 125 125z" fill="url(#a)"/><path clip-rule="evenodd" d="m109.375 83.4821v27.2319c0 1.786 1.652 3.125 3.125 3.125h42.857c1.473 0 3.125 1.34 3.125 3.125v11.607c0 1.474-1.339 3.125-3.125 3.125h-42.857c-1.473 0-3.125 1.652-3.125 3.125v63.393c0 2.411-1.339 3.706-3.125 2.679l-12.5-8.929c-1.4732-.893-2.2321-1.785-2.2321-3.571v-53.572c0-1.473-1.6964-3.125-3.125-3.125h-20.5357c-1.7857 0-3.125-1.651-3.125-3.125v-11.607c0-1.741 1.3393-3.125 3.125-3.125h20.5357c1.4286 0 3.125-1.339 3.125-3.125v-45.089c0-1.7857 1.4286-3.125 2.9018-3.125h78.7943c1.474 0 3.125 1.6518 3.125 3.125v11.6071c0 1.4733-1.339 3.125-3.125 3.125h-60.714c-1.473 0-3.125 1.6518-3.125 3.125z" fill="#fff" fill-rule="evenodd"/></g></svg>