<svg fill="none" height="238" viewBox="0 0 238 238" width="238" xmlns="http://www.w3.org/2000/svg"><circle cx="119.564" cy="118.436" fill="#fff" r="117.308"/><path d="m112.354 82.036c8.676 0 16.459 2.2329 23.349 6.6985 6.89 4.3381 12.249 10.5263 16.076 18.5645 3.828 7.911 5.742 17.161 5.742 27.751 0 10.462-1.978 19.713-5.933 27.751-3.828 7.911-9.187 14.099-16.076 18.565-6.763 4.338-14.546 6.507-23.35 6.507-7.017 0-13.2691-1.34-18.7555-4.019-5.4864-2.68-9.6331-6.444-12.4401-11.292h-.7655v13.014h-21.4353v-138.5637h22.5836v48.9949h.7655c2.807-4.3381 6.8262-7.7192 12.0574-10.1435 5.2312-2.5518 11.2919-3.8277 18.1819-3.8277zm-5.168 88.229c8.549 0 15.247-3.126 20.096-9.378 4.976-6.252 7.464-14.864 7.464-25.837s-2.488-19.585-7.464-25.837c-4.849-6.252-11.547-9.3781-20.096-9.3781-8.4206 0-15.1192 3.1261-20.0952 9.3781-4.8485 6.252-7.2727 14.864-7.2727 25.837s2.4242 19.585 7.2727 25.837c4.976 6.252 11.6746 9.378 20.0952 9.378z" fill="#243237"/><circle cx="166.707" cy="174.313" fill="#268bc4" r="14.2016"/></svg>