<svg fill="none" height="250" viewBox="0 0 250 250" width="250" xmlns="http://www.w3.org/2000/svg" xmlns:xlink="http://www.w3.org/1999/xlink"><linearGradient id="a"><stop offset="0" stop-color="#e5c45d"/><stop offset="1" stop-color="#987a3b"/></linearGradient><linearGradient id="b" gradientUnits="userSpaceOnUse" x1="226.059" x2="96.4618" xlink:href="#a" y1="63.8106" y2="104.524"/><linearGradient id="c" gradientUnits="userSpaceOnUse" x1="123.891" x2="124.434" xlink:href="#a" y1="244.24" y2="143.966"/><linearGradient id="d" gradientUnits="userSpaceOnUse" x1="18.4262" x2="130.284" xlink:href="#a" y1="62.3645" y2="94.1734"/><path d="m238.136 160.905c-18.969.004-37.573-5.125-53.775-14.826s-29.376-23.599-38.08-40.173c-8.704-16.5728-12.601-35.1818-11.266-53.7883s7.852-36.4927 18.837-51.699731h-57.9664c10.9844 15.207031 17.5014 33.093231 18.8364 51.699731 1.336 18.6065-2.562 37.2155-11.266 53.7883-8.7037 16.574-21.878 30.472-38.0796 40.173-16.2017 9.701-34.8058 14.83-53.7747 14.826-3.61332-.004-7.22403-.192-10.817764-.562l29.966064 51.046c8.199-17.805 21.4437-32.909 38.1478-43.503 16.7042-10.593 36.1592-16.228 56.0362-16.228s39.333 5.635 56.037 16.228c16.704 10.594 29.949 25.698 38.148 43.503l29.966-51.046c-3.638.374-7.292.562-10.949.562z" fill="#e5c45d" stroke="#e5c45d" stroke-width=".2"/><path d="m218.339 125.376c.005-8.712 3.104-17.149 8.76-23.855 5.657-6.7054 13.517-11.2588 22.223-12.8739l-29.886-50.9208c-5.864 6.4521-13.822 10.7039-22.518 12.0304-8.696 1.3264-17.591-.3547-25.167-4.7567-7.576-4.4019-13.365-11.2521-16.379-19.3821s-3.066-17.03631-.148-25.199931h-1.406c-10.985 15.207031-17.502 33.093231-18.837 51.699731s2.562 37.2155 11.266 53.7883c8.704 16.574 21.878 30.472 38.08 40.173s34.806 14.83 53.775 14.827c1.978 0 3.94-.001 5.889-.167-7.487-2.535-13.983-7.305-18.582-13.644-4.598-6.339-7.07-13.932-7.07-21.719z" fill="url(#b)"/><path d="m78.1609 204.992c7.5142 4.103 13.3936 10.587 16.68 18.397 3.2864 7.809 3.786 16.483 1.4174 24.607h59.0977c-2.646-8-2.47-16.644.499-24.534s8.558-14.565 15.862-18.945c7.305-4.379 15.898-6.208 24.391-5.191 8.492 1.018 16.388 4.823 22.409 10.799-8.397-17.579-21.739-32.426-38.447-42.783s-36.084-15.791-55.835-15.66c-19.751.132-39.0497 5.823-55.6139 16.402-16.5643 10.579-29.7004 25.602-37.8543 43.291l.7246 1.25c5.7557-6.273 13.5035-10.443 21.9794-11.829 8.4758-1.387 17.1792.093 24.6901 4.196z" fill="url(#c)"/><path d="m95.8855.417969h-.7585c2.9298 8.209251 2.856 17.166231-.2086 25.327731-3.0646 8.1616-8.9281 15.0164-16.5802 19.3836s-16.6136 5.9731-25.3405 4.5412c-8.7269-1.432-16.6726-5.8121-22.4681-12.3859l-30.084776 51.2501c8.328506 1.4067 15.942976 5.5019 21.640576 11.6383 5.6975 6.137 9.1534 13.966 9.8216 22.249.6682 8.284-1.4894 16.551-6.1318 23.494-4.6425 6.943-11.5053 12.168-19.5041 14.848 1.77118.091 3.54803.137 5.3305.137 18.9682.004 37.5715-5.126 53.7724-14.827 16.201-9.701 29.3747-23.598 38.078-40.171 8.704-16.5723 12.602-35.1805 11.267-53.7864-1.334-18.6058-7.85-36.4917-18.8335-51.698631z" fill="url(#d)"/></svg>