<svg fill="none" height="24" viewBox="0 0 24 24" width="24" xmlns="http://www.w3.org/2000/svg" xmlns:xlink="http://www.w3.org/1999/xlink"><clipPath id="a"><path d="m0 0h24v24h-24z"/></clipPath><g clip-path="url(#a)"><circle cx="12" cy="12" fill="#050816" r="12"/><path d="m15.6814 5.18402-6.02731.01129h-.12472l-.48072.533.68254.03162c.01588 0 .01588 0 .08164.00677l.07028.00678c2.59189.24617 4.07939 1.70738 4.07939 4.00648 0 1.74354-1.4331 2.93144-2.7755 3.46224l-.3152.1242 3.4263 5.4474h1.6214l3.9524-6.8206zm-1.0658 13.06968-2.9071-4.6208c.8164-.3817 2.8209-1.5516 2.8209-3.85067 0-1.88581-.873-3.29283-2.4762-4.02908l3.313-.00678 3.8549 6.25813-3.6236 6.2492h-.9842zm-5.71209-6.2492c1.36509 0 2.83219-.6956 2.83219-2.22454 0-1.40476-.9161-2.24263-2.45123-2.24263h-2.59188l-2.51251 4.34527-.05215.1513 3.93203 6.7821h3.82544l-3.95242-6.8092h.9728zm-.52155 6.2492-3.62364-6.2537 2.26081-3.90032h2.2676c1.21767 0 1.88897.59623 1.88897 1.68028 0 1.14274-1.17693 1.66224-2.26992 1.66224h-1.95015l3.95247 6.8092h-2.52388z" fill="#faa21b"/></g></svg>