<svg fill="none" height="250" viewBox="0 0 250 250" width="250" xmlns="http://www.w3.org/2000/svg" xmlns:xlink="http://www.w3.org/1999/xlink"><clipPath id="a"><path d="m0 0h250v250h-250z"/></clipPath><g clip-path="url(#a)"><circle cx="125" cy="125" fill="#050816" r="125"/><path d="m163.349 54-62.785.1176h-1.299l-5.0075 5.5521 7.1095.3293c.166 0 .166 0 .851.0706l.732.0706c26.999 2.5642 42.494 17.7852 42.494 41.7338 0 18.162-14.929 30.537-28.912 36.065l-3.283 1.294 35.691 56.744h16.889l41.171-71.048zm-11.102 136.142-30.282-48.133c8.503-3.976 29.384-16.162 29.384-40.111 0-19.6438-9.094-34.3003-25.794-41.9696l34.51-.0705 40.156 65.1891-37.746 65.095h-10.252zm-59.5014-65.095c14.2194 0 29.5024-7.246 29.5024-23.173 0-14.6325-9.543-23.3603-25.5341-23.3603h-26.9987l-26.1719 45.2633-.5433 1.576 40.9586 70.647h39.8484l-41.1711-70.929h10.1334zm-5.4328 65.095-37.7462-65.142 23.5501-40.6286h23.6208c12.6845 0 19.6765 6.2107 19.6765 17.5026 0 11.904-12.259 17.315-23.6447 17.315h-20.3141l41.1718 70.93h-26.2906z" fill="#faa21b"/></g></svg>
