<svg width="256" height="256" viewBox="0 0 256 256" fill="none" xmlns="http://www.w3.org/2000/svg">
<path d="M128 256C198.692 256 256 198.692 256 128C256 57.3076 198.692 0 128 0C57.3075 0 0 57.3076 0 128C0 198.692 57.3075 256 128 256Z" fill="#F3BA2F"/>
<path fill-rule="evenodd" clip-rule="evenodd" d="M161.2 141.611L180.508 160.864L128.021 213.296L75.5891 160.864L94.8973 141.611L128.021 174.735L161.2 141.611ZM128.021 108.432L147.606 128.018L128.021 147.604L108.491 128.073V128.018L111.931 124.578L113.595 122.914L128.021 108.432ZM61.9957 108.71L81.3039 128.018L61.9957 147.271L42.6875 127.962L61.9957 108.71ZM194.046 108.71L213.354 128.018L194.046 147.271L174.738 127.962L194.046 108.71ZM128.021 42.6846L180.453 95.1164L161.144 114.425L128.021 81.2455L94.8973 114.369L75.5891 95.1164L128.021 42.6846Z" fill="#131415"/>
</svg>
