<svg fill="none" height="250" viewBox="0 0 250 250" width="250" xmlns="http://www.w3.org/2000/svg" xmlns:xlink="http://www.w3.org/1999/xlink"><clipPath id="a"><path d="m0 0h250v250h-250z"/></clipPath><g clip-path="url(#a)"><path d="m250 125c0-69.0356-55.964-125-125-125-69.0356 0-125 55.9644-125 125 0 69.036 55.9644 125 125 125 69.036 0 125-55.964 125-125z" fill="#f996ee"/><path clip-rule="evenodd" d="m104.234 190c-8.3553 0-15.7478-5.409-18.2734-13.372l-12.9869-40.934h-7.9837c-8.3548 0-15.7474-5.409-18.2733-13.371l-7.7165-24.323h28.9435l-15.266-23h144.6453l-15.266 23h28.943l-7.716 24.323c-2.526 7.962-9.919 13.371-18.273 13.371h-7.985l-12.986 40.934c-2.526 7.963-9.918 13.372-18.273 13.372zm-9.8115-65.486c0 6.175 4.6112 11.18 10.2985 11.18 5.688 0 10.3-5.005 10.3-11.18s-4.612-11.181-10.3-11.181c-5.6873 0-10.2985 5.006-10.2985 11.181zm61.1555 0c0 6.175-4.611 11.18-10.299 11.18s-10.299-5.005-10.299-11.18 4.611-11.181 10.299-11.181 10.299 5.006 10.299 11.181z" fill="#490072" fill-rule="evenodd"/></g></svg>