<svg fill="none" height="250" viewBox="0 0 250 250" width="250" xmlns="http://www.w3.org/2000/svg" xmlns:xlink="http://www.w3.org/1999/xlink"><clipPath id="a"><path d="m0 0h250v250h-250z"/></clipPath><g clip-path="url(#a)"><path d="m69.4636 30.6996c4.7583-5.4182 9.1345-10.0028 13.3023-13.8928-70.3667-2.2576-49.8749 48.6246-72.93689 100.2712-26.39621 59.53 3.12589 82.21 47.09639 89.295-6.1404-7.317-11.151-15.512-14.8652-24.312-28.376-35.878-16.8797-101.2781 27.4034-151.3614z" fill="#efe812"/><path d="m238.782 94.125c-8.31 21.739-20.332 41.87-35.531 59.496-12.185 14.808-26.78 27.454-43.172 37.406-19.037 12.063-41.162 18.348-63.6981 18.095-13.1572.118-26.3032-.799-39.3164-2.744 7.225 8.631 16.1824 15.648 26.292 20.596 63.6285 30.773 67.6225-26.361 134.9335-55.362 37.788-16.289 37.927-48.104 20.457-77.487" fill="#ede70a"/><path d="m160.079 34.729c9.212 1.6123 18.087 4.7587 26.257 9.3081 21.404 12.0343 39.439 29.2567 52.446 50.0834 11.461-32.3007 6.112-57.6549-18.929-62.2395-27.577-5.0361-49.111-6.6685-69.811-21.117-25.494-17.71326-47.861-11.94777-67.2412 6.0781l4.2025.1736c26.8827 1.5977 52.5837 6.9464 72.9367 17.6438" fill="#ede70a"/><path d="m69.4639 30.7061c-44.2832 50.0834-55.7794 115.4839-27.2646 151.3619-6.5963-15.575-9.475-32.471-8.4079-49.351 1.067-16.88 6.0505-33.2791 14.5555-47.8987 23.9997-40.0111 72.1731-57.377 111.7321-50.0833-20.492-10.8363-46.193-16.0461-72.9366-17.6438l-4.2026-.2084c-4.3067 3.9594-8.683 8.4051-13.4759 13.8233z" fill="#dec21c"/><path d="m186.336 43.9731c-8.174-4.5253-17.05-7.6481-26.257-9.2387 26.952 14.1706 44.839 38.205 44.839 76.2016-.156 16.04-4.345 31.782-12.181 45.778-7.835 13.996-19.066 25.796-32.658 34.314 16.4-9.942 30.997-22.589 43.172-37.406 15.199-17.626 27.221-37.757 35.53-59.4961-12.998-20.8522-31.033-38.0991-52.445-50.1528z" fill="#e5cb22"/><path d="m160.079 34.7345c-39.559-7.2937-87.7325 10.0722-111.7322 49.9097-8.5406 14.6384-13.544 31.0698-14.6113 47.9838s1.831 33.843 8.4638 49.439c3.701 8.807 8.7128 17.004 14.8652 24.312 13.0132 1.945 26.1593 2.862 39.3165 2.744 22.536.253 44.661-6.032 63.698-18.095 13.594-8.515 24.827-20.315 32.663-34.311 7.836-13.997 12.023-29.741 12.176-45.781 0-37.9965-17.887-62.0309-44.839-76.2015zm-4.445 138.2325c-14.631 9.398-32.388 12.62-49.388 8.963-17.0006-3.658-31.8609-13.898-41.3321-28.482-19.6582-30.321-9.9333-69.4637 19.554-90.3028 32.9951-23.4441 75.2991-14.2054 90.7201 19.5193 15.038 32.8565 10.905 70.8185-19.554 90.3025z" fill="#cca727"/></g></svg>