<svg width="250" height="250" viewBox="0 0 250 250" fill="none" xmlns="http://www.w3.org/2000/svg">
<g clip-path="url(#clip0_48_13060)">
<path d="M69.4636 30.6996C74.2219 25.2814 78.5981 20.6968 82.7659 16.8068C12.3992 14.5492 32.891 65.4314 9.82901 117.078C-16.5672 176.608 12.9549 199.288 56.9254 206.373C50.785 199.056 45.7744 190.861 42.0602 182.061C13.6842 146.183 25.1805 80.7829 69.4636 30.6996Z" fill="#EFE812"/>
<path d="M238.782 94.125C230.472 115.864 218.45 135.995 203.251 153.621C191.066 168.429 176.471 181.075 160.079 191.027C141.042 203.09 118.917 209.375 96.3809 209.122C83.2237 209.24 70.0777 208.323 57.0645 206.378C64.2895 215.009 73.2469 222.026 83.3565 226.974C146.985 257.747 150.979 200.613 218.29 171.612C256.078 155.323 256.217 123.508 238.747 94.125" fill="#EDE70A"/>
<path d="M160.079 34.729C169.291 36.3413 178.166 39.4877 186.336 44.0371C207.74 56.0714 225.775 73.2938 238.782 94.1205C250.243 61.8198 244.894 36.4656 219.853 31.881C192.276 26.8449 170.742 25.2125 150.042 10.764C124.548 -6.94926 102.181 -1.18377 82.8008 16.8421L87.0033 17.0157C113.886 18.6134 139.587 23.9621 159.94 34.6595" fill="#EDE70A"/>
<path d="M69.4639 30.7061C25.1807 80.7895 13.6845 146.19 42.1993 182.068C35.603 166.493 32.7243 149.597 33.7914 132.717C34.8584 115.837 39.8419 99.4379 48.3469 84.8183C72.3466 44.8072 120.52 27.4413 160.079 34.735C139.587 23.8987 113.886 18.6889 87.1424 17.0912L82.9398 16.8828C78.6331 20.8422 74.2568 25.2879 69.4639 30.7061Z" fill="#DEC21C"/>
<path d="M186.336 43.9731C178.162 39.4478 169.286 36.325 160.079 34.7344C187.031 48.905 204.918 72.9394 204.918 110.936C204.762 126.976 200.573 142.718 192.737 156.714C184.902 170.71 173.671 182.51 160.079 191.028C176.479 181.086 191.076 168.439 203.251 153.622C218.45 135.996 230.472 115.865 238.781 94.1259C225.783 73.2737 207.748 56.0268 186.336 43.9731Z" fill="#E5CB22"/>
<path d="M160.079 34.7345C120.52 27.4408 72.3465 44.8067 48.3468 84.6442C39.8062 99.2826 34.8028 115.714 33.7355 132.628C32.6682 149.542 35.5665 166.471 42.1993 182.067C45.9003 190.874 50.9121 199.071 57.0645 206.379C70.0777 208.324 83.2238 209.241 96.381 209.123C118.917 209.376 141.042 203.091 160.079 191.028C173.673 182.513 184.906 170.713 192.742 156.717C200.578 142.72 204.765 126.976 204.918 110.936C204.918 72.9395 187.031 48.9051 160.079 34.7345ZM155.634 172.967C141.003 182.365 123.246 185.587 106.246 181.93C89.2454 178.272 74.3851 168.032 64.9139 153.448C45.2557 123.127 54.9806 83.9843 84.4679 63.1452C117.463 39.7011 159.767 48.9398 175.188 82.6645C190.226 115.521 186.093 153.483 155.634 172.967Z" fill="#CCA727"/>
</g>
<defs>
<clipPath id="clip0_48_13060">
<rect width="250" height="250" fill="white"/>
</clipPath>
</defs>
</svg>
