<svg fill="none" height="250" viewBox="0 0 250 250" width="250" xmlns="http://www.w3.org/2000/svg" xmlns:xlink="http://www.w3.org/1999/xlink"><clipPath id="a"><path d="m0 0h250v250h-250z"/></clipPath><g clip-path="url(#a)" clip-rule="evenodd" fill-rule="evenodd"><path d="m125 0c69.025 0 125 55.975 125 125s-55.975 125-125 125-125-55.975-125-125 55.975-125 125-125z" fill="#0055d5"/><path d="m68 82.7s-13.45-10.75-14.375 15.8c-.925 20.575-.9 60.525 8.625 79.4 4.025 7.1 9.4 4.925 19.4-2.15 8.7-6.425 40.175-35.425 53.5-48.15s40.35-49.225 45.975-24.425c2.225 10.425 4.975 19.275 2.875 42.4-.65 7.125-3.7 12.525-17.6 2.875-10.5-6.75-20.475-14-20.475-14s-1.925-3.45-6.475 2.15c-3.575 4.475-5.375 5.575.35 8.975 5.75 3.4 34.825 23.45 45.975 26.575 9.2 2.675 14.45 2.625 14.725-15.45-.05-14.35-.875-55.425-6.1-72.925-3.95-10.9-9.75-15.85-22.275-3.6s-52.025 50.55-73.625 67.9c-14.325 10.75-20.45 20.45-25.85 2.525-3.8-13.575-8.725-55.825 6.825-47.775 9.725 4.65 14.575 4.625 10.775 7.55-3.8 2.9-14.725 12.925-14.725 12.925s-3.375 2.725-1.8 8.625c1.575 4.125 1.575 6.175 10.05-1.8s14.725-14 14.725-14 1.35-2.125 5.375 1.8 4.675 5.025 4.675 5.025 1.075 2.925 5.375-2.15c4.325-5.075 7.1-8.175-1.075-12.925-8.15-4.8-44.85-25.175-44.85-25.175z" fill="#fff"/></g></svg>