<svg fill="none" height="250" viewBox="0 0 250 250" width="250" xmlns="http://www.w3.org/2000/svg" xmlns:xlink="http://www.w3.org/1999/xlink"><clipPath id="a"><path d="m0 0h250v250h-250z"/></clipPath><g clip-path="url(#a)"><path d="m125 250c69.036 0 125-55.964 125-125 0-69.0356-55.964-125-125-125-69.0356 0-125 55.9644-125 125 0 69.036 55.9644 125 125 125z" fill="#fff"/><path d="m128.004 80.6007 29.657-21.5745 5.005 15.3621-34.662 25.2267v-19.0169z" fill="#ffc800"/><path d="m133.408 103.759 36.939-26.8836-5.817-17.8597 19.53-.0157 13.278 40.7642-34.662 25.2218zm-5.419 4.131 34.601 25.112-34.586 25.444-.015-50.553zm.023 58.635 28.209-20.53 6.445 19.778-34.662 25.227z" fill="#ffc800"/><g fill="#e1aa00"><path d="m121.334 80.6007-29.6564-21.5745-5.0082 15.3621 34.6646 25.2267v-19.0169z"/><path d="m115.931 103.759-36.9477-26.8836 5.8171-17.8597-19.5247-.0157-13.2757 40.7642 34.6617 25.2218zm5.419 4.131-34.6097 25.112 34.5937 25.444.016-50.553zm-.024 58.635-28.2162-20.53-6.4402 19.778 34.6644 25.227z"/></g></g></svg>