<svg width="250" height="250" viewBox="0 0 250 250" fill="none" xmlns="http://www.w3.org/2000/svg">
<path d="M237.5 7.72656C236.798 7.72656 236.095 8.14791 235.815 8.85016L157.865 168.682C151.124 182.446 131.601 182.446 125 168.682L47.3314 9.69285C46.7696 8.56926 45.5055 7.72656 44.2415 7.72656H3.79204C1.26395 7.72656 -0.421445 10.3951 0.70215 12.6423L108.146 231.041C115.449 245.788 136.517 245.648 143.68 230.76L248.455 10.3951C249.017 9.13106 248.174 7.72656 246.77 7.72656H237.5Z" fill="url(#paint0_linear_47_12236)"/>
<path opacity="0.2" d="M98.5953 211.801L4.91553 21.3516L72.1908 99.301L98.5953 211.801Z" fill="white"/>
<path opacity="0.2" d="M116.011 150.14L72.191 99.2972L54.4944 24.5781L116.011 150.14Z" fill="white"/>
<path opacity="0.1" d="M72.1909 99.3076L4.91563 21.3581L0.70215 12.7907C-0.421445 10.5435 1.26395 7.875 3.79204 7.875H44.2415C45.5055 7.875 46.7696 8.57725 47.3314 9.84129L54.6347 24.7289L72.1909 99.3076Z" fill="white"/>
<defs>
<linearGradient id="paint0_linear_47_12236" x1="32.1288" y1="31.4431" x2="208.234" y2="153.548" gradientUnits="userSpaceOnUse">
<stop stop-color="#B290D8"/>
<stop offset="1" stop-color="#26BFE2"/>
</linearGradient>
</defs>
</svg>
