<svg fill="none" height="250" viewBox="0 0 250 250" width="250" xmlns="http://www.w3.org/2000/svg" xmlns:xlink="http://www.w3.org/1999/xlink"><clipPath id="a"><path d="m41.6667 41.6641h166.667v166.667h-166.667z"/></clipPath><rect fill="#39d0de" height="250" rx="125" width="250"/><g clip-path="url(#a)"><path clip-rule="evenodd" d="m71.6352 67.7057c-2.6288-13.5416 7.8864-26.0416 21.5563-26.0416 12.0925 0 22.0815 9.8958 22.0815 21.875v27.0833c3.155 0 6.31-.5208 9.464-.5208 3.155 0 5.784 0 8.938.5208v-27.0833c0-11.9792 9.99-21.875 22.082-21.875 13.67 0 24.185 12.5 22.082 26.0416l-5.783 31.7709c20.505 8.8544 36.277 24.4794 36.277 43.7504v11.979c0 16.146-10.515 29.687-25.762 38.541-15.247 9.375-35.226 14.584-57.834 14.584s-42.5866-5.209-57.8337-14.584c-14.7213-8.854-25.2366-22.395-25.2366-38.541v-11.979c0-19.271 15.2472-34.896 35.7519-43.7504zm92.5338 35.9373 6.835-37.4998c1.578-9.375-5.257-18.2291-15.247-18.2291-8.412 0-15.247 6.7708-15.247 15.1041v34.375c-2.103-.5208-4.732-.5208-6.835-.5208-3.154 0-5.783-.5208-8.938-.5208-3.154 0-6.309 0-9.464.5208-2.103 0-4.731.5208-6.834.5208v-33.8541c0-8.3334-6.835-15.1042-15.2475-15.1042-9.4638 0-16.8244 8.8542-14.7214 18.2292l6.8349 37.4999c-22.082 8.333-36.8033 22.917-36.8033 39.583v11.98c0 25.52 34.1745 46.354 76.2353 46.354 42.061 0 76.236-20.834 76.236-46.354v-11.98c.525-17.187-14.196-31.77-36.804-40.104z" fill="#633001" fill-rule="evenodd"/><path d="m201.498 155.206c0 25.521-34.174 46.354-76.235 46.354-42.0611 0-76.2357-20.833-76.2357-46.354v-11.979h152.9967v11.979z" fill="#fedc90"/><path clip-rule="evenodd" d="m78.47 66.6667c-2.103-9.375 5.2577-18.2292 14.7214-18.2292 8.4126 0 15.2466 6.7708 15.2466 15.1042v34.375c5.258-.5209 10.516-1.0417 16.299-1.0417 5.258 0 10.515.5208 15.773 1.0417v-34.375c0-8.3334 6.835-15.1042 15.247-15.1042 9.464 0 16.824 8.8542 15.247 18.2292l-6.835 37.5003c22.082 8.333 37.329 22.916 37.329 39.583 0 25.521-34.174 46.354-76.235 46.354-42.0611 0-76.2357-20.833-76.2357-46.354 0-16.667 14.7214-31.25 36.8034-39.583z" fill="#d1884f" fill-rule="evenodd"/><g fill="#633001"><path d="m103.707 140.102c0 6.77-3.681 12.5-8.4125 12.5-4.7318 0-8.4122-5.73-8.4122-12.5 0-6.771 3.6804-12.5 8.4122-12.5 4.7315 0 8.4125 5.729 8.4125 12.5z"/><path d="m162.066 140.102c0 6.77-3.68 12.5-8.412 12.5s-8.412-5.73-8.412-12.5c0-6.771 3.68-12.5 8.412-12.5s8.412 5.729 8.412 12.5z"/></g></g></svg>