<svg fill="none" height="250" viewBox="0 0 250 250" width="250" xmlns="http://www.w3.org/2000/svg"><path d="m34.9147 81.5565.6663.2665 6.2634 2.7985 6.9296 3.0651c7.7292-16.3913 20.9222-30.1173 38.3795-38.3796l-3.065-6.9296-4.3977-10.1279c-4.9307-9.8614-13.8592-6.5299-17.0575-4.9307-14.1258 8.7953-25.8529 20.3891-34.6482 33.8486-.1333.1332-.1333.2665-.1333.533-5.597 13.0597 4.2644 18.5235 7.0629 19.8561z" fill="#00934b"/><path d="m48.9075 87.5533 11.194 4.9307 9.7281 4.2644 7.7293 3.4646c4.6641-9.4614 12.3933-17.4571 22.388-22.3878l-3.4648-7.7293-4.2644-9.7281-4.9307-11.194c-17.4574 8.2622-30.6503 22.1215-38.3795 38.3795z" fill="#22d511"/><path d="m77.4255 100.213 16.1248 7.063 14.9257 6.53c1.999-.133 3.731-1.466 4.531-3.332.266-.666.399-1.199.399-1.865l-6.53-14.7924-7.0624-16.1247c-9.9947 5.064-17.7239 13.0597-22.3881 22.5211z" fill="#bef000"/><path d="m238.14 101.146c-5.197-12.9264-15.858-9.9946-18.79-8.7953l-.8.2666-6.53 2.532-7.062 2.7985c6.529 18.1232 6.13 37.3132 0 54.3712l7.062 2.798 9.062 3.465c10.528 4.398 14.926-3.065 16.525-7.063 3.998-16.258 4.264-33.449.533-50.373z" fill="#00934b"/><path d="m205.091 97.9478-11.328 4.3972-9.994 3.865-7.863 3.065c3.598 10.661 3.465 21.722 0 31.716l7.729 3.066 9.995 3.864 11.327 4.398c6.264-17.058 6.664-36.114.134-54.3712z" fill="#22d511"/><path d="m176.04 109.275-16.392 6.397-15.192 5.996c-1.332 1.466-1.732 3.599-.932 5.597.266.534.533 1.067.932 1.466l15.192 5.864 16.392 6.396c3.331-9.994 3.598-21.055 0-31.716z" fill="#bef000"/><path d="m37.5801 155.117 7.0629-2.798c-6.5299-18.124-6.1301-37.314 0-54.3712l-7.0629-2.7985-9.1951-3.5981c-10.661-4.2644-14.9254 3.5981-16.3913 7.4627-3.86459 15.9911-4.13112 32.9161-.533 49.5731v.134c5.1972 13.326 15.9914 10.261 18.9232 9.195z" fill="#00934b"/><path d="m44.6429 152.319 11.3273-4.398 9.8614-3.865 7.8625-3.065c-3.5981-10.661-3.4648-21.721 0-31.716l-7.8625-3.065-9.8614-3.731-11.3273-4.398c-6.13 17.058-6.5298 36.114 0 54.238z" fill="#22d511"/><path d="m73.8274 140.991 16.3912-6.396 15.0584-5.864c1.333-1.466 1.733-3.598.933-5.597-.266-.666-.666-1.199-1.066-1.599l-15.0587-5.863-16.3912-6.397c-3.3316 10.128-3.4648 21.189.1333 31.716z" fill="#bef000"/><path d="m49.0407 162.713-6.9296 3.065-7.1962 3.199s-12.6599 6.796-6.7964 19.856v.133c9.1951 14.259 21.322 25.853 35.1813 34.382 3.598 1.732 12.6599 4.664 17.1908-6.397l3.8646-8.795 3.065-6.93c-16.258-7.862-30.1172-21.055-38.3795-38.513z" fill="#00934b"/><path d="m96.7484 180.171 3.3316-7.596c-9.4616-4.665-17.4574-12.394-22.3881-22.388l-7.7292 3.331-9.7281 4.265-11.1941 4.93c8.2623 17.458 22.1216 30.651 38.5128 38.38l4.9307-11.194z" fill="#22d511"/><path d="m100.08 172.441 7.063-16.124 6.53-14.792c-.133-1.999-1.333-3.865-3.332-4.665-.533-.266-1.199-.399-1.865-.399l-14.7924 6.529-16.1248 7.063c5.064 10.128 13.0597 17.724 22.5212 22.388z" fill="#bef000"/><path d="m200.826 87.6866 6.93-3.0651 7.729-3.4648-.666.1333c2.798-1.3327 12.526-6.6631 7.063-19.4563-9.329-14.6589-21.855-26.5192-36.248-35.1812-10.128-5.1973-16.391 6.6631-16.391 6.6631l-3.864 8.9285-3.066 6.9297c16.392 7.7292 30.251 20.9221 38.513 38.5128z" fill="#00934b"/><path d="m153.118 69.9627-3.331 7.7292c9.461 4.6642 17.457 12.3934 22.521 22.5211l7.729-3.3313 9.729-4.2644 11.06-4.9307c-8.262-17.4574-22.121-30.7836-38.512-38.5128l-4.931 11.194z" fill="#22d511"/><path d="m149.787 77.6919-7.063 16.1247-6.53 15.0584c.133 1.999 1.333 3.732 3.332 4.531.533.267 1.199.4 1.865.4l14.926-6.53 16.124-7.063c-5.197-10.1277-13.193-17.7237-22.654-22.5211z" fill="#bef000"/><path d="m154.851 212.287-2.799-7.063c-18.257 6.53-37.313 6.13-54.3707 0l-2.7985 7.063-4.5309 11.727s-2.2655 9.195 11.0611 14.259c.266.133.533.266.799.266 15.325 3.199 31.45 3.199 47.308-.399 2.266-.667 13.327-4.132 9.329-15.725z" fill="#00934b"/><path d="m152.186 205.224-4.398-11.327-3.865-9.995-3.065-7.729c-10.661 3.598-21.721 3.465-31.716 0l-3.065 7.729-3.865 9.995-4.3973 11.327c17.0573 6.13 36.1143 6.53 54.3713 0z" fill="#22d511"/><path d="m140.725 176.173-6.397-16.392-5.863-15.058c-1.466-1.333-3.732-1.733-5.73-.933-.533.267-1.067.533-1.466.933l-5.864 15.058-6.396 16.392c10.127 3.331 21.055 3.598 31.716 0z" fill="#bef000"/><path d="m94.7495 37.8465 2.7985 7.0629c18.257-6.5299 37.313-6.1301 54.371-.1333l2.799-7.0629 2.798-7.1961c1.066-2.9318 4.131-13.8593-9.195-18.9233-.133 0-.133-.1332-.267-.1332-15.858-3.19834-32.516-3.19834-48.9068.6663-3.7314 1.1993-12.5267 5.4637-7.8625 16.791z" fill="#00934b"/><path d="m97.5481 44.9094 4.3979 11.3273 3.864 9.8614 3.065 7.8624c10.661-3.598 21.722-3.4648 31.717 0l3.065-7.8624 3.864-9.8614 4.398-11.3273c-17.057-6.1301-36.114-6.5299-54.3709 0z" fill="#22d511"/><path d="m108.875 73.9605 6.397 16.3913 5.997 15.3252c1.466 1.199 3.598 1.599 5.464.8.666-.267 1.199-.667 1.599-1.067l5.863-15.1915 6.397-16.3912c-9.995-3.1983-21.056-3.4648-31.717.1332z" fill="#bef000"/><path d="m214.819 168.71-.8-.267-6.263-2.798-6.93-3.065c-7.729 16.391-20.922 30.117-38.513 38.513l3.066 6.929 3.864 8.796c5.064 12.26 15.459 7.462 18.124 5.863 13.992-8.795 25.453-20.256 34.115-33.582.133-.133.133-.266.266-.533 5.731-13.06-4.131-18.523-6.929-19.856z" fill="#00934b"/><path d="m200.826 162.58-11.194-4.931-9.861-4.264-7.596-3.332c-4.664 9.462-12.393 17.324-22.388 22.255l3.331 7.596 4.265 9.861 4.931 11.194c17.457-8.129 30.783-21.988 38.512-38.379z" fill="#22d511"/><path d="m172.175 150.187-16.125-7.063-14.659-6.397c-.533 0-1.199.133-1.732.4-1.333.533-2.399 1.599-2.932 2.932-.266.533-.4 1.066-.4 1.732l6.397 14.659 7.063 16.125c9.995-5.064 17.724-12.927 22.388-22.388z" fill="#bef000"/></svg>