<svg fill="none" height="250" viewBox="0 0 250 250" width="250" xmlns="http://www.w3.org/2000/svg"><path d="m124.162 245.224c66.718 0 120.802-54.085 120.802-120.802 0-66.7174-54.084-120.80215-120.802-120.80215-66.7167 0-120.80165 54.08475-120.80165 120.80215 0 66.717 54.08495 120.802 120.80165 120.802z" fill="#fc0000"/><path d="m124.162 5.89462c65.52 0 118.527 53.00728 118.527 118.52738 0 65.519-53.007 118.526-118.527 118.526-65.5193 0-118.52658-53.007-118.52658-118.526 0-65.5201 53.00728-118.52738 118.52658-118.52738zm0-4.54997c-67.7943 0-123.07655 55.28225-123.07655 123.07735 0 67.794 55.28225 123.076 123.07655 123.076 67.795 0 123.077-55.282 123.077-123.076 0-67.7951-55.282-123.07735-123.077-123.07735z" fill="#fff"/><path d="m79.5726 220.426c-.6823-.228-1.5923-.455-2.275-.683l.6827-2.047c.6823.227 1.365.455 2.275.682z" fill="#fc0000"/><path d="m120.978 192.443c-2.275 0-7.508 4.095-7.508 5.915 0 2.958 3.868 5.915 7.963 5.915 4.322 0 6.825-2.047 6.597-5.46 0-2.502-4.55-6.37-7.052-6.37z" fill="#be251e"/><path d="m191.275 200.634 1.365-1.365c.227-.228.227-.228.455-.455-.683.682-1.365 1.137-1.82 1.82z" fill="#000"/><g fill="#fff"><path d="m192.867 165.598c-.91-2.957-1.82-6.142-2.275-9.1-.227-1.365-.227-2.957 0-4.322.228-2.958.91-5.915.683-8.873-.228-5.005-.91-10.01-1.365-15.015-.683-7.052-3.64-13.195-7.053-19.11-.227-.455-.682-1.137-.91-1.592-3.412-5.46-8.19-10.0099-13.195-14.1049-2.275-1.82-7.28-5.4792-10.237-4.5692-2.275.455-3.64 1.6119-5.688 2.7492-8.19 4.7774-14.083 12.4419-17.951 21.0869-1.137 2.503-1.864 5.53-2.546 8.26-.683 2.275-.35 4.144-2.853 4.372-4.322.455-7.901-.455-12.223 0-3.413.227-4.467-.277-5.832-2.324-.682-.91-.682-2.048-1.365-3.185-2.957-5.915-5.46-11.83-8.644-17.745-1.365-2.5025-3.6402-4.7772-6.1429-6.5972-2.0473-1.5927-4.7774-2.9577-7.28-3.8677-2.73-.91-9.542-4.3753-12.4993-2.1003-6.37 4.55-10.6488 10.6842-15.1988 17.0542-.455.682-1.1412 1.967-1.3689 2.649-5.005 7.735-8.2427 15.512-9.1527 24.385-.6826 5.914-.2276 11.474 0 17.617 0 1.137.6827 3.64 0 4.55-4.55 6.597-4.3707 14.836-3.233 21.889 1.82 11.375 11.6503 19.516 21.4327 25.886 5.915 4.095 12.0576 7.28 18.655 9.782 10.465 4.095 21.8399 6.37 33.6699 6.825 7.507-1.138 15.015-1.82 22.522-3.185 5.688-1.137 11.375-2.73 16.835-5.005 2.048-.91 3.868-1.82 5.688-2.73 5.46-2.957 11.147-5.915 15.697-10.01 5.46-5.005 10.01-11.147 11.603-18.655.227-5.232 1.82-10.01.227-15.015zm-44.176-43.433c2.275-5.915 9.141-7.982 13.464-3.432 1.137 1.138 2.047 2.503 3.185 3.868.227.227-.216.765.466 1.675-1.137-.228-1.376-.538-1.604-.765-3.185-2.275-6.597-3.413-10.237-2.503-1.593.455-2.958 1.365-4.55 1.82-.455.228-.91.228-1.365.228-.228 0 .641-.436.641-.891zm-33.401 40.021c2.502-2.275 9.782-2.73 12.512-.91 1.138.682 2.275 2.502 2.275 3.64 0 .91-1.82 2.275-2.957 2.73-1.593.455-3.413.455-5.46.455-1.593-.228-3.413 0-5.005-.455-1.138-.228-2.503-1.365-2.73-2.275-.228-.91.682-2.503 1.365-3.185zm-36.6273-40.495c2.275-2.958 4.55-5.915 8.8724-5.688 2.275 0 7.5076 4.095 7.9626 6.37 0 .455-1.3346.683-1.7896.683-.91 0-1.1346-.626-2.0446-1.081-4.095-1.82-7.7488-2.122-11.6161.836-.455.455-1.037.33-1.7193.558.2273-.91-.1204-1.223.3346-1.678zm9.1001 19.792c-1.5927-2.047-3.4127-1.82-4.7777.228-1.82 2.957-3.4123 6.37-4.7774 9.555-.9099 2.047.0001 2.502 2.5024 2.047 1.1377-.227 2.275-.455 3.4127-.227.91 0 2.5023.227 2.5023 1.137s-1.5923.683-2.5023.91c-2.275.455-4.7777.91-7.0527 1.593-1.5923.455-2.9573 1.365-4.55 2.047-1.1374.683-1.82.455-1.82-.91 0-9.327 1.365-17.972 8.19-25.252 2.0477-2.048 4.3226-2.503 6.825-2.73 3.64-.228 8.645 3.185 10.92 9.1 1.5926 4.095 2.73 8.417 4.0949 12.74.228.91.228 1.82.228 2.73-.228 1.82-1.3652 2.275-2.7303 1.365-2.73-1.593-5.0049-3.64-6.1426-7.053-.455-2.502-2.5023-5.005-4.3223-7.28zm58.4672 43.908c-2.958 1.137-6.143 2.275-9.1 2.73-1.82.227-2.503.682-2.73 2.502-.455 4.095-1.82 7.963-4.095 11.375-2.048 3.185-5.233 4.323-10.01 4.323-4.095 0-7.41-3.401-9.23-8.633-.91-2.503-1.798-4.9-2.253-7.63-.228-1.82-1.94-2.165-3.532-1.937-3.413.455-6.1888-1.321-9.3738-2.686-1.5923-.682-.4084-.542-.1811-1.907.2277-.682-.2739-1.393.1811-1.621 1.1377 1.138 1.58 1.166 1.8077 1.621 1.365 2.048 3.0281 1.419 5.3031 1.646 6.37.91 12.955-.707 17.278-5.257 1.365-1.365.91-3.626 2.957-1.124 4.323 4.778 10.519 8.645 17.344 5.915 1.137-.455 2.058-.497 3.195-1.18.683-.455 1.308-2.004 1.535-1.776.91.455 1.586.454 1.814 1.364.682.682-.228 2.047-.91 2.275zm23.66-28.21c-.455.682-2.048 1.592-2.503 1.365-3.64-2.275-7.507-3.185-11.602-3.413-.683 0-1.365-.455-2.048-.682-.227-.228-.682-.228-.91-.455.455-.228.683-.455 1.138-.455 2.275-.228 4.55-.683 6.597-.228 2.275.455 2.958-.227 2.275-1.82-1.365-3.412-2.73-6.597-4.322-9.782-1.138-1.82-3.185-2.275-4.55-.455-1.82 2.502-3.868 5.232-5.005 8.19-1.365 3.412-4.095 5.232-7.053 6.597-.227.228-1.365-.682-1.365-.91.683-7.28 2.73-14.56 7.28-20.247 5.915-7.28 13.195-5.46 17.518 1.82 3.185 5.46 4.55 11.602 4.777 17.517-.227 1.138.228 2.275-.227 2.958z"/><path d="m205.152 69.3665c-1.137 10.01-4.777 22.0677-4.777 22.0677-1.137 4.55-2.502 8.8728-3.64 13.4228 0 .227-.682.455-.91.682-.682-1.82-2.047-3.867-1.82-5.46 1.365-6.3698 3.185-12.7398 4.778-19.1098.227-.91.455-1.82.455-2.73 0-.2277.454-2.5027-.91-3.4127-2.048-1.82-4.323 0-5.46 1.1377-1.593 1.5923-2.275 3.8673-3.185 5.915-.455.91-.455 1.82-.91 2.5023-.683 1.82-1.365 1.365-2.503.2277l-.227-.2277c-3.868-4.3223-7.963-8.645-12.058-12.74-.91-.91-1.137-1.1373-.227-2.0473 5.232-5.6877 10.92-10.6927 17.745-14.105 1.137-.6823 2.275-1.1373 3.412-1.5923 3.413-1.365 7.053-.455 9.327 3.1846 0 0 .001.2277.228.2277 0 .2273.227.2277.227.455s0 .2273.228.455c.682 2.5023.682 6.5973.227 11.1473z"/><path d="m72.9754 68.6842c-5.005 3.4123-9.3277 7.9623-13.195 12.5123-1.1377 1.1377-1.365 1.365-1.82.2277 0-.2277-.2277-.2277-.2277-.455-.455-1.5927-1.1373-3.185-1.5923-4.7777-.6827-2.275-2.275-3.185-4.7777-2.9573-2.5023.2273-3.4123 1.1373-3.1846 3.4123.455 3.185 1.365 6.37 2.0473 9.555s1.365 6.37 1.82 9.555c.2273.6827.2273 1.5927-.2277 2.275-.2273.6827-.91 1.365-1.365 2.0475-.455-.6825-1.3646-1.3648-1.3646-2.0475-1.365-6.1423-2.73-12.0573-4.095-18.4273-.2277-1.1377-.455-2.275-.6827-3.4127 0-.455-.2273-.6823-.2273-1.1373-1.82-11.6027-.455-16.38.2273-17.5173.2277-.2277.2277-.455.2277-.455 1.82-3.185 4.095-4.3227 7.9623-3.64.6823 0 1.365.2273 2.275.455 5.46 1.365 9.7823 4.7773 14.105 8.4173 1.365 1.1377 2.9573 2.275 4.095 3.64 1.1373.6823 1.365 1.82 0 2.73z"/></g><g fill="#000"><path d="m145.547 181.297c-.455-.228-1.137.91-1.82 1.137-1.137.683-2.047 1.365-3.185 1.82-7.052 2.73-12.512-.455-16.834-5.232-2.048-2.503-2.73-1.365-4.095 0-4.55 4.777-10.01 6.825-16.38 5.915-2.275-.228-4.323-.683-5.688-2.73-.455-.455-1.1373-1.138-1.5923-.91-.6827.227-1.365.91-1.365 1.592-.2277 1.365 0 2.275 1.5923 3.185 2.9577 1.365 5.915 2.73 9.555 2.275 1.593-.227 2.275.228 2.503 2.048.455 2.502 1.365 5.232 2.275 7.735 1.82 5.005 6.142 8.417 10.237 8.417 4.778.228 7.962-1.137 10.01-4.322 2.275-3.413 3.64-7.28 4.095-11.375.227-1.82.91-2.275 2.73-2.503 3.185-.682 6.142-1.82 9.1-2.73.682-.227 1.592-1.592 1.592-2.047-.91-.91-1.82-1.82-2.73-2.275zm-18.2 20.247c0 .228-.227.228-.227.455 0 .228-.227.228-.227.228-.228.227-.228.227-.455.455-.228.227-.228.227-.455.227-1.138.683-2.73 1.138-4.55 1.138-4.095 0-7.963-2.958-7.963-5.915 0-.228 0-.455.228-.91.227-.455.91-1.138 1.592-1.82l.91-.91c1.593-1.365 3.64-2.275 4.778-2.275 2.73 0 7.052 4.095 7.052 6.37 0 1.137-.228 2.275-.683 2.957z"/><path d="m101.185 154.452c-.227 1.82-1.3649 2.275-2.7299 1.365-2.73-1.593-5.0047-3.64-6.1423-7.053-.91-2.73-2.73-5.232-4.55-7.28-1.5924-2.047-3.4124-1.82-4.7774.228-1.82 2.957-3.4127 6.37-4.7777 9.555-.91 2.047 0 2.502 2.5027 2.047 1.1373-.227 2.275-.455 3.4124-.227.91 0 2.5026.227 2.5026 1.137s-1.5926.683-2.5026.91c-2.275.455-4.7774.91-7.0524 1.593-1.5927.455-2.9576 1.365-4.55 2.047-1.1376.683-1.82.455-1.82-.91 0-9.327 1.365-17.972 8.19-25.252 2.0473-2.048 4.3223-2.503 6.825-2.73 3.64-.228 8.6447 3.185 10.9197 9.1 1.5926 4.095 2.73 8.417 4.0949 12.74.455.91.455 1.82.455 2.73z"/><path d="m169.89 157.182c-.455.682-2.047 1.592-2.502 1.365-3.64-2.275-7.508-3.185-11.603-3.413-.682 0-1.365-.455-2.047-.682-.228-.228-.683-.228-.91-.455.455-.228.682-.455 1.137-.455 2.275-.228 4.55-.683 6.598-.228 2.275.455 2.957-.227 2.275-1.82-1.365-3.412-2.73-6.597-4.323-9.782-1.137-1.82-3.185-2.275-4.55-.455-1.82 2.502-3.867 5.232-5.005 8.19-1.365 3.412-4.095 5.232-7.052 6.597-.228.228-1.365-.682-1.365-.91.682-7.28 2.73-14.56 7.28-20.247 5.915-7.28 13.195-5.46 17.517 1.82 3.185 5.46 4.55 11.602 4.778 17.517-.228 1.138.227 2.275-.228 2.958z"/><path d="m130.078 164.916c0 .91-1.82 2.275-2.958 2.73-1.592.455-3.412.455-5.46.455-1.592-.227-3.412 0-5.005-.455-1.137-.227-2.502-1.365-2.73-2.275-.227-.91.455-2.502 1.365-3.185 2.503-2.275 9.783-2.73 12.513-.91 1.137.683 2.502 2.503 2.275 3.64z"/><path d="m95.4978 122.147c0 .455-.6823 1.365-1.1373 1.365-.91 0-1.5927-.455-2.5027-.91-4.095-1.82-7.735-2.275-11.6023.683-.455.455-1.5923.227-2.275.455.2277-.683.2277-1.593.455-2.275 2.275-2.958 4.55-5.915 8.8723-5.688 2.5027.228 7.735 4.323 8.19 6.37z"/><path d="m166.25 124.422c-1.137-.228-1.82-.455-2.048-.683-3.184-2.275-6.597-3.412-10.237-2.502-1.592.455-2.957 1.365-4.55 1.82-.455.227-.91.227-1.365.227 0-.455-.227-1.137 0-1.365 2.275-5.915 10.01-7.735 14.333-3.185 1.137 1.138 2.047 2.503 3.185 3.868.227.455.227.91.682 1.82z"/><path d="m211.522 84.1542c2.048-7.5073 3.64-15.015 3.185-22.75-.227-5.0046-1.365-9.7823-5.005-12.9673-1.137-1.1373-2.73-1.82-4.322-2.5023-.455-.2277-1.138-.455-1.593-.455-.227 0-.455 0-.455-.2277-.455 0-.682-.2273-1.137-.2273-.228 0-.455 0-.683 0-.227 0-.682 0-.91-.2277-.227 0-.455 0-.682 0-.228 0-.683 0-.91 0h-.455c-.91 0-1.593 0-2.503.2277-.227 0-.227 0-.227 0-.91.2273-1.593.2273-2.503.455-1.365.2273-2.73.6823-4.095 1.365-8.417 3.4123-14.332 9.555-20.247 15.9246l-.228.2277c-.227.2273-.455.455-.455.455l-.227.2273c-.228.2277-.228.2277-.455.2277h-.228c-.227 0-.227.2273-.455.2273h-.227c-.228 0-.228 0-.228 0h-.227-.228-.227-.228c-.227 0-.227 0-.227-.2273 0 0-.228 0-.228-.2277-.227 0-.455-.2273-.682-.2273-5.005-2.5027-9.783-5.46-14.788-7.5073-7.735-3.185-15.925-4.55-24.342-5.005-2.73 0-5.688 0-8.418 0-2.73.455-5.687.6823-8.417 1.1373-8.8728 1.365-17.2901 4.3227-25.0251 8.8723-.2273 0-.455.2277-.6823.2277h-.2277-.2273-.2277c-.2273 0-.455 0-.6823 0-.2277 0-.2277 0-.2277 0-.2273 0-.455-.2277-.6823-.455-3.185-2.5023-6.1427-5.005-9.3277-7.5073-1.1373-.91-2.0473-1.5927-3.185-2.275-.6823-.455-1.1373-.91-1.82-1.1377-.2273 0-.455-.2273-.455-.2273-.455-.2277-.91-.455-1.365-.6827-.2273-.2273-.455-.2273-.6823-.455-.455-.2273-.6827-.455-1.1377-.6823-.2273-.2277-.455-.2277-.6823-.455-.455-.2277-.6827-.455-1.1377-.455-.2273-.2277-.455-.2277-.91-.2277-.455-.2273-.6823-.2273-1.1373-.455-.2277 0-.6827-.2273-.91-.2273-.455-.2277-.6827-.2277-1.1377-.2277-.2273 0-.6823-.2273-.91-.2273-.455 0-.6823-.2277-1.1373-.2277s-.6823 0-.91 0c-.455 0-.6823 0-.91 0h-.455c-.455 0-.6827 0-1.1377 0-10.2373.6827-15.9247 6.825-16.1522 16.835v2.73c0 4.7773.455 9.555 1.5925 14.3323 2.5024 10.465 4.7774 20.7027 6.8251 31.3948.2273.91.455 1.593.6823 2.503.2277.91.455 1.592.6827 2.502.2273 1.138.455 2.503.2273 3.868 0 .455-.2273.91-.2273 1.365-.91 2.502-1.5927 5.232-1.82 7.962-.2277 2.048-.455 3.868-.455 5.915v2.275 8.645c0 2.048.2273 3.868.2273 5.915 0 .683 0 1.365-.2273 2.048 0 .227 0 .455-.2277.682-.2273.683-.455 1.593-.6823 2.275-.2277.683-.455 1.593-.455 2.275-.455.91-5.2326 15.925 2.9573 30.94 0 .227.2277.227.2277.227.91 2.048 2.0473 3.868 2.9573 5.688 3.185 5.232 7.5073 10.01 12.74 14.105 4.7773 3.867 10.01 6.825 15.47 8.872.2273 0 .91.455 2.0473.91.2277 0 .6827.228.91.228.6827.227 1.365.455 2.275.682.455.228.91.228 1.365.455.455.228.6827.228 1.1377.455 5.46 1.82 13.6496 3.867 22.7494 5.005 2.958.455 6.143.682 9.328.91 4.322.227 9.1 0 13.65-.455h.91c.455 0 2.502-.455 2.957-.455.91 0 1.593-.227 2.275-.227 10.92-1.365 20.02-3.868 27.3-6.37 12.968-4.323 20.02-9.1 20.475-9.555 1.82-1.365 3.413-2.503 5.005-3.868 1.365-.91 2.275-2.275 3.413-3.412.227-.228.455-.455.682-.683.683-.682 1.138-1.365 1.82-2.047.455-.683 1.138-1.365 1.593-1.82 0 0 0-.228.227-.228 4.323-5.915 5.233-9.327 5.233-9.327 0-.228.227-.455.227-.455s.228-.228.228-.455c.227-.455.455-.91.682-1.593.228-.682.455-1.137.683-1.82.227-.455.227-1.137.455-1.592.227-.682.227-1.137.455-1.82.227-.455.227-1.137.455-1.592.227-.683.227-1.365.227-2.048 0-.227 0-.455.228-.682.227-.228 0-.455.227-.683 0-.682.228-1.365.228-2.047 0-.455 0-.91 0-1.365 0-.91 0-1.593 0-2.503v-1.137c0-.91-.228-1.82-.228-2.73 0-.228 0-.455 0-.91-.227-1.138-.455-2.503-.682-3.64-.91-4.323-1.593-8.873-.683-13.195 1.365-7.053 0-13.65-.455-20.475-.227-3.413-.682-6.37.228-9.783 2.047-12.285 5.46-22.9771 8.417-34.1248zm-166.3017-4.7773c-.2277-1.1377-.455-2.275-.6827-3.4127 0-.455-.2273-.6823-.2273-1.1373-1.82-11.6027-.455-16.38.2273-17.5173.2277-.2277.2277-.455.2277-.455 1.82-3.185 4.095-4.3227 7.9623-3.64.6823 0 1.365.2273 2.275.455 5.46 1.365 9.7823 4.7773 14.105 8.4173 1.365 1.1373 2.9573 2.275 4.095 3.64.91.91 1.1373 2.0473-.2277 3.185-5.005 3.4123-9.3273 7.9623-13.195 12.5123-1.1373 1.1377-1.365 1.365-1.82.2277 0-.2277-.2273-.2277-.2273-.455-.455-1.5927-1.1377-3.185-1.5927-4.7777-.6823-2.275-2.2746-3.185-4.7773-2.9573-2.5023.2273-3.4123 1.1373-3.185 3.4123.455 3.185 1.365 6.37 2.0477 9.555.6823 3.185 1.3646 6.37 1.8196 9.555.2277.6827.2277 1.5927-.2273 2.275-.2273.6827-.91 1.365-1.365 2.0478-.455-.6828-1.365-1.3651-1.365-2.0478-1.365-6.5973-2.73-12.74-3.8673-18.8823zm146.5097 100.7821c-1.593 7.507-6.143 13.65-11.603 18.655-4.55 4.095-10.237 7.052-15.697 10.01-1.82.91-3.868 2.047-5.688 2.73-5.46 2.275-10.92 3.867-16.835 5.005-7.507 1.365-15.015 2.047-22.522 3.185-11.83-.455-22.9778-2.73-33.6701-6.825-6.37-2.503-12.5123-5.688-18.655-9.783-9.7823-6.597-16.3796-15.242-18.1996-26.617-1.1377-7.052-1.365-14.787 2.9573-21.385.455-.91.455-2.275.455-3.412-.2277-5.915-1.1373-12.058-.455-17.973 1.1373-8.872 3.8673-17.29 8.8723-25.025.455-.682.6827-1.137 1.1377-1.82 4.55-6.37 10.01-11.6021 16.38-16.1521 2.9573-2.0477 5.915-.455 8.8723.455 2.73.91 5.2323 2.0473 7.28 3.8673 2.275 1.82 4.55 4.095 6.1421 6.5978 3.185 5.687 5.915 11.83 8.645 17.745.455.91.683 2.275 1.365 3.185 1.365 2.047 2.503 4.322 5.915 4.095 4.323-.455 8.645.227 12.968-.228 2.502-.227 3.64-2.73 4.322-5.005.683-2.502 1.138-5.232 2.048-7.735 3.867-8.645 9.327-15.9248 17.745-20.7021 2.047-1.1377 4.095-2.0477 6.37-2.73 3.185-.6827 5.687.91 7.962 2.73 5.005 4.095 9.555 8.6451 13.195 14.1051.455.455.683 1.137.91 1.592 3.413 5.915 6.37 12.058 7.053 19.11.455 5.005 1.137 10.01 1.365 15.015.227 2.958-.455 5.915-.683 8.873 0 1.365-.227 2.957 0 4.322.683 2.958 1.365 6.143 2.275 9.1 2.503 5.46.91 10.238-.227 15.015zm8.645-88.7248c-1.138 4.55-2.503 8.8728-3.64 13.4228 0 .227-.683.455-.91.682-.683-1.82-2.048-3.867-1.82-5.46 1.365-6.3698 3.185-12.7398 4.777-19.1098.228-.91.455-1.82.455-2.73 0-.2273.455-2.5023-.91-3.4123-2.047-1.82-4.322 0-5.46 1.1373-1.592 1.5927-2.275 3.8677-3.185 5.915-.455.91-.455 1.82-.91 2.5027-.682 1.82-1.365 1.365-2.502.2273l-.228-.2273c-3.867-4.3227-7.962-8.645-12.057-12.74-.91-.91-1.138-1.1377-.228-2.0477 5.233-5.6873 10.92-10.6923 17.745-14.1046 1.138-.6827 2.275-1.1377 3.413-1.5927 3.412-1.365 7.052-.455 9.327 3.185 0 0 0 .2277.228.2277 0 .2273.227.2273.227.455 0 .2273 0 .2273.228.455.91 2.5023.91 6.5973.227 11.1473-1.365 10.01-4.777 22.0673-4.777 22.0673z"/></g></svg>