<svg fill="none" height="250" viewBox="0 0 250 250" width="250" xmlns="http://www.w3.org/2000/svg" xmlns:xlink="http://www.w3.org/1999/xlink"><clipPath id="a"><path d="m0 0h250v250h-250z"/></clipPath><g clip-path="url(#a)"><path d="m125 250c69.036 0 125-55.964 125-125 0-69.0356-55.964-125-125-125-69.0356 0-125 55.9644-125 125 0 69.036 55.9644 125 125 125z" fill="#fff"/><path clip-rule="evenodd" d="m124.432 47.0462 45.641 82.5978c3.072 6.593 4.79 13.959 4.79 21.731 0 28.178-22.579 51.02-50.431 51.02-27.853 0-50.432-22.842-50.432-51.02 0-8.007 1.8234-15.584 5.0731-22.327zm-.003 13.6916-39.4884 71.3882-.1109.234c-2.7041 5.755-4.1551 12.053-4.2183 18.571l-.0021.444c0 24.494 19.6227 44.345 43.8227 44.345s43.822-19.851 43.822-44.345c0-6.479-1.37-12.75-3.981-18.497l-.091-.197zm.449 38.8841.026.2906c.55 7.2955-3.949 15.4285-10.206 18.7625l-1.255 2.446-1.21 2.49-.34.724c3.442-3.716 8.797-6.028 13.562-5.608l.886.111.023-.005-.119.215c-2.905 5.516-9.865 9.297-15.877 8.73-1.276 3.01-2.464 6.108-3.55 9.302 3.745-3.935 9.816-6.106 14.902-5.167l.838.186.022-.005-.132.206c-3.364 5.176-10.547 8.283-16.445 7.253-1.066 3.344-2.032 6.773-2.884 10.296 3.549-4.239 9.631-6.789 14.852-6.067l.817.141.023-.004-.13.217c-3.119 5.337-10.162 8.781-16.108 8.021-.277 1.215-.542 2.44-.793 3.677.39.025.778.033 1.168.033 5.284 0 10.197-1.612 14.283-4.377.013-.014.027-.025.041-.036l.451-.306c.121-.086.241-.173.36-.261.422-.311.833-.633 1.233-.968 5.069-3.524 11.209-5.582 17.824-5.582 7.965 0 15.241 2.984 20.796 7.907l.342.358c-.037.753-.098 1.5-.182 2.239l-.039.29-.025.197-.012.091-.036.299-.018.113-.083.566c-.021.125-.042.253-.064.38l-.097.541c-.029.153-.059.306-.09.459l-.077.373-.081.368c-.034.15-.069.301-.105.452l-.065.269c-.043.172-.087.344-.132.515-.059.222-.12.444-.184.665-.057.201-.116.399-.176.596l-.131.419c-.042.131-.084.261-.128.391l-.186.544c-.188.534-.388 1.062-.601 1.583-.042.101-.083.201-.125.301-.069.165-.14.33-.212.494l-.214.478c-.022.049-.046.101-.07.153-.258.558-.529 1.105-.813 1.643-.022.04-.044.083-.067.125-.124.232-.249.459-.376.685-.243.432-.495.856-.755 1.275-.284.455-.577.903-.88 1.342-.3.436-.61.865-.931 1.287-.175.231-.353.459-.533.685-.936 1.17-1.946 2.276-3.024 3.311l-.29.275-.388.36c-.09.081-.181.164-.274.246-.429.382-.868.753-1.315 1.113-.062.049-.123.099-.185.148-.147.116-.296.232-.446.347l-.216.164-.17.127c-.172.128-.345.255-.52.38l-.425.298c-.117.081-.236.162-.355.243-.157.105-.314.209-.473.312l-.479.305c-.059.038-.12.075-.18.112l-.628.378c-.108.064-.217.127-.325.189-.201.115-.404.229-.609.34-.068.037-.135.073-.202.11-.208.111-.417.221-.629.328-.111.057-.219.111-.328.165l-.292.143-.592.279-.607.272c-.105.046-.209.091-.314.136l-.723.297-.173.068c-.191.074-.382.147-.574.217-.168.063-.338.124-.508.183l-.418.144-.619.202-.134.041c-.283.088-.566.172-.85.252-.014.003-.029.008-.044.012-.284.079-.568.155-.853.226-.101.026-.2.05-.299.074-.568.137-1.144.26-1.726.369-.068.012-.137.025-.205.037-.269.048-.539.094-.811.136l-.167.025c-.272.041-.548.078-.825.113-.578.071-1.161.128-1.748.17-.106.008-.211.015-.316.021l-.322.018-.887.035-.89.012-1.029-.02-.674-.023c-.316-.016-.632-.036-.946-.06l-.14-.012c-.4-.033-.797-.073-1.193-.119-.05-.006-.102-.013-.154-.019-.385-.047-.765-.101-1.143-.161l-.412-.068c-.295-.05-.587-.104-.878-.162-.086-.017-.172-.034-.259-.052-.8-.166-1.59-.36-2.368-.581-.122-.035-.24-.069-.358-.104-.276-.082-.554-.169-.83-.258-.104-.034-.206-.068-.307-.102-.316-.106-.631-.217-.943-.333-.07-.026-.14-.052-.209-.078-.357-.135-.712-.275-1.063-.422-.105-.044-.211-.088-.317-.134-.267-.115-.532-.232-.795-.353-.126-.058-.253-.117-.378-.177l-.316-.152-.655-.329-.108-.056c-.324-.169-.645-.342-.962-.521l-.186-.105c-.308-.175-.613-.356-.914-.54l-.188-.117c-.284-.176-.565-.357-.842-.541-.048-.031-.094-.062-.14-.093-8.6868-5.828-14.5644-15.6-15.1373-26.791 3.0224 1.679 6.4118 2.761 10.0153 3.091l.328-1.592.497-2.275c-5.014-3.171-8.3372-10.227-7.7329-16.383l.1069-.833.0445-.235c4.679 2.642 8.0025 8.644 8.2985 14.395.814-3.313 1.728-6.542 2.731-9.683-4.743-3.319-7.6308-10.256-6.7528-16.204l.1432-.804.058-.226c4.4686 2.7 7.4666 8.546 7.5936 14.109 1.032-3.005 2.163-5.925 3.37-8.766-3.852-4.384-4.986-11.888-2.671-17.478l.354-.785.11-.201c3.133 3.202 4.652 8.374 4.236 13.206l-.113.955 1.164-2.385 1.206-2.346c-.236-7.227 4.321-15.1 10.529-18.2485l.753-.3548z" fill="#dba45c" fill-rule="evenodd"/></g></svg>