<svg fill="none" height="250" viewBox="0 0 250 250" width="250" xmlns="http://www.w3.org/2000/svg" xmlns:xlink="http://www.w3.org/1999/xlink"><clipPath id="a"><path d="m0 0h250v250h-250z"/></clipPath><g clip-path="url(#a)"><circle cx="125" cy="125" fill="#0a2336" r="125"/><g fill="#a0f7a7"><path d="m96.7567 55.6198 27.1973-15.783c.775-.4491 1.736-.4491 2.51 0l71.681 41.5867c.774.4489 1.251 1.2796 1.259 2.1777l.096 28.6028c0 .905-.477 1.744-1.259 2.193l-27.16 15.76c-1.668.973-3.761-.24-3.768-2.178l-.09-25.669c0-.898-.483-1.728-1.258-2.177l-69.2083-40.1428c-1.6756-.9728-1.6756-3.3976 0-4.3704z"/><path d="m79.0542 185.15-27.2909-15.789c-.7849-.449-1.2633-1.281-1.2633-2.187v-83.2414c0-.8988.4784-1.7302 1.2558-2.1871l24.6971-14.4028c.7849-.4569 1.7492-.4569 2.5266 0l27.2605 15.7735c1.675.9736 1.682 3.3928.008 4.374l-22.1557 12.9198c-.7774.449-1.2558 1.281-1.2558 2.187v80.373c0 1.947-2.1004 3.153-3.7823 2.18z"/><path d="m199.5 135.529v31.472c0 .904-.477 1.732-1.26 2.18l-71.744 41.483c-.775.448-1.729.448-2.504 0l-24.7248-14.184c-.7827-.447-1.2672-1.283-1.2672-2.187v-31.435c0-1.933 2.087-3.143 3.764-2.187l22.183 12.728c.775.448 1.729.44 2.505 0l69.269-40.057c1.676-.97 3.771.239 3.771 2.18z"/></g></g></svg>