<svg fill="none" height="250" viewBox="0 0 250 250" width="250" xmlns="http://www.w3.org/2000/svg" xmlns:xlink="http://www.w3.org/1999/xlink"><clipPath id="a"><path d="m0 0h250v250h-250z"/></clipPath><g clip-path="url(#a)"><path d="m125 250c69.036 0 125-55.964 125-125 0-69.0356-55.964-125-125-125-69.0356 0-125 55.9644-125 125 0 69.036 55.9644 125 125 125z" fill="#001d57"/><path d="m160.148 41.3125 9.399 9.4062-17.789 18.2813c3.75 5.7031 5.765 12.4297 5.765 19.3672.064 9.128-3.466 17.9148-9.828 24.4608-4.644 4.906-10.695 8.253-17.32 9.578v15.93c6.592 1.361 12.619 4.684 17.289 9.531 6.38 6.553 9.923 15.355 9.859 24.5.062 9.143-3.481 17.942-9.859 24.492-3.109 3.221-6.835 5.782-10.956 7.529-4.121 1.748-8.552 2.647-13.028 2.643-4.478.014-8.912-.881-13.035-2.629-4.122-1.748-7.847-4.314-10.9498-7.543-6.3592-6.562-9.8955-15.354-9.8515-24.492 0-9.219 3.5-17.961 9.8281-24.469 4.6452-4.903 10.6962-8.246 17.3202-9.57v-15.937c-6.592-1.362-12.618-4.685-17.289-9.532-6.3639-6.563-9.9033-15.3579-9.8593-24.4996 0-9.2188 3.5-17.961 9.8593-24.4922 3.108-3.222 6.834-5.7842 10.955-7.5333 4.121-1.749 8.553-2.6491 13.029-2.6464 6.719 0 13.18 2.0469 18.711 5.8516l17.758-18.2266zm-36.461 109.8205c-2.712-.022-5.4.515-7.895 1.577-2.496 1.061-4.747 2.626-6.612 4.595-3.91 4.036-6.084 9.443-6.055 15.062 0 5.664 2.148 10.953 6.055 15.055 1.879 1.951 4.132 3.503 6.625 4.563 2.493 1.061 5.174 1.608 7.882 1.609 2.711.02 5.398-.517 7.892-1.579 2.495-1.061 4.744-2.625 6.608-4.593 3.908-4.034 6.082-9.438 6.055-15.055 0-5.664-2.148-10.953-6.078-15.086-1.863-1.962-4.109-3.52-6.6-4.578-2.49-1.058-5.171-1.592-7.877-1.57zm14.477-47.578c3.922-4.04 6.104-9.456 6.078-15.0863.036-2.7861-.481-5.5517-1.52-8.137s-2.581-4.9391-4.535-6.9255c-1.878-1.9506-4.129-3.5025-6.621-4.5629-2.491-1.0605-5.171-1.6077-7.879-1.6089-2.712-.0218-5.4.515-7.895 1.5768-2.496 1.0618-4.747 2.6259-6.612 4.595-3.91 4.0363-6.084 9.4433-6.055 15.0625 0 5.6641 2.148 10.9532 6.055 15.0543 1.879 1.951 4.132 3.503 6.625 4.564 2.493 1.06 5.174 1.607 7.882 1.608 5.555 0 10.68-2.156 14.477-6.14z" fill="#fff"/></g></svg>