<svg fill="none" height="250" viewBox="0 0 250 250" width="250" xmlns="http://www.w3.org/2000/svg" xmlns:xlink="http://www.w3.org/1999/xlink"><clipPath id="a"><path d="m0 0h250v250h-250z"/></clipPath><g clip-path="url(#a)"><circle cx="125" cy="125" fill="#fff" r="125"/><path d="m62.9846 121.878c.0009 1.753-.5241 3.467-1.5087 4.925-.9845 1.457-2.3843 2.594-4.0224 3.265-1.638.672-3.4407.848-5.1801.506-1.7393-.341-3.3372-1.185-4.5914-2.424s-2.1085-2.818-2.4548-4.537-.169-3.501.5094-5.12 1.8275-3.004 3.3019-3.978c1.4744-.973 3.2078-1.493 4.9811-1.493 2.3769 0 4.6565.933 6.3376 2.594 1.6812 1.66 2.6262 3.913 2.6274 6.262zm142.4404 0c.001 1.753-.524 3.467-1.509 4.925s-2.385 2.594-4.023 3.266c-1.638.671-3.441.847-5.181.505-1.739-.342-3.337-1.186-4.591-2.425-1.254-1.24-2.108-2.819-2.454-4.538-.346-1.72-.168-3.502.511-5.121s1.829-3.003 3.304-3.977c1.475-.973 3.209-1.492 4.983-1.491 2.372.006 4.646.941 6.323 2.601 1.676 1.661 2.618 3.91 2.619 6.255zm-71.218 34.958c.001 1.753-.524 3.466-1.509 4.924s-2.385 2.595-4.023 3.266-3.441.847-5.181.505c-1.739-.342-3.337-1.186-4.591-2.425-1.254-1.24-2.108-2.819-2.454-4.538-.346-1.72-.168-3.502.511-5.121s1.829-3.003 3.304-3.977c1.475-.973 3.209-1.492 4.983-1.491 2.376.001 4.654.935 6.334 2.595 1.68 1.661 2.625 3.913 2.626 6.262zm-35.8554-17.258c0 1.753-.5258 3.466-1.5109 4.923s-2.3852 2.593-4.0234 3.264c-1.6381.671-3.4407.846-5.1797.504s-3.3364-1.186-4.5902-2.425-2.1076-2.818-2.4535-4.537c-.346-1.719-.1684-3.501.5101-5.12.6786-1.619 1.8276-3.003 3.3019-3.976 1.4743-.974 3.2076-1.494 4.9807-1.494 2.3777 0 4.6579.934 6.3392 2.596 1.6813 1.661 2.6258 3.915 2.6258 6.265zm71.2224 0c.005 1.755-.518 3.471-1.501 4.931-.983 1.461-2.383 2.6-4.022 3.274-1.639.673-3.443.851-5.184.51s-3.34-1.185-4.596-2.425c-1.255-1.24-2.11-2.821-2.455-4.541-.346-1.721-.167-3.504.514-5.125.68-1.62 1.832-3.004 3.309-3.976 1.477-.973 3.213-1.49 4.988-1.486 2.371.004 4.643.937 6.32 2.593 1.676 1.657 2.621 3.902 2.627 6.245zm-109.4978 9.121c-.0009 1.184-.357 2.341-1.0232 3.325-.6663.984-1.6128 1.75-2.7198 2.203-1.107.452-2.3249.57-3.4996.338s-2.2534-.803-3.0998-1.641-1.4224-1.905-1.6553-3.066c-.2328-1.162-.1119-2.365.3473-3.459.4592-1.093 1.2362-2.028 2.2327-2.685s2.1678-1.007 3.3656-1.006c.7954 0 1.5829.156 2.3175.457.7345.302 1.4019.743 1.9639 1.299.562.557 1.0076 1.217 1.3114 1.943.3038.727.4599 1.506.4593 2.292zm142.4408 0c-.001 1.184-.357 2.341-1.024 3.325-.666.984-1.612 1.75-2.719 2.203-1.107.452-2.325.57-3.5.338s-2.253-.803-3.1-1.641c-.846-.838-1.422-1.905-1.655-3.066-.233-1.162-.112-2.365.347-3.459.459-1.093 1.236-2.028 2.233-2.685.996-.657 2.168-1.007 3.366-1.006 1.605.001 3.145.632 4.281 1.755 1.135 1.122 1.774 2.644 1.775 4.231zm-71.218 35.431c.001 1.184-.354 2.342-1.019 3.327s-1.611 1.753-2.718 2.207-2.325.573-3.5.342c-1.176-.231-2.255-.801-3.103-1.639-.847-.837-1.424-1.904-1.657-3.066-.234-1.162-.114-2.366.345-3.46s1.236-2.029 2.233-2.686c.997-.658 2.168-1.008 3.367-1.007 1.604.002 3.142.633 4.276 1.755 1.135 1.121 1.773 2.641 1.776 4.227zm-35.8513-17.727c0 1.184-.3553 2.342-1.021 3.326-.6657.985-1.6119 1.752-2.7189 2.205-1.1069.453-2.3249.571-3.4999.34s-2.2542-.802-3.101-1.639c-.8469-.838-1.4234-1.905-1.6565-3.067-.2332-1.161-.1126-2.365.3465-3.459s1.2361-2.028 2.2327-2.686c.9965-.657 2.168-1.007 3.366-1.006.7952 0 1.5825.155 2.3171.455.7346.301 1.4019.742 1.964 1.298.562.556 1.0077 1.216 1.3116 1.943.3039.726.46 1.504.4594 2.29zm71.2223 0c.003 1.185-.35 2.344-1.015 3.331-.664.986-1.61 1.756-2.717 2.211-1.108.454-2.327.574-3.503.343-1.176-.23-2.256-.8-3.104-1.639-.848-.838-1.425-1.905-1.658-3.068-.234-1.162-.112-2.367.348-3.462.46-1.094 1.238-2.029 2.236-2.686.998-.656 2.171-1.006 3.37-1.003 1.601.005 3.135.636 4.266 1.755 1.132 1.119 1.769 2.636 1.773 4.218zm-109.4977 3.362c0 .619-.1857 1.224-.5336 1.739-.3479.514-.8424.916-1.421 1.152-.5785.237-1.2152.299-1.8294.179-.6141-.121-1.1783-.419-1.6211-.857s-.7444-.995-.8666-1.602c-.1221-.607-.0594-1.237.1802-1.809.2397-.571.6455-1.06 1.1662-1.404s1.1328-.527 1.7591-.527c.8397 0 1.645.329 2.2388.916s.9274 1.383.9274 2.213zm142.4407 0c0 .619-.186 1.224-.534 1.739-.348.514-.842.916-1.421 1.152-.578.237-1.215.299-1.829.179-.614-.121-1.179-.419-1.621-.857-.443-.438-.745-.995-.867-1.602s-.059-1.237.18-1.809c.24-.571.646-1.06 1.166-1.404.521-.344 1.133-.527 1.759-.527.84 0 1.645.329 2.239.916s.928 1.383.928 2.213zm-71.223 35.44c0 .619-.185 1.224-.533 1.739-.348.514-.843.916-1.421 1.152-.579.237-1.216.299-1.83.178-.614-.12-1.178-.418-1.621-.856s-.744-.995-.866-1.602c-.123-.607-.06-1.237.18-1.809.239-.571.645-1.06 1.166-1.404s1.133-.527 1.759-.527c.84 0 1.645.329 2.239.916s.927 1.383.927 2.213zm-35.8507-17.718c0 .619-.1857 1.224-.5336 1.739s-.8425.916-1.421 1.153c-.5786.237-1.2152.298-1.8294.178-.6142-.121-1.1783-.419-1.6211-.857-.4429-.437-.7444-.995-.8666-1.602s-.0595-1.236.1802-1.808c.2396-.572.6455-1.061 1.1662-1.405.5206-.344 1.1328-.527 1.759-.527.8398 0 1.6451.329 2.2389.916s.9274 1.383.9274 2.213zm71.2227 0c0 .619-.186 1.224-.534 1.739s-.842.916-1.421 1.153c-.578.237-1.215.298-1.829.178-.614-.121-1.179-.419-1.621-.857-.443-.437-.745-.995-.867-1.602s-.059-1.236.18-1.808c.24-.572.646-1.061 1.166-1.405.521-.344 1.133-.527 1.759-.527.84 0 1.646.329 2.239.916.594.587.928 1.383.928 2.213zm-26.656-133.8462c0 2.3683-.71 4.6835-2.042 6.6526-1.331 1.9691-3.223 3.5037-5.437 4.4096s-4.65 1.1425-7 .6798-4.509-1.6039-6.202-3.2792c-1.694-1.6753-2.847-3.8095-3.313-6.1326-.467-2.323-.225-4.7306.693-6.9182s2.472-4.0569 4.465-5.3714 4.336-2.0152 6.732-2.0134c3.211.0023 6.29 1.2648 8.56 3.5099 2.269 2.2451 3.544 5.289 3.544 8.4629zm0 35.4176c0 2.3681-.71 4.6831-2.041 6.6522-1.332 1.969-3.224 3.5035-5.437 4.4094-2.214.906-4.65 1.143-7 .681-2.349-.463-4.508-1.6033-6.202-3.2782-1.693-1.6749-2.847-3.8086-3.314-6.1314s-.226-4.7303.691-6.9179c.918-2.1877 2.471-4.0573 4.464-5.3723 1.992-1.3151 4.335-2.0165 6.731-2.0156 3.212.0012 6.292 1.2631 8.562 3.5083 2.271 2.2452 3.546 5.2899 3.546 8.4645zm0 34.9616c0 2.368-.71 4.683-2.041 6.652-1.332 1.969-3.224 3.504-5.437 4.41-2.214.906-4.65 1.143-7 .68-2.349-.462-4.508-1.603-6.202-3.278-1.693-1.674-2.847-3.808-3.314-6.131s-.226-4.73.691-6.918c.918-2.188 2.471-4.057 4.464-5.372 1.992-1.315 4.335-2.017 6.731-2.016 1.592.001 3.168.311 4.638.915 1.47.603 2.806 1.486 3.931 2.6 1.124 1.113 2.016 2.435 2.623 3.89.607 1.454.919 3.012.916 4.586zm71.227-34.9616c0 2.368-.71 4.6828-2.041 6.6517s-3.223 3.5035-5.436 4.4099c-2.214.906-4.649 1.143-6.999.681s-4.508-1.6022-6.202-3.2766-2.848-3.8078-3.315-6.1303c-.468-2.3225-.228-4.7298.689-6.9175.917-2.1878 2.47-4.0577 4.462-5.3732 1.992-1.3156 4.333-2.0178 6.729-2.0178 3.213 0 6.294 1.2614 8.566 3.5067 2.271 2.2454 3.547 5.2907 3.547 8.4661zm-142.44 0c.0036 2.3687-.7038 4.6853-2.0326 6.6566-1.3288 1.9712-3.2194 3.5086-5.4325 4.418-2.213.908-4.6491 1.148-7.0001.688-2.3509-.46-4.5109-1.5987-6.2068-3.2724-1.6958-1.6737-2.8513-3.807-3.3202-6.13-.4688-2.323-.23-4.7312.6863-6.92s2.4688-4.0597 4.4612-5.3761 4.3351-2.019 6.7316-2.019c3.2095 0 6.2878 1.2589 8.5589 3.5004s3.5495 5.2822 3.5542 8.4545zm35.851-17.7178c.004 2.368-.703 4.6839-2.0314 6.6547-1.328 1.9709-3.2175 3.5083-5.4295 4.4177-2.212.9095-4.6472 1.1502-6.9977.6917-2.3504-.4585-4.5104-1.5956-6.207-3.2675-1.6966-1.672-2.8535-3.8036-3.3244-6.1254s-.2347-4.7295.6788-6.9186c.9136-2.1891 2.4633-4.0612 4.4533-5.3798 1.99-1.3185 4.3309-2.0241 6.7267-2.0277 3.2126 0 6.2936 1.2614 8.5652 3.5068 2.272 2.2453 3.548 5.2906 3.548 8.466zm-.018 34.9754c0 2.368-.711 4.682-2.0415 6.651-1.331 1.969-3.2229 3.504-5.4362 4.41-2.2134.906-4.649 1.143-6.9987.681s-4.5081-1.602-6.2021-3.276c-1.6941-1.675-2.8478-3.808-3.3151-6.131-.4674-2.322-.2276-4.729.6893-6.917.9168-2.1879 2.4693-4.0578 4.4613-5.3734s4.334-2.0178 6.7298-2.0178c3.2126 0 6.2936 1.2615 8.5652 3.5068 2.272 2.2454 3.548 5.2904 3.548 8.4664zm71.24-34.9575c0 2.368-.71 4.6828-2.041 6.6517s-3.223 3.5035-5.436 4.4097c-2.214.9062-4.649 1.1433-6.999.6813-2.35-.4619-4.508-1.6022-6.202-3.2767-1.694-1.6744-2.848-3.8077-3.315-6.1302s-.228-4.7298.689-6.9176c.917-2.1877 2.47-4.0576 4.462-5.3732s4.334-2.0178 6.729-2.0178c3.213 0 6.294 1.2614 8.566 3.5068 2.271 2.2453 3.547 5.2906 3.547 8.466zm0 34.9575c0 2.368-.71 4.682-2.041 6.651s-3.223 3.504-5.436 4.41c-2.214.906-4.649 1.143-6.999.681s-4.508-1.602-6.202-3.276c-1.694-1.675-2.848-3.808-3.315-6.131-.467-2.322-.228-4.729.689-6.917.917-2.1879 2.47-4.0578 4.462-5.3734s4.334-2.0178 6.729-2.0178c3.213 0 6.294 1.2615 8.566 3.5068 2.271 2.2454 3.547 5.2904 3.547 8.4664z" fill="#000"/></g></svg>