<svg fill="none" height="250" viewBox="0 0 250 250" width="250" xmlns="http://www.w3.org/2000/svg" xmlns:xlink="http://www.w3.org/1999/xlink"><clipPath id="a"><path d="m0 0h250v250h-250z"/></clipPath><g clip-path="url(#a)"><path d="m125 0c69.037 0 125 55.9625 125 125 0 69.037-55.963 125-125 125-69.0375 0-125.00001526-55.963-125.00001526-125 0-69.0375 55.96251526-125 125.00001526-125z" fill="#006fff"/><path d="m45.2625 167.925c-.65-1.312-.15-2.912 1.15-3.6l56.9375-29.9c1.912-1 1.912-3.725 0-4.737l-58.825-31.2129c-1.3-.6875-1.8-2.2875-1.1125-3.5875 4.2-8.025 11.1375-20.8125 14.85-27.2625.8375-1.4625 3.9375-1.0125 5.5375-.3625 1.5875.6375 39.362 14.925 60.637 23.275 2.863 1.0125 5.988 1.0125 8.85 0 21.45-8.3625 39.525-15.55 60.9-24.2375 2.563-1.05 4.425-1.525 5.875 1.4625 3.1 6.25 10.738 19.1375 15.05 27.1375.7 1.2875.2 2.8875-1.1 3.575l-58.862 31.3999c-1.9 1.013-1.888 3.738 0 4.738l58.825 31.025c1.3.687 1.812 2.3 1.112 3.6-4.15 7.737-10.787 19.137-14.525 25.525-.537.912-3.987.912-5.662.25-15.788-6.163-41.888-15.113-57.6-21.438-8.975-3.6-11.65-4.637-20.938 0-16.112 8.038-34.7245 14.5-51.3995 21.438-4.2125 1.75-7.4375-.925-9.375-5.363-2.6-5.637-7.0125-15.05-10.3375-21.737z" fill="#0149a7"/><path d="m42.5875 162.562c-.65-1.312-.15-2.912 1.15-3.587l56.9375-29.9c1.913-1 1.913-3.725 0-4.738l-58.825-31.212c-1.3-.6875-1.8-2.2875-1.1125-3.5875 4.2-8.025 11.1375-20.8125 14.85-27.2625.8375-1.4625 3.9375-1.0125 5.5375-.3625s39.363 14.925 60.638 23.275c2.862 1.0125 5.987 1.0125 8.85 0 21.45-8.3625 39.525-15.55 60.9-24.2375 2.562-1.05 4.425-1.525 5.875 1.4625 3.1 6.25 10.737 19.1375 15.05 27.1375.7 1.2875.2 2.8875-1.1 3.575l-58.85 31.4c-1.9 1.012-1.888 3.737 0 4.737l58.825 31.025c1.3.688 1.812 2.3 1.112 3.6-4.15 7.738-10.787 19.138-14.525 25.525-.537.913-3.987.913-5.662.25-15.788-6.162-41.888-15.112-57.6-21.437-8.975-3.6-11.65-4.638-20.938 0-16.1125 8.037-34.725 14.5-51.4 21.437-4.2125 1.75-7.4375-.925-9.375-5.362-2.6-5.638-7.0125-15.05-10.3375-21.738z" fill="#fff"/><path d="m64.9 70.7374c8.975 3.55 17.9625 7.1625 26.9625 10.7875 10.0245 4.0375 20.0495 8.075 30.0625 12.0125l.037.0125c2.85 1.0125 5.975 1.0125 8.825 0l.038-.0125c19.225-7.5 38.362-15.2625 57.512-23.0375 1.2-.4875 1.863-.675 2.325-.6125.263.0375.688.1625 1.225 1.2625 2.263 4.5625 4.6 9.075 7.075 13.8375.7 1.35 1.4 2.7125 2.125 4.1l-64.975 34.8746c-1.887 1.013-1.887 3.713 0 4.725l65.025 34.875c-.637 1.225-1.262 2.45-1.875 3.65-2.587 5.038-5.1 9.925-7.862 14.675-.025 0-.05.013-.088.025-.237.063-.6.113-1.05.125-.912.025-1.862-.112-2.4-.325-8.55-3.337-20.887-8.4-32.425-13.137-7.537-3.1-14.737-6.05-20.325-8.3l-.075-.025c-3.912-1.575-6.737-2.713-9.637-2.838-2.988-.125-5.925.8-10.138 2.913-11.5 5.737-26.6495 11.962-39.9245 17.412-3.325 1.363-6.525 2.675-9.5125 3.925-1.825.763-2.925.875-3.675.625-.6875-.225-1.4625-.9-2.2625-2.762v-.025c-1.7375-3.75-3.675-7.425-5.65-11.175-.8375-1.575-1.675-3.163-2.5-4.775l65.0375-34.875c1.887-1.013 1.887-3.713 0-4.725l-64.9625-34.8751c.675-1.3125 1.325-2.6 1.9875-3.8875 2.5375-5 5-9.825 7.7125-14.55.025 0 .0625-.025.1-.0375.2375-.075.5875-.125 1.025-.15.8875-.05 1.8.075 2.2625.275zm126.6 111.0996s0 0-.013 0z" fill="#202020" stroke="#000" stroke-width="2.1875"/><g fill="#000"><path d="m138.662 131.137 64.3 32.15-4.025 5.363-63.35-33.613c-.962-.512-.95-1.9.025-2.387l3.038-1.513z"/><path d="m50.225 163.275 62.962-32.15 3.65 2.738c.788.587.688 1.8-.187 2.262l-62.4126 32.513-4.025-5.363z"/><path d="m126.587 94.9752 61.625-24.125 2.675-1.3375 10.713 18.75-2.675 1.3375-6.138-11.05c-.325-.575-1.012-.8375-1.637-.6125l-60.838 22.3503c-2.412.887-5.062.875-7.462-.025l-58.5875-21.9753c-1.1625-.4375-2.4751-.0125-3.1751 1.025l-6.8624 10.2875h-4.0126l12.0501-18.75 64.2995 24.1125z"/></g></g></svg>