<svg fill="none" height="250" viewBox="0 0 250 250" width="250" xmlns="http://www.w3.org/2000/svg" xmlns:xlink="http://www.w3.org/1999/xlink"><linearGradient id="a" gradientUnits="userSpaceOnUse" x1="125" x2="125" y1="0" y2="250"><stop offset="0" stop-color="#f9c0a4"/><stop offset="1" stop-color="#f6a097"/></linearGradient><radialGradient id="b" cx="0" cy="0" gradientTransform="matrix(-85.17833193 49.59487731 -59.48535318 -102.16505077 156.504 43.5453)" gradientUnits="userSpaceOnUse" r="1"><stop offset=".116813"/><stop offset=".734375" stop-color="#8f7d7d"/><stop offset="1" stop-color="#5c3d38"/></radialGradient><linearGradient id="c" gradientUnits="userSpaceOnUse" x1="125.24" x2="125.24" y1="100.372" y2="222.974"><stop offset="0"/><stop offset=".46875"/><stop offset="1"/></linearGradient><linearGradient id="d" gradientUnits="userSpaceOnUse" x1="154.348" x2="154.348" y1="97.3802" y2="231.14"><stop offset="0"/><stop offset=".197917"/><stop offset="1" stop-color="#a99e9e"/></linearGradient><rect fill="#fff" height="250" rx="125" width="250"/><rect fill="url(#a)" height="250" rx="125" width="250"/><path d="m178.788 84.0696c-.016 2.7243-2.517 4.6509-5.22 4.3661-6.702-.7064-12.843-.6477-18.583-.049-12.496 1.3039-22.88 5.1633-32.453 8.7221l-.021.0073c-.58.2156-1.156.4299-1.73.6424-10.165 3.7645-19.532 7.0035-30.6453 7.2605-4.4332.103-9.2093-.271-14.4687-1.33-4.5107-.909-8.1145-4.3572-9.0083-8.8805-.7082-3.5838-1.0796-7.2894-1.0796-11.0818 0-31.3293 25.343-56.7267 56.6049-56.7267 31.263 0 56.606 25.3974 56.606 56.7267 0 .1144-.001.2287-.002.3429z" fill="url(#b)"/><path d="m70.6213 112.26c-4.2507-1.023-8.1297 3.554-6.0364 7.4l55.5621 102.083c.894 1.642 3.247 1.642 4.141 0l61.327-112.672c2.174-3.997.082-9.003-4.372-9.8946-9.691-1.9401-17.948-2.149-25.297-1.3822-11.275 1.1764-20.639 4.6528-30.361 8.2618-.515.191-1.031.382-1.548.574-10.177 3.77-20.858 7.548-33.6986 7.845-6.1031.141-12.6039-.503-19.7171-2.215z" fill="url(#c)" opacity=".7"/><path d="m122.203 109.282c0-1.183.738-2.242 1.846-2.652.518-.192 1.034-.383 1.549-.574 9.721-3.609 19.086-7.0854 30.361-8.2618 7.349-.7668 15.605-.5579 25.296 1.3822 4.454.8916 6.547 5.8976 4.372 9.8946l-61.326 112.672c-.452.83-1.277 1.241-2.098 1.231z" fill="url(#d)"/></svg>