<svg fill="none" height="250" viewBox="0 0 250 250" width="250" xmlns="http://www.w3.org/2000/svg" xmlns:xlink="http://www.w3.org/1999/xlink"><linearGradient id="a" gradientUnits="userSpaceOnUse" x1="-3.96067" x2="238.523" y1="126.373" y2="126.373"><stop offset="0" stop-color="#d8b35d"/><stop offset="1" stop-color="#f5e7bf"/></linearGradient><clipPath id="b"><path d="m0 0h250v250h-250z"/></clipPath><g clip-path="url(#b)" clip-rule="evenodd" fill-rule="evenodd"><path d="m45.804 21.9502-45.603903 96.3078c-.1823584.349-.2451652.749-.1786856 1.137.0664796.389.2585326.744.5463926 1.012l123.104196 118.683c.354.321.814.498 1.291.498s.937-.177 1.291-.498l123.178-118.683c.285-.27.475-.625.541-1.013.067-.387.006-.786-.173-1.136l-45.604-96.3078c-.121-.335-.344-.623-.638-.8229-.293-.2-.642-.3016-.996-.2905h-155.1401c-.3496.0096-.6892.1195-.9788.3168-.2895.1972-.517.4736-.6555.7966z" fill="url(#a)"/><path d="m140.84 128.108c-.883.074-5.45.37-15.62.37-8.101 0-13.85-.222-15.913-.37-31.3083-1.405-54.6617-6.89-54.6617-13.41s23.3534-12.075 54.6617-13.48v21.409c2.043.148 7.885.518 15.987.518 9.724 0 14.586-.444 15.472-.518v-21.409c31.235 1.405 54.588 6.89 54.588 13.406s-23.288 12.079-54.514 13.484zm0-29.039v-19.1909h43.614v-29.2609h-118.7571v29.2609h43.6101v19.1909c-35.4347 1.643-62.1017 8.665-62.1017 17.186s26.667 15.485 62.1017 17.186v61.418h31.533v-61.418c35.361-1.644 61.959-8.669 61.959-17.112s-26.598-15.633-61.959-17.2559z" fill="#fff"/></g></svg>