<svg fill="none" height="262" viewBox="0 0 262 262" width="262" xmlns="http://www.w3.org/2000/svg" xmlns:xlink="http://www.w3.org/1999/xlink"><linearGradient id="a" gradientUnits="userSpaceOnUse" x1="0" x2="262" y1="131" y2="131"><stop offset="0" stop-color="#4eae9e"/><stop offset=".65" stop-color="#7ec5aa"/></linearGradient><linearGradient id="b" gradientUnits="userSpaceOnUse" x1="90.6841" x2="200.866" y1="121.298" y2="121.298"><stop offset="0" stop-color="#dadada"/><stop offset="1" stop-color="#fff"/></linearGradient><linearGradient id="c" gradientUnits="userSpaceOnUse" x1="178.517" x2="50.7802" y1="154.619" y2="111.464"><stop offset="0" stop-color="#c6c6c6"/><stop offset="1" stop-color="#fff"/></linearGradient><rect fill="url(#a)" height="262" rx="131" width="262"/><path d="m97.2275 167.437c-1.1103-.421-2.2078-.875-3.291-1.361 1.0524.555 2.1542 1.011 3.291 1.361z" fill="#ffd104"/><path d="m197.599 78.3581c-2.111-4.9794-5.189-9.4906-9.055-13.2725-3.888-3.7975-8.476-6.8053-13.509-8.8569-5.251-2.1477-10.877-3.2336-16.55-3.1951h-38.176c-12.146 5.5134-22.4359 14.4269-29.6249 25.6632 3.6244-2.9645 8.1818-4.5492 12.8639-4.4732h54.917c2.71-.0598 5.403.4386 7.912 1.4643s4.779 2.5567 6.671 4.4978c1.895 1.8265 3.398 4.0204 4.417 6.4475 1.018 2.4272 1.531 5.0365 1.507 7.6686v53.9912c.019 2.704-.53 5.381-1.611 7.86-4.679 13.689-13.768 25.439-25.842 33.408h6.946c5.696.047 11.343-1.039 16.615-3.195 5.025-2.058 9.604-5.07 13.483-8.87 3.838-3.741 6.914-8.193 9.055-13.106 2.194-5.087 3.3-10.577 3.247-16.116v-53.9658c.013-5.4841-1.098-10.9126-3.266-15.9501z" fill="url(#b)"/><path d="m93.9365 166.076c1.0524.555 2.1542 1.011 3.291 1.361-1.1103-.421-2.2078-.875-3.291-1.361z" fill="#ffd104"/><path d="m158.459 168.37h-54.918c-2.14.011-4.2684-.303-6.3134-.933-1.1369-.35-2.2386-.806-3.291-1.361-1.8113-.974-3.4675-2.212-4.9141-3.674-1.9104-1.817-3.4271-4.007-4.456-6.434s-1.5481-5.04-1.5253-7.676v-53.9848c-.0217-2.6369.4979-5.2503 1.5267-7.6783 1.0288-2.4281 2.545-4.6192 4.4546-6.4377.5304-.5263 1.087-1.0254 1.6679-1.4953 7.1856-11.2368 17.4736-20.1507 29.6186-25.6633h-16.768c-5.6647-.0314-11.2802 1.0544-16.525 3.1952-5.0496 2.0424-9.6531 5.0485-13.5537 8.8505-3.8693 3.7832-6.9492 8.2967-9.0614 13.2789-2.1611 5.0388-3.266 10.4673-3.2462 15.95v53.9848c-.0531 5.54 1.0527 11.029 3.2462 16.116 2.1426 4.911 5.2178 9.36 9.055 13.1 3.9008 3.81 8.5067 6.822 13.5601 8.87 5.2448 2.141 10.8603 3.226 16.525 3.195h47.972c12.08-7.963 21.17-19.715 25.842-33.408-1.038 2.332-2.501 4.451-4.314 6.249-1.891 1.941-4.162 3.471-6.671 4.495-2.509 1.025-5.202 1.522-7.911 1.461z" fill="url(#c)"/><path d="m120.456 147.052v61.922h21.088v-72.453z" fill="#fff"/></svg>