<svg fill="none" height="250" viewBox="0 0 250 250" width="250" xmlns="http://www.w3.org/2000/svg" xmlns:xlink="http://www.w3.org/1999/xlink"><clipPath id="a"><path d="m0 0h250v250h-250z"/></clipPath><g clip-path="url(#a)"><path d="m125 250c69.036 0 125-55.964 125-125 0-69.0356-55.964-125-125-125-69.0356 0-125 55.9644-125 125 0 69.036 55.9644 125 125 125z" fill="#0e0e21"/><path d="m194.792 154.167-14.844-25.26c-.521-1.042-1.823-1.302-2.604-.521l-9.636 6.25c-.781.521-1.041 1.823-.521 2.604l8.594 14.323c.261.521 0 1.042-.26 1.302l-50 32.292c-.261.26-.781.26-1.042 0l-49.479-32.292c-.5209-.26-.5209-.781-.2604-1.302l8.5937-14.323c.5208-.781.2604-2.083-.5208-2.604l-9.6354-6.25c-1.0417-.521-2.0834-.261-2.6042.521l-14.8438 25.26c-1.0416 1.823-.5208 4.167 1.3021 5.208l66.4058 43.23c1.303.781 2.865.781 4.167 0l66.406-43.23c1.302-1.302 1.823-3.645.782-5.208z" fill="#fff"/><path d="m80.4688 114.844 9.6354 6.25c1.0417.521 2.0833.26 2.6042-.521l31.2496-53.1251c.261-.5208 1.302-.5208 1.563 0l31.25 53.1251c.521 1.042 1.823 1.302 2.604.521l9.635-6.25c.782-.521 1.042-1.823.521-2.604l-36.718-63.5421c-.782-1.3021-1.823-1.8229-3.386-1.8229h-8.854c-1.302 0-2.604.7813-3.385 1.8229l-37.24 63.5421c-.5209.781-.2604 2.083.5208 2.604z" fill="#2ae7a8"/></g></svg>