<svg width="250" height="250" viewBox="0 0 250 250" fill="none" xmlns="http://www.w3.org/2000/svg">
<g clip-path="url(#clip0_50_11088)">
<path fill-rule="evenodd" clip-rule="evenodd" d="M20.739 62.9375C21.1256 63.282 21.4426 63.5432 21.7364 63.828C24.8743 66.8591 27.9851 69.9176 31.1629 72.9101C31.8756 73.5805 31.8794 74.0407 31.3691 74.8119C24.7106 84.8517 22.2892 95.8517 24.5109 107.511C27.489 123.15 36.6191 134.546 51.5354 141.414C60.3459 145.469 69.6913 146.51 79.2983 145.09C85.7544 144.137 91.8008 141.969 97.3189 138.558C98.2338 137.992 98.7351 138.057 99.4812 138.788C107.589 146.732 115.748 154.628 123.847 162.579C124.742 163.459 125.204 163.558 126.167 162.622C135.426 153.604 144.76 144.656 154.019 135.639C155.037 134.646 155.675 134.476 157.01 135.251C165.106 139.954 173.928 141.839 183.36 141.414C202.083 140.569 219.182 127.941 224.984 110.605C229.377 97.4748 227.747 85.0171 220.588 73.1676C220.12 72.394 220.078 71.9151 220.796 71.2472C223.405 68.8218 225.941 66.3256 228.51 63.8591C228.749 63.6303 229.016 63.4288 229.275 63.2099C256.709 102.127 260.578 164.731 216.439 210.827C170.724 258.569 95.2802 262.286 44.9078 221.306C-6.24685 179.688 -12.3293 111.36 20.739 62.9375Z" fill="#00A6C4"/>
<path fill-rule="evenodd" clip-rule="evenodd" d="M210.85 47.5009C161.757 -0.94812 81.9359 3.16009 39.3457 45.5668C39.5931 45.8367 39.8341 46.1228 40.1022 46.3815C68.2388 73.5967 96.3805 100.807 124.5 128.039C125.292 128.806 125.74 128.712 126.463 128.005C130.094 124.449 133.763 120.929 137.433 117.41C161.161 94.6539 184.892 71.8989 208.636 49.1576C209.272 48.5469 210.061 48.0842 210.85 47.5009ZM125.419 145.222C91.097 111.977 56.8663 78.8218 22.5493 45.5817C22.7967 45.2633 22.9952 44.9598 23.2413 44.6974C35.6202 31.4399 49.9875 20.7285 66.7581 13.1066C75.9114 8.94616 85.4243 5.81059 95.3212 3.75337C106.718 1.38521 118.24 0.422528 129.879 0.927503C146.852 1.66133 163.093 5.41258 178.615 12.0979C197.279 20.1352 213.035 31.8865 226.408 46.7248C227.181 47.583 226.736 47.9673 226.141 48.5382C209.507 64.4996 192.881 80.4673 176.257 96.4387C159.669 112.375 143.085 128.317 126.496 144.255C126.196 144.543 125.874 144.814 125.419 145.222Z" fill="#00A6C4"/>
<path fill-rule="evenodd" clip-rule="evenodd" d="M81.191 121.921C74.2232 128.076 58.7348 129.5 48.4822 119.614C38.1949 109.696 39.6034 95.0253 46.3585 87.3984C57.9861 98.9221 69.5969 110.43 81.191 121.921Z" fill="#00A6C4"/>
<path fill-rule="evenodd" clip-rule="evenodd" d="M171.29 119.542C182.955 108.254 194.567 97.0176 206.177 85.7812C211.084 91.0835 213.362 104.62 204.865 114.597C195.415 125.692 179.825 125.628 171.29 119.542Z" fill="#00A6C4"/>
</g>
<defs>
<clipPath id="clip0_50_11088">
<rect width="250" height="250" fill="white"/>
</clipPath>
</defs>
</svg>
