<svg fill="none" height="250" viewBox="0 0 250 250" width="250" xmlns="http://www.w3.org/2000/svg" xmlns:xlink="http://www.w3.org/1999/xlink"><clipPath id="a"><path d="m0 0h250v250h-250z"/></clipPath><g clip-path="url(#a)" clip-rule="evenodd" fill="#00a6c4" fill-rule="evenodd"><path d="m20.739 62.9375c.3866.3445.7036.6057.9974.8905 3.1379 3.0311 6.2487 6.0896 9.4265 9.0821.7127.6704.7165 1.1306.2062 1.9018-6.6585 10.0398-9.0799 21.0398-6.8582 32.6991 2.9781 15.639 12.1082 27.035 27.0245 33.903 8.8105 4.055 18.1559 5.096 27.7629 3.676 6.4561-.953 12.5025-3.121 18.0206-6.532.9149-.566 1.4162-.501 2.1623.23 8.1078 7.944 16.2668 15.84 24.3658 23.791.895.88 1.357.979 2.32.043 9.259-9.018 18.593-17.966 27.852-26.983 1.018-.993 1.656-1.163 2.991-.388 8.096 4.703 16.918 6.588 26.35 6.163 18.723-.845 35.822-13.473 41.624-30.809 4.393-13.1302 2.763-25.5879-4.396-37.4374-.468-.7736-.51-1.2525.208-1.9204 2.609-2.4254 5.145-4.9216 7.714-7.3881.239-.2288.506-.4303.765-.6492 27.434 38.9171 31.303 101.5211-12.836 147.6171-45.715 47.742-121.1588 51.459-171.5312 10.479-51.15465-41.618-57.2371-109.946-24.1688-158.3685z"/><path d="m210.85 47.5009c-49.093-48.44902-128.9141-44.34081-171.5043-1.9341.2474.2699.4884.556.7565.8147 28.1366 27.2152 56.2783 54.4255 84.3978 81.6575.792.767 1.24.673 1.963-.034 3.631-3.556 7.3-7.076 10.97-10.595 23.728-22.7561 47.459-45.5111 71.203-68.2524.636-.6107 1.425-1.0734 2.214-1.6567zm-85.431 97.7211c-34.322-33.245-68.5527-66.4002-102.8697-99.6403.2474-.3184.4459-.6219.692-.8843 12.3789-13.2575 26.7462-23.9689 43.5168-31.5908 9.1533-4.16044 18.6662-7.29601 28.5631-9.35323 11.3968-2.36816 22.9188-3.330842 34.5578-2.825867 16.973.733827 33.214 4.485077 48.736 11.170397 18.664 8.0373 34.42 19.7886 47.793 34.6269.773.8582.328 1.2425-.267 1.8134-16.634 15.9614-33.26 31.9291-49.884 47.9005-16.588 15.9363-33.172 31.8783-49.761 47.8163-.3.288-.622.559-1.077.967z"/><path d="m81.191 121.921c-6.9678 6.155-22.4562 7.579-32.7088-2.307-10.2873-9.918-8.8788-24.5887-2.1237-32.2156 11.6276 11.5237 23.2384 23.0316 34.8325 34.5226z"/><path d="m171.29 119.542c11.665-11.288 23.277-22.5244 34.887-33.7608 4.907 5.3023 7.185 18.8388-1.312 28.8158-9.45 11.095-25.04 11.031-33.575 4.945z"/></g></svg>