<svg fill="none" height="250" viewBox="0 0 250 250" width="250" xmlns="http://www.w3.org/2000/svg"><path d="m121.933 11.1014c5.449-2.84099 12.1 3.75 9.2 9.1941-1.681 4.437-8.056 5.617-11.312 2.235-3.446-3.247-2.321-9.6631 2.112-11.4291zm-58.607 6.3161c3.3099-1.3631 7.4999 1.67 7.1619 5.278.351 3.916-4.437 6.8-7.8109 4.938-4.47-1.731-3.959-8.988.649-10.215zm120.033 10.326c-5.173-.625-5.991-8.757-1.011-10.4 3.863-1.8841 7.406 1.649 7.971 5.31-.81 3.126-3.428 5.989-6.96 5.085zm-106.7001 14.614c5.534-3.5 13.43 1.7121 12.579 8.1401-.287 6.49-8.908 10.25-13.771 5.862-4.7-3.446-3.99-11.353 1.192-14.0001zm84.4761 3.7161c2.471-6.3561 12.475-6.5561 15.285-.356 2.777 4.82-.639 10.789-5.587 12.427-6.555 1.224-12.781-5.862-9.695-12.066zm-46.26 11.708c-.054-5.469 4.927-9.544 10.125-9.916 3.447.691 7.205 2.16 8.684 5.639 2.756 4.8.309 11.406-4.671 13.609-2.277 1.2761-4.97.8001-7.45.649-3.791-1.861-6.984-5.511-6.687-9.98zm-87.156 7.968c5.055-3.108 11.875 2.5641 9.961 8.0551-1.054 4.75-7.439 6.682-11.089 3.65-3.9-2.841-3.279-9.673 1.128-11.7051zm187.156-.01c4.289-3.33 11.366.49 10.855 5.9001.288 4.938-5.831 8.661-10.089 6.119-4.689-2.107-5.167-9.3211-.766-12.0241zm-75.49 9.8261c7.077-2.542 15.484.5 19.518 6.81 5.321 7.714 2.49 19.4613-5.768 23.8873-8.556 5.235-21.05.8-24.21-8.7572-3.588-8.5541 1.639-19.2591 10.46-21.9401zm-41.5251.847c7.8441-3.7 18.4001-.6 22.1891 7.427 4.459 7.81 1.011 18.6853-6.96 22.7173-7.981 4.533-19.2411 1.1-23.1001-7.2892-4.335-8.1081-.489-19.1211 7.871-22.8551zm-41.5789 14.215c.6-5.054 5.364-8.342 10.1739-8.683 5.183.625 9.323 4.65 9.886 9.9-.34 5.1921-4.353 10.2683-9.855 10.2363-6.0539.521-11.3609-5.5002-10.2049-11.4493zm122.81-7.58c6.215-3.618 14.845 1.649 14.569 8.789.426 7.5651-9.125 12.9003-15.314 8.4593-6.429-3.6952-5.928-14.1003.745-17.2473zm-98.1301 26.6593c7.269-2 15.58 1.426 19.1451 8.107 3.9 6.725 2.309 16.067-3.7561 21-7.779 7.235-22.125 4.33-26.265-5.544-4.757-9.051 1.021-21.181 10.876-23.564zm78.7611-.038c7.066-2.021 15.367.7 19.166 7.14 5.023 7.363 2.625 18.344-4.852 23.09-7.833 5.511-19.965 2.617-24.275-6-5.225-8.914.033-21.511 9.961-24.23zm-125.513 8.4c6.279-2.375 13.239 4.554 10.695 10.779-1.553 5.67-9.545 7.77-13.674 3.586-4.831-3.926-3.042-12.662 2.98-14.365zm170.191 9.034c-.181-5.2 3.625-9.81 8.96-10.1 4.3.681 8.481 4.15 8.141 8.831.394 6.183-7.056 10.385-12.324 7.48-2.469-1.255-3.735-3.787-4.777-6.214zm-201.06199-5.985c3.777-1.649 8.44999 1.625 7.58799 5.82-.2 4.75-7.21499 6.576-9.79099 2.607-2.277-2.751-.914998-7.001 2.203-8.427zm238.17899-.1c2.66-1.894 6.928-.533 7.981 2.575 1.788 3.394-1.49 8.044-5.31 7.47-5.363.489-7.1-7.684-2.671-10.045zm-140.037 22.8c9.94-2.585 20.625 5.7 20.688 15.939.649 10.342-9.875 19.514-20.05 17.125-7.8651-1.266-14.0361-8.842-13.7811-16.79-.021-7.6 5.715-14.666 13.1441-16.274zm39.366-.021c10.089-2.82 21.092 5.617 20.932 16.089.533 10.151-9.663 19.014-19.625 17-9.375-1.212-16.292-11.512-13.675-20.61 1.321-6.062 6.386-10.992 12.368-12.479zm-75.9 6.3c6.9809-1.191 13.5259 6.6 10.6949 13.226-2.065 7.064-12.3449 8.98-16.8899 3.21-5.331-5.541-1.351-15.671 6.195-16.436zm115.443.321c6.225-2.607 13.866 2.777 13.387 9.534.25 7.438-9.184 12.566-15.271 8.225-6.9-3.9-5.64-15.367 1.884-17.759zm32.268 32.365c-2.437-4.544 1.99-10.566 7.035-9.725 2.511-.042 4.268 1.936 5.875 3.6.33 2.693.884 5.9-1.351 7.98-3.035 3.841-9.91 2.745-11.559-1.851zm-184.957-8.459c4.715-3.139 11.5 1.542 10.44 7.055-.564 4.875-6.7 7.661-10.75 4.9-4.341-2.511-4.181-9.661.31-11.95zm93.15 10.21c6.173-2.724 14.036 2.65 13.451 9.449.458 7.512-9.269 12.715-15.3 8.2-6.7-3.874-5.586-15.27 1.853-17.652zm-43.1501 10.06c5.257-2.766 12.313 2.011 11.834 7.9.16 4.831-4.555 8.949-9.323 8.235-3.949-.085-6.524-3.625-7.79-6.991.065-3.669 1.575-7.755 5.279-9.139zm87.3931.09c5.406-3.341 13.09 1.458 12.579 7.75.139 6.576-8.545 10.789-13.579 6.469-4.874-3.386-4.279-11.526 1-14.219zm15.2 37.571c-2.4-3.639.426-8.023 4.331-8.852 3.14.639 6.46 3 5.8 6.64-.458 4.926-7.663 6.438-10.131 2.212zm-120.639-3.16c.958-2.884 3.278-5.75 6.673-5 4.9489.351 6.4179 7.81 2.0859 10.109-3.8949 2.626-8.4139-.97-8.7589-5.109zm58.2 3.309c.948-4.266 6.47-6.341 10.11-4.075 2.4 1.033 3.107 3.724 3.725 6.011-.33 1.191-.625 2.384-.915 3.575-1.49 1.766-3.4 3.533-5.885 3.469-4.609.54-8.766-4.67-7.035-8.98z" fill="#3cc8c8"/></svg>