<svg fill="none" height="250" viewBox="0 0 250 250" width="250" xmlns="http://www.w3.org/2000/svg" xmlns:xlink="http://www.w3.org/1999/xlink"><clipPath id="a"><path d="m-.000244 0h250v250h-250z"/></clipPath><g clip-path="url(#a)" fill="#3066ff"><path d="m214.155 77.0294c-3.044 4.197-6.087 8.4027-9.131 12.5822-7.861 10.7744-15.739 21.5394-23.635 32.2964-.974 1.332-1.331 2.316-.218 3.805 6.227 8.368 12.175 16.918 18.627 25.147 2.143 2.61 4.742 4.808 7.67 6.487 5.713 3.413 11.47 2.473 16.392-2.342 6.304-6.183 9.365-14.063 9.965-22.596 2.557-36.11-10.435-66.0724-37.131-90.0353-16.958-15.2033-37.097-24.3287-59.759-26.1834-46.6538-3.8574-83.1594 14.289-106.7603 54.6829-37.85345 64.8008.8696 147.8358 74.8373 161.5238 35.106 6.495 66.376-2.717 93.29-26.314 2.67-2.334 2.609-2.377 4.714.522 1.808 2.508 3.547 5.068 5.461 7.489 1.243 1.576 1.321 2.612-.34 4.049-14.185 12.657-31.079 21.891-49.384 26.993-20.001 5.546-40.288 6.635-60.4194 1.602-50.9844-12.713-83.3594-44.861-95.28155-96.017-15.01795-64.4356 26.95745-131.2219 91.30755-146.97366 69.3414-16.97954 137.3964 25.38226 152.7534 95.24226 3.235 14.7334 4.278 29.6054.313 44.5034-1.921 7.845-5.758 15.089-11.166 21.081-12.748 13.767-31.305 13.862-45.219-.461-6.148-6.322-10.965-13.932-16.366-20.985-1.287-1.672-2.504-3.396-4-5.434-.869 1.124-1.617 1.968-2.278 2.856-7.566 10.145-15.148 20.28-22.61 30.476-.472.773-1.146 1.401-1.949 1.819-.803.417-1.704.607-2.607.55-5.087-.139-10.175 0-15.975 0 1.122-1.663 1.826-2.76 2.609-3.814 10.14-14.132 20.227-28.299 30.479-42.344 1.618-2.212 1.496-3.605-.104-5.756-10.435-13.932-20.627-28.0119-30.897-42.0397-.556-.7575-1.061-1.5673-1.887-2.8125 1.479-.1306 2.479-.296 3.479-.3047 4.252 0 8.504.0783 12.748-.0523.947-.0904 1.901.0908 2.749.5225.849.4317 1.557 1.0961 2.042 1.9156 6.957 9.9875 14.07 19.8791 21.132 29.7971.608.871 1.243 1.741 2.139 2.908.782-.94 1.469-1.663 2.043-2.464 7.288-10.1094 14.61-20.2014 21.81-30.3717.476-.7693 1.155-1.3919 1.962-1.7991s1.711-.5831 2.612-.5084c5.217.1045 10.383 0 15.574 0z"/><path d="m52.4451 130.22c1.5479 11.546 6.635 20.027 16.4441 25.365 7.1915 3.91 14.957 4.284 22.8182 2.752 7.8611-1.533 14.0786-6.043 19.5656-12.191l11.827 10.075c-2.922 2.838-5.392 5.825-8.401 8.08-15.3305 11.459-32.2702 13.331-49.8621 6.714-17.2093-6.496-26.4357-20.027-28.9576-37.817-2.4348-17.232 1.3131-33.088 14.2179-45.4875 13.1309-12.591 29.1228-15.569 46.2016-10.301 16.6792 5.1375 25.9832 17.415 29.3232 34.2465 1.008 5.059.817 10.362 1.095 15.56.113 2.238-.93 3.074-3.339 3.065-22.209-.096-44.4189-.061-66.6284-.061zm57.6459-14.323c-1.853-9.579-5.714-17.5286-14.2618-21.9955-10.3395-5.3899-20.7572-4.5192-30.4358 1.9853-7.0089 4.7192-10.8699 11.5632-12.4439 20.0272z"/></g></svg>