<svg width="24" height="24" fill="none" xmlns="http://www.w3.org/2000/svg"><rect width="24" height="24" rx="12" fill="#fff"/><path fill-rule="evenodd" clip-rule="evenodd" d="M6.652 19.171A8.936 8.936 0 0 1 3.055 12c0-4.94 4.008-8.948 8.948-8.948 4.079 0 8.533 2.437 9.609 6.17C20.408 5.053 16.562 2 12.002 2c-5.52 0-10 4.478-10 10s4.48 10 10 10c5.523 0 10-4.478 10-10v-.527h-.621a17.48 17.48 0 0 1-1.207-.065c-.75-.066-1.606-.193-2.187-.427-.938-.375-1.468-.87-2.071-1.451l-.035-.033c-.606-.581-1.286-1.236-2.468-1.79-1.163-.547-2.448-.46-3.391-.264a8.455 8.455 0 0 0-1.182.334c-.147.052-.264.1-.345.133-.476.201-.938.438-1.402.658a53.986 53.986 0 0 0 1.443.416 5.22 5.22 0 0 1 1.144.549c.489.312.894.709 1.06 1.193-1.036.135-2.009.592-2.737 1.019a11.522 11.522 0 0 0-1.367.948c-.06.049-.994.872-.994.872s1.206.128 1.801.248c.397.078.93.209 1.49.402.56.195 1.124.45 1.594.78.47.328.816.706.984 1.14.495 1.267.008 2.498-.967 3.191-.965.685-2.43.848-3.894-.157l.002.002Zm3.413 1.565a4.08 4.08 0 0 0 1.093-.549c1.326-.942 2.024-2.67 1.337-4.432-.272-.693-.788-1.22-1.362-1.622-.576-.402-1.236-.695-1.85-.91-.402-.142-.794-.25-1.133-.332.122-.079.25-.16.388-.242.81-.475 1.832-.913 2.81-.913 1.476 0 2.573.454 3.622.938.095.043.19.09.288.133.938.44 1.922.902 3.066.902s1.972-.312 2.567-.638c-.53 4.434-4.304 7.875-8.883 7.875a9.08 9.08 0 0 1-1.937-.21h-.006Zm9.685-8.31a4.443 4.443 0 0 1-1.43.232c-.896 0-1.668-.36-2.646-.816l-.263-.122c-.981-.454-2.115-.935-3.59-1.022-.198-.975-.938-1.644-1.573-2.051a4.456 4.456 0 0 0-.212-.13c.062-.014.127-.03.195-.044.853-.177 1.87-.22 2.731.187 1.022.481 1.6 1.036 2.201 1.612l.022.019c.617.592 1.272 1.214 2.41 1.67.634.254 1.454.39 2.155.466Z" fill="url(#a)"/><defs><linearGradient id="a" x1="1.824" y1="12.185" x2="22.182" y2="11.813" gradientUnits="userSpaceOnUse"><stop stop-color="#29CCB9"/><stop offset=".49" stop-color="#0091FF"/><stop offset="1" stop-color="#FF66B7"/></linearGradient></defs></svg>
