<svg fill="none" height="250" viewBox="0 0 250 250" width="250" xmlns="http://www.w3.org/2000/svg" xmlns:xlink="http://www.w3.org/1999/xlink"><clipPath id="a"><path d="m0 0h250v250h-250z"/></clipPath><g clip-path="url(#a)"><path d="m125 250c69.036 0 125-55.964 125-125 0-69.0356-55.964-125-125-125-69.0356 0-125 55.9644-125 125 0 69.036 55.9644 125 125 125z" fill="#000d2b"/><path d="m124.375 45.9338-35.3001 20.6837 35.3001 20.6838 35.962-20.6838zm5.805 110.4262v41.366l47.945-27.351v-41.375zm35.957-76.735v41.375l-35.962 20.684v-41.375zm-86.5721 41.375 35.9621 20.684v-41.375l-35.9621-20.684zm0 56.044 35.9621 20.684v-41.368l-35.9621-20.684v41.367z" fill="#fff"/></g></svg>