<svg width="250" height="250" viewBox="0 0 250 250" fill="none" xmlns="http://www.w3.org/2000/svg">
<g clip-path="url(#clip0_9_599)">
<path d="M125 250C194.036 250 250 194.036 250 125C250 55.9644 194.036 0 125 0C55.9644 0 0 55.9644 0 125C0 194.036 55.9644 250 125 250Z" fill="#000D2B"/>
<path d="M124.375 45.9338L89.0749 66.6175L124.375 87.3013L160.337 66.6175L124.375 45.9338ZM130.18 156.36V197.726L178.125 170.375V129L130.18 156.36ZM166.137 79.625V121L130.175 141.684V100.309L166.137 79.625ZM79.5649 121L115.527 141.684V100.309L79.5649 79.625V121ZM79.5649 177.044L115.527 197.728V156.36L79.5649 135.676V177.043V177.044Z" fill="white"/>
</g>
<defs>
<clipPath id="clip0_9_599">
<rect width="250" height="250" fill="white"/>
</clipPath>
</defs>
</svg>
