<svg fill="none" height="250" viewBox="0 0 250 250" width="250" xmlns="http://www.w3.org/2000/svg" xmlns:xlink="http://www.w3.org/1999/xlink"><clipPath id="a"><path d="m0 0h250v250h-250z"/></clipPath><mask id="b" height="251" maskUnits="userSpaceOnUse" width="250" x="0" y="0"><path d="m.00024414.00097656h249.99975586v250.00002344h-249.99975586z" fill="#fff"/></mask><g clip-path="url(#a)"><g mask="url(#b)"><path clip-rule="evenodd" d="m125 .00097656c69.037 0 125 55.96302344 125 125.00002344 0 69.031-55.963 125-125 125-69.0367 0-124.99975586-55.969-124.99975586-125 0-69.037 55.96305586-125.00002344 124.99975586-125.00002344z" fill="#2775ca" fill-rule="evenodd"/></g><g clip-rule="evenodd" fill="#fff" fill-rule="evenodd"><path d="m101.568 211.909c0 2.94-2.3024 4.611-5.1461 3.723-37.7941-12.057-65.1961-47.496-65.1961-89.311 0-41.8142 27.402-77.2545 65.1961-89.3114 2.8437-.8821 5.1461.7827 5.1461 3.7231v7.2585c0 1.9574-1.517 4.2613-3.3819 4.8991-29.902 10.9801-51.3225 39.706-51.3225 73.3807 0 33.675 21.4205 62.406 51.3225 73.381 1.8649.687 3.3819 2.94 3.3819 4.904z"/><path d="m132.793 184.898c0 2.159-1.764 3.924-3.92 3.924h-7.796c-2.156 0-3.92-1.765-3.92-3.924v-12.351c-17.06-2.302-25.3906-11.863-27.6463-24.852-.3935-2.209 1.3708-4.217 3.6264-4.217h8.9219c1.862 0 3.432 1.325 3.824 3.184 1.667 7.746 6.128 13.678 19.802 13.678 10.098 0 17.258-5.638 17.258-14.065 0-8.435-4.218-11.62-19.022-14.073-21.862-2.94-32.2043-9.559-32.2043-26.716 0-13.234 10.0013-23.5267 25.4903-25.734v-12.108c0-2.1577 1.765-3.9233 3.92-3.9233h7.796c2.156 0 3.92 1.7656 3.92 3.9233v12.4517c12.598 2.2585 20.588 9.4105 23.188 21.2723.488 2.259-1.276 4.363-3.579 4.363h-8.237c-1.764 0-3.234-1.178-3.772-2.892-2.206-7.5458-7.6-10.7802-16.964-10.7802-10.342 0-15.686 4.9986-15.686 12.0072 0 7.402 3.042 11.125 18.925 13.433 21.467 2.94 32.548 9.067 32.548 27.355 0 13.871-10.295 25.097-26.423 27.693v12.351z"/><path d="m153.579 215.633c-2.841.888-5.147-.783-5.147-3.723v-7.253c0-2.158 1.324-4.166 3.382-4.905 29.902-10.98 51.323-39.706 51.323-73.381 0-33.6743-21.421-62.4001-51.323-73.3803-1.862-.6875-3.382-2.9403-3.382-4.9048v-7.2528c0-2.9404 2.306-4.6549 5.147-3.7287 37.794 12.0639 65.196 47.5028 65.196 89.3166-.047 41.715-27.402 77.105-65.196 89.212z"/></g></g></svg>