<svg fill="none" height="250" viewBox="0 0 250 250" width="250" xmlns="http://www.w3.org/2000/svg" xmlns:xlink="http://www.w3.org/1999/xlink"><clipPath id="a"><path d="m20 19.9468h210v210h-210z"/></clipPath><mask id="b" height="207" maskUnits="userSpaceOnUse" width="206" x="20" y="19"><path d="m225.82 19.9468h-205.82v205.8182h205.82z" fill="#fff"/></mask><mask id="c" height="207" maskUnits="userSpaceOnUse" width="206" x="20" y="19"><path d="m225.82 19.9468h-205.82v205.8182h205.82z" fill="#fff"/></mask><rect fill="#fff" height="250" rx="125" width="250"/><g clip-path="url(#a)"><g mask="url(#b)"><g fill="#999" mask="url(#c)"><path d="m143.332 28.1345 5.477 12.8293c10.751 25.19 30.815 45.2541 56.004 56.0049l12.83 5.4773c3.358 1.432 6.083 3.485 8.188 5.931-6.389-45.8101-42.62-82.046-88.43-88.4302 2.441 2.0991 4.499 4.8299 5.931 8.1877z"/><path d="m28.1877 102.446 12.8294-5.4773c25.1899-10.7508 45.254-30.8149 56.0097-56.0049l5.4722-12.8293c1.437-3.3578 3.49-6.0886 5.931-8.1877-45.8099 6.3842-82.0409 42.6201-88.43 88.4302 2.1041-2.446 4.8301-4.499 8.1877-5.931z"/><path d="m217.643 143.261-12.83 5.477c-25.189 10.75-45.253 30.82-56.004 56.009l-5.477 12.825c-1.432 3.358-3.49 6.089-5.931 8.193 45.81-6.389 82.041-42.625 88.43-88.435-2.105 2.446-4.83 4.499-8.188 5.931z"/><path d="m102.499 217.572-5.4722-12.825c-10.7557-25.189-30.8198-45.259-56.0097-56.009l-12.8294-5.477c-3.3576-1.432-6.0836-3.485-8.1877-5.931 6.3891 45.81 42.6201 82.046 88.43 88.435-2.441-2.104-4.494-4.835-5.931-8.193z"/></g><path d="m76.2219 112.8 6.3228-2.701c12.4116-5.299 22.3013-15.1834 27.6003-27.595l2.695-6.323c3.781-8.8553 16.335-8.8553 20.115 0l2.696 6.323c5.298 12.4116 15.188 22.296 27.6 27.595l6.323 2.701c8.855 3.78 8.855 16.329 0 20.11l-6.323 2.7c-12.412 5.299-22.302 15.183-27.6 27.6l-2.696 6.317c-3.78 8.856-16.334 8.856-20.115 0l-2.695-6.317c-5.299-12.417-15.1887-22.301-27.6003-27.6l-6.3228-2.7c-8.8551-3.781-8.8551-16.33 0-20.11z" fill="#000"/></g></g></svg>