<svg fill="none" height="250" viewBox="0 0 251 250" width="251" xmlns="http://www.w3.org/2000/svg"><g fill="#fff"><path d="m127.055 241.919v-39.418c-3.967 0-8.021-.345-11.989-.948l-6.21 38.899c6.038 1.035 12.162 1.467 18.199 1.467zm18.113-1.38c6.038-.949 11.99-2.329 17.768-4.227l-12.161-37.52c-3.795 1.208-7.763 2.157-11.731 2.761zm-53.9937-4.227 12.1617-37.433c-3.7952-1.208-7.5041-2.76-11.1267-4.572l-17.9405 35.105c5.4339 2.674 11.1266 5.003 16.9055 6.9zm88.5817-6.9c5.434-2.76 10.609-5.951 15.525-9.488l-23.288-31.827c-3.191 2.329-6.641 4.485-10.264 6.21zm-121.0127-9.574 23.2882-31.827c-3.1914-2.329-6.2965-4.917-9.1428-7.763l-27.9459 27.86c4.3127 4.226 8.9703 8.194 13.8005 11.73zm150.2517-11.558.259-.259c4.313-4.226 8.28-8.884 11.817-13.714l-31.914-23.202c-2.329 3.192-5.002 6.297-7.762 9.057l-.432.431 13.456 12.679zm-175.8688-14.059 31.9135-23.202c-2.3288-3.191-4.4851-6.641-6.2964-10.178l-35.1911 17.855c2.7601 5.434 5.9514 10.609 9.574 15.525zm197.4328-15.439c2.76-5.348 5.088-11.041 6.986-16.819l-37.606-12.076c-1.208 3.795-2.76 7.504-4.572 11.041zm-213.9933-16.819 37.6062-12.162c-1.2076-3.795-2.1563-7.677-2.7601-11.644l-39.0725 6.124c.9488 5.951 2.4151 11.903 4.2264 17.682zm225.2053-17.596c.949-5.951 1.467-12.075 1.467-18.113h-39.504c0 3.968-.345 8.021-.949 11.989zm-191.308-18.199c0-3.968.345-8.022.9488-11.989l-39.0725-6.124c-.9487 5.951-1.38 12.075-1.4663 18.113zm152.322-11.903 39.073-6.124c-.949-5.952-2.329-11.903-4.227-17.6819l-37.606 12.0749c1.208 3.882 2.156 7.763 2.76 11.731zm-148.6131-11.731c1.2075-3.7946 2.7601-7.5035 4.5714-11.0398l-35.1911-17.8543c-2.7601 5.3476-5.0889 11.0403-6.9865 16.8192zm141.2821-10.9536 35.277-17.8543c-2.76-5.4339-5.951-10.6091-9.574-15.5255l-32 23.202c2.329 3.1913 4.485 6.6415 6.297 10.1778zm-130.4143-10.2641c2.3288-3.1913 5.0027-6.2964 7.849-9.1427l.0863-.0863-27.9459-27.8596-.0863.0862c-4.3126 4.3127-8.2802 8.8841-11.8166 13.8005zm116.3553-8.9702 8.452-8.5391 19.407-19.3205-.086-.0863c-4.313-4.2264-8.884-8.194-13.714-11.7304l-23.288 31.8273c3.191 2.3288 6.296 4.9164 9.056 7.7627zm-99.2773-8.0215c3.1914-2.3289 6.6415-4.3989 10.2641-6.2102l-17.9405-35.1049c-5.434 2.7601-10.6091 5.9515-15.5255 9.4878zm79.8703-6.124 18.027-35.1048c-5.434-2.7601-11.041-5.0889-16.82-6.9865l-12.248 37.4337c3.709 1.2938 7.418 2.8463 11.041 4.6576zm-58.48-4.6576c3.796-1.2076 7.763-2.1563 11.731-2.7601l-6.124-38.8999c-5.952.9487-11.9893 2.3288-17.7682 4.2263zm35.623-2.7601 6.21-38.8999c-5.951-.9488-12.075-1.4663-18.113-1.4663v39.4174c3.968 0 8.021.345 11.903.9488z"/><path d="m127.053 204.313v-39.59c-3.364 0-6.641-.432-9.919-1.294l-10.35 38.21c6.641 1.725 13.455 2.674 20.269 2.674zm20.269-2.674c6.642-1.725 12.938-4.313 18.89-7.763l-20.011-34.242c-2.846 1.638-5.951 2.932-9.143 3.795zm-59.3413-7.763 20.0103-34.242c-2.846-1.639-5.52-3.709-7.935-6.038l-.345-.345-12.5929 13.197-15.5255 14.921.2588.259c4.8302 4.744 10.2641 8.884 16.1293 12.248zm94.3603-12.248c4.83-4.83 9.057-10.178 12.42-16.043l-34.587-19.838c-1.639 2.846-3.709 5.434-6.124 7.849zm-122.9962-16.129 34.5873-19.752c-1.6388-2.846-2.9326-5.865-3.7951-9.057l-38.555 10.178c1.7251 6.469 4.3989 12.766 7.7628 18.631zm143.2652-18.544c1.725-6.556 2.674-13.283 2.674-20.011h-39.935c0 3.278-.431 6.641-1.294 9.833zm-113.6806-20.097c0-3.278.4313-6.642 1.2938-9.833l-38.6412-10.178c-1.725 6.555-2.6738 13.283-2.6738 20.011zm75.0396-9.747 38.641-10.178c-1.725-6.555-4.398-12.8514-7.762-18.7165l-34.588 19.7515c1.553 2.933 2.847 5.952 3.709 9.143zm-69.9507-9.143c1.6388-2.76 3.6226-5.434 6.0377-7.762l.086-.087-14.3177-14.1451-13.7141-14.0592-.2588.2588c-4.8301 4.7439-8.9703 10.1778-12.4204 15.9567zm60.0317-7.762 14.146-14.0596 14.49-13.6279-.345-.345c-4.83-4.8302-10.264-8.8841-16.129-12.3342l-20.011 34.2423c2.847 1.6388 5.434 3.6227 7.849 5.9514zm-46.059-6.1244c2.847-1.6388 5.952-2.9325 9.143-3.7951l-10.178-38.2099c-6.641 1.725-12.9377 4.3126-18.8891 7.7627zm28.981-3.7088 10.35-38.21c-6.555-1.725-13.369-2.6738-20.183-2.6738v39.59c3.278 0 6.642.4313 9.833 1.2938z"/></g></svg>